<svg id="Ebene_1" data-name="Ebene 1" xmlns="http://www.w3.org/2000/svg" viewBox="0 0 291.28 200.79"><defs><style>.cls-1{fill:#1d1d1b;}</style></defs><path class="cls-1" d="M180.37,372.77a11.15,11.15,0,0,1-7.6,2.68H152.61a.49.49,0,0,1-.56-.56V344.17a.5.5,0,0,1,.56-.56h20.16a12,12,0,0,1,7.72,2.36,6.88,6.88,0,0,1,2.88,5.56,8.69,8.69,0,0,1-1.2,4.64,7.91,7.91,0,0,1-3.32,3.08q4.52,2.16,4.52,7.52A7.67,7.67,0,0,1,180.37,372.77Zm-10.56-18.72h-4.48v2h4.48a1,1,0,0,0,0-2Zm0,9h-4.48v2h4.48a1,1,0,1,0,0-2Z" transform="translate(-150.49 -342.85)"/><path class="cls-1" d="M207.53,375.45a.52.52,0,0,1-.56-.4l-1.16-3.6h-9l-.48,1.56q-.29.89-.72,2a.5.5,0,0,1-.52.4H185a.52.52,0,0,1-.48-.24.46.46,0,0,1-.08-.52L195.85,344a.57.57,0,0,1,.56-.4h12.16a.55.55,0,0,1,.52.4l11.56,30.68a.73.73,0,0,1,0,.52.66.66,0,0,1-.52.24Zm-6.32-17.56q-.33.93-.78,2.34c-.31.95-.68,2.09-1.1,3.42h3.8Z" transform="translate(-150.49 -342.85)"/><path class="cls-1" d="M253.77,362.25a15.76,15.76,0,0,1-4.72,10,14.26,14.26,0,0,1-10.28,4,15.64,15.64,0,0,1-11.6-4.88,16,16,0,0,1-4.84-11.8,16.23,16.23,0,0,1,4.8-11.8,15.89,15.89,0,0,1,11.64-4.88,14.39,14.39,0,0,1,10.28,4,15.85,15.85,0,0,1,4.72,10c0,.43-.16.64-.56.64h-10c-.35,0-.54-.16-.56-.48a4.36,4.36,0,0,0-1.32-2.8,3,3,0,0,0-2.08-.84,2.87,2.87,0,0,0-2.44,1.4,10.34,10.34,0,0,0,0,9.36,2.85,2.85,0,0,0,2.44,1.44,3,3,0,0,0,2-.84,4.24,4.24,0,0,0,1.32-2.72c0-.32.21-.48.56-.48h10Z" transform="translate(-150.49 -342.85)"/><path class="cls-1" d="M275.53,375.45a.57.57,0,0,1-.52-.32l-4.24-7.44c-.11.14-.24.32-.4.56l-.56.84v5.8a.49.49,0,0,1-.56.56H257.17c-.4,0-.6-.18-.6-.56V344.17c0-.37.2-.56.6-.56h12.08a.5.5,0,0,1,.56.56v8.24l5.4-8.52a.56.56,0,0,1,.52-.28h12a.5.5,0,0,1,.56.56.56.56,0,0,1-.12.36l-9.12,13.2,9.48,16.88a2.51,2.51,0,0,1,.08.28c0,.38-.2.56-.6.56Z" transform="translate(-150.49 -342.85)"/><path class="cls-1" d="M290.93,375.45c-.4,0-.6-.18-.6-.56V344.17c0-.37.2-.56.6-.56h27.72c.4,0,.6.19.6.56v9.32c0,.38-.2.56-.6.56h-15v2h11a.5.5,0,0,1,.56.56v5.88a.49.49,0,0,1-.56.56h-11v2h15a.54.54,0,0,1,.6.61v9.27c0,.38-.2.56-.6.56Z" transform="translate(-150.49 -342.85)"/><path class="cls-1" d="M343.65,375.45a.65.65,0,0,1-.44-.24l-9.76-12.16v11.84a.49.49,0,0,1-.56.56H322.57c-.4,0-.6-.18-.6-.56V344.17c0-.37.2-.56.6-.56h10.76a.63.63,0,0,1,.48.24l9.28,12V344.17a.49.49,0,0,1,.56-.56H354c.4,0,.6.19.6.56v30.72c0,.38-.2.56-.6.56Z" transform="translate(-150.49 -342.85)"/><path class="cls-1" d="M385,370.77a16.3,16.3,0,0,1-11.68,4.68H358.21c-.4,0-.6-.18-.6-.56V344.17c0-.37.2-.56.6-.56h15.12A16.39,16.39,0,0,1,385,348.25a15.15,15.15,0,0,1,4.84,11.28A14.92,14.92,0,0,1,385,370.77Zm-9.88-15.56a3.54,3.54,0,0,0-2.68-1.16h-1.56v11h1.56a3.46,3.46,0,0,0,2.68-1.19,7.49,7.49,0,0,0,0-8.61Z" transform="translate(-150.49 -342.85)"/><path class="cls-1" d="M150.56,384.38h2l1,7,.16,1c.08.56.14,1.07.18,1.54l.11,1.28s0,.09,0,.17,0,.19,0,.32l.05-.48c.08-.86.16-1.64.25-2.36s.19-1.38.29-2l1.08-6.52h1.57l1,6.33c.15.94.28,1.81.38,2.61s.18,1.57.25,2.3c.06-.77.14-1.51.22-2.23s.17-1.42.26-2.11l.14-1,.87-5.89h2l-2.67,15.07h-1.58L157,392.94s0-.13,0-.32-.06-.46-.11-.81l-.21-1.51c0-.11,0-.29-.06-.52s-.06-.53-.09-.89l-.05-.63c0,.15,0,.28,0,.39a1.58,1.58,0,0,0,0,.28c0,.43-.06.76-.08,1s0,.38,0,.43l-.2,1.45c0,.33-.09.59-.11.78s-.05.31-.06.35l-1.1,6.51h-1.63Z" transform="translate(-150.49 -342.85)"/><path class="cls-1" d="M163.55,384.38h2v15.07h-2Z" transform="translate(-150.49 -342.85)"/><path class="cls-1" d="M167.9,384.38h2.68a3.39,3.39,0,0,1,2.47.79,4.27,4.27,0,0,1,1,3.13,5.38,5.38,0,0,1-.54,2.6,2.33,2.33,0,0,1-1.55,1.22l2.78,7.33H172.7l-2.77-7.38v7.38h-2Zm2,6.68a2.16,2.16,0,0,0,1.67-.55,2.75,2.75,0,0,0,.49-1.85,5.91,5.91,0,0,0-.1-1.2,2.32,2.32,0,0,0-.32-.81,1.34,1.34,0,0,0-.57-.46,2.07,2.07,0,0,0-.82-.14h-.35Z" transform="translate(-150.49 -342.85)"/><path class="cls-1" d="M176.33,384.38h5.4v1.71h-3.37v4.78h3v1.72h-3v5.15h3.37v1.71h-5.4Z" transform="translate(-150.49 -342.85)"/><path class="cls-1" d="M183.6,384.38H189v1.71h-3.4v4.77h3.06v1.72h-3.06v6.87h-2Z" transform="translate(-150.49 -342.85)"/><path class="cls-1" d="M190.59,384.38h2.67a3.39,3.39,0,0,1,2.47.79,4.23,4.23,0,0,1,1,3.13,5.38,5.38,0,0,1-.54,2.6,2.33,2.33,0,0,1-1.55,1.22l2.77,7.33h-2.06l-2.76-7.38v7.38h-2Zm2,6.68a2.17,2.17,0,0,0,1.67-.55,2.81,2.81,0,0,0,.49-1.85,5.84,5.84,0,0,0-.11-1.2,2,2,0,0,0-.32-.81,1.26,1.26,0,0,0-.56-.46,2.09,2.09,0,0,0-.83-.14h-.34Z" transform="translate(-150.49 -342.85)"/><path class="cls-1" d="M201.16,384.38h1.59L206,399.45h-2l-.57-2.94h-3l-.57,2.94h-2Zm2,10.56-.45-2.4c-.3-1.63-.55-3.38-.73-5.23-.1.9-.21,1.82-.36,2.74s-.31,1.92-.5,3l-.37,1.93Z" transform="translate(-150.49 -342.85)"/><path class="cls-1" d="M207.88,384.38h1.74l1.33,6.15c.16.77.31,1.54.44,2.31s.26,1.58.37,2.42c0-.11,0-.19,0-.25a1.13,1.13,0,0,1,0-.14l.28-1.72.26-1.65.22-1.08,1.18-6h1.76l1.39,15.07h-2l-.34-5.11c0-.26,0-.49,0-.68s0-.34,0-.47l-.09-2,0-1.85a.78.78,0,0,1,0-.09s0-.09,0-.17l0,.31c-.05.35-.1.67-.14.93s-.08.5-.12.68l-.25,1.37-.1.52-1.27,6.58h-1.36l-1.2-5.68c-.16-.75-.3-1.51-.43-2.28s-.24-1.58-.35-2.43l-.58,10.39h-1.92Z" transform="translate(-150.49 -342.85)"/><path class="cls-1" d="M218.58,384.38h2v15.07h-2Z" transform="translate(-150.49 -342.85)"/><path class="cls-1" d="M222.93,384.38h1.9l2,6q.87,2.55,1.55,5.44c-.16-1.16-.28-2.22-.36-3.16s-.12-1.84-.12-2.67v-5.62h2v15.07h-1.9l-2.28-6.78c-.21-.63-.4-1.28-.59-1.95s-.35-1.36-.51-2.09a3,3,0,0,0-.06-.33l-.11-.45c0,.17,0,.32.05.44a1.89,1.89,0,0,1,0,.3l.11,1.54.11,1.86c0,.11,0,.23,0,.38s0,.32,0,.51l.1,6.57h-2Z" transform="translate(-150.49 -342.85)"/><path class="cls-1" d="M235.9,391.52h3.69v.59q0,4.41-.77,5.95a2.88,2.88,0,0,1-2.85,1.58,3.2,3.2,0,0,1-3.08-1.76A13.92,13.92,0,0,1,232,392c0-3.16.34-5.27,1-6.31a3.18,3.18,0,0,1,2.88-1.48,3.5,3.5,0,0,1,2.32.71,4.82,4.82,0,0,1,1.3,2.38l-1.89.79a6.58,6.58,0,0,0-.28-1,2.28,2.28,0,0,0-.35-.63,1.31,1.31,0,0,0-1.11-.46c-.68,0-1.14.41-1.39,1.25a20.34,20.34,0,0,0-.37,4.7,18.44,18.44,0,0,0,.38,4.63,1.47,1.47,0,0,0,1.44,1.21,1.38,1.38,0,0,0,1.36-.85,8.13,8.13,0,0,0,.4-3v-.72H235.9Z" transform="translate(-150.49 -342.85)"/><path class="cls-1" d="M153.18,408.38h2V420a4.81,4.81,0,0,1-.52,2.55,2.77,2.77,0,0,1-2.48,1.14,3.57,3.57,0,0,1-1.73-.39v-2a3.05,3.05,0,0,0,1.35.52c.89,0,1.34-.63,1.34-1.89V408.38Z" transform="translate(-150.49 -342.85)"/><path class="cls-1" d="M159.71,408.38h1.58l3.23,15.07h-2l-.56-2.94h-3l-.58,2.94h-1.95Zm1.94,10.56-.45-2.4c-.3-1.63-.54-3.38-.73-5.23-.09.9-.21,1.82-.35,2.74s-.31,1.92-.51,3l-.37,1.93Z" transform="translate(-150.49 -342.85)"/><path class="cls-1" d="M164.17,408.38h2l.91,5.56.16,1,.32,2.19c.05.37.1.71.14,1s.08.58.11.83l.1.74c0-.15,0-.28.05-.4s0-.21,0-.29l.26-1.75.35-2.29c0-.21.06-.4.09-.58s.06-.33.08-.47l1-5.56h1.89l-3,15.07h-1.61Z" transform="translate(-150.49 -342.85)"/><path class="cls-1" d="M174.55,408.38h1.58l3.24,15.07h-2l-.57-2.94h-3l-.58,2.94h-1.95Zm1.95,10.56-.45-2.4c-.3-1.63-.55-3.38-.74-5.23-.09.9-.2,1.82-.35,2.74s-.31,1.92-.5,3l-.38,1.93Z" transform="translate(-150.49 -342.85)"/><path class="cls-1" d="M185.59,408.69v2a3,3,0,0,0-1.67-.66,1.69,1.69,0,0,0-1.31.56,2,2,0,0,0-.51,1.44,2.49,2.49,0,0,0,.36,1.36,7.25,7.25,0,0,0,.61.78c.29.32.65.7,1.1,1.15a9,9,0,0,1,1.69,2.18,4.78,4.78,0,0,1,.45,2.18,4.23,4.23,0,0,1-1,2.88,3.24,3.24,0,0,1-2.53,1.1,3.52,3.52,0,0,1-2.21-.71v-2a3.5,3.5,0,0,0,2,.79,1.62,1.62,0,0,0,1.3-.56,2.22,2.22,0,0,0,.47-1.49,3,3,0,0,0-.36-1.48,6.91,6.91,0,0,0-.52-.72c-.22-.27-.5-.57-.83-.9-.51-.51-.94-1-1.28-1.35a6.17,6.17,0,0,1-.75-1,4.55,4.55,0,0,1-.47-2.17,4.07,4.07,0,0,1,.92-2.8,3.16,3.16,0,0,1,2.49-1.05A4.35,4.35,0,0,1,185.59,408.69Z" transform="translate(-150.49 -342.85)"/><path class="cls-1" d="M193.94,408.62v1.83a3.05,3.05,0,0,0-1.31-.38,2.1,2.1,0,0,0-1.24.35,2.65,2.65,0,0,0-.86,1.1,6.91,6.91,0,0,0-.49,1.88,19.16,19.16,0,0,0-.16,2.69c0,3.72,1,5.59,2.86,5.59a3.07,3.07,0,0,0,1.2-.32v1.87a3.35,3.35,0,0,1-1.64.41q-4.59,0-4.58-7.48a12.68,12.68,0,0,1,1.11-6,3.7,3.7,0,0,1,3.43-2A3.53,3.53,0,0,1,193.94,408.62Z" transform="translate(-150.49 -342.85)"/><path class="cls-1" d="M195.65,408.38h2.67a3.39,3.39,0,0,1,2.47.79,4.23,4.23,0,0,1,1,3.13,5.38,5.38,0,0,1-.54,2.6,2.33,2.33,0,0,1-1.55,1.22l2.77,7.33h-2.06l-2.76-7.38v7.38h-2Zm2,6.68a2.17,2.17,0,0,0,1.67-.55,2.81,2.81,0,0,0,.49-1.85,5.84,5.84,0,0,0-.11-1.2,2,2,0,0,0-.32-.81,1.28,1.28,0,0,0-.57-.46,2,2,0,0,0-.82-.14h-.34Z" transform="translate(-150.49 -342.85)"/><path class="cls-1" d="M204.07,408.38h2v15.07h-2Z" transform="translate(-150.49 -342.85)"/><path class="cls-1" d="M208.43,408.38h2.68a3.63,3.63,0,0,1,2.81,1,4.66,4.66,0,0,1,.88,3.13c0,2-.59,3.3-1.77,3.88a6.42,6.42,0,0,1-2.57.4v6.69h-2Zm2,6.65a2.35,2.35,0,0,0,1.74-.51,2.72,2.72,0,0,0,.49-1.84,3.32,3.32,0,0,0-.47-2,1.73,1.73,0,0,0-1.48-.63h-.28Z" transform="translate(-150.49 -342.85)"/><path class="cls-1" d="M215.16,408.38h6.61v1.77h-2.28v13.3h-2v-13.3h-2.34Z" transform="translate(-150.49 -342.85)"/><path class="cls-1" d="M157.61,432.62v1.83a3.05,3.05,0,0,0-1.31-.38,2.13,2.13,0,0,0-1.24.35,2.63,2.63,0,0,0-.85,1.1,6.89,6.89,0,0,0-.5,1.88,19.16,19.16,0,0,0-.16,2.69c0,3.72.95,5.59,2.86,5.59a3.07,3.07,0,0,0,1.2-.32v1.87a3.35,3.35,0,0,1-1.64.41q-4.58,0-4.58-7.48a12.54,12.54,0,0,1,1.12-6,3.67,3.67,0,0,1,3.42-2A3.47,3.47,0,0,1,157.61,432.62Z" transform="translate(-150.49 -342.85)"/><path class="cls-1" d="M164.35,432.69v2a3,3,0,0,0-1.67-.66,1.69,1.69,0,0,0-1.31.56,2,2,0,0,0-.51,1.44,2.49,2.49,0,0,0,.36,1.36,7.25,7.25,0,0,0,.61.78c.29.32.65.7,1.1,1.15a9,9,0,0,1,1.69,2.18,4.78,4.78,0,0,1,.45,2.18,4.23,4.23,0,0,1-1,2.88,3.24,3.24,0,0,1-2.53,1.1,3.52,3.52,0,0,1-2.21-.71v-2a3.5,3.5,0,0,0,2,.79,1.62,1.62,0,0,0,1.3-.56,2.22,2.22,0,0,0,.47-1.49,3,3,0,0,0-.36-1.48,6.91,6.91,0,0,0-.52-.72c-.22-.27-.5-.57-.83-.9-.52-.51-.94-1-1.28-1.35a6.17,6.17,0,0,1-.75-1,4.55,4.55,0,0,1-.47-2.17,4.07,4.07,0,0,1,.92-2.8,3.16,3.16,0,0,1,2.49-1.05A4.35,4.35,0,0,1,164.35,432.69Z" transform="translate(-150.49 -342.85)"/><path class="cls-1" d="M171.81,432.69v2a3,3,0,0,0-1.67-.66,1.69,1.69,0,0,0-1.31.56,2,2,0,0,0-.51,1.44,2.49,2.49,0,0,0,.36,1.36,7.25,7.25,0,0,0,.61.78c.29.32.65.7,1.1,1.15a9,9,0,0,1,1.69,2.18,4.78,4.78,0,0,1,.45,2.18,4.23,4.23,0,0,1-1,2.88,3.24,3.24,0,0,1-2.52,1.1,3.53,3.53,0,0,1-2.22-.71v-2a3.5,3.5,0,0,0,2,.79,1.62,1.62,0,0,0,1.3-.56,2.22,2.22,0,0,0,.47-1.49,3,3,0,0,0-.36-1.48,6.91,6.91,0,0,0-.52-.72c-.22-.27-.5-.57-.83-.9-.51-.51-.94-1-1.28-1.35a6.17,6.17,0,0,1-.75-1,4.55,4.55,0,0,1-.47-2.17,4.07,4.07,0,0,1,.92-2.8,3.16,3.16,0,0,1,2.49-1.05A4.35,4.35,0,0,1,171.81,432.69Z" transform="translate(-150.49 -342.85)"/><path class="cls-1" d="M183.25,482.25a15.76,15.76,0,0,1-4.72,10,14.24,14.24,0,0,1-10.28,4,15.65,15.65,0,0,1-11.6-4.88,16,16,0,0,1-4.84-11.8,16.23,16.23,0,0,1,4.8-11.8,15.89,15.89,0,0,1,11.64-4.88,14.37,14.37,0,0,1,10.28,4,15.85,15.85,0,0,1,4.72,10c0,.43-.16.64-.56.64h-10a.49.49,0,0,1-.56-.48,4.36,4.36,0,0,0-1.32-2.8,3,3,0,0,0-2.08-.84,2.87,2.87,0,0,0-2.44,1.4,10.34,10.34,0,0,0,0,9.36,2.85,2.85,0,0,0,2.44,1.44,3,3,0,0,0,2-.84,4.24,4.24,0,0,0,1.32-2.72.49.49,0,0,1,.56-.48h10Z" transform="translate(-150.49 -342.85)"/><path class="cls-1" d="M214,491.29a16.28,16.28,0,0,1-23.28,0,16.76,16.76,0,0,1,0-23.56,15.74,15.74,0,0,1,11.64-4.92A15.92,15.92,0,0,1,214,467.73a16.18,16.18,0,0,1,4.84,11.8A16,16,0,0,1,214,491.29ZM202.33,473c-2.08,0-3.12,2.18-3.12,6.52s1,6.56,3.12,6.56,3.12-2.18,3.12-6.56S204.41,473,202.33,473Z" transform="translate(-150.49 -342.85)"/><path class="cls-1" d="M249.05,490.77a16.3,16.3,0,0,1-11.68,4.68H222.25c-.4,0-.6-.18-.6-.56V464.17c0-.37.2-.56.6-.56h15.12a16.39,16.39,0,0,1,11.68,4.64,15.11,15.11,0,0,1,4.84,11.28A14.89,14.89,0,0,1,249.05,490.77Zm-9.88-15.56a3.52,3.52,0,0,0-2.68-1.16h-1.56v11h1.56a3.45,3.45,0,0,0,2.68-1.19,7.49,7.49,0,0,0,0-8.61Z" transform="translate(-150.49 -342.85)"/><path class="cls-1" d="M257.21,495.45c-.4,0-.6-.18-.6-.56V464.17c0-.37.2-.56.6-.56h27.72c.4,0,.6.19.6.56v9.32c0,.38-.2.56-.6.56h-15v2h11a.5.5,0,0,1,.56.56v5.88a.49.49,0,0,1-.56.56h-11v2h15a.54.54,0,0,1,.6.61v9.27c0,.38-.2.56-.6.56Z" transform="translate(-150.49 -342.85)"/><path class="cls-1" d="M327.89,495.05a.53.53,0,0,1-.56.4h-9.68a.52.52,0,0,1-.56-.4L312.89,483l-4.2,12.08a.5.5,0,0,1-.52.4h-9.72a.5.5,0,0,1-.52-.4l-10.68-30.68a.46.46,0,0,1,.08-.52.52.52,0,0,1,.48-.24h12.56a.54.54,0,0,1,.56.44l3.64,13q.56-2.19,1.42-5.42t2-7.58a.56.56,0,0,1,.6-.44h10.48a.54.54,0,0,1,.56.44l3.64,13.16q.56-2.19,1.44-5.48l2-7.68a.51.51,0,0,1,.52-.44h10.52c.53,0,.72.26.56.76Z" transform="translate(-150.49 -342.85)"/><path class="cls-1" d="M362.37,495.45a.52.52,0,0,1-.56-.4l-1.16-3.6h-9l-.48,1.56q-.29.89-.72,2a.5.5,0,0,1-.52.4H339.85a.52.52,0,0,1-.48-.24.44.44,0,0,1-.08-.52L350.69,464a.57.57,0,0,1,.56-.4h12.16a.55.55,0,0,1,.52.4l11.56,30.68a.73.73,0,0,1,0,.52.66.66,0,0,1-.52.24Zm-6.32-17.56q-.33.93-.78,2.34c-.31.95-.68,2.09-1.1,3.42H358Z" transform="translate(-150.49 -342.85)"/><path class="cls-1" d="M398.29,495.45a.47.47,0,0,1-.44-.28,8.75,8.75,0,0,1-1.68-5v-5.64c0-.66-.32-1-1-1h-4.52v11.4a.49.49,0,0,1-.56.56H378a.49.49,0,0,1-.56-.56V464.17a.49.49,0,0,1,.56-.56h20.12a11.72,11.72,0,0,1,7.8,2.52,7.29,7.29,0,0,1,2.84,5.8,8.1,8.1,0,0,1-4.52,7.76q4.51,2.16,4.52,7.52v2.52a11.24,11.24,0,0,0,1.36,4.88.45.45,0,0,1,0,.56.47.47,0,0,1-.48.28Zm-3.08-21.4h-4.52v2.44h4.52a.93.93,0,0,0,.68-.36,1.46,1.46,0,0,0,.28-.84C396.17,474.47,395.85,474.05,395.21,474.05Z" transform="translate(-150.49 -342.85)"/><path class="cls-1" d="M438.29,492.69q-4,3.53-12,3.52a19.51,19.51,0,0,1-11.08-2.94,9.42,9.42,0,0,1-4.68-8.22.49.49,0,0,1,.56-.56h9.56a.52.52,0,0,1,.56.48,3.19,3.19,0,0,0,2.08,2.44,6.88,6.88,0,0,0,2.88.6c2.4,0,3.6-.39,3.6-1.19q0-.88-5.12-2-6.29-1.31-9-2.87a8.59,8.59,0,0,1-4.68-7.93,9.67,9.67,0,0,1,3.8-7.66q4.15-3.54,11.24-3.55a17.34,17.34,0,0,1,10.36,3,9,9,0,0,1,4.12,7.52c0,.38-.2.56-.6.56h-9.2c-.35,0-.54-.16-.56-.48-.3-2.05-1.64-3.08-4-3.08-2.14,0-3.2.4-3.2,1.2,0,.48.46.88,1.4,1.2a24.49,24.49,0,0,0,3.48.88,31.25,31.25,0,0,1,9.12,3.12q4.8,2.88,4.8,8A10,10,0,0,1,438.29,492.69Z" transform="translate(-150.49 -342.85)"/><path class="cls-1" d="M151.69,504.38h2v7.3l2.83-7.3h2.06l-3,7.3,3.2,7.77h-2.29l-2.83-7.77v7.77h-2Z" transform="translate(-150.49 -342.85)"/><path class="cls-1" d="M158.91,504.38h2.15l1,3.28a2,2,0,0,1,.1.32c0,.12.07.24.12.38a23.86,23.86,0,0,1,.76,3c.12-.81.21-1.37.29-1.69l.31-1.35.12-.53.84-3.4h2.12L164.08,513v6.48h-2V513Z" transform="translate(-150.49 -342.85)"/><path class="cls-1" d="M167.83,504.38h2V515a5.17,5.17,0,0,0,.29,2.17,1.24,1.24,0,0,0,1.19.54,1.27,1.27,0,0,0,1.17-.47,4.17,4.17,0,0,0,.3-1.95V504.38h2v10.94a5.31,5.31,0,0,1-.75,3.33,3.54,3.54,0,0,1-2.75,1,3.15,3.15,0,0,1-2.86-1.27,6.66,6.66,0,0,1-.58-3.34Z" transform="translate(-150.49 -342.85)"/><path class="cls-1" d="M175.93,520.81h11.31v1.79H175.93Z" transform="translate(-150.49 -342.85)"/><path class="cls-1" d="M188.4,504.38h2v13.36h3.32v1.71H188.4Z" transform="translate(-150.49 -342.85)"/><path class="cls-1" d="M195,504.38h5.4v1.71h-3.37v4.78h3v1.72h-3v5.15h3.37v1.71H195Z" transform="translate(-150.49 -342.85)"/><path class="cls-1" d="M201.09,504.38h2l.91,5.56.15,1,.32,2.19c.06.37.1.71.15,1s.08.58.11.83l.1.74c0-.15,0-.28,0-.4s0-.21,0-.29l.27-1.75.34-2.29c0-.21.06-.4.09-.58s.06-.33.09-.47l1-5.56h1.9l-3,15.07H204Z" transform="translate(-150.49 -342.85)"/><path class="cls-1" d="M209.68,504.38h5.4v1.71h-3.37v4.78h3v1.72h-3v5.15h3.37v1.71h-5.4Z" transform="translate(-150.49 -342.85)"/><path class="cls-1" d="M217,504.38h2v13.36h3.32v1.71H217Z" transform="translate(-150.49 -342.85)"/><path class="cls-1" d="M224.5,509.2a1.11,1.11,0,0,1,.83.36,1.18,1.18,0,0,1,0,1.7,1.12,1.12,0,0,1-.85.35,1.17,1.17,0,0,1-.86-.35,1.21,1.21,0,0,1-.35-.86,1.15,1.15,0,0,1,.35-.85A1.26,1.26,0,0,1,224.5,509.2Zm0,8a1.11,1.11,0,0,1,.83.36,1.14,1.14,0,0,1,.36.85,1.16,1.16,0,0,1-.36.85,1.19,1.19,0,0,1-.85.34,1.23,1.23,0,0,1-.47-.09,1.27,1.27,0,0,1-.39-.26,1,1,0,0,1-.25-.38,1,1,0,0,1-.1-.47,1.17,1.17,0,0,1,.35-.85A1.26,1.26,0,0,1,224.5,517.19Z" transform="translate(-150.49 -342.85)"/><path class="cls-1" d="M231.65,504.38h6.74l-4.57,15.07h-2.17l4.19-13.36h-4.19Z" transform="translate(-150.49 -342.85)"/><path class="cls-1" d="M151.69,528.38h2v5.89h3v-5.89h2v15.07h-2V536h-3v7.46h-2Z" transform="translate(-150.49 -342.85)"/><path class="cls-1" d="M168.61,536.29a13.06,13.06,0,0,1-.89,5.67,3.11,3.11,0,0,1-3,1.68,3.17,3.17,0,0,1-3.1-1.81q-.88-1.77-.89-6.28a13.26,13.26,0,0,1,.88-5.69,3.14,3.14,0,0,1,3-1.68,3.2,3.2,0,0,1,2.81,1.3,6,6,0,0,1,.88,2.47A25.8,25.8,0,0,1,168.61,536.29Zm-2.13.21a23.48,23.48,0,0,0-.36-5.19c-.23-.86-.71-1.29-1.43-1.29a1.44,1.44,0,0,0-1.45,1.18,20.84,20.84,0,0,0-.35,4.78,19.39,19.39,0,0,0,.37,4.59,1.46,1.46,0,0,0,1.43,1.21,1.43,1.43,0,0,0,1.41-1.13A15.15,15.15,0,0,0,166.48,536.5Z" transform="translate(-150.49 -342.85)"/><path class="cls-1" d="M170.62,528.38h1.89l2,6a53.93,53.93,0,0,1,1.56,5.44c-.17-1.16-.29-2.22-.37-3.16s-.11-1.84-.11-2.67v-5.62h2v15.07h-1.91l-2.27-6.78c-.21-.63-.41-1.28-.59-1.95s-.36-1.36-.51-2.09c0-.09,0-.2-.07-.33s-.06-.28-.1-.45c0,.17,0,.32.05.44s0,.22,0,.3l.1,1.54.11,1.86c0,.11,0,.23,0,.38v.51l.11,6.57h-2Z" transform="translate(-150.49 -342.85)"/><path class="cls-1" d="M187.54,536.29a13.06,13.06,0,0,1-.89,5.67,3.1,3.1,0,0,1-3,1.68,3.17,3.17,0,0,1-3.09-1.81q-.89-1.77-.89-6.28,0-4,.88-5.69a3.12,3.12,0,0,1,3-1.68,3.2,3.2,0,0,1,2.81,1.3,6.16,6.16,0,0,1,.88,2.47A26,26,0,0,1,187.54,536.29Zm-2.13.21a24.37,24.37,0,0,0-.35-5.19q-.34-1.29-1.44-1.29a1.43,1.43,0,0,0-1.44,1.18,20.84,20.84,0,0,0-.35,4.78,18.86,18.86,0,0,0,.37,4.59,1.45,1.45,0,0,0,1.42,1.21,1.41,1.41,0,0,0,1.41-1.13A14.76,14.76,0,0,0,185.41,536.5Z" transform="translate(-150.49 -342.85)"/><path class="cls-1" d="M189.55,528.38h2.68a3.39,3.39,0,0,1,2.47.79,4.27,4.27,0,0,1,1,3.13,5.38,5.38,0,0,1-.54,2.6,2.31,2.31,0,0,1-1.55,1.22l2.78,7.33h-2.06l-2.77-7.38v7.38h-2Zm2,6.68a2.16,2.16,0,0,0,1.67-.55,2.75,2.75,0,0,0,.49-1.85,5.91,5.91,0,0,0-.1-1.2,2.32,2.32,0,0,0-.32-.81,1.34,1.34,0,0,0-.57-.46,2.07,2.07,0,0,0-.82-.14h-.35Z" transform="translate(-150.49 -342.85)"/><path class="cls-1" d="M198.92,533.2a1.13,1.13,0,0,1,.83.36,1.21,1.21,0,0,1,0,1.7,1.22,1.22,0,0,1-1.71,0,1.17,1.17,0,0,1-.35-.86,1.12,1.12,0,0,1,.35-.85A1.22,1.22,0,0,1,198.92,533.2Zm0,8a1.13,1.13,0,0,1,.83.36,1.17,1.17,0,0,1,.35.85,1.19,1.19,0,0,1-.35.85,1.21,1.21,0,0,1-.85.34,1.28,1.28,0,0,1-.48-.09,1.22,1.22,0,0,1-.38-.26,1,1,0,0,1-.26-.38,1.19,1.19,0,0,1-.09-.47,1.13,1.13,0,0,1,.35-.85A1.22,1.22,0,0,1,198.92,541.19Z" transform="translate(-150.49 -342.85)"/><path class="cls-1" d="M209.82,528.38h1.88v9.39h1v1.55h-1v4.13h-1.88v-4.13h-4.13v-1.73Zm0,9.39v-6.33l-2.54,6.33Z" transform="translate(-150.49 -342.85)"/><path class="cls-1" d="M220.93,536a15.91,15.91,0,0,1-.78,5.86,2.86,2.86,0,0,1-5.27,0,23.49,23.49,0,0,1,0-11.93,2.85,2.85,0,0,1,5.17-.22Q220.93,531.37,220.93,536Zm-2.07,0a25.73,25.73,0,0,0-.29-4.72c-.2-.87-.55-1.3-1.07-1.3s-.87.43-1.07,1.29a36,36,0,0,0,0,9.28c.2.86.56,1.29,1.07,1.29s.86-.42,1.06-1.28A22.57,22.57,0,0,0,218.86,536Z" transform="translate(-150.49 -342.85)"/></svg>