<svg id="Ebene_1" data-name="Ebene 1" xmlns="http://www.w3.org/2000/svg" viewBox="0 0 290.64 203.74"><defs><style>.cls-1{fill:#1d1d1b;}.cls-2{fill:#e30613;}</style></defs><path class="cls-1" d="M166.06,74v2.92h11a.49.49,0,0,1,.56.56v5.84a.49.49,0,0,1-.56.56h-11v11a.49.49,0,0,1-.56.56H153.38c-.4,0-.6-.19-.6-.56V64.12c0-.38.2-.56.6-.56H181.1c.4,0,.6.18.6.56v9.32c0,.37-.2.56-.6.56Z" transform="translate(-133.62 -62.8)"/><path class="cls-1" d="M205.3,95.4a.51.51,0,0,1-.44-.28,8.79,8.79,0,0,1-1.68-5V84.44c0-.67-.32-1-1-1H197.7v11.4a.49.49,0,0,1-.56.56H185a.5.5,0,0,1-.56-.56V64.12a.49.49,0,0,1,.56-.56h20.12a11.72,11.72,0,0,1,7.8,2.52,7.23,7.23,0,0,1,2.84,5.8,8.09,8.09,0,0,1-4.52,7.76q4.53,2.16,4.52,7.52v2.52a11.42,11.42,0,0,0,1.36,4.88.42.42,0,0,1,0,.56.48.48,0,0,1-.48.28ZM202.22,74H197.7v2.44h4.52a.91.91,0,0,0,.68-.36,1.43,1.43,0,0,0,.28-.84C203.18,74.41,202.86,74,202.22,74Z" transform="translate(-133.62 -62.8)"/><path class="cls-1" d="M246.38,91.24a16.28,16.28,0,0,1-23.28,0,16.18,16.18,0,0,1-4.84-11.8,16,16,0,0,1,4.84-11.76,16.28,16.28,0,0,1,23.28,0,16.76,16.76,0,0,1,0,23.56ZM234.74,73q-3.12,0-3.12,6.52T234.74,86q3.12,0,3.12-6.56T234.74,73Z" transform="translate(-133.62 -62.8)"/><path class="cls-1" d="M275.74,95.4a.67.67,0,0,1-.44-.24L265.54,83V94.84a.49.49,0,0,1-.56.56H254.66c-.4,0-.6-.19-.6-.56V64.12c0-.38.2-.56.6-.56h10.76a.6.6,0,0,1,.48.24l9.28,12V64.12a.49.49,0,0,1,.56-.56h10.32c.4,0,.6.18.6.56V94.84c0,.37-.2.56-.6.56Z" transform="translate(-133.62 -62.8)"/><path class="cls-1" d="M311.74,74V94.84c0,.37-.2.56-.6.56H299a.5.5,0,0,1-.56-.56V74h-8.8c-.4,0-.6-.19-.6-.56V64.12c0-.38.2-.56.6-.56H320.5c.4,0,.6.18.6.56v9.32c0,.37-.2.56-.6.56Z" transform="translate(-133.62 -62.8)"/><path class="cls-1" d="M324,95.4c-.4,0-.6-.19-.6-.56V64.12c0-.38.2-.56.6-.56h27.72c.4,0,.6.18.6.56v9.32c0,.37-.2.56-.6.56h-15v2h11a.49.49,0,0,1,.56.56v5.88a.5.5,0,0,1-.56.56h-11v2h15a.53.53,0,0,1,.6.6v9.27q0,.57-.6.57Z" transform="translate(-133.62 -62.8)"/><path class="cls-1" d="M376.74,95.4a.67.67,0,0,1-.44-.24L366.54,83V94.84a.5.5,0,0,1-.56.56H355.66c-.4,0-.6-.19-.6-.56V64.12c0-.38.2-.56.6-.56h10.76a.6.6,0,0,1,.48.24l9.28,12V64.12a.49.49,0,0,1,.56-.56h10.32c.4,0,.6.18.6.56V94.84c0,.37-.2.56-.6.56Z" transform="translate(-133.62 -62.8)"/><path class="cls-1" d="M418.1,90.72a16.28,16.28,0,0,1-11.68,4.68H391.3c-.4,0-.6-.19-.6-.56V64.12c0-.38.2-.56.6-.56h15.12A16.33,16.33,0,0,1,418.1,68.2a15.11,15.11,0,0,1,4.84,11.28A14.92,14.92,0,0,1,418.1,90.72Zm-9.88-15.57A3.51,3.51,0,0,0,405.54,74H404V85h1.56a3.46,3.46,0,0,0,2.68-1.2,6.11,6.11,0,0,0,1.36-4.3A6.14,6.14,0,0,0,408.22,75.15Z" transform="translate(-133.62 -62.8)"/><path class="cls-1" d="M334.33,104.32h2l1,7,.16,1q.12.84.18,1.53l.1,1.28a.59.59,0,0,1,0,.17q0,.14,0,.33l.05-.49c.08-.85.16-1.64.25-2.36s.18-1.37.29-2l1.08-6.52h1.57l1,6.34c.15.93.28,1.8.38,2.6s.18,1.57.25,2.3c.06-.77.14-1.51.22-2.23s.16-1.42.26-2.11l.14-1,.87-5.9h1.94l-2.66,15.08h-1.58l-1.07-6.52s0-.13-.05-.32-.06-.46-.11-.81l-.21-1.5c0-.12,0-.3-.06-.53s-.06-.53-.1-.89l0-.62c0,.15,0,.28,0,.39a1.57,1.57,0,0,0,0,.27c0,.43-.06.76-.09,1s0,.38,0,.44l-.21,1.44c0,.33-.08.59-.1.78s-.05.31-.06.35l-1.1,6.52h-1.64Z" transform="translate(-133.62 -62.8)"/><path class="cls-1" d="M347.32,104.32h2V119.4h-2Z" transform="translate(-133.62 -62.8)"/><path class="cls-1" d="M351.67,104.32h2.68a3.41,3.41,0,0,1,2.47.79,4.27,4.27,0,0,1,1,3.13,5.42,5.42,0,0,1-.54,2.61,2.31,2.31,0,0,1-1.55,1.21l2.78,7.34h-2.06L353.7,112v7.39h-2Zm2,6.68a2.12,2.12,0,0,0,1.67-.55,2.72,2.72,0,0,0,.49-1.84,6.09,6.09,0,0,0-.1-1.21,2.32,2.32,0,0,0-.32-.81,1.32,1.32,0,0,0-.57-.45A2.09,2.09,0,0,0,354,106h-.34Z" transform="translate(-133.62 -62.8)"/><path class="cls-1" d="M360.1,104.32h5.4V106h-3.37v4.77h3v1.72h-3v5.15h3.37v1.72h-5.4Z" transform="translate(-133.62 -62.8)"/><path class="cls-1" d="M367.36,104.32h5.43V106H369.4v4.76h3.06v1.72H369.4v6.88h-2Z" transform="translate(-133.62 -62.8)"/><path class="cls-1" d="M374.36,104.32H377a3.39,3.39,0,0,1,2.47.79,4.23,4.23,0,0,1,1,3.13,5.42,5.42,0,0,1-.54,2.61,2.33,2.33,0,0,1-1.55,1.21l2.77,7.34h-2.06L376.39,112v7.39h-2Zm2,6.68a2.14,2.14,0,0,0,1.67-.55,2.78,2.78,0,0,0,.49-1.84,6,6,0,0,0-.11-1.21,2,2,0,0,0-.32-.81,1.26,1.26,0,0,0-.57-.45,2,2,0,0,0-.82-.15h-.34Z" transform="translate(-133.62 -62.8)"/><path class="cls-1" d="M384.93,104.32h1.58l3.24,15.08h-2l-.57-2.94h-3l-.58,2.94h-2Zm1.95,10.57-.45-2.41c-.3-1.63-.55-3.38-.74-5.23-.09.9-.2,1.82-.35,2.75s-.31,1.91-.51,3l-.37,1.94Z" transform="translate(-133.62 -62.8)"/><path class="cls-1" d="M391.65,104.32h1.74l1.33,6.15c.16.77.31,1.54.44,2.31s.26,1.58.37,2.43c0-.11,0-.2,0-.26a.35.35,0,0,1,0-.13l.28-1.73.25-1.64.23-1.09,1.18-6h1.76l1.39,15.08h-1.95l-.34-5.12c0-.26,0-.49,0-.67s0-.35,0-.47l-.09-2-.05-1.86v-.08a1.28,1.28,0,0,0,0-.17l0,.3c-.06.36-.1.67-.15.94s-.08.49-.11.67l-.25,1.38-.1.51-1.27,6.59h-1.37l-1.19-5.69c-.16-.75-.31-1.51-.43-2.28s-.24-1.58-.35-2.42l-.58,10.39h-1.92Z" transform="translate(-133.62 -62.8)"/><path class="cls-1" d="M402.34,104.32h2V119.4h-2Z" transform="translate(-133.62 -62.8)"/><path class="cls-1" d="M406.7,104.32h1.89l2,6c.58,1.7,1.1,3.52,1.55,5.44-.16-1.16-.28-2.22-.36-3.16s-.12-1.83-.12-2.67v-5.62h2V119.4h-1.9l-2.28-6.79c-.21-.63-.4-1.28-.59-1.94s-.36-1.36-.51-2.09c0-.09,0-.2-.07-.34s-.06-.28-.1-.44c0,.16,0,.31.05.43s0,.22,0,.31l.11,1.53.11,1.87c0,.1,0,.23,0,.38v.5l.11,6.58h-2Z" transform="translate(-133.62 -62.8)"/><path class="cls-1" d="M419.67,111.47h3.69v.58q0,4.41-.77,6a2.86,2.86,0,0,1-2.85,1.58,3.19,3.19,0,0,1-3.08-1.76,13.9,13.9,0,0,1-.91-5.9c0-3.17.33-5.27,1-6.32a3.17,3.17,0,0,1,2.88-1.48,3.4,3.4,0,0,1,2.31.72,4.75,4.75,0,0,1,1.31,2.37l-1.89.79a8,8,0,0,0-.28-1,2.28,2.28,0,0,0-.35-.63,1.31,1.31,0,0,0-1.11-.46c-.68,0-1.14.42-1.39,1.25a20.34,20.34,0,0,0-.37,4.7,18.59,18.59,0,0,0,.38,4.64,1.48,1.48,0,0,0,1.44,1.21,1.39,1.39,0,0,0,1.36-.86,8.09,8.09,0,0,0,.4-2.95v-.71h-1.77Z" transform="translate(-133.62 -62.8)"/><path class="cls-1" d="M391.46,128.32h2v5.9h3v-5.9h2V143.4h-2v-7.46h-3v7.46h-2Z" transform="translate(-133.62 -62.8)"/><path class="cls-1" d="M399.62,128.32h6.61v1.78H404v13.3h-2V130.1h-2.34Z" transform="translate(-133.62 -62.8)"/><path class="cls-1" d="M408.07,128.32h1.74l1.32,6.15c.17.77.31,1.54.45,2.31s.25,1.58.36,2.43a1.58,1.58,0,0,0,0-.26c0-.06,0-.11,0-.13l.29-1.73.25-1.64.22-1.09,1.19-6h1.75l1.39,15.08h-1.94l-.34-5.12c0-.26,0-.49,0-.67s0-.35,0-.47l-.09-2-.05-1.86v-.08s0-.1,0-.17l0,.3c-.05.36-.1.67-.14.94s-.08.49-.11.67L414,136.3l-.09.51-1.27,6.59H411.3l-1.19-5.69c-.16-.75-.31-1.51-.44-2.28s-.24-1.58-.34-2.42l-.59,10.39h-1.91Z" transform="translate(-133.62 -62.8)"/><path class="cls-1" d="M418.76,128.32h2v13.36h3.32v1.72h-5.35Z" transform="translate(-133.62 -62.8)"/><path class="cls-1" d="M408.75,152.56v1.83a3.2,3.2,0,0,0-1.31-.38,2.2,2.2,0,0,0-1.24.35,2.63,2.63,0,0,0-.85,1.1,6.89,6.89,0,0,0-.5,1.88,19.16,19.16,0,0,0-.16,2.69q0,5.59,2.86,5.59a3,3,0,0,0,1.2-.31v1.86a3.22,3.22,0,0,1-1.64.41q-4.58,0-4.58-7.48a12.49,12.49,0,0,1,1.12-6,3.67,3.67,0,0,1,3.42-2A3.47,3.47,0,0,1,408.75,152.56Z" transform="translate(-133.62 -62.8)"/><path class="cls-1" d="M415.49,152.63v2a3,3,0,0,0-1.67-.66,1.68,1.68,0,0,0-1.31.57A2,2,0,0,0,412,156a2.49,2.49,0,0,0,.36,1.36,7.25,7.25,0,0,0,.61.78c.29.32.65.7,1.1,1.15a9,9,0,0,1,1.69,2.18,4.78,4.78,0,0,1,.45,2.18,4.28,4.28,0,0,1-1,2.88,3.27,3.27,0,0,1-2.53,1.1,3.47,3.47,0,0,1-2.22-.71v-2a3.43,3.43,0,0,0,2,.79,1.6,1.6,0,0,0,1.3-.55,2.26,2.26,0,0,0,.47-1.5,3,3,0,0,0-.36-1.48,8.2,8.2,0,0,0-.52-.71c-.22-.27-.5-.58-.83-.91-.51-.51-.94-.95-1.28-1.35a6.17,6.17,0,0,1-.75-1A4.53,4.53,0,0,1,410,156a4.07,4.07,0,0,1,.92-2.8,3.16,3.16,0,0,1,2.49-1A4.47,4.47,0,0,1,415.49,152.63Z" transform="translate(-133.62 -62.8)"/><path class="cls-1" d="M423,152.63v2a3,3,0,0,0-1.67-.66,1.68,1.68,0,0,0-1.31.57,2,2,0,0,0-.51,1.43,2.41,2.41,0,0,0,.37,1.36,5.34,5.34,0,0,0,.61.78c.28.32.64.7,1.09,1.15a9,9,0,0,1,1.69,2.18,4.78,4.78,0,0,1,.45,2.18,4.28,4.28,0,0,1-1,2.88,3.26,3.26,0,0,1-2.53,1.1,3.47,3.47,0,0,1-2.22-.71v-2a3.43,3.43,0,0,0,2,.79,1.6,1.6,0,0,0,1.3-.55,2.26,2.26,0,0,0,.47-1.5,3,3,0,0,0-.36-1.48,6.51,6.51,0,0,0-.52-.71c-.22-.27-.5-.58-.83-.91-.51-.51-.94-.95-1.28-1.35a6.17,6.17,0,0,1-.75-1,4.53,4.53,0,0,1-.47-2.17,4.07,4.07,0,0,1,.92-2.8,3.16,3.16,0,0,1,2.49-1A4.47,4.47,0,0,1,423,152.63Z" transform="translate(-133.62 -62.8)"/><path class="cls-1" d="M165.06,202.2a15.76,15.76,0,0,1-4.72,10,14.28,14.28,0,0,1-10.28,4,15.69,15.69,0,0,1-11.6-4.88,16.85,16.85,0,0,1,0-23.6,15.85,15.85,0,0,1,11.64-4.88,14.31,14.31,0,0,1,10.28,4,15.82,15.82,0,0,1,4.72,10c0,.42-.16.64-.56.64h-10a.49.49,0,0,1-.56-.48,4.34,4.34,0,0,0-1.32-2.8,3,3,0,0,0-2.08-.84,2.85,2.85,0,0,0-2.44,1.4,10.34,10.34,0,0,0,0,9.36,2.85,2.85,0,0,0,2.44,1.44,3,3,0,0,0,2-.84A4.27,4.27,0,0,0,153.9,202a.49.49,0,0,1,.56-.48h10Z" transform="translate(-133.62 -62.8)"/><path class="cls-1" d="M195.78,211.24a16.28,16.28,0,0,1-23.28,0,16.15,16.15,0,0,1-4.84-11.8,16,16,0,0,1,4.84-11.76,16.28,16.28,0,0,1,23.28,0,16.76,16.76,0,0,1,0,23.56ZM184.14,193q-3.12,0-3.12,6.52t3.12,6.56q3.12,0,3.12-6.56T184.14,193Z" transform="translate(-133.62 -62.8)"/><path class="cls-1" d="M230.86,210.72a16.28,16.28,0,0,1-11.68,4.68H204.06c-.4,0-.6-.19-.6-.56V184.12c0-.38.2-.56.6-.56h15.12a16.33,16.33,0,0,1,11.68,4.64,15.11,15.11,0,0,1,4.84,11.28A14.92,14.92,0,0,1,230.86,210.72ZM221,195.15A3.51,3.51,0,0,0,218.3,194h-1.56v11h1.56a3.46,3.46,0,0,0,2.68-1.2,7.49,7.49,0,0,0,0-8.61Z" transform="translate(-133.62 -62.8)"/><path class="cls-1" d="M239,215.4c-.4,0-.6-.19-.6-.56V184.12c0-.38.2-.56.6-.56h27.72c.4,0,.6.18.6.56v9.32c0,.37-.2.56-.6.56h-15v2h11a.49.49,0,0,1,.56.56v5.88a.5.5,0,0,1-.56.56h-11v2h15a.53.53,0,0,1,.6.6v9.28c0,.37-.2.56-.6.56Z" transform="translate(-133.62 -62.8)"/><path class="cls-1" d="M309.7,215a.54.54,0,0,1-.56.4h-9.68a.54.54,0,0,1-.56-.4l-4.2-12.08L290.5,215a.51.51,0,0,1-.52.4h-9.72a.51.51,0,0,1-.52-.4l-10.68-30.68a.47.47,0,0,1,.08-.52.55.55,0,0,1,.48-.24h12.56a.53.53,0,0,1,.56.44l3.64,13c.37-1.47.85-3.28,1.42-5.42s1.25-4.68,2-7.58a.55.55,0,0,1,.6-.44H300.9a.53.53,0,0,1,.56.44l3.64,13.16q.56-2.21,1.44-5.48t2-7.68a.5.5,0,0,1,.52-.44h10.52c.53,0,.72.25.56.76Z" transform="translate(-133.62 -62.8)"/><path class="cls-1" d="M344.18,215.4a.54.54,0,0,1-.56-.4l-1.16-3.6h-9q-.19.67-.48,1.56t-.72,2a.51.51,0,0,1-.52.4H321.66a.55.55,0,0,1-.48-.24.46.46,0,0,1-.08-.52L332.5,184a.56.56,0,0,1,.56-.4h12.16a.54.54,0,0,1,.52.4l11.56,30.68a.73.73,0,0,1,0,.52.64.64,0,0,1-.52.24Zm-6.32-17.56q-.32.91-.78,2.34c-.31.94-.67,2.08-1.1,3.42h3.8Z" transform="translate(-133.62 -62.8)"/><path class="cls-1" d="M380.1,215.4a.5.5,0,0,1-.44-.28,8.79,8.79,0,0,1-1.68-5v-5.64c0-.67-.32-1-1-1H372.5v11.4a.5.5,0,0,1-.56.56H359.82a.5.5,0,0,1-.56-.56V184.12a.49.49,0,0,1,.56-.56h20.12a11.72,11.72,0,0,1,7.8,2.52,7.26,7.26,0,0,1,2.84,5.8,8.11,8.11,0,0,1-4.52,7.76q4.51,2.16,4.52,7.52v2.52a11.28,11.28,0,0,0,1.36,4.88.45.45,0,0,1,0,.56.48.48,0,0,1-.48.28ZM377,194H372.5v2.44H377a.91.91,0,0,0,.68-.36,1.43,1.43,0,0,0,.28-.84C378,194.41,377.66,194,377,194Z" transform="translate(-133.62 -62.8)"/><path class="cls-1" d="M420.1,212.64q-4,3.51-12,3.52a19.53,19.53,0,0,1-11.08-2.95,9.41,9.41,0,0,1-4.68-8.21.49.49,0,0,1,.56-.56h9.56a.51.51,0,0,1,.56.48,3.21,3.21,0,0,0,2.08,2.44,6.88,6.88,0,0,0,2.88.6q3.6,0,3.6-1.2c0-.58-1.71-1.24-5.12-1.95a32.82,32.82,0,0,1-9-2.87,8.62,8.62,0,0,1-4.68-7.94,9.67,9.67,0,0,1,3.8-7.65q4.15-3.56,11.24-3.55a17.27,17.27,0,0,1,10.36,3,9,9,0,0,1,4.12,7.52c0,.37-.2.56-.6.56h-9.2a.49.49,0,0,1-.56-.48c-.29-2.06-1.64-3.08-4-3.08-2.13,0-3.2.4-3.2,1.2,0,.48.47.88,1.4,1.2a27.76,27.76,0,0,0,3.48.88,31.25,31.25,0,0,1,9.12,3.12q4.8,2.88,4.8,8A10,10,0,0,1,420.1,212.64Z" transform="translate(-133.62 -62.8)"/><path class="cls-1" d="M292.11,224.32h2v7.3l2.83-7.3h2l-3,7.3,3.2,7.78H297l-2.83-7.78v7.78h-2Z" transform="translate(-133.62 -62.8)"/><path class="cls-1" d="M299.33,224.32h2.15l1,3.28c0,.1.07.21.1.32a3.3,3.3,0,0,0,.12.38,24.3,24.3,0,0,1,.76,3c.12-.81.21-1.37.29-1.69l.31-1.35.12-.52.84-3.41h2.12l-2.63,8.59v6.49h-2v-6.49Z" transform="translate(-133.62 -62.8)"/><path class="cls-1" d="M308.25,224.32h2V235a5.17,5.17,0,0,0,.29,2.17,1.24,1.24,0,0,0,1.19.54,1.27,1.27,0,0,0,1.17-.47,4.19,4.19,0,0,0,.29-1.94v-11h2v11a5.24,5.24,0,0,1-.76,3.33,3.54,3.54,0,0,1-2.74,1,3.15,3.15,0,0,1-2.86-1.27,6.66,6.66,0,0,1-.58-3.34Z" transform="translate(-133.62 -62.8)"/><path class="cls-1" d="M316.35,240.75h11.31v1.79H316.35Z" transform="translate(-133.62 -62.8)"/><path class="cls-1" d="M328.82,224.32h2v13.36h3.32v1.72h-5.35Z" transform="translate(-133.62 -62.8)"/><path class="cls-1" d="M335.44,224.32h5.4V226h-3.37v4.77h3v1.72h-3v5.15h3.37v1.72h-5.4Z" transform="translate(-133.62 -62.8)"/><path class="cls-1" d="M341.5,224.32h2l.91,5.57.15,1,.32,2.19c.06.37.1.71.15,1s.08.59.11.83l.1.75c0-.15,0-.29,0-.4s0-.22,0-.3l.27-1.74.34-2.3c0-.21.06-.4.09-.58s.06-.33.08-.46l1-5.57H349l-3,15.08h-1.61Z" transform="translate(-133.62 -62.8)"/><path class="cls-1" d="M350.1,224.32h5.4V226h-3.37v4.77h3v1.72h-3v5.15h3.37v1.72h-5.4Z" transform="translate(-133.62 -62.8)"/><path class="cls-1" d="M357.36,224.32h2v13.36h3.32v1.72h-5.36Z" transform="translate(-133.62 -62.8)"/><path class="cls-1" d="M364.92,229.14a1.11,1.11,0,0,1,.83.36,1.21,1.21,0,0,1,0,1.7,1.13,1.13,0,0,1-.85.36,1.16,1.16,0,0,1-.86-.36,1.19,1.19,0,0,1-.35-.86,1.17,1.17,0,0,1,.35-.85A1.26,1.26,0,0,1,364.92,229.14Zm0,8a1.11,1.11,0,0,1,.83.36,1.15,1.15,0,0,1,.35.85,1.13,1.13,0,0,1-.35.85,1.19,1.19,0,0,1-.85.34,1.23,1.23,0,0,1-.47-.09,1.3,1.3,0,0,1-.39-.25,1.19,1.19,0,0,1-.25-.38,1.12,1.12,0,0,1-.1-.48,1.19,1.19,0,0,1,.35-.85A1.26,1.26,0,0,1,364.92,237.13Z" transform="translate(-133.62 -62.8)"/><path class="cls-1" d="M372.27,224.32h2.67a3.56,3.56,0,0,1,2.81,1,4.56,4.56,0,0,1,.88,3.12c0,2-.59,3.3-1.76,3.89a6.63,6.63,0,0,1-2.57.4v6.69h-2Zm2,6.65a2.35,2.35,0,0,0,1.74-.51,2.7,2.7,0,0,0,.48-1.83,3.36,3.36,0,0,0-.46-2,1.76,1.76,0,0,0-1.48-.62h-.28Z" transform="translate(-133.62 -62.8)"/><path class="cls-1" d="M381.89,224.32h1.58l3.23,15.08h-2l-.57-2.94h-3l-.57,2.94h-2Zm1.94,10.57-.45-2.41c-.3-1.63-.54-3.38-.73-5.23-.09.9-.21,1.82-.35,2.75s-.32,1.91-.51,2.95l-.37,1.94Z" transform="translate(-133.62 -62.8)"/><path class="cls-1" d="M387.52,224.32h6.64l-4.53,13.3h4.29v1.78H387L391.55,226h-4Z" transform="translate(-133.62 -62.8)"/><path class="cls-1" d="M395.44,224.32h2V239.4h-2Z" transform="translate(-133.62 -62.8)"/><path class="cls-1" d="M399.8,224.32h5.43V226h-3.4v4.76h3.06v1.72h-3.06v6.88h-2Z" transform="translate(-133.62 -62.8)"/><path class="cls-1" d="M406.79,224.32h2V239.4h-2Z" transform="translate(-133.62 -62.8)"/><path class="cls-1" d="M416.17,224.63v2a3,3,0,0,0-1.67-.66,1.68,1.68,0,0,0-1.31.57,2,2,0,0,0-.5,1.43,2.49,2.49,0,0,0,.36,1.36,6.15,6.15,0,0,0,.61.78c.28.32.65.7,1.1,1.15a9.27,9.27,0,0,1,1.69,2.18,4.78,4.78,0,0,1,.45,2.18,4.23,4.23,0,0,1-1,2.88,3.26,3.26,0,0,1-2.53,1.1,3.49,3.49,0,0,1-2.22-.71v-2a3.45,3.45,0,0,0,2,.79,1.59,1.59,0,0,0,1.29-.55,2.21,2.21,0,0,0,.47-1.5,3,3,0,0,0-.36-1.48,5.4,5.4,0,0,0-.52-.71,10.43,10.43,0,0,0-.83-.91c-.51-.51-.94-.95-1.27-1.35a7,7,0,0,1-.76-1,4.53,4.53,0,0,1-.47-2.17,4.07,4.07,0,0,1,.92-2.8,3.16,3.16,0,0,1,2.49-1A4.41,4.41,0,0,1,416.17,224.63Z" transform="translate(-133.62 -62.8)"/><path class="cls-1" d="M417.65,224.32h6.61v1.78H422v13.3h-2V226.1h-2.34Z" transform="translate(-133.62 -62.8)"/><path class="cls-1" d="M341,248.32h2v5.9h3v-5.9h2V263.4h-2v-7.46h-3v7.46h-2Z" transform="translate(-133.62 -62.8)"/><path class="cls-1" d="M357.94,256.23a13.06,13.06,0,0,1-.89,5.67,3.1,3.1,0,0,1-3,1.68,3.17,3.17,0,0,1-3.09-1.8c-.6-1.18-.89-3.28-.89-6.28,0-2.69.29-4.58.88-5.7a3.12,3.12,0,0,1,3-1.68,3.22,3.22,0,0,1,2.81,1.3,6.38,6.38,0,0,1,.88,2.47A26.1,26.1,0,0,1,357.94,256.23Zm-2.13.21a24.37,24.37,0,0,0-.35-5.19Q355.12,250,354,250a1.43,1.43,0,0,0-1.44,1.18,20.36,20.36,0,0,0-.35,4.79,19,19,0,0,0,.37,4.59,1.46,1.46,0,0,0,1.42,1.21,1.42,1.42,0,0,0,1.41-1.14A15.1,15.1,0,0,0,355.81,256.44Z" transform="translate(-133.62 -62.8)"/><path class="cls-1" d="M360,248.32h1.9l2,6c.58,1.7,1.1,3.52,1.55,5.44-.16-1.16-.28-2.22-.36-3.16s-.12-1.83-.12-2.67v-5.62h2V263.4h-1.9l-2.28-6.79c-.2-.63-.4-1.28-.59-1.94s-.35-1.36-.51-2.09a3.09,3.09,0,0,0-.06-.34c0-.13-.07-.28-.11-.44,0,.16,0,.31.05.43a1.89,1.89,0,0,1,0,.31l.11,1.53.11,1.87c0,.1,0,.23,0,.38s0,.32,0,.5l.1,6.58h-2Z" transform="translate(-133.62 -62.8)"/><path class="cls-1" d="M376.88,256.23a13.06,13.06,0,0,1-.89,5.67,3.11,3.11,0,0,1-3,1.68,3.18,3.18,0,0,1-3.1-1.8c-.59-1.18-.89-3.28-.89-6.28a13.31,13.31,0,0,1,.88-5.7,3.14,3.14,0,0,1,3-1.68,3.22,3.22,0,0,1,2.81,1.3,6.07,6.07,0,0,1,.88,2.47A24.84,24.84,0,0,1,376.88,256.23Zm-2.13.21a24.37,24.37,0,0,0-.35-5.19Q374,250,373,250a1.45,1.45,0,0,0-1.45,1.18,21,21,0,0,0-.35,4.79,19.51,19.51,0,0,0,.37,4.59,1.47,1.47,0,0,0,1.43,1.21,1.44,1.44,0,0,0,1.41-1.14A15.1,15.1,0,0,0,374.75,256.44Z" transform="translate(-133.62 -62.8)"/><path class="cls-1" d="M378.89,248.32h2.67a3.39,3.39,0,0,1,2.47.79,4.23,4.23,0,0,1,1,3.13,5.42,5.42,0,0,1-.54,2.61,2.31,2.31,0,0,1-1.55,1.21l2.77,7.34h-2.06L380.92,256v7.39h-2Zm2,6.68a2.14,2.14,0,0,0,1.67-.55,2.78,2.78,0,0,0,.49-1.84,6,6,0,0,0-.11-1.21,2,2,0,0,0-.32-.81,1.24,1.24,0,0,0-.56-.45,2.12,2.12,0,0,0-.83-.15h-.34Z" transform="translate(-133.62 -62.8)"/><path class="cls-1" d="M388.25,253.14a1.11,1.11,0,0,1,.83.36,1.21,1.21,0,0,1,0,1.7,1.13,1.13,0,0,1-.85.36,1.16,1.16,0,0,1-.86-.36,1.19,1.19,0,0,1-.35-.86,1.17,1.17,0,0,1,.35-.85A1.26,1.26,0,0,1,388.25,253.14Zm0,8a1.11,1.11,0,0,1,.83.36,1.15,1.15,0,0,1,.35.85,1.13,1.13,0,0,1-.35.85,1.19,1.19,0,0,1-.85.34,1.23,1.23,0,0,1-.47-.09,1.3,1.3,0,0,1-.39-.25,1.19,1.19,0,0,1-.25-.38,1.12,1.12,0,0,1-.1-.48,1.19,1.19,0,0,1,.35-.85A1.26,1.26,0,0,1,388.25,261.13Z" transform="translate(-133.62 -62.8)"/><path class="cls-1" d="M390.29,264.75H401.6v1.79H390.29Z" transform="translate(-133.62 -62.8)"/><path class="cls-1" d="M401.6,264.75h11.31v1.79H401.6Z" transform="translate(-133.62 -62.8)"/><path class="cls-1" d="M412.91,264.75h11.31v1.79H412.91Z" transform="translate(-133.62 -62.8)"/><path class="cls-2" d="M413.44,246.33c-5.5-5.5-5.5,12.5-5.5,12.5s0-18-5.5-12.5c-4.5,6.5,5.5,17.75,5.5,17.75S417.94,252.83,413.44,246.33Z" transform="translate(-133.62 -62.8)"/></svg>