<svg id="Ebene_1" data-name="Ebene 1" xmlns="http://www.w3.org/2000/svg" viewBox="0 0 96.78 18.79"><defs><style>.cls-1{fill:#e30613;}.cls-2{fill:#1d1d1b;}</style></defs><path class="cls-1" d="M324.75,109c-5.5-5.5-5.5,12.5-5.5,12.5s0-18-5.5-12.5c-4.5,6.5,5.5,17.75,5.5,17.75S329.25,115.49,324.75,109Z" transform="translate(-229.13 -107.94)"/><path class="cls-2" d="M229.13,109.8h2l1,7,.16,1q.12.84.18,1.53l.11,1.28s0,.09,0,.18,0,.19,0,.32l0-.49c.08-.85.16-1.64.25-2.35s.19-1.38.29-2l1.08-6.52h1.57l1,6.34c.15.94.28,1.8.38,2.61s.18,1.56.25,2.29c.06-.77.14-1.51.22-2.23s.17-1.42.26-2.11l.14-1,.87-5.9h2l-2.67,15.08h-1.58l-1.07-6.52s0-.13-.05-.32-.06-.46-.11-.81l-.21-1.5c0-.12,0-.29-.06-.53s-.06-.53-.09-.89l-.05-.62c0,.15,0,.28,0,.39s0,.2,0,.27c0,.43-.06.76-.08,1s0,.38,0,.44l-.2,1.44c0,.33-.08.59-.11.78s-.05.31-.06.35l-1.1,6.52h-1.63Z" transform="translate(-229.13 -107.94)"/><path class="cls-2" d="M242.12,109.8h2v15.08h-2Z" transform="translate(-229.13 -107.94)"/><path class="cls-2" d="M246.47,109.8h1.9l2,6q.87,2.55,1.55,5.44c-.16-1.17-.28-2.22-.36-3.17s-.12-1.83-.12-2.66V109.8h2v15.08h-1.9l-2.28-6.79c-.2-.63-.4-1.28-.59-1.94s-.35-1.36-.51-2.09a3,3,0,0,0-.06-.33l-.11-.45c0,.17,0,.31,0,.43a1.89,1.89,0,0,1,0,.31l.11,1.53.11,1.87c0,.1,0,.23,0,.38s0,.32,0,.51l.1,6.57h-2Z" transform="translate(-229.13 -107.94)"/><path class="cls-2" d="M255.83,109.8h1.89l2,6a53.93,53.93,0,0,1,1.56,5.44c-.17-1.17-.29-2.22-.36-3.17s-.12-1.83-.12-2.66V109.8h2v15.08H261l-2.27-6.79c-.21-.63-.41-1.28-.59-1.94s-.36-1.36-.51-2.09c0-.09,0-.2-.07-.33l-.1-.45c0,.17,0,.31,0,.43s0,.22,0,.31l.11,1.53.1,1.87c0,.1,0,.23,0,.38v.51l.11,6.57h-2Z" transform="translate(-229.13 -107.94)"/><path class="cls-2" d="M265.18,109.8h5.4v1.72h-3.37v4.77h3V118h-3v5.15h3.37v1.72h-5.4Z" transform="translate(-229.13 -107.94)"/><path class="cls-2" d="M272.45,109.8h2.67a3.42,3.42,0,0,1,2.48.79,4.28,4.28,0,0,1,1,3.14,5.4,5.4,0,0,1-.54,2.6,2.31,2.31,0,0,1-1.55,1.21l2.77,7.34h-2.06l-2.76-7.38v7.38h-2Zm2,6.68a2.14,2.14,0,0,0,1.67-.55,2.72,2.72,0,0,0,.49-1.84,6.73,6.73,0,0,0-.1-1.2,2,2,0,0,0-.33-.81,1.2,1.2,0,0,0-.56-.46,2.09,2.09,0,0,0-.83-.15h-.34Z" transform="translate(-229.13 -107.94)"/><path class="cls-2" d="M292.57,117.71a13.06,13.06,0,0,1-.89,5.67,3.11,3.11,0,0,1-3,1.68,3.18,3.18,0,0,1-3.1-1.8q-.89-1.77-.89-6.28a13.34,13.34,0,0,1,.88-5.7,3.16,3.16,0,0,1,3-1.68,3.22,3.22,0,0,1,2.81,1.3,6.07,6.07,0,0,1,.88,2.47A24.84,24.84,0,0,1,292.57,117.71Zm-2.13.22a24.42,24.42,0,0,0-.35-5.2q-.36-1.29-1.44-1.29a1.45,1.45,0,0,0-1.45,1.18,21,21,0,0,0-.35,4.79,19.51,19.51,0,0,0,.37,4.59,1.47,1.47,0,0,0,1.43,1.21,1.44,1.44,0,0,0,1.41-1.13A15.2,15.2,0,0,0,290.44,117.93Z" transform="translate(-229.13 -107.94)"/><path class="cls-2" d="M294.58,109.8H300v1.72h-3.4v4.76h3.06V118h-3.06v6.88h-2Z" transform="translate(-229.13 -107.94)"/></svg>