<svg id="Ebene_1" data-name="Ebene 1" xmlns="http://www.w3.org/2000/svg" viewBox="0 0 265.52 58.26"><defs><style>.cls-1{fill:#151a1c;}.cls-2{fill:#fff;stroke:#12191c;stroke-miterlimit:10;}</style></defs><path class="cls-1" d="M169.73,352c0-9.05,2.4-12.38,2.9-13.66a13.59,13.59,0,0,1-2.76.68c-4.74,0-7.44-2.81-7.44-7.68,0-7.51,7.65-10.76,14.94-10.76,4.68,0,17.78,1.71,17.78,11.95,0,5.55-6.16,8-9.42,6.24,2.05,2.47,6.51,12.89,6.51,21.17,0,6.75-3.61,12.64-10.33,12.64C169.8,372.58,169.73,356,169.73,352Zm20.18-23.22c0-2.22-4.75-4.7-11-5.3,7.44,1.54,8.71,6.41,10.48,6.41C189.69,329.89,189.91,329.37,189.91,328.78Z" transform="translate(-159.59 -315)"/><path class="cls-1" d="M214.19,355.76c3.12-.94,8.07-.17,7.93,6.75,0,7.51-12,10.24-15.08,10.24-12.67,0-15.08-26-14.94-37.57C192.17,324.25,197,322,204.77,322c6.16,0,12.54,1.45,12.54,6.49,0,5.63-4,5.89-7.16,6.57v.34c7.16-.43,11.4,3.25,11.33,10.16-.07,4-2.12,7.52-7.29,9.31Zm-.57-28.86c0-1.11-2.19-2.39-5-2.65,3.18.86,3.89,3.25,4.67,3.25C213.48,327.5,213.62,327.24,213.62,326.9Zm2.69,14.34c0-1.62-2.76-3.5-6.23-3.92,4,1.19,5,4.78,5.88,4.78C216.17,342.1,216.31,341.76,216.31,341.24ZM218.79,361c.14,0,.29-.26.29-.6,0-1.2-2.13-2.39-5-2.65C217.31,358.58,218.08,361,218.79,361Z" transform="translate(-159.59 -315)"/><path class="cls-1" d="M234.09,361.4c.14,3.75,1,10-3.83,10.58-10.83,0-11.33-19.81-10.69-32.36.43-9.22,3.33-17.76,11.61-17.76,16.07,0,20.32,20.24,19.54,35.95-.21,5.89-2.69,15.45-9,15.45-4.67,0-6.44-7.94-7.08-11.95Zm-4-8.29c-.28,0-.35.34-.35.86-.07,1.45,1.7,3.07,4.1,3.5C231,356.44,230.69,353.11,230.12,353.11Zm2.76-2.13a1.54,1.54,0,0,0-1.13,1.53,2.47,2.47,0,0,0,2.34,2.57,1.41,1.41,0,0,0,1.62-1.37c0-1.11-1.2-2.73-2.4-2.73Zm8.5-21.78c.14-2-3.54-4.35-8.29-4.78,5.53,1.45,6.59,5.81,7.86,5.81C241.17,330.23,241.31,329.8,241.38,329.2Z" transform="translate(-159.59 -315)"/><path class="cls-1" d="M265.1,362.68c-.36,3.16-.93,10.33-4.54,10.33-7.71,0-12.17-14.86-12.67-26.56-.5-10.67,0-24.67,8.43-24.67,7.08,0,10.76,6.66,12.81,13.32h.21c-.42-6.92,2.34-12.9,7.23-12.9,9.2,0,13.31,16.91,13.87,28.35.57,12.21-2.12,21.95-5.52,21.95-4,0-6.16-5.73-6.87-9.82h-.35c-.43,3.84-1.42,8.36-5.17,8.36s-6.66-3.67-7-8.36Zm-1.63-34.84c-.07-1.88-2.84-4-6.45-4.53,4.25,1.37,5.17,5.47,6.16,5.47C263.33,328.78,263.47,328.44,263.47,327.84Zm19.54,2.9c-.07-2.73-2.83-5.29-7.15-6.4,4.81,2.3,5.66,7.85,6.79,7.85C282.94,332.19,283.08,331.59,283,330.74Z" transform="translate(-159.59 -315)"/><path class="cls-1" d="M304.18,339c6.86,2.39,12.39,7.43,12.39,17.59,0,10.93-5.81,16.06-13.1,16.06-6.44,0-14.23-4.7-14.23-15,0-7.26,4-9.14,8.35-9.14.57,0,1.21.09,1.77.09v-.26c-9.06-3.76-12-10.07-12-16.48,0-6.57,4.6-12,12.39-12,5.31,0,12.67,3.93,12.67,12.29,0,5.13-4.81,6.15-8.28,6.58Zm4.39-10.5c0-2.73-3.9-5.72-9-6.49,6,2,7,7.86,8.5,7.86C308.35,329.89,308.57,329.29,308.57,328.52Zm2.05,18.62a7.92,7.92,0,0,0-6.23-5.64c4,1.62,4.67,6.57,5.66,6.57A.7.7,0,0,0,310.62,347.14Z" transform="translate(-159.59 -315)"/><path class="cls-1" d="M317.56,352c0-9.05,2.41-12.38,2.9-13.66a13.43,13.43,0,0,1-2.76.68c-4.74,0-7.43-2.81-7.43-7.68,0-7.51,7.64-10.76,14.94-10.76,4.67,0,17.77,1.71,17.77,11.95,0,5.55-6.16,8-9.42,6.24,2.05,2.47,6.51,12.89,6.51,21.17,0,6.75-3.61,12.64-10.33,12.64C317.63,372.58,317.56,356,317.56,352Zm20.18-23.22c0-2.22-4.75-4.7-11.05-5.3,7.44,1.54,8.71,6.41,10.48,6.41C337.53,329.89,337.74,329.37,337.74,328.78Z" transform="translate(-159.59 -315)"/><path class="cls-1" d="M355.08,361.4c.14,3.75,1,10-3.82,10.58-10.83,0-11.33-19.81-10.69-32.36.42-9.22,3.33-17.76,11.61-17.76,16.07,0,20.32,20.24,19.54,35.95-.21,5.89-2.69,15.45-9,15.45-4.67,0-6.44-7.94-7.08-11.95Zm-4-8.29c-.28,0-.36.34-.36.86-.07,1.45,1.7,3.07,4.11,3.5C352,356.44,351.68,353.11,351.12,353.11Zm2.76-2.13a1.54,1.54,0,0,0-1.13,1.53,2.46,2.46,0,0,0,2.33,2.57,1.41,1.41,0,0,0,1.63-1.37c0-1.11-1.2-2.73-2.41-2.73Zm8.5-21.78c.14-2-3.54-4.35-8.29-4.78,5.52,1.45,6.59,5.81,7.86,5.81C362.16,330.23,362.3,329.8,362.38,329.2Z" transform="translate(-159.59 -315)"/><path class="cls-1" d="M374.27,352c0-9.05,2.41-12.38,2.9-13.66a13.43,13.43,0,0,1-2.76.68c-4.74,0-7.43-2.81-7.43-7.68,0-7.51,7.64-10.76,14.94-10.76,4.67,0,17.77,1.71,17.77,11.95,0,5.55-6.16,8-9.42,6.24,2.05,2.47,6.51,12.89,6.51,21.17,0,6.75-3.61,12.64-10.33,12.64C374.34,372.58,374.27,356,374.27,352Zm20.18-23.22c0-2.22-4.75-4.7-11.05-5.3,7.44,1.54,8.71,6.41,10.48,6.41C394.24,329.89,394.45,329.37,394.45,328.78Z" transform="translate(-159.59 -315)"/><path class="cls-1" d="M412.71,339c6.87,2.39,12.39,7.43,12.39,17.59,0,10.93-5.8,16.06-13.09,16.06-6.45,0-14.24-4.7-14.24-15,0-7.26,4-9.14,8.36-9.14.57,0,1.2.09,1.77.09v-.26c-9.06-3.76-12-10.07-12-16.48,0-6.57,4.6-12,12.39-12,5.31,0,12.68,3.93,12.68,12.29,0,5.13-4.82,6.15-8.29,6.58Zm4.39-10.5c0-2.73-3.89-5.72-9-6.49,6,2,7,7.86,8.5,7.86C416.89,329.89,417.1,329.29,417.1,328.52Zm2.06,18.62a7.92,7.92,0,0,0-6.23-5.64c4,1.62,4.67,6.57,5.66,6.57A.7.7,0,0,0,419.16,347.14Z" transform="translate(-159.59 -315)"/><path class="cls-2" d="M167.38,347.6c0-9.05,2.41-12.38,2.9-13.66a13.43,13.43,0,0,1-2.76.69c-4.74,0-7.43-2.82-7.43-7.69,0-7.51,7.64-10.76,14.94-10.76,4.67,0,17.77,1.71,17.77,12,0,5.55-6.16,8-9.42,6.23,2.05,2.48,6.52,12.89,6.52,21.18,0,6.74-3.62,12.63-10.34,12.63C167.45,368.18,167.38,351.62,167.38,347.6Zm20.18-23.22c0-2.22-4.75-4.7-11.05-5.29,7.44,1.53,8.71,6.4,10.48,6.4C187.35,325.49,187.56,325,187.56,324.38Z" transform="translate(-159.59 -315)"/><path class="cls-2" d="M211.84,351.36c3.12-.94,8.07-.17,7.93,6.75,0,7.51-12,10.24-15.08,10.24-12.67,0-15.08-26-14.94-37.57.07-10.93,4.89-13.23,12.68-13.23,6.16,0,12.53,1.45,12.53,6.49,0,5.63-4,5.89-7.15,6.57V331c7.15-.42,11.4,3.25,11.33,10.17-.08,4-2.13,7.51-7.3,9.3Zm-.56-28.86c0-1.11-2.2-2.39-5-2.65,3.19.86,3.89,3.25,4.67,3.25C211.13,323.1,211.28,322.84,211.28,322.5ZM214,336.85c0-1.63-2.76-3.5-6.23-3.93,4,1.19,4.95,4.78,5.87,4.78C213.83,337.7,214,337.36,214,336.85Zm2.47,19.72c.15,0,.29-.26.29-.6,0-1.19-2.13-2.39-5-2.64C215,354.18,215.74,356.57,216.44,356.57Z" transform="translate(-159.59 -315)"/><path class="cls-2" d="M231.74,357c.14,3.75,1,10-3.83,10.59-10.83,0-11.32-19.81-10.69-32.37.43-9.22,3.33-17.76,11.61-17.76,16.08,0,20.32,20.24,19.55,36-.22,5.89-2.69,15.46-9,15.46-4.67,0-6.44-7.94-7.08-12Zm-4-8.28c-.28,0-.35.34-.35.85-.07,1.45,1.7,3.07,4.1,3.5C228.69,352.05,228.34,348.72,227.77,348.72Zm2.76-2.14a1.57,1.57,0,0,0-1.13,1.54,2.46,2.46,0,0,0,2.34,2.56,1.42,1.42,0,0,0,1.63-1.37c0-1.11-1.21-2.73-2.41-2.73Zm8.5-21.77c.14-2.05-3.54-4.36-8.28-4.78,5.52,1.45,6.58,5.8,7.86,5.8C238.82,325.83,239,325.4,239,324.81Z" transform="translate(-159.59 -315)"/><path class="cls-2" d="M262.75,358.28c-.36,3.16-.92,10.33-4.53,10.33-7.72,0-12.18-14.86-12.68-26.56-.49-10.67,0-24.67,8.43-24.67,7.08,0,10.76,6.66,12.81,13.32H267c-.43-6.92,2.33-12.89,7.22-12.89,9.2,0,13.31,16.9,13.88,28.34.56,12.21-2.13,22-5.53,22-4,0-6.16-5.72-6.87-9.82h-.35c-.42,3.84-1.42,8.37-5.17,8.37s-6.65-3.68-7-8.37Zm-1.63-34.84c-.07-1.88-2.83-4-6.44-4.52,4.24,1.36,5.16,5.46,6.16,5.46C261,324.38,261.12,324,261.12,323.44Zm19.54,2.9c-.07-2.73-2.83-5.29-7.15-6.4,4.81,2.3,5.66,7.86,6.8,7.86C280.59,327.8,280.73,327.2,280.66,326.34Z" transform="translate(-159.59 -315)"/><path class="cls-2" d="M301.83,334.63c6.87,2.39,12.39,7.42,12.39,17.59,0,10.93-5.81,16-13.1,16-6.44,0-14.23-4.7-14.23-15,0-7.26,4-9.14,8.35-9.14.57,0,1.21.09,1.77.09v-.26c-9.06-3.75-12-10.07-12-16.48,0-6.57,4.6-11.95,12.39-11.95,5.31,0,12.67,3.93,12.67,12.3,0,5.12-4.81,6.14-8.28,6.57Zm4.39-10.51c0-2.73-3.9-5.72-9-6.49,6,2,7,7.86,8.49,7.86C306,325.49,306.22,324.89,306.22,324.12Zm2,18.62A7.92,7.92,0,0,0,302,337.1c4,1.62,4.67,6.58,5.66,6.58A.71.71,0,0,0,308.27,342.74Z" transform="translate(-159.59 -315)"/><path class="cls-2" d="M315.21,347.6c0-9.05,2.41-12.38,2.9-13.66a13.43,13.43,0,0,1-2.76.69c-4.74,0-7.43-2.82-7.43-7.69,0-7.51,7.64-10.76,14.94-10.76,4.67,0,17.77,1.71,17.77,12,0,5.55-6.16,8-9.42,6.23,2.06,2.48,6.52,12.89,6.52,21.18,0,6.74-3.61,12.63-10.34,12.63C315.28,368.18,315.21,351.62,315.21,347.6Zm20.18-23.22c0-2.22-4.74-4.7-11.05-5.29,7.44,1.53,8.71,6.4,10.48,6.4C335.18,325.49,335.39,325,335.39,324.38Z" transform="translate(-159.59 -315)"/><path class="cls-2" d="M352.74,357c.14,3.75,1,10-3.83,10.59-10.83,0-11.33-19.81-10.69-32.37.42-9.22,3.33-17.76,11.61-17.76,16.07,0,20.32,20.24,19.54,36-.21,5.89-2.69,15.46-9,15.46-4.67,0-6.44-7.94-7.08-12Zm-4-8.28c-.28,0-.35.34-.35.85-.07,1.45,1.7,3.07,4.1,3.5C349.69,352.05,349.34,348.72,348.77,348.72Zm2.76-2.14a1.56,1.56,0,0,0-1.13,1.54,2.46,2.46,0,0,0,2.34,2.56,1.41,1.41,0,0,0,1.62-1.37c0-1.11-1.2-2.73-2.4-2.73Zm8.5-21.77c.14-2.05-3.54-4.36-8.29-4.78,5.53,1.45,6.59,5.8,7.86,5.8C359.82,325.83,360,325.4,360,324.81Z" transform="translate(-159.59 -315)"/><path class="cls-2" d="M371.92,347.6c0-9.05,2.41-12.38,2.9-13.66a13.43,13.43,0,0,1-2.76.69c-4.74,0-7.43-2.82-7.43-7.69,0-7.51,7.64-10.76,14.94-10.76,4.67,0,17.77,1.71,17.77,12,0,5.55-6.16,8-9.42,6.23,2.06,2.48,6.52,12.89,6.52,21.18,0,6.74-3.61,12.63-10.34,12.63C372,368.18,371.92,351.62,371.92,347.6Zm20.18-23.22c0-2.22-4.74-4.7-11.05-5.29,7.44,1.53,8.71,6.4,10.48,6.4C391.89,325.49,392.1,325,392.1,324.38Z" transform="translate(-159.59 -315)"/><path class="cls-2" d="M410.37,334.63c6.86,2.39,12.39,7.42,12.39,17.59,0,10.93-5.81,16-13.1,16-6.45,0-14.23-4.7-14.23-15,0-7.26,4-9.14,8.35-9.14.57,0,1.2.09,1.77.09v-.26c-9.06-3.75-12-10.07-12-16.48,0-6.57,4.61-11.95,12.4-11.95,5.31,0,12.67,3.93,12.67,12.3,0,5.12-4.82,6.14-8.28,6.57Zm4.39-10.51c0-2.73-3.9-5.72-9-6.49,6,2,7,7.86,8.5,7.86C414.54,325.49,414.76,324.89,414.76,324.12Zm2.05,18.62a7.94,7.94,0,0,0-6.23-5.64c4,1.62,4.67,6.58,5.66,6.58A.71.71,0,0,0,416.81,342.74Z" transform="translate(-159.59 -315)"/></svg>