<svg id="Ebene_1" data-name="Ebene 1" xmlns="http://www.w3.org/2000/svg" viewBox="0 0 266.28 138.43"><defs><style>.cls-1{font-size:40px;font-family:FatSansRound;}.cls-1,.cls-4{fill:#1d1d1b;}.cls-2{fill:#151a1c;}.cls-3,.cls-5{fill:#fff;stroke-miterlimit:10;}.cls-3{stroke:#11191c;}.cls-5{stroke:#181b1c;}</style></defs><text class="cls-1" transform="translate(0 35.92)">TEAM</text><path class="cls-2" d="M193.89,323.19c-.21,3.07-.5,10-3.06,9.62-5.28-.87-8.47-15.3-9-26.33-.49-10.06-.39-23.28,5.26-23.46,4.94-.16,7.69,6.38,9.3,13h.15c-.41-6.92,1.54-13,5.24-13.09,7.26-.22,10.87,17.65,11.5,29.81.65,13-1.44,22.93-4.2,22.48-3.21-.52-4.95-6.62-5.56-10.87l-.27,0c-.27,3.87-1,8.35-3.81,7.9-2.67-.41-4.94-4.37-5.27-9Zm-1.69-34.36c-.08-1.85-2.07-3.9-4.58-4.34,3,1.26,3.69,5.27,4.39,5.27C192.11,289.76,192.21,289.42,192.2,288.83ZM207,291.72c-.1-2.85-2.32-5.48-5.68-6.55,3.77,2.3,4.52,8.05,5.42,8.06C206.93,293.23,207,292.61,207,291.72Z" transform="translate(-171.14 -229.77)"/><path class="cls-2" d="M211.71,303.11c-2-22.55,2.33-33.54,11.95-34.29,4.94-.39,8.8,3.81,8.86,9.09,0,4.79-3.32,8.74-7.48,9.38A213.64,213.64,0,0,1,227.85,317c.11,4.1.08,7.61.05,10.64,4.1.71,7.61,5.33,7.59,10.18s-2.68,8.42-7.64,7.41C216.72,342.85,214.54,335.06,211.71,303.11Zm17.5-27.37c-.1-2.51-2.74-4.17-6-4.61,3.82,1.56,4.66,5.93,5.58,5.89A1.63,1.63,0,0,0,229.21,275.74Zm2.34,59.8c.07,0,.2-.45.19-.83-.09-1.84-2.36-4.06-5.17-4.91C229.85,331.47,230.75,335.42,231.55,335.54Z" transform="translate(-171.14 -229.77)"/><path class="cls-2" d="M246.32,328.19c.19,4.46,1.15,12-3.81,11.88-10.59-1.69-11.31-24.06-10.87-38.23.28-10.46,3-20.28,11.22-20.55,17.4-.57,22.53,24.89,21.77,44.59-.19,7.35-3,18.83-10,17.67-5-.83-7-10.55-7.7-15.39ZM242.15,318c-.29,0-.36.37-.35,1-.05,1.69,1.77,3.77,4.25,4.53C243.12,322,242.72,318.07,242.15,318Zm2.8-2.27a1.63,1.63,0,0,0-1.15,1.72,3.15,3.15,0,0,0,2.45,3.24,1.4,1.4,0,0,0,1.69-1.47c0-1.32-1.3-3.35-2.55-3.45Zm8.8-25.83c.14-2.5-3.88-5.24-8.89-5.65,5.85,1.63,7,6.91,8.44,6.91C253.53,291.18,253.68,290.65,253.75,289.92Z" transform="translate(-171.14 -229.77)"/><path class="cls-2" d="M288.67,325.67c4.24-.87,11.21.86,11.05,10.43,0,10.4-16.36,11.5-20.28,10.87C264,344.46,261,311.83,261,297.36c0-13.67,5.58-16.74,15.11-17,7.94-.26,16.56,1.46,16.59,8.39,0,7.73-5.46,8-9.58,8.84V298c9.61-.4,15.61,4.82,15.54,14.43-.07,5.57-3,10.17-10,12Zm-1-39c0-1.5-2.95-3.17-6.57-3.43,4.19,1,5.15,4.26,6.19,4.24C287.52,287.47,287.71,287.12,287.71,286.66Zm3.75,19.55c0-2.22-3.77-4.89-8.37-5.59,5.37,1.77,6.64,6.67,7.89,6.73C291.27,307.36,291.46,306.9,291.46,306.21ZM295,333.42c.2,0,.39-.31.39-.78,0-1.63-3-3.59-6.81-4.34C292.93,329.92,294,333.3,295,333.42Z" transform="translate(-171.14 -229.77)"/><path class="cls-2" d="M306.9,288.24a17,17,0,0,1-2.32.26c-6.37.05-11.47-3.91-11.5-10.14,0-7.3,7-14.19,17.06-14.94,17.66-1.32,27.76,22.32,27.75,68.63,0,22.86-6,29.35-20.94,30.63a14.6,14.6,0,0,1-4.48-.23,12.19,12.19,0,0,1-10.05-12,11.08,11.08,0,0,1,9.44-10.67C308,325,307,310,306.92,293.36ZM321.52,275c.57-3.33-5.32-6.55-10.72-8.58,6,3.63,8.11,9.7,9.58,10A1.78,1.78,0,0,0,321.52,275Z" transform="translate(-171.14 -229.77)"/><path class="cls-2" d="M334.2,319.34c-1.21-11.77,1.1-17.43,7.33-21-3-.71-11.08-2.66-11.09-15.1,0-15.48,15.6-20.88,27.5-21.72,39.4-2.78,57.24,29.14,57,58.82-.26,30.89-14.23,51.9-42.89,47.18C349.57,363.86,336.28,340.88,334.2,319.34Zm20.77-6.2c-.41,0-.54.52-.55,1.34,0,2.6,3.93,5.88,9.06,6.93C357.4,319.05,356.18,313.2,355,313.14Zm13.21,1.54c0-2.41-3.12-5.79-6.07-5.91-1.67-.07-3.6.82-3.6,2.89a6,6,0,0,0,5.68,5.6C367,317.43,368.18,316.09,368.18,314.68Zm21.29-36.22c0-5.53-12.74-11.12-28.64-11.66,18.91,2.87,22.22,14.64,26.89,14.54C388.82,281.31,389.46,280.11,389.47,278.46Z" transform="translate(-171.14 -229.77)"/><path class="cls-3" d="M192.45,317.13c-.2,3.06-.49,10-3,9.66-5.24-.74-8.4-15-8.9-26-.49-10-.39-23.19,5.2-23.51,4.89-.27,7.62,6.19,9.21,12.78h.15c-.41-6.89,1.52-13,5.18-13.16,7.19-.39,10.76,17.33,11.39,29.43.64,12.92-1.43,22.87-4.16,22.49-3.17-.44-4.9-6.48-5.5-10.7l-.27,0c-.27,3.86-.95,8.34-3.76,8-2.65-.35-4.89-4.24-5.22-8.87Zm-1.68-34.19c-.08-1.84-2.05-3.85-4.54-4.22,3,1.19,3.66,5.17,4.35,5.15C190.68,283.87,190.78,283.53,190.77,282.94Zm14.61,2.54c-.09-2.84-2.29-5.41-5.61-6.4,3.72,2.21,4.47,7.92,5.36,7.91C205.35,287,205.45,286.36,205.38,285.48Z" transform="translate(-171.14 -229.77)"/><path class="cls-3" d="M210.08,296.71c-2-22.41,2.29-33.46,11.81-34.43,4.88-.49,8.7,3.61,8.76,8.86,0,4.77-3.28,8.78-7.4,9.51A211.71,211.71,0,0,1,226,310.13c.11,4.08.09,7.58.06,10.6,4.05.6,7.52,5.12,7.5,9.95s-2.65,8.45-7.55,7.56C215.05,336.18,212.89,328.47,210.08,296.71Zm17.3-27.66c-.1-2.49-2.72-4.08-6-4.45,3.78,1.47,4.61,5.8,5.52,5.74A1.7,1.7,0,0,0,227.38,269.05Zm2.33,59.49a1.52,1.52,0,0,0,.19-.83c-.09-1.83-2.34-4-5.12-4.77C228,324.53,228.92,328.44,229.71,328.54Z" transform="translate(-171.14 -229.77)"/><path class="cls-3" d="M244.3,320.87c.19,4.44,1.14,11.89-3.76,11.92-10.47-1.43-11.19-23.69-10.76-37.8.28-10.43,2.93-20.27,11.09-20.72,17.18-1,22.25,24.26,21.51,43.88-.19,7.32-2.92,18.8-9.88,17.82-5-.71-6.91-10.34-7.62-15.14Zm-4.12-10c-.29,0-.36.38-.35,1-.05,1.69,1.75,3.71,4.2,4.41C241.14,314.8,240.74,310.89,240.18,310.85Zm2.76-2.32a1.66,1.66,0,0,0-1.13,1.73c-.06,1.4,1,3.07,2.41,3.17a1.41,1.41,0,0,0,1.67-1.5c0-1.31-1.28-3.31-2.51-3.38Zm8.69-25.92c.13-2.5-3.84-5.13-8.78-5.42,5.78,1.49,7,6.71,8.33,6.68C251.41,283.87,251.56,283.34,251.63,282.61Z" transform="translate(-171.14 -229.77)"/><path class="cls-3" d="M286.11,317.37c4.18-1,11.05.59,10.89,10.11.05,10.34-16.13,11.83-20,11.29-15.21-2.12-18.21-34.52-18.17-48.92,0-13.6,5.5-16.78,14.91-17.31,7.83-.43,16.34,1.08,16.37,8,0,7.69-5.38,8.08-9.45,9V290c9.48-.62,15.4,4.44,15.34,14-.08,5.54-2.92,10.18-9.91,12.13Zm-1-38.78c0-1.5-2.9-3.09-6.47-3.27,4.13.95,5.07,4.12,6.1,4.09C285,279.4,285.15,279.05,285.14,278.59Zm3.71,19.35c0-2.19-3.72-4.76-8.26-5.35,5.3,1.62,6.55,6.47,7.79,6.5C288.66,299.1,288.85,298.64,288.85,297.94Zm3.51,27c.2,0,.39-.32.39-.78,0-1.63-2.92-3.5-6.72-4.16C290.31,321.5,291.39,324.83,292.36,324.93Z" transform="translate(-171.14 -229.77)"/><path class="cls-3" d="M304.07,279.72a15.48,15.48,0,0,1-2.28.31c-6.29.2-11.32-3.62-11.35-9.82,0-7.26,6.87-14.27,16.82-15.24,17.4-1.71,27.35,21.56,27.36,67.59,0,22.71-5.87,29.31-20.62,30.95a14.65,14.65,0,0,1-4.42-.13,11.74,11.74,0,0,1-9.91-11.67A11.33,11.33,0,0,1,309,330.87c-3.85-14.61-4.83-29.5-4.89-46.06Zm14.41-13.45c.56-3.33-5.25-6.39-10.57-8.29,5.87,3.48,8,9.46,9.45,9.75A1.82,1.82,0,0,0,318.48,266.27Z" transform="translate(-171.14 -229.77)"/><path class="cls-3" d="M331,310c-1.2-11.67,1.07-17.35,7.21-21-3-.64-10.91-2.39-10.93-14.76,0-15.38,15.36-21.1,27.06-22.2,38.75-3.64,56.28,27.64,56.05,57.1-.25,30.67-14,51.87-42.14,47.87C346.12,353.89,333,331.37,331,310Zm20.44-6.65c-.4,0-.53.53-.53,1.34,0,2.59,3.86,5.75,8.91,6.68C353.81,309.18,352.62,303.39,351.42,303.36Zm13,1.22c0-2.39-3.07-5.67-6-5.73-1.64,0-3.54.9-3.55,3a5.82,5.82,0,0,0,5.6,5.43C363.29,307.35,364.42,306,364.42,304.58Zm20.92-36.45c0-5.49-12.53-10.76-28.17-10.94,18.6,2.43,21.86,14,26.45,13.84C384.7,271,385.33,269.76,385.34,268.13Z" transform="translate(-171.14 -229.77)"/><circle class="cls-4" cx="255.82" cy="127.53" r="10.46"/><circle class="cls-5" cx="254.25" cy="125.02" r="10.46"/></svg>