<svg id="Ebene_1" data-name="Ebene 1" xmlns="http://www.w3.org/2000/svg" viewBox="0 0 380.67 304.77"><defs><style>.cls-1{fill:#1d1d1b;}.cls-2{fill:#1d71b8;}.cls-3{fill:#f9b233;}.cls-4{fill:#e94e1b;}.cls-5{fill:#662483;}.cls-6{fill:#36a9e1;}</style></defs><path class="cls-1" d="M87.11,387.34v1.82a3.16,3.16,0,0,0-1.3-.38,2.09,2.09,0,0,0-1.24.36,2.59,2.59,0,0,0-.86,1.1,7.16,7.16,0,0,0-.5,1.88,20.69,20.69,0,0,0-.16,2.69c0,3.72,1,5.58,2.86,5.58a3,3,0,0,0,1.2-.31V402a3.3,3.3,0,0,1-1.64.41q-4.57,0-4.58-7.48a12.63,12.63,0,0,1,1.12-6,3.68,3.68,0,0,1,3.43-2A3.46,3.46,0,0,1,87.11,387.34Z" transform="translate(-80.29 -243.92)"/><path class="cls-1" d="M96.26,395a13.08,13.08,0,0,1-.89,5.68,3.11,3.11,0,0,1-3,1.68,3.19,3.19,0,0,1-3.1-1.81q-.89-1.77-.89-6.28a13.26,13.26,0,0,1,.88-5.69,3.14,3.14,0,0,1,3-1.68,3.2,3.2,0,0,1,2.81,1.3,6,6,0,0,1,.88,2.47A25.74,25.74,0,0,1,96.26,395Zm-2.13.22a24.48,24.48,0,0,0-.35-5.2q-.36-1.29-1.44-1.29a1.45,1.45,0,0,0-1.45,1.18,21,21,0,0,0-.35,4.79,19.39,19.39,0,0,0,.37,4.59,1.46,1.46,0,0,0,1.43,1.21,1.44,1.44,0,0,0,1.41-1.13A15.15,15.15,0,0,0,94.13,395.22Z" transform="translate(-80.29 -243.92)"/><path class="cls-1" d="M98.27,387.09h2.5a6.23,6.23,0,0,1,1.92.26,3.09,3.09,0,0,1,1.29.86,5.43,5.43,0,0,1,1.21,2.45,18.41,18.41,0,0,1,.36,4.17,16.76,16.76,0,0,1-.4,4.06,4.41,4.41,0,0,1-1.29,2.29c-.73.66-2,1-4,1H98.27Zm2,13.3a2.58,2.58,0,0,0,2.48-1.12,9.9,9.9,0,0,0,.64-4.37,12.69,12.69,0,0,0-.61-4.79,2.27,2.27,0,0,0-2.26-1.31h-.25Z" transform="translate(-80.29 -243.92)"/><path class="cls-1" d="M107.57,387.09H113v1.72h-3.36v4.78h3v1.71h-3v5.15H113v1.72h-5.4Z" transform="translate(-80.29 -243.92)"/><path class="cls-1" d="M113.68,403.53H125v1.78H113.68Z" transform="translate(-80.29 -243.92)"/><path class="cls-1" d="M132.07,387.34v1.82a3.2,3.2,0,0,0-1.31-.38,2.11,2.11,0,0,0-1.24.36,2.59,2.59,0,0,0-.86,1.1,7.16,7.16,0,0,0-.5,1.88,20.69,20.69,0,0,0-.16,2.69c0,3.72,1,5.58,2.86,5.58a3,3,0,0,0,1.21-.31V402a3.35,3.35,0,0,1-1.64.41q-4.59,0-4.58-7.48a12.65,12.65,0,0,1,1.11-6,3.68,3.68,0,0,1,3.43-2A3.53,3.53,0,0,1,132.07,387.34Z" transform="translate(-80.29 -243.92)"/><path class="cls-1" d="M133.78,387.09h2V393h3v-5.9h2v15.08h-2v-7.46h-3v7.46h-2Z" transform="translate(-80.29 -243.92)"/><path class="cls-1" d="M145.29,387.09h1.58l3.23,15.08h-2l-.56-2.94h-3l-.58,2.94h-2Zm1.94,10.57-.45-2.4c-.3-1.64-.54-3.38-.73-5.24-.09.91-.21,1.82-.35,2.75s-.31,1.91-.51,3l-.37,1.94Z" transform="translate(-80.29 -243.92)"/><path class="cls-1" d="M151.29,387.09h2v13.36h3.32v1.72h-5.36Z" transform="translate(-80.29 -243.92)"/><path class="cls-1" d="M157.92,387.09h2v13.36h3.32v1.72h-5.35Z" transform="translate(-80.29 -243.92)"/><path class="cls-1" d="M167.49,387.09h1.58l3.23,15.08h-2l-.57-2.94h-3l-.57,2.94h-1.95Zm1.94,10.57-.45-2.4c-.3-1.64-.54-3.38-.73-5.24-.09.91-.21,1.82-.35,2.75s-.32,1.91-.51,3l-.37,1.94Z" transform="translate(-80.29 -243.92)"/><path class="cls-1" d="M173.49,387.09h1.9l2,6q.87,2.55,1.55,5.44c-.16-1.17-.28-2.22-.36-3.17s-.12-1.83-.12-2.66v-5.63h2v15.08h-1.9l-2.28-6.79c-.2-.63-.4-1.28-.59-1.94s-.35-1.36-.51-2.09a3,3,0,0,0-.06-.33l-.11-.45c0,.17,0,.31.05.43a2,2,0,0,1,0,.31l.11,1.53.11,1.87c0,.1,0,.23,0,.38s0,.32,0,.51l.1,6.57h-2Z" transform="translate(-80.29 -243.92)"/><path class="cls-1" d="M186.46,394.24h3.69v.59c0,2.93-.25,4.92-.77,5.94a2.87,2.87,0,0,1-2.85,1.59,3.21,3.21,0,0,1-3.08-1.76,14,14,0,0,1-.9-5.91q0-4.74,1-6.32a3.19,3.19,0,0,1,2.88-1.47,3.44,3.44,0,0,1,2.32.71,4.82,4.82,0,0,1,1.31,2.37l-1.9.79a6.93,6.93,0,0,0-.28-1,2.58,2.58,0,0,0-.34-.63,1.38,1.38,0,0,0-1.12-.46c-.67,0-1.14.42-1.38,1.25a19.68,19.68,0,0,0-.38,4.7,17.91,17.91,0,0,0,.39,4.64,1.45,1.45,0,0,0,1.43,1.21,1.38,1.38,0,0,0,1.36-.86,8.05,8.05,0,0,0,.4-2.95V396h-1.77Z" transform="translate(-80.29 -243.92)"/><path class="cls-1" d="M192.17,387.09h5.4v1.72h-3.36v4.78h3v1.71h-3v5.15h3.36v1.72h-5.4Z" transform="translate(-80.29 -243.92)"/><path class="cls-1" d="M200.38,391.92a1.13,1.13,0,0,1,.83.36,1.15,1.15,0,0,1,.35.84,1.2,1.2,0,0,1-1.2,1.21,1.2,1.2,0,0,1-1.21-1.21,1.12,1.12,0,0,1,.35-.85A1.18,1.18,0,0,1,200.38,391.92Zm0,8a1.1,1.1,0,0,1,.83.37,1.2,1.2,0,0,1,0,1.69,1.22,1.22,0,0,1-.85.35,1.12,1.12,0,0,1-.48-.1,1.19,1.19,0,0,1-.38-.25,1.12,1.12,0,0,1-.26-.38,1.27,1.27,0,0,1-.09-.47,1.12,1.12,0,0,1,.35-.85A1.19,1.19,0,0,1,200.38,399.9Z" transform="translate(-80.29 -243.92)"/><path class="cls-2" d="M84.44,414.14v1.62a1,1,0,0,0-.79-.4c-.88,0-1.32.94-1.32,2.83s.44,3,1.31,3a1.37,1.37,0,0,0,.8-.33v1.49a2.71,2.71,0,0,1-1.28.33q-2.55,0-2.55-4.35a7.09,7.09,0,0,1,.63-3.41,2.09,2.09,0,0,1,2-1.1A2.76,2.76,0,0,1,84.44,414.14Z" transform="translate(-80.29 -243.92)"/><path class="cls-2" d="M85.79,408.47h1.58v14.1H85.79Z" transform="translate(-80.29 -243.92)"/><path class="cls-2" d="M89.92,410.33a1.07,1.07,0,0,1,.75,1.83,1.08,1.08,0,0,1-1.84-.77,1,1,0,0,1,.32-.75A1.1,1.1,0,0,1,89.92,410.33ZM89.17,414h1.6v8.59h-1.6Z" transform="translate(-80.29 -243.92)"/><path class="cls-2" d="M96.06,414.14v1.62a1,1,0,0,0-.79-.4c-.88,0-1.31.94-1.31,2.83s.43,3,1.3,3a1.37,1.37,0,0,0,.8-.33v1.49a2.7,2.7,0,0,1-1.27.33q-2.57,0-2.56-4.35a7.09,7.09,0,0,1,.63-3.41,2.09,2.09,0,0,1,2-1.1A2.76,2.76,0,0,1,96.06,414.14Z" transform="translate(-80.29 -243.92)"/><path class="cls-2" d="M97.31,408.47h1.58v9.33l2-3.82h1.79l-2.19,3.82,2.48,4.77h-1.85L98.89,418v4.57H97.31Z" transform="translate(-80.29 -243.92)"/><path class="cls-2" d="M104.05,409.75h4.59v1.46h-2.86v4.06h2.54v1.46h-2.54v4.38h2.86v1.46h-4.59Z" transform="translate(-80.29 -243.92)"/><path class="cls-2" d="M115,408.47v14.1h-1.59v-1.1a2.65,2.65,0,0,1-.68,1,1.46,1.46,0,0,1-.9.26,1.63,1.63,0,0,1-1.56-1.09,8.81,8.81,0,0,1-.5-3.43,13.75,13.75,0,0,1,.12-1.95,5.17,5.17,0,0,1,.38-1.36,1.89,1.89,0,0,1,.65-.78,1.73,1.73,0,0,1,1-.25,1.37,1.37,0,0,1,.86.25,1.3,1.3,0,0,1,.34.33,2.86,2.86,0,0,1,.34.53v-6.48Zm-3.59,9.77a8.37,8.37,0,0,0,.23,2.36.83.83,0,0,0,.81.67c.35,0,.61-.23.77-.69a11.19,11.19,0,0,0,0-4.61c-.16-.47-.42-.7-.77-.7s-.64.22-.8.67A7.28,7.28,0,0,0,111.45,418.24Z" transform="translate(-80.29 -243.92)"/><path class="cls-2" d="M116.84,414h1.59v5.74a2.38,2.38,0,0,0,.23,1.14.81.81,0,0,0,.74.34.85.85,0,0,0,.75-.3,2,2,0,0,0,.22-1.09V414H122v5.14a7,7,0,0,1-.26,2.4,2.28,2.28,0,0,1-2.31,1.18,2.41,2.41,0,0,1-2-.7,3.68,3.68,0,0,1-.58-2.34Z" transform="translate(-80.29 -243.92)"/><path class="cls-2" d="M128.65,414v8.59h-1.58v-1.1a2.92,2.92,0,0,1-.68,1,1.48,1.48,0,0,1-.9.26,1.64,1.64,0,0,1-1.57-1.09,8.87,8.87,0,0,1-.5-3.44,8.1,8.1,0,0,1,.5-3.28,1.65,1.65,0,0,1,1.57-1.05,1.79,1.79,0,0,1,1.58,1.11v-1Zm-3.58,4.26a8.47,8.47,0,0,0,.22,2.36.84.84,0,0,0,.81.67q.54,0,.78-.69a11.19,11.19,0,0,0,0-4.61c-.16-.47-.42-.7-.78-.7a.84.84,0,0,0-.8.67A7.36,7.36,0,0,0,125.07,418.24Z" transform="translate(-80.29 -243.92)"/><path class="cls-2" d="M130.45,414H132v1.07a3.13,3.13,0,0,1,.8-1,2.14,2.14,0,0,1,1.06-.31v1.66l-.28,0a1.51,1.51,0,0,0-1.22.44,2.42,2.42,0,0,0-.36,1.51v5.21h-1.59Z" transform="translate(-80.29 -243.92)"/><path class="cls-2" d="M140,408.47v14.1h-1.59v-1.1a2.65,2.65,0,0,1-.68,1,1.44,1.44,0,0,1-.9.26,1.63,1.63,0,0,1-1.56-1.09,8.81,8.81,0,0,1-.5-3.43,13.75,13.75,0,0,1,.12-1.95,5.17,5.17,0,0,1,.38-1.36,1.89,1.89,0,0,1,.65-.78,1.75,1.75,0,0,1,1-.25,1.37,1.37,0,0,1,.86.25,1.3,1.3,0,0,1,.34.33,2.86,2.86,0,0,1,.34.53v-6.48Zm-3.59,9.77a8.37,8.37,0,0,0,.23,2.36.83.83,0,0,0,.81.67c.36,0,.61-.23.77-.69a11.19,11.19,0,0,0,0-4.61c-.16-.47-.41-.7-.77-.7s-.64.22-.8.67A7.28,7.28,0,0,0,136.41,418.24Z" transform="translate(-80.29 -243.92)"/><path class="cls-2" d="M146.92,410v1.55a2.72,2.72,0,0,0-1.11-.32,1.8,1.8,0,0,0-1.05.3,2.1,2.1,0,0,0-.73.94,5.88,5.88,0,0,0-.42,1.59,15.35,15.35,0,0,0-.14,2.29q0,4.76,2.43,4.75a2.58,2.58,0,0,0,1-.27v1.59a2.81,2.81,0,0,1-1.39.35q-3.9,0-3.9-6.36a10.64,10.64,0,0,1,1-5.12,3.12,3.12,0,0,1,2.9-1.67A3,3,0,0,1,146.92,410Z" transform="translate(-80.29 -243.92)"/><path class="cls-2" d="M148.28,408.47h1.59V415a2,2,0,0,1,1.76-1.13,1.55,1.55,0,0,1,1.49.82,4.26,4.26,0,0,1,.25,1.8v6.11h-1.58v-5.74a2.62,2.62,0,0,0-.21-1.24.75.75,0,0,0-.71-.37.9.9,0,0,0-.46.1.66.66,0,0,0-.31.31,2,2,0,0,0-.17.55,6.3,6.3,0,0,0,0,.84v5.55h-1.59Z" transform="translate(-80.29 -243.92)"/><path class="cls-2" d="M160.07,414v8.59h-1.58v-1.1a2.78,2.78,0,0,1-.69,1,1.43,1.43,0,0,1-.89.26,1.63,1.63,0,0,1-1.57-1.09,8.87,8.87,0,0,1-.5-3.44,8.1,8.1,0,0,1,.5-3.28,1.64,1.64,0,0,1,1.57-1.05,1.79,1.79,0,0,1,1.58,1.11v-1Zm-3.58,4.26a8.47,8.47,0,0,0,.22,2.36.83.83,0,0,0,.81.67c.36,0,.61-.23.77-.69a10.75,10.75,0,0,0,0-4.61c-.16-.47-.41-.7-.77-.7a.84.84,0,0,0-.8.67A7.36,7.36,0,0,0,156.49,418.24Z" transform="translate(-80.29 -243.92)"/><path class="cls-2" d="M161.87,414h1.59v1.07a3.13,3.13,0,0,1,.8-1,2.14,2.14,0,0,1,1.06-.31v1.66l-.29,0a1.54,1.54,0,0,0-1.22.44,2.5,2.5,0,0,0-.35,1.51v5.21h-1.59Z" transform="translate(-80.29 -243.92)"/><path class="cls-2" d="M171.42,414v8.59h-1.59v-1.1a2.65,2.65,0,0,1-.68,1,1.45,1.45,0,0,1-.89.26,1.63,1.63,0,0,1-1.57-1.09,8.68,8.68,0,0,1-.5-3.44,7.93,7.93,0,0,1,.5-3.28,1.64,1.64,0,0,1,1.57-1.05,1.78,1.78,0,0,1,1.57,1.11v-1Zm-3.59,4.26a8.37,8.37,0,0,0,.23,2.36.83.83,0,0,0,.81.67c.35,0,.61-.23.77-.69a11.19,11.19,0,0,0,0-4.61c-.16-.47-.42-.7-.77-.7a.84.84,0,0,0-.81.67A7.69,7.69,0,0,0,167.83,418.24Z" transform="translate(-80.29 -243.92)"/><path class="cls-2" d="M176.73,414.14v1.62a1,1,0,0,0-.8-.4c-.87,0-1.31.94-1.31,2.83s.44,3,1.3,3a1.37,1.37,0,0,0,.81-.33v1.49a2.74,2.74,0,0,1-1.28.33c-1.7,0-2.56-1.45-2.56-4.35a7.08,7.08,0,0,1,.64-3.41,2.08,2.08,0,0,1,1.95-1.1A2.77,2.77,0,0,1,176.73,414.14Z" transform="translate(-80.29 -243.92)"/><path class="cls-2" d="M178.27,411.57h1.58V414h.86v1.26h-.86v7.33h-1.58v-7.33h-.88V414h.88Z" transform="translate(-80.29 -243.92)"/><path class="cls-2" d="M185.16,419.67h1.47q-.16,3-2.49,3a2.42,2.42,0,0,1-1.18-.26,2.07,2.07,0,0,1-.82-.79,4.23,4.23,0,0,1-.47-1.37,10.36,10.36,0,0,1-.16-2,6.86,6.86,0,0,1,.64-3.37,2.1,2.1,0,0,1,2-1.09c1.72,0,2.58,1.51,2.58,4.55v.2h-3.63c0,1.83.37,2.75,1.1,2.75S185.16,420.78,185.16,419.67Zm-.09-2.23a5.62,5.62,0,0,0-.31-1.78.75.75,0,0,0-1.39,0,5.93,5.93,0,0,0-.31,1.78Z" transform="translate(-80.29 -243.92)"/><path class="cls-2" d="M188.1,414h1.59v1.07a3.13,3.13,0,0,1,.8-1,2.14,2.14,0,0,1,1.06-.31v1.66l-.29,0a1.5,1.5,0,0,0-1.21.44,2.42,2.42,0,0,0-.36,1.51v5.21H188.1Z" transform="translate(-80.29 -243.92)"/><path class="cls-1" d="M193,420.64a1,1,0,0,1,.71.31,1,1,0,0,1,0,1.45,1,1,0,0,1-.72.29,1.11,1.11,0,0,1-.41-.08,1.21,1.21,0,0,1-.32-.22.87.87,0,0,1-.22-.32.92.92,0,0,1-.08-.4,1,1,0,0,1,.3-.73A1,1,0,0,1,193,420.64Z" transform="translate(-80.29 -243.92)"/><path class="cls-3" d="M200.52,414v8.59h-1.58v-1.1a2.92,2.92,0,0,1-.68,1,1.48,1.48,0,0,1-.9.26,1.63,1.63,0,0,1-1.57-1.09,8.87,8.87,0,0,1-.5-3.44,8.1,8.1,0,0,1,.5-3.28,1.64,1.64,0,0,1,1.57-1.05,1.79,1.79,0,0,1,1.58,1.11v-1Zm-3.58,4.26a8.47,8.47,0,0,0,.22,2.36.84.84,0,0,0,.81.67c.36,0,.61-.23.77-.69a10.75,10.75,0,0,0,0-4.61c-.16-.47-.41-.7-.77-.7a.84.84,0,0,0-.8.67A7.36,7.36,0,0,0,196.94,418.24Z" transform="translate(-80.29 -243.92)"/><path class="cls-3" d="M207.23,408.47v14.1h-1.59v-1.1a2.65,2.65,0,0,1-.68,1,1.46,1.46,0,0,1-.9.26,1.63,1.63,0,0,1-1.56-1.09,8.62,8.62,0,0,1-.5-3.43,13.75,13.75,0,0,1,.12-1.95,5.17,5.17,0,0,1,.38-1.36,1.89,1.89,0,0,1,.65-.78,1.73,1.73,0,0,1,.95-.25,1.37,1.37,0,0,1,.86.25,1.3,1.3,0,0,1,.34.33,2.86,2.86,0,0,1,.34.53v-6.48Zm-3.59,9.77a8.37,8.37,0,0,0,.23,2.36.83.83,0,0,0,.81.67c.35,0,.61-.23.77-.69a11.19,11.19,0,0,0,0-4.61c-.16-.47-.42-.7-.77-.7s-.64.22-.8.67A7.28,7.28,0,0,0,203.64,418.24Z" transform="translate(-80.29 -243.92)"/><path class="cls-3" d="M213.94,408.47v14.1h-1.59v-1.1a2.78,2.78,0,0,1-.68,1,1.49,1.49,0,0,1-.91.26,1.65,1.65,0,0,1-1.56-1.09,8.85,8.85,0,0,1-.49-3.43,13.75,13.75,0,0,1,.12-1.95,4.81,4.81,0,0,1,.38-1.36,1.82,1.82,0,0,1,.65-.78,1.73,1.73,0,0,1,.95-.25,1.41,1.41,0,0,1,.86.25,1.48,1.48,0,0,1,.34.33,2.86,2.86,0,0,1,.34.53v-6.48Zm-3.59,9.77a8.47,8.47,0,0,0,.22,2.36.85.85,0,0,0,.82.67c.35,0,.61-.23.77-.69a11.19,11.19,0,0,0,0-4.61c-.16-.47-.42-.7-.77-.7a.84.84,0,0,0-.81.67A7.69,7.69,0,0,0,210.35,418.24Z" transform="translate(-80.29 -243.92)"/><path class="cls-3" d="M215.83,409.75h4.59v1.46h-2.87v4.06h2.54v1.46h-2.54v4.38h2.87v1.46h-4.59Z" transform="translate(-80.29 -243.92)"/><path class="cls-3" d="M221.08,414h1.7l.63,2.72c.12.55.23,1.14.32,1.76s.16,1.29.22,2c0-.17.05-.27.05-.3l.19-1.28c.07-.49.21-1.22.42-2.2l.57-2.72h1.54l-2.24,8.59h-1.07Z" transform="translate(-80.29 -243.92)"/><path class="cls-3" d="M230.9,419.67h1.48q-.18,3-2.49,3a2.42,2.42,0,0,1-1.18-.26,2.07,2.07,0,0,1-.82-.79,4,4,0,0,1-.48-1.37,11.33,11.33,0,0,1-.15-2,7,7,0,0,1,.63-3.37,2.12,2.12,0,0,1,2-1.09c1.72,0,2.58,1.51,2.58,4.55v.2h-3.63c0,1.83.37,2.75,1.1,2.75S230.9,420.78,230.9,419.67Zm-.08-2.23a5.93,5.93,0,0,0-.31-1.78.75.75,0,0,0-1.39,0,5.93,5.93,0,0,0-.31,1.78Z" transform="translate(-80.29 -243.92)"/><path class="cls-3" d="M233.85,414h1.59v1a2,2,0,0,1,1.76-1.13,1.56,1.56,0,0,1,1.49.82,4.26,4.26,0,0,1,.25,1.8v6.11h-1.59v-5.74a2.65,2.65,0,0,0-.2-1.24.75.75,0,0,0-.72-.37,1,1,0,0,0-.46.1.69.69,0,0,0-.3.31,1.7,1.7,0,0,0-.17.55,5,5,0,0,0-.05.84v5.55h-1.59Z" transform="translate(-80.29 -243.92)"/><path class="cls-3" d="M240.92,411.57h1.59V414h.86v1.26h-.86v7.33h-1.59v-7.33h-.87V414h.87Z" transform="translate(-80.29 -243.92)"/><path class="cls-3" d="M244.6,409.75h1.73v11.36h2.82v1.46H244.6Z" transform="translate(-80.29 -243.92)"/><path class="cls-3" d="M250.88,410.33a1,1,0,0,1,.75.31,1.08,1.08,0,0,1-.76,1.84,1.06,1.06,0,0,1-1.07-1.09,1,1,0,0,1,.31-.75A1.1,1.1,0,0,1,250.88,410.33Zm-.74,3.65h1.59v8.59h-1.59Z" transform="translate(-80.29 -243.92)"/><path class="cls-3" d="M256.83,414.15v1.49a2,2,0,0,0-1.22-.43,1,1,0,0,0-.39.07,1,1,0,0,0-.32.2.84.84,0,0,0-.22.31,1,1,0,0,0-.08.38c0,.41.37.9,1.11,1.46a7.64,7.64,0,0,1,.75.65,3.45,3.45,0,0,1,.46.56,2.89,2.89,0,0,1-.35,3.17,2.37,2.37,0,0,1-1.79.69,2.76,2.76,0,0,1-1.39-.4v-1.54a2.22,2.22,0,0,0,1.3.51,1,1,0,0,0,1.09-1.07,1.24,1.24,0,0,0-.2-.69,1.94,1.94,0,0,0-.29-.32,5.8,5.8,0,0,0-.49-.42,6.6,6.6,0,0,1-1.36-1.31,2.45,2.45,0,0,1-.35-1.32,2.36,2.36,0,0,1,.64-1.71,2.28,2.28,0,0,1,1.68-.65A2.9,2.9,0,0,1,256.83,414.15Z" transform="translate(-80.29 -243.92)"/><path class="cls-3" d="M258.79,411.57h1.58V414h.86v1.26h-.86v7.33h-1.58v-7.33h-.88V414h.88Z" transform="translate(-80.29 -243.92)"/><path class="cls-3" d="M265.67,419.67h1.48q-.16,3-2.49,3a2.42,2.42,0,0,1-1.18-.26,2.07,2.07,0,0,1-.82-.79,4.47,4.47,0,0,1-.48-1.37,11.33,11.33,0,0,1-.15-2,6.86,6.86,0,0,1,.64-3.37,2.1,2.1,0,0,1,2-1.09c1.72,0,2.58,1.51,2.58,4.55v.2h-3.63c0,1.83.37,2.75,1.1,2.75S265.67,420.78,265.67,419.67Zm-.08-2.23a5.93,5.93,0,0,0-.31-1.78.75.75,0,0,0-1.39,0,5.93,5.93,0,0,0-.31,1.78Z" transform="translate(-80.29 -243.92)"/><path class="cls-3" d="M268.62,414h1.59v1a2,2,0,0,1,1.76-1.13,1.56,1.56,0,0,1,1.49.82,4.26,4.26,0,0,1,.25,1.8v6.11h-1.59v-5.74a2.62,2.62,0,0,0-.21-1.24.75.75,0,0,0-.72-.37,1,1,0,0,0-.46.1.69.69,0,0,0-.3.31,1.7,1.7,0,0,0-.17.55,5,5,0,0,0-.05.84v5.55h-1.59Z" transform="translate(-80.29 -243.92)"/><path class="cls-3" d="M278.82,419.67h1.48q-.18,3-2.49,3a2.42,2.42,0,0,1-1.18-.26,2.07,2.07,0,0,1-.82-.79,4,4,0,0,1-.48-1.37,11.33,11.33,0,0,1-.15-2,7,7,0,0,1,.63-3.37,2.12,2.12,0,0,1,2-1.09c1.72,0,2.58,1.51,2.58,4.55v.2h-3.63c0,1.83.37,2.75,1.1,2.75S278.82,420.78,278.82,419.67Zm-.08-2.23a5.93,5.93,0,0,0-.31-1.78.75.75,0,0,0-1.39,0,5.93,5.93,0,0,0-.31,1.78Z" transform="translate(-80.29 -243.92)"/><path class="cls-3" d="M281.77,414h1.59v1.07a3,3,0,0,1,.8-1,2.14,2.14,0,0,1,1.06-.31v1.66l-.29,0a1.52,1.52,0,0,0-1.22.44,2.43,2.43,0,0,0-.35,1.51v5.21h-1.59Z" transform="translate(-80.29 -243.92)"/><path class="cls-1" d="M288,408.27l1.69.4a28.28,28.28,0,0,0-1.48,8.44,27.94,27.94,0,0,0,1.48,8.74l-1.69.44a27.24,27.24,0,0,1-1.57-9.05A26,26,0,0,1,288,408.27Z" transform="translate(-80.29 -243.92)"/><path class="cls-4" d="M292.75,414.77h-1.22l-.36-5h1.94Zm2.95,0h-1.22l-.36-5h1.93Z" transform="translate(-80.29 -243.92)"/><path class="cls-4" d="M301.23,414.14v1.62a1,1,0,0,0-.8-.4c-.88,0-1.31.94-1.31,2.83s.43,3,1.3,3a1.42,1.42,0,0,0,.81-.33v1.49a2.74,2.74,0,0,1-1.28.33q-2.56,0-2.56-4.35a7.09,7.09,0,0,1,.63-3.41,2.1,2.1,0,0,1,2-1.1A2.8,2.8,0,0,1,301.23,414.14Z" transform="translate(-80.29 -243.92)"/><path class="cls-4" d="M302.57,408.47h1.59v14.1h-1.59Z" transform="translate(-80.29 -243.92)"/><path class="cls-4" d="M306.7,410.33a1,1,0,0,1,.75.31,1.08,1.08,0,0,1-.76,1.84,1.06,1.06,0,0,1-1.07-1.09,1,1,0,0,1,.31-.75A1.12,1.12,0,0,1,306.7,410.33ZM306,414h1.59v8.59H306Z" transform="translate(-80.29 -243.92)"/><path class="cls-4" d="M312.85,414.14v1.62a1,1,0,0,0-.8-.4c-.87,0-1.31.94-1.31,2.83s.43,3,1.3,3a1.4,1.4,0,0,0,.81-.33v1.49a2.74,2.74,0,0,1-1.28.33q-2.56,0-2.56-4.35a7.09,7.09,0,0,1,.63-3.41,2.1,2.1,0,0,1,2-1.1A2.8,2.8,0,0,1,312.85,414.14Z" transform="translate(-80.29 -243.92)"/><path class="cls-4" d="M314.09,408.47h1.59v9.33l2-3.82h1.8l-2.19,3.82,2.48,4.77h-1.86L315.68,418v4.57h-1.59Z" transform="translate(-80.29 -243.92)"/><path class="cls-4" d="M322.19,414.77H321l-.35-5h1.93Zm2.95,0h-1.22l-.36-5h1.94Z" transform="translate(-80.29 -243.92)"/><path class="cls-1" d="M327.64,420.78l1.38.4-1.65,4.51-.87-.24Z" transform="translate(-80.29 -243.92)"/><path class="cls-2" d="M333.59,414h.8v-3a3.67,3.67,0,0,1,.43-2.07,1.71,1.71,0,0,1,1.5-.61,3.45,3.45,0,0,1,1.08.22v1.68a1.46,1.46,0,0,0-.67-.21.66.66,0,0,0-.58.24,1.52,1.52,0,0,0-.17.82V414h1.35v1.26H336v7.33h-1.58v-7.33h-.8Z" transform="translate(-80.29 -243.92)"/><path class="cls-2" d="M338.36,414H340v5.74a2.38,2.38,0,0,0,.23,1.14.82.82,0,0,0,.74.34.85.85,0,0,0,.75-.3,2,2,0,0,0,.22-1.09V414h1.59v5.14a6.88,6.88,0,0,1-.27,2.4,2.28,2.28,0,0,1-2.31,1.18,2.41,2.41,0,0,1-2-.7,3.75,3.75,0,0,1-.58-2.34Z" transform="translate(-80.29 -243.92)"/><path class="cls-2" d="M345.27,414h1.58v1a2,2,0,0,1,1.76-1.13,1.57,1.57,0,0,1,1.5.82,4.43,4.43,0,0,1,.25,1.8v6.11h-1.59v-5.74a2.79,2.79,0,0,0-.2-1.24.75.75,0,0,0-.72-.37,1,1,0,0,0-.46.1.69.69,0,0,0-.3.31,1.49,1.49,0,0,0-.17.55,4.84,4.84,0,0,0-.06.84v5.55h-1.58Z" transform="translate(-80.29 -243.92)"/><path class="cls-2" d="M355.66,414.14v1.62a1,1,0,0,0-.79-.4c-.88,0-1.32.94-1.32,2.83s.44,3,1.31,3a1.37,1.37,0,0,0,.8-.33v1.49a2.74,2.74,0,0,1-1.28.33q-2.55,0-2.55-4.35a7.09,7.09,0,0,1,.63-3.41,2.09,2.09,0,0,1,2-1.1A2.76,2.76,0,0,1,355.66,414.14Z" transform="translate(-80.29 -243.92)"/><path class="cls-2" d="M357.2,411.57h1.58V414h.87v1.26h-.87v7.33H357.2v-7.33h-.87V414h.87Z" transform="translate(-80.29 -243.92)"/><path class="cls-2" d="M361.53,410.33a1.07,1.07,0,0,1,.75,1.83,1.08,1.08,0,0,1-1.84-.77,1,1,0,0,1,.32-.75A1.1,1.1,0,0,1,361.53,410.33Zm-.75,3.65h1.6v8.59h-1.6Z" transform="translate(-80.29 -243.92)"/><path class="cls-2" d="M369.23,418.34c0,2.91-.89,4.36-2.69,4.36s-2.7-1.47-2.7-4.42.89-4.44,2.69-4.44a2.7,2.7,0,0,1,1.21.26,2.13,2.13,0,0,1,.84.82,4.39,4.39,0,0,1,.49,1.41A10.62,10.62,0,0,1,369.23,418.34Zm-1.64,0a8.34,8.34,0,0,0-.22-2.35.82.82,0,0,0-1.61,0,12.24,12.24,0,0,0,0,4.62.84.84,0,0,0,.81.66.81.81,0,0,0,.79-.65A7.59,7.59,0,0,0,367.59,418.3Z" transform="translate(-80.29 -243.92)"/><path class="cls-2" d="M370.71,414h1.59v1a2,2,0,0,1,1.76-1.13,1.56,1.56,0,0,1,1.49.82,4.26,4.26,0,0,1,.25,1.8v6.11h-1.59v-5.74a2.62,2.62,0,0,0-.21-1.24.75.75,0,0,0-.72-.37,1,1,0,0,0-.46.1.69.69,0,0,0-.3.31,1.7,1.7,0,0,0-.17.55,5,5,0,0,0-.05.84v5.55h-1.59Z" transform="translate(-80.29 -243.92)"/><path class="cls-1" d="M379.24,408.27l1.68.4a28.6,28.6,0,0,0-1.48,8.44,28.23,28.23,0,0,0,1.48,8.74l-1.68.44a27,27,0,0,1-1.58-9.05A25.76,25.76,0,0,1,379.24,408.27Z" transform="translate(-80.29 -243.92)"/><path class="cls-1" d="M384.14,426.29l-1.68-.41a25.8,25.8,0,0,0,0-17.17l1.68-.44a27.25,27.25,0,0,1,1.58,9.05A26,26,0,0,1,384.14,426.29Z" transform="translate(-80.29 -243.92)"/><path class="cls-1" d="M392.74,417.31a2.71,2.71,0,0,1,.66.94,3.48,3.48,0,0,1,.18,1.25v3.84a1.73,1.73,0,0,0,.18,1,1.14,1.14,0,0,0,.82.21h.47v1.56h-.6a2.34,2.34,0,0,1-1.95-.74,3.77,3.77,0,0,1-.62-2.38v-3.43a2.11,2.11,0,0,0-.18-1,1,1,0,0,0-.65-.43l-.07,0-.07,0-.1,0v-1.6a.47.47,0,0,1,.24-.13c.56-.11.83-.55.83-1.34v-3.66c0-1.92.83-2.88,2.48-2.88h.39a.51.51,0,0,1,.3.08v1.55h-.49c-.43,0-.71.09-.83.26a3.08,3.08,0,0,0-.16,1.29v3.49a5.23,5.23,0,0,1-.05.73,3.08,3.08,0,0,1-.14.58,2.12,2.12,0,0,1-.26.47A3,3,0,0,1,392.74,417.31Z" transform="translate(-80.29 -243.92)"/><path class="cls-5" d="M95.76,430.73a1,1,0,0,1,.74.31A1.07,1.07,0,1,1,95,432.56,1.09,1.09,0,0,1,95,431,1.12,1.12,0,0,1,95.76,430.73ZM95,434.38H96.6V443H95Z" transform="translate(-80.29 -243.92)"/><path class="cls-5" d="M97.78,434.38h.8v-3a3.67,3.67,0,0,1,.43-2.07,1.71,1.71,0,0,1,1.5-.61,3.45,3.45,0,0,1,1.08.22v1.68a1.43,1.43,0,0,0-.67-.21.67.67,0,0,0-.58.24,1.52,1.52,0,0,0-.17.82v2.93h1.35v1.26h-1.35V443H98.58v-7.33h-.8Z" transform="translate(-80.29 -243.92)"/><path class="cls-1" d="M107.72,428.67l1.68.4a28.56,28.56,0,0,0-1.47,8.44,28.2,28.2,0,0,0,1.47,8.74l-1.68.44a27.25,27.25,0,0,1-1.58-9.05A26,26,0,0,1,107.72,428.67Z" transform="translate(-80.29 -243.92)"/><path class="cls-2" d="M114.38,434.55V436a2,2,0,0,0-1.22-.43,1.09,1.09,0,0,0-.4.07,1.32,1.32,0,0,0-.32.2,1,1,0,0,0-.21.31,1,1,0,0,0-.08.38c0,.41.37.9,1.11,1.46a7.64,7.64,0,0,1,.75.65,3.45,3.45,0,0,1,.46.56,2.89,2.89,0,0,1-.35,3.17,2.38,2.38,0,0,1-1.79.69,2.76,2.76,0,0,1-1.39-.4v-1.54a2.22,2.22,0,0,0,1.3.51,1,1,0,0,0,1.09-1.07,1.19,1.19,0,0,0-.2-.68,1.62,1.62,0,0,0-.29-.33,5.8,5.8,0,0,0-.49-.42,6.6,6.6,0,0,1-1.36-1.31,2.45,2.45,0,0,1-.35-1.32,2.32,2.32,0,0,1,.64-1.7,2.24,2.24,0,0,1,1.68-.66A2.92,2.92,0,0,1,114.38,434.55Z" transform="translate(-80.29 -243.92)"/><path class="cls-2" d="M116.06,428.87h1.59v6.5a2,2,0,0,1,1.76-1.13,1.56,1.56,0,0,1,1.49.82,4.26,4.26,0,0,1,.25,1.8V443h-1.59v-5.74a2.65,2.65,0,0,0-.2-1.24.77.77,0,0,0-.72-.37,1.08,1.08,0,0,0-.46.1.69.69,0,0,0-.3.31,1.7,1.7,0,0,0-.17.55,5,5,0,0,0,0,.84V443h-1.59Z" transform="translate(-80.29 -243.92)"/><path class="cls-2" d="M128,438.75q0,4.35-2.69,4.35t-2.7-4.42c0-3,.89-4.44,2.69-4.44a2.65,2.65,0,0,1,1.2.26,2.05,2.05,0,0,1,.85.83,4.32,4.32,0,0,1,.49,1.4A10.66,10.66,0,0,1,128,438.75Zm-1.64-.05a8.34,8.34,0,0,0-.22-2.35.82.82,0,0,0-1.61,0,12.24,12.24,0,0,0,0,4.62.85.85,0,0,0,.81.67.82.82,0,0,0,.79-.66A7.59,7.59,0,0,0,126.37,438.7Z" transform="translate(-80.29 -243.92)"/><path class="cls-2" d="M128.6,434.38h1.68l.48,2.76c.1.56.18,1.09.25,1.61s.14,1,.18,1.5l0,.3,0-.32c.05-.4.09-.76.14-1.1s.1-.64.15-.92l.13-.66.59-3.17h1.16l.55,3.17.19,1c0,.18.07.42.1.7s.07.61.1,1l0,.31q.15-1.55.42-3l.59-3.17H137L135,443h-1.09l-.66-3.28c-.08-.4-.14-.81-.2-1.22s-.1-.87-.14-1.34a1.91,1.91,0,0,0,0-.2c0-.07,0-.16,0-.27,0,.51-.08,1-.14,1.47s-.14.94-.23,1.41l-.66,3.43h-1.1Z" transform="translate(-80.29 -243.92)"/><path class="cls-2" d="M138.09,430.15h4.59v1.46h-2.86v4.06h2.54v1.46h-2.54v4.38h2.86V443h-4.59Z" transform="translate(-80.29 -243.92)"/><path class="cls-2" d="M149.08,428.87V443H147.5v-1.1a2.78,2.78,0,0,1-.69,1,1.44,1.44,0,0,1-.9.26,1.63,1.63,0,0,1-1.56-1.09,8.81,8.81,0,0,1-.5-3.43,12.3,12.3,0,0,1,.13-1.95,4.83,4.83,0,0,1,.37-1.36,1.84,1.84,0,0,1,.66-.78,1.69,1.69,0,0,1,.94-.25,1.37,1.37,0,0,1,.86.25,1.17,1.17,0,0,1,.34.33,3.48,3.48,0,0,1,.35.53v-6.48Zm-3.59,9.77a8.37,8.37,0,0,0,.23,2.36.84.84,0,0,0,.81.67c.36,0,.61-.23.77-.69a10.75,10.75,0,0,0,0-4.61c-.16-.46-.41-.7-.77-.7a.84.84,0,0,0-.8.67A7.28,7.28,0,0,0,145.49,438.64Z" transform="translate(-80.29 -243.92)"/><path class="cls-2" d="M150.88,434.38h1.59v5.74a2.38,2.38,0,0,0,.23,1.14.82.82,0,0,0,.74.34.85.85,0,0,0,.75-.3,2,2,0,0,0,.22-1.09v-5.83H156v5.14a6.88,6.88,0,0,1-.27,2.4,2.28,2.28,0,0,1-2.31,1.18,2.44,2.44,0,0,1-2-.69,3.8,3.8,0,0,1-.58-2.35Z" transform="translate(-80.29 -243.92)"/><path class="cls-2" d="M162.69,434.38V443h-1.58v-1.1a2.92,2.92,0,0,1-.68,1,1.48,1.48,0,0,1-.9.26A1.64,1.64,0,0,1,158,442a8.87,8.87,0,0,1-.5-3.44,8.1,8.1,0,0,1,.5-3.28,1.65,1.65,0,0,1,1.57-1.05,1.79,1.79,0,0,1,1.58,1.11v-1Zm-3.58,4.26a8.47,8.47,0,0,0,.22,2.36.85.85,0,0,0,.82.67c.35,0,.61-.23.77-.69a11.19,11.19,0,0,0,0-4.61c-.16-.46-.42-.7-.77-.7a.84.84,0,0,0-.81.67A7.69,7.69,0,0,0,159.11,438.64Z" transform="translate(-80.29 -243.92)"/><path class="cls-2" d="M164.5,434.38h1.58v1.07a3,3,0,0,1,.81-.95,2,2,0,0,1,1.05-.32v1.66l-.28,0a1.51,1.51,0,0,0-1.22.44,2.42,2.42,0,0,0-.36,1.51V443H164.5Z" transform="translate(-80.29 -243.92)"/><path class="cls-2" d="M174,428.87V443h-1.58v-1.1a2.92,2.92,0,0,1-.68,1,1.49,1.49,0,0,1-.91.26,1.63,1.63,0,0,1-1.56-1.09,8.81,8.81,0,0,1-.5-3.43,12.3,12.3,0,0,1,.13-1.95,5.2,5.2,0,0,1,.37-1.36,1.84,1.84,0,0,1,.66-.78,1.69,1.69,0,0,1,.94-.25,1.42,1.42,0,0,1,.87.25,1.48,1.48,0,0,1,.34.33,3.49,3.49,0,0,1,.34.53v-6.48Zm-3.58,9.77a8.47,8.47,0,0,0,.22,2.36.84.84,0,0,0,.81.67c.36,0,.61-.23.77-.69a10.75,10.75,0,0,0,0-4.61c-.16-.46-.41-.7-.77-.7a.84.84,0,0,0-.8.67A7.36,7.36,0,0,0,170.46,438.64Z" transform="translate(-80.29 -243.92)"/><path class="cls-2" d="M180.21,430.42v1.68a2.58,2.58,0,0,0-1.42-.56,1.43,1.43,0,0,0-1.11.48,1.7,1.7,0,0,0-.43,1.22,2.18,2.18,0,0,0,.3,1.16,5.74,5.74,0,0,0,.52.66c.24.27.55.6.94,1a7.5,7.5,0,0,1,1.43,1.85,4,4,0,0,1,.38,1.85,3.63,3.63,0,0,1-.83,2.45,2.78,2.78,0,0,1-2.15.94,3,3,0,0,1-1.89-.61v-1.71a2.93,2.93,0,0,0,1.68.67,1.33,1.33,0,0,0,1.1-.47,1.86,1.86,0,0,0,.4-1.27,2.49,2.49,0,0,0-.31-1.25,4.28,4.28,0,0,0-.44-.61c-.19-.23-.42-.49-.7-.77-.44-.43-.8-.81-1.09-1.15a5.25,5.25,0,0,1-.64-.87,3.74,3.74,0,0,1-.4-1.84,3.45,3.45,0,0,1,.78-2.38,2.7,2.7,0,0,1,2.12-.89A3.79,3.79,0,0,1,180.21,430.42Z" transform="translate(-80.29 -243.92)"/><path class="cls-2" d="M182.24,432h1.59v2.41h.86v1.26h-.86V443h-1.59v-7.33h-.87v-1.26h.87Z" transform="translate(-80.29 -243.92)"/><path class="cls-2" d="M190.75,434.38V443h-1.58v-1.1a2.92,2.92,0,0,1-.68,1,1.48,1.48,0,0,1-.9.26A1.64,1.64,0,0,1,186,442a8.87,8.87,0,0,1-.5-3.44,8.1,8.1,0,0,1,.5-3.28,1.65,1.65,0,0,1,1.57-1.05,1.79,1.79,0,0,1,1.58,1.11v-1Zm-3.58,4.26a8.47,8.47,0,0,0,.22,2.36.84.84,0,0,0,.81.67c.36,0,.61-.23.77-.69a10.75,10.75,0,0,0,0-4.61c-.16-.46-.41-.7-.77-.7a.84.84,0,0,0-.8.67A7.36,7.36,0,0,0,187.17,438.64Z" transform="translate(-80.29 -243.92)"/><path class="cls-2" d="M192.74,432h1.59v2.41h.86v1.26h-.86V443h-1.59v-7.33h-.87v-1.26h.87Z" transform="translate(-80.29 -243.92)"/><path class="cls-2" d="M199.65,434.55V436a2,2,0,0,0-1.22-.43,1.05,1.05,0,0,0-.4.07,1.16,1.16,0,0,0-.32.2,1,1,0,0,0-.21.31.84.84,0,0,0-.08.38c0,.41.37.9,1.11,1.46a7.64,7.64,0,0,1,.75.65,2.9,2.9,0,0,1,.45.56,2.44,2.44,0,0,1,.33,1.32,2.54,2.54,0,0,1-.68,1.85,2.34,2.34,0,0,1-1.78.69,2.76,2.76,0,0,1-1.39-.4v-1.54a2.22,2.22,0,0,0,1.3.51,1,1,0,0,0,1.09-1.07,1.19,1.19,0,0,0-.2-.68,1.62,1.62,0,0,0-.29-.33c-.14-.13-.3-.27-.49-.42a6.34,6.34,0,0,1-1.36-1.31,2.37,2.37,0,0,1-.35-1.32,2.32,2.32,0,0,1,.64-1.7,2.24,2.24,0,0,1,1.68-.66A2.92,2.92,0,0,1,199.65,434.55Z" transform="translate(-80.29 -243.92)"/><path class="cls-1" d="M202.22,441a1,1,0,0,1,.7.31,1,1,0,0,1,0,1.45,1,1,0,0,1-.72.29,1,1,0,0,1-.4-.08,1.12,1.12,0,0,1-.33-.22.87.87,0,0,1-.22-.32,1.1,1.1,0,0,1-.08-.4,1,1,0,0,1,.3-.73A1,1,0,0,1,202.22,441Z" transform="translate(-80.29 -243.92)"/><path class="cls-6" d="M208.17,434.55V436a2,2,0,0,0-1.22-.43,1,1,0,0,0-.4.07,1,1,0,0,0-.54.51,1,1,0,0,0-.08.38c0,.41.37.9,1.12,1.46a8.74,8.74,0,0,1,.74.65,3.45,3.45,0,0,1,.46.56,2.44,2.44,0,0,1,.32,1.32,2.53,2.53,0,0,1-.67,1.85,2.36,2.36,0,0,1-1.78.69,2.79,2.79,0,0,1-1.4-.4v-1.54a2.24,2.24,0,0,0,1.31.51,1,1,0,0,0,1.08-1.07,1.12,1.12,0,0,0-.2-.68,1.36,1.36,0,0,0-.29-.33,4.55,4.55,0,0,0-.49-.42,6.6,6.6,0,0,1-1.36-1.31,2.45,2.45,0,0,1-.35-1.32,2.36,2.36,0,0,1,.64-1.7,2.27,2.27,0,0,1,1.69-.66A3,3,0,0,1,208.17,434.55Z" transform="translate(-80.29 -243.92)"/><path class="cls-6" d="M210.12,432h1.58v2.41h.87v1.26h-.87V443h-1.58v-7.33h-.87v-1.26h.87Z" transform="translate(-80.29 -243.92)"/><path class="cls-6" d="M212.87,434.38h1.8l1.26,6,1.48-6H219l-3.51,12.11h-1.67l1.32-4.21Z" transform="translate(-80.29 -243.92)"/><path class="cls-6" d="M220.07,428.87h1.59V443h-1.59Z" transform="translate(-80.29 -243.92)"/><path class="cls-6" d="M226.78,440.07h1.48q-.18,3-2.49,3a2.46,2.46,0,0,1-1.19-.26,2.07,2.07,0,0,1-.82-.79,4.23,4.23,0,0,1-.47-1.37,11.16,11.16,0,0,1-.16-2,7,7,0,0,1,.64-3.37,2.11,2.11,0,0,1,2-1.09c1.72,0,2.58,1.51,2.58,4.55v.2h-3.62c0,1.83.36,2.75,1.09,2.75S226.78,441.18,226.78,440.07Zm-.08-2.23a5.93,5.93,0,0,0-.31-1.78.74.74,0,0,0-.7-.47.72.72,0,0,0-.7.47,6,6,0,0,0-.3,1.78Z" transform="translate(-80.29 -243.92)"/><path class="cls-6" d="M230.61,441a1,1,0,0,1,.71,1.76,1,1,0,0,1-.72.29,1.11,1.11,0,0,1-.41-.08,1.21,1.21,0,0,1-.32-.22.87.87,0,0,1-.22-.32.92.92,0,0,1-.08-.4,1,1,0,0,1,.3-.73A1,1,0,0,1,230.61,441Z" transform="translate(-80.29 -243.92)"/><path class="cls-6" d="M238.15,428.87V443h-1.58v-1.1a2.78,2.78,0,0,1-.69,1,1.44,1.44,0,0,1-.9.26,1.63,1.63,0,0,1-1.56-1.09,8.81,8.81,0,0,1-.5-3.43,12.3,12.3,0,0,1,.13-1.95,5.2,5.2,0,0,1,.37-1.36,1.84,1.84,0,0,1,.66-.78,1.69,1.69,0,0,1,.94-.25,1.37,1.37,0,0,1,.86.25,1.33,1.33,0,0,1,.35.33,3.49,3.49,0,0,1,.34.53v-6.48Zm-3.58,9.77a8.47,8.47,0,0,0,.22,2.36.84.84,0,0,0,.81.67c.36,0,.61-.23.77-.69a10.75,10.75,0,0,0,0-4.61c-.16-.46-.41-.7-.77-.7a.84.84,0,0,0-.8.67A7.36,7.36,0,0,0,234.57,438.64Z" transform="translate(-80.29 -243.92)"/><path class="cls-6" d="M240.7,430.73a1.07,1.07,0,0,1,.75,1.83,1.06,1.06,0,0,1-.77.32,1,1,0,0,1-.76-.32,1,1,0,0,1-.31-.77,1,1,0,0,1,.32-.75A1.08,1.08,0,0,1,240.7,430.73Zm-.75,3.65h1.6V443H240Z" transform="translate(-80.29 -243.92)"/><path class="cls-6" d="M246.65,434.55V436a2,2,0,0,0-1.22-.43,1.05,1.05,0,0,0-.4.07,1.16,1.16,0,0,0-.32.2,1,1,0,0,0-.21.31.84.84,0,0,0-.08.38c0,.41.37.9,1.11,1.46a7.64,7.64,0,0,1,.75.65,2.9,2.9,0,0,1,.45.56,2.44,2.44,0,0,1,.33,1.32,2.58,2.58,0,0,1-.67,1.85,2.38,2.38,0,0,1-1.79.69,2.76,2.76,0,0,1-1.39-.4v-1.54a2.22,2.22,0,0,0,1.3.51,1,1,0,0,0,1.09-1.07,1.19,1.19,0,0,0-.2-.68,1.62,1.62,0,0,0-.29-.33c-.14-.13-.3-.27-.49-.42a6.34,6.34,0,0,1-1.36-1.31,2.37,2.37,0,0,1-.35-1.32,2.32,2.32,0,0,1,.64-1.7,2.24,2.24,0,0,1,1.68-.66A2.92,2.92,0,0,1,246.65,434.55Z" transform="translate(-80.29 -243.92)"/><path class="cls-6" d="M248.33,446.49V434.38h1.58v1.11a2.71,2.71,0,0,1,.68-1,1.48,1.48,0,0,1,.92-.27,1.61,1.61,0,0,1,1.55,1.1,8.87,8.87,0,0,1,.5,3.44,7.74,7.74,0,0,1-.51,3.29,1.65,1.65,0,0,1-1.6,1,1.45,1.45,0,0,1-.87-.24,1.71,1.71,0,0,1-.33-.33,3.12,3.12,0,0,1-.34-.52v4.48Zm3.58-7.77a7.73,7.73,0,0,0-.23-2.37.84.84,0,0,0-.8-.68c-.37,0-.63.24-.78.7a11.24,11.24,0,0,0,0,4.62c.16.46.42.68.78.68a.84.84,0,0,0,.8-.66A7.33,7.33,0,0,0,251.91,438.72Z" transform="translate(-80.29 -243.92)"/><path class="cls-6" d="M255,428.87h1.58V443H255Z" transform="translate(-80.29 -243.92)"/><path class="cls-6" d="M263.33,434.38V443h-1.59v-1.1a2.65,2.65,0,0,1-.68,1,1.43,1.43,0,0,1-.89.26A1.63,1.63,0,0,1,258.6,442a8.68,8.68,0,0,1-.5-3.44,7.93,7.93,0,0,1,.5-3.28,1.64,1.64,0,0,1,1.57-1.05,1.78,1.78,0,0,1,1.57,1.11v-1Zm-3.59,4.26A8.37,8.37,0,0,0,260,441a.83.83,0,0,0,.81.67c.35,0,.61-.23.77-.69a11.19,11.19,0,0,0,0-4.61c-.16-.46-.42-.7-.77-.7a.84.84,0,0,0-.81.67A7.69,7.69,0,0,0,259.74,438.64Z" transform="translate(-80.29 -243.92)"/><path class="cls-6" d="M264.4,434.38h1.79l1.26,6,1.48-6h1.61L267,446.49h-1.67l1.32-4.21Z" transform="translate(-80.29 -243.92)"/><path class="cls-1" d="M274.64,436.13v-1.42h6v1.42Zm0,2v-1.41h6v1.41Z" transform="translate(-80.29 -243.92)"/><path class="cls-1" d="M281.68,436.13v-1.42h6v1.42Zm0,2v-1.41h6v1.41Z" transform="translate(-80.29 -243.92)"/><path class="cls-1" d="M288.72,436.13v-1.42h6v1.42Zm0,2v-1.41h6v1.41Z" transform="translate(-80.29 -243.92)"/><path class="cls-4" d="M301.1,435.17h-1.22l-.35-5h1.93Zm2.95,0h-1.22l-.36-5h1.94Z" transform="translate(-80.29 -243.92)"/><path class="cls-4" d="M306.07,428.87h1.58v6.48a3.49,3.49,0,0,1,.34-.53,1.48,1.48,0,0,1,.34-.33,1.38,1.38,0,0,1,.87-.25,1.69,1.69,0,0,1,.94.25,1.84,1.84,0,0,1,.66.78,5.2,5.2,0,0,1,.37,1.36,12.3,12.3,0,0,1,.13,1.95,8.81,8.81,0,0,1-.5,3.43,1.63,1.63,0,0,1-1.56,1.09,1.49,1.49,0,0,1-.91-.26,2.92,2.92,0,0,1-.68-1V443h-1.58Zm3.58,9.85a7.73,7.73,0,0,0-.23-2.37.84.84,0,0,0-.8-.68c-.37,0-.63.23-.78.68a12.4,12.4,0,0,0,0,4.65c.15.45.41.67.78.67a.84.84,0,0,0,.8-.66A7.33,7.33,0,0,0,309.65,438.72Z" transform="translate(-80.29 -243.92)"/><path class="cls-4" d="M312.77,428.87h1.59V443h-1.59Z" transform="translate(-80.29 -243.92)"/><path class="cls-4" d="M321.23,438.75q0,4.35-2.69,4.35t-2.7-4.42c0-3,.89-4.44,2.69-4.44a2.65,2.65,0,0,1,1.2.26,2.05,2.05,0,0,1,.85.83,4.32,4.32,0,0,1,.49,1.4A10.66,10.66,0,0,1,321.23,438.75Zm-1.64-.05a8.74,8.74,0,0,0-.22-2.35.82.82,0,0,0-1.61,0,12.24,12.24,0,0,0,0,4.62.85.85,0,0,0,.81.67.82.82,0,0,0,.79-.66A7.59,7.59,0,0,0,319.59,438.7Z" transform="translate(-80.29 -243.92)"/><path class="cls-4" d="M326.22,434.54v1.62a1,1,0,0,0-.8-.4c-.87,0-1.31.94-1.31,2.83s.44,3,1.31,3a1.37,1.37,0,0,0,.8-.33v1.49a2.74,2.74,0,0,1-1.28.33q-2.55,0-2.55-4.35a7.09,7.09,0,0,1,.63-3.41,2.09,2.09,0,0,1,2-1.1A2.76,2.76,0,0,1,326.22,434.54Z" transform="translate(-80.29 -243.92)"/><path class="cls-4" d="M327.47,428.87h1.58v9.34l2-3.83h1.79l-2.19,3.83,2.48,4.76h-1.86l-2.24-4.57V443h-1.58Z" transform="translate(-80.29 -243.92)"/><path class="cls-4" d="M335.57,435.17h-1.22l-.36-5h1.93Zm2.94,0h-1.22l-.35-5h1.93Z" transform="translate(-80.29 -243.92)"/><path class="cls-1" d="M342.09,446.69l-1.68-.41a25.8,25.8,0,0,0,0-17.17l1.68-.44a27.25,27.25,0,0,1,1.58,9.05A26,26,0,0,1,342.09,446.69Z" transform="translate(-80.29 -243.92)"/><path class="cls-1" d="M350.69,437.71a2.71,2.71,0,0,1,.66.94,3.48,3.48,0,0,1,.18,1.25v3.44l0,.4a1.75,1.75,0,0,0,.17,1,1.13,1.13,0,0,0,.82.22H353v1.55h-.6a2.34,2.34,0,0,1-2-.74,3.77,3.77,0,0,1-.62-2.38V440a2.11,2.11,0,0,0-.18-1,1,1,0,0,0-.65-.43l-.07,0-.07,0-.1,0v-1.6a.47.47,0,0,1,.24-.13c.56-.11.83-.55.83-1.34v-3.66c0-1.92.83-2.88,2.48-2.88h.39a.51.51,0,0,1,.3.08v1.55h-.49c-.43,0-.71.09-.83.26a3.08,3.08,0,0,0-.16,1.29v3.49a5.23,5.23,0,0,1,0,.73,3.08,3.08,0,0,1-.14.58,2.12,2.12,0,0,1-.26.47A2.5,2.5,0,0,1,350.69,437.71Z" transform="translate(-80.29 -243.92)"/><path class="cls-2" d="M120.25,455v1.49A2,2,0,0,0,119,456a1.05,1.05,0,0,0-.4.07,1,1,0,0,0-.32.21.81.81,0,0,0-.21.3,1,1,0,0,0-.08.38c0,.41.37.9,1.11,1.46a7.64,7.64,0,0,1,.75.65,2.9,2.9,0,0,1,.45.56,2.44,2.44,0,0,1,.33,1.32,2.58,2.58,0,0,1-.67,1.85,2.38,2.38,0,0,1-1.79.69,2.76,2.76,0,0,1-1.39-.4v-1.54a2.24,2.24,0,0,0,1.3.52A1,1,0,0,0,119.2,461a1.19,1.19,0,0,0-.2-.68,1.62,1.62,0,0,0-.29-.33c-.14-.13-.3-.27-.49-.42a6.34,6.34,0,0,1-1.36-1.31,2.37,2.37,0,0,1-.35-1.32,2.33,2.33,0,0,1,.64-1.7,2.24,2.24,0,0,1,1.68-.66A2.92,2.92,0,0,1,120.25,455Z" transform="translate(-80.29 -243.92)"/><path class="cls-2" d="M121.93,449.27h1.58v6.5a2,2,0,0,1,1.76-1.13,1.57,1.57,0,0,1,1.5.82,4.43,4.43,0,0,1,.25,1.8v6.11h-1.59v-5.74a2.79,2.79,0,0,0-.2-1.24.77.77,0,0,0-.72-.37,1.08,1.08,0,0,0-.46.1.75.75,0,0,0-.3.31,1.49,1.49,0,0,0-.17.55,5,5,0,0,0-.06.84v5.55h-1.58Z" transform="translate(-80.29 -243.92)"/><path class="cls-2" d="M133.88,459.15q0,4.35-2.7,4.35t-2.69-4.42c0-3,.89-4.44,2.69-4.44a2.65,2.65,0,0,1,1.2.26,2.18,2.18,0,0,1,.85.83,4.32,4.32,0,0,1,.49,1.4A10.66,10.66,0,0,1,133.88,459.15Zm-1.64,0a8.24,8.24,0,0,0-.23-2.35c-.15-.45-.41-.68-.79-.68a.84.84,0,0,0-.81.67,12.24,12.24,0,0,0,0,4.62.85.85,0,0,0,.81.67.82.82,0,0,0,.79-.66A7.54,7.54,0,0,0,132.24,459.1Z" transform="translate(-80.29 -243.92)"/><path class="cls-2" d="M134.47,454.78h1.68l.48,2.76c.09.56.18,1.09.25,1.61s.14,1,.18,1.5l0,.3,0-.32c0-.4.09-.76.14-1.1s.09-.64.15-.92l.13-.66.59-3.17h1.16l.55,3.17.18,1a6.52,6.52,0,0,1,.11.7c0,.28.07.61.1,1l0,.31c.1-1,.25-2,.43-3l.59-3.17h1.56l-2,8.59h-1.09l-.66-3.28c-.08-.4-.14-.8-.2-1.22s-.1-.87-.14-1.34c0,0,0-.12,0-.19s0-.17,0-.28c0,.51-.08,1-.14,1.47s-.14.94-.23,1.41l-.66,3.43h-1.1Z" transform="translate(-80.29 -243.92)"/><path class="cls-2" d="M144,450.55h4.59V452h-2.86v4.06h2.54v1.46h-2.54v4.38h2.86v1.46H144Z" transform="translate(-80.29 -243.92)"/><path class="cls-2" d="M155,449.27v14.1h-1.59v-1.1a2.65,2.65,0,0,1-.68,1,1.46,1.46,0,0,1-.9.26,1.63,1.63,0,0,1-1.56-1.09,8.81,8.81,0,0,1-.5-3.43,13.75,13.75,0,0,1,.12-2,5.17,5.17,0,0,1,.38-1.36,1.89,1.89,0,0,1,.65-.78,1.73,1.73,0,0,1,.95-.25,1.37,1.37,0,0,1,.86.25,1.49,1.49,0,0,1,.34.33,2.86,2.86,0,0,1,.34.53v-6.48ZM151.36,459a8.37,8.37,0,0,0,.23,2.36.84.84,0,0,0,.81.68c.35,0,.61-.24.77-.7a11.19,11.19,0,0,0,0-4.61c-.16-.46-.42-.7-.77-.7s-.64.22-.8.67A7.28,7.28,0,0,0,151.36,459Z" transform="translate(-80.29 -243.92)"/><path class="cls-2" d="M156.75,454.78h1.59v5.74a2.38,2.38,0,0,0,.23,1.14.81.81,0,0,0,.74.34.85.85,0,0,0,.75-.3,2,2,0,0,0,.22-1.09v-5.83h1.58v5.14a7.22,7.22,0,0,1-.26,2.4,2.28,2.28,0,0,1-2.31,1.18,2.44,2.44,0,0,1-2-.69,3.72,3.72,0,0,1-.58-2.35Z" transform="translate(-80.29 -243.92)"/><path class="cls-2" d="M168.56,454.78v8.59H167v-1.1a2.92,2.92,0,0,1-.68,1,1.48,1.48,0,0,1-.9.26,1.64,1.64,0,0,1-1.57-1.09,8.87,8.87,0,0,1-.5-3.44,8.1,8.1,0,0,1,.5-3.28,1.65,1.65,0,0,1,1.57-1.05,1.79,1.79,0,0,1,1.58,1.11v-1ZM165,459a8.47,8.47,0,0,0,.22,2.36.85.85,0,0,0,.81.68c.36,0,.62-.24.78-.7a11.19,11.19,0,0,0,0-4.61c-.16-.46-.42-.7-.78-.7a.84.84,0,0,0-.8.67A7.36,7.36,0,0,0,165,459Z" transform="translate(-80.29 -243.92)"/><path class="cls-2" d="M170.36,454.78H172v1.07a3.07,3.07,0,0,1,.8-1,2,2,0,0,1,1.06-.32v1.66l-.28,0a1.48,1.48,0,0,0-1.22.45,2.38,2.38,0,0,0-.36,1.51v5.2h-1.59Z" transform="translate(-80.29 -243.92)"/><path class="cls-2" d="M179.91,449.27v14.1h-1.59v-1.1a2.65,2.65,0,0,1-.68,1,1.44,1.44,0,0,1-.9.26,1.63,1.63,0,0,1-1.56-1.09,8.81,8.81,0,0,1-.5-3.43,13.75,13.75,0,0,1,.12-2,5.17,5.17,0,0,1,.38-1.36,1.89,1.89,0,0,1,.65-.78,1.75,1.75,0,0,1,.95-.25,1.37,1.37,0,0,1,.86.25,1.49,1.49,0,0,1,.34.33,2.86,2.86,0,0,1,.34.53v-6.48ZM176.32,459a8.37,8.37,0,0,0,.23,2.36.84.84,0,0,0,.81.68c.36,0,.61-.24.77-.7a11.19,11.19,0,0,0,0-4.61c-.16-.46-.41-.7-.77-.7a.84.84,0,0,0-.8.67A7.28,7.28,0,0,0,176.32,459Z" transform="translate(-80.29 -243.92)"/><path class="cls-2" d="M186.08,450.82v1.68a2.58,2.58,0,0,0-1.42-.56,1.4,1.4,0,0,0-1.11.48,1.71,1.71,0,0,0-.44,1.22,2.18,2.18,0,0,0,.31,1.16,5.74,5.74,0,0,0,.52.66c.24.27.55.6.93,1a7.59,7.59,0,0,1,1.44,1.85,4.12,4.12,0,0,1,.38,1.85,3.59,3.59,0,0,1-.84,2.45,2.77,2.77,0,0,1-2.15.94,3,3,0,0,1-1.88-.61v-1.71a2.9,2.9,0,0,0,1.68.67,1.37,1.37,0,0,0,1.1-.46,1.91,1.91,0,0,0,.4-1.28,2.49,2.49,0,0,0-.31-1.25,4.28,4.28,0,0,0-.44-.61c-.19-.23-.42-.49-.7-.77-.44-.43-.8-.81-1.09-1.15a5.25,5.25,0,0,1-.64-.87,3.74,3.74,0,0,1-.4-1.84,3.45,3.45,0,0,1,.78-2.38,2.7,2.7,0,0,1,2.12-.89A3.79,3.79,0,0,1,186.08,450.82Z" transform="translate(-80.29 -243.92)"/><path class="cls-2" d="M188.11,452.37h1.59v2.41h.86V456h-.86v7.33h-1.59V456h-.87v-1.26h.87Z" transform="translate(-80.29 -243.92)"/><path class="cls-2" d="M196.62,454.78v8.59H195v-1.1a2.65,2.65,0,0,1-.68,1,1.43,1.43,0,0,1-.89.26,1.63,1.63,0,0,1-1.57-1.09,8.68,8.68,0,0,1-.5-3.44,7.93,7.93,0,0,1,.5-3.28,1.64,1.64,0,0,1,1.57-1.05,1.78,1.78,0,0,1,1.57,1.11v-1ZM193,459a8.37,8.37,0,0,0,.23,2.36.84.84,0,0,0,.81.68c.35,0,.61-.24.77-.7a11.19,11.19,0,0,0,0-4.61c-.16-.46-.42-.7-.77-.7s-.64.22-.8.67A7.28,7.28,0,0,0,193,459Z" transform="translate(-80.29 -243.92)"/><path class="cls-2" d="M198.61,452.37h1.59v2.41h.86V456h-.86v7.33h-1.59V456h-.87v-1.26h.87Z" transform="translate(-80.29 -243.92)"/><path class="cls-2" d="M205.52,455v1.49a2,2,0,0,0-1.22-.43,1,1,0,0,0-.4.07,1,1,0,0,0-.32.21,1,1,0,0,0-.22.3,1,1,0,0,0-.07.38c0,.41.37.9,1.11,1.46a6.43,6.43,0,0,1,.74.65,3,3,0,0,1,.46.56,2.44,2.44,0,0,1,.32,1.32,2.53,2.53,0,0,1-.67,1.85,2.34,2.34,0,0,1-1.78.69,2.79,2.79,0,0,1-1.4-.4v-1.54a2.26,2.26,0,0,0,1.31.52,1,1,0,0,0,1.08-1.08,1.12,1.12,0,0,0-.2-.68A1.36,1.36,0,0,0,204,460a4.55,4.55,0,0,0-.49-.42,6.6,6.6,0,0,1-1.36-1.31,2.45,2.45,0,0,1-.35-1.32,2.37,2.37,0,0,1,.64-1.7,2.27,2.27,0,0,1,1.69-.66A2.92,2.92,0,0,1,205.52,455Z" transform="translate(-80.29 -243.92)"/><path class="cls-1" d="M208.08,461.44a1,1,0,0,1,.71,1.76,1,1,0,0,1-.72.29,1.11,1.11,0,0,1-.41-.08,1.21,1.21,0,0,1-.32-.22.87.87,0,0,1-.22-.32.92.92,0,0,1-.08-.4,1,1,0,0,1,.3-.73A1,1,0,0,1,208.08,461.44Z" transform="translate(-80.29 -243.92)"/><path class="cls-6" d="M214,455v1.49a2,2,0,0,0-1.22-.43,1,1,0,0,0-.39.07.89.89,0,0,0-.32.21.84.84,0,0,0-.22.3,1,1,0,0,0-.08.38c0,.41.37.9,1.11,1.46a7.64,7.64,0,0,1,.75.65,3.45,3.45,0,0,1,.46.56,2.89,2.89,0,0,1-.35,3.17,2.37,2.37,0,0,1-1.79.69,2.76,2.76,0,0,1-1.39-.4v-1.54a2.24,2.24,0,0,0,1.3.52A1,1,0,0,0,213,461a1.19,1.19,0,0,0-.2-.68,1.62,1.62,0,0,0-.29-.33,5.8,5.8,0,0,0-.49-.42,6.6,6.6,0,0,1-1.36-1.31,2.45,2.45,0,0,1-.35-1.32,2.33,2.33,0,0,1,.64-1.7,2.24,2.24,0,0,1,1.68-.66A2.9,2.9,0,0,1,214,455Z" transform="translate(-80.29 -243.92)"/><path class="cls-6" d="M216,452.37h1.58v2.41h.86V456h-.86v7.33H216V456h-.88v-1.26H216Z" transform="translate(-80.29 -243.92)"/><path class="cls-6" d="M218.74,454.78h1.79l1.27,6,1.47-6h1.61l-3.51,12.11H219.7l1.32-4.21Z" transform="translate(-80.29 -243.92)"/><path class="cls-6" d="M225.94,449.27h1.58v14.1h-1.58Z" transform="translate(-80.29 -243.92)"/><path class="cls-6" d="M232.65,460.47h1.47q-.17,3-2.49,3a2.54,2.54,0,0,1-1.18-.25,2.16,2.16,0,0,1-.82-.8,4.23,4.23,0,0,1-.47-1.37,10.29,10.29,0,0,1-.16-2,6.86,6.86,0,0,1,.64-3.37,2.1,2.1,0,0,1,2-1.09c1.72,0,2.58,1.51,2.58,4.55v.2h-3.63c0,1.83.37,2.75,1.1,2.75S232.65,461.59,232.65,460.47Zm-.09-2.23a6,6,0,0,0-.3-1.78.74.74,0,0,0-.7-.47.72.72,0,0,0-.7.47,5.93,5.93,0,0,0-.31,1.78Z" transform="translate(-80.29 -243.92)"/><path class="cls-6" d="M236.48,461.44a1,1,0,0,1,.71,1.76,1.05,1.05,0,0,1-.73.29,1.1,1.1,0,0,1-.4-.08,1.46,1.46,0,0,1-.33-.22,1.21,1.21,0,0,1-.22-.32,1.1,1.1,0,0,1-.08-.4,1,1,0,0,1,.3-.73A1.05,1.05,0,0,1,236.48,461.44Z" transform="translate(-80.29 -243.92)"/><path class="cls-6" d="M244,449.27v14.1h-1.59v-1.1a2.65,2.65,0,0,1-.68,1,1.46,1.46,0,0,1-.9.26,1.63,1.63,0,0,1-1.56-1.09,8.62,8.62,0,0,1-.5-3.43,13.75,13.75,0,0,1,.12-2,5.17,5.17,0,0,1,.38-1.36,1.89,1.89,0,0,1,.65-.78,1.73,1.73,0,0,1,.95-.25,1.37,1.37,0,0,1,.86.25,1.49,1.49,0,0,1,.34.33,2.86,2.86,0,0,1,.34.53v-6.48ZM240.43,459a8.37,8.37,0,0,0,.23,2.36.84.84,0,0,0,.81.68c.35,0,.61-.24.77-.7a11.19,11.19,0,0,0,0-4.61c-.16-.46-.42-.7-.77-.7s-.64.22-.8.67A7.28,7.28,0,0,0,240.43,459Z" transform="translate(-80.29 -243.92)"/><path class="cls-6" d="M246.57,451.13a1,1,0,0,1,.74.31,1.07,1.07,0,1,1-1.52,1.52,1.09,1.09,0,0,1,0-1.52A1.12,1.12,0,0,1,246.57,451.13Zm-.75,3.65h1.59v8.59h-1.59Z" transform="translate(-80.29 -243.92)"/><path class="cls-6" d="M252.52,455v1.49a2,2,0,0,0-1.22-.43,1,1,0,0,0-.4.07,1,1,0,0,0-.32.21,1,1,0,0,0-.22.3,1,1,0,0,0-.07.38c0,.41.37.9,1.11,1.46a7.64,7.64,0,0,1,.75.65,3.34,3.34,0,0,1,.45.56,2.44,2.44,0,0,1,.32,1.32,2.53,2.53,0,0,1-.67,1.85,2.34,2.34,0,0,1-1.78.69,2.79,2.79,0,0,1-1.4-.4v-1.54a2.26,2.26,0,0,0,1.31.52,1,1,0,0,0,1.08-1.08,1.12,1.12,0,0,0-.2-.68A1.36,1.36,0,0,0,251,460a5.52,5.52,0,0,0-.48-.42,6.71,6.71,0,0,1-1.37-1.31,2.45,2.45,0,0,1-.35-1.32,2.37,2.37,0,0,1,.64-1.7,2.28,2.28,0,0,1,1.69-.66A2.92,2.92,0,0,1,252.52,455Z" transform="translate(-80.29 -243.92)"/><path class="cls-6" d="M254.2,466.89V454.78h1.58v1.11a2.71,2.71,0,0,1,.68-1,1.46,1.46,0,0,1,.92-.27,1.62,1.62,0,0,1,1.55,1.1,8.9,8.9,0,0,1,.49,3.44,7.77,7.77,0,0,1-.5,3.29,1.66,1.66,0,0,1-1.6,1,1.45,1.45,0,0,1-.87-.24,1.5,1.5,0,0,1-.34-.33,3.92,3.92,0,0,1-.33-.52v4.48Zm3.58-7.77a8.07,8.07,0,0,0-.23-2.37.84.84,0,0,0-.81-.68c-.36,0-.62.24-.78.7a11.72,11.72,0,0,0,0,4.62q.24.69.78.69a.85.85,0,0,0,.81-.67A7.66,7.66,0,0,0,257.78,459.12Z" transform="translate(-80.29 -243.92)"/><path class="cls-6" d="M260.9,449.27h1.59v14.1H260.9Z" transform="translate(-80.29 -243.92)"/><path class="cls-6" d="M269.2,454.78v8.59h-1.59v-1.1a2.78,2.78,0,0,1-.68,1,1.48,1.48,0,0,1-.9.26,1.65,1.65,0,0,1-1.57-1.09A8.9,8.9,0,0,1,264,459a8.13,8.13,0,0,1,.49-3.28,1.66,1.66,0,0,1,1.57-1.05,1.78,1.78,0,0,1,1.58,1.11v-1ZM265.61,459a8.47,8.47,0,0,0,.22,2.36.86.86,0,0,0,.82.68c.35,0,.61-.24.77-.7a11.19,11.19,0,0,0,0-4.61c-.16-.46-.42-.7-.77-.7a.84.84,0,0,0-.81.67A7.69,7.69,0,0,0,265.61,459Z" transform="translate(-80.29 -243.92)"/><path class="cls-6" d="M270.27,454.78h1.79l1.26,6,1.48-6h1.61l-3.51,12.11h-1.67l1.32-4.21Z" transform="translate(-80.29 -243.92)"/><path class="cls-1" d="M280.51,456.53v-1.42h6v1.42Zm0,2v-1.41h6v1.41Z" transform="translate(-80.29 -243.92)"/><path class="cls-4" d="M292.89,455.58h-1.22l-.35-5h1.93Zm2.95,0h-1.22l-.36-5h1.94Z" transform="translate(-80.29 -243.92)"/><path class="cls-4" d="M297.86,454.78h1.58v1a2,2,0,0,1,1.76-1.13,1.57,1.57,0,0,1,1.5.82,4.48,4.48,0,0,1,.24,1.8v6.11h-1.58v-5.74a2.62,2.62,0,0,0-.21-1.24.74.74,0,0,0-.71-.37,1,1,0,0,0-.46.1.65.65,0,0,0-.3.31,1.49,1.49,0,0,0-.17.55,5,5,0,0,0-.06.84v5.55h-1.58Z" transform="translate(-80.29 -243.92)"/><path class="cls-4" d="M309.81,459.15q0,4.35-2.7,4.35t-2.7-4.42q0-4.44,2.69-4.44a2.67,2.67,0,0,1,1.21.26,2.09,2.09,0,0,1,.84.83,4.1,4.1,0,0,1,.5,1.4A10.66,10.66,0,0,1,309.81,459.15Zm-1.64,0a8.24,8.24,0,0,0-.23-2.35c-.15-.45-.41-.68-.8-.68a.84.84,0,0,0-.8.67,12.24,12.24,0,0,0,0,4.62.85.85,0,0,0,.8.67.82.82,0,0,0,.79-.66A7.14,7.14,0,0,0,308.17,459.1Z" transform="translate(-80.29 -243.92)"/><path class="cls-4" d="M311.29,454.78h1.58v1a2,2,0,0,1,1.76-1.13,1.57,1.57,0,0,1,1.5.82,4.48,4.48,0,0,1,.24,1.8v6.11h-1.58v-5.74a2.62,2.62,0,0,0-.21-1.24.75.75,0,0,0-.71-.37,1,1,0,0,0-.46.1.65.65,0,0,0-.3.31,1.49,1.49,0,0,0-.17.55,5,5,0,0,0-.06.84v5.55h-1.58Z" transform="translate(-80.29 -243.92)"/><path class="cls-4" d="M321.49,460.47H323c-.12,2-1,3-2.5,3a2.57,2.57,0,0,1-1.18-.25,2.16,2.16,0,0,1-.82-.8,4.23,4.23,0,0,1-.47-1.37,10.29,10.29,0,0,1-.16-2,6.86,6.86,0,0,1,.64-3.37,2.11,2.11,0,0,1,2-1.09c1.72,0,2.58,1.51,2.58,4.55v.2H319.4c0,1.83.36,2.75,1.09,2.75S321.49,461.59,321.49,460.47Zm-.09-2.23a5.7,5.7,0,0,0-.3-1.78.74.74,0,0,0-.7-.47.72.72,0,0,0-.7.47,5.7,5.7,0,0,0-.3,1.78Z" transform="translate(-80.29 -243.92)"/><path class="cls-4" d="M325.89,455.58h-1.22l-.36-5h1.93Zm2.94,0h-1.22l-.35-5h1.93Z" transform="translate(-80.29 -243.92)"/><path class="cls-1" d="M331.33,461.58l1.38.4-1.64,4.51-.88-.24Zm.45-6.93a1,1,0,0,1,.71.31,1,1,0,0,1,.3.71,1,1,0,0,1-1,1,1.05,1.05,0,0,1-.73-.29,1,1,0,0,1-.3-.74A1,1,0,0,1,331,455,1,1,0,0,1,331.78,454.65Z" transform="translate(-80.29 -243.92)"/><path class="cls-1" d="M118.62,478.46a3.32,3.32,0,0,1-.68-.95,4,4,0,0,1-.16-1.24v-3.45l0-.41a1.71,1.71,0,0,0-.18-1,1.09,1.09,0,0,0-.81-.22h-.48v-1.55h.61a2.31,2.31,0,0,1,1.94.74,3.67,3.67,0,0,1,.62,2.38v3.44a2.11,2.11,0,0,0,.18,1,1,1,0,0,0,.65.42l.08,0h.06l.1,0v1.59a.41.41,0,0,1-.24.14c-.55.1-.83.55-.83,1.34v3.64c0,1.92-.82,2.88-2.48,2.88h-.39a.45.45,0,0,1-.3-.09v-1.54h.48c.44,0,.72-.09.83-.27a2.74,2.74,0,0,0,.18-1.28v-3.49a3.54,3.54,0,0,1,.18-1.29A2.12,2.12,0,0,1,118.62,478.46Z" transform="translate(-80.29 -243.92)"/><path class="cls-5" d="M132.42,480.87h1.48q-.18,3-2.49,3a2.39,2.39,0,0,1-1.18-.26,2,2,0,0,1-.82-.79,4,4,0,0,1-.48-1.37,11.33,11.33,0,0,1-.15-2,7,7,0,0,1,.63-3.37,2.11,2.11,0,0,1,2-1.09c1.73,0,2.59,1.51,2.59,4.55v.2h-3.63c0,1.83.36,2.75,1.09,2.75S132.42,482,132.42,480.87Zm-.08-2.23a5.93,5.93,0,0,0-.31-1.78.73.73,0,0,0-.7-.47.71.71,0,0,0-.69.47,5.93,5.93,0,0,0-.31,1.78Z" transform="translate(-80.29 -243.92)"/><path class="cls-5" d="M135.37,469.67H137v14.1h-1.58Z" transform="translate(-80.29 -243.92)"/><path class="cls-5" d="M142.07,475.35v1.49a2,2,0,0,0-1.22-.43,1,1,0,0,0-.39.07,1,1,0,0,0-.32.2,1,1,0,0,0-.22.31,1,1,0,0,0-.08.38c0,.41.37.9,1.11,1.46a7.64,7.64,0,0,1,.75.65,3.45,3.45,0,0,1,.46.56,2.89,2.89,0,0,1-.35,3.17,2.37,2.37,0,0,1-1.79.69,2.76,2.76,0,0,1-1.39-.4V482a2.22,2.22,0,0,0,1.3.51A1,1,0,0,0,141,481.4a1.24,1.24,0,0,0-.2-.69,1.94,1.94,0,0,0-.29-.32A5.8,5.8,0,0,0,140,480a6.6,6.6,0,0,1-1.36-1.31,2.45,2.45,0,0,1-.35-1.32,2.36,2.36,0,0,1,.64-1.71,2.28,2.28,0,0,1,1.68-.65A2.92,2.92,0,0,1,142.07,475.35Z" transform="translate(-80.29 -243.92)"/><path class="cls-5" d="M147.07,480.87h1.48q-.18,3-2.49,3a2.42,2.42,0,0,1-1.18-.26,2,2,0,0,1-.82-.79,4,4,0,0,1-.48-1.37,11.33,11.33,0,0,1-.15-2,7,7,0,0,1,.63-3.37,2.12,2.12,0,0,1,2-1.09c1.72,0,2.58,1.51,2.58,4.55v.2H145c0,1.83.36,2.75,1.1,2.75S147.07,482,147.07,480.87Zm-.08-2.23a5.93,5.93,0,0,0-.31-1.78.73.73,0,0,0-.7-.47.71.71,0,0,0-.69.47,5.93,5.93,0,0,0-.31,1.78Z" transform="translate(-80.29 -243.92)"/><path class="cls-1" d="M155.19,478.51a2.71,2.71,0,0,1,.66.94,3.48,3.48,0,0,1,.18,1.25v3.84a1.73,1.73,0,0,0,.18,1,1.13,1.13,0,0,0,.82.22h.47v1.55h-.6a2.34,2.34,0,0,1-1.95-.74,3.77,3.77,0,0,1-.62-2.38v-3.43a2.11,2.11,0,0,0-.18-1,1,1,0,0,0-.65-.43l-.07,0-.07,0-.1,0v-1.6a.47.47,0,0,1,.24-.13c.56-.11.83-.55.83-1.34v-3.66c0-1.92.83-2.88,2.48-2.88h.39a.51.51,0,0,1,.3.08v1.55H157c-.43,0-.71.09-.83.26a3.08,3.08,0,0,0-.16,1.29v3.49a5.23,5.23,0,0,1-.05.73,3.08,3.08,0,0,1-.14.58,2.12,2.12,0,0,1-.26.47A2.5,2.5,0,0,1,155.19,478.51Z" transform="translate(-80.29 -243.92)"/><path class="cls-2" d="M120.25,495.75v1.49a2,2,0,0,0-1.22-.43,1.05,1.05,0,0,0-.4.07,1,1,0,0,0-.32.21.81.81,0,0,0-.21.3,1,1,0,0,0-.08.38c0,.41.37.9,1.11,1.46a7.64,7.64,0,0,1,.75.65,2.9,2.9,0,0,1,.45.56,2.44,2.44,0,0,1,.33,1.32,2.58,2.58,0,0,1-.67,1.85,2.38,2.38,0,0,1-1.79.69,2.76,2.76,0,0,1-1.39-.4v-1.54a2.24,2.24,0,0,0,1.3.52,1,1,0,0,0,1.09-1.08,1.19,1.19,0,0,0-.2-.68,1.62,1.62,0,0,0-.29-.33c-.14-.13-.3-.27-.49-.42a6.34,6.34,0,0,1-1.36-1.31,2.37,2.37,0,0,1-.35-1.32,2.32,2.32,0,0,1,.64-1.7,2.24,2.24,0,0,1,1.68-.66A2.92,2.92,0,0,1,120.25,495.75Z" transform="translate(-80.29 -243.92)"/><path class="cls-2" d="M121.93,490.07h1.58v6.5a2,2,0,0,1,1.76-1.13,1.57,1.57,0,0,1,1.5.82,4.43,4.43,0,0,1,.25,1.8v6.11h-1.59v-5.74a2.79,2.79,0,0,0-.2-1.24.77.77,0,0,0-.72-.37,1.08,1.08,0,0,0-.46.1.75.75,0,0,0-.3.31,1.49,1.49,0,0,0-.17.55,4.92,4.92,0,0,0-.06.84v5.55h-1.58Z" transform="translate(-80.29 -243.92)"/><path class="cls-2" d="M133.88,500q0,4.35-2.7,4.35t-2.69-4.42c0-3,.89-4.44,2.69-4.44a2.65,2.65,0,0,1,1.2.26,2.18,2.18,0,0,1,.85.83,4.32,4.32,0,0,1,.49,1.4A10.66,10.66,0,0,1,133.88,500Zm-1.64-.05a8.24,8.24,0,0,0-.23-2.35c-.15-.45-.41-.68-.79-.68a.84.84,0,0,0-.81.67,12.24,12.24,0,0,0,0,4.62.85.85,0,0,0,.81.67.82.82,0,0,0,.79-.66A7.59,7.59,0,0,0,132.24,499.9Z" transform="translate(-80.29 -243.92)"/><path class="cls-2" d="M134.47,495.58h1.68l.48,2.76c.09.56.18,1.09.25,1.61s.14,1,.18,1.5l0,.3,0-.32c0-.4.09-.76.14-1.1s.09-.64.15-.92l.13-.66.59-3.17h1.16l.55,3.17.18,1a6.52,6.52,0,0,1,.11.7c0,.28.07.61.1,1l0,.31c.1-1,.25-2,.43-3l.59-3.17h1.56l-2,8.59h-1.09l-.66-3.28c-.08-.4-.14-.8-.2-1.22s-.1-.87-.14-1.34c0-.05,0-.12,0-.2s0-.16,0-.27c0,.51-.08,1-.14,1.47s-.14.94-.23,1.41l-.66,3.43h-1.1Z" transform="translate(-80.29 -243.92)"/><path class="cls-2" d="M144,491.35h4.59v1.46h-2.86v4.06h2.54v1.46h-2.54v4.38h2.86v1.46H144Z" transform="translate(-80.29 -243.92)"/><path class="cls-2" d="M155,490.07v14.1h-1.59v-1.1a2.65,2.65,0,0,1-.68,1,1.46,1.46,0,0,1-.9.26,1.63,1.63,0,0,1-1.56-1.09,8.81,8.81,0,0,1-.5-3.43,13.75,13.75,0,0,1,.12-1.95,5.17,5.17,0,0,1,.38-1.36,1.89,1.89,0,0,1,.65-.78,1.73,1.73,0,0,1,.95-.25,1.37,1.37,0,0,1,.86.25,1.49,1.49,0,0,1,.34.33,2.86,2.86,0,0,1,.34.53v-6.48Zm-3.59,9.77a8.37,8.37,0,0,0,.23,2.36.84.84,0,0,0,.81.68c.35,0,.61-.24.77-.7a11.19,11.19,0,0,0,0-4.61c-.16-.46-.42-.7-.77-.7s-.64.22-.8.67A7.28,7.28,0,0,0,151.36,499.84Z" transform="translate(-80.29 -243.92)"/><path class="cls-2" d="M156.75,495.58h1.59v5.74a2.38,2.38,0,0,0,.23,1.14.81.81,0,0,0,.74.34.85.85,0,0,0,.75-.3,2,2,0,0,0,.22-1.09v-5.83h1.58v5.14a7.22,7.22,0,0,1-.26,2.4,2.28,2.28,0,0,1-2.31,1.18,2.44,2.44,0,0,1-2-.69,3.74,3.74,0,0,1-.58-2.35Z" transform="translate(-80.29 -243.92)"/><path class="cls-2" d="M168.56,495.58v8.59H167v-1.1a2.92,2.92,0,0,1-.68,1,1.48,1.48,0,0,1-.9.26,1.64,1.64,0,0,1-1.57-1.09,8.87,8.87,0,0,1-.5-3.44,8.1,8.1,0,0,1,.5-3.28,1.65,1.65,0,0,1,1.57-1.05,1.79,1.79,0,0,1,1.58,1.11v-1ZM165,499.84a8.47,8.47,0,0,0,.22,2.36.85.85,0,0,0,.81.68c.36,0,.62-.24.78-.7a11.19,11.19,0,0,0,0-4.61c-.16-.46-.42-.7-.78-.7a.84.84,0,0,0-.8.67A7.36,7.36,0,0,0,165,499.84Z" transform="translate(-80.29 -243.92)"/><path class="cls-2" d="M170.36,495.58H172v1.07a3.07,3.07,0,0,1,.8-.95,2,2,0,0,1,1.06-.32V497l-.28,0a1.48,1.48,0,0,0-1.22.45A2.37,2.37,0,0,0,172,499v5.21h-1.59Z" transform="translate(-80.29 -243.92)"/><path class="cls-2" d="M179.91,490.07v14.1h-1.59v-1.1a2.65,2.65,0,0,1-.68,1,1.44,1.44,0,0,1-.9.26,1.63,1.63,0,0,1-1.56-1.09,8.81,8.81,0,0,1-.5-3.43,13.75,13.75,0,0,1,.12-1.95,5.17,5.17,0,0,1,.38-1.36,1.89,1.89,0,0,1,.65-.78,1.75,1.75,0,0,1,.95-.25,1.37,1.37,0,0,1,.86.25,1.49,1.49,0,0,1,.34.33,2.86,2.86,0,0,1,.34.53v-6.48Zm-3.59,9.77a8.37,8.37,0,0,0,.23,2.36.84.84,0,0,0,.81.68c.36,0,.61-.24.77-.7a11.19,11.19,0,0,0,0-4.61c-.16-.46-.41-.7-.77-.7a.84.84,0,0,0-.8.67A7.28,7.28,0,0,0,176.32,499.84Z" transform="translate(-80.29 -243.92)"/><path class="cls-2" d="M186.08,491.62v1.68a2.58,2.58,0,0,0-1.42-.56,1.4,1.4,0,0,0-1.11.48,1.71,1.71,0,0,0-.44,1.22,2.18,2.18,0,0,0,.31,1.16,5.74,5.74,0,0,0,.52.66c.24.27.55.6.93,1a7.59,7.59,0,0,1,1.44,1.85,4.12,4.12,0,0,1,.38,1.85,3.59,3.59,0,0,1-.84,2.45,2.77,2.77,0,0,1-2.15.94,3,3,0,0,1-1.88-.61V502a2.9,2.9,0,0,0,1.68.67,1.35,1.35,0,0,0,1.1-.47,1.86,1.86,0,0,0,.4-1.27,2.49,2.49,0,0,0-.31-1.25,4.28,4.28,0,0,0-.44-.61c-.19-.23-.42-.49-.7-.77-.44-.43-.8-.81-1.09-1.15a5.25,5.25,0,0,1-.64-.87,3.74,3.74,0,0,1-.4-1.84,3.45,3.45,0,0,1,.78-2.38,2.7,2.7,0,0,1,2.12-.89A3.79,3.79,0,0,1,186.08,491.62Z" transform="translate(-80.29 -243.92)"/><path class="cls-2" d="M188.11,493.17h1.59v2.41h.86v1.26h-.86v7.33h-1.59v-7.33h-.87v-1.26h.87Z" transform="translate(-80.29 -243.92)"/><path class="cls-2" d="M196.62,495.58v8.59H195v-1.1a2.65,2.65,0,0,1-.68,1,1.43,1.43,0,0,1-.89.26,1.63,1.63,0,0,1-1.57-1.09,8.68,8.68,0,0,1-.5-3.44,7.93,7.93,0,0,1,.5-3.28,1.64,1.64,0,0,1,1.57-1.05,1.78,1.78,0,0,1,1.57,1.11v-1ZM193,499.84a8.37,8.37,0,0,0,.23,2.36.84.84,0,0,0,.81.68c.35,0,.61-.24.77-.7a11.19,11.19,0,0,0,0-4.61c-.16-.46-.42-.7-.77-.7s-.64.22-.8.67A7.28,7.28,0,0,0,193,499.84Z" transform="translate(-80.29 -243.92)"/><path class="cls-2" d="M198.61,493.17h1.59v2.41h.86v1.26h-.86v7.33h-1.59v-7.33h-.87v-1.26h.87Z" transform="translate(-80.29 -243.92)"/><path class="cls-2" d="M205.52,495.75v1.49a2,2,0,0,0-1.22-.43,1,1,0,0,0-.4.07,1,1,0,0,0-.32.21,1,1,0,0,0-.22.3,1,1,0,0,0-.07.38c0,.41.37.9,1.11,1.46a6.43,6.43,0,0,1,.74.65,3,3,0,0,1,.46.56,2.44,2.44,0,0,1,.32,1.32,2.53,2.53,0,0,1-.67,1.85,2.34,2.34,0,0,1-1.78.69,2.79,2.79,0,0,1-1.4-.4v-1.54a2.26,2.26,0,0,0,1.31.52,1,1,0,0,0,1.08-1.08,1.12,1.12,0,0,0-.2-.68,1.36,1.36,0,0,0-.29-.33,4.55,4.55,0,0,0-.49-.42,6.6,6.6,0,0,1-1.36-1.31,2.45,2.45,0,0,1-.35-1.32,2.36,2.36,0,0,1,.64-1.7,2.27,2.27,0,0,1,1.69-.66A2.92,2.92,0,0,1,205.52,495.75Z" transform="translate(-80.29 -243.92)"/><path class="cls-1" d="M208.08,502.24a1,1,0,0,1,.71,1.76,1,1,0,0,1-.72.29,1.11,1.11,0,0,1-.41-.08,1.21,1.21,0,0,1-.32-.22.87.87,0,0,1-.22-.32.92.92,0,0,1-.08-.4,1,1,0,0,1,.3-.73A1,1,0,0,1,208.08,502.24Z" transform="translate(-80.29 -243.92)"/><path class="cls-6" d="M214,495.75v1.49a2,2,0,0,0-1.22-.43,1,1,0,0,0-.39.07.89.89,0,0,0-.32.21.84.84,0,0,0-.22.3,1,1,0,0,0-.08.38c0,.41.37.9,1.11,1.46a7.64,7.64,0,0,1,.75.65,3.45,3.45,0,0,1,.46.56,2.89,2.89,0,0,1-.35,3.17,2.37,2.37,0,0,1-1.79.69,2.76,2.76,0,0,1-1.39-.4v-1.54a2.24,2.24,0,0,0,1.3.52A1,1,0,0,0,213,501.8a1.19,1.19,0,0,0-.2-.68,1.62,1.62,0,0,0-.29-.33,5.8,5.8,0,0,0-.49-.42,6.6,6.6,0,0,1-1.36-1.31,2.45,2.45,0,0,1-.35-1.32,2.32,2.32,0,0,1,.64-1.7,2.24,2.24,0,0,1,1.68-.66A2.9,2.9,0,0,1,214,495.75Z" transform="translate(-80.29 -243.92)"/><path class="cls-6" d="M216,493.17h1.58v2.41h.86v1.26h-.86v7.33H216v-7.33h-.88v-1.26H216Z" transform="translate(-80.29 -243.92)"/><path class="cls-6" d="M218.74,495.58h1.79l1.27,6,1.47-6h1.61l-3.51,12.11H219.7l1.32-4.21Z" transform="translate(-80.29 -243.92)"/><path class="cls-6" d="M225.94,490.07h1.58v14.1h-1.58Z" transform="translate(-80.29 -243.92)"/><path class="cls-6" d="M232.65,501.27h1.47q-.17,3-2.49,3a2.42,2.42,0,0,1-1.18-.26,2.07,2.07,0,0,1-.82-.79,4.23,4.23,0,0,1-.47-1.37,10.29,10.29,0,0,1-.16-2,6.86,6.86,0,0,1,.64-3.37,2.1,2.1,0,0,1,2-1.09c1.72,0,2.58,1.51,2.58,4.55v.2h-3.63c0,1.83.37,2.75,1.1,2.75S232.65,502.38,232.65,501.27Zm-.09-2.23a6,6,0,0,0-.3-1.78.74.74,0,0,0-.7-.47.72.72,0,0,0-.7.47,5.93,5.93,0,0,0-.31,1.78Z" transform="translate(-80.29 -243.92)"/><path class="cls-6" d="M236.48,502.24a1,1,0,0,1,.71,1.76,1.05,1.05,0,0,1-.73.29,1.1,1.1,0,0,1-.4-.08,1.46,1.46,0,0,1-.33-.22,1.21,1.21,0,0,1-.22-.32,1.1,1.1,0,0,1-.08-.4,1,1,0,0,1,.3-.73A1.05,1.05,0,0,1,236.48,502.24Z" transform="translate(-80.29 -243.92)"/><path class="cls-6" d="M244,490.07v14.1h-1.59v-1.1a2.65,2.65,0,0,1-.68,1,1.46,1.46,0,0,1-.9.26,1.63,1.63,0,0,1-1.56-1.09,8.62,8.62,0,0,1-.5-3.43,13.75,13.75,0,0,1,.12-1.95,5.17,5.17,0,0,1,.38-1.36,1.89,1.89,0,0,1,.65-.78,1.73,1.73,0,0,1,.95-.25,1.37,1.37,0,0,1,.86.25,1.49,1.49,0,0,1,.34.33,2.86,2.86,0,0,1,.34.53v-6.48Zm-3.59,9.77a8.37,8.37,0,0,0,.23,2.36.84.84,0,0,0,.81.68c.35,0,.61-.24.77-.7a11.19,11.19,0,0,0,0-4.61c-.16-.46-.42-.7-.77-.7s-.64.22-.8.67A7.28,7.28,0,0,0,240.43,499.84Z" transform="translate(-80.29 -243.92)"/><path class="cls-6" d="M246.57,491.93a1,1,0,0,1,.74.31,1.07,1.07,0,1,1-1.52,1.52,1.09,1.09,0,0,1,0-1.52A1.12,1.12,0,0,1,246.57,491.93Zm-.75,3.65h1.59v8.59h-1.59Z" transform="translate(-80.29 -243.92)"/><path class="cls-6" d="M252.52,495.75v1.49a2,2,0,0,0-1.22-.43,1,1,0,0,0-.4.07,1,1,0,0,0-.32.21,1,1,0,0,0-.22.3,1,1,0,0,0-.07.38c0,.41.37.9,1.11,1.46a7.64,7.64,0,0,1,.75.65,3.34,3.34,0,0,1,.45.56,2.44,2.44,0,0,1,.32,1.32,2.53,2.53,0,0,1-.67,1.85,2.34,2.34,0,0,1-1.78.69,2.79,2.79,0,0,1-1.4-.4v-1.54a2.26,2.26,0,0,0,1.31.52,1,1,0,0,0,1.08-1.08,1.12,1.12,0,0,0-.2-.68,1.36,1.36,0,0,0-.29-.33,5.52,5.52,0,0,0-.48-.42,6.71,6.71,0,0,1-1.37-1.31,2.45,2.45,0,0,1-.35-1.32,2.36,2.36,0,0,1,.64-1.7,2.28,2.28,0,0,1,1.69-.66A2.92,2.92,0,0,1,252.52,495.75Z" transform="translate(-80.29 -243.92)"/><path class="cls-6" d="M254.2,507.69V495.58h1.58v1.11a2.71,2.71,0,0,1,.68-1,1.46,1.46,0,0,1,.92-.27,1.62,1.62,0,0,1,1.55,1.1,8.9,8.9,0,0,1,.49,3.44,7.77,7.77,0,0,1-.5,3.29,1.66,1.66,0,0,1-1.6,1,1.45,1.45,0,0,1-.87-.24,1.5,1.5,0,0,1-.34-.33,3.92,3.92,0,0,1-.33-.52v4.48Zm3.58-7.77a8.07,8.07,0,0,0-.23-2.37.84.84,0,0,0-.81-.68c-.36,0-.62.24-.78.7a11.72,11.72,0,0,0,0,4.62q.24.69.78.69a.85.85,0,0,0,.81-.67A7.66,7.66,0,0,0,257.78,499.92Z" transform="translate(-80.29 -243.92)"/><path class="cls-6" d="M260.9,490.07h1.59v14.1H260.9Z" transform="translate(-80.29 -243.92)"/><path class="cls-6" d="M269.2,495.58v8.59h-1.59v-1.1a2.78,2.78,0,0,1-.68,1,1.48,1.48,0,0,1-.9.26,1.65,1.65,0,0,1-1.57-1.09,8.9,8.9,0,0,1-.49-3.44,8.13,8.13,0,0,1,.49-3.28,1.66,1.66,0,0,1,1.57-1.05,1.78,1.78,0,0,1,1.58,1.11v-1Zm-3.59,4.26a8.47,8.47,0,0,0,.22,2.36.86.86,0,0,0,.82.68c.35,0,.61-.24.77-.7a11.19,11.19,0,0,0,0-4.61c-.16-.46-.42-.7-.77-.7a.84.84,0,0,0-.81.67A7.69,7.69,0,0,0,265.61,499.84Z" transform="translate(-80.29 -243.92)"/><path class="cls-6" d="M270.27,495.58h1.79l1.26,6,1.48-6h1.61l-3.51,12.11h-1.67l1.32-4.21Z" transform="translate(-80.29 -243.92)"/><path class="cls-1" d="M280.51,497.33v-1.42h6v1.42Zm0,2v-1.41h6v1.41Z" transform="translate(-80.29 -243.92)"/><path class="cls-4" d="M292.89,496.38h-1.22l-.35-5h1.93Zm2.95,0h-1.22l-.36-5h1.94Z" transform="translate(-80.29 -243.92)"/><path class="cls-4" d="M297.86,490.07h1.58v6.48a3.49,3.49,0,0,1,.34-.53,1.72,1.72,0,0,1,.34-.33,1.38,1.38,0,0,1,.87-.25,1.69,1.69,0,0,1,.94.25,1.75,1.75,0,0,1,.65.78,4.81,4.81,0,0,1,.38,1.36,13.61,13.61,0,0,1,.13,1.95,8.81,8.81,0,0,1-.5,3.43A1.63,1.63,0,0,1,301,504.3a1.49,1.49,0,0,1-.91-.26,2.92,2.92,0,0,1-.68-1v1.1h-1.58Zm3.58,9.85a7.73,7.73,0,0,0-.23-2.37.84.84,0,0,0-.8-.68c-.37,0-.63.23-.78.68a12.4,12.4,0,0,0,0,4.65c.15.45.41.68.78.68a.85.85,0,0,0,.8-.67A7.33,7.33,0,0,0,301.44,499.92Z" transform="translate(-80.29 -243.92)"/><path class="cls-4" d="M304.56,490.07h1.59v14.1h-1.59Z" transform="translate(-80.29 -243.92)"/><path class="cls-4" d="M313,500q0,4.35-2.7,4.35t-2.69-4.42c0-3,.89-4.44,2.69-4.44a2.65,2.65,0,0,1,1.2.26,2.18,2.18,0,0,1,.85.83,4.32,4.32,0,0,1,.49,1.4A10.66,10.66,0,0,1,313,500Zm-1.64-.05a8.24,8.24,0,0,0-.23-2.35.82.82,0,0,0-.79-.68.84.84,0,0,0-.81.67,12.24,12.24,0,0,0,0,4.62.85.85,0,0,0,.81.67.82.82,0,0,0,.79-.66A7.59,7.59,0,0,0,311.38,499.9Z" transform="translate(-80.29 -243.92)"/><path class="cls-4" d="M318,495.74v1.62a1,1,0,0,0-.8-.4c-.87,0-1.31.94-1.31,2.83s.44,3,1.31,3a1.37,1.37,0,0,0,.8-.33V504a2.74,2.74,0,0,1-1.28.33c-1.7,0-2.56-1.45-2.56-4.35a7.08,7.08,0,0,1,.64-3.41,2.08,2.08,0,0,1,1.95-1.1A2.77,2.77,0,0,1,318,495.74Z" transform="translate(-80.29 -243.92)"/><path class="cls-4" d="M319.26,490.07h1.58v9.34l2-3.83h1.79l-2.19,3.83,2.48,4.76h-1.86l-2.24-4.57v4.57h-1.58Z" transform="translate(-80.29 -243.92)"/><path class="cls-4" d="M327.36,496.38h-1.22l-.36-5h1.93Zm2.94,0h-1.22l-.35-5h1.93Z" transform="translate(-80.29 -243.92)"/><path class="cls-1" d="M118.62,519.26a3.32,3.32,0,0,1-.68-1,4,4,0,0,1-.16-1.24v-3.45l0-.41a1.71,1.71,0,0,0-.18-1,1.09,1.09,0,0,0-.81-.22h-.48v-1.55h.61a2.31,2.31,0,0,1,1.94.74,3.67,3.67,0,0,1,.62,2.38V517a2.11,2.11,0,0,0,.18,1,1,1,0,0,0,.65.42l.08,0h.06l.1,0v1.59a.41.41,0,0,1-.24.14c-.55.1-.83.55-.83,1.34v3.64c0,1.92-.82,2.88-2.48,2.88h-.39a.45.45,0,0,1-.3-.09v-1.54h.48c.44,0,.72-.09.83-.27a2.74,2.74,0,0,0,.18-1.28v-3.49a3.54,3.54,0,0,1,.18-1.29A2.12,2.12,0,0,1,118.62,519.26Z" transform="translate(-80.29 -243.92)"/><path class="cls-1" d="M82.62,539.67a3.49,3.49,0,0,1-.68-1,4,4,0,0,1-.16-1.24V534l0-.41a1.71,1.71,0,0,0-.18-1,1.09,1.09,0,0,0-.81-.22h-.48v-1.55h.61a2.31,2.31,0,0,1,1.94.74,3.67,3.67,0,0,1,.62,2.38v3.44a2.11,2.11,0,0,0,.18,1,1,1,0,0,0,.65.42l.08,0h.06l.1,0v1.59a.41.41,0,0,1-.24.14c-.55.1-.83.55-.83,1.34v3.64c0,1.92-.82,2.88-2.48,2.88h-.39a.45.45,0,0,1-.3-.09v-1.54h.48c.44,0,.72-.09.83-.27a2.74,2.74,0,0,0,.18-1.28v-3.49a3.54,3.54,0,0,1,.18-1.29A2,2,0,0,1,82.62,539.67Z" transform="translate(-80.29 -243.92)"/><path class="cls-1" d="M87.62,548.69l-1.68-.41a25.8,25.8,0,0,0,0-17.17l1.68-.44a27.25,27.25,0,0,1,1.58,9.05A26,26,0,0,1,87.62,548.69Z" transform="translate(-80.29 -243.92)"/><path class="cls-1" d="M91.53,543.18l1.38.4-1.64,4.51-.88-.24Zm.45-6.93a1,1,0,0,1,.71,1.75,1,1,0,0,1-.73.3,1,1,0,0,1-.73-.3,1,1,0,0,1-.3-.73,1,1,0,0,1,.31-.72A1,1,0,0,1,92,536.25Z" transform="translate(-80.29 -243.92)"/><path class="cls-1" d="M391.83,244.25v3.16h-2.45v12.65h-4.11V247.41h-2.43v-3.16Z" transform="translate(-80.29 -243.92)"/><path class="cls-1" d="M402.11,244.25v10.56a18,18,0,0,1-.12,2.53,3.49,3.49,0,0,1-.69,1.49,3.6,3.6,0,0,1-1.52,1.16,5.61,5.61,0,0,1-2.22.4,6.26,6.26,0,0,1-2.5-.47,3.66,3.66,0,0,1-1.62-1.22,3.41,3.41,0,0,1-.64-1.59c-.06-.55-.1-1.72-.1-3.51v-9.35h4.12V256.1a4.61,4.61,0,0,0,.11,1.33.43.43,0,0,0,.45.28.46.46,0,0,0,.5-.31,5.53,5.53,0,0,0,.12-1.5V244.25Z" transform="translate(-80.29 -243.92)"/><path class="cls-1" d="M403.7,244.25h6.86v3.16h-2.75v3h2.57v3h-2.57v3.47h3v3.17H403.7Z" transform="translate(-80.29 -243.92)"/><path class="cls-1" d="M420.72,249H416.9v-1.17a2.41,2.41,0,0,0-.14-1,.54.54,0,0,0-.49-.23.61.61,0,0,0-.56.3,1.75,1.75,0,0,0-.19.92,2.61,2.61,0,0,0,.21,1.19,3.11,3.11,0,0,0,1.16,1,11.66,11.66,0,0,1,3.46,2.68,8.26,8.26,0,0,1,.32,5.86,3.16,3.16,0,0,1-1.53,1.34,6.07,6.07,0,0,1-2.64.54,5.92,5.92,0,0,1-2.81-.62,3.06,3.06,0,0,1-1.53-1.6,8.16,8.16,0,0,1-.36-2.74v-1h3.81v1.93a2.46,2.46,0,0,0,.17,1.14.6.6,0,0,0,.57.25.67.67,0,0,0,.61-.32,1.84,1.84,0,0,0,.2-.95,3,3,0,0,0-.38-1.83,11.57,11.57,0,0,0-1.93-1.44,18.89,18.89,0,0,1-2-1.47,3.41,3.41,0,0,1-.82-1.27,5.54,5.54,0,0,1-.33-2.07,5.76,5.76,0,0,1,.46-2.66,3.14,3.14,0,0,1,1.5-1.31,5.94,5.94,0,0,1,2.5-.47,6.59,6.59,0,0,1,2.73.51,2.91,2.91,0,0,1,1.5,1.31,7,7,0,0,1,.36,2.67Z" transform="translate(-80.29 -243.92)"/><path class="cls-1" d="M422.35,244.25h3.08a19.43,19.43,0,0,1,4,.27,3,3,0,0,1,1.59.9,2.81,2.81,0,0,1,.69,1.39,21.57,21.57,0,0,1,.13,3v5.54a12.5,12.5,0,0,1-.2,2.85,2.11,2.11,0,0,1-.69,1.12,3,3,0,0,1-1.23.57,11.82,11.82,0,0,1-2.21.16h-5.19Zm4.11,2.7v10.4c.6,0,1-.12,1.1-.35a5.46,5.46,0,0,0,.2-1.94v-6.14a7.7,7.7,0,0,0-.07-1.38.67.67,0,0,0-.31-.45A2.1,2.1,0,0,0,426.46,247Z" transform="translate(-80.29 -243.92)"/><path class="cls-1" d="M440.51,244.25l2.36,15.81h-4.21l-.22-2.84H437l-.24,2.84h-4.26l2.1-15.81Zm-2.18,10.16q-.3-2.68-.62-6.64-.63,4.54-.79,6.64Z" transform="translate(-80.29 -243.92)"/><path class="cls-1" d="M451.12,244.25l-3,10.09v5.72h-3.8v-5.72l-2.9-10.09h3.78q.89,4.62,1,6.23.35-2.53,1.14-6.23Z" transform="translate(-80.29 -243.92)"/><path class="cls-1" d="M371.93,269h2l1,7,.17,1c.08.56.13,1.07.17,1.53l.11,1.28a1.55,1.55,0,0,1,0,.18c0,.08,0,.19,0,.32l.05-.49c.08-.85.16-1.64.25-2.35s.18-1.38.28-2l1.09-6.52h1.56l1,6.34c.15.94.27,1.8.37,2.61s.19,1.56.25,2.29c.07-.77.14-1.51.22-2.23s.17-1.42.26-2.11l.15-1,.87-5.9h1.94l-2.67,15.08h-1.58l-1.06-6.52a1.81,1.81,0,0,1-.05-.32q0-.29-.12-.81l-.2-1.5c0-.12,0-.3-.07-.53s-.06-.53-.09-.89l-.05-.62c0,.15,0,.28,0,.39s0,.2,0,.27c0,.43-.06.76-.08,1s0,.38,0,.44l-.21,1.44c-.05.33-.08.59-.11.78a1.5,1.5,0,0,1-.06.35l-1.1,6.52h-1.63Z" transform="translate(-80.29 -243.92)"/><path class="cls-1" d="M384.92,269h2v15.08h-2Z" transform="translate(-80.29 -243.92)"/><path class="cls-1" d="M389.28,269H392a3.39,3.39,0,0,1,2.47.79,4.24,4.24,0,0,1,1,3.14,5.4,5.4,0,0,1-.54,2.6,2.33,2.33,0,0,1-1.55,1.21l2.77,7.34h-2.06l-2.76-7.38v7.38h-2Zm2,6.68a2.14,2.14,0,0,0,1.67-.55,2.78,2.78,0,0,0,.49-1.84,5.84,5.84,0,0,0-.11-1.2,2,2,0,0,0-.32-.81,1.22,1.22,0,0,0-.57-.46,2,2,0,0,0-.82-.15h-.34Z" transform="translate(-80.29 -243.92)"/><path class="cls-1" d="M397.7,269h5.4v1.72h-3.36v4.77h3v1.72h-3v5.15h3.36v1.72h-5.4Z" transform="translate(-80.29 -243.92)"/><path class="cls-1" d="M405,269h5.43v1.72H407v4.76h3.07v1.72H407v6.88h-2Z" transform="translate(-80.29 -243.92)"/><path class="cls-1" d="M412,269h2.68a3.41,3.41,0,0,1,2.47.79,4.28,4.28,0,0,1,1,3.14,5.4,5.4,0,0,1-.54,2.6,2.31,2.31,0,0,1-1.55,1.21l2.78,7.34h-2.06L414,276.68v7.38h-2Zm2,6.68a2.12,2.12,0,0,0,1.67-.55,2.72,2.72,0,0,0,.49-1.84,5.91,5.91,0,0,0-.1-1.2,2.17,2.17,0,0,0-.32-.81,1.27,1.27,0,0,0-.57-.46,2.09,2.09,0,0,0-.83-.15H414Z" transform="translate(-80.29 -243.92)"/><path class="cls-1" d="M422.54,269h1.58l3.23,15.08h-2l-.57-2.94h-3l-.58,2.94h-1.95Zm1.94,10.57-.45-2.41c-.3-1.63-.54-3.37-.73-5.23-.09.9-.21,1.82-.35,2.75s-.31,1.91-.51,2.95l-.37,1.94Z" transform="translate(-80.29 -243.92)"/><path class="cls-1" d="M429.26,269H431l1.32,6.15c.17.77.31,1.54.45,2.31s.25,1.58.36,2.43a1.58,1.58,0,0,0,0-.26c0-.06,0-.11,0-.13l.29-1.73.25-1.64.22-1.08,1.19-6h1.75l1.39,15.08h-1.94l-.34-5.12c0-.26,0-.48,0-.67s0-.35,0-.47l-.09-2-.05-1.86a.32.32,0,0,0,0-.08,1.16,1.16,0,0,0,0-.17l0,.3c-.05.36-.1.67-.14.94s-.08.49-.11.67l-.26,1.38-.09.52-1.27,6.58h-1.37l-1.19-5.69c-.17-.74-.31-1.5-.44-2.28s-.24-1.58-.34-2.42l-.59,10.39H428Z" transform="translate(-80.29 -243.92)"/><path class="cls-1" d="M440,269h2v15.08h-2Z" transform="translate(-80.29 -243.92)"/><path class="cls-1" d="M444.31,269h1.89l2,6a50.79,50.79,0,0,1,1.55,5.44c-.16-1.17-.28-2.23-.36-3.17s-.11-1.83-.11-2.66V269h2v15.08h-1.91l-2.27-6.79c-.21-.63-.41-1.28-.59-1.94s-.36-1.36-.52-2.09a3,3,0,0,0-.06-.33c0-.13-.06-.28-.1-.45,0,.17,0,.31.05.43s0,.22,0,.31l.1,1.53.11,1.87c0,.1,0,.23,0,.38v.51l.11,6.57h-2Z" transform="translate(-80.29 -243.92)"/><path class="cls-1" d="M457.27,276.13H461v.58q0,4.41-.78,6a2.84,2.84,0,0,1-2.85,1.58,3.18,3.18,0,0,1-3.07-1.75,13.82,13.82,0,0,1-.91-5.91c0-3.17.33-5.27,1-6.32a3.2,3.2,0,0,1,2.89-1.48,3.42,3.42,0,0,1,2.31.72,4.75,4.75,0,0,1,1.31,2.37l-1.9.79a5.59,5.59,0,0,0-.28-1,2.28,2.28,0,0,0-.34-.63,1.34,1.34,0,0,0-1.11-.46c-.68,0-1.14.42-1.39,1.25a19.77,19.77,0,0,0-.37,4.7,18.1,18.1,0,0,0,.38,4.64,1.46,1.46,0,0,0,1.43,1.21,1.38,1.38,0,0,0,1.36-.86,7.87,7.87,0,0,0,.4-2.95v-.71h-1.77Z" transform="translate(-80.29 -243.92)"/><path class="cls-1" d="M233.73,396.54c29.71-3.57,60.24-2.52,89-11.66,14-4.43,27.27-10.79,40.3-17.46a103.9,103.9,0,0,0,17.76-10.92,66.22,66.22,0,0,0,13.83-15.92A172.69,172.69,0,0,0,406.23,320a89,89,0,0,0,7.54-22.65,2.57,2.57,0,0,0-1.74-3.08A2.52,2.52,0,0,0,409,296c-2.39,13.7-8.91,26.19-16,38a76.68,76.68,0,0,1-12,15.82c-4.93,4.75-10.85,8.29-16.86,11.48-12.46,6.62-25.3,12.85-38.65,17.47-13.78,4.77-28.1,7.25-42.58,8.68-16.35,1.62-32.8,2.16-49.12,4.12a2.57,2.57,0,0,0-2.5,2.5,2.52,2.52,0,0,0,2.5,2.5Z" transform="translate(-80.29 -243.92)"/><path class="cls-1" d="M402.94,301l4.33-2.26,2.05-1.08,1.08-.56.6-.32.24-.12c.32-.16.15-.11-.49.13l-1.26-.34c-.12-.06-.61-.87-.44-.41a4.83,4.83,0,0,0,.32.59l.51.95,1.14,2.13,2.22,4.15a2.5,2.5,0,0,0,4.32-2.52L415,296.63l-1.27-2.37c-.6-1.13-1.27-2.21-2.67-2.4a5.47,5.47,0,0,0-3.32,1l-2.41,1.26-4.93,2.59a2.52,2.52,0,0,0-.9,3.42,2.56,2.56,0,0,0,3.42.89Z" transform="translate(-80.29 -243.92)"/></svg>