<svg id="Ebene_1" data-name="Ebene 1" xmlns="http://www.w3.org/2000/svg" viewBox="0 0 193.17 218.58"><defs><style>.cls-1{fill:#010101;}.cls-2{fill:#040405;}.cls-3{fill:#9a2978;}.cls-4{fill:#050606;}.cls-5{fill:#060607;}.cls-6{fill:#080909;}.cls-7{fill:#060707;}.cls-8{fill:#244c8a;}.cls-9{fill:#254c8a;}.cls-10{fill:#08090a;}.cls-11{fill:#254c8b;}.cls-12{fill:#0b0c0c;}.cls-13{fill:#0a0a0b;}.cls-14{fill:#2b508e;}.cls-15{fill:#2a508d;}.cls-16{fill:#2e538f;}.cls-17{fill:#fff;}.cls-18{fill:#fcfcfc;}.cls-19{fill:#ebebeb;}.cls-20{fill:#dadada;}.cls-21{fill:#010202;}.cls-22{fill:#070808;}.cls-23{fill:#060606;}.cls-24{fill:#313232;}.cls-25{fill:#2f2f2f;}.cls-26{fill:#070809;}.cls-27{fill:#2c2c2c;}.cls-28{fill:#4a4a4a;}.cls-29{fill:#3b3b3b;}.cls-30{fill:#090909;}.cls-31{fill:#3b3c3c;}.cls-32{fill:#212122;}.cls-33{fill:#434343;}.cls-34{fill:#464646;}.cls-35{fill:#3a3b3a;}.cls-36{fill:#101010;}.cls-37{fill:#3d3e3d;}.cls-38{fill:#242424;}.cls-39{fill:#3e3d3d;}.cls-40{fill:#2a2b2b;}.cls-41{fill:#2c2d2d;}.cls-42{fill:#343535;}.cls-43{fill:#282929;}.cls-44{fill:#2b2b2c;}.cls-45{fill:#383939;}.cls-46{fill:#3a3a3a;}.cls-47{fill:#363736;}.cls-48{fill:#010102;}.cls-49{fill:#0f0f0f;}.cls-50{fill:#3c3c3c;}.cls-51{fill:#020303;}.cls-52{fill:#070707;}.cls-53{fill:#2a2a2a;}.cls-54{fill:#373838;}.cls-55{fill:#1b1b1b;}.cls-56{fill:#333232;}.cls-57{fill:#393939;}.cls-58{fill:#494949;}.cls-59{fill:#040505;}.cls-60{fill:#252525;}</style></defs><path class="cls-1" d="M304,249.67c-.31,15.82-5.37,30.15-13.82,43.38a189.12,189.12,0,0,1-11.58,16.67c-.46.58-1.09,1-.75,2.1,1.68,5.28.33,8.52-4.85,9.58-3.45.71-5.12,2.86-6.85,5.26a202.1,202.1,0,0,1-17.27,20.9c-3.76,4-7.89,3.82-11.41-.49-2.79-3.42-2.8-5.4.53-8.25,6.15-5.27,10-12.35,14.9-18.57,1.07-1.34,2.1-2.73,3.27-4,2-2.13,3.53-4.16,3.6-7.47.1-5,2.89-7.45,6.65-7a3.19,3.19,0,0,1,2.17.89c1.78,2.58,2.6.72,3.62-.63a160.51,160.51,0,0,0,27.49-57.39c.36-1.42,1-2.45,2.75-2.28s1.46,1.57,1.52,2.66C304.06,246.58,304,248.13,304,249.67Z" transform="translate(-222.25 -204.95)"/><path class="cls-2" d="M317.12,229.75c.3,6.08-1.95,11.77-4.43,17.39-.41.93-1.05,1.89-2.27,1.19s-.92-1.68-.4-2.61c7.21-12.81,5.09-25.36-1-37.8-.48-1-1.31-2,.1-2.78s1.68.58,2.19,1.39C314.71,212.06,317.13,221.55,317.12,229.75Z" transform="translate(-222.25 -204.95)"/><path class="cls-3" d="M331.78,290.82a14.46,14.46,0,0,1-1.93,6.11c-.67,1.39-.81,2.4.49,3.52a2.12,2.12,0,0,1,0,3.51c-1.27,1.11-1.31,2.44-1,3.94.84,4.22-.61,7.84-3.14,11.09-1.1,1.41-2.53,2.14-4.14.6a1.48,1.48,0,0,1-.5-1.7,1.11,1.11,0,0,1,1.52-.74c1.12.55,1.4-.25,1.85-.9a10.93,10.93,0,0,0,1.93-7.16c-.14-2.21-.69-4.54,1-6.49a.61.61,0,0,0,0-.94c-2.36-2.09-1-4.22-.13-6.38a24,24,0,0,0,1.27-3.56c.21-.81.45-1.85-1.07-1.89-.87,0-1.23-.72-1.05-1.55s.84-1.08,1.62-1.16C330.44,286.92,331.77,288.41,331.78,290.82Z" transform="translate(-222.25 -204.95)"/><path class="cls-3" d="M254.61,261.59c.39,2.75,1.26,5.53-.48,8.16a.75.75,0,0,0,.05.73c2.53,1.91.67,3.08-.64,4.48-1.86,2-1.34,4.2,1.23,5,1,.31,1.88.52,1.5,1.66s-1.55,1.36-2.71.93a5.67,5.67,0,0,1-2.86-8.22c.67-1.05,1.62-1.95.31-3.2a1.08,1.08,0,0,1,0-1.5c2.19-2.45,1.32-5.25,1-8-.23-2.25.36-4.21,2.56-5.19,1.75-.78,3.4-.52,4.34,1.43a1.75,1.75,0,0,1-.65,2.38c-.76.48-1.38.12-1.7-.71-.25-.62-.72-.87-1.26-.46C254.5,259.72,254.57,260.68,254.61,261.59Z" transform="translate(-222.25 -204.95)"/><path class="cls-4" d="M326.45,235.29c-.73,7.39-4.14,13.46-9.16,18.73-.85.88-1.92,1.77-3,.58-1.23-1.36.29-1.76,1.09-2.59,4.48-4.69,7.92-10,8.07-16.76,0-1.33.59-2.08,2-1.95S326.64,234.36,326.45,235.29Z" transform="translate(-222.25 -204.95)"/><path class="cls-5" d="M286.28,246c-1.08,3.17-2,5.88-2.93,8.59-.33,1-.69,2.16-1.93,1.78-1.47-.46-.95-1.84-.57-2.76a74.81,74.81,0,0,0,3-9.47c.27-1,.57-2,1.76-2.11s1.68.69,2.12,1.43q1.71,2.9,3.16,5.93c.39.8.67,1.9-.47,2.33s-1.82-.06-2.2-1.29A43.77,43.77,0,0,0,286.28,246Z" transform="translate(-222.25 -204.95)"/><path class="cls-6" d="M296.63,327.11c1.92-1.74,3.6-3.22,5.22-4.75.69-.65,1.3-1.4,2.27-.53a1.41,1.41,0,0,1-.13,2.33c-2.22,2-4.42,4-6.78,5.82-1.36,1-2.57.54-3-1.21a49.81,49.81,0,0,0-2.56-9,1.27,1.27,0,0,1,.65-1.82c1-.45,1.52.14,1.89.94A44.14,44.14,0,0,1,296.63,327.11Z" transform="translate(-222.25 -204.95)"/><path class="cls-7" d="M244.06,279.32a1.7,1.7,0,0,1-1.38,1.57,143.71,143.71,0,0,0-18,7.17c-.8.38-1.81.8-2.31-.39s.43-1.62,1.26-2a145.33,145.33,0,0,1,17.42-7.07C242.07,278.22,243.39,277.92,244.06,279.32Z" transform="translate(-222.25 -204.95)"/><path class="cls-8" d="M309.35,311.85c-.29-.16-.89-.28-1-.59-1-2.64-2.58-1.21-4.09-.68-.62.22-1.46,1.3-1.89-.17-.26-.86-.38-1.72.83-2.21s2.74-.71,2.5-2.84c-.12-1.16,1.36-1.39,1.95-.57,1,1.39,1.87.6,2.8.23,2-.8,4-1.69,6-2.46.85-.32,1.88-.54,2.26.68.3,1-.47,1.45-1.27,1.77l-6,2.43c-1.09.43-2.05.81-1.1,2.29C310.87,310.62,310.72,311.48,309.35,311.85Z" transform="translate(-222.25 -204.95)"/><path class="cls-9" d="M271.5,263.22c3.05.28,6.22,2.13,9.62,3.27.5.17.87.45.53.94-.49.72-1,1.63-2.13,1.23-1.61-.56-3.19-1.23-4.81-1.79a21.69,21.69,0,0,0-3.36-.92c-1.77-.29-3.1.07-2.7,2.38.15.81.19,1.76-.9,1.93s-1.53-.73-1.75-1.66C265.23,265.39,267.3,263.11,271.5,263.22Z" transform="translate(-222.25 -204.95)"/><path class="cls-10" d="M315.7,265.91c-1.05.1-1.66-.08-1.87-.8a1.29,1.29,0,0,1,.92-1.71c5-1.27,8-5,10.82-8.85.54-.73,1.14-1.59,2.19-.87s.62,1.64,0,2.51c-3,3.95-6.06,7.84-11.11,9.39C316.19,265.7,315.79,265.88,315.7,265.91Z" transform="translate(-222.25 -204.95)"/><path class="cls-11" d="M268,275.93c-2.33.33-2.1,1.83-1.89,3.31.15,1,.34,2.19-1,2.36s-1.2-1-1.45-1.88c-.7-2.44-.39-4.51,2-5.82,2.07-1.14,5.43-.35,7,1.48.43.51.56.91.08,1.38-1,1-2.29,1.65-2.76,3.29-.36,1.21-1.22.76-1.88-.24C267.18,278.54,268.19,277.37,268,275.93Z" transform="translate(-222.25 -204.95)"/><path class="cls-5" d="M347.67,306.77c-1.71,0-3.42,0-5.14,0-.94,0-2,0-2-1.24s.95-1.46,1.9-1.48c2.7,0,5.41,0,8.11-.05,1.52,0,3.07.24,4.55-.34a1.4,1.4,0,0,1,2.08,1c.22,1-.59,1.34-1.45,1.56C353.08,307,350.37,306.7,347.67,306.77Z" transform="translate(-222.25 -204.95)"/><path class="cls-12" d="M230.68,264.89c3.63.91,7.66.16,11.56,1,.95.21,1.53.48,1.45,1.51s-.76,1.21-1.53,1.16c-4.5-.29-9-.63-13.48-.92a1.28,1.28,0,0,1-1.21-.89c-.22-.72.3-1.13.87-1.49A3.94,3.94,0,0,1,230.68,264.89Z" transform="translate(-222.25 -204.95)"/><path class="cls-13" d="M350.79,284.35a1.9,1.9,0,0,1-1.05,2.26c-3.28,1.88-6.55,3.75-9.82,5.66A1.3,1.3,0,0,1,338,292a1.35,1.35,0,0,1,.54-2.08c3.41-2,6.83-4,10.3-5.9C349.64,283.61,350.67,283.58,350.79,284.35Z" transform="translate(-222.25 -204.95)"/><path class="cls-14" d="M300.89,286.87c0-1.13-.4-2.39.63-2.84,1.7-.74,3.35-1.86,5.34-1.72a1.12,1.12,0,0,1,1,1.13,1.35,1.35,0,0,1-1,1.41c-1.34.52-2.71,1-4.07,1.45C302.17,286.5,301.59,286.66,300.89,286.87Z" transform="translate(-222.25 -204.95)"/><path class="cls-15" d="M260,287.61a2.78,2.78,0,0,1,1.86-2.82c1.33-.54,2.46.12,3.63.52.43.15.4.56.13.88-.45.53-.66,1.36-1.56,1.35-.51,0-1.32-.73-1.26.55.05,1,0,2-1.35,1.74C260.27,289.61,260,288.56,260,287.61Z" transform="translate(-222.25 -204.95)"/><path class="cls-16" d="M301.44,303.44c-.16-1.36-.33-2.34-.37-3.33,0-.69-.94-1.79.34-2a2,2,0,0,1,2.06,1.8C303.77,301.48,303,302.49,301.44,303.44Z" transform="translate(-222.25 -204.95)"/><path class="cls-17" d="M301.29,251c.24,8-2.06,15.49-4.6,22.94-4.19,12.29-11.8,22.61-19.31,33-1.69,2.33-3.69,4.44-5.56,6.63-.91,1.07-1.83,1-2.71-.08-.75-.89-1.6-1.57-.42-2.92,15.12-17.25,25.05-37.33,32.06-59C300.83,251.33,300.73,251,301.29,251Z" transform="translate(-222.25 -204.95)"/><path class="cls-18" d="M273.77,317.75a7.28,7.28,0,0,1-10.19-2.35,10.37,10.37,0,0,1-.76-8.82c.94-2.5,3.21-2.8,5.07-.88.69.71.64,1,.07,1.69-1.57,1.8-4,3.23-2,6.32a8.7,8.7,0,0,0,7.94,4.07Z" transform="translate(-222.25 -204.95)"/><path class="cls-19" d="M274.07,315.38l1.6-1.84a5.39,5.39,0,0,1-1.05,3C273.6,316.54,273.82,316,274.07,315.38Z" transform="translate(-222.25 -204.95)"/><path class="cls-20" d="M274.07,315.38a1.22,1.22,0,0,0,.55,1.15c-.29.4-.57.81-.85,1.21l.09,0A1.74,1.74,0,0,1,274.07,315.38Z" transform="translate(-222.25 -204.95)"/><path class="cls-1" d="M325.84,405c1.38-8.17,2.22-16.49,4.37-24.45,1-3.73,1.9-7.74,4-11.3s3.34-7.55,5-11.33c6.19-14,11.69-28.28,18.41-42,8.54-17.46,16-35.48,26.1-52.15,4-6.6,8.44-12.88,15.9-16.12a21.9,21.9,0,0,1,5.95-1.74c7-.91,11.13,3.71,9.41,10.61a36.52,36.52,0,0,1-2.91,7.54c-10.84,21.55-20.1,43.84-30.51,65.6-7.58,15.83-14.68,31.93-23.36,47.18-5.79,10.17-11.7,20.39-19.38,29.36a28.21,28.21,0,0,1-4.73,4.85c-1.67,1.18-3.41,1.89-5.54.86s-2.5-2.93-2.66-5a12.11,12.11,0,0,1,.14-1.89Z" transform="translate(-222.25 -204.95)"/><path class="cls-21" d="M334.59,415.11c3.19-.22,6,.47,8.85.86,1.09.14,2.61.48,2.72,1.8s-1.31,1.77-2.39,2.23a37.23,37.23,0,0,1-10.94,2.55c-7,.71-14,1.65-21,.26l-.27,0c-1.33-.23-3.09-.38-3.21-1.86s1.68-2,2.91-2.41a55.37,55.37,0,0,1,15.81-2.84C329.69,415.58,332.23,414.63,334.59,415.11Z" transform="translate(-222.25 -204.95)"/><path class="cls-22" d="M313.8,379.88c1.23.05,1.63.94,1.91,1.76a86.34,86.34,0,0,0,5.15,11.54c.63,1.21,1,2.59-.45,3.28s-2-.69-2.58-1.72a87.63,87.63,0,0,1-5.14-11.24C312.16,382.14,311.56,380.41,313.8,379.88Z" transform="translate(-222.25 -204.95)"/><path class="cls-23" d="M312.86,402c1.86.24,4.32-.44,6.71.45,1.31.48,2.1,1.23,1.65,2.61s-1.53.94-2.67.72a42.34,42.34,0,0,0-11.63-.17c-1.46.12-2.75.06-2.92-1.49s1.33-2,2.6-2.09C308.49,402,310.4,402,312.86,402Z" transform="translate(-222.25 -204.95)"/><path class="cls-22" d="M363.11,396.34a2.34,2.34,0,0,1-1.39,1.89c-3.44,1.79-6.87,3.57-9.08,7a1.53,1.53,0,0,1-1.95.51,1.76,1.76,0,0,1-1.19-1.92,2.75,2.75,0,0,1,.95-1.88,51.83,51.83,0,0,1,9.84-7.12A1.78,1.78,0,0,1,363.11,396.34Z" transform="translate(-222.25 -204.95)"/><path class="cls-6" d="M363.14,415.29c-.16,1.37-1.19,2.12-2.41,1.37-3.19-2-6.79-2.18-10.29-2.77-1.35-.23-2.39-.54-2.21-2s1.5-1.9,2.87-1.6c3.15.68,6.31,1.36,9.41,2.22C361.76,412.83,363.17,413.36,363.14,415.29Z" transform="translate(-222.25 -204.95)"/><path class="cls-17" d="M404.48,253.11c1.44-1,3.28-.91,4.74-2.05.82-.64,2-.57,2.48,1.25a8.7,8.7,0,0,1-.59,5.22c-2.81,7.71-7.12,14.72-10.44,22.2-13.47,30.33-27.51,60.4-42.38,90.07a94.34,94.34,0,0,1-6.12,10.81c-.94,1.4-2.08,1.91-3.56,1.15-2.43-1.25-5.21-1.13-7.72-2.06-1.07-2,.34-3.52,1-5.19A29.2,29.2,0,0,0,343,371.8c.09-.23.18-.45.28-.66.56-1.32.87-2.72,1.49-4a22.13,22.13,0,0,0,.85-2.36c.22-.7.51-1.37.79-2,.46-1.15.91-2.31,1.46-3.42.58-1.38,1.1-2.78,1.76-4.13.42-.91.69-1.87,1.14-2.77a39.8,39.8,0,0,0,2.12-4.77A14.43,14.43,0,0,0,354,345c.34-.77.73-1.51,1.06-2.29s.64-1.79,1.09-2.64a11.47,11.47,0,0,0,.88-1.92,8.65,8.65,0,0,1,.76-1.63c.58-1.2,1.05-2.44,1.62-3.64s1-2.5,1.61-3.69c.41-.73.78-1.49,1.15-2.25.5-.94,1-1.9,1.45-2.86s.84-1.68,1.26-2.52c.33-.61.66-1.22.95-1.86l.75-1.58c.57-1,1.07-2.11,1.58-3.18s1-1.92,1.55-2.84c.57-1.18,1.23-2.31,1.69-3.53.42-1,1.12-1.82,1.48-2.83.31-.76.69-1.5,1-2.25.09-.22.2-.42.31-.63.59-1,1.06-2.08,1.57-3.13.42-.83,1-1.57,1.36-2.45a11.28,11.28,0,0,1,1.3-2.54,13,13,0,0,0,1.72-3.06,21.86,21.86,0,0,0,1.42-2.42,20.48,20.48,0,0,1,1.23-2.14c.61-.84,1-1.81,1.61-2.65a5.74,5.74,0,0,0,.9-1.8,3.29,3.29,0,0,1,.46-.94,13.58,13.58,0,0,0,1.34-1.59,9.53,9.53,0,0,0,1-1.75c.24-.5.48-1,.77-1.49s.65-.91.92-1.41c.5-1,1.18-2,1.73-3,.44-.82,1-1.58,1.45-2.38s.79-1.44,1.25-2.11a31.77,31.77,0,0,0,2-3.7,3.64,3.64,0,0,1,.38-.63,13.24,13.24,0,0,0,2.48-3.59c.54-.78,1.22-1.45,1.69-2.28a20.38,20.38,0,0,0,1.63-2.68A6.83,6.83,0,0,1,404.48,253.11Z" transform="translate(-222.25 -204.95)"/><path class="cls-17" d="M386,281.8v1.11a3.75,3.75,0,0,0-1.49,1.73,12.54,12.54,0,0,0-1.42,2.32c-.47.66-.74,1.44-1.22,2.1a18.07,18.07,0,0,1-1.64,2.69,8,8,0,0,1-1.47,2.8,12,12,0,0,0-1.28,2.53c-.32,1.06-1.25,1.77-1.62,2.8s-1.34,2.06-1.28,3.37l0,.4c-.91.45-1.1,1.38-1.44,2.2-.32,1-1.29,1.69-1.53,2.76-.16,1.25-1.31,2-1.51,3.26-.63,1-1.08,2.16-1.73,3.18-.37,1-1.09,1.83-1.47,2.83a5.35,5.35,0,0,1-.73,1.57c-.36.6-.68,1.21-1,1.82-.4.84-.79,1.69-1.19,2.53s-1,1.89-1.44,2.87c-.21,1-1,1.66-1.25,2.59-.49,1.24-1.16,2.41-1.65,3.65-.4,1-1,1.9-1.34,2.95-.13.72-.71,1.23-.87,1.94s-.62,1.28-.88,1.94c-.28.91-.78,1.73-1.1,2.62-.32.52-.47,1.12-.76,1.65-.69,1.17-.7,2.64-1.59,3.72a51.14,51.14,0,0,1-2.11,4.79c-.26.84-.7,1.6-1,2.42-.56,1.38-1.17,2.74-1.72,4.13s-1.14,2.47-1.6,3.75c-.09.61-.54,1.09-.66,1.7a25.83,25.83,0,0,0-1.05,2.69,11.52,11.52,0,0,0-1.32,4.4l0-.06a5.69,5.69,0,0,0-1.39,2.59c-.42,1-.88,2-1.26,3-.29.76-.61,1.61-1.73,1-.16-.21-.27-.53-.48-.62-3.58-1.66-2.76-3.87-1.27-6.7,2-3.73,3.25-7.81,5.05-11.64,6.88-14.61,12.23-29.88,19.48-44.34,7.39-14.73,13.66-30,21.84-44.36,3.23-5.66,6.5-11.3,11.32-15.81a18.63,18.63,0,0,1,14-5.31c-1.65.94-3.43,1.65-4.7,3.12a4.77,4.77,0,0,1-1.48,2.32c-.83.73-1,1.85-1.63,2.7s-1.35,2-2.16,2.84a18.2,18.2,0,0,1-2.36,3.73l.06.25a18.7,18.7,0,0,0-2.32,3.53,11.89,11.89,0,0,0-1.26,2.11c-.37.87-1.09,1.52-1.52,2.35-.4,1.09-1.24,1.93-1.71,3a6.49,6.49,0,0,1-1.12,1.68c-.21.39-.37.8-.58,1.19-.31.6-.63,1.18-1,1.77A15.29,15.29,0,0,1,386,281.8Z" transform="translate(-222.25 -204.95)"/><path class="cls-17" d="M346.71,388.57c-3.36,7-8.11,12.81-13.09,18.42a10.72,10.72,0,0,1-1.44,1.23c-.57.44-1.2.93-2,.63-.94-.38-.85-1.28-.85-2.09,0-4.26,1.1-8.38,1.72-12.55s1.43-8.08,2.18-12.21C339.08,386.84,339.08,386.84,346.71,388.57Z" transform="translate(-222.25 -204.95)"/><path class="cls-24" d="M339.19,378.11c2.12-.69,1.5-3.13,2.78-4.36.48-.07.8,0,.51.59-.11,1.91-2,3.29-1.59,5.36Z" transform="translate(-222.25 -204.95)"/><path class="cls-25" d="M402.79,254.56c.56-.69.79-1.65,1.65-2.11l0,.66a2.91,2.91,0,0,1-1.57,2.28A.53.53,0,0,1,402.79,254.56Z" transform="translate(-222.25 -204.95)"/><path class="cls-10" d="M399.43,268.09c.42-.86,1-2.06,1.56-3.27,1.13-2.43,2.29-4.85,3.36-7.31.5-1.15,1.17-1.84,2.45-1.37a1.64,1.64,0,0,1,.92,2.45c-1.72,3.74-3.51,7.45-5.3,11.15a1.53,1.53,0,0,1-2.06.77C399.42,270.17,399.34,269.35,399.43,268.09Z" transform="translate(-222.25 -204.95)"/><path class="cls-26" d="M395.68,280.17c-1.5-.35-3.22-.85-3.5-2.9s3.21-5.12,5.47-5.11a2.73,2.73,0,0,1,3,2.8A5.11,5.11,0,0,1,395.68,280.17Z" transform="translate(-222.25 -204.95)"/><path class="cls-27" d="M350.68,352.54a16.52,16.52,0,0,1,2.13-4.89.34.34,0,0,1,.6,0,16.48,16.48,0,0,1-2.08,4.93C351.08,352.88,350.87,352.85,350.68,352.54Z" transform="translate(-222.25 -204.95)"/><path class="cls-28" d="M343.54,371.61c-.91-1.77.29-3,1-4.41a.41.41,0,0,1,.63,0A12.55,12.55,0,0,1,343.54,371.61Z" transform="translate(-222.25 -204.95)"/><path class="cls-29" d="M396.81,264c.16-1.65,1.28-2.74,2.22-4,.22-.22.42-.22.6,0A5.86,5.86,0,0,1,396.81,264Z" transform="translate(-222.25 -204.95)"/><path class="cls-30" d="M347.89,359.05a14.88,14.88,0,0,1,1.76-4.31c.42-.05.75,0,.43.52a14.9,14.9,0,0,1-1.79,4.32C347.89,359.6,347.57,359.56,347.89,359.05Z" transform="translate(-222.25 -204.95)"/><path class="cls-31" d="M394.19,267.72c.71-1.28,1.07-2.85,2.68-3.43-.11,1.67-1.34,2.72-2.2,4A.86.86,0,0,1,394.19,267.72Z" transform="translate(-222.25 -204.95)"/><path class="cls-32" d="M389.74,275.24a10,10,0,0,1,1.79-3.15c.45,0,.77,0,.45.58l-1.83,3.16C389.69,275.85,389.44,275.74,389.74,275.24Z" transform="translate(-222.25 -204.95)"/><path class="cls-33" d="M357.79,335.71c.55-.92.53-2.19,1.69-2.73l.28-.05a10.36,10.36,0,0,1-1.52,3.85C357.82,336.54,358.06,336,357.79,335.71Z" transform="translate(-222.25 -204.95)"/><path class="cls-34" d="M374.55,303.25c-.95-1.59.59-2.36,1.15-3.45a.36.36,0,0,1,.57,0A7.27,7.27,0,0,1,374.55,303.25Z" transform="translate(-222.25 -204.95)"/><path class="cls-35" d="M369.73,311.76a8.33,8.33,0,0,1,1.6-3.27.51.51,0,0,1,.77.11l-1.91,3.7A.83.83,0,0,1,369.73,311.76Z" transform="translate(-222.25 -204.95)"/><path class="cls-36" d="M347.89,359.05l.4.53a10,10,0,0,1-1.46,3.3c-.18.25-.36.26-.53,0A10.05,10.05,0,0,1,347.89,359.05Z" transform="translate(-222.25 -204.95)"/><path class="cls-37" d="M378.48,294.39c.49-.95.63-2.11,1.66-2.72.14-.23.28-.24.44,0a5.67,5.67,0,0,1-1.65,3.31A.81.81,0,0,1,378.48,294.39Z" transform="translate(-222.25 -204.95)"/><path class="cls-38" d="M359.76,332.93l-.15,0-.13.09c-.19-1.58.83-2.65,1.59-3.84a.31.31,0,0,1,.48,0A7.18,7.18,0,0,1,359.76,332.93Z" transform="translate(-222.25 -204.95)"/><path class="cls-39" d="M353.41,347.67l-.6,0a11.9,11.9,0,0,1,1.6-3.84c.38.46.21.94,0,1.42A3.36,3.36,0,0,1,353.41,347.67Z" transform="translate(-222.25 -204.95)"/><path class="cls-40" d="M362.17,326.46l1.48-2.79a.85.85,0,0,1,.46.58,5.56,5.56,0,0,1-1.52,2.74A.75.75,0,0,1,362.17,326.46Z" transform="translate(-222.25 -204.95)"/><path class="cls-41" d="M372.1,308.6l-.77-.11c.08-1.12.95-1.84,1.37-2.79.26-.26.49-.24.69.07Z" transform="translate(-222.25 -204.95)"/><path class="cls-42" d="M402.79,254.56l.12.83a4.78,4.78,0,0,1-1.69,2.59.51.51,0,0,1-.08-.78A5,5,0,0,1,402.79,254.56Z" transform="translate(-222.25 -204.95)"/><path class="cls-25" d="M366.53,317.77a7.37,7.37,0,0,1,1.56-2.75.32.32,0,0,1,.55,0,6.21,6.21,0,0,1-1.7,3.26A.74.74,0,0,1,366.53,317.77Z" transform="translate(-222.25 -204.95)"/><path class="cls-43" d="M364.11,324.25l-.46-.58,1.18-2.65c.54,0,.8.12.56.69Z" transform="translate(-222.25 -204.95)"/><path class="cls-25" d="M368.64,315l-.55,0a7.86,7.86,0,0,1,1.64-3.26l.46.54A6,6,0,0,1,368.64,315Z" transform="translate(-222.25 -204.95)"/><path class="cls-44" d="M376.27,299.83l-.57,0c.1-1.16.92-1.95,1.47-2.89.36.08.38.4.47.67A5.45,5.45,0,0,1,376.27,299.83Z" transform="translate(-222.25 -204.95)"/><path class="cls-45" d="M380.58,291.65h-.22l-.22,0a4.45,4.45,0,0,1,1.45-2.81.85.85,0,0,1,.46.57C381.63,290.22,381.54,291.22,380.58,291.65Z" transform="translate(-222.25 -204.95)"/><path class="cls-46" d="M382.79,286.76a4.27,4.27,0,0,1,1.43-2.24.46.46,0,0,1,.68.05,6.68,6.68,0,0,1-1.64,2.74A.86.86,0,0,1,382.79,286.76Z" transform="translate(-222.25 -204.95)"/><path class="cls-47" d="M345.21,367.23l-.63,0a5,5,0,0,1,1-2.86c.36.09.39.44.56.68Z" transform="translate(-222.25 -204.95)"/><path class="cls-35" d="M342.48,374.34l-.51-.59c.33-.88-.05-2.28,1.6-2.2A7,7,0,0,1,342.48,374.34Z" transform="translate(-222.25 -204.95)"/><path class="cls-21" d="M401.14,257.2l.08.78a3.66,3.66,0,0,1-1.59,2.15l-.6,0A9.29,9.29,0,0,1,401.14,257.2Z" transform="translate(-222.25 -204.95)"/><path class="cls-48" d="M362.17,326.46l.42.53a2.9,2.9,0,0,1-1,2.18l-.24,0h-.24C361,328.08,361.84,327.37,362.17,326.46Z" transform="translate(-222.25 -204.95)"/><path class="cls-21" d="M377.64,297.58l-.47-.67,1.31-2.52.45.57Z" transform="translate(-222.25 -204.95)"/><path class="cls-49" d="M355.09,342.22l1.05-2.7c.51-.06.79.06.54.64a6.28,6.28,0,0,1-1.16,2.61A.73.73,0,0,1,355.09,342.22Z" transform="translate(-222.25 -204.95)"/><path class="cls-50" d="M392,272.67l-.45-.58a5.57,5.57,0,0,1,1.45-2.3.8.8,0,0,1,.45.59A5.37,5.37,0,0,1,392,272.67Z" transform="translate(-222.25 -204.95)"/><path class="cls-51" d="M393.43,270.38l-.45-.59c.4-.69.8-1.38,1.21-2.07l.48.54Z" transform="translate(-222.25 -204.95)"/><path class="cls-52" d="M355.09,342.22l.43.55a4.12,4.12,0,0,1-1.06,2.46c0-.47,0-1,0-1.42Z" transform="translate(-222.25 -204.95)"/><path class="cls-6" d="M382.79,286.76l.47.55-1.21,2.12-.46-.57Z" transform="translate(-222.25 -204.95)"/><path class="cls-53" d="M350.08,355.26l-.43-.52a4,4,0,0,1,1-2.2l.65.06A6,6,0,0,1,350.08,355.26Z" transform="translate(-222.25 -204.95)"/><path class="cls-54" d="M386,281.8c-.08-1,.67-1.47,1.16-2.12.43-.08.68,0,.44.5C387.2,280.87,387.33,282.07,386,281.8Z" transform="translate(-222.25 -204.95)"/><path class="cls-55" d="M373.39,305.77l-.69-.07c.49-.79.15-2.31,1.82-2.05C374.14,304.35,373.77,305.06,373.39,305.77Z" transform="translate(-222.25 -204.95)"/><path class="cls-49" d="M357.79,335.71l.45,1.07-.63,1.59c-.51.06-.8-.06-.55-.65Z" transform="translate(-222.25 -204.95)"/><path class="cls-28" d="M357.06,337.72l.55.65-.93,1.79-.54-.64Z" transform="translate(-222.25 -204.95)"/><path class="cls-56" d="M384.9,284.57l-.68-.05c.35-.79.29-2,1.75-1.61C385.68,283.51,385.55,284.2,384.9,284.57Z" transform="translate(-222.25 -204.95)"/><path class="cls-57" d="M387.58,280.18l-.44-.5c-.05-.78.55-1.18,1-1.67a.7.7,0,0,1,.44.54C388.25,279.1,388.3,279.87,387.58,280.18Z" transform="translate(-222.25 -204.95)"/><path class="cls-58" d="M365.39,321.71l-.56-.69,1-1.7c.33,0,.37.35.52.57Z" transform="translate(-222.25 -204.95)"/><path class="cls-48" d="M366.34,319.89l-.52-.57.71-1.55.41.53C367.05,319,366.64,319.4,366.34,319.89Z" transform="translate(-222.25 -204.95)"/><path class="cls-59" d="M346.18,365l-.56-.68a2,2,0,0,1,.68-1.47h.53Z" transform="translate(-222.25 -204.95)"/><path class="cls-1" d="M388.56,278.55l-.44-.54a1.05,1.05,0,0,1,.59-1.05c.2-.23.39-.24.58,0A2.34,2.34,0,0,1,388.56,278.55Z" transform="translate(-222.25 -204.95)"/><path class="cls-60" d="M389.29,277h-.58a2.49,2.49,0,0,1,1-1.72l.41.59C390,276.27,389.94,276.86,389.29,277Z" transform="translate(-222.25 -204.95)"/></svg>