<svg id="Ebene_1" data-name="Ebene 1" xmlns="http://www.w3.org/2000/svg" viewBox="0 0 308.48 543.34"><defs><style>.cls-1{fill:#010100;}.cls-2{fill:#0f1012;}.cls-3{fill:#030404;}.cls-4{fill:#08090a;}.cls-5{fill:#060708;}.cls-6{fill:#161719;}.cls-7{fill:#1f2022;}.cls-8{fill:#151617;}.cls-9{fill:#252527;}.cls-10{fill:#28282a;}.cls-11{fill:#29292b;}.cls-12{fill:#363638;}.cls-13{fill:#2e2e31;}.cls-14{fill:#444345;}.cls-15{fill:#484849;}.cls-16{fill:#3a3a3b;}.cls-17{fill:#252528;}.cls-18{fill:#878686;}.cls-19{fill:#716e6f;}.cls-20{fill:#6f6d6e;}.cls-21{fill:#cecdcd;}.cls-22{fill:#16162f;}.cls-23{fill:#9f9f9f;}.cls-24{fill:#fefefe;}.cls-25{fill:#fdfdfd;}.cls-26{fill:#9da108;}.cls-27{fill:#242427;}.cls-28{fill:#272729;}.cls-29{fill:#323235;}.cls-30{fill:#474648;}.cls-31{fill:#dfdedf;}.cls-32{fill:#3f3e40;}.cls-33{fill:#a7a6a7;}.cls-34{fill:#c1bebf;}.cls-35{fill:#656465;}.cls-36{fill:#b9b7b7;}.cls-37{fill:#6a696a;}.cls-38{fill:#424241;}.cls-39{fill:#e2e1e1;}.cls-40{fill:#5e5c5d;}.cls-41{fill:#454445;}.cls-42{fill:#afadae;}.cls-43{fill:#deddde;}.cls-44{fill:#575758;}.cls-45{fill:#828182;}.cls-46{fill:#afadad;}.cls-47{fill:#959494;}.cls-48{fill:#6d6c6c;}.cls-49{fill:#fff;}.cls-50{fill:#425b35;}.cls-51{fill:#f9f9f9;}.cls-52{fill:#f5f5f5;}.cls-53{fill:#4c4b4d;}.cls-54{fill:#888686;}.cls-55{fill:#e0dfdf;}.cls-56{fill:#838282;}.cls-57{fill:#bab9b9;}.cls-58{fill:#2a2a2c;}.cls-59{fill:#3e3e40;}.cls-60{fill:#9d9b9b;}.cls-61{fill:#0c0d0e;}.cls-62{fill:#c9c8c8;}.cls-63{fill:#fbfbfb;}.cls-64{fill:#f8f8f8;}.cls-65{fill:#c3c1c2;}.cls-66{fill:#1f1f21;}.cls-67{fill:#2f2f31;}.cls-68{fill:#313132;}.cls-69{fill:#2d2d2f;}.cls-70{fill:#535253;}.cls-71{fill:#656364;}.cls-72{fill:#7f7d7d;}.cls-73{fill:#3d3d3d;}.cls-74{fill:#3c3b3d;}.cls-75{fill:#0a0b0c;}.cls-76{fill:#8c8b8b;}.cls-77{fill:#414042;}.cls-78{fill:#353537;}.cls-79{fill:#a7a6a6;}.cls-80{fill:#918f8f;}.cls-81{fill:#898787;}.cls-82{fill:#242528;}.cls-83{fill:#919090;}.cls-84{fill:#504f50;}.cls-85{fill:#626161;}.cls-86{fill:#565456;}.cls-87{fill:#535151;}.cls-88{fill:#a4a2a2;}.cls-89{fill:#4a494a;}.cls-90{fill:#2f2f30;}.cls-91{fill:#f7f6f7;}.cls-92{fill:#7d7c7c;}.cls-93{fill:none;}</style></defs><path class="cls-1" d="M279.59,282.6c1.06,4.32.89,4.67-2.72,5.57-2.1,1-.16,3.54-1.76,4.75-2,1.68-4.58,2.28-6.72,3.69a4,4,0,0,0-2,2.2c-.88,5.19-.32,10.39-.33,15.59-.42,11.07.37,22.1,1.18,33.13.4,5.42,1.52,10.09,7.22,12.92,4.36,2.16,6.53,6.71,7.58,11.47,2.49,11.3,1.69,22.74.93,34.11a22.71,22.71,0,0,1-4.51,11.53,9.16,9.16,0,0,0-3,4.89c-4.3,4.83-5.42,11.42-9.16,16.57-.78,1.08-.64,2.43-.86,3.67-.34,2-.69,4.07-2,5.57-2.62,2.92-2.82,6.07-1.62,9.59,1.51,4.41,1.1,8.64-1.83,12.34-2.45,3.11-2.62,6.4-2.13,10.17a60.49,60.49,0,0,1,.06,11.42,8.25,8.25,0,0,0,2.44,6.81c3.72,3.9,3.66,5.27.24,9.68a6.86,6.86,0,0,0-1.51,4c-.58,9.6-1.48,19.18-1.46,28.83,0,3.11,1.11,4.78,3.89,5.58,5.27,1.51,10.7,1.86,16.13,2.1a81.22,81.22,0,0,1,15.62,2c5.73,1.39,10.43,4.33,12.87,9.9.91,2.08,2.46,2.38,4.23,2.75a109.15,109.15,0,0,1,20.3,6c5.21,2.19,10.19,4.79,14.24,8.85,6.63,6.63,7.18,14,1.58,21.5-3.55,4.75-8.26,8.15-13.31,11.09-11.72,6.81-24.5,10.87-37.58,14a221,221,0,0,1-35.43,5.65c-3.35.24-6.32,1.52-9.37,2.66-7.51,2.82-15.12,5-23.33,4a46.35,46.35,0,0,1-10-2.4,207.62,207.62,0,0,0-28.81-7.77,76.79,76.79,0,0,1-21.5-7.51,37.53,37.53,0,0,1-8.89-6.22c-7.25-7.09-7.63-14.83-1.09-22.71a44.53,44.53,0,0,1,12.26-9.84c11.07-6.44,23.09-10.46,35.45-13.54,4.4-1.09,8.83-2.07,13.28-2.89,2.22-.42,3.81-1,3.75-3.67-.06-2.31.63-4.31,2.77-5.55s1.54-3.17,1.49-4.89c-.19-6.52-1.17-13-.83-19.56.2-3.8,0-7.63-.07-11.44a3.25,3.25,0,0,1,0-.54c.41-4.13-3.61-8-1.3-12,2.15-3.73,1.72-7.69,2.33-11.57a25.87,25.87,0,0,0-.11-8.69,89.73,89.73,0,0,1-1.68-15.14,4.78,4.78,0,0,0-1.61-3.87c-3.46-3-4.4-6.93-4.31-11.27-.61-1.13-2.63-.7-2.7-2.44.48-4.1,3.39-6.24,6.59-8.14a2.15,2.15,0,0,1,2,.77,2.49,2.49,0,0,1,.14,1.68,1.75,1.75,0,0,0,.67-.68,8.87,8.87,0,0,1,1.59-1.41c5.19-3.47,11-5.3,17-6.78,3.52-.88,7-1.78,9.26-6-8.27,1.22-15.2,5.61-23.1,6.13a2.57,2.57,0,0,1-2.23-3.07c.87-2.69,3.34-3,5.54-3.81,10.27-3.57,20.56-7.08,30.58-11.38,5.54-2.38,9-6.17,10.18-11.81s2.22-11.38,1.3-17.25c-.82-5.22-.28-10.5-.42-15.76s-1.37-9.71-6-12.68c-2.86-1.77-5.95-1.11-8.95-.74-2,.24-3.9.88-5.57-.78-4.63-23.49-16.22-43.15-33.36-60a20.34,20.34,0,0,1,2.23,9.42c-.18,1.69-.18,3.48-2.2,4.2-4.29-1.42-4.28-5.71-5.16-8.87-1.76-6.37-4.83-10.62-11.56-12.26-3.75-.92-3.72-3.46-.48-8.12a6.37,6.37,0,0,1,3.41,0A40.68,40.68,0,0,1,223.55,295c13.55,11.43,23.78,25.3,30,42a21.55,21.55,0,0,1,1.28,4.14c-2.87-15.36-.37-31.37-5.75-46.43,0-1.43.18-2.79,1.49-3.68,2.53-.59,2.83,1.53,3.67,3a8.62,8.62,0,0,0,1.52,2.13,6.92,6.92,0,0,1,.63.8c.27-.29.1-.74.38-1a27.37,27.37,0,0,1,2.27-2.67c4.76-4.77,10-8.62,17.09-9C277.49,284.19,277.91,282.05,279.59,282.6Z" transform="translate(-97.56 -105.76)"/><path class="cls-2" d="M251.47,291.24c-1.4.76-1.11,2.14-1.24,3.37-2.51,0-2.53-2.22-3.17-3.75-5.13-12.27-17.61-16.67-29.35-10.3-2,1.1-3.75,2.89-6.31,2.79a2.49,2.49,0,0,1-1.91-1.34c-.37-1.58.62-2.38,1.77-3.08a15.71,15.71,0,0,0,2.37-1.15,4,4,0,0,0,.94-.35,2.83,2.83,0,0,0-1,.28c-.84.29-1.5.93-2.37,1.16-.95.55-1.69,1.49-2.67,1.88-12.34,4.89-18.3,15.4-23.62,26.54-7.52,15.76-16.23,30.7-27.3,44.4-17.59,21.77-23.39,47.51-22.51,75,.37,11.57,7.14,18.83,18.38,21,3.62.71,6.15-1.9,9.35-2.31,1.44-.11,2.82.39,4.25.36,8.63-.79,17.36-.61,25.68-3.69,7.4-2.74,12.51-7.86,12-15.7-1.18-17,5.85-31.87,10.63-47.34,1.76-5.72,1.94-11.83,4.56-17.28,1.68-1.8,2.26-.38,3,1,.54,1.06-.24,3.2,2.2,2.73,8-2.32,16.29-3.34,24.35-5.34,1.75-.43,3.6-.6,5.13.79,1.44,1.94,3.16.82,4.92.63,3.47-.38,7.09-1.69,10.36.81-2,1.79-4.47,1.17-6.76,1.44-11.73,1.4-23.18,4.29-34.73,6.64-2.62.53-4.86,1.65-5.66,4.47-3.53,12.39-8.42,24.38-11.42,36.93-1.64,6.87-1.44,6.92,5.37,8a11.39,11.39,0,0,1,9.66,9.72c.33,2.35.33,4.72,2.08,6.59a2.2,2.2,0,0,0,2.27,2.4c-.39,2.86-2.63,4.83-3.6,7.42-.48.55-1.12.91-1.62,1.43a1,1,0,0,1-1.29,0l-1.27-1.24c-.71-7.45-.71-7.45-7.87-4.27-.49.22-1,.48-1.49.66-1.54.51-3.33,1.43-4.39-.44-1.21-2.15.69-3.31,2.1-4.37,1.89-1.42,4.17-2.19,6.17-3.44s3.47-2.88,2.38-5.39a5.76,5.76,0,0,0-5.54-3.72c-2.69,0-3.63,1.92-4.18,4.23-3,12.52-10.61,19-23.88,20.25a32.43,32.43,0,0,1-3.82.11c-2.09.18-4.07-1.83-6.23-.32-4.6.8-9.23,1.2-13.51,3.56s-8.86,1.93-13.25.37a45.19,45.19,0,0,1-11.75-6.77c-3.45-2.58-4-6.78-5.16-10.54-3.33-11.08-2.19-22.31-.57-33.48,1.28-8.82,4-17.3,6.56-25.81,3-10.1,8.69-18.82,15.36-26.72,10.42-12.33,18.25-26.14,25-40.65,2.77-5.92,5.66-11.81,9.55-17.06,5.16-7,4.77-14,1.41-21.51-3.23-7.24-3-14.45,2-21a7,7,0,0,1,1.72-1.23,2.16,2.16,0,0,1,1.6,1.64c.1,1.91-1.06,3.4-1.74,5-1.67,4-2.09,8-.25,12.05a33.49,33.49,0,0,1,3.27,13.53c7.33-3.79,14.25-7.5,21.91-9.38,5.12-.14,10.27-.82,15.26.92a13,13,0,0,0,3.64.8c1.16.07,2.33.12,3.5.13,2,.31,3.19,1.79,4.51,3.1a10.93,10.93,0,0,1,1.57,2.23c.43.78.82,1.58,1.23,2.38s.83,1.59,1.25,2.39a32.44,32.44,0,0,0,2.16,3.63C252.11,288.41,252.71,289.81,251.47,291.24Z" transform="translate(-97.56 -105.76)"/><path class="cls-3" d="M219.73,223.63c-.5-1.68-2.48-1.88-3.27-3.27a21,21,0,0,1-2.07-3.74c-.73-4.14-.11-8.54-2.37-12.39-.06-2.87.31-5.63,2.21-8,2.25-1,2.93.49,3.1,2.23s1.43,1.67,2.66,1.72c2.3,3.58,5.2,6.79,6.53,11,1,3.06,8.89,7.86,12,7.4a3.58,3.58,0,0,0,1.91-1.82c.71-1.59.86-3.33,1.41-5,.9-2.56,2.84-3.57,5.42-3.73,4.7-.29,9.51-.92,14,.37s9.07,1.6,13.53-.39c1.66,1.07,1,2.56.72,4-1.65,8.15-5.95,15-10.71,21.95,3,1.69,6.31,3.15,7.36,6.91.54,1.07.59,2-.66,2.64-6.29-3.54-6.24-3.49-11.68,2.29-3.36,3.57-6.8,7.09-11.72,8.53-1.15.45-2.08,1.44-3.42,1.42a2.54,2.54,0,0,1-1.78-1.3c-1.42-2.42-.12-4.42,1-6.45a17.73,17.73,0,0,1,2.57-3.5c1.87-2.13,1.14-3.35-1.21-4.5-8.11-4-15.5-9.1-22.74-14.46C222.85,223.14,220.31,224.78,219.73,223.63Z" transform="translate(-97.56 -105.76)"/><path class="cls-4" d="M195.07,250l-1.59-1.46c1.87-2.22,4.44-2.84,7.14-3.06,1.6-.13,3.22-.09,4.82-.16,5.57-.24,7.4-1.9,8.42-7.6.13-.7.36-1.38.54-2.06,2.17-.27,1.95,2.56,3.71,2.83a16.77,16.77,0,0,1,5.45,2.27c.7.48,1.36,1,2.08,1.46a11,11,0,0,1,1,.66,8.71,8.71,0,0,1,.85.76c.13.12.26.26.4.38s.52.51.77.78c0,0,.37.39.38.38q.39.36.75.75s.37.39.37.38c.27.24.52.49.76.75,0,0,.37.39.38.38.27.24.53.5.78.76l.39.39c.28.25.55.51.82.78l.42.4c.3.26.57.54.85.83l.41.46a4,4,0,0,1,.61,1.09,3,3,0,0,1,0,1.26,2.15,2.15,0,0,1-.78,1l-.62.14a3,3,0,0,1-1.14-.46l-.48-.37a9.38,9.38,0,0,1-.85-.82c-.13-.13-.26-.28-.4-.41s-.52-.54-.78-.82c-.13-.13-.25-.27-.38-.39s-.51-.52-.76-.78c0,0-.36-.4-.37-.39a8.85,8.85,0,0,1-.75-.75s-.37-.39-.37-.38a8.73,8.73,0,0,1-.75-.74s-.36-.38-.37-.37c-.26-.24-.5-.49-.75-.75,0,0-.37-.38-.38-.38-.28-.23-.54-.47-.81-.71,0,0-.43-.31-.44-.3a6.67,6.67,0,0,0-.92-.39,3.69,3.69,0,0,1-.47,0,2.56,2.56,0,0,0-.4.22c-.3.83.22,1.38.62,2a54.53,54.53,0,0,0,7,6.68c1.55,1.2,3.29,2.31,3.11,4.68a2.28,2.28,0,0,1-1.64,1.49c-4.62-.48-7.65-3.85-11.17-6.28-4.48-3.11-11.67-.08-12.33,5.37-.3,2.44,1.75,2.9,3.34,3.67,4.69,2.29,10,1.42,14.88,3a28.1,28.1,0,0,0,8.55,1.46c1.39-.23,2.11-2.36,3.93-1.4,2,2.22,3,4.64,1.6,7.56-1,1.77-2.1.46-3.16,0-.74.67-1.25.15-1.76-.34-.77-.75-1.79-.68-2.74-.82a17.33,17.33,0,0,0-7-1c-8.4-.64-16.48-2.34-23.95-6.49-5.65-3.13-7.66-6.5-6.72-12.08a9.38,9.38,0,0,1,1.18-1.81c.29-.28.59-.57.87-.86.63-.34.62.52.35-.14-.15-.35-.58-.07-.87.1A1.73,1.73,0,0,1,195.07,250Z" transform="translate(-97.56 -105.76)"/><path class="cls-5" d="M273.16,254.18c3.56,4.5,2.23,9.36,1.07,14.21.93,1.28.6,2.52-.12,3.75-5.84,4.09-9.15,10.53-14.21,15.35a3.26,3.26,0,0,1-2.43-.25c-4.24-5.19-7.25-10.89-7.33-17.81a3.57,3.57,0,0,1,1.72-2.71c4.11-1.36,6.37,3.09,10.48,3.26-2.23-1.73-4.42-2.79-6.36-4.21-2.57-1.88-2.73-4.46.35-5.32,5.44-1.52,9.16-5.86,14.29-7.76C271.91,252.43,272.55,253.28,273.16,254.18Z" transform="translate(-97.56 -105.76)"/><path class="cls-6" d="M285.33,309.72c10,13.5,21.17,26.15,30.08,40.49,3.53,5.66,8.09,10.61,11.35,16.53,7.35,13.35,8.81,27.52,5.85,42.13-2.26,11.19-5.58,22.11-13.52,30.9l-.7-.43a4.47,4.47,0,0,1-1.21-3c5.49-9.44,9.7-19.31,11.53-30.2,2.83-16.86-1.11-31.89-10.93-45.71-10.7-15-21.68-29.88-32.65-44.73-1.07-1.45-2.22-2.91-1.74-4.93C283.78,310,284.28,309.33,285.33,309.72Z" transform="translate(-97.56 -105.76)"/><path class="cls-7" d="M213.05,203.73c3,3.89,2.28,8.46,2.37,12.88l-.39.67c-2.27-.76-2.3-2.84-1.9-4.41,1-3.84-1.48-1-2.28-1.32a3.86,3.86,0,0,1-2.16-1c-5.69-4.28-7.89-10.65-9.63-17.07-2.77-10.18-1.09-20.13,2.7-29.79,6.22-15.81,16.75-28.21,30.17-38.38,4.45-3.38,9.61-3.13,14-1.63,9.16,3.11,17.41,8.06,22.71,16.7a4.79,4.79,0,0,1,.34,1c.45,1-.13,1.5-.93,1.87-2.62.07-3.65-2.17-5-3.71a43.53,43.53,0,0,0-16.35-11.36c-4.92-2-9.57-2-13.83,1.41-16.14,12.83-27.57,28.68-31,49.44-1.34,8.17,1,15.75,4.83,23C208.39,205.28,210.33,205.51,213.05,203.73Z" transform="translate(-97.56 -105.76)"/><path class="cls-8" d="M219.89,200.68c-1,.29-1.33,2.1-2.55,1.66s-1.63-1.8-1.22-3.17a2.17,2.17,0,0,0-.84-2.83c-1.63-1.77-1-3.75-.42-5.65,2.17-7.5,4-15.08,6.13-22.59a33.09,33.09,0,0,1,32.32-24.36c9.95,0,15.9,6,19.7,14.6a34,34,0,0,1,1.28,4.65c1,1.58-.2,4,2,5.16-.25,5.77,1,11.53.12,17.31-1.7,2.77,1.08,6.42-1.75,9-3.32-1.89-3-5.22-2.85-8.19.37-7.34-.86-14.44-2.67-21.48-3-11.9-10.82-16.85-22.73-13.93-10.06,2.47-17,8.68-19.79,18.88-2.19,8-4,16.22-6.59,24.13C219.19,196.27,220.43,198.42,219.89,200.68Z" transform="translate(-97.56 -105.76)"/><path class="cls-9" d="M176.11,449.43c2-1.9,4.46-.86,6.73-1,2.54,2.06,4.46,4.82,7.2,6.62,2.21,1.46,4.58,3,5.14-1.75.39-3.25,2.42-2.51,4.13-.8a8,8,0,0,1,1.61,3.42c1.3,4.15,3.58,3.71,6.75,1.41-2.08-1.94-4-3.57-5.28-5.76-.59-1-2-2.07-.84-3.33a2.66,2.66,0,0,1,3.94-.11c2.9,3.45,7.2,3.85,10.91,5.52.38,1.14,2,1.21,2.15,2.56a2.77,2.77,0,0,0-3,.81c-1.81,2.13-4.34,3.22-6.59,4.74-3.5,2.35-6.9,3.13-10.41.1a2.57,2.57,0,0,0-1.95-.75c-7.5.53-11.93-4.4-16.15-9.41A5.24,5.24,0,0,0,176.11,449.43Z" transform="translate(-97.56 -105.76)"/><path class="cls-10" d="M309.37,445.38c-.77,1.82-2.27,2.53-4.09,3.11-6.47,2.07-12.86.58-19.06-.79-4.66-1-7.6-4.63-8-9.79-.29-4.27.31-8.24,3.58-11.38l.75,0c1,.35,1.91.77,1.69,2.1a13.64,13.64,0,0,0-1.94,9.84c.46,2.52,1.82,4.52,4.34,5,3.23.6,2.26-2.52,3-4.06a5,5,0,0,1,2-2.47,2.65,2.65,0,0,1,2.23.2c2.39,8.88,2.4,8.89,11.94,6.61a5.57,5.57,0,0,1,2.11-.15,3.18,3.18,0,0,1,1.22,1C309.24,444.86,309.31,445.12,309.37,445.38Z" transform="translate(-97.56 -105.76)"/><path class="cls-11" d="M217.69,239.93c-1.47.16-2.3-.46-2.36-2a2.82,2.82,0,0,0-.93-2.28c0-2.08.86-4.25,2.52-5,3.5-1.58,3.22-4.17,2.81-7.05,1.09.38,3.27-1.9,3.19,1.32a7.41,7.41,0,0,0,2.15,5.85c6.37,6.24,11.85,13.46,19.76,18-.22,1.75-2.28,3.13-1.05,5.17-2.52,1.25-3.5-1.08-4.82-2.24a157.54,157.54,0,0,1-14.17-14c-1.24-1.41-2.49-3.52-4.81-2.86S218.52,238.26,217.69,239.93Z" transform="translate(-97.56 -105.76)"/><path class="cls-12" d="M285.33,309.72l-1.44,1.5c-4.92-2.73-10.59-13.53-9.85-18.74a2.62,2.62,0,0,0,1.12-2.2c.08-1.08.31-2.08,1.71-2.11-1.78,3.16-.14,5.88,1.24,8.52C280.42,301.09,282.92,305.39,285.33,309.72Z" transform="translate(-97.56 -105.76)"/><path class="cls-13" d="M274.35,194.17c1.4-1.21.89-2.86,1-4.37s-.4-3.15,1-4.34c.14,8.87.76,17.76-.86,26.59-.51-1.2,0-2.73-1.25-3.68C272.34,203.63,273.56,198.9,274.35,194.17Z" transform="translate(-97.56 -105.76)"/><path class="cls-14" d="M273,271.72c1.3-.78.86-2.2,1.23-3.33.65,5.16,3.56,9.48,5.36,14.21-1.23.67-.47,2.88-2.34,3.06C275.41,281.14,271.48,277.26,273,271.72Z" transform="translate(-97.56 -105.76)"/><path class="cls-15" d="M267.57,143l1.44-1.5c2.61,2.75,3.2,6.42,4.43,9.8.35,1.07-.13,1.6-1.15,1.78C268.89,150.54,266.71,147.46,267.57,143Z" transform="translate(-97.56 -105.76)"/><path class="cls-14" d="M273.16,254.18l-2.06-1.05c-.72-3.3-1.54-6.6,0-9.9.82-.56.72-1.54,1.05-2.32C275.1,245.14,274.33,249.64,273.16,254.18Z" transform="translate(-97.56 -105.76)"/><path class="cls-16" d="M208.69,210.6l2.53.06c1.07,1.28,1,2.93,1.41,4.43s.82,2.72,2.74,2l0-.47c1.18,1,1.18,2.37,1,3.75-1.64-1.09-3.57-.85-5.38-1.14-.42-.31-.77-.7-1.18-1C208.12,215.89,209.79,213,208.69,210.6Z" transform="translate(-97.56 -105.76)"/><path class="cls-17" d="M275.46,422.45c-.91-1.84-1-3.48,1.12-4.57,1.92,1.1,4.28.47,6.21,1.58a2.1,2.1,0,0,1,.8,2,1.49,1.49,0,0,1-1,1.06Z" transform="translate(-97.56 -105.76)"/><path class="cls-18" d="M276.26,168.15c-.68.16-1.15,2.62-1.9.48-.55-1.56-1.36-3.27-1-5.1a1.55,1.55,0,0,1,1-.46c.57-.09.72-.79,1.29-.87A10,10,0,0,1,276.26,168.15Z" transform="translate(-97.56 -105.76)"/><path class="cls-19" d="M275.58,162.2c-.49.43.24,2.48-1.56,1.18-.44-1.36-.69-2.78-1.22-4.12a4.22,4.22,0,0,1-.08-1.46,3,3,0,0,1,1.76-2.26A16,16,0,0,1,275.58,162.2Z" transform="translate(-97.56 -105.76)"/><path class="cls-20" d="M274.48,155.54a4,4,0,0,1-1.14,2.64c-1.34-1.62-2.73-3.24-1.17-5.48l1.27-1.44C274.64,152.48,274.36,154.05,274.48,155.54Z" transform="translate(-97.56 -105.76)"/><path class="cls-10" d="M313.54,444.08c-1.13,1.28-2.88.55-4.17,1.3a6,6,0,0,1-.34-.53c.61-2.46,2.28-1.9,3.93-1.38C313.16,443.67,313.35,443.87,313.54,444.08Z" transform="translate(-97.56 -105.76)"/><path class="cls-17" d="M281.85,426.53c0-1.23-.17-2.51.84-3.51a1.55,1.55,0,0,1,1,.93c.16,1.21.3,2.42-1.36,2.73Z" transform="translate(-97.56 -105.76)"/><path class="cls-6" d="M315.65,442.88a2.13,2.13,0,0,1-2.11,1.2l-.06-.39c.06-1,.68-1.22,1.52-1.19Z" transform="translate(-97.56 -105.76)"/><path class="cls-6" d="M319.09,439.77a1.14,1.14,0,0,1-1.09,1.11l-.33-.65a1.12,1.12,0,0,1,1.12-.7Z" transform="translate(-97.56 -105.76)"/><path class="cls-17" d="M282.69,423a.29.29,0,0,1-.09-.5l.51-.44c.42-.09.78,0,.88.38.18.65-.22.91-.81,1Z" transform="translate(-97.56 -105.76)"/><path class="cls-6" d="M318,440.88a1.21,1.21,0,0,1-1.14,1l-.26-.69a1.06,1.06,0,0,1,1.19-.56Z" transform="translate(-97.56 -105.76)"/><path class="cls-6" d="M316.86,441.91a1.12,1.12,0,0,1-1.21,1l-.08-.13c0-.81.29-1.2,1.13-1Z" transform="translate(-97.56 -105.76)"/><path class="cls-21" d="M209.9,218.21a1.49,1.49,0,0,1,1.18,1A1,1,0,0,1,209.9,218.21Z" transform="translate(-97.56 -105.76)"/><path class="cls-22" d="M162.77,446a31.3,31.3,0,0,0-3.06,2.25c-2,1.87-4.23,1.87-6.59,1-2.74-1-5.48-1.91-8.16-3-4.65-1.9-7.53-5.45-9.26-10.1-3.5-9.36-2.56-19-1.58-28.57,1.11-10.88,4.25-21.34,7.68-31.69,3.19-9.61,8.58-18.09,15-25.71,10.33-12.16,18.22-25.73,25-40.07,2.47-5.26,5.49-10.22,8.36-15.27,5-8.76,12.51-13.86,21.92-16.64.31.24.41.47.3.7s-.22.34-.32.34l-2.18,2.15a8.51,8.51,0,0,1-5.57,5.43c-2,1.68-.22,4.55-3.74,6.26,5.32.89,9.12.75,12,3.85a13.73,13.73,0,0,1,3.77,6.32,60.36,60.36,0,0,0,4.36,12.06c2.73,3.38,2.29,7.65,2.48,11.43.52,10.3.8,20.65-.88,30.92a5.63,5.63,0,0,1-1.41,3.44c-2,13.88-6.7,27-11.31,40.11a52.19,52.19,0,0,0-3.11,20.26,64,64,0,0,1-.27,7c-.37,7-4.51,11.08-10.43,13.91-8.08,3.85-16.77,4.19-25.46,4.54l-3.8.14c-2.21-3,1.74-3.35,2-5C166.94,443.58,165.36,445.52,162.77,446Z" transform="translate(-97.56 -105.76)"/><path class="cls-22" d="M274,292.48a62,62,0,0,0,9.85,18.74c5.39,8.62,11.85,16.46,17.95,24.56,8,10.57,15.83,21.24,22.44,32.7,7.86,13.6,8.29,28.21,4.72,43.23a75.72,75.72,0,0,1-11.21,25.68c0,.18,0,.37-.05.55a4.4,4.4,0,0,1-.58.95l-.37.41c-.25.29-.52.56-.78.84s-.27.28-.4.43a11.77,11.77,0,0,1-.85.88l-.51.39a4.5,4.5,0,0,1-1.21.53,2.76,2.76,0,0,1-1.31-.44,5.75,5.75,0,0,1-1.46-1.61c-3-6.29-9.08-9.1-14.58-12.52-1.95-1.22-4.5-1.6-5.67-3.95a3.15,3.15,0,0,1,.52-2.42c1.22-1.21,2-2.36,1.12-4.29-3.22-7.28-3.12-15.13-3.66-22.88s-1.44-15.49-1.09-23.29c-.14-3.79.43-7.61-.46-11.37a17.51,17.51,0,0,1-.48-3.3,14.86,14.86,0,0,0-.55-3.81,14.42,14.42,0,0,1-.44-2.91,13.16,13.16,0,0,0-.52-3.41,9.49,9.49,0,0,1-.32-1.3,17.32,17.32,0,0,0-.75-3.2,9.48,9.48,0,0,1-.33-1.27,15.67,15.67,0,0,0-.77-3.16,12.09,12.09,0,0,1-.44-1.28c-.28-.9-.61-1.79-.94-2.68a14.69,14.69,0,0,1-.45-1.47c-2.56-7.38-6.84-13.93-10-21-2.12-4.8-4-9.68-2.7-15.11C269.55,294,271.84,293.31,274,292.48Z" transform="translate(-97.56 -105.76)"/><path class="cls-23" d="M228.37,436.15c-2.14.3-4,.52-3.71-2.76.81-9.17-4.7-13.94-13.62-12-.49.1-1,.14-1.69.23a32,32,0,0,1,1.39-14.06c2.85-9.17,5.86-18.3,8.79-27.45a19.7,19.7,0,0,0,1.34-4.68c.25-4.32,3.09-6,6.67-6.54,11.1-1.75,21.93-4.95,33.09-6.35,3.06-.38,6.11-1,9.2-.23a13.48,13.48,0,0,1,6.49,11.28c.32,9.59,1.2,19.19.5,28.79a52.17,52.17,0,0,1-1,6.43c-1.31,6.69-4.86,11-11.49,13.76-10.52,4.47-21.33,8-32.09,11.73C230.87,434.79,229.36,434.93,228.37,436.15Z" transform="translate(-97.56 -105.76)"/><path class="cls-22" d="M254.55,360.9c-7.07,1.37-14.16,2.63-21.2,4.17-3.12.68-6.53.41-9.29,2.48-3.08-3.16-2-7.1-1.67-10.68,1.36-15.5.37-30.95-.31-46.42-.14-4-2.23-7.49-3.47-11.78,5.08,3.24,8.15,7.54,11.64,11.42a109.12,109.12,0,0,1,22.13,38.83c1,2.92,1.92,5.84,3,8.71C255.88,359,255.89,360.08,254.55,360.9Z" transform="translate(-97.56 -105.76)"/><path class="cls-22" d="M211.34,282.74c3.83-2.33,7.58-4.7,12-5.94,9.2-2.6,21.53,3.41,24.83,12.34.67,1.82.66,3.92,2.06,5.47,3.62,6.23,3.3,13.21,3.78,20,.69,9.56,1.27,19.12,1.92,29.07-2.35-1.42-2.54-3.53-3.29-5.22-4.39-10-8.9-19.83-15.87-28.32-6.37-7.76-13.58-14.56-22.43-19.48a19.29,19.29,0,0,0-7.6-2.72C206.5,284.66,208.69,283.5,211.34,282.74Z" transform="translate(-97.56 -105.76)"/><path class="cls-22" d="M283,420.09c-1.75,0-3.51.05-5.26,0s-1.25-1.24-1.14-2.23c3.38-4.06,4.69-9,5.1-14,.81-9.93,1-19.9-.8-29.79-1.24-6.87-4.3-12.34-11.25-14.69-2.43-.82-2.7-2.53-3-4.53-1.51-9-1.68-18-2.06-27.08-.19-4.51,0-9.05,0-13.57,1.38-4.32-.72-8.95,1.17-13.22,1.16-.22,1.65.56,1.87,1.43,2.29,9.35,7.77,17.26,11.71,25.85,1,2.15,1.25,4.48,1.95,6.68a6,6,0,0,1,.5,1.46,12.07,12.07,0,0,0,.85,2.82,8.3,8.3,0,0,1,.34,2.1,18.22,18.22,0,0,0,.75,3.33A7,7,0,0,1,284,346a30.9,30.9,0,0,0,.89,3.4,11.78,11.78,0,0,1,.23,2.22c0,1.59.71,3,1,4.57.13,1.13.07,2.26.26,3.38.57,3.61-.11,7.3.87,10.87.25,15.58.39,31.15,3.84,46.46.63,2.76-.73,4.08-3.33,4.45A6.09,6.09,0,0,1,283,420.09Z" transform="translate(-97.56 -105.76)"/><path class="cls-24" d="M216.4,453.67c-4.29.37-8.42.46-10.81-4.22-.8-1.57-2.29-1.54-3.87-.77,2.81,2.89,3.85,7.52,9.67,7.67a19.46,19.46,0,0,1-6.23,4.27c-2.6,1.22-4.35.3-5-2.67a17.41,17.41,0,0,0-1.62-4.59c-.52-.92-1.3-2.07-2.51-1.35-1,.6-.26,1.56.24,2.33a5.17,5.17,0,0,1,.78,3.39c-2.43,1.36-5,.46-7-.77a24.34,24.34,0,0,1-7.52-7.53c-.11-.17.22-.64.34-1,8.78-.41,16.67-2.89,22.64-9.79,1.78-2.06,3.23-4.11,2.91-7.23-.19-1.83-.1-4.12,1.16-5.74a5.79,5.79,0,0,1,6.31-2.1c3.3.84,5.8,3.33,6.24,6.1.4,2.55-.77,4.16-2.9,5.26-2.73,1.4-5.53,2.69-8.18,4.23-1,.54-2.55,1.34-1.52,2.89.88,1.3,1.93.11,2.82-.32,2.43-1.19,4.8-2.5,7.25-3.66,3.19-1.5,5.38,0,4.91,3.48a23,23,0,0,1-1.62,4.56C220.7,448.64,217.77,450.48,216.4,453.67Z" transform="translate(-97.56 -105.76)"/><path class="cls-24" d="M269.89,550.85c3.71,1,7.53.87,11.32,1.15,4.25.31,5.78,1.8,6.14,6a27.18,27.18,0,0,1-.11,6c-.78,5.91-2.52,7.41-8.41,6.83a95,95,0,0,1-12.31-2.06,54.89,54.89,0,0,0-17.22-1.48,5.51,5.51,0,0,1-3.24-.33c-.54-2.52,1.18-4.89.55-7.48-.41-1.66,1.29-2,2.18-2.74,3-2.65,6.45-4.75,8.42-8.69,2.1.21,3.76,2.08,6,1.86,5.92.36,4.36,4.61,4.42,7.81C268.87,555.86,265.66,552.06,269.89,550.85Z" transform="translate(-97.56 -105.76)"/><path class="cls-25" d="M203.19,611.83c1.8-5.81,5.26-10.74,8.95-15.38,4.77-6,9.07-12.21,11.75-19.4.66-1.76,1.49-2.14,3.14-2,4,.26,8,.19,12-2.09,2.72,9.59,7.36,18.18,12.64,26.45-1.67.93-2.58,0-3.44-.43-9.79-4.93-19.2-3.56-28.47,1.46-5.95,3.22-11.46,6.94-15.32,12.67C203.4,613.29,202.84,613,203.19,611.83Z" transform="translate(-97.56 -105.76)"/><path class="cls-26" d="M217.69,239.93c-1.36-2.56-.68-6.15,1.38-7.28a2.35,2.35,0,0,1,2.92.58,37,37,0,0,1,3.89,3.71c5.28,6.41,11.58,11.73,17.9,17l1,1.3c5.19,3.49,6.84,8.53,6.33,14.51.69,6.34,4.11,11.58,6.84,17.1.26,3.77-.12,7.23-4.42,8.69-.69-1.45-1.39-2.89-2.08-4.33a6.2,6.2,0,0,0-1.25-4.32c-.76-1.45-.81-3.08-1.25-4.61-.78-2.19-1.46-4.41-2.21-6.61a42.77,42.77,0,0,0-1.72-4.92c-1-2.78-3-5.08-4.31-7.69-1.22-3.81-4.57-6.48-5.52-10.43a.52.52,0,0,0-.44-.65,2.46,2.46,0,0,0-.91-1l-.05-.05a4,4,0,0,0-1-1l-.05,0a4.15,4.15,0,0,0-1-1.05l0-.05a7.08,7.08,0,0,0-1-1.1h0c-.34-.4-.72-.75-1-1.15v0a5.89,5.89,0,0,1-1.09-1.14l0,0a6.15,6.15,0,0,1-1.14-1.08h0a8.92,8.92,0,0,0-1.18-1l-.09,0c-.44-.82-1.49-.5-2-1.1A11.32,11.32,0,0,0,217.69,239.93Z" transform="translate(-97.56 -105.76)"/><path class="cls-22" d="M273,271.72a28.1,28.1,0,0,0,3.32,8.92c.85,1.62,1.68,3.15.93,5-7.89-.74-12.88,4.4-18.13,9-1,.37-1.53-.24-1.92-1-.19-2.72,1.06-4.82,2.82-6.71a52.3,52.3,0,0,1,8.83-12C270.08,273.66,271.05,272,273,271.72Z" transform="translate(-97.56 -105.76)"/><path class="cls-22" d="M226.08,446a12,12,0,0,1,4.56-7.4l24.29-7.76c-1,5.7-3,8.11-9,9.31a72.55,72.55,0,0,0-19.65,7.51A1.23,1.23,0,0,1,226.08,446Z" transform="translate(-97.56 -105.76)"/><path class="cls-27" d="M222.08,310.45c1.43,3.76,1.63,7.73,1.87,11.66a243.39,243.39,0,0,1-.8,40.67c-.17,1.53-1.48,3.6.91,4.77-1,1.16-1.76.9-2.12-.49-.49-1.95.75-4.22-1-5.95.07-7.91,1.15-15.77,1.09-23.7-.05-7.4-1-14.72-1.28-22.09C222.5,314.07,221.52,312,222.08,310.45Z" transform="translate(-97.56 -105.76)"/><path class="cls-28" d="M280.73,336.14a111.81,111.81,0,0,0-9.94-21.61c-2.38-4.13-3.48-8.74-4.28-13.4-1.49-1.2-.31-3-1-4.38a2.19,2.19,0,0,1,2.26-1.08c1.38,7.07,2.59,14.15,6.76,20.34a70.77,70.77,0,0,1,4.8,9.08c1.17,2.42,2.43,4.85,2.46,7.65C280.92,333.7,282.1,335.32,280.73,336.14Z" transform="translate(-97.56 -105.76)"/><path class="cls-29" d="M269.89,550.85c-1.35.54-1.07,1.66-1,2.74a37.87,37.87,0,0,1,0,4.88c-.15,1.61-.6,4-2.34,3.66-2.32-.45-.65-2.52-.45-3.94.17-1.25.09-2.54.31-3.77.49-2.7-1-3.83-3.25-4.52C265.48,549.75,267.85,549.15,269.89,550.85Z" transform="translate(-97.56 -105.76)"/><path class="cls-30" d="M260,286.89l-2.19,6.51c-.55.69-.16,1.66-.7,2.35a3.77,3.77,0,0,1-1.54,1.07c-.87-.1-1.91.06-2-1.25,2.82-2.22,2.65-5.95,4.42-8.69Z" transform="translate(-97.56 -105.76)"/><path class="cls-31" d="M265.53,296.75c1.67,1.16,1.09,2.82,1,4.38-1.44,1.94-.51,4.19-.8,6.29-.32,2.26.46,4.72-1.15,6.77-.28-5.21.87-10.43-.1-15.65C264.37,298,265.15,297.35,265.53,296.75Z" transform="translate(-97.56 -105.76)"/><path class="cls-32" d="M211.34,282.74c-1.1,2.12-4.2,2.48-4.6,5.22l-2.42-1.13c1.13-2.55,3.25-4.09,5.57-5.43Z" transform="translate(-97.56 -105.76)"/><path class="cls-33" d="M203.19,611.83l1.25,1.24c-.17,1.09-1,2.47-1.77,1.93C201.68,614.3,202.14,612.77,203.19,611.83Z" transform="translate(-97.56 -105.76)"/><path class="cls-34" d="M256.67,295.61a3.48,3.48,0,0,1,1.16-2.21l1.29,1.25a3.33,3.33,0,0,1-2.33,2.24.83.83,0,0,1-.35-.83C256.51,295.76,256.58,295.61,256.67,295.61Z" transform="translate(-97.56 -105.76)"/><path class="cls-35" d="M224.13,447.37l.9-.19c.63.35.68.78.15,1.27C224.18,449.06,224.18,449.06,224.13,447.37Z" transform="translate(-97.56 -105.76)"/><path class="cls-36" d="M225.18,448.45l-.15-1.27,1.05-1.23c.08.55.15,1.11.23,1.66C226.28,448.35,225.75,448.43,225.18,448.45Z" transform="translate(-97.56 -105.76)"/><path class="cls-37" d="M256.67,295.61l.12,1.28c-.47,1.3-.84.71-1.2-.07Z" transform="translate(-97.56 -105.76)"/><path class="cls-38" d="M197.91,249.83a1.35,1.35,0,0,1-.33.9,2,2,0,0,1-.79,1.24c-2.56,5.53.38,9.27,5.36,11.68,6.47,3.12,13,6.23,20.45,6.07,1.2,0,2.41.64,3.61,1-2.22,3.57-6.1,0-8.67,2-7.62,3.19-15.62,5.58-22.65,11.18a31.73,31.73,0,0,0-3-15.73c-2.91-6.45-1.58-12.75,3.2-18.14l1.57-.44A1,1,0,0,1,197.91,249.83Z" transform="translate(-97.56 -105.76)"/><path class="cls-26" d="M232.85,258.47c-1.77-2.79-5-4-7.13-6.39a44.81,44.81,0,0,1-3.81-4.44c-.34-1.31-1.7-2.95,1.07-3.24h0c.59.64,1.67.39,2.15,1.21l-.07,0a3.22,3.22,0,0,1,1.21,1l0,0a8.87,8.87,0,0,1,1.12,1.09h0a9.52,9.52,0,0,1,1.09,1.11l0,0a7.83,7.83,0,0,1,1.11,1.12l0,0a8.32,8.32,0,0,1,1.13,1.09h0c.39.33.73.72,1.15,1l0,0a7.08,7.08,0,0,0,1.06,1.06l0,0a10.39,10.39,0,0,1,1,1.22l0,0c3.82,2,5.32,5.89,7.38,9.31,1.49,2.67,3.41,5.09,4.53,8,.53,1.52,1.42,3,.88,4.68-.43.77-.95,1.35-1.95.94l-4.18-3.43c-.81-2.49-.94-5.2-2.36-7.5C235.3,264.37,233.91,261.54,232.85,258.47Z" transform="translate(-97.56 -105.76)"/><path class="cls-39" d="M217.54,272.71c1.21-1.52,3-1.09,4.52-1.24,1.41-.13,2.93.35,4.15-.77,2.49-.19,4.8.83,7.22,1.1a2.65,2.65,0,0,1,1.9,1,1.28,1.28,0,0,1-.37,1.32A41.07,41.07,0,0,0,217.54,272.71Z" transform="translate(-97.56 -105.76)"/><path class="cls-40" d="M162.77,446c2.22-2.72,5.66-4.13,7.71-7.23.88,2.2-.67,3.32-1.73,4.69-.88,1.13-3.17,1.45-2.23,3.68C164.94,447.83,164.07,446.18,162.77,446Z" transform="translate(-97.56 -105.76)"/><path class="cls-41" d="M250,281.51c.08,1.8.15,3.6.23,5.41-1.3-.75-1.59-2.13-2.08-3.38.56-.64.16-1.65.82-2.26A.7.7,0,0,1,250,281.51Z" transform="translate(-97.56 -105.76)"/><path class="cls-42" d="M247.13,281.38,246,279.21c.27-.78.69-1.38,1.64-1.32,1.35.93,1,2.21.74,3.49A.8.8,0,0,1,247.13,281.38Z" transform="translate(-97.56 -105.76)"/><path class="cls-43" d="M247.09,278.09,246,279.21l-1.37-2,1.39-1.41a1.16,1.16,0,0,1,1.28.31A1.86,1.86,0,0,1,247.09,278.09Z" transform="translate(-97.56 -105.76)"/><path class="cls-44" d="M214.27,277c.55-.76,1.92-1.24,2-.74.35,1.28-1,1.6-2,2C213.68,277.84,213.67,277.42,214.27,277Z" transform="translate(-97.56 -105.76)"/><path class="cls-45" d="M247.13,281.38l.91.07a.93.93,0,0,1,1.46.05c-.3.79-.29,1.78-1.36,2Z" transform="translate(-97.56 -105.76)"/><path class="cls-46" d="M235,274.13c0-.43,0-.86,0-1.29.34-.5.71-.52,1.12-.08a1.52,1.52,0,0,0,1.24,1C236.8,275.77,235.91,275.16,235,274.13Z" transform="translate(-97.56 -105.76)"/><path class="cls-47" d="M214.27,277c0,.42,0,.83,0,1.24-.77.3-1.27,1.2-2.25,1a4,4,0,0,1,0-1C212.48,277.22,213.37,277.09,214.27,277Z" transform="translate(-97.56 -105.76)"/><path class="cls-48" d="M241.11,276.52c-.12.13-.27.4-.36.38a6.79,6.79,0,0,1-.94-.37c.13-.14.28-.4.37-.38A5.63,5.63,0,0,1,241.11,276.52Z" transform="translate(-97.56 -105.76)"/><path class="cls-49" d="M274.35,194.17c1.18,4.74.3,9.47-.08,14.2a26.46,26.46,0,0,0-2.46,2.13c-1.6,1.77-2.59,1.8-5.21.73-6.54-2.67-13.75-2.4-20.8-1.82-2.06.17-2.32,2.07-3.31,3.26-2.28,0-1.42-1.64-1.49-2.8.11-2.23,2-3.5,2.82-5.37.9-1.25,1.69-2.61,3.31-3.09,1.39-.1,2.35,1.75,3.89.89.74.16.11-1.11.23-.4,0,.16-.18.06-.52.12-1.69.35-2.62-.59-3.38-1.86-.12-.33-.16-.7-.26-1-.18-.57-.31-.62-.33-.1a13.45,13.45,0,0,1-2.3,4.29c-1.06,2.1-2.86,3.78-3.49,6.14a4.8,4.8,0,0,1-.25,1.4c-.81,2.74-.68,5.63-1.42,8.38-4.25,2.33-4.84,2.17-7.48-.94-1.28-1.5-1.66-4.47-4.87-3.4-1,.33-1.27-.89-1.2-1.38.49-3.23-1.68-5.53-3.46-7.25s-1.76-3.68-2.4-5.58c-2.31-2.91-2.33-2.91-1.29-6.87,2.22-8.41,4.67-16.77,6.65-25.24,2.47-10.59,15.35-21,29-20.36a14.93,14.93,0,0,1,13,8.58,53.48,53.48,0,0,1,5.78,27.26C272.93,187.54,272.78,190.93,274.35,194.17Z" transform="translate(-97.56 -105.76)"/><path class="cls-50" d="M272.17,152.7l1.17,5.48c-.07.36-.13.73-.2,1.09a.53.53,0,0,1-.94-.05c-1.59-3.05-3.15-6.11-5.62-8.61A17.75,17.75,0,0,0,254,145.08c-15.37-.27-29.23,11.19-31.53,22.83-1.9,9.59-5.37,18.8-7.14,28.43a19.22,19.22,0,0,0-2.23,7.39c-1.48,1.17-.48,4.15-2.58,4.44-2.41.34-3-2.31-3.95-3.89C200.1,194,198.67,183,202,171.37c5.11-17.78,15.7-31.66,30.07-43,4.82-3.81,9.78-3.51,14.87-1.58A42.5,42.5,0,0,1,267.57,143Q269.87,147.84,272.17,152.7Z" transform="translate(-97.56 -105.76)"/><path class="cls-26" d="M271.12,243.23c.45,3.3,1.43,6.6,0,9.9-4.56,3.05-8.28,7.57-14.3,8.13a1.91,1.91,0,0,0-1.7,1.85c0,1.05.8,1.48,1.71,1.76,3.17,1,5.12,3.9,8.55,5-4.86,2.72-4.9,2.76-8.2-.28-1.37-1.25-2.75-2.32-4.72-2.28-2.31-4.54-5.83-8.62-5.47-14.19a10.62,10.62,0,0,0,6.6-3.16c3.06-2.84,5.84-5.91,8.67-8.95,3.14-3.35,4.39-3.34,7.39,0A18.39,18.39,0,0,1,271.12,243.23Z" transform="translate(-97.56 -105.76)"/><path class="cls-51" d="M244.83,248.8a2.26,2.26,0,0,1-3.25-.09c-5-4.19-9.38-9-14-13.6a44.4,44.4,0,0,0-3.84-3.8c-2.47-1.91-2.72-3.95-.85-6.36,4.12,1.38,7.29,4.07,10.32,7.1a8,8,0,0,0,4.75,2.32c1.75.18,3.51.12,3.83,2.64.15,1.2,1.75,1,2.69,1.43,1.94.83,3.91,1.58,6.17,2.48C249.09,244.12,246.08,245.84,244.83,248.8Z" transform="translate(-97.56 -105.76)"/><path class="cls-52" d="M251.24,230.05c-2.37.36-3.54-2.07-5.72-2.42-1.09-.18-1.81-1.69-1.64-3.13.31-2.7.66-5.39.91-8.1.14-1.47,1.35-1.45,2.29-1.86,2.8-1.21,5.73-.5,8.58-.51a54,54,0,0,1,7,.9c.93.11,1.7.23,2.1,1.3,1.7,4.5-.83,10-5.7,12.18a3.33,3.33,0,0,1-1-1c-1.71-1.92-1-4.07-.56-6.19a3.48,3.48,0,0,1,.3-1.28c-1.7-2.86-4-1.06-6.09-.73-.27.05.62.53.9.91A2.28,2.28,0,0,1,253,222a1.71,1.71,0,0,1-.81,1c-.3-.06-.8-.09-.86.1-.13.42.49.5.64.85a11.53,11.53,0,0,1,1,4A2.32,2.32,0,0,1,251.24,230.05Z" transform="translate(-97.56 -105.76)"/><path class="cls-53" d="M247,253.08l5.47,14.19c-.91.59-.93,1.65-1.31,2.51a44.66,44.66,0,0,0-6.33-14.51C245.91,254.93,245.39,253,247,253.08Z" transform="translate(-97.56 -105.76)"/><path class="cls-54" d="M239.3,219.23c-1.21-3.09-1.15-6,1.13-8.64,1.76,2.33.09,5.16,1.11,7.59C241.21,219.43,240.05,218.89,239.3,219.23Z" transform="translate(-97.56 -105.76)"/><path class="cls-55" d="M241.54,218.18c-2.29-2.25-.74-5.06-1.11-7.59l.08-1.23c.33-.44.66-.41,1,0,.12,1.16-.13,2.44,1,3.29A13,13,0,0,1,241.54,218.18Z" transform="translate(-97.56 -105.76)"/><path class="cls-56" d="M251.24,230.05l1-1.91c1.15-1.41,2.62-1.34,4.17-.89a2.82,2.82,0,0,1,1.66,2.05C255.92,230.56,253.57,230.26,251.24,230.05Z" transform="translate(-97.56 -105.76)"/><path class="cls-57" d="M258.09,229.3l-1.17-1.13c.22-1.1.8-1.67,2-1.35,0,.53.09,1.06.13,1.59C259.09,229.09,258.62,229.23,258.09,229.3Z" transform="translate(-97.56 -105.76)"/><path class="cls-38" d="M236.05,269.44c-6.17-1.14-12.25-2.69-18.52-3.23a26.79,26.79,0,0,1-10.2-3.38c-1.86-1-2.16-2.2-.85-3.88,1-1.28,1.81-2.7,2.83-4,4.82-5.93,6.51-6,12.66-1.41,3,2.26,6.26,4.18,9.41,6.25C235.18,262,237.48,264.79,236.05,269.44Z" transform="translate(-97.56 -105.76)"/><path class="cls-58" d="M240.58,264l-6.77-9.68c.46-.54.93-1.07,1.4-1.61a22.3,22.3,0,0,1,6.42,10.1C242.19,264,241.54,264.08,240.58,264Z" transform="translate(-97.56 -105.76)"/><path class="cls-59" d="M236.05,269.44c.21-4.06-2.72-6.59-4.67-9.61l1.47-1.36c2.66,2,4,4.83,5.26,7.77C236.78,266.89,237.55,268.9,236.05,269.44Z" transform="translate(-97.56 -105.76)"/><path class="cls-58" d="M223,244.4c-1.81.61-.77,2.14-1.07,3.24a2.42,2.42,0,0,1-1-2.74C221.22,243.48,222,243.24,223,244.4Z" transform="translate(-97.56 -105.76)"/><path class="cls-60" d="M197.91,249.83l-1.27-.25a1,1,0,0,1,1.62-.69C198.93,249.31,198.49,249.68,197.91,249.83Z" transform="translate(-97.56 -105.76)"/><path class="cls-2" d="M236.07,272.76l-1.12.08-1.52-1A2.35,2.35,0,0,1,236.07,272.76Z" transform="translate(-97.56 -105.76)"/><path class="cls-58" d="M224.08,242.24a1.93,1.93,0,0,1,2,1.1A2,2,0,0,1,224.08,242.24Z" transform="translate(-97.56 -105.76)"/><path class="cls-58" d="M225.1,245.6a2.72,2.72,0,0,1-2.15-1.21A1.82,1.82,0,0,1,225.1,245.6Z" transform="translate(-97.56 -105.76)"/><path class="cls-58" d="M230.61,250.94a1.19,1.19,0,0,1-1.13-1.09A1.39,1.39,0,0,1,230.61,250.94Z" transform="translate(-97.56 -105.76)"/><path class="cls-58" d="M232.77,249.91a1.06,1.06,0,0,1,1,1A1.13,1.13,0,0,1,232.77,249.91Z" transform="translate(-97.56 -105.76)"/><path class="cls-58" d="M226.22,243.39a1.06,1.06,0,0,1,1.18,1A1.23,1.23,0,0,1,226.22,243.39Z" transform="translate(-97.56 -105.76)"/><path class="cls-58" d="M231.68,248.81a1.1,1.1,0,0,1,1,1.05A1.12,1.12,0,0,1,231.68,248.81Z" transform="translate(-97.56 -105.76)"/><path class="cls-60" d="M196.79,252c-.15-.68.05-1.13.79-1.24A1.1,1.1,0,0,1,196.79,252Z" transform="translate(-97.56 -105.76)"/><path class="cls-58" d="M231.74,252a1.16,1.16,0,0,1-1.15-1A1.38,1.38,0,0,1,231.74,252Z" transform="translate(-97.56 -105.76)"/><path class="cls-58" d="M233.86,251c.61.05,1,.35.91,1A1,1,0,0,1,233.86,251Z" transform="translate(-97.56 -105.76)"/><path class="cls-58" d="M232.83,253a1.21,1.21,0,0,1-1.06-1.06A1.23,1.23,0,0,1,232.83,253Z" transform="translate(-97.56 -105.76)"/><path class="cls-58" d="M233.83,254.29a1.23,1.23,0,0,1-1-1.22A1.32,1.32,0,0,1,233.83,254.29Z" transform="translate(-97.56 -105.76)"/><path class="cls-58" d="M229.51,249.87a1.19,1.19,0,0,1-1.11-1.12A1.41,1.41,0,0,1,229.51,249.87Z" transform="translate(-97.56 -105.76)"/><path class="cls-58" d="M227.38,244.33a1.14,1.14,0,0,1,1.14,1.08A1.36,1.36,0,0,1,227.38,244.33Z" transform="translate(-97.56 -105.76)"/><path class="cls-58" d="M230.62,247.66a1.12,1.12,0,0,1,1,1.1A1.23,1.23,0,0,1,230.62,247.66Z" transform="translate(-97.56 -105.76)"/><path class="cls-58" d="M228.42,248.77a1.21,1.21,0,0,1-1.09-1.11A1.36,1.36,0,0,1,228.42,248.77Z" transform="translate(-97.56 -105.76)"/><path class="cls-58" d="M229.57,246.5a1.14,1.14,0,0,1,1,1.15A1.35,1.35,0,0,1,229.57,246.5Z" transform="translate(-97.56 -105.76)"/><path class="cls-58" d="M227.34,247.67a1.23,1.23,0,0,1-1.12-1.09A1.37,1.37,0,0,1,227.34,247.67Z" transform="translate(-97.56 -105.76)"/><path class="cls-58" d="M228.49,245.38a1.16,1.16,0,0,1,1.09,1.14A1.36,1.36,0,0,1,228.49,245.38Z" transform="translate(-97.56 -105.76)"/><path class="cls-58" d="M226.24,246.6a1.31,1.31,0,0,1-1.21-1A1.35,1.35,0,0,1,226.24,246.6Z" transform="translate(-97.56 -105.76)"/><path class="cls-61" d="M283,420.09a5.65,5.65,0,0,1,4.33,0c.5.6.26,1.18-.05,1.76a5.18,5.18,0,0,1-.89.86c.07.73.32,0,.34,0,.61-.4-.18.21.45-.16,1.48-.14,2.44.87,3.54,1.58,6,2,11.18,5.5,16,9.48,2.2,1.8,4.28,3.81,4.68,6.89.31.41.11,1.35,1.1,1.08l.28-.12.22.22a2,2,0,0,0,1.55-1l0,0a11.31,11.31,0,0,0,1.17-1l0,0a6.82,6.82,0,0,1,1.08-1l.08-.07c.24-.46.75-.71.93-1.22l0,0a1.93,1.93,0,0,1,1,2.14l-1,1.13-1.09,1.09-1.13,1a3.13,3.13,0,0,0-2.09.95c-1.48.37-3.2-.13-4.45,1.15l-1.19-1.24a1.16,1.16,0,0,1-.09-1c.09-1-1.05-.95-1.35-1.61a6.64,6.64,0,0,0-7.51-2.85c-1.55.37-3.18.79-4.61-.44l-2.78-.15c-3.73-1.57-.72-5.19-2.27-7.41-.67-1.14-1.85-1.16-2.94-1.34a3.26,3.26,0,0,1-1.9-.95c-.73-.33-1.74-.13-2.1-1.14.75-1,.69-2.15.89-3.26.5-.47.52-.93-.07-1.34C283.06,421.41,283,420.75,283,420.09Z" transform="translate(-97.56 -105.76)"/><path class="cls-21" d="M215.37,217.08c-2.56,1.6-4,1.32-4.35-1.09a28.13,28.13,0,0,1,.2-5.33l2.68-1.58C215.49,211.56,213.13,214.77,215.37,217.08Z" transform="translate(-97.56 -105.76)"/><path class="cls-62" d="M272.2,159.22a2.48,2.48,0,0,1,.94.05c1.43,1.13.95,2.66.88,4.11a1.17,1.17,0,0,1-.69.15Z" transform="translate(-97.56 -105.76)"/><path class="cls-63" d="M290.45,429.13a6.92,6.92,0,0,1,.56,5.06c-.35,1.12-.83,2.4.49,3.33a19.92,19.92,0,0,0-1.2,5.26c-.22,3.16-.81,3.5-3.57,2.51-3.33-1.19-5.64-3.42-6-7-.38-4-.81-8.11,3.64-10.45a1.23,1.23,0,0,0,1.44,0C287.21,428.79,289.32,427.26,290.45,429.13Z" transform="translate(-97.56 -105.76)"/><path class="cls-64" d="M308.06,442.91a.5.5,0,0,0-.22.7c-3.35,3.37-7.88,2.65-12,3.38-.66.12-1.8-.46-1.67-1,.67-2.8-2.77-5.61.08-8.33,1.06-.21,2.11-.41,3.16-.65,6.67-1.54,7.4-1.22,10.6,4.79.28.25.37.49.28.73S308.15,442.91,308.06,442.91Z" transform="translate(-97.56 -105.76)"/><path class="cls-17" d="M286.35,422.29l1-2.23c1.53-.41,4.09.19,2.63-3-1.77-3.84-1.87-8.06-2.26-12.16-1.1-11.46-2-22.94-1.5-34.47-1.21-3.77.25-7.75-.88-11.52l-.24-3c-.91-1.43.05-3.2-.87-4.62l-.24-1.87c-.7-1.1-.05-2.53-.9-3.59a.61.61,0,0,1-.17-.86c-.74-1.05-.1-2.45-.86-3.5-.09-.55-.19-1.09-.28-1.64a12.42,12.42,0,0,0-.78-2.72.83.83,0,0,1-.23-1c.11-1.22-.16-2.55,1.08-3.4a.57.57,0,0,1,.16.81c.45.76.31,1.73.88,2.44a.63.63,0,0,1,.21.85c.75,1.06.05,2.48.9,3.51a.74.74,0,0,1,.15.94c.82,1,.11,2.41.89,3.42a.84.84,0,0,1,.19,1c.86,1,.13,2.37.89,3.37a4,4,0,0,1,.28,2.62c.48,1.27.17,2.7.82,3.93.08,1,.17,2,.25,2.94,1.17,4.05-.31,8.28.84,12.33.43,8.48.8,17,1.32,25.43.28,4.69.71,9.38,1.3,14a13,13,0,0,0,1.69,5.67c2.54,3.81,2.54,3.81-1.9,6.35C289.22,423.24,287.78,422.89,286.35,422.29Z" transform="translate(-97.56 -105.76)"/><path class="cls-28" d="M288.27,370.89c-1.86-4-.63-8.21-.84-12.33C288.62,362.61,288.51,366.75,288.27,370.89Z" transform="translate(-97.56 -105.76)"/><path class="cls-65" d="M286.35,422.29l4.33.09,0,1.73c-1.56.27-2.86-.74-4.33-.89-.3-.21-.4-.43-.3-.64s.2-.32.31-.32Z" transform="translate(-97.56 -105.76)"/><path class="cls-28" d="M284,340.35c-1.23-.93-.95-2.25-.9-3.51A4,4,0,0,1,284,340.35Z" transform="translate(-97.56 -105.76)"/><path class="cls-28" d="M285,344.71c-1.17-.91-.91-2.19-.89-3.42A4.39,4.39,0,0,1,285,344.71Z" transform="translate(-97.56 -105.76)"/><path class="cls-28" d="M286.08,349.07c-1.14-.9-.9-2.16-.89-3.37A3.84,3.84,0,0,1,286.08,349.07Z" transform="translate(-97.56 -105.76)"/><path class="cls-28" d="M287.18,355.62c-1.25-1.1-.84-2.56-.82-3.93A5.12,5.12,0,0,1,287.18,355.62Z" transform="translate(-97.56 -105.76)"/><path class="cls-28" d="M282.85,336a2.39,2.39,0,0,1-.88-2.44A2.62,2.62,0,0,1,282.85,336Z" transform="translate(-97.56 -105.76)"/><path class="cls-6" d="M312.51,441.56c-1.82,1.11-.88-.57-1.1-1.08Z" transform="translate(-97.56 -105.76)"/><path class="cls-6" d="M317.81,437.36l-.93,1.22A1.34,1.34,0,0,1,317.81,437.36Z" transform="translate(-97.56 -105.76)"/><path class="cls-6" d="M316.8,438.65l-1.08,1A1.08,1.08,0,0,1,316.8,438.65Z" transform="translate(-97.56 -105.76)"/><path class="cls-6" d="M315.69,439.68l-1.17,1A1.24,1.24,0,0,1,315.69,439.68Z" transform="translate(-97.56 -105.76)"/><path class="cls-6" d="M314.56,440.67a1.71,1.71,0,0,1-1.55,1A1.67,1.67,0,0,1,314.56,440.67Z" transform="translate(-97.56 -105.76)"/><path class="cls-66" d="M229.85,386.29c6.13-.61,10.59,2,13.23,7.39,3,6.15,1.89,12-2.1,17.35a13.9,13.9,0,0,1-14.34,5.67c-7.08-1.23-11.64-9.49-9.83-17.44.83-3.64,2.95-6.54,5.24-9.36.24-1.1,1.48-.85,2-1.53h0C225.69,386.78,227.9,386.91,229.85,386.29Z" transform="translate(-97.56 -105.76)"/><path class="cls-24" d="M229.85,386.29l-5.76,2.07C225.3,385.71,227.64,386.18,229.85,386.29Z" transform="translate(-97.56 -105.76)"/><path class="cls-24" d="M224.09,388.37a3.17,3.17,0,0,1-2,1.53C222.22,388.72,223.07,388.43,224.09,388.37Z" transform="translate(-97.56 -105.76)"/><path class="cls-28" d="M285.3,358.93c2,3.71.49,7.69.88,11.52C285.18,366.66,285.34,362.79,285.3,358.93Z" transform="translate(-97.56 -105.76)"/><path class="cls-28" d="M284.19,351.29c1.45,1.32.83,3,.87,4.62A7,7,0,0,1,284.19,351.29Z" transform="translate(-97.56 -105.76)"/><path class="cls-28" d="M282,341.47c1.18.95.91,2.25.86,3.5A4.56,4.56,0,0,1,282,341.47Z" transform="translate(-97.56 -105.76)"/><path class="cls-28" d="M283.05,345.83c1.26.95,1,2.3.9,3.59A5.49,5.49,0,0,1,283.05,345.83Z" transform="translate(-97.56 -105.76)"/><path class="cls-28" d="M281,337.11a2.76,2.76,0,0,1,.78,2.72A3.48,3.48,0,0,1,281,337.11Z" transform="translate(-97.56 -105.76)"/><path class="cls-67" d="M275,552.77c2.69,2.79,3.36,5.91,1.93,8.06-.42.63-1.08,1.06-1.79.65-.35-.21-.74-1-.59-1.3C275.81,557.9,274.35,555.35,275,552.77Z" transform="translate(-97.56 -105.76)"/><path class="cls-68" d="M223.13,593.35c-.3-.48-.49-.67-.45-.75,2.18-4.49,10.2-6,13.2-2.51a2.52,2.52,0,0,1,.44,1.46c0,.64-.65,1.11-1,.91C231,590.19,227,592.33,223.13,593.35Z" transform="translate(-97.56 -105.76)"/><path class="cls-69" d="M224.7,584.72c1.94-2.64,4.65-2.23,6.91-2.69a4.68,4.68,0,0,1,4,1.3,1.71,1.71,0,0,1,.59,1.93,1,1,0,0,1-1.27.64c-1.68-.59-3.26-1.35-5.19-1.09C228.27,585,226.7,585.86,224.7,584.72Z" transform="translate(-97.56 -105.76)"/><path class="cls-70" d="M240.58,264l1-1.19A17.82,17.82,0,0,1,246,270.4c.43,1.21-.16,1.42-1.17,1.22Z" transform="translate(-97.56 -105.76)"/><path class="cls-71" d="M249.5,281.5l-1.46-.05c.08-1.23.09-2.44-.95-3.36l-.27-1.87c-.51-1.14.07-1.36,1.05-1.23a21.13,21.13,0,0,1,2.12,6.52Z" transform="translate(-97.56 -105.76)"/><path class="cls-72" d="M247.87,275l-1.05,1.23a7.6,7.6,0,0,0-.78-.46l-1.2-4.14L246,270.4C247.19,271.7,247.36,273.41,247.87,275Z" transform="translate(-97.56 -105.76)"/><path class="cls-73" d="M239.23,183.36c-1.61-1.88-2.81.7-4.29.42,1.14-3.26,5.16-5.57,8-4.62,1.71.57,2.07,1.75,1.56,3.4s-1.83,2.11-3.06,2.82C239.34,186.24,240.38,183.59,239.23,183.36Z" transform="translate(-97.56 -105.76)"/><path class="cls-74" d="M262.54,198.41c.89,2.68,3.41,4.52,3.81,7.45,0,.14-.16.31-.26.49a9.55,9.55,0,0,1-3.14-2.68c-.69-.84-1.22-1.53-2.6-.89-1.87.85-3.4-.14-3.29-2.09.12-2.3,1.89-1.32,3.24-1.08.26,0,.65-.68,1-1.05C261.63,198,262.05,197.9,262.54,198.41Z" transform="translate(-97.56 -105.76)"/><path class="cls-70" d="M231.81,176.85a39.5,39.5,0,0,1,8.79-4c.86-.28,1.77-.6,2.15.66.3,1-.64,1.18-1.21,1.44a40.74,40.74,0,0,1-8.6,3.05C231.79,178.37,231.56,177.85,231.81,176.85Z" transform="translate(-97.56 -105.76)"/><path class="cls-75" d="M261.93,183.4c-.81-3.29-.63-3.66,1.84-3.46,1.78.15,3.48.51,4.56,2.23l-2.82,2.18a1.82,1.82,0,0,1-2,.53C262.78,184.6,262.6,183.74,261.93,183.4Z" transform="translate(-97.56 -105.76)"/><path class="cls-32" d="M247.93,199.73c.89,1.8,1.9,2.72,3.48.58.71-1,1.73-1.56,2.69-.5s0,2-.7,2.78c-1.93,2.13-2.81,2-6.35-.58a1.84,1.84,0,0,1-.45-2.18A.88.88,0,0,1,247.93,199.73Z" transform="translate(-97.56 -105.76)"/><path class="cls-76" d="M258.08,184.13c.93,3.89,1.62,7.87,4,11.23a2.13,2.13,0,0,1-1,1.08c-2-3.09-4.54-5.92-4.13-10C257.61,185.81,257,184.57,258.08,184.13Z" transform="translate(-97.56 -105.76)"/><path class="cls-77" d="M267.7,176.73a5.69,5.69,0,0,1-3.29-.27c-.51-.24-.94-.69-1.58-.61-.75-.44-1.52-.85-2.25-1.32a1.34,1.34,0,0,1-.42-1.87,1.3,1.3,0,0,1,1.88-.31c1.2.74,2.33,1.6,3.49,2.41.47.24.83.68,1.39.74a.64.64,0,0,1,.77.22c.38.22.5.44.38.67S267.83,176.73,267.7,176.73Z" transform="translate(-97.56 -105.76)"/><path class="cls-78" d="M247.19,199.29l-.14,2.72-2.27,3.05c-1.88,0-1.75-.94-1.13-2.19l2.31-5.35C247.69,197.18,247.51,198.19,247.19,199.29Z" transform="translate(-97.56 -105.76)"/><path class="cls-79" d="M243.65,202.87c.19.83-.24,2,1.13,2.19l-3.3,4.32-.48,0-.49,0A12.72,12.72,0,0,1,243.65,202.87Z" transform="translate(-97.56 -105.76)"/><path class="cls-80" d="M231.81,176.85l1.13,1.12a23.13,23.13,0,0,0-4.43,3.76C228.15,179.06,229.58,177.68,231.81,176.85Z" transform="translate(-97.56 -105.76)"/><path class="cls-81" d="M239.23,183.36c1.48-.14,1.27,1.59,2.24,2-.78,1.4-2.13,1.56-3.67,1.67C236.87,185.26,240.72,185.26,239.23,183.36Z" transform="translate(-97.56 -105.76)"/><path class="cls-82" d="M261.93,183.4a1.67,1.67,0,0,1,1.42,1c.56.44,1.29.74,1.38,1.59-.32.79-.84,1.17-1.7.78C260.56,186.32,261.26,184.86,261.93,183.4Z" transform="translate(-97.56 -105.76)"/><path class="cls-83" d="M247.19,199.29c0-.88-.1-1.68-1.23-1.77.14-1.4.89-2.14,2.69-2.2-.25,1.53-.48,3-.72,4.41A2.14,2.14,0,0,1,247.19,199.29Z" transform="translate(-97.56 -105.76)"/><path class="cls-84" d="M267.7,176.73c0-.34,0-.67,0-1,1.91-.12,3.34.68,4.95,2.79A10.65,10.65,0,0,1,267.7,176.73Z" transform="translate(-97.56 -105.76)"/><path class="cls-85" d="M258.08,184.13c-.34.79-.29,1.77-1.12,2.32-.32-1.65-.6-3.29.19-4.92C258.57,182.05,257.94,183.22,258.08,184.13Z" transform="translate(-97.56 -105.76)"/><path class="cls-72" d="M259,175.8a2.36,2.36,0,0,1-1.58,1.85c-.14-.46-.49-1-.38-1.38.18-.64.51-1.41,1.3-1.5C258.87,174.71,259.17,175.14,259,175.8Z" transform="translate(-97.56 -105.76)"/><path class="cls-86" d="M263,186.76l1.3-1.07c.27-.7.64-.75,1.09-.15s1.68,1.15.67,1.93S263.86,187.82,263,186.76Z" transform="translate(-97.56 -105.76)"/><path class="cls-87" d="M261.09,196.44l1-1.08c.15,1,.29,2,.44,3l-1.27.15Z" transform="translate(-97.56 -105.76)"/><path class="cls-88" d="M265.42,185.54l-1.09.15c-.44-.34-1-.59-1-1.3l2.16,0Z" transform="translate(-97.56 -105.76)"/><path class="cls-84" d="M262.83,175.85a1.56,1.56,0,0,1,1.58.61A1.55,1.55,0,0,1,262.83,175.85Z" transform="translate(-97.56 -105.76)"/><path class="cls-84" d="M266.92,175.5a1.42,1.42,0,0,1-1.39-.74A1.28,1.28,0,0,1,266.92,175.5Z" transform="translate(-97.56 -105.76)"/><path class="cls-89" d="M258.91,226.82l-2,1.35-4.66,0c-1.46-1.18-.11-3-1-4.34a1,1,0,0,1,.13-1.38l1.08-.17a6.05,6.05,0,0,1,5.51-.61c.54.14,1.89.33,1.4.61C256.72,223.71,258.89,225.32,258.91,226.82Z" transform="translate(-97.56 -105.76)"/><path class="cls-90" d="M252.44,220.57c-1.34-.4-2.83.91-4.28-.56,2.89-3.48,6.55-3.88,10.59-2.86,1.24.32,2.69.91,2.35,2.43-.4,1.78-2.12.6-3.21.92A4.79,4.79,0,0,1,252.44,220.57Z" transform="translate(-97.56 -105.76)"/><path class="cls-91" d="M252.44,220.57a8.83,8.83,0,0,1,5.45-.07l.06,1.14c-1.66,1.76-3.56,1.45-5.51.61Z" transform="translate(-97.56 -105.76)"/><path class="cls-92" d="M251.36,222.42c-.05.46-.09.92-.13,1.38a5.35,5.35,0,0,1-1-.17c-.58-.2-1.55.26-1.67-.55s.89-.85,1.46-1C250.41,222,250.91,222.29,251.36,222.42Z" transform="translate(-97.56 -105.76)"/><path class="cls-10" d="M290.45,429.13l-4.62-1.34C287.53,427.65,289.45,426.8,290.45,429.13Z" transform="translate(-97.56 -105.76)"/><path class="cls-17" d="M286.38,422.26a3.43,3.43,0,0,0,0,1C285.52,422.9,285.48,422.58,286.38,422.26Z" transform="translate(-97.56 -105.76)"/><path class="cls-10" d="M308.06,442.91c0-.36,0-.73,0-1.1C308.8,442.17,308.8,442.54,308.06,442.91Z" transform="translate(-97.56 -105.76)"/><path class="cls-24" d="M241.53,400.57c0,7.17-5.74,13.53-12.16,13.52-5.77,0-10.5-5.27-10.44-11.64.06-6.77,6-13.73,11.62-13.55C237.06,389.1,241.56,393.89,241.53,400.57Z" transform="translate(-97.56 -105.76)"/><rect class="cls-93" width="308.48" height="543.34"/></svg>