<?xml version="1.0" encoding="UTF-8"?>
<svg id="Ebene_1" data-name="Ebene 1" xmlns="http://www.w3.org/2000/svg" viewBox="0 0 303.12 262.48">
  <defs>
    <style>
      .cls-1 {
        fill: #1d1d1b;
      }
    </style>
  </defs>
  <path class="cls-1" d="M33.26,37.98c-2.05,1.79-4.59,2.68-7.6,2.68H5.5c-.37,0-.56-.19-.56-.56V9.38c0-.37,.19-.56,.56-.56H25.66c3.17,0,5.75,.79,7.72,2.36,1.92,1.52,2.88,3.37,2.88,5.56,0,1.79-.4,3.33-1.2,4.64-.85,1.39-1.96,2.41-3.32,3.08,3.01,1.44,4.52,3.95,4.52,7.52,0,2.29-1,4.29-3,6Zm-10.56-18.72h-4.48v2h4.48c.67,0,1-.33,1-1s-.33-1-1-1Zm0,9h-4.48v1.96h4.48c.67,0,1-.33,1-.98s-.33-.98-1-.98Z"/>
  <path class="cls-1" d="M60.42,40.66c-.29,0-.48-.13-.56-.4l-1.16-3.6h-9c-.13,.45-.29,.97-.48,1.56-.19,.59-.43,1.27-.72,2.04-.08,.27-.25,.4-.52,.4h-10.08c-.21,0-.37-.08-.48-.24-.13-.13-.16-.31-.08-.52l11.4-30.68c.11-.27,.29-.4,.56-.4h12.16c.24,0,.41,.13,.52,.4l11.56,30.68c.05,.16,.04,.33-.04,.52-.13,.16-.31,.24-.52,.24h-12.56Zm-6.32-17.56c-.21,.61-.47,1.39-.78,2.34-.31,.95-.67,2.09-1.1,3.42h3.8l-1.92-5.76Z"/>
  <path class="cls-1" d="M106.66,27.46c-.43,4-2,7.32-4.72,9.96-2.77,2.67-6.2,4-10.28,4-4.53,0-8.4-1.63-11.6-4.88-3.23-3.23-4.84-7.16-4.84-11.8s1.6-8.55,4.8-11.8c3.25-3.25,7.13-4.88,11.64-4.88,4.03,0,7.45,1.35,10.28,4.04,2.72,2.64,4.29,5.99,4.72,10.04,.03,.43-.16,.64-.56,.64h-10c-.35,0-.53-.16-.56-.48-.16-1.23-.6-2.16-1.32-2.8-.61-.56-1.31-.84-2.08-.84-.99,0-1.8,.47-2.44,1.4-.75,1.07-1.12,2.63-1.12,4.68s.37,3.61,1.12,4.68c.64,.96,1.45,1.44,2.44,1.44,.75,0,1.43-.28,2.04-.84,.72-.64,1.16-1.55,1.32-2.72,.03-.32,.21-.48,.56-.48h10.04l.56,.64Z"/>
  <path class="cls-1" d="M128.42,40.66c-.21,0-.39-.11-.52-.32l-4.24-7.44c-.11,.13-.24,.32-.4,.56-.16,.24-.35,.52-.56,.84v5.8c0,.37-.19,.56-.56,.56h-12.08c-.4,0-.6-.19-.6-.56V9.38c0-.37,.2-.56,.6-.56h12.08c.37,0,.56,.19,.56,.56v8.24l5.4-8.52c.11-.19,.28-.28,.52-.28h12.04c.37,0,.56,.19,.56,.56,0,.13-.04,.25-.12,.36l-9.12,13.2,9.48,16.88c.05,.16,.08,.25,.08,.28,0,.37-.2,.56-.6,.56h-12.52Z"/>
  <path class="cls-1" d="M143.82,40.66c-.4,0-.6-.19-.6-.56V9.38c0-.37,.2-.56,.6-.56h27.72c.4,0,.6,.19,.6,.56v9.32c0,.37-.2,.56-.6,.56h-15.04v2h11.04c.37,0,.56,.19,.56,.56v5.88c0,.37-.19,.56-.56,.56h-11.04v1.96h15.04c.4,0,.6,.2,.6,.6v9.28c0,.38-.2,.56-.6,.56h-27.72Z"/>
  <path class="cls-1" d="M196.54,40.66c-.13,0-.28-.08-.44-.24l-9.76-12.16v11.84c0,.37-.19,.56-.56,.56h-10.32c-.4,0-.6-.19-.6-.56V9.38c0-.37,.2-.56,.6-.56h10.76c.19,0,.35,.08,.48,.24l9.28,11.96V9.38c0-.37,.19-.56,.56-.56h10.32c.4,0,.6,.19,.6,.56v30.72c0,.37-.2,.56-.6,.56h-10.32Z"/>
  <path class="cls-1" d="M237.9,35.98c-3.25,3.12-7.15,4.68-11.68,4.68h-15.12c-.4,0-.6-.19-.6-.56V9.38c0-.37,.2-.56,.6-.56h15.12c4.53,0,8.43,1.55,11.68,4.64,3.23,3.12,4.84,6.88,4.84,11.28s-1.61,8.17-4.84,11.24Zm-9.88-15.56c-.72-.77-1.61-1.16-2.68-1.16h-1.56v10.96h1.56c1.07,0,1.96-.4,2.68-1.2,.91-.98,1.36-2.42,1.36-4.3s-.45-3.32-1.36-4.3Z"/>
  <path class="cls-1" d="M3.45,49.58h1.96l1.03,7,.17,1.04c.08,.56,.14,1.07,.18,1.53l.11,1.28s.01,.09,.02,.18c0,.08,.02,.19,.03,.32l.05-.49c.08-.85,.16-1.64,.25-2.35,.09-.72,.18-1.38,.29-1.98l1.08-6.52h1.56l1.02,6.34c.15,.94,.27,1.81,.38,2.61s.18,1.57,.25,2.29c.06-.77,.14-1.51,.22-2.23,.08-.72,.17-1.42,.26-2.11l.15-1.01,.87-5.9h1.94l-2.67,15.08h-1.58l-1.06-6.51s-.02-.13-.05-.32c-.03-.19-.06-.46-.12-.81l-.21-1.5c-.01-.12-.03-.29-.06-.53s-.06-.53-.09-.89l-.05-.62c-.01,.15-.03,.28-.04,.39-.01,.11-.02,.2-.03,.27-.03,.43-.06,.76-.08,1-.02,.24-.04,.38-.04,.43l-.21,1.45c-.05,.33-.08,.59-.11,.78-.03,.19-.05,.31-.06,.35l-1.1,6.51h-1.63l-2.61-15.08Z"/>
  <path class="cls-1" d="M16.44,49.58h2.03v15.08h-2.03v-15.08Z"/>
  <path class="cls-1" d="M20.8,49.58h2.68c1.11,0,1.93,.26,2.47,.79,.68,.68,1.03,1.73,1.03,3.13,0,1.08-.18,1.95-.54,2.6s-.88,1.06-1.55,1.22l2.77,7.33h-2.06l-2.76-7.38v7.38h-2.03v-15.08Zm2.03,6.68c.79,0,1.34-.18,1.67-.55,.33-.36,.49-.98,.49-1.85,0-.47-.03-.87-.1-1.2s-.18-.6-.32-.81c-.15-.21-.34-.36-.57-.46s-.51-.15-.83-.15h-.34v5.01Z"/>
  <path class="cls-1" d="M29.22,49.58h5.4v1.72h-3.37v4.78h2.99v1.72h-2.99v5.15h3.37v1.72h-5.4v-15.08Z"/>
  <path class="cls-1" d="M36.49,49.58h5.43v1.72h-3.4v4.77h3.07v1.72h-3.07v6.88h-2.03v-15.08Z"/>
  <path class="cls-1" d="M43.48,49.58h2.68c1.11,0,1.93,.26,2.47,.79,.68,.68,1.03,1.73,1.03,3.13,0,1.08-.18,1.95-.54,2.6s-.88,1.06-1.55,1.22l2.77,7.33h-2.06l-2.76-7.38v7.38h-2.03v-15.08Zm2.03,6.68c.79,0,1.34-.18,1.67-.55,.33-.36,.49-.98,.49-1.85,0-.47-.03-.87-.1-1.2s-.18-.6-.32-.81c-.15-.21-.34-.36-.57-.46s-.51-.15-.83-.15h-.34v5.01Z"/>
  <path class="cls-1" d="M54.06,49.58h1.58l3.23,15.08h-2.01l-.57-2.94h-2.99l-.58,2.94h-1.95l3.28-15.08Zm1.94,10.57l-.45-2.4c-.3-1.63-.54-3.38-.73-5.23-.09,.91-.21,1.82-.35,2.75s-.31,1.91-.51,2.95l-.37,1.93h2.41Z"/>
  <path class="cls-1" d="M60.78,49.58h1.74l1.33,6.15c.16,.77,.31,1.54,.44,2.31s.26,1.58,.37,2.43c.01-.11,.02-.2,.03-.26,0-.06,.01-.11,.02-.13l.28-1.73,.25-1.64,.22-1.08,1.18-6.04h1.76l1.39,15.08h-1.94l-.34-5.12c-.01-.26-.02-.48-.03-.67,0-.19-.01-.34-.01-.47l-.09-2.02-.05-1.86s0-.04,0-.08c0-.04,0-.1-.01-.17l-.05,.3c-.05,.36-.1,.67-.14,.94-.04,.27-.08,.49-.11,.67l-.25,1.38-.1,.52-1.27,6.58h-1.37l-1.19-5.68c-.16-.75-.31-1.51-.43-2.28s-.24-1.58-.35-2.43l-.59,10.39h-1.91l1.24-15.08Z"/>
  <path class="cls-1" d="M71.47,49.58h2.03v15.08h-2.03v-15.08Z"/>
  <path class="cls-1" d="M75.82,49.58h1.89l2.02,6.02c.59,1.7,1.1,3.51,1.55,5.44-.16-1.17-.28-2.22-.36-3.16-.08-.94-.12-1.83-.12-2.67v-5.62h2.04v15.08h-1.9l-2.28-6.79c-.21-.63-.41-1.28-.59-1.94s-.36-1.36-.51-2.09c-.01-.09-.03-.2-.06-.33-.03-.13-.06-.28-.1-.45,.02,.17,.04,.31,.05,.43,.01,.12,.02,.22,.03,.31l.11,1.53,.11,1.87c0,.1,.01,.23,.01,.38,0,.15,0,.32,0,.51l.11,6.57h-2v-15.08Z"/>
  <path class="cls-1" d="M88.79,56.73h3.69v.59c0,2.94-.26,4.92-.77,5.95-.51,1.05-1.46,1.58-2.85,1.58s-2.46-.59-3.08-1.76c-.61-1.17-.91-3.14-.91-5.91,0-3.16,.33-5.27,1-6.32,.62-.98,1.59-1.47,2.88-1.47,.99,0,1.76,.24,2.31,.71,.56,.48,1,1.27,1.31,2.37l-1.89,.79c-.08-.4-.18-.73-.28-1-.1-.27-.22-.48-.34-.63-.25-.31-.62-.46-1.11-.46-.68,0-1.14,.42-1.39,1.25-.25,.87-.37,2.44-.37,4.7s.13,3.83,.38,4.64c.25,.81,.73,1.21,1.44,1.21,.64,0,1.1-.29,1.36-.86,.27-.61,.4-1.59,.4-2.95v-.71h-1.77v-1.72Z"/>
  <path class="cls-1" d="M6.07,73.58h2.04v11.57c0,1.18-.17,2.03-.52,2.55-.51,.76-1.33,1.14-2.48,1.14-.68,0-1.25-.13-1.73-.39v-2.03c.58,.34,1.03,.52,1.35,.52,.89,0,1.34-.63,1.34-1.88v-11.47Z"/>
  <path class="cls-1" d="M12.6,73.58h1.58l3.23,15.08h-2.01l-.57-2.94h-2.99l-.58,2.94h-1.95l3.28-15.08Zm1.94,10.57l-.45-2.4c-.3-1.63-.54-3.38-.73-5.23-.09,.91-.21,1.82-.35,2.75s-.31,1.91-.51,2.95l-.37,1.93h2.41Z"/>
  <path class="cls-1" d="M17.06,73.58h2l.91,5.57,.16,1.01,.32,2.19c.05,.37,.1,.71,.14,1.02s.08,.58,.11,.83l.1,.74c.02-.15,.04-.28,.05-.4s.03-.21,.04-.29l.26-1.75,.34-2.29c.03-.21,.06-.4,.09-.58s.06-.33,.08-.47l.98-5.57h1.89l-2.96,15.08h-1.61l-2.91-15.08Z"/>
  <path class="cls-1" d="M27.45,73.58h1.58l3.23,15.08h-2.01l-.57-2.94h-2.99l-.58,2.94h-1.95l3.28-15.08Zm1.94,10.57l-.45-2.4c-.3-1.63-.54-3.38-.73-5.23-.09,.91-.21,1.82-.35,2.75s-.31,1.91-.51,2.95l-.37,1.93h2.41Z"/>
  <path class="cls-1" d="M38.48,73.89v1.98c-.62-.44-1.18-.66-1.67-.66-.53,0-.97,.19-1.31,.57-.34,.36-.51,.84-.51,1.44,0,.53,.12,.98,.36,1.36,.12,.2,.33,.46,.61,.78s.65,.7,1.1,1.15c.83,.84,1.39,1.57,1.69,2.18,.3,.59,.45,1.32,.45,2.18,0,1.17-.33,2.13-.99,2.88-.66,.74-1.5,1.1-2.53,1.1-.87,0-1.6-.24-2.22-.71v-2.01c.72,.53,1.38,.79,1.97,.79,.55,0,.99-.18,1.3-.55s.47-.87,.47-1.5c0-.55-.12-1.04-.36-1.47-.12-.21-.3-.45-.52-.72s-.5-.57-.83-.9c-.51-.51-.94-.96-1.28-1.35s-.59-.73-.75-1.03c-.31-.57-.47-1.3-.47-2.17,0-1.18,.31-2.11,.92-2.8,.62-.7,1.45-1.04,2.49-1.04,.72,0,1.41,.17,2.07,.52Z"/>
  <path class="cls-1" d="M46.83,73.83v1.83c-.52-.25-.96-.38-1.31-.38-.48,0-.9,.12-1.24,.36s-.63,.6-.85,1.1-.39,1.12-.5,1.88-.16,1.66-.16,2.69c0,3.72,.95,5.59,2.86,5.59,.33,0,.73-.1,1.2-.31v1.87c-.49,.27-1.04,.41-1.64,.41-3.05,0-4.58-2.49-4.58-7.48,0-2.7,.37-4.7,1.12-6.02s1.89-1.97,3.42-1.97c.57,0,1.13,.15,1.68,.45Z"/>
  <path class="cls-1" d="M48.54,73.58h2.68c1.11,0,1.93,.26,2.47,.79,.68,.68,1.03,1.73,1.03,3.13,0,1.08-.18,1.95-.54,2.6s-.88,1.06-1.55,1.22l2.77,7.33h-2.06l-2.76-7.38v7.38h-2.03v-15.08Zm2.03,6.68c.79,0,1.34-.18,1.67-.55s.49-.98,.49-1.85c0-.47-.03-.87-.1-1.2s-.18-.6-.32-.81-.34-.36-.57-.46-.51-.15-.83-.15h-.34v5.01Z"/>
  <path class="cls-1" d="M56.97,73.58h2.03v15.08h-2.03v-15.08Z"/>
  <path class="cls-1" d="M61.32,73.58h2.68c1.29,0,2.23,.33,2.81,.98,.59,.66,.88,1.7,.88,3.12,0,2-.59,3.3-1.77,3.89-.59,.27-1.45,.4-2.57,.4v6.69h-2.03v-15.08Zm2.03,6.65c.84,0,1.42-.17,1.74-.51,.33-.34,.49-.96,.49-1.84s-.16-1.56-.47-1.97-.8-.62-1.47-.62h-.28v4.94Z"/>
  <path class="cls-1" d="M68.05,73.58h6.61v1.78h-2.28v13.3h-1.99v-13.3h-2.34v-1.78Z"/>
  <path class="cls-1" d="M10.5,97.83v1.83c-.52-.25-.96-.38-1.31-.38-.48,0-.9,.12-1.24,.36s-.63,.6-.85,1.1-.39,1.12-.5,1.88-.16,1.66-.16,2.69c0,3.72,.95,5.59,2.86,5.59,.33,0,.73-.1,1.2-.31v1.87c-.49,.27-1.04,.41-1.64,.41-3.05,0-4.58-2.49-4.58-7.48,0-2.7,.37-4.7,1.12-6.02s1.89-1.97,3.42-1.97c.57,0,1.13,.15,1.68,.45Z"/>
  <path class="cls-1" d="M17.24,97.89v1.98c-.62-.44-1.18-.66-1.67-.66-.53,0-.97,.19-1.31,.57-.34,.36-.51,.84-.51,1.44,0,.53,.12,.98,.36,1.36,.12,.2,.33,.46,.61,.78s.65,.7,1.1,1.15c.83,.84,1.39,1.57,1.69,2.18,.3,.59,.45,1.32,.45,2.18,0,1.17-.33,2.13-.99,2.88-.66,.74-1.5,1.1-2.53,1.1-.87,0-1.6-.24-2.22-.71v-2.01c.72,.53,1.38,.79,1.97,.79,.55,0,.99-.18,1.3-.55s.47-.87,.47-1.5c0-.55-.12-1.04-.36-1.47-.12-.21-.3-.45-.52-.72s-.5-.57-.83-.9c-.51-.51-.94-.96-1.28-1.35s-.59-.73-.75-1.03c-.31-.57-.47-1.3-.47-2.17,0-1.18,.31-2.11,.92-2.8,.62-.7,1.45-1.04,2.49-1.04,.72,0,1.41,.17,2.07,.52Z"/>
  <path class="cls-1" d="M24.7,97.89v1.98c-.62-.44-1.18-.66-1.67-.66-.53,0-.97,.19-1.31,.57-.34,.36-.51,.84-.51,1.44,0,.53,.12,.98,.36,1.36,.12,.2,.33,.46,.61,.78s.65,.7,1.1,1.15c.83,.84,1.39,1.57,1.69,2.18,.3,.59,.45,1.32,.45,2.18,0,1.17-.33,2.13-.99,2.88-.66,.74-1.5,1.1-2.53,1.1-.87,0-1.6-.24-2.22-.71v-2.01c.72,.53,1.38,.79,1.97,.79,.55,0,.99-.18,1.3-.55s.47-.87,.47-1.5c0-.55-.12-1.04-.36-1.47-.12-.21-.3-.45-.52-.72s-.5-.57-.83-.9c-.51-.51-.94-.96-1.28-1.35s-.59-.73-.75-1.03c-.31-.57-.47-1.3-.47-2.17,0-1.18,.31-2.11,.92-2.8,.62-.7,1.45-1.04,2.49-1.04,.72,0,1.41,.17,2.07,.52Z"/>
  <path class="cls-1" d="M36.14,147.46c-.43,4-2,7.32-4.72,9.96-2.77,2.67-6.2,4-10.28,4-4.53,0-8.4-1.63-11.6-4.88-3.23-3.23-4.84-7.16-4.84-11.8s1.6-8.55,4.8-11.8c3.25-3.25,7.13-4.88,11.64-4.88,4.03,0,7.45,1.35,10.28,4.04,2.72,2.64,4.29,5.99,4.72,10.04,.03,.43-.16,.64-.56,.64h-10c-.35,0-.53-.16-.56-.48-.16-1.23-.6-2.16-1.32-2.8-.61-.56-1.31-.84-2.08-.84-.99,0-1.8,.47-2.44,1.4-.75,1.07-1.12,2.63-1.12,4.68s.37,3.61,1.12,4.68c.64,.96,1.45,1.44,2.44,1.44,.75,0,1.43-.28,2.04-.84,.72-.64,1.16-1.55,1.32-2.72,.03-.32,.21-.48,.56-.48h10.04l.56,.64Z"/>
  <path class="cls-1" d="M66.86,156.5c-3.25,3.28-7.13,4.92-11.64,4.92s-8.39-1.63-11.64-4.88c-3.23-3.25-4.84-7.19-4.84-11.8s1.61-8.53,4.84-11.76c3.23-3.28,7.11-4.92,11.64-4.92s8.39,1.63,11.64,4.88c3.23,3.25,4.84,7.19,4.84,11.8s-1.61,8.53-4.84,11.76Zm-11.64-18.28c-2.08,0-3.12,2.17-3.12,6.52s1.04,6.56,3.12,6.56,3.12-2.19,3.12-6.56-1.04-6.52-3.12-6.52Z"/>
  <path class="cls-1" d="M101.94,155.98c-3.25,3.12-7.15,4.68-11.68,4.68h-15.12c-.4,0-.6-.19-.6-.56v-30.72c0-.37,.2-.56,.6-.56h15.12c4.53,0,8.43,1.55,11.68,4.64,3.23,3.12,4.84,6.88,4.84,11.28s-1.61,8.17-4.84,11.24Zm-9.88-15.56c-.72-.77-1.61-1.16-2.68-1.16h-1.56v10.96h1.56c1.07,0,1.96-.4,2.68-1.2,.91-.98,1.36-2.42,1.36-4.3s-.45-3.32-1.36-4.3Z"/>
  <path class="cls-1" d="M110.1,160.66c-.4,0-.6-.19-.6-.56v-30.72c0-.37,.2-.56,.6-.56h27.72c.4,0,.6,.19,.6,.56v9.32c0,.37-.2,.56-.6,.56h-15.04v2h11.04c.37,0,.56,.19,.56,.56v5.88c0,.37-.19,.56-.56,.56h-11.04v1.96h15.04c.4,0,.6,.2,.6,.6v9.28c0,.38-.2,.56-.6,.56h-27.72Z"/>
  <path class="cls-1" d="M180.78,160.26c-.08,.27-.27,.4-.56,.4h-9.68c-.29,0-.48-.13-.56-.4l-4.2-12.08-4.2,12.08c-.08,.27-.25,.4-.52,.4h-9.72c-.27,0-.44-.13-.52-.4l-10.68-30.68c-.08-.19-.05-.36,.08-.52,.11-.16,.27-.24,.48-.24h12.56c.29,0,.48,.15,.56,.44l3.64,13c.37-1.47,.85-3.27,1.42-5.42,.57-2.15,1.25-4.67,2.02-7.58,.08-.29,.28-.44,.6-.44h10.48c.29,0,.48,.15,.56,.44l3.64,13.16c.37-1.47,.85-3.29,1.44-5.48,.59-2.19,1.27-4.75,2.04-7.68,.08-.29,.25-.44,.52-.44h10.52c.53,0,.72,.25,.56,.76l-10.48,30.68Z"/>
  <path class="cls-1" d="M215.26,160.66c-.29,0-.48-.13-.56-.4l-1.16-3.6h-9c-.13,.45-.29,.97-.48,1.56-.19,.59-.43,1.27-.72,2.04-.08,.27-.25,.4-.52,.4h-10.08c-.21,0-.37-.08-.48-.24-.13-.13-.16-.31-.08-.52l11.4-30.68c.11-.27,.29-.4,.56-.4h12.16c.24,0,.41,.13,.52,.4l11.56,30.68c.05,.16,.04,.33-.04,.52-.13,.16-.31,.24-.52,.24h-12.56Zm-6.32-17.56c-.21,.61-.47,1.39-.78,2.34-.31,.95-.67,2.09-1.1,3.42h3.8l-1.92-5.76Z"/>
  <path class="cls-1" d="M251.18,160.66c-.19,0-.33-.09-.44-.28-1.12-1.63-1.68-3.31-1.68-5.04v-5.64c0-.67-.32-1-.96-1h-4.52v11.4c0,.37-.19,.56-.56,.56h-12.12c-.37,0-.56-.19-.56-.56v-30.72c0-.37,.19-.56,.56-.56h20.12c3.2,0,5.8,.84,7.8,2.52,1.89,1.57,2.84,3.51,2.84,5.8,0,3.6-1.51,6.19-4.52,7.76,3.01,1.44,4.52,3.95,4.52,7.52v2.52c0,1.41,.45,3.04,1.36,4.88,.13,.21,.13,.4,0,.56-.08,.19-.24,.28-.48,.28h-11.36Zm-3.08-21.4h-4.52v2.44h4.52c.24,0,.47-.12,.68-.36,.19-.27,.28-.55,.28-.84,0-.83-.32-1.24-.96-1.24Z"/>
  <path class="cls-1" d="M291.18,157.9c-2.67,2.35-6.65,3.52-11.96,3.52-4.45,0-8.15-.98-11.08-2.95-3.12-2.05-4.68-4.78-4.68-8.21,0-.37,.19-.56,.56-.56h9.56c.32,0,.51,.16,.56,.48,.16,1.07,.85,1.88,2.08,2.44,.88,.4,1.84,.6,2.88,.6,2.4,0,3.6-.4,3.6-1.2,0-.58-1.71-1.24-5.12-1.95-4.19-.88-7.17-1.83-8.96-2.87-3.12-1.78-4.68-4.43-4.68-7.93,0-2.98,1.27-5.53,3.8-7.66,2.77-2.37,6.52-3.55,11.24-3.55,4.16,0,7.61,.99,10.36,2.96,2.75,2,4.12,4.51,4.12,7.52,0,.37-.2,.56-.6,.56h-9.2c-.35,0-.53-.16-.56-.48-.29-2.05-1.64-3.08-4.04-3.08-2.13,0-3.2,.4-3.2,1.2,0,.48,.47,.88,1.4,1.2,.53,.21,1.69,.51,3.48,.88,4.08,.88,7.12,1.92,9.12,3.12,3.2,1.92,4.8,4.57,4.8,7.96s-1.16,6-3.48,8Z"/>
  <path class="cls-1" d="M4.58,169.58h2.03v7.3l2.83-7.3h2.05l-2.97,7.3,3.2,7.77h-2.29l-2.83-7.77v7.77h-2.03v-15.08Z"/>
  <path class="cls-1" d="M11.8,169.58h2.15l1,3.28c.03,.1,.06,.21,.1,.32s.07,.24,.12,.38c.37,1.18,.62,2.18,.76,2.99,.12-.81,.21-1.37,.29-1.69l.31-1.35,.12-.53,.84-3.41h2.12l-2.63,8.59v6.48h-2.03v-6.48l-3.14-8.59Z"/>
  <path class="cls-1" d="M20.73,169.58h1.99v10.65c0,1.09,.1,1.81,.29,2.17,.2,.36,.6,.54,1.19,.54s.98-.16,1.17-.47c.2-.32,.29-.97,.29-1.94v-10.95h1.99v10.95c0,1.64-.25,2.75-.75,3.33-.6,.66-1.51,.99-2.74,.99-1.35,0-2.31-.42-2.86-1.27-.38-.58-.58-1.69-.58-3.34v-10.65Z"/>
  <path class="cls-1" d="M28.82,186.02h11.31v1.79h-11.31v-1.79Z"/>
  <path class="cls-1" d="M41.29,169.58h2.03v13.36h3.32v1.72h-5.35v-15.08Z"/>
  <path class="cls-1" d="M47.91,169.58h5.4v1.72h-3.37v4.78h2.99v1.72h-2.99v5.15h3.37v1.72h-5.4v-15.08Z"/>
  <path class="cls-1" d="M53.98,169.58h2l.91,5.57,.16,1.01,.32,2.19c.05,.37,.1,.71,.14,1.02s.08,.58,.11,.83l.1,.74c.02-.15,.04-.28,.05-.4s.03-.21,.04-.29l.26-1.75,.34-2.29c.03-.21,.06-.4,.09-.58s.06-.33,.08-.47l.98-5.57h1.89l-2.96,15.08h-1.61l-2.91-15.08Z"/>
  <path class="cls-1" d="M62.57,169.58h5.4v1.72h-3.37v4.78h2.99v1.72h-2.99v5.15h3.37v1.72h-5.4v-15.08Z"/>
  <path class="cls-1" d="M69.84,169.58h2.03v13.36h3.32v1.72h-5.35v-15.08Z"/>
  <path class="cls-1" d="M77.4,174.41c.32,0,.6,.12,.83,.36,.23,.23,.35,.51,.35,.84s-.12,.62-.35,.86-.52,.35-.85,.35-.62-.12-.86-.35c-.23-.24-.35-.53-.35-.86s.12-.62,.35-.85c.24-.23,.53-.35,.88-.35Zm0,7.99c.32,0,.6,.12,.83,.36,.23,.23,.35,.52,.35,.85s-.12,.62-.35,.85c-.25,.23-.53,.34-.85,.34-.17,0-.33-.03-.47-.09s-.27-.15-.39-.25-.2-.23-.26-.38-.09-.3-.09-.47c0-.33,.12-.62,.35-.85,.24-.23,.53-.35,.88-.35Z"/>
  <path class="cls-1" d="M84.55,169.58h6.74l-4.57,15.08h-2.17l4.19-13.36h-4.19v-1.72Z"/>
  <path class="cls-1" d="M4.58,193.58h2.03v5.9h2.98v-5.9h2.03v15.08h-2.03v-7.46h-2.98v7.46h-2.03v-15.08Z"/>
  <path class="cls-1" d="M21.5,201.49c0,2.66-.3,4.55-.89,5.67s-1.59,1.68-2.98,1.68c-1.46,0-2.5-.6-3.1-1.81-.59-1.18-.89-3.27-.89-6.28,0-2.68,.29-4.58,.88-5.69,.59-1.12,1.6-1.68,3.01-1.68,1.26,0,2.2,.43,2.81,1.3,.4,.58,.7,1.4,.88,2.47,.18,.99,.27,2.43,.27,4.34Zm-2.13,.21c0-2.61-.12-4.34-.35-5.2-.23-.86-.71-1.29-1.44-1.29s-1.2,.39-1.45,1.18c-.23,.79-.35,2.39-.35,4.79,0,2.21,.12,3.74,.37,4.59,.25,.81,.73,1.21,1.43,1.21s1.15-.38,1.41-1.13c.25-.75,.38-2.13,.38-4.15Z"/>
  <path class="cls-1" d="M23.51,193.58h1.89l2.02,6.02c.59,1.7,1.1,3.51,1.55,5.44-.16-1.17-.28-2.22-.36-3.16s-.12-1.83-.12-2.67v-5.62h2.04v15.08h-1.9l-2.28-6.79c-.21-.63-.41-1.28-.59-1.94s-.36-1.36-.51-2.09c-.01-.09-.03-.2-.06-.33s-.06-.28-.1-.45c.02,.17,.04,.31,.05,.43s.02,.22,.03,.31l.11,1.53,.11,1.87c0,.1,.01,.23,.01,.38s0,.32,0,.51l.11,6.57h-2v-15.08Z"/>
  <path class="cls-1" d="M40.43,201.49c0,2.66-.3,4.55-.89,5.67s-1.59,1.68-2.98,1.68c-1.46,0-2.5-.6-3.1-1.81-.59-1.18-.89-3.27-.89-6.28,0-2.68,.29-4.58,.88-5.69,.59-1.12,1.6-1.68,3.01-1.68,1.26,0,2.2,.43,2.81,1.3,.4,.58,.7,1.4,.88,2.47,.18,.99,.27,2.43,.27,4.34Zm-2.13,.21c0-2.61-.12-4.34-.35-5.2-.23-.86-.71-1.29-1.44-1.29s-1.2,.39-1.45,1.18c-.23,.79-.35,2.39-.35,4.79,0,2.21,.12,3.74,.37,4.59,.25,.81,.73,1.21,1.43,1.21s1.15-.38,1.41-1.13c.25-.75,.38-2.13,.38-4.15Z"/>
  <path class="cls-1" d="M42.45,193.58h2.68c1.11,0,1.93,.26,2.47,.79,.68,.68,1.03,1.73,1.03,3.13,0,1.08-.18,1.95-.54,2.6s-.88,1.06-1.55,1.22l2.77,7.33h-2.06l-2.76-7.38v7.38h-2.03v-15.08Zm2.03,6.68c.79,0,1.34-.18,1.67-.55s.49-.98,.49-1.85c0-.47-.03-.87-.1-1.2s-.18-.6-.32-.81-.34-.36-.57-.46-.51-.15-.83-.15h-.34v5.01Z"/>
  <path class="cls-1" d="M51.81,198.41c.32,0,.6,.12,.83,.36,.23,.23,.35,.51,.35,.84s-.12,.62-.35,.86-.52,.35-.85,.35-.62-.12-.86-.35c-.23-.24-.35-.53-.35-.86s.12-.62,.35-.85c.24-.23,.53-.35,.88-.35Zm0,7.99c.32,0,.6,.12,.83,.36,.23,.23,.35,.52,.35,.85s-.12,.62-.35,.85c-.25,.23-.53,.34-.85,.34-.17,0-.33-.03-.47-.09s-.27-.15-.39-.25-.2-.23-.26-.38-.09-.3-.09-.47c0-.33,.12-.62,.35-.85,.24-.23,.53-.35,.88-.35Z"/>
  <path class="cls-1" d="M61.95,193.58h2.16l-1.42,2.9c-.25,.53-.5,1.09-.75,1.68s-.51,1.22-.79,1.89c.57-.45,1.11-.67,1.63-.67,.84,0,1.49,.36,1.94,1.09,.43,.68,.64,1.91,.64,3.67,0,1.67-.25,2.87-.75,3.6-.5,.72-1.32,1.08-2.45,1.08s-2-.4-2.51-1.2c-.51-.81-.77-2.12-.77-3.95,0-1.53,.2-2.99,.61-4.38,.21-.69,.52-1.5,.92-2.44s.92-2.03,1.53-3.29Zm1.48,10.56c0-.52-.02-.96-.07-1.33s-.12-.67-.22-.9-.24-.4-.4-.51-.35-.16-.58-.16-.42,.05-.58,.16-.29,.28-.4,.5-.18,.53-.22,.89-.07,.81-.07,1.32c0,1.97,.42,2.96,1.27,2.96s1.27-.98,1.27-2.94Z"/>
  <path class="cls-1" d="M69.22,198.48h-1.99l-.02-.6c0-1.65,.25-2.81,.74-3.48,.5-.68,1.34-1.02,2.52-1.02,2.22,0,3.33,1.23,3.33,3.69,0,1.66-.83,4.05-2.49,7.18l-1.2,2.26-.06,.12c-.03,.07-.08,.16-.14,.28h3.73v1.74h-6.62c.11-.25,.34-.74,.69-1.47s.83-1.73,1.44-2.98c.51-1.09,.94-2.02,1.29-2.78s.61-1.39,.78-1.88c.35-.98,.53-1.82,.53-2.53,0-1.25-.43-1.88-1.3-1.88s-1.25,.77-1.25,2.32v.86s.02,.16,.02,.16Z"/>
  <path class="cls-1" d="M247.58,241.58h5.4v1.72h-3.37v4.78h2.99v1.72h-2.99v5.15h3.37v1.72h-5.4v-15.08Z"/>
  <path class="cls-1" d="M260.51,240.07v16.59h-1.87v-1.3c-.27,.55-.53,.93-.8,1.14s-.62,.31-1.06,.31c-.83,0-1.45-.43-1.84-1.28s-.59-2.2-.59-4.04c0-.89,.05-1.65,.15-2.29s.25-1.17,.44-1.59,.45-.72,.77-.92,.68-.3,1.11-.3,.75,.1,1.02,.29c.13,.09,.26,.22,.4,.39s.27,.38,.4,.62v-7.63h1.87Zm-4.22,11.49c0,1.33,.09,2.26,.26,2.78,.18,.53,.5,.79,.96,.79,.42,0,.72-.27,.91-.82,.19-.59,.28-1.49,.28-2.71s-.09-2.13-.28-2.71c-.19-.55-.49-.82-.91-.82-.44,0-.76,.26-.95,.78-.18,.48-.27,1.38-.27,2.71Z"/>
  <path class="cls-1" d="M262.63,246.55h1.87v6.76c.01,.62,.11,1.07,.28,1.34s.46,.4,.86,.4,.72-.12,.89-.35c.17-.25,.25-.68,.25-1.29v-6.86h1.87v6.04c0,1.41-.1,2.36-.31,2.83-.44,.92-1.34,1.39-2.71,1.39-1.08,0-1.85-.27-2.3-.82-.46-.55-.68-1.47-.68-2.76v-6.68Z"/>
  <path class="cls-1" d="M276.53,246.55v10.11h-1.87v-1.3c-.27,.55-.53,.93-.8,1.14s-.62,.31-1.05,.31c-.84,0-1.46-.43-1.85-1.29s-.59-2.21-.59-4.04,.2-3.04,.59-3.86,1.01-1.24,1.85-1.24c.77,0,1.39,.44,1.86,1.31v-1.14h1.87Zm-4.22,5.01c0,1.33,.09,2.26,.26,2.78,.18,.53,.5,.79,.96,.79,.42,0,.72-.27,.91-.82,.19-.59,.28-1.49,.28-2.71s-.09-2.13-.28-2.71c-.19-.55-.49-.82-.91-.82-.44,0-.76,.26-.95,.78-.18,.48-.27,1.38-.27,2.71Z"/>
  <path class="cls-1" d="M278.65,246.55h1.87v1.26c.32-.53,.63-.91,.95-1.12s.73-.34,1.24-.37v1.95c-.13-.02-.24-.03-.33-.03-.67,0-1.15,.17-1.44,.52-.28,.34-.42,.93-.42,1.78v6.12h-1.87v-10.11Z"/>
  <path class="cls-1" d="M289.88,240.07v16.59h-1.87v-1.3c-.27,.55-.53,.93-.8,1.14s-.62,.31-1.06,.31c-.83,0-1.45-.43-1.84-1.28s-.59-2.2-.59-4.04c0-.89,.05-1.65,.15-2.29s.25-1.17,.44-1.59,.45-.72,.77-.92,.68-.3,1.11-.3,.75,.1,1.02,.29c.13,.09,.26,.22,.4,.39s.27,.38,.4,.62v-7.63h1.87Zm-4.22,11.49c0,1.33,.09,2.26,.26,2.78,.18,.53,.5,.79,.96,.79,.42,0,.72-.27,.91-.82,.19-.59,.28-1.49,.28-2.71s-.09-2.13-.28-2.71c-.19-.55-.49-.82-.91-.82-.44,0-.76,.26-.95,.78-.18,.48-.27,1.38-.27,2.71Z"/>
</svg>