<svg id="Ebene_1" data-name="Ebene 1" xmlns="http://www.w3.org/2000/svg" viewBox="0 0 308.48 543.34"><defs><style>.cls-1{fill:#010101;}.cls-2{fill:#0f1012;}.cls-3{fill:#030404;}.cls-4{fill:#08090a;}.cls-5{fill:#060708;}.cls-6{fill:#161719;}.cls-7{fill:#1f2022;}.cls-8{fill:#151617;}.cls-9{fill:#252527;}.cls-10{fill:#28282a;}.cls-11{fill:#29292b;}.cls-12{fill:#303033;}.cls-13{fill:#2a2a2c;}.cls-14{fill:#363638;}.cls-15{fill:#2e2e31;}.cls-16{fill:#444345;}.cls-17{fill:#484849;}.cls-18{fill:#3a3a3b;}.cls-19{fill:#252528;}.cls-20{fill:#878686;}.cls-21{fill:#716e6f;}.cls-22{fill:#6f6d6e;}.cls-23{fill:#cecdcd;}.cls-24{fill:#fff;}.cls-25{fill:#fffeff;}.cls-26{fill:#fefefe;}.cls-27{fill:#fefdfe;}.cls-28{fill:#fdfdfd;}.cls-29{fill:#fcfcfc;}.cls-30{fill:#f9f9f9;}.cls-31{fill:#242427;}.cls-32{fill:#272729;}.cls-33{fill:#323335;}.cls-34{fill:#474648;}.cls-35{fill:#dfdedf;}.cls-36{fill:#3f3e40;}.cls-37{fill:#c1bebf;}.cls-38{fill:#656465;}.cls-39{fill:#b9b7b7;}.cls-40{fill:#6a696a;}.cls-41{fill:#9c9b9b;}.cls-42{fill:#f0f0f0;}.cls-43{fill:#e2e1e1;}.cls-44{fill:#5e5c5d;}.cls-45{fill:#454445;}.cls-46{fill:#deddde;}.cls-47{fill:#afadae;}.cls-48{fill:#575758;}.cls-49{fill:#afadad;}.cls-50{fill:#959494;}.cls-51{fill:#828182;}.cls-52{fill:#6d6c6c;}.cls-53{fill:#f5f5f5;}.cls-54{fill:#4c4b4d;}.cls-55{fill:#888686;}.cls-56{fill:#e0dfdf;}.cls-57{fill:#838282;}.cls-58{fill:#bab9b9;}.cls-59{fill:#3e3e40;}.cls-60{fill:#9d9b9b;}.cls-61{fill:#0c0d0e;}.cls-62{fill:#c9c8c8;}.cls-63{fill:#fbfbfb;}.cls-64{fill:#f8f8f8;}.cls-65{fill:#c3c1c2;}.cls-66{fill:#1f1f21;}.cls-67{fill:#2f2f31;}.cls-68{fill:#39393a;}.cls-69{fill:#2d2d2f;}.cls-70{fill:#535253;}.cls-71{fill:#656364;}.cls-72{fill:#7f7d7d;}.cls-73{fill:#3d3d3d;}.cls-74{fill:#3c3b3d;}.cls-75{fill:#0a0b0c;}.cls-76{fill:#8c8b8b;}.cls-77{fill:#414042;}.cls-78{fill:#353537;}.cls-79{fill:#a7a6a6;}.cls-80{fill:#918f8f;}.cls-81{fill:#898787;}.cls-82{fill:#504f50;}.cls-83{fill:#242528;}.cls-84{fill:#919090;}.cls-85{fill:#626161;}.cls-86{fill:#565456;}.cls-87{fill:#535151;}.cls-88{fill:#a4a2a2;}.cls-89{fill:#4a494a;}.cls-90{fill:#2f2f30;}.cls-91{fill:#f7f6f7;}.cls-92{fill:#7d7c7c;}.cls-93{fill:none;}</style></defs><path class="cls-1" d="M275.44,422.38c-4.3,4.82-5.42,11.4-9.14,16.54-.79,1.09-.66,2.42-.87,3.67-.41,2.34-1,4.73-2.62,6.47-2.21,2.32-2.25,5-1.3,7.6,2,5.46,1,10.34-2.33,14.83a8.39,8.39,0,0,0-1.51,7.09,49,49,0,0,1,.23,13,8,8,0,0,0,2.33,6.84c3.81,4,3.77,5.42.41,9.67A6.7,6.7,0,0,0,259,512c-.62,9.78-1.49,19.53-1.46,29.35,0,2.93,1.26,4.36,3.71,5.15,5.24,1.67,10.69,1.87,16.11,2.15a92.05,92.05,0,0,1,16.13,2.11,19.94,19.94,0,0,1,10.52,6.39,11.41,11.41,0,0,1,2.84,9.05,5.77,5.77,0,0,1-2.6,4.41,20.38,20.38,0,0,1-13.19,4.07,118.45,118.45,0,0,1-27.33-3.56c-6-1.49-11.85-1.31-17.81-1-3.63.19-3.73.47-3.38,4.33.07.72.13,1.45.2,2.17.41,1.17.53,2.27-.83,2.94-5.07-6.67-12.09-2.18-18.16-3.14-.88-.34-1.53-.8-1-1.88-2.39-5.05-1.62-10.27-.85-15.49.16-1.13.51-2.37,1.4-2.87,3.47-1.92,3-5.14,2.69-8.12-1.06-10-.79-19.94-.82-29.93a10,10,0,0,0-.92-4.12c-1-2.29-1.63-4.94-.47-7.37,3.1-6.5,2.87-13.41,2.21-20.22-.49-5.05-1.55-10.05-1.6-15.15a4.82,4.82,0,0,0-1.61-3.87c-3.46-3-4.41-6.92-4.31-11.27-.61-1.13-2.64-.7-2.71-2.44.49-4.1,3.39-6.24,6.6-8.14a2.13,2.13,0,0,1,2,.76,2.4,2.4,0,0,1,.14,1.69,1.75,1.75,0,0,0,.67-.68,8.26,8.26,0,0,1,1.6-1.41c5.19-3.48,11-5.3,17-6.79,3.52-.87,7-1.78,9.26-6-8.27,1.23-15.21,5.61-23.11,6.13a2.55,2.55,0,0,1-2.23-3.06c.87-2.69,3.34-3.05,5.55-3.81,10.27-3.58,20.56-7.09,30.57-11.39,5.54-2.38,9-6.17,10.19-11.81s2.21-11.38,1.3-17.25c-.82-5.23-.28-10.51-.42-15.77s-1.37-9.71-6-12.68c-2.85-1.77-5.94-1.11-8.94-.74-2,.24-3.91.88-5.57-.78-4.64-23.5-16.23-43.15-33.38-60.07a20.57,20.57,0,0,1,2.25,9.45c-.18,1.7-.18,3.48-2.2,4.21-4.29-1.43-4.29-5.72-5.17-8.88-1.76-6.37-4.83-10.62-11.56-12.27-3.74-.91-3.71-3.46-.47-8.11a6.23,6.23,0,0,1,3.4,0,40.59,40.59,0,0,1,16.27,8.45c13.54,11.43,23.77,25.3,30,42a19.08,19.08,0,0,1,1.27,4.14c-2.86-15.36-.37-31.38-5.74-46.44,0-1.43.17-2.79,1.48-3.69,2.54-.59,2.84,1.53,3.67,3a8.72,8.72,0,0,0,1.53,2.14,6,6,0,0,1,.62.79c.28-.28.11-.73.39-1a27.48,27.48,0,0,1,2.26-2.67c4.77-4.78,10-8.62,17.1-9,1.39-.06,1.81-2.2,3.49-1.65,1.06,4.33.89,4.67-2.73,5.58-2.1,1-.15,3.54-1.75,4.75-2,1.68-4.59,2.28-6.73,3.69a4.05,4.05,0,0,0-2,2.2c-.87,5.18-.31,10.39-.32,15.59-.42,11.08.37,22.11,1.18,33.13.4,5.43,1.51,10.1,7.22,12.93,4.36,2.16,6.53,6.71,7.58,11.47,2.49,11.3,1.68,22.75.93,34.12a22.87,22.87,0,0,1-4.51,11.54A9.09,9.09,0,0,0,275.44,422.38Z" transform="translate(-97.56 -105.76)"/><path class="cls-1" d="M254.9,599.81a33.06,33.06,0,0,1,6.58,12.91c.93,3.82,0,7.55.17,11.3.12,3-2.77,5.47-5.61,6.86-12.61,6.16-25.56,9.06-39.32,3.86-3.21-1.21-6.51-2.2-9.81-3.13-7.32-2.06-8.66-4-7.93-11.61a14.89,14.89,0,0,1,1.19-4.73c.65-.61,1.32,1,2,0a23.4,23.4,0,0,1,1.77-3.67A45.68,45.68,0,0,1,232,594.79c6.62-1.28,12.48.39,18.07,3.71C251.46,599.73,253.41,599,254.9,599.81Z" transform="translate(-97.56 -105.76)"/><path class="cls-2" d="M224.11,447.3l-1.28-1.24c-.7-7.46-.7-7.46-7.86-4.28a14.23,14.23,0,0,1-1.5.66c-1.53.51-3.33,1.44-4.38-.44-1.21-2.14.68-3.31,2.09-4.37,1.89-1.42,4.17-2.19,6.18-3.43s3.46-2.89,2.37-5.4a5.75,5.75,0,0,0-5.54-3.71c-2.68,0-3.62,1.91-4.17,4.23-3,12.51-10.62,19-23.89,20.25a32.26,32.26,0,0,1-3.81.11c-2.1.18-4.07-1.83-6.24-.32-4.6.8-9.22,1.2-13.51,3.56s-8.86,1.93-13.25.37a45.35,45.35,0,0,1-11.75-6.77c-3.45-2.58-4-6.78-5.16-10.54-3.33-11.09-2.19-22.32-.57-33.49,1.28-8.82,4-17.3,6.56-25.82,3-10.1,8.69-18.82,15.37-26.72,10.42-12.33,18.24-26.15,25-40.66,2.78-5.92,5.66-11.81,9.56-17.07,5.15-7,4.76-14,1.4-21.51-3.23-7.24-3-14.45,2-21a7.09,7.09,0,0,1,1.71-1.24,2.16,2.16,0,0,1,1.6,1.65c.1,1.91-1.05,3.39-1.74,5-1.66,4-2.07,8-.26,12.05a31.33,31.33,0,0,1,3.21,13.57c7.4-3.83,14.32-7.54,22-9.42,5.11-.13,10.26-.82,15.25.92a13,13,0,0,0,3.64.8c1.17.08,2.33.12,3.5.13,2,.31,3.2,1.79,4.52,3.1a10.77,10.77,0,0,1,1.56,2.23c.44.78.83,1.58,1.23,2.38s.84,1.6,1.25,2.4a36.77,36.77,0,0,0,2.16,3.62c.73,1.4,1.33,2.79.09,4.22-1.4.77-1.12,2.15-1.24,3.38-2.51,0-2.54-2.23-3.17-3.75-5.13-12.28-17.61-16.67-29.35-10.3-2,1.1-3.76,2.88-6.32,2.79a2.45,2.45,0,0,1-1.9-1.35c-.38-1.58.61-2.38,1.76-3.08.9-.16,1.56-.85,2.37-1.15a3.22,3.22,0,0,0,1-.35,3.19,3.19,0,0,0-1,.28c-.84.3-1.5.93-2.36,1.16-1,.56-1.7,1.5-2.67,1.88-12.34,4.89-18.3,15.41-23.62,26.55-7.53,15.76-16.24,30.7-27.31,44.4-17.59,21.78-23.39,47.53-22.51,75,.37,11.58,7.14,18.84,18.38,21,3.62.71,6.16-1.91,9.35-2.31,1.44-.12,2.82.39,4.25.36,8.63-.79,17.36-.61,25.68-3.69,7.4-2.75,12.51-7.87,12-15.7-1.17-17,5.86-31.88,10.63-47.36,1.76-5.72,1.94-11.82,4.56-17.28,1.68-1.8,2.27-.38,3,1,.53,1.06-.25,3.2,2.2,2.73,8-2.32,16.29-3.33,24.35-5.34,1.75-.43,3.59-.6,5.13.79,1.43,1.94,3.15.82,4.91.63,3.47-.38,7.09-1.68,10.36.81-2,1.79-4.46,1.17-6.75,1.45-11.73,1.4-23.18,4.28-34.73,6.63-2.63.53-4.86,1.66-5.66,4.47-3.54,12.4-8.43,24.38-11.43,36.94-1.64,6.87-1.43,6.92,5.38,8a11.41,11.41,0,0,1,9.66,9.73c.32,2.35.33,4.72,2.08,6.59a2.2,2.2,0,0,0,2.27,2.4c-.4,2.86-2.64,4.83-3.6,7.42-.48.54-1.12.91-1.63,1.43A1,1,0,0,1,224.11,447.3Z" transform="translate(-97.56 -105.76)"/><path class="cls-3" d="M275.5,211.93c-1.64,8.16-6,15-10.68,22,2.95,1.67,6.27,3.13,7.32,6.9.55,1.07.6,2-.65,2.64-6.29-3.54-6.25-3.5-11.69,2.29-3.35,3.57-6.8,7.09-11.72,8.53-1.14.45-2.07,1.44-3.41,1.42a2.57,2.57,0,0,1-1.79-1.3c-1.41-2.42-.12-4.42,1-6.46a17.56,17.56,0,0,1,2.57-3.49c1.86-2.13,1.14-3.36-1.21-4.51-8.11-4-15.51-9.09-22.75-14.45.33-2.44-2.2-.81-2.78-2-.5-1.68-2.49-1.87-3.28-3.27a20.91,20.91,0,0,1-2.06-3.74c-.74-4.14-.12-8.54-2.38-12.39-.06-2.88.32-5.63,2.21-8,2.25-1,2.94.49,3.1,2.22s1.44,1.68,2.66,1.73c2.31,3.58,5.21,6.79,6.53,11,1,3.06,8.9,7.86,12,7.4a3.58,3.58,0,0,0,1.91-1.82c.7-1.59.86-3.33,1.4-5,.91-2.56,2.85-3.57,5.43-3.73,4.7-.29,9.5-.92,14,.37s9.08,1.6,13.54-.39C276.43,209,275.78,210.5,275.5,211.93Z" transform="translate(-97.56 -105.76)"/><path class="cls-4" d="M195,249.91l-1.59-1.47c1.87-2.21,4.44-2.83,7.15-3.05,1.6-.13,3.21-.1,4.82-.16,5.56-.24,7.39-1.9,8.42-7.61.12-.7.35-1.37.53-2.06,2.17-.27,2,2.56,3.72,2.83a16.84,16.84,0,0,1,5.44,2.27c.7.48,1.37,1,2.09,1.47a7.1,7.1,0,0,1,1,.66,8.76,8.76,0,0,1,.85.75l.4.39c.27.24.52.51.77.77,0,0,.37.4.38.39a8.85,8.85,0,0,1,.75.75s.37.39.38.38c.27.23.51.49.76.75,0,0,.37.39.38.38.27.24.52.5.77.76s.26.26.4.38.54.52.81.78l.42.4c.3.27.58.55.86.83s.26.31.4.46a4.34,4.34,0,0,1,.61,1.09,3,3,0,0,1,0,1.26,2.2,2.2,0,0,1-.79,1l-.61.14A3,3,0,0,1,233,254l-.47-.37a11,11,0,0,1-.85-.82l-.4-.42c-.27-.25-.53-.53-.78-.81l-.38-.4c-.27-.24-.51-.51-.76-.77,0,0-.37-.4-.38-.39q-.39-.36-.75-.75s-.36-.39-.37-.38c-.26-.23-.5-.49-.74-.74,0,0-.36-.38-.37-.37-.27-.24-.51-.49-.75-.75,0,0-.38-.39-.39-.38l-.81-.71s-.43-.31-.43-.3a6.79,6.79,0,0,0-.93-.39,3.53,3.53,0,0,1-.46,0s-.43.19-.41.22c-.3.82.23,1.37.62,2a53.38,53.38,0,0,0,7,6.69c1.55,1.2,3.29,2.31,3.1,4.68a2.27,2.27,0,0,1-1.64,1.49c-4.62-.48-7.65-3.85-11.16-6.28-4.49-3.11-11.68-.08-12.34,5.37-.3,2.44,1.76,2.9,3.34,3.67,4.69,2.29,10,1.42,14.89,3a27.8,27.8,0,0,0,8.55,1.46c1.38-.23,2.11-2.35,3.92-1.39,2,2.21,3,4.63,1.61,7.55-1,1.77-2.11.46-3.17.05-.74.66-1.24.14-1.76-.35-.76-.75-1.78-.68-2.74-.82a17.31,17.31,0,0,0-6.95-1c-8.4-.64-16.48-2.34-24-6.49-5.64-3.13-7.65-6.5-6.72-12.08a9.88,9.88,0,0,1,1.18-1.81l.87-.86c.63-.34.63.52.35-.14-.15-.35-.58-.07-.87.1A1.73,1.73,0,0,1,195,249.91Z" transform="translate(-97.56 -105.76)"/><path class="cls-5" d="M273.14,254.07c3.55,4.5,2.23,9.36,1.06,14.21.94,1.28.61,2.52-.11,3.75-5.85,4.09-9.15,10.54-14.22,15.36a3.26,3.26,0,0,1-2.43-.26c-4.24-5.19-7.25-10.89-7.32-17.8a3.56,3.56,0,0,1,1.71-2.72c4.11-1.36,6.37,3.09,10.48,3.26-2.22-1.73-4.42-2.79-6.36-4.21-2.56-1.89-2.73-4.46.35-5.32,5.45-1.52,9.17-5.86,14.29-7.76C271.89,252.32,272.53,253.17,273.14,254.07Z" transform="translate(-97.56 -105.76)"/><path class="cls-6" d="M285.31,309.62c10,13.5,21.17,26.15,30.08,40.49,3.53,5.67,8.09,10.62,11.35,16.54,7.35,13.36,8.81,27.52,5.85,42.14-2.26,11.19-5.58,22.11-13.52,30.9l-.7-.42a4.47,4.47,0,0,1-1.21-3c5.49-9.43,9.7-19.31,11.53-30.2,2.83-16.87-1.11-31.9-10.93-45.72-10.7-15-21.68-29.89-32.65-44.73-1.08-1.46-2.22-2.92-1.74-4.94C283.76,309.85,284.26,309.23,285.31,309.62Z" transform="translate(-97.56 -105.76)"/><path class="cls-7" d="M213,203.61c3,3.89,2.29,8.46,2.37,12.88l-.39.67c-2.27-.76-2.3-2.84-1.9-4.41,1-3.84-1.48-1-2.27-1.32a3.89,3.89,0,0,1-2.17-1c-5.69-4.28-7.88-10.65-9.63-17.07-2.76-10.19-1.09-20.14,2.71-29.8,6.21-15.81,16.75-28.21,30.16-38.39,4.45-3.38,9.62-3.13,14-1.63,9.16,3.11,17.41,8.06,22.71,16.71a4.89,4.89,0,0,1,.34,1c.45,1-.13,1.5-.94,1.88-2.62.06-3.65-2.17-5-3.71a43.55,43.55,0,0,0-16.35-11.37c-4.92-2-9.57-2-13.84,1.42-16.13,12.83-27.57,28.68-31,49.45-1.35,8.16,1,15.74,4.82,23C208.36,205.16,210.31,205.39,213,203.61Z" transform="translate(-97.56 -105.76)"/><path class="cls-8" d="M219.86,200.55c-1,.3-1.33,2.11-2.55,1.67s-1.63-1.8-1.21-3.18a2.18,2.18,0,0,0-.84-2.82c-1.64-1.77-1-3.76-.43-5.66,2.17-7.5,4-15.08,6.14-22.59a33.07,33.07,0,0,1,32.31-24.36c10,0,15.91,6,19.71,14.6a32.63,32.63,0,0,1,1.27,4.65c1,1.58-.19,4,2,5.16-.24,5.77,1,11.53.13,17.31-1.7,2.77,1.07,6.42-1.76,9-3.32-1.9-3-5.23-2.85-8.19.37-7.35-.86-14.45-2.66-21.49-3-11.9-10.82-16.85-22.74-13.93-10,2.46-17,8.68-19.79,18.88-2.18,8-3.95,16.22-6.58,24.14C219.17,196.14,220.41,198.3,219.86,200.55Z" transform="translate(-97.56 -105.76)"/><path class="cls-9" d="M176.08,449.36c2-1.9,4.46-.87,6.73-1,2.55,2.05,4.46,4.82,7.2,6.62,2.22,1.46,4.58,3,5.15-1.75.38-3.25,2.41-2.51,4.12-.8a7.84,7.84,0,0,1,1.61,3.42c1.3,4.15,3.58,3.71,6.76,1.4-2.09-1.93-4-3.56-5.29-5.75-.59-1-2-2.07-.84-3.33a2.66,2.66,0,0,1,3.94-.11c2.9,3.45,7.2,3.84,10.91,5.52.38,1.14,2,1.21,2.16,2.56a2.78,2.78,0,0,0-3,.81c-1.8,2.13-4.34,3.22-6.58,4.74-3.51,2.36-6.9,3.13-10.42.1a2.56,2.56,0,0,0-1.94-.75c-7.5.53-11.94-4.4-16.16-9.41A5.23,5.23,0,0,0,176.08,449.36Z" transform="translate(-97.56 -105.76)"/><path class="cls-10" d="M309.35,445.3c-.77,1.83-2.27,2.54-4.09,3.12-6.47,2.07-12.87.57-19.07-.79-4.65-1-7.59-4.64-7.94-9.79-.3-4.28.3-8.25,3.58-11.39l.75,0c1,.34,1.91.76,1.68,2.09a13.63,13.63,0,0,0-1.93,9.84c.46,2.53,1.82,4.53,4.33,5,3.24.61,2.26-2.51,3-4a4.89,4.89,0,0,1,2-2.47,2.64,2.64,0,0,1,2.23.19c2.39,8.89,2.39,8.89,11.94,6.62a5.38,5.38,0,0,1,2.11-.15,3,3,0,0,1,1.21,1C309.22,444.79,309.29,445.05,309.35,445.3Z" transform="translate(-97.56 -105.76)"/><path class="cls-11" d="M217.66,239.82c-1.47.15-2.3-.47-2.36-2a2.78,2.78,0,0,0-.93-2.28c0-2.08.86-4.25,2.52-5,3.5-1.58,3.23-4.17,2.82-7.05,1.08.38,3.27-1.9,3.18,1.32a7.43,7.43,0,0,0,2.16,5.86c6.37,6.23,11.85,13.46,19.76,18-.22,1.75-2.29,3.13-1.06,5.17-2.51,1.25-3.49-1.09-4.81-2.24a153.79,153.79,0,0,1-14.17-14c-1.25-1.4-2.5-3.52-4.82-2.85S218.5,238.14,217.66,239.82Z" transform="translate(-97.56 -105.76)"/><path class="cls-12" d="M202.3,616.1c-.13.49-.15,1.31-.43,1.4-.59.21-.62-.52-.84-.94a12,12,0,0,0-.86-1.29c.39-7.69,4.94-13.56,9.27-19.19a122.72,122.72,0,0,0,13.37-21.51c.4.45.79.91,1.19,1.37,1.59,2,.1,3.77-.68,5.47a77.47,77.47,0,0,1-11.1,17.13c-3.32,4-5.41,8.9-8.24,13.28C203.09,613.11,203.06,614.75,202.3,616.1Z" transform="translate(-97.56 -105.76)"/><path class="cls-13" d="M254.9,599.81c-1.55.42-3,2.39-4.69.26-1.87-4.93-5.82-8.71-7.63-13.67-.83-2.29-2.67-4.46-1.16-7.14,1.06-.56,1.06-1.66,1.36-2.61C246.1,584.75,251,592,254.9,599.81Z" transform="translate(-97.56 -105.76)"/><path class="cls-14" d="M285.31,309.62l-1.45,1.5c-4.91-2.73-10.59-13.53-9.84-18.75a2.6,2.6,0,0,0,1.12-2.2c.08-1.08.31-2.07,1.7-2.1-1.78,3.15-.13,5.88,1.25,8.52C280.39,301,282.89,305.28,285.31,309.62Z" transform="translate(-97.56 -105.76)"/><path class="cls-15" d="M274.33,194c1.4-1.21.89-2.85,1-4.36s-.41-3.16,1-4.35c.14,8.88.76,17.77-.86,26.6-.51-1.2,0-2.73-1.25-3.68C272.32,203.51,273.54,198.78,274.33,194Z" transform="translate(-97.56 -105.76)"/><path class="cls-16" d="M273,271.62c1.3-.79.86-2.21,1.23-3.34.66,5.17,3.57,9.48,5.37,14.21-1.23.68-.47,2.88-2.34,3.06C275.39,281,271.46,277.16,273,271.62Z" transform="translate(-97.56 -105.76)"/><path class="cls-17" d="M267.55,142.83l1.44-1.51c2.61,2.76,3.2,6.43,4.42,9.81.36,1.07-.12,1.6-1.14,1.78C268.86,150.41,266.69,147.33,267.55,142.83Z" transform="translate(-97.56 -105.76)"/><path class="cls-16" d="M273.14,254.07l-2.06-1c-.72-3.3-1.54-6.61,0-9.9.82-.57.72-1.54,1-2.32C275.08,245,274.31,249.53,273.14,254.07Z" transform="translate(-97.56 -105.76)"/><path class="cls-18" d="M208.66,210.48l2.54.06c1.07,1.28,1,2.93,1.4,4.43s.82,2.72,2.74,2l0-.47c1.19,1,1.18,2.37,1,3.75-1.64-1.09-3.56-.85-5.37-1.14-.42-.3-.77-.7-1.19-1C208.09,215.77,209.77,212.91,208.66,210.48Z" transform="translate(-97.56 -105.76)"/><path class="cls-19" d="M275.44,422.38c-.91-1.84-1-3.49,1.12-4.58,1.92,1.11,4.28.47,6.21,1.58a2.12,2.12,0,0,1,.8,2,1.49,1.49,0,0,1-1,1.05Z" transform="translate(-97.56 -105.76)"/><path class="cls-20" d="M276.23,168c-.67.16-1.15,2.62-1.9.48-.54-1.56-1.35-3.27-1-5.1a1.53,1.53,0,0,1,.95-.46c.57-.09.73-.79,1.3-.87A10,10,0,0,1,276.23,168Z" transform="translate(-97.56 -105.76)"/><path class="cls-21" d="M275.56,162.07c-.49.43.24,2.48-1.56,1.18-.44-1.36-.69-2.78-1.22-4.12a4.22,4.22,0,0,1-.09-1.46,3.07,3.07,0,0,1,1.77-2.27A16,16,0,0,1,275.56,162.07Z" transform="translate(-97.56 -105.76)"/><path class="cls-22" d="M274.46,155.4a4,4,0,0,1-1.14,2.65c-1.34-1.62-2.73-3.24-1.18-5.48l1.27-1.44C274.62,152.35,274.34,153.92,274.46,155.4Z" transform="translate(-97.56 -105.76)"/><path class="cls-10" d="M313.52,444c-1.13,1.29-2.88.56-4.17,1.3a5.8,5.8,0,0,1-.34-.52c.61-2.46,2.28-1.9,3.93-1.39C313.13,443.6,313.33,443.8,313.52,444Z" transform="translate(-97.56 -105.76)"/><path class="cls-19" d="M281.83,426.45c0-1.23-.17-2.51.83-3.5a1.52,1.52,0,0,1,1,.93c.15,1.21.29,2.41-1.36,2.72Z" transform="translate(-97.56 -105.76)"/><path class="cls-6" d="M315.63,442.81a2.15,2.15,0,0,1-2.11,1.19l-.06-.38c.05-1,.68-1.22,1.52-1.2Z" transform="translate(-97.56 -105.76)"/><path class="cls-23" d="M209.87,218.09a1.51,1.51,0,0,1,1.19,1A1.05,1.05,0,0,1,209.87,218.09Z" transform="translate(-97.56 -105.76)"/><path class="cls-6" d="M319.07,439.69A1.13,1.13,0,0,1,318,440.8l-.33-.64a1.11,1.11,0,0,1,1.12-.7Z" transform="translate(-97.56 -105.76)"/><path class="cls-6" d="M318,440.8a1.23,1.23,0,0,1-1.14,1l-.26-.69a1,1,0,0,1,1.19-.56Z" transform="translate(-97.56 -105.76)"/><path class="cls-6" d="M316.84,441.84a1.12,1.12,0,0,1-1.21,1l-.08-.13c0-.82.29-1.2,1.13-1Z" transform="translate(-97.56 -105.76)"/><path class="cls-19" d="M282.66,423a.3.3,0,0,1-.08-.51l.51-.44c.42-.09.78,0,.88.38.18.65-.22.91-.81,1Z" transform="translate(-97.56 -105.76)"/><path class="cls-24" d="M162.74,445.91a29.74,29.74,0,0,0-3.06,2.25c-2,1.87-4.23,1.86-6.59,1-2.73-1-5.48-1.91-8.16-3-4.65-1.9-7.53-5.46-9.26-10.1-3.5-9.37-2.56-19-1.58-28.58,1.11-10.88,4.25-21.35,7.68-31.69,3.19-9.61,8.58-18.1,15-25.72,10.32-12.17,18.22-25.73,25-40.08,2.48-5.26,5.49-10.23,8.37-15.27,5-8.77,12.51-13.86,21.91-16.64.31.23.41.47.3.7s-.21.34-.32.34l-2.18,2.15a8.55,8.55,0,0,1-5.56,5.43c-1.56,1.82-1.35,4.19-2.41,6.48,4,.67,7.78.53,10.67,3.63a13.81,13.81,0,0,1,3.77,6.32,59.15,59.15,0,0,0,4.36,12.06c2.73,3.38,2.28,7.65,2.47,11.44.52,10.29.8,20.65-.87,30.92a5.59,5.59,0,0,1-1.42,3.44c-2,13.88-6.7,27-11.3,40.11a51.9,51.9,0,0,0-3.11,20.27,69.53,69.53,0,0,1-.27,7.06c-.38,7-4.52,11.07-10.44,13.9-8.08,3.86-16.76,4.2-25.46,4.54l-3.79.14c-2.18-3,1.65-3.38,2.14-5.06C166.91,443.51,165.33,445.45,162.74,445.91Z" transform="translate(-97.56 -105.76)"/><path class="cls-24" d="M274,292.37a62.1,62.1,0,0,0,9.84,18.75c5.39,8.63,11.86,16.46,18,24.57,8,10.57,15.83,21.24,22.44,32.7,7.86,13.6,8.29,28.22,4.72,43.24a75.77,75.77,0,0,1-11.21,25.69c0,.18,0,.36,0,.55a4.33,4.33,0,0,1-.58.94l-.37.42c-.25.29-.52.56-.78.84s-.27.28-.4.43c-.27.31-.55.59-.85.88l-.51.39a5.23,5.23,0,0,1-1.21.53,3,3,0,0,1-1.32-.44,5.77,5.77,0,0,1-1.45-1.62c-3.05-6.29-9.08-9.09-14.59-12.52-2-1.22-4.49-1.6-5.66-4a3.15,3.15,0,0,1,.52-2.42c1.22-1.21,2-2.36,1.12-4.29-3.22-7.28-3.12-15.13-3.66-22.88s-1.44-15.5-1.09-23.29c-.14-3.8.43-7.62-.46-11.38a16.74,16.74,0,0,1-.48-3.3,14.87,14.87,0,0,0-.56-3.81,15.15,15.15,0,0,1-.43-2.91,13.16,13.16,0,0,0-.52-3.41,12,12,0,0,1-.33-1.31,17.68,17.68,0,0,0-.74-3.2,7.78,7.78,0,0,1-.33-1.26,15.7,15.7,0,0,0-.78-3.16c-.17-.42-.3-.85-.43-1.29-.29-.9-.61-1.78-.94-2.68a14.69,14.69,0,0,1-.45-1.47c-2.56-7.38-6.85-13.93-10-21-2.12-4.8-4-9.68-2.69-15.11C269.53,293.86,271.82,293.2,274,292.37Z" transform="translate(-97.56 -105.76)"/><path class="cls-24" d="M228.35,436.08c-2.14.29-4,.51-3.72-2.77.82-9.17-4.7-13.94-13.62-12-.49.11-1,.14-1.68.23a31.84,31.84,0,0,1,1.39-14.06c2.84-9.18,5.85-18.3,8.78-27.45a19.81,19.81,0,0,0,1.35-4.69c.24-4.32,3.08-6,6.66-6.54,11.11-1.75,21.93-4.95,33.1-6.34,3.06-.39,6.11-1,9.19-.24a13.49,13.49,0,0,1,6.5,11.28c.32,9.6,1.2,19.19.5,28.8a54.14,54.14,0,0,1-1,6.43c-1.31,6.69-4.86,10.95-11.5,13.77-10.52,4.46-21.32,8-32.08,11.73C230.84,434.72,229.33,434.86,228.35,436.08Z" transform="translate(-97.56 -105.76)"/><path class="cls-24" d="M254.53,360.81c-7.07,1.37-14.17,2.63-21.2,4.17-3.13.68-6.54.41-9.3,2.48-3.07-3.15-2-7.1-1.67-10.68,1.37-15.5.38-31-.3-46.43,0-4-2.54-7.42-3.2-11.61,4.81,3.06,7.88,7.37,11.36,11.25a109.19,109.19,0,0,1,22.14,38.84c1,2.91,1.92,5.84,3,8.71C255.86,358.91,255.87,360,254.53,360.81Z" transform="translate(-97.56 -105.76)"/><path class="cls-24" d="M211.31,282.63c3.83-2.32,7.58-4.69,12-5.94,9.2-2.59,21.52,3.41,24.82,12.34.68,1.83.67,3.92,2.07,5.48,3.62,6.22,3.3,13.21,3.78,20,.68,9.56,1.26,19.13,1.92,29.08-2.35-1.42-2.54-3.53-3.29-5.23-4.39-9.95-8.9-19.83-15.87-28.32-6.38-7.76-13.59-14.56-22.43-19.48a19.08,19.08,0,0,0-7.61-2.72C206.47,284.55,208.66,283.39,211.31,282.63Z" transform="translate(-97.56 -105.76)"/><path class="cls-25" d="M283,420c-1.76,0-3.51.05-5.26,0s-1.25-1.24-1.14-2.23c3.38-4.06,4.69-9,5.1-14,.81-9.93,1-19.9-.8-29.8-1.24-6.87-4.31-12.34-11.25-14.69-2.43-.82-2.7-2.53-3-4.53-1.52-9-1.69-18-2.06-27.08-.19-4.52,0-9.06,0-13.58,1.38-4.32-.72-8.95,1.17-13.22,1.16-.23,1.65.56,1.86,1.43,2.3,9.35,7.78,17.26,11.72,25.86,1,2.14,1.24,4.47,1.95,6.68a6.14,6.14,0,0,1,.5,1.46,12.22,12.22,0,0,0,.85,2.82,8.77,8.77,0,0,1,.34,2.09,18,18,0,0,0,.75,3.33,8,8,0,0,1,.32,1.35,29,29,0,0,0,.89,3.41,11,11,0,0,1,.22,2.21c0,1.6.72,3,1,4.58.13,1.13.08,2.26.27,3.38.57,3.61-.11,7.3.87,10.87.24,15.58.39,31.16,3.84,46.47.63,2.77-.74,4.08-3.33,4.46A6.09,6.09,0,0,1,283,420Z" transform="translate(-97.56 -105.76)"/><path class="cls-26" d="M216.37,453.6c-4.29.37-8.42.46-10.8-4.22-.81-1.57-2.3-1.54-3.78-.81,2.51,3.14,4.1,7.2,9.3,8a19,19,0,0,1-6,4c-2.61,1.22-4.35.3-5-2.67a17.3,17.3,0,0,0-1.63-4.59c-.52-.92-1.3-2.07-2.5-1.35-1,.6-.26,1.56.24,2.33a5.25,5.25,0,0,1,.78,3.4c-2.44,1.35-5,.45-7-.78a24.45,24.45,0,0,1-7.52-7.53c-.11-.18.22-.65.34-1,8.78-.41,16.67-2.89,22.64-9.79,1.79-2.06,3.24-4.11,2.92-7.23-.19-1.84-.11-4.13,1.16-5.75a5.77,5.77,0,0,1,6.3-2.1c3.31.84,5.81,3.33,6.25,6.11.4,2.54-.77,4.16-2.91,5.26-2.73,1.4-5.52,2.69-8.18,4.22-.94.55-2.55,1.35-1.51,2.89.87,1.31,1.93.11,2.81-.32,2.44-1.18,4.81-2.5,7.26-3.65,3.19-1.51,5.37,0,4.9,3.48a22.81,22.81,0,0,1-1.62,4.56C220.67,448.57,217.74,450.41,216.37,453.6Z" transform="translate(-97.56 -105.76)"/><path class="cls-26" d="M269.87,550.8c3.71,1,7.53.87,11.31,1.15,4.26.31,5.78,1.79,6.15,6a27.8,27.8,0,0,1-.11,6c-.78,5.91-2.53,7.41-8.41,6.83a95.1,95.1,0,0,1-12.32-2.06,55.19,55.19,0,0,0-17.22-1.47,5.67,5.67,0,0,1-3.24-.33c-.52-2.52,1.17-4.9.55-7.48-.39-1.66,1.3-2,2.18-2.75,3-2.65,6.45-4.75,8.43-8.69,2.09.21,3.75,2.08,6,1.86,5.92.36,4.36,4.6,4.42,7.81C268.85,555.81,265.64,552,269.87,550.8Z" transform="translate(-97.56 -105.76)"/><path class="cls-27" d="M241.42,579.26c1.66,6.17,5,11.5,8.19,16.93.56.95,3.19,2.22.6,3.88-10-6.1-20-5.24-29.93,0-6.16,3.25-11.91,7-15.84,13-1,.25-1.55,0-1.25-1.19,2.39-6.57,6.43-12.12,10.67-17.57S222.36,583,224,575.94c1-1.55,2.54-.92,3.89-.89,3.74.06,7.45,0,10.76-2C240.93,574.65,239.4,577.74,241.42,579.26Z" transform="translate(-97.56 -105.76)"/><path class="cls-28" d="M217.66,239.82c-1.36-2.57-.67-6.15,1.38-7.29a2.37,2.37,0,0,1,2.92.58,37,37,0,0,1,3.89,3.72c5.29,6.41,11.59,11.72,17.9,17l1,1.3c5.2,3.49,6.85,8.53,6.33,14.52.7,6.33,4.12,11.57,6.85,17.1.25,3.77-.13,7.22-4.42,8.68-.69-1.44-1.39-2.88-2.08-4.33a6.17,6.17,0,0,0-1.26-4.32c-.76-1.44-.81-3.08-1.24-4.61-.78-2.19-1.47-4.41-2.21-6.61a44.76,44.76,0,0,0-1.72-4.92c-1.05-2.78-3-5.08-4.32-7.69-1.22-3.81-4.56-6.49-5.52-10.43a.52.52,0,0,0-.44-.66,2.44,2.44,0,0,0-.91-1l-.05,0a3.81,3.81,0,0,0-1-1l-.05-.05a4.15,4.15,0,0,0-1-1.06l0,0a6.72,6.72,0,0,0-1-1.1v0c-.33-.39-.72-.74-1-1.14l0,0a5.61,5.61,0,0,1-1.09-1.14l0,0a6.25,6.25,0,0,1-1.15-1.09l0,0a8.32,8.32,0,0,0-1.18-.95l-.08-.05c-.45-.82-1.49-.51-2.05-1.1A11.2,11.2,0,0,0,217.66,239.82Z" transform="translate(-97.56 -105.76)"/><path class="cls-29" d="M273,271.62a28.45,28.45,0,0,0,3.33,8.92c.85,1.61,1.68,3.14.93,5-7.9-.73-12.88,4.41-18.13,9-1,.36-1.53-.24-1.92-1.06-.2-2.71,1.06-4.81,2.82-6.71a52,52,0,0,1,8.83-12C270.06,273.56,271,271.92,273,271.62Z" transform="translate(-97.56 -105.76)"/><path class="cls-30" d="M226.05,445.88a11.94,11.94,0,0,1,4.57-7.4l24.29-7.76c-1,5.7-3,8.11-9,9.31a72.29,72.29,0,0,0-19.64,7.51A1.23,1.23,0,0,1,226.05,445.88Z" transform="translate(-97.56 -105.76)"/><path class="cls-31" d="M222.06,310.35c1.42,3.76,1.62,7.73,1.86,11.66a243.49,243.49,0,0,1-.8,40.68c-.16,1.53-1.48,3.6.91,4.77-1,1.16-1.76.9-2.11-.49-.5-2,.75-4.21-1-6,.08-7.91,1.15-15.77,1.1-23.71-.06-7.4-1-14.72-1.28-22.09C222.47,314,221.49,311.94,222.06,310.35Z" transform="translate(-97.56 -105.76)"/><path class="cls-32" d="M280.71,336a112.41,112.41,0,0,0-9.94-21.61c-2.39-4.13-3.48-8.74-4.28-13.4-1.49-1.2-.31-3-1-4.38a2.2,2.2,0,0,1,2.27-1.08c1.38,7.07,2.59,14.15,6.76,20.34a71.44,71.44,0,0,1,4.8,9.08c1.16,2.42,2.43,4.85,2.46,7.65C280.9,333.61,282.08,335.23,280.71,336Z" transform="translate(-97.56 -105.76)"/><path class="cls-33" d="M269.87,550.8c-1.35.54-1.07,1.66-1,2.74a36.15,36.15,0,0,1,0,4.88c-.14,1.61-.59,4-2.34,3.66-2.3-.45-.64-2.52-.45-3.94.18-1.25.09-2.54.32-3.78.49-2.69-1.05-3.82-3.25-4.51C265.46,549.7,267.83,549.1,269.87,550.8Z" transform="translate(-97.56 -105.76)"/><path class="cls-34" d="M260,286.78l-2.19,6.51c-.55.69-.16,1.67-.71,2.36a3.73,3.73,0,0,1-1.53,1.07c-.87-.11-1.91.06-2-1.26,2.81-2.21,2.65-5.94,4.42-8.68Z" transform="translate(-97.56 -105.76)"/><path class="cls-35" d="M265.5,296.65c1.68,1.16,1.1,2.82,1,4.38-1.44,1.94-.51,4.19-.81,6.28-.32,2.27.47,4.73-1.14,6.78-.28-5.21.87-10.43-.1-15.66C264.35,297.92,265.13,297.25,265.5,296.65Z" transform="translate(-97.56 -105.76)"/><path class="cls-36" d="M211.31,282.63c-1.1,2.13-4.2,2.49-4.6,5.23l-2.41-1.13c1.13-2.56,3.25-4.09,5.56-5.43Z" transform="translate(-97.56 -105.76)"/><path class="cls-37" d="M256.65,295.5a3.43,3.43,0,0,1,1.16-2.21l1.29,1.26a3.31,3.31,0,0,1-2.33,2.23.81.81,0,0,1-.35-.82C256.48,295.65,256.56,295.5,256.65,295.5Z" transform="translate(-97.56 -105.76)"/><path class="cls-38" d="M224.11,447.3l.9-.2c.62.36.67.79.14,1.28C224.16,449,224.16,449,224.11,447.3Z" transform="translate(-97.56 -105.76)"/><path class="cls-39" d="M225.15,448.38c-.05-.43-.09-.85-.14-1.28l1-1.22.24,1.66C226.25,448.28,225.72,448.36,225.15,448.38Z" transform="translate(-97.56 -105.76)"/><path class="cls-40" d="M256.65,295.5l.12,1.28c-.47,1.31-.84.72-1.2-.06Z" transform="translate(-97.56 -105.76)"/><path class="cls-41" d="M203.19,611.86l1.25,1.19a4.22,4.22,0,0,1-2.14,3.05C202.36,614.64,201.83,613.05,203.19,611.86Z" transform="translate(-97.56 -105.76)"/><path class="cls-28" d="M196.76,251.86c-2.56,5.53.39,9.27,5.37,11.68,6.46,3.13,13,6.23,20.44,6.07,1.2,0,2.41.64,3.61,1-2.22,3.57-6.1,0-8.67,2-3.86,1.53-7.81,2.87-11.56,4.63s-7.24,3.92-11.06,6a31.23,31.23,0,0,0-3-15.2c-2.91-6.45-1.58-12.75,3.2-18.14l1.57-.44a.94.94,0,0,1,1.27.25,1.3,1.3,0,0,1-.33.9A1.94,1.94,0,0,1,196.76,251.86Z" transform="translate(-97.56 -105.76)"/><path class="cls-42" d="M240.45,273.63c-.82-2.49-.95-5.19-2.36-7.49-2.82-1.88-4.21-4.71-5.27-7.78-1.76-2.79-5-4-7.12-6.39a43.52,43.52,0,0,1-3.81-4.44c-.35-1.31-1.7-2.95,1.06-3.24h0c.58.63,1.66.38,2.14,1.21l-.06-.05a3.17,3.17,0,0,1,1.2,1l0,0a8.32,8.32,0,0,1,1.12,1.1v0a9.7,9.7,0,0,1,1.1,1.12l0,0a7.28,7.28,0,0,1,1.1,1.12l0,0a7.7,7.7,0,0,1,1.12,1.09h0c.39.33.73.72,1.14,1l0,0a7.15,7.15,0,0,0,1.07,1.06l0,0a8.66,8.66,0,0,1,1,1.22l0,0c3.82,2,5.32,5.89,7.39,9.31,1.49,2.67,3.4,5.1,4.53,8,.53,1.51,1.41,2.95.88,4.67-.43.78-1,1.36-2,.94Z" transform="translate(-97.56 -105.76)"/><path class="cls-43" d="M217.51,272.6c1.21-1.51,3-1.08,4.53-1.23,1.4-.14,2.92.34,4.14-.78,2.5-.19,4.8.84,7.22,1.1a2.72,2.72,0,0,1,1.9,1,1.25,1.25,0,0,1-.37,1.32A41.06,41.06,0,0,0,217.51,272.6Z" transform="translate(-97.56 -105.76)"/><path class="cls-44" d="M162.74,445.91c2.22-2.72,5.66-4.13,7.71-7.23.88,2.2-.67,3.32-1.73,4.69-.88,1.12-3.16,1.44-2.22,3.67C164.91,447.76,164.05,446.11,162.74,445.91Z" transform="translate(-97.56 -105.76)"/><path class="cls-45" d="M250,281.4c.07,1.81.15,3.61.22,5.41-1.3-.75-1.59-2.12-2.08-3.37.57-.65.16-1.65.83-2.27A.71.71,0,0,1,250,281.4Z" transform="translate(-97.56 -105.76)"/><path class="cls-46" d="M244.62,277.06l1.39-1.41a1.2,1.2,0,0,1,1.3.33,4.37,4.37,0,0,1,.32,2.17c-.3.72-.71,1.28-1.63,1Z" transform="translate(-97.56 -105.76)"/><path class="cls-47" d="M246,279.1l1.07-1.12c2.33.21,1.35,1.89,1.38,3.12a.79.79,0,0,1-1.34.18Z" transform="translate(-97.56 -105.76)"/><path class="cls-48" d="M214.24,276.88c.55-.77,1.92-1.24,2.06-.74.34,1.28-1,1.6-2,2C213.66,277.73,213.64,277.32,214.24,276.88Z" transform="translate(-97.56 -105.76)"/><path class="cls-49" d="M234.93,274c0-.43,0-.86,0-1.29a.63.63,0,0,1,1.13-.08,1.53,1.53,0,0,0,1.23,1C236.77,275.67,235.88,275.05,234.93,274Z" transform="translate(-97.56 -105.76)"/><path class="cls-50" d="M214.24,276.88c0,.41,0,.82,0,1.24-.77.29-1.27,1.19-2.25,1a4.51,4.51,0,0,1,0-1C212.46,277.11,213.34,277,214.24,276.88Z" transform="translate(-97.56 -105.76)"/><path class="cls-51" d="M247.11,281.28c.3,0,.6,0,.91.07a.93.93,0,0,1,1.46,0c-.3.79-.29,1.79-1.37,2.05Z" transform="translate(-97.56 -105.76)"/><path class="cls-52" d="M241.09,276.41c-.12.14-.28.4-.36.38a5.4,5.4,0,0,1-.94-.37c.12-.13.27-.39.36-.37A5.36,5.36,0,0,1,241.09,276.41Z" transform="translate(-97.56 -105.76)"/><path class="cls-24" d="M274.33,194c1.18,4.75.29,9.48-.08,14.21a25.23,25.23,0,0,0-2.46,2.13c-1.6,1.77-2.59,1.8-5.22.73-6.54-2.67-13.74-2.4-20.8-1.82-2.06.17-2.31,2.07-3.31,3.26-2.27,0-1.42-1.64-1.48-2.8.11-2.23,2-3.5,2.82-5.37.89-1.25,1.68-2.62,3.3-3.09,1.4-.08,2.36,1.71,3.93.9.71.15.08-1.13.19-.41,0,.16-.17.05-.51.12-1.69.35-2.62-.59-3.39-1.87-.12-.33-.15-.69-.26-1-.17-.58-.31-.62-.32-.1a13.68,13.68,0,0,1-2.31,4.29c-1.05,2.1-2.86,3.78-3.48,6.14a5.15,5.15,0,0,1-.25,1.4c-.81,2.74-.69,5.64-1.43,8.39-4.24,2.32-4.84,2.16-7.48-1-1.27-1.5-1.65-4.47-4.86-3.4-1,.33-1.28-.89-1.2-1.38.49-3.23-1.68-5.53-3.47-7.25s-1.75-3.68-2.4-5.59c-2.31-2.9-2.33-2.9-1.28-6.86,2.22-8.42,4.67-16.78,6.65-25.25,2.47-10.59,15.35-21,29-20.36a15,15,0,0,1,13.05,8.57,53.56,53.56,0,0,1,5.78,27.27C272.91,187.41,272.75,190.81,274.33,194Z" transform="translate(-97.56 -105.76)"/><path class="cls-24" d="M272.14,152.57c.39,1.82.79,3.65,1.18,5.48-.07.36-.14.73-.2,1.09a.53.53,0,0,1-.94,0c-1.59-3.06-3.16-6.11-5.62-8.62A17.8,17.8,0,0,0,253.92,145c-15.36-.27-29.23,11.19-31.53,22.83-1.89,9.59-5.37,18.8-7.13,28.44a19.18,19.18,0,0,0-2.24,7.39c-1.48,1.17-.48,4.15-2.58,4.44-2.4.34-3-2.31-3.95-3.89-6.42-10.28-7.85-21.28-4.51-32.92,5.11-17.78,15.7-31.66,30.07-43,4.83-3.81,9.79-3.5,14.87-1.58a42.44,42.44,0,0,1,20.63,16.18Z" transform="translate(-97.56 -105.76)"/><path class="cls-26" d="M271.1,243.12c.45,3.3,1.43,6.6,0,9.9-4.57,3-8.28,7.57-14.3,8.13a1.9,1.9,0,0,0-1.7,1.85c0,1.05.79,1.48,1.71,1.76,3.17,1,5.11,3.9,8.54,5-4.86,2.72-4.89,2.76-8.19-.27-1.38-1.26-2.76-2.33-4.72-2.29-2.31-4.54-5.84-8.62-5.48-14.19a10.7,10.7,0,0,0,6.61-3.16c3.05-2.85,5.83-5.92,8.67-8.95,3.14-3.35,4.39-3.34,7.39,0A17.66,17.66,0,0,1,271.1,243.12Z" transform="translate(-97.56 -105.76)"/><path class="cls-30" d="M244.81,248.69a2.27,2.27,0,0,1-3.25-.09c-5-4.19-9.38-9-14-13.6a43.12,43.12,0,0,0-3.85-3.8c-2.46-1.92-2.71-4-.85-6.37,4.13,1.38,7.3,4.07,10.32,7.11a8,8,0,0,0,4.76,2.32c1.75.18,3.51.11,3.82,2.64.15,1.19,1.75,1,2.7,1.42,1.93.84,3.91,1.59,6.16,2.49C249.07,244,246.05,245.73,244.81,248.69Z" transform="translate(-97.56 -105.76)"/><path class="cls-53" d="M251.21,229.93c-2.36.36-3.54-2.07-5.72-2.42-1.09-.18-1.8-1.69-1.63-3.13.31-2.7.65-5.39.91-8.1.14-1.47,1.34-1.45,2.29-1.86,2.79-1.21,5.72-.5,8.57-.51a55.7,55.7,0,0,1,7,.9c.93.12,1.7.23,2.1,1.3,1.69,4.5-.83,10-5.7,12.18a3.3,3.3,0,0,1-1-1c-1.71-1.93-1-4.08-.57-6.2a3.49,3.49,0,0,1,.31-1.28c-1.7-2.86-4-1.06-6.09-.73-.27,0,.62.53.89.91a2.28,2.28,0,0,1,.47,1.91,1.75,1.75,0,0,1-.81,1c-.3-.05-.81-.08-.86.1-.13.42.48.5.64.85a11.59,11.59,0,0,1,.95,4A2.32,2.32,0,0,1,251.21,229.93Z" transform="translate(-97.56 -105.76)"/><path class="cls-54" d="M246.94,253l5.48,14.19c-.91.59-.94,1.65-1.32,2.52a44.61,44.61,0,0,0-6.33-14.52C245.89,254.82,245.37,252.85,246.94,253Z" transform="translate(-97.56 -105.76)"/><path class="cls-55" d="M239.27,219.12c-1.2-3.09-1.14-6,1.14-8.65,1.76,2.33.08,5.16,1.11,7.59C241.19,219.31,240,218.77,239.27,219.12Z" transform="translate(-97.56 -105.76)"/><path class="cls-56" d="M241.52,218.06c-2.29-2.25-.75-5.06-1.11-7.59,0-.41.05-.82.08-1.23.33-.44.65-.42,1,0,.13,1.16-.12,2.44,1,3.29A13,13,0,0,1,241.52,218.06Z" transform="translate(-97.56 -105.76)"/><path class="cls-57" d="M251.21,229.93l1-1.91c1.15-1.41,2.61-1.33,4.16-.89a2.83,2.83,0,0,1,1.67,2.06C255.89,230.45,253.55,230.14,251.21,229.93Z" transform="translate(-97.56 -105.76)"/><path class="cls-58" d="M258.07,229.19l-1.17-1.13c.22-1.11.8-1.67,2-1.35.05.52.09,1,.14,1.58C259.06,229,258.59,229.11,258.07,229.19Z" transform="translate(-97.56 -105.76)"/><path class="cls-27" d="M236,269.33c-6.16-1.13-12.24-2.69-18.52-3.23a26.8,26.8,0,0,1-10.19-3.38c-1.87-1-2.16-2.2-.86-3.88,1-1.28,1.82-2.7,2.84-4,4.82-5.93,6.51-6,12.65-1.41,3,2.26,6.27,4.18,9.42,6.25C235.15,261.84,237.45,264.68,236,269.33Z" transform="translate(-97.56 -105.76)"/><path class="cls-13" d="M240.56,263.84l-6.78-9.68c.47-.54.94-1.07,1.4-1.61a22.25,22.25,0,0,1,6.42,10.1C242.17,263.85,241.51,264,240.56,263.84Z" transform="translate(-97.56 -105.76)"/><path class="cls-59" d="M236,269.33c.21-4.06-2.72-6.59-4.66-9.61.49-.45,1-.9,1.46-1.36,2.66,2,4,4.83,5.27,7.78C236.75,266.79,237.52,268.79,236,269.33Z" transform="translate(-97.56 -105.76)"/><path class="cls-13" d="M223,244.29c-1.8.6-.76,2.14-1.06,3.24a2.42,2.42,0,0,1-1-2.74C221.19,243.36,221.94,243.12,223,244.29Z" transform="translate(-97.56 -105.76)"/><path class="cls-60" d="M197.88,249.72l-1.27-.25a1,1,0,0,1,1.62-.7C198.9,249.19,198.46,249.57,197.88,249.72Z" transform="translate(-97.56 -105.76)"/><path class="cls-2" d="M236.05,272.65l-1.13.08-1.52-1A2.36,2.36,0,0,1,236.05,272.65Z" transform="translate(-97.56 -105.76)"/><path class="cls-13" d="M225.07,245.49a2.69,2.69,0,0,1-2.14-1.21A1.81,1.81,0,0,1,225.07,245.49Z" transform="translate(-97.56 -105.76)"/><path class="cls-13" d="M224.06,242.13a2,2,0,0,1,2.05,1.1A1.93,1.93,0,0,1,224.06,242.13Z" transform="translate(-97.56 -105.76)"/><path class="cls-13" d="M232.74,249.8a1,1,0,0,1,1,1A1.13,1.13,0,0,1,232.74,249.8Z" transform="translate(-97.56 -105.76)"/><path class="cls-13" d="M230.58,250.83a1.18,1.18,0,0,1-1.12-1.09A1.37,1.37,0,0,1,230.58,250.83Z" transform="translate(-97.56 -105.76)"/><path class="cls-60" d="M196.76,251.86c-.15-.68.05-1.14.79-1.24A1.1,1.1,0,0,1,196.76,251.86Z" transform="translate(-97.56 -105.76)"/><path class="cls-13" d="M226.19,243.28a1,1,0,0,1,1.18.95A1.25,1.25,0,0,1,226.19,243.28Z" transform="translate(-97.56 -105.76)"/><path class="cls-13" d="M231.66,248.69a1.11,1.11,0,0,1,1,1.06A1.11,1.11,0,0,1,231.66,248.69Z" transform="translate(-97.56 -105.76)"/><path class="cls-13" d="M230.59,247.55a1.13,1.13,0,0,1,1,1.1A1.26,1.26,0,0,1,230.59,247.55Z" transform="translate(-97.56 -105.76)"/><path class="cls-13" d="M226.21,246.48a1.3,1.3,0,0,1-1.2-1A1.35,1.35,0,0,1,226.21,246.48Z" transform="translate(-97.56 -105.76)"/><path class="cls-13" d="M231.71,251.84a1.12,1.12,0,0,1-1.14-1A1.36,1.36,0,0,1,231.71,251.84Z" transform="translate(-97.56 -105.76)"/><path class="cls-13" d="M233.83,250.89c.62.05,1,.34.91,1A1,1,0,0,1,233.83,250.89Z" transform="translate(-97.56 -105.76)"/><path class="cls-13" d="M228.47,245.27a1.16,1.16,0,0,1,1.09,1.14A1.36,1.36,0,0,1,228.47,245.27Z" transform="translate(-97.56 -105.76)"/><path class="cls-13" d="M232.81,252.93a1.22,1.22,0,0,1-1.07-1.06A1.24,1.24,0,0,1,232.81,252.93Z" transform="translate(-97.56 -105.76)"/><path class="cls-13" d="M233.8,254.18a1.26,1.26,0,0,1-1-1.22A1.31,1.31,0,0,1,233.8,254.18Z" transform="translate(-97.56 -105.76)"/><path class="cls-13" d="M229.48,249.76a1.19,1.19,0,0,1-1.1-1.12A1.38,1.38,0,0,1,229.48,249.76Z" transform="translate(-97.56 -105.76)"/><path class="cls-13" d="M227.31,247.56a1.25,1.25,0,0,1-1.12-1.1A1.38,1.38,0,0,1,227.31,247.56Z" transform="translate(-97.56 -105.76)"/><path class="cls-13" d="M229.54,246.39a1.14,1.14,0,0,1,1,1.14A1.34,1.34,0,0,1,229.54,246.39Z" transform="translate(-97.56 -105.76)"/><path class="cls-13" d="M228.4,248.66a1.24,1.24,0,0,1-1.1-1.12A1.4,1.4,0,0,1,228.4,248.66Z" transform="translate(-97.56 -105.76)"/><path class="cls-13" d="M227.35,244.21a1.17,1.17,0,0,1,1.15,1.09A1.38,1.38,0,0,1,227.35,244.21Z" transform="translate(-97.56 -105.76)"/><path class="cls-61" d="M283,420a5.65,5.65,0,0,1,4.33,0,1.44,1.44,0,0,1-.05,1.76,5.16,5.16,0,0,1-.89.86c.07.74.32,0,.34,0,.61-.4-.19.21.45-.15,1.48-.15,2.44.86,3.54,1.57,6,2,11.18,5.51,16,9.48,2.2,1.81,4.28,3.81,4.68,6.89.31.42.11,1.36,1.1,1.09l.28-.13.21.23a2,2,0,0,0,1.56-1l0,0a11.31,11.31,0,0,0,1.17-1l0,0a6.38,6.38,0,0,1,1.08-1l.08-.08c.24-.45.75-.7.93-1.21l0,0a1.92,1.92,0,0,1,1,2.14c-.34.37-.67.75-1,1.13l-1.09,1.09-1.13,1a3.12,3.12,0,0,0-2.09.94c-1.48.38-3.2-.12-4.45,1.16l-1.19-1.24a1.18,1.18,0,0,1-.09-1.05c.09-1-1.05-.94-1.36-1.61a6.63,6.63,0,0,0-7.5-2.85c-1.55.37-3.18.79-4.61-.43l-2.78-.16c-3.74-1.56-.72-5.19-2.28-7.41-.66-1.13-1.83-1.15-2.93-1.34a3.2,3.2,0,0,1-1.9-.95c-.73-.33-1.74-.13-2.1-1.14.74-1,.69-2.14.89-3.25.49-.48.51-.93-.08-1.35Z" transform="translate(-97.56 -105.76)"/><path class="cls-23" d="M215.34,217c-2.55,1.6-4,1.32-4.35-1.08a28.21,28.21,0,0,1,.21-5.34,4,4,0,0,0,2.45-1.93C215.46,211.44,213.11,214.65,215.34,217Z" transform="translate(-97.56 -105.76)"/><path class="cls-62" d="M272.18,159.09a2.49,2.49,0,0,1,.94,0c1.42,1.13.95,2.66.88,4.11a1.2,1.2,0,0,1-.69.15Z" transform="translate(-97.56 -105.76)"/><path class="cls-63" d="M284.37,427.74a1.23,1.23,0,0,0,1.43,0c1.38,1,3.49-.54,4.62,1.33a6.84,6.84,0,0,1,.56,5.06c-.34,1.12-.82,2.4.5,3.33a20.5,20.5,0,0,0-1.21,5.27c-.21,3.16-.8,3.5-3.56,2.51-3.33-1.2-5.64-3.42-6-7C280.35,434.23,279.91,430.09,284.37,427.74Z" transform="translate(-97.56 -105.76)"/><path class="cls-64" d="M294.26,437.6c1.05-.22,2.11-.41,3.16-.65,6.67-1.55,7.4-1.22,10.6,4.79a.66.66,0,0,1,.28.73c-.09.25-.17.37-.26.37a.49.49,0,0,0-.22.7c-3.35,3.37-7.88,2.65-12,3.38-.66.12-1.8-.47-1.67-1C294.85,443.13,291.41,440.32,294.26,437.6Z" transform="translate(-97.56 -105.76)"/><path class="cls-19" d="M286.33,422.22l1-2.24c1.52-.41,4.09.2,2.63-3-1.77-3.85-1.87-8.07-2.26-12.17-1.1-11.46-2-22.94-1.5-34.48-1.21-3.77.24-7.75-.88-11.52-.08-1-.17-2-.25-3-.9-1.43.06-3.2-.86-4.62l-.24-1.88c-.7-1.09-.05-2.53-.9-3.58a.61.61,0,0,1-.17-.86c-.74-1.05-.1-2.45-.87-3.5l-.27-1.64a13.44,13.44,0,0,0-.78-2.72.83.83,0,0,1-.23-1c.11-1.21-.16-2.54,1.08-3.4a.58.58,0,0,1,.16.81c.45.76.3,1.73.88,2.44a.64.64,0,0,1,.21.86c.75,1.05,0,2.48.9,3.51a.73.73,0,0,1,.15.94c.82,1,.11,2.4.89,3.42a.86.86,0,0,1,.19,1c.85,1,.13,2.37.88,3.37a3.83,3.83,0,0,1,.28,2.62c.49,1.27.18,2.7.82,3.93.09,1,.18,2,.26,2.94,1.17,4-.31,8.28.83,12.33.44,8.48.81,17,1.33,25.44.28,4.69.7,9.38,1.3,14a13,13,0,0,0,1.69,5.67c2.54,3.81,2.54,3.81-1.9,6.35C289.2,423.17,287.76,422.82,286.33,422.22Z" transform="translate(-97.56 -105.76)"/><path class="cls-32" d="M288.24,370.8c-1.85-4-.62-8.21-.83-12.33C288.6,362.52,288.48,366.66,288.24,370.8Z" transform="translate(-97.56 -105.76)"/><path class="cls-65" d="M286.33,422.22l4.33.08,0,1.73c-1.56.28-2.86-.73-4.33-.89-.3-.21-.4-.42-.3-.64s.2-.32.31-.32Z" transform="translate(-97.56 -105.76)"/><path class="cls-32" d="M283.94,340.26c-1.24-.93-.95-2.25-.9-3.51A4,4,0,0,1,283.94,340.26Z" transform="translate(-97.56 -105.76)"/><path class="cls-32" d="M285,344.62c-1.17-.91-.91-2.2-.89-3.42A4.37,4.37,0,0,1,285,344.62Z" transform="translate(-97.56 -105.76)"/><path class="cls-32" d="M286.05,349c-1.14-.9-.9-2.16-.88-3.37A3.86,3.86,0,0,1,286.05,349Z" transform="translate(-97.56 -105.76)"/><path class="cls-32" d="M287.15,355.53c-1.25-1.11-.84-2.56-.82-3.93A5,5,0,0,1,287.15,355.53Z" transform="translate(-97.56 -105.76)"/><path class="cls-32" d="M282.83,335.89a2.38,2.38,0,0,1-.88-2.44A2.63,2.63,0,0,1,282.83,335.89Z" transform="translate(-97.56 -105.76)"/><path class="cls-6" d="M312.49,441.49c-1.82,1.11-.88-.58-1.1-1.09Z" transform="translate(-97.56 -105.76)"/><path class="cls-6" d="M317.79,437.29l-.93,1.21A1.34,1.34,0,0,1,317.79,437.29Z" transform="translate(-97.56 -105.76)"/><path class="cls-6" d="M316.78,438.58l-1.08,1A1.08,1.08,0,0,1,316.78,438.58Z" transform="translate(-97.56 -105.76)"/><path class="cls-6" d="M315.67,439.61l-1.17,1A1.24,1.24,0,0,1,315.67,439.61Z" transform="translate(-97.56 -105.76)"/><path class="cls-6" d="M314.54,440.59a1.72,1.72,0,0,1-1.56,1A1.72,1.72,0,0,1,314.54,440.59Z" transform="translate(-97.56 -105.76)"/><path class="cls-66" d="M229.82,386.2c6.13-.61,10.6,2,13.24,7.4,3,6.15,1.89,12-2.1,17.35a13.91,13.91,0,0,1-14.35,5.67c-7.07-1.23-11.64-9.49-9.83-17.44.83-3.65,2.95-6.55,5.25-9.36.23-1.1,1.48-.86,2-1.54h0C225.66,386.7,227.88,386.83,229.82,386.2Z" transform="translate(-97.56 -105.76)"/><path class="cls-26" d="M229.82,386.2l-5.75,2.08C225.28,385.62,227.61,386.09,229.82,386.2Z" transform="translate(-97.56 -105.76)"/><path class="cls-26" d="M224.06,388.28a3.13,3.13,0,0,1-2,1.54C222.2,388.64,223,388.34,224.06,388.28Z" transform="translate(-97.56 -105.76)"/><path class="cls-32" d="M285.28,358.84c2,3.71.49,7.69.88,11.52C285.15,366.57,285.32,362.7,285.28,358.84Z" transform="translate(-97.56 -105.76)"/><path class="cls-32" d="M284.17,351.2c1.45,1.32.83,3,.86,4.62A7,7,0,0,1,284.17,351.2Z" transform="translate(-97.56 -105.76)"/><path class="cls-32" d="M282,341.38c1.19.94.92,2.25.87,3.5A4.62,4.62,0,0,1,282,341.38Z" transform="translate(-97.56 -105.76)"/><path class="cls-32" d="M283,345.74c1.26.95,1,2.3.9,3.58A5.47,5.47,0,0,1,283,345.74Z" transform="translate(-97.56 -105.76)"/><path class="cls-32" d="M280.94,337a2.75,2.75,0,0,1,.78,2.71A3.38,3.38,0,0,1,280.94,337Z" transform="translate(-97.56 -105.76)"/><path class="cls-67" d="M275.21,553c2.59,2,2.69,4.68,1.84,7.46a1.45,1.45,0,0,1-1.67,1,1.08,1.08,0,0,1-.86-1.59C275.55,557.75,274.71,555.46,275.21,553Z" transform="translate(-97.56 -105.76)"/><path class="cls-68" d="M222.77,593c.07-4.56,4-3.59,6.57-4.54a5.85,5.85,0,0,1,6.43,1.47,1.66,1.66,0,0,1,.51,1.93,1.28,1.28,0,0,1-1.83.54c-3.41-2-6.54-.56-9.7.66C224.08,593.28,223.41,593.57,222.77,593Z" transform="translate(-97.56 -105.76)"/><path class="cls-69" d="M224.55,585c4.16-3.24,8.24-3.83,10.75-2a1.87,1.87,0,0,1,.84,2.34,1.28,1.28,0,0,1-1.9.31C231.4,583.64,228.28,585.63,224.55,585Z" transform="translate(-97.56 -105.76)"/><path class="cls-70" d="M240.56,263.84c.35-.4.69-.8,1-1.19A17.72,17.72,0,0,1,246,270.3c.43,1.2-.16,1.41-1.18,1.21C243.39,269,242,266.39,240.56,263.84Z" transform="translate(-97.56 -105.76)"/><path class="cls-71" d="M249.48,281.39l-1.46,0c.08-1.24.08-2.45-1-3.37-.09-.62-.19-1.24-.28-1.87-.5-1.14.08-1.36,1.06-1.23A21.4,21.4,0,0,1,250,281.4Z" transform="translate(-97.56 -105.76)"/><path class="cls-72" d="M247.85,274.88l-1.06,1.23a7.6,7.6,0,0,0-.78-.46l-1.2-4.14c.39-.41.78-.81,1.18-1.21C247.17,271.6,247.34,273.31,247.85,274.88Z" transform="translate(-97.56 -105.76)"/><path class="cls-73" d="M239.21,183.24c-1.61-1.89-2.82.69-4.29.42,1.13-3.26,5.15-5.57,8-4.62,1.71.56,2.07,1.74,1.55,3.4s-1.83,2.11-3.06,2.82C239.32,186.11,240.36,183.47,239.21,183.24Z" transform="translate(-97.56 -105.76)"/><path class="cls-74" d="M262.52,198.29c.89,2.68,3.4,4.52,3.8,7.45,0,.14-.16.31-.25.48a9.4,9.4,0,0,1-3.14-2.67c-.69-.85-1.22-1.53-2.61-.9-1.87.86-3.39-.14-3.29-2.08.12-2.3,1.9-1.32,3.25-1.08.25,0,.64-.68,1-1.05C261.6,197.82,262,197.77,262.52,198.29Z" transform="translate(-97.56 -105.76)"/><path class="cls-70" d="M231.78,176.72a39.54,39.54,0,0,1,8.8-4c.86-.29,1.77-.6,2.14.65.31,1-.63,1.18-1.2,1.44a40.58,40.58,0,0,1-8.6,3.05C231.77,178.25,231.54,177.72,231.78,176.72Z" transform="translate(-97.56 -105.76)"/><path class="cls-75" d="M261.91,183.28c-.81-3.29-.63-3.66,1.83-3.46,1.78.14,3.48.5,4.57,2.23l-2.82,2.17a1.83,1.83,0,0,1-2,.53C262.76,184.48,262.58,183.62,261.91,183.28Z" transform="translate(-97.56 -105.76)"/><path class="cls-36" d="M247.91,199.6c.89,1.8,1.9,2.73,3.48.58.7-1,1.72-1.55,2.69-.49s0,2-.7,2.77c-1.93,2.14-2.82,2-6.35-.58a1.81,1.81,0,0,1-.46-2.17A.89.89,0,0,1,247.91,199.6Z" transform="translate(-97.56 -105.76)"/><path class="cls-76" d="M261.07,196.32c-2-3.09-4.55-5.92-4.13-10,.65-.63,0-1.88,1.12-2.32.93,3.9,1.62,7.87,4,11.24A2.13,2.13,0,0,1,261.07,196.32Z" transform="translate(-97.56 -105.76)"/><path class="cls-77" d="M267.68,176.6a5.69,5.69,0,0,1-3.29-.27c-.51-.23-.95-.68-1.58-.6-.75-.44-1.52-.86-2.25-1.33a1.34,1.34,0,0,1-.43-1.87,1.32,1.32,0,0,1,1.89-.31c1.19.75,2.33,1.6,3.49,2.41.46.24.83.68,1.39.75a.63.63,0,0,1,.77.22c.37.22.5.44.38.66S267.8,176.6,267.68,176.6Z" transform="translate(-97.56 -105.76)"/><path class="cls-78" d="M247.17,199.17l-.14,2.71-2.27,3.06c-1.88,0-1.76-.95-1.13-2.19l2.3-5.36C247.67,197.06,247.48,198.07,247.17,199.17Z" transform="translate(-97.56 -105.76)"/><path class="cls-79" d="M243.63,202.75c.18.83-.25,2,1.13,2.19l-3.31,4.32-.48,0-.48,0A12.64,12.64,0,0,1,243.63,202.75Z" transform="translate(-97.56 -105.76)"/><path class="cls-80" d="M231.78,176.72l1.14,1.12a23.61,23.61,0,0,0-4.44,3.76C228.13,178.94,229.55,177.56,231.78,176.72Z" transform="translate(-97.56 -105.76)"/><path class="cls-81" d="M239.21,183.24c1.48-.14,1.27,1.59,2.23,2-.74,1.47-2.2,1.4-3.59,1.8C236.84,185.14,240.69,185.13,239.21,183.24Z" transform="translate(-97.56 -105.76)"/><path class="cls-82" d="M267.68,176.6c0-.33,0-.67,0-1,1.91-.13,3.34.67,4.95,2.79A10.65,10.65,0,0,1,267.68,176.6Z" transform="translate(-97.56 -105.76)"/><path class="cls-83" d="M261.91,183.28a1.64,1.64,0,0,1,1.41,1c.57.44,1.3.74,1.39,1.6-.33.79-.84,1.16-1.71.77C260.54,186.2,261.23,184.73,261.91,183.28Z" transform="translate(-97.56 -105.76)"/><path class="cls-84" d="M247.17,199.17c0-.89-.11-1.69-1.24-1.78.15-1.39.89-2.13,2.7-2.19-.25,1.53-.49,3-.72,4.4A2,2,0,0,1,247.17,199.17Z" transform="translate(-97.56 -105.76)"/><path class="cls-85" d="M258.06,184c-.34.8-.29,1.77-1.12,2.33a9.67,9.67,0,0,1,0-5C258.54,181.93,257.92,183.1,258.06,184Z" transform="translate(-97.56 -105.76)"/><path class="cls-72" d="M258.21,174.54c.33.23.79.4.79.57a2.43,2.43,0,0,1-1.16,2.19c-.82.51-.88-.26-.91-.65A2.5,2.5,0,0,1,258.21,174.54Z" transform="translate(-97.56 -105.76)"/><path class="cls-86" d="M263,186.63l1.31-1.06c.27-.71.63-.76,1.09-.16s1.67,1.16.66,1.94S263.84,187.7,263,186.63Z" transform="translate(-97.56 -105.76)"/><path class="cls-87" d="M261.07,196.32l1-1.08c.14,1,.29,2,.44,3l-1.27.15Z" transform="translate(-97.56 -105.76)"/><path class="cls-88" d="M265.4,185.41l-1.09.15c-.45-.34-1-.59-1-1.3l2.17,0Z" transform="translate(-97.56 -105.76)"/><path class="cls-82" d="M262.81,175.73a1.56,1.56,0,0,1,1.58.6A1.56,1.56,0,0,1,262.81,175.73Z" transform="translate(-97.56 -105.76)"/><path class="cls-82" d="M266.9,175.38a1.44,1.44,0,0,1-1.39-.75A1.29,1.29,0,0,1,266.9,175.38Z" transform="translate(-97.56 -105.76)"/><path class="cls-89" d="M258.88,226.71l-2,1.35-4.66,0c-1.46-1.18-.11-3-1-4.34a1,1,0,0,1,.13-1.38l1.08-.16a6,6,0,0,1,5.52-.62c.54.14,1.89.33,1.39.61C256.69,223.59,258.86,225.2,258.88,226.71Z" transform="translate(-97.56 -105.76)"/><path class="cls-90" d="M252.41,220.45c-1.33-.4-2.83.91-4.28-.55,2.89-3.49,6.55-3.88,10.59-2.86,1.25.31,2.69.9,2.35,2.42-.39,1.78-2.12.6-3.21.92A4.79,4.79,0,0,1,252.41,220.45Z" transform="translate(-97.56 -105.76)"/><path class="cls-91" d="M252.41,220.45a8.83,8.83,0,0,1,5.45-.07l.07,1.14c-1.67,1.77-3.56,1.46-5.52.62Z" transform="translate(-97.56 -105.76)"/><path class="cls-92" d="M251.33,222.3c0,.46-.08.92-.13,1.38a5.65,5.65,0,0,1-1-.17c-.57-.19-1.55.26-1.67-.54s.89-.86,1.46-1C250.38,221.86,250.88,222.17,251.33,222.3Z" transform="translate(-97.56 -105.76)"/><path class="cls-10" d="M290.42,429.05l-4.62-1.33C287.51,427.58,289.43,426.72,290.42,429.05Z" transform="translate(-97.56 -105.76)"/><path class="cls-10" d="M308,442.84c0-.37,0-.73,0-1.1C308.79,442.1,308.78,442.46,308,442.84Z" transform="translate(-97.56 -105.76)"/><path class="cls-19" d="M286.36,422.18a3.09,3.09,0,0,0,0,1C285.5,422.82,285.46,422.5,286.36,422.18Z" transform="translate(-97.56 -105.76)"/><path class="cls-26" d="M241.5,400.22c.11,7.16-5.43,13.59-11.88,13.79-5.78.17-10.61-4.95-10.72-11.37-.11-6.65,5.79-13.85,11.36-13.89C236.62,388.7,241.41,393.59,241.5,400.22Z" transform="translate(-97.56 -105.76)"/><rect class="cls-93" width="308.48" height="543.34"/></svg>