<svg id="Ebene_1" data-name="Ebene 1" xmlns="http://www.w3.org/2000/svg" viewBox="0 0 240.55 258.55"><defs><style>.cls-1{fill:#fff;}.cls-2{fill:#010101;}.cls-3{fill:#040405;}.cls-4{fill:#9a2978;}.cls-5{fill:#050606;}.cls-6{fill:#060607;}.cls-7{fill:#080909;}.cls-8{fill:#060707;}.cls-9{fill:#244c8a;}.cls-10{fill:#254c8a;}.cls-11{fill:#08090a;}.cls-12{fill:#254c8b;}.cls-13{fill:#0b0c0c;}.cls-14{fill:#0a0a0b;}.cls-15{fill:#2b508e;}.cls-16{fill:#2a508d;}.cls-17{fill:#2e538f;}.cls-18{fill:#fcfcfc;}.cls-19{fill:#ebebeb;}.cls-20{fill:#dadada;}</style></defs><path class="cls-1" d="M411.67,357.39q0,63.51,0,127c0,1.77-.22,2.28-2.17,2.28q-118-.1-236,0c-2,0-2.33-.5-2.33-2.39q.08-126.87,0-253.73c0-1.84.23-2.42,2.31-2.42q118,.1,236,0c1.91,0,2.2.45,2.2,2.26Q411.61,293.89,411.67,357.39Z" transform="translate(-171.17 -228.13)"/><path class="cls-2" d="M301.75,301.68c-.31,15.83-5.37,30.16-13.82,43.38a187.64,187.64,0,0,1-11.58,16.67c-.46.58-1.09,1-.75,2.11,1.69,5.28.33,8.51-4.85,9.58-3.45.71-5.12,2.86-6.85,5.26a202.1,202.1,0,0,1-17.27,20.9c-3.76,4-7.89,3.81-11.41-.49-2.79-3.42-2.79-5.4.54-8.25,6.14-5.27,10-12.35,14.89-18.57,1.07-1.35,2.1-2.73,3.27-4,2-2.13,3.53-4.16,3.6-7.47.1-5,2.89-7.45,6.65-7a3.18,3.18,0,0,1,2.17.9c1.78,2.58,2.6.72,3.62-.63a160.55,160.55,0,0,0,27.49-57.4c.36-1.42,1-2.44,2.75-2.27s1.46,1.57,1.52,2.65C301.81,298.6,301.75,300.14,301.75,301.68Z" transform="translate(-171.17 -228.13)"/><path class="cls-2" d="M308.28,415.39c-.07,1.95-2.73,4.66-5.32,5.21a217.55,217.55,0,0,1-27.81,4c-13.87,1.13-27.75,2-41.5,4.17a3,3,0,0,1-3.68-1.93c-2.38-5.69-2.43-6,3.87-7.24,9.08-1.83,18.23-3.27,27.38-4.76,6.83-1.12,13.56-2.84,20.46-3.57,7.18-.76,14.36-1.88,21.57-.26C306.63,411.75,308.36,413.26,308.28,415.39Z" transform="translate(-171.17 -228.13)"/><path class="cls-3" d="M314.87,281.76c.3,6.09-1.95,11.78-4.43,17.4-.41.92-1.05,1.89-2.27,1.19s-.92-1.68-.39-2.61c7.2-12.82,5.08-25.36-1.06-37.8-.48-1-1.3-2,.1-2.78s1.68.58,2.19,1.39C312.46,264.08,314.88,273.57,314.87,281.76Z" transform="translate(-171.17 -228.13)"/><path class="cls-4" d="M329.53,342.84a14.64,14.64,0,0,1-1.92,6.11c-.68,1.39-.82,2.39.48,3.52a2.11,2.11,0,0,1,0,3.5c-1.28,1.12-1.32,2.45-1,3.95.84,4.22-.61,7.84-3.14,11.08-1.09,1.42-2.52,2.15-4.13.61a1.49,1.49,0,0,1-.51-1.71,1.11,1.11,0,0,1,1.53-.73c1.11.55,1.39-.25,1.84-.9a11,11,0,0,0,1.93-7.16c-.13-2.22-.68-4.54,1-6.49a.61.61,0,0,0,0-.94c-2.36-2.09-1-4.23-.13-6.39a25.52,25.52,0,0,0,1.28-3.55c.2-.82.44-1.85-1.08-1.89-.86,0-1.22-.72-1.05-1.56s.84-1.08,1.62-1.15C328.19,338.94,329.52,340.43,329.53,342.84Z" transform="translate(-171.17 -228.13)"/><path class="cls-4" d="M252.36,313.61c.39,2.75,1.26,5.52-.48,8.16a.78.78,0,0,0,.05.73c2.53,1.91.67,3.08-.64,4.48-1.86,2-1.34,4.2,1.23,5,1,.32,1.88.53,1.5,1.66s-1.55,1.36-2.71.93a5.66,5.66,0,0,1-2.86-8.21c.67-1.05,1.62-1.95.31-3.2a1.09,1.09,0,0,1,0-1.51c2.19-2.44,1.32-5.25,1-8-.24-2.25.35-4.21,2.55-5.19,1.75-.78,3.4-.52,4.34,1.42a1.76,1.76,0,0,1-.65,2.39c-.76.48-1.38.12-1.7-.71-.25-.62-.72-.87-1.26-.46C252.25,311.74,252.32,312.69,252.36,313.61Z" transform="translate(-171.17 -228.13)"/><path class="cls-5" d="M324.2,287.3c-.73,7.4-4.14,13.46-9.16,18.74-.84.88-1.92,1.76-3,.58-1.23-1.37.29-1.76,1.09-2.59,4.48-4.69,7.92-10,8.07-16.76,0-1.33.6-2.08,2-1.95S324.39,286.38,324.2,287.3Z" transform="translate(-171.17 -228.13)"/><path class="cls-6" d="M284,298c-1.08,3.17-2,5.88-2.93,8.59-.33,1-.69,2.16-1.93,1.77-1.47-.45-.95-1.84-.57-2.75a75.84,75.84,0,0,0,3-9.47c.27-1,.57-1.95,1.76-2.12s1.69.69,2.12,1.43c1.14,1.93,2.19,3.92,3.17,5.94.38.79.67,1.9-.48,2.33s-1.82-.06-2.2-1.29A42.81,42.81,0,0,0,284,298Z" transform="translate(-171.17 -228.13)"/><path class="cls-7" d="M294.38,379.13c1.92-1.74,3.6-3.22,5.23-4.75.68-.65,1.29-1.4,2.26-.54a1.42,1.42,0,0,1-.13,2.34c-2.22,2-4.42,4-6.78,5.82-1.36,1-2.57.54-3-1.21a49.91,49.91,0,0,0-2.56-9,1.26,1.26,0,0,1,.65-1.81c1-.46,1.52.13,1.89.94A43.91,43.91,0,0,1,294.38,379.13Z" transform="translate(-171.17 -228.13)"/><path class="cls-8" d="M241.81,331.34a1.67,1.67,0,0,1-1.38,1.56,143.76,143.76,0,0,0-18,7.18c-.8.38-1.81.8-2.31-.39s.43-1.62,1.26-2a143.69,143.69,0,0,1,17.42-7.07C239.82,330.24,241.15,329.93,241.81,331.34Z" transform="translate(-171.17 -228.13)"/><path class="cls-9" d="M307.11,363.87c-.3-.16-.9-.28-1-.59-1-2.64-2.58-1.22-4.09-.68-.62.21-1.46,1.29-1.89-.17-.26-.86-.38-1.73.84-2.21s2.73-.71,2.5-2.84c-.13-1.16,1.35-1.4,1.94-.57,1,1.38,1.87.6,2.81.23,2-.81,4-1.69,6-2.46.84-.32,1.88-.55,2.25.68.31,1-.47,1.45-1.27,1.77-2,.81-4,1.63-6,2.43-1.09.43-2.05.81-1.1,2.29C308.62,362.63,308.47,363.5,307.11,363.87Z" transform="translate(-171.17 -228.13)"/><path class="cls-10" d="M269.25,315.24c3.05.28,6.23,2.12,9.62,3.27.5.16.87.45.53.94-.49.72-1,1.63-2.13,1.23-1.61-.57-3.19-1.23-4.81-1.79a20.51,20.51,0,0,0-3.35-.92c-1.78-.29-3.11.07-2.7,2.38.14.81.18,1.76-.91,1.92s-1.53-.73-1.75-1.65C263,317.4,265.05,315.12,269.25,315.24Z" transform="translate(-171.17 -228.13)"/><path class="cls-11" d="M313.45,317.93c-1.05.1-1.66-.08-1.87-.8a1.29,1.29,0,0,1,.92-1.71c5-1.27,8-5,10.82-8.85.54-.74,1.14-1.59,2.19-.88s.62,1.65,0,2.51c-3,4-6.06,7.85-11.11,9.39C313.94,317.72,313.54,317.9,313.45,317.93Z" transform="translate(-171.17 -228.13)"/><path class="cls-12" d="M265.74,328c-2.33.33-2.1,1.83-1.89,3.31.15,1,.34,2.18-1,2.35s-1.21-1-1.46-1.87c-.7-2.44-.39-4.51,2-5.83,2.06-1.13,5.42-.34,7,1.49.43.51.56.9.08,1.38-1,1-2.29,1.65-2.76,3.28-.36,1.22-1.21.77-1.88-.23C264.93,330.55,265.94,329.39,265.74,328Z" transform="translate(-171.17 -228.13)"/><path class="cls-6" d="M345.42,358.79c-1.71,0-3.42,0-5.13,0-.94,0-2,0-2-1.23s.95-1.46,1.9-1.48c2.7-.05,5.41,0,8.11-.05,1.52,0,3.07.23,4.55-.35a1.42,1.42,0,0,1,2.09,1c.21,1-.6,1.33-1.46,1.56C350.83,359,348.12,358.72,345.42,358.79Z" transform="translate(-171.17 -228.13)"/><path class="cls-13" d="M228.43,316.91c3.64.91,7.66.15,11.56,1,.95.2,1.54.48,1.45,1.51s-.76,1.21-1.53,1.16c-4.49-.29-9-.63-13.48-.93a1.27,1.27,0,0,1-1.21-.88c-.22-.72.3-1.13.87-1.49A3.87,3.87,0,0,1,228.43,316.91Z" transform="translate(-171.17 -228.13)"/><path class="cls-14" d="M348.54,336.36a1.88,1.88,0,0,1-1.05,2.26q-4.92,2.82-9.81,5.66c-.75.44-1.41.45-1.92-.25a1.34,1.34,0,0,1,.55-2.07c3.4-2,6.82-4,10.29-5.9C347.39,335.63,348.42,335.6,348.54,336.36Z" transform="translate(-171.17 -228.13)"/><path class="cls-15" d="M298.64,338.89c0-1.13-.4-2.39.63-2.84,1.71-.74,3.35-1.86,5.34-1.72a1.12,1.12,0,0,1,1,1.13,1.35,1.35,0,0,1-1,1.41c-1.35.52-2.71,1-4.08,1.45C299.92,338.52,299.34,338.67,298.64,338.89Z" transform="translate(-171.17 -228.13)"/><path class="cls-16" d="M257.73,339.62a2.76,2.76,0,0,1,1.86-2.81c1.34-.54,2.46.12,3.63.52.43.15.4.56.13.88-.45.53-.66,1.36-1.56,1.35-.51,0-1.32-.73-1.26.54.05,1,0,2-1.35,1.75C258,341.63,257.78,340.58,257.73,339.62Z" transform="translate(-171.17 -228.13)"/><path class="cls-17" d="M299.19,355.46c-.16-1.36-.33-2.35-.37-3.34,0-.68-.94-1.78.34-2a2,2,0,0,1,2.06,1.8C301.52,353.5,300.75,354.5,299.19,355.46Z" transform="translate(-171.17 -228.13)"/><path class="cls-1" d="M299,303c.24,8-2.06,15.49-4.6,22.93-4.19,12.3-11.79,22.62-19.31,33-1.69,2.33-3.69,4.43-5.56,6.63-.91,1.06-1.83,1-2.71-.08-.75-.89-1.6-1.58-.42-2.92,15.12-17.25,25.05-37.33,32.06-59C298.58,303.34,298.48,303,299,303Z" transform="translate(-171.17 -228.13)"/><path class="cls-18" d="M271.52,369.77a7.28,7.28,0,0,1-10.19-2.35,10.38,10.38,0,0,1-.76-8.82c.95-2.5,3.21-2.81,5.07-.88.69.71.64,1,.07,1.69-1.57,1.8-4,3.23-2,6.32a8.69,8.69,0,0,0,7.94,4.06Z" transform="translate(-171.17 -228.13)"/><path class="cls-19" d="M271.82,367.39l1.6-1.83a5.42,5.42,0,0,1-1.05,3C271.35,368.56,271.57,368,271.82,367.39Z" transform="translate(-171.17 -228.13)"/><path class="cls-20" d="M271.82,367.39a1.25,1.25,0,0,0,.55,1.16c-.28.4-.57.8-.85,1.21l.09,0A1.76,1.76,0,0,1,271.82,367.39Z" transform="translate(-171.17 -228.13)"/></svg>