<?xml version="1.0" encoding="UTF-8"?>
<svg id="Ebene_1" data-name="Ebene 1" xmlns="http://www.w3.org/2000/svg" viewBox="0 0 303.12 262.48">
  <defs>
    <style>
      .cls-1 {
        fill: #1d1d1b;
      }
    </style>
  </defs>
  <path class="cls-1" d="M37.26,21.18v2.92h11.04c.37,0,.56,.19,.56,.56v5.84c0,.37-.19,.56-.56,.56h-11.04v10.96c0,.37-.19,.56-.56,.56h-12.12c-.4,0-.6-.19-.6-.56V11.3c0-.37,.2-.56,.6-.56h27.72c.4,0,.6,.19,.6,.56v9.32c0,.37-.2,.56-.6,.56h-15.04Z"/>
  <path class="cls-1" d="M76.5,42.58c-.19,0-.33-.09-.44-.28-1.12-1.63-1.68-3.31-1.68-5.04v-5.64c0-.67-.32-1-.96-1h-4.52v11.4c0,.37-.19,.56-.56,.56h-12.12c-.37,0-.56-.19-.56-.56V11.3c0-.37,.19-.56,.56-.56h20.12c3.2,0,5.8,.84,7.8,2.52,1.89,1.57,2.84,3.51,2.84,5.8,0,3.6-1.51,6.19-4.52,7.76,3.01,1.44,4.52,3.95,4.52,7.52v2.52c0,1.41,.45,3.04,1.36,4.88,.13,.21,.13,.4,0,.56-.08,.19-.24,.28-.48,.28h-11.36Zm-3.08-21.4h-4.52v2.44h4.52c.24,0,.47-.12,.68-.36,.19-.27,.28-.55,.28-.84,0-.83-.32-1.24-.96-1.24Z"/>
  <path class="cls-1" d="M117.58,38.42c-3.25,3.28-7.13,4.92-11.64,4.92s-8.39-1.63-11.64-4.88c-3.23-3.25-4.84-7.19-4.84-11.8s1.61-8.53,4.84-11.76c3.23-3.28,7.11-4.92,11.64-4.92s8.39,1.63,11.64,4.88c3.23,3.25,4.84,7.19,4.84,11.8s-1.61,8.53-4.84,11.76Zm-11.64-18.28c-2.08,0-3.12,2.17-3.12,6.52s1.04,6.56,3.12,6.56,3.12-2.19,3.12-6.56-1.04-6.52-3.12-6.52Z"/>
  <path class="cls-1" d="M146.94,42.58c-.13,0-.28-.08-.44-.24l-9.76-12.16v11.84c0,.37-.19,.56-.56,.56h-10.32c-.4,0-.6-.19-.6-.56V11.3c0-.37,.2-.56,.6-.56h10.76c.19,0,.35,.08,.48,.24l9.28,11.96V11.3c0-.37,.19-.56,.56-.56h10.32c.4,0,.6,.19,.6,.56v30.72c0,.37-.2,.56-.6,.56h-10.32Z"/>
  <path class="cls-1" d="M182.94,21.18v20.84c0,.37-.2,.56-.6,.56h-12.12c-.37,0-.56-.19-.56-.56V21.18h-8.8c-.4,0-.6-.19-.6-.56V11.3c0-.37,.2-.56,.6-.56h30.84c.4,0,.6,.19,.6,.56v9.32c0,.37-.2,.56-.6,.56h-8.76Z"/>
  <path class="cls-1" d="M195.22,42.58c-.4,0-.6-.19-.6-.56V11.3c0-.37,.2-.56,.6-.56h27.72c.4,0,.6,.19,.6,.56v9.32c0,.37-.2,.56-.6,.56h-15.04v2h11.04c.37,0,.56,.19,.56,.56v5.88c0,.37-.19,.56-.56,.56h-11.04v1.96h15.04c.4,0,.6,.2,.6,.6v9.28c0,.38-.2,.56-.6,.56h-27.72Z"/>
  <path class="cls-1" d="M247.94,42.58c-.13,0-.28-.08-.44-.24l-9.76-12.16v11.84c0,.37-.19,.56-.56,.56h-10.32c-.4,0-.6-.19-.6-.56V11.3c0-.37,.2-.56,.6-.56h10.76c.19,0,.35,.08,.48,.24l9.28,11.96V11.3c0-.37,.19-.56,.56-.56h10.32c.4,0,.6,.19,.6,.56v30.72c0,.37-.2,.56-.6,.56h-10.32Z"/>
  <path class="cls-1" d="M289.3,37.9c-3.25,3.12-7.15,4.68-11.68,4.68h-15.12c-.4,0-.6-.19-.6-.56V11.3c0-.37,.2-.56,.6-.56h15.12c4.53,0,8.43,1.55,11.68,4.64,3.23,3.12,4.84,6.88,4.84,11.28s-1.61,8.17-4.84,11.24Zm-9.88-15.56c-.72-.77-1.61-1.16-2.68-1.16h-1.56v10.96h1.56c1.07,0,1.96-.4,2.68-1.2,.91-.98,1.36-2.42,1.36-4.3s-.45-3.32-1.36-4.3Z"/>
  <path class="cls-1" d="M205.53,51.5h1.96l1.03,7,.17,1.04c.08,.56,.14,1.07,.18,1.53l.11,1.28s.01,.09,.02,.18c0,.08,.02,.19,.03,.32l.05-.49c.08-.85,.16-1.64,.25-2.35,.09-.72,.18-1.38,.29-1.98l1.08-6.52h1.56l1.02,6.34c.15,.94,.28,1.81,.38,2.61s.18,1.57,.25,2.29c.07-.77,.14-1.51,.22-2.23,.08-.72,.17-1.42,.26-2.11l.15-1.01,.87-5.9h1.94l-2.67,15.08h-1.58l-1.06-6.51s-.02-.13-.05-.32c-.03-.19-.07-.46-.12-.81l-.21-1.5c-.01-.12-.03-.29-.06-.53s-.06-.53-.09-.89l-.05-.62c-.01,.15-.03,.28-.04,.39-.01,.11-.02,.2-.03,.27-.03,.43-.06,.76-.08,1-.02,.24-.04,.38-.04,.43l-.21,1.45c-.05,.33-.08,.59-.11,.78-.03,.19-.05,.31-.06,.35l-1.1,6.51h-1.63l-2.61-15.08Z"/>
  <path class="cls-1" d="M218.51,51.5h2.03v15.08h-2.03v-15.08Z"/>
  <path class="cls-1" d="M222.87,51.5h2.68c1.11,0,1.93,.26,2.47,.79,.68,.68,1.03,1.73,1.03,3.13,0,1.08-.18,1.95-.54,2.6s-.88,1.06-1.55,1.22l2.77,7.33h-2.06l-2.76-7.38v7.38h-2.03v-15.08Zm2.03,6.68c.79,0,1.34-.18,1.67-.55,.33-.37,.49-.98,.49-1.85,0-.47-.03-.87-.1-1.2s-.18-.6-.32-.81c-.15-.21-.33-.36-.57-.46s-.51-.15-.83-.15h-.34v5.01Z"/>
  <path class="cls-1" d="M231.3,51.5h5.4v1.72h-3.37v4.78h2.99v1.72h-2.99v5.15h3.37v1.72h-5.4v-15.08Z"/>
  <path class="cls-1" d="M238.56,51.5h5.43v1.72h-3.4v4.77h3.07v1.72h-3.07v6.88h-2.03v-15.08Z"/>
  <path class="cls-1" d="M245.55,51.5h2.68c1.11,0,1.93,.26,2.47,.79,.68,.68,1.03,1.73,1.03,3.13,0,1.08-.18,1.95-.54,2.6s-.88,1.06-1.55,1.22l2.77,7.33h-2.06l-2.76-7.38v7.38h-2.03v-15.08Zm2.03,6.68c.79,0,1.34-.18,1.67-.55,.33-.37,.49-.98,.49-1.85,0-.47-.03-.87-.1-1.2s-.18-.6-.32-.81c-.15-.21-.33-.36-.57-.46s-.51-.15-.83-.15h-.34v5.01Z"/>
  <path class="cls-1" d="M256.13,51.5h1.58l3.23,15.08h-2.01l-.57-2.94h-2.99l-.58,2.94h-1.95l3.28-15.08Zm1.94,10.57l-.45-2.4c-.3-1.63-.54-3.38-.73-5.23-.09,.9-.21,1.82-.35,2.75s-.31,1.91-.51,2.95l-.37,1.93h2.41Z"/>
  <path class="cls-1" d="M262.85,51.5h1.74l1.33,6.15c.16,.77,.31,1.54,.44,2.31s.26,1.58,.37,2.43c.01-.11,.02-.2,.03-.26,0-.06,.01-.11,.02-.13l.28-1.73,.25-1.64,.22-1.08,1.18-6.04h1.76l1.39,15.08h-1.94l-.34-5.12c-.01-.26-.02-.49-.03-.67,0-.19-.01-.35-.01-.47l-.09-2.02-.05-1.86s0-.04,0-.08c0-.04,0-.1-.01-.17l-.05,.3c-.05,.36-.1,.67-.14,.94-.04,.27-.08,.49-.11,.67l-.25,1.38-.1,.52-1.27,6.58h-1.37l-1.19-5.68c-.16-.75-.31-1.51-.43-2.28s-.24-1.58-.35-2.43l-.59,10.39h-1.91l1.24-15.08Z"/>
  <path class="cls-1" d="M273.54,51.5h2.03v15.08h-2.03v-15.08Z"/>
  <path class="cls-1" d="M277.9,51.5h1.89l2.02,6.02c.59,1.7,1.1,3.51,1.55,5.44-.16-1.17-.28-2.22-.36-3.16-.08-.94-.12-1.83-.12-2.67v-5.62h2.04v15.08h-1.9l-2.28-6.79c-.21-.63-.41-1.28-.59-1.94s-.36-1.36-.51-2.09c-.01-.09-.03-.2-.06-.33-.03-.13-.06-.28-.1-.45,.02,.17,.04,.31,.05,.43,.01,.12,.02,.22,.03,.31l.11,1.53,.11,1.87c0,.1,.01,.23,.01,.38,0,.15,0,.32,0,.51l.11,6.57h-2v-15.08Z"/>
  <path class="cls-1" d="M290.87,58.65h3.69v.59c0,2.94-.26,4.92-.77,5.95-.51,1.05-1.46,1.58-2.85,1.58s-2.46-.59-3.08-1.76c-.61-1.17-.91-3.14-.91-5.91,0-3.16,.33-5.27,1-6.32,.62-.98,1.58-1.47,2.88-1.47,.99,0,1.76,.24,2.31,.71,.56,.48,1,1.27,1.31,2.37l-1.89,.79c-.08-.4-.18-.73-.28-1-.1-.27-.22-.48-.34-.63-.25-.31-.62-.46-1.11-.46-.68,0-1.14,.42-1.39,1.25-.25,.87-.37,2.44-.37,4.7s.13,3.83,.38,4.64,.73,1.21,1.44,1.21c.64,0,1.1-.29,1.36-.86,.27-.61,.4-1.6,.4-2.95v-.71h-1.77v-1.72Z"/>
  <path class="cls-1" d="M262.65,75.5h2.03v5.9h2.98v-5.9h2.03v15.08h-2.03v-7.46h-2.98v7.46h-2.03v-15.08Z"/>
  <path class="cls-1" d="M270.82,75.5h6.61v1.78h-2.28v13.3h-1.99v-13.3h-2.34v-1.78Z"/>
  <path class="cls-1" d="M279.27,75.5h1.74l1.33,6.15c.16,.77,.31,1.54,.44,2.31s.26,1.58,.37,2.43c.01-.11,.02-.2,.03-.26s.01-.11,.02-.13l.28-1.73,.25-1.64,.22-1.08,1.18-6.04h1.76l1.39,15.08h-1.94l-.34-5.12c-.01-.26-.02-.49-.03-.67s-.01-.34-.01-.47l-.09-2.02-.05-1.86s0-.04,0-.08,0-.1-.01-.17l-.05,.3c-.05,.36-.1,.67-.14,.94s-.08,.49-.11,.67l-.25,1.38-.1,.52-1.27,6.58h-1.37l-1.19-5.68c-.16-.75-.31-1.51-.43-2.28s-.24-1.58-.35-2.43l-.59,10.39h-1.91l1.24-15.08Z"/>
  <path class="cls-1" d="M289.96,75.5h2.03v13.36h3.32v1.72h-5.35v-15.08Z"/>
  <path class="cls-1" d="M279.95,99.75v1.83c-.52-.25-.96-.38-1.31-.38-.48,0-.9,.12-1.24,.36s-.63,.6-.85,1.1-.39,1.12-.5,1.88-.16,1.66-.16,2.69c0,3.72,.95,5.59,2.86,5.59,.33,0,.73-.1,1.2-.31v1.87c-.49,.27-1.04,.41-1.64,.41-3.05,0-4.58-2.49-4.58-7.48,0-2.7,.37-4.7,1.12-6.02s1.89-1.97,3.42-1.97c.57,0,1.13,.15,1.68,.45Z"/>
  <path class="cls-1" d="M286.69,99.82v1.98c-.62-.44-1.17-.66-1.67-.66-.53,0-.97,.19-1.31,.57-.34,.36-.51,.84-.51,1.44,0,.53,.12,.98,.36,1.36,.12,.2,.33,.46,.61,.78s.65,.7,1.1,1.15c.83,.84,1.39,1.57,1.69,2.18,.3,.59,.45,1.32,.45,2.18,0,1.17-.33,2.13-.99,2.88-.66,.74-1.5,1.1-2.53,1.1-.87,0-1.6-.24-2.22-.71v-2.01c.72,.53,1.38,.79,1.97,.79,.55,0,.99-.18,1.3-.55s.47-.87,.47-1.5c0-.55-.12-1.04-.36-1.47-.12-.21-.3-.45-.52-.72s-.5-.57-.83-.9c-.51-.51-.94-.96-1.28-1.35s-.59-.73-.75-1.03c-.31-.57-.47-1.3-.47-2.17,0-1.18,.31-2.11,.92-2.8,.62-.7,1.45-1.04,2.49-1.04,.72,0,1.41,.17,2.07,.52Z"/>
  <path class="cls-1" d="M294.15,99.82v1.98c-.62-.44-1.17-.66-1.67-.66-.53,0-.97,.19-1.31,.57-.34,.36-.51,.84-.51,1.44,0,.53,.12,.98,.36,1.36,.12,.2,.33,.46,.61,.78s.65,.7,1.1,1.15c.83,.84,1.39,1.57,1.69,2.18,.3,.59,.45,1.32,.45,2.18,0,1.17-.33,2.13-.99,2.88-.66,.74-1.5,1.1-2.53,1.1-.87,0-1.6-.24-2.22-.71v-2.01c.72,.53,1.38,.79,1.97,.79,.55,0,.99-.18,1.3-.55s.47-.87,.47-1.5c0-.55-.12-1.04-.36-1.47-.12-.21-.3-.45-.52-.72s-.5-.57-.83-.9c-.51-.51-.94-.96-1.28-1.35s-.59-.73-.75-1.03c-.31-.57-.47-1.3-.47-2.17,0-1.18,.31-2.11,.92-2.8,.62-.7,1.45-1.04,2.49-1.04,.72,0,1.41,.17,2.07,.52Z"/>
  <path class="cls-1" d="M36.26,149.38c-.43,4-2,7.32-4.72,9.96-2.77,2.67-6.2,4-10.28,4-4.53,0-8.4-1.63-11.6-4.88-3.23-3.23-4.84-7.16-4.84-11.8s1.6-8.55,4.8-11.8c3.25-3.25,7.13-4.88,11.64-4.88,4.03,0,7.45,1.35,10.28,4.04,2.72,2.64,4.29,5.99,4.72,10.04,.03,.43-.16,.64-.56,.64h-10c-.35,0-.53-.16-.56-.48-.16-1.23-.6-2.16-1.32-2.8-.61-.56-1.31-.84-2.08-.84-.99,0-1.8,.47-2.44,1.4-.75,1.07-1.12,2.63-1.12,4.68s.37,3.61,1.12,4.68c.64,.96,1.45,1.44,2.44,1.44,.75,0,1.43-.28,2.04-.84,.72-.64,1.16-1.55,1.32-2.72,.03-.32,.21-.48,.56-.48h10.04l.56,.64Z"/>
  <path class="cls-1" d="M66.98,158.42c-3.25,3.28-7.13,4.92-11.64,4.92s-8.39-1.63-11.64-4.88c-3.23-3.25-4.84-7.19-4.84-11.8s1.61-8.53,4.84-11.76c3.23-3.28,7.11-4.92,11.64-4.92s8.39,1.63,11.64,4.88c3.23,3.25,4.84,7.19,4.84,11.8s-1.61,8.53-4.84,11.76Zm-11.64-18.28c-2.08,0-3.12,2.17-3.12,6.52s1.04,6.56,3.12,6.56,3.12-2.19,3.12-6.56-1.04-6.52-3.12-6.52Z"/>
  <path class="cls-1" d="M102.06,157.9c-3.25,3.12-7.15,4.68-11.68,4.68h-15.12c-.4,0-.6-.19-.6-.56v-30.72c0-.37,.2-.56,.6-.56h15.12c4.53,0,8.43,1.55,11.68,4.64,3.23,3.12,4.84,6.88,4.84,11.28s-1.61,8.17-4.84,11.24Zm-9.88-15.56c-.72-.77-1.61-1.16-2.68-1.16h-1.56v10.96h1.56c1.07,0,1.96-.4,2.68-1.2,.91-.98,1.36-2.42,1.36-4.3s-.45-3.32-1.36-4.3Z"/>
  <path class="cls-1" d="M110.22,162.58c-.4,0-.6-.19-.6-.56v-30.72c0-.37,.2-.56,.6-.56h27.72c.4,0,.6,.19,.6,.56v9.32c0,.37-.2,.56-.6,.56h-15.04v2h11.04c.37,0,.56,.19,.56,.56v5.88c0,.37-.19,.56-.56,.56h-11.04v1.96h15.04c.4,0,.6,.2,.6,.6v9.28c0,.38-.2,.56-.6,.56h-27.72Z"/>
  <path class="cls-1" d="M180.9,162.18c-.08,.27-.27,.4-.56,.4h-9.68c-.29,0-.48-.13-.56-.4l-4.2-12.08-4.2,12.08c-.08,.27-.25,.4-.52,.4h-9.72c-.27,0-.44-.13-.52-.4l-10.68-30.68c-.08-.19-.05-.36,.08-.52,.11-.16,.27-.24,.48-.24h12.56c.29,0,.48,.15,.56,.44l3.64,13c.37-1.47,.85-3.27,1.42-5.42,.57-2.15,1.25-4.67,2.02-7.58,.08-.29,.28-.44,.6-.44h10.48c.29,0,.48,.15,.56,.44l3.64,13.16c.37-1.47,.85-3.29,1.44-5.48,.59-2.19,1.27-4.75,2.04-7.68,.08-.29,.25-.44,.52-.44h10.52c.53,0,.72,.25,.56,.76l-10.48,30.68Z"/>
  <path class="cls-1" d="M215.38,162.58c-.29,0-.48-.13-.56-.4l-1.16-3.6h-9c-.13,.45-.29,.97-.48,1.56-.19,.59-.43,1.27-.72,2.04-.08,.27-.25,.4-.52,.4h-10.08c-.21,0-.37-.08-.48-.24-.13-.13-.16-.31-.08-.52l11.4-30.68c.11-.27,.29-.4,.56-.4h12.16c.24,0,.41,.13,.52,.4l11.56,30.68c.05,.16,.04,.33-.04,.52-.13,.16-.31,.24-.52,.24h-12.56Zm-6.32-17.56c-.21,.61-.47,1.39-.78,2.34s-.67,2.09-1.1,3.42h3.8l-1.92-5.76Z"/>
  <path class="cls-1" d="M251.3,162.58c-.19,0-.33-.09-.44-.28-1.12-1.63-1.68-3.31-1.68-5.04v-5.64c0-.67-.32-1-.96-1h-4.52v11.4c0,.37-.19,.56-.56,.56h-12.12c-.37,0-.56-.19-.56-.56v-30.72c0-.37,.19-.56,.56-.56h20.12c3.2,0,5.8,.84,7.8,2.52,1.89,1.57,2.84,3.51,2.84,5.8,0,3.6-1.51,6.19-4.52,7.76,3.01,1.44,4.52,3.95,4.52,7.52v2.52c0,1.41,.45,3.04,1.36,4.88,.13,.21,.13,.4,0,.56-.08,.19-.24,.28-.48,.28h-11.36Zm-3.08-21.4h-4.52v2.44h4.52c.24,0,.47-.12,.68-.36,.19-.27,.28-.55,.28-.84,0-.83-.32-1.24-.96-1.24Z"/>
  <path class="cls-1" d="M291.3,159.82c-2.67,2.35-6.65,3.52-11.96,3.52-4.45,0-8.15-.98-11.08-2.95-3.12-2.05-4.68-4.78-4.68-8.21,0-.37,.19-.56,.56-.56h9.56c.32,0,.51,.16,.56,.48,.16,1.07,.85,1.88,2.08,2.44,.88,.4,1.84,.6,2.88,.6,2.4,0,3.6-.4,3.6-1.2,0-.58-1.71-1.24-5.12-1.95-4.19-.88-7.17-1.83-8.96-2.87-3.12-1.78-4.68-4.43-4.68-7.93,0-2.98,1.27-5.53,3.8-7.66,2.77-2.37,6.52-3.55,11.24-3.55,4.16,0,7.61,.99,10.36,2.96,2.75,2,4.12,4.51,4.12,7.52,0,.37-.2,.56-.6,.56h-9.2c-.35,0-.53-.16-.56-.48-.29-2.05-1.64-3.08-4.04-3.08-2.13,0-3.2,.4-3.2,1.2,0,.48,.47,.88,1.4,1.2,.53,.21,1.69,.51,3.48,.88,4.08,.88,7.12,1.92,9.12,3.12,3.2,1.92,4.8,4.57,4.8,7.96s-1.16,6-3.48,8Z"/>
  <path class="cls-1" d="M208.14,171.5h2.03v7.3l2.83-7.3h2.05l-2.97,7.3,3.2,7.77h-2.29l-2.83-7.77v7.77h-2.03v-15.08Z"/>
  <path class="cls-1" d="M215.36,171.5h2.15l1,3.28c.03,.1,.07,.21,.1,.32s.07,.24,.12,.38c.37,1.18,.62,2.18,.76,2.99,.12-.81,.21-1.37,.29-1.69l.31-1.35,.12-.53,.84-3.41h2.12l-2.63,8.59v6.48h-2.03v-6.48l-3.14-8.59Z"/>
  <path class="cls-1" d="M224.29,171.5h1.99v10.65c0,1.09,.1,1.81,.29,2.17,.2,.36,.6,.54,1.19,.54s.98-.16,1.17-.47c.2-.32,.29-.97,.29-1.94v-10.95h1.99v10.95c0,1.64-.25,2.75-.75,3.33-.6,.66-1.51,.99-2.74,.99-1.35,0-2.31-.42-2.86-1.27-.38-.58-.58-1.69-.58-3.34v-10.65Z"/>
  <path class="cls-1" d="M232.38,187.94h11.31v1.79h-11.31v-1.79Z"/>
  <path class="cls-1" d="M244.85,171.5h2.03v13.36h3.32v1.72h-5.35v-15.08Z"/>
  <path class="cls-1" d="M251.47,171.5h5.4v1.72h-3.37v4.78h2.99v1.72h-2.99v5.15h3.37v1.72h-5.4v-15.08Z"/>
  <path class="cls-1" d="M257.54,171.5h2l.91,5.57,.16,1.01,.32,2.19c.05,.37,.1,.71,.14,1.02s.08,.58,.11,.83l.1,.74c.02-.15,.04-.28,.05-.4s.03-.21,.04-.29l.26-1.75,.34-2.29c.03-.21,.06-.4,.09-.58s.06-.33,.08-.47l.98-5.57h1.89l-2.96,15.08h-1.61l-2.91-15.08Z"/>
  <path class="cls-1" d="M266.13,171.5h5.4v1.72h-3.37v4.78h2.99v1.72h-2.99v5.15h3.37v1.72h-5.4v-15.08Z"/>
  <path class="cls-1" d="M273.4,171.5h2.03v13.36h3.32v1.72h-5.35v-15.08Z"/>
  <path class="cls-1" d="M280.95,176.33c.32,0,.6,.12,.83,.36,.23,.23,.35,.51,.35,.84s-.12,.62-.35,.86-.52,.35-.85,.35-.62-.12-.86-.35c-.23-.24-.35-.53-.35-.86s.12-.62,.35-.85c.24-.23,.53-.35,.88-.35Zm0,7.99c.32,0,.6,.12,.83,.36,.23,.23,.35,.52,.35,.85s-.12,.62-.35,.85c-.25,.23-.53,.34-.85,.34-.17,0-.33-.03-.47-.09s-.28-.15-.39-.25-.2-.23-.26-.38-.09-.3-.09-.47c0-.33,.12-.62,.35-.85,.24-.23,.53-.35,.88-.35Z"/>
  <path class="cls-1" d="M288.1,171.5h6.74l-4.57,15.08h-2.17l4.19-13.36h-4.19v-1.72Z"/>
  <path class="cls-1" d="M225.45,195.5h2.03v5.9h2.98v-5.9h2.03v15.08h-2.03v-7.46h-2.98v7.46h-2.03v-15.08Z"/>
  <path class="cls-1" d="M242.36,203.41c0,2.66-.3,4.55-.89,5.67s-1.58,1.68-2.98,1.68c-1.46,0-2.5-.6-3.1-1.81-.59-1.18-.89-3.27-.89-6.28,0-2.68,.29-4.58,.88-5.69,.59-1.12,1.59-1.68,3.01-1.68,1.26,0,2.2,.43,2.81,1.3,.4,.58,.7,1.4,.88,2.47,.18,.99,.27,2.43,.27,4.34Zm-2.13,.21c0-2.61-.12-4.34-.35-5.2-.23-.86-.71-1.29-1.44-1.29s-1.2,.39-1.45,1.18c-.23,.79-.35,2.39-.35,4.79,0,2.21,.12,3.74,.37,4.59,.25,.81,.73,1.21,1.43,1.21s1.15-.38,1.41-1.13c.25-.75,.38-2.13,.38-4.15Z"/>
  <path class="cls-1" d="M244.37,195.5h1.89l2.02,6.02c.59,1.7,1.1,3.51,1.55,5.44-.16-1.17-.28-2.22-.36-3.16s-.12-1.83-.12-2.67v-5.62h2.04v15.08h-1.9l-2.28-6.79c-.21-.63-.41-1.28-.59-1.94s-.36-1.36-.51-2.09c-.01-.09-.03-.2-.06-.33s-.06-.28-.1-.45c.02,.17,.04,.31,.05,.43s.02,.22,.03,.31l.11,1.53,.11,1.87c0,.1,.01,.23,.01,.38s0,.32,0,.51l.11,6.57h-2v-15.08Z"/>
  <path class="cls-1" d="M261.3,203.41c0,2.66-.3,4.55-.89,5.67s-1.58,1.68-2.98,1.68c-1.46,0-2.5-.6-3.1-1.81-.59-1.18-.89-3.27-.89-6.28,0-2.68,.29-4.58,.88-5.69,.59-1.12,1.59-1.68,3.01-1.68,1.26,0,2.2,.43,2.81,1.3,.4,.58,.7,1.4,.88,2.47,.18,.99,.27,2.43,.27,4.34Zm-2.13,.21c0-2.61-.12-4.34-.35-5.2-.23-.86-.71-1.29-1.44-1.29s-1.2,.39-1.45,1.18c-.23,.79-.35,2.39-.35,4.79,0,2.21,.12,3.74,.37,4.59,.25,.81,.73,1.21,1.43,1.21s1.15-.38,1.41-1.13c.25-.75,.38-2.13,.38-4.15Z"/>
  <path class="cls-1" d="M263.31,195.5h2.68c1.11,0,1.93,.26,2.47,.79,.68,.68,1.03,1.73,1.03,3.13,0,1.08-.18,1.95-.54,2.6s-.88,1.06-1.55,1.22l2.77,7.33h-2.06l-2.76-7.38v7.38h-2.03v-15.08Zm2.03,6.68c.79,0,1.34-.18,1.67-.55s.49-.98,.49-1.85c0-.47-.03-.87-.1-1.2s-.18-.6-.32-.81-.33-.36-.57-.46-.51-.15-.83-.15h-.34v5.01Z"/>
  <path class="cls-1" d="M272.67,200.33c.32,0,.6,.12,.83,.36,.23,.23,.35,.51,.35,.84s-.12,.62-.35,.86-.52,.35-.85,.35-.62-.12-.86-.35c-.23-.24-.35-.53-.35-.86s.12-.62,.35-.85c.24-.23,.53-.35,.88-.35Zm0,7.99c.32,0,.6,.12,.83,.36,.23,.23,.35,.52,.35,.85s-.12,.62-.35,.85c-.25,.23-.53,.34-.85,.34-.17,0-.33-.03-.47-.09s-.28-.15-.39-.25-.2-.23-.26-.38-.09-.3-.09-.47c0-.33,.12-.62,.35-.85,.24-.23,.53-.35,.88-.35Z"/>
  <path class="cls-1" d="M281.29,195.5h4.79v1.75h-3.25l-.49,3.79h.24c.59,0,1.12,.09,1.58,.28s.84,.47,1.16,.83,.55,.81,.71,1.35,.24,1.14,.24,1.83c0,1.69-.37,3.02-1.1,3.99-.74,.96-1.76,1.44-3.07,1.44-.74,0-1.53-.21-2.39-.62l.51-1.8c.7,.36,1.28,.55,1.75,.55,.66,0,1.19-.3,1.58-.9,.39-.61,.59-1.42,.59-2.44,0-1.93-.83-2.9-2.49-2.9-.41,0-.82,.06-1.24,.19l.88-7.32Z"/>
  <path class="cls-1" d="M294.69,203.16c0,2.71-.26,4.66-.78,5.86-.51,1.16-1.39,1.74-2.63,1.74s-2.12-.58-2.64-1.75c-.51-1.13-.77-3.12-.77-5.97s.26-4.83,.77-5.97c.51-1.17,1.39-1.76,2.63-1.76,1.15,0,1.99,.51,2.54,1.54,.59,1.09,.88,3.19,.88,6.3Zm-2.07,0c0-2.28-.1-3.85-.29-4.73-.2-.87-.55-1.3-1.06-1.3s-.87,.43-1.07,1.29c-.2,.86-.29,2.41-.29,4.64s.1,3.78,.29,4.65c.2,.86,.56,1.29,1.07,1.29s.86-.43,1.05-1.28c.2-.81,.3-2.33,.3-4.56Z"/>
  <path class="cls-1" d="M5.36,243.5h1.74l1.33,6.15c.16,.77,.31,1.54,.44,2.31s.26,1.58,.37,2.43c.01-.11,.02-.2,.03-.26s.01-.11,.02-.13l.28-1.73,.25-1.64,.22-1.08,1.18-6.04h1.76l1.39,15.08h-1.94l-.34-5.12c-.01-.26-.02-.49-.03-.67s-.01-.34-.01-.47l-.09-2.02-.05-1.86s0-.04,0-.08,0-.1-.01-.17l-.05,.3c-.05,.36-.1,.67-.14,.94s-.08,.49-.11,.67l-.25,1.38-.1,.52-1.27,6.58h-1.37l-1.19-5.68c-.16-.75-.31-1.51-.43-2.28s-.24-1.58-.35-2.43l-.59,10.39h-1.91l1.24-15.08Z"/>
  <path class="cls-1" d="M21.72,248.47v10.11h-1.87v-1.3c-.27,.55-.53,.93-.8,1.14s-.62,.31-1.05,.31c-.84,0-1.46-.43-1.85-1.29s-.59-2.21-.59-4.04,.2-3.04,.59-3.86,1.01-1.24,1.85-1.24c.77,0,1.39,.44,1.86,1.31v-1.14h1.87Zm-4.22,5.01c0,1.33,.09,2.26,.26,2.78,.18,.53,.5,.79,.96,.79,.42,0,.72-.27,.91-.82,.19-.59,.28-1.49,.28-2.71s-.09-2.13-.28-2.71c-.19-.55-.49-.82-.91-.82-.44,0-.76,.26-.95,.78-.18,.48-.27,1.38-.27,2.71Z"/>
  <path class="cls-1" d="M23.84,248.47h1.87v1.26c.32-.53,.63-.91,.95-1.12s.73-.34,1.24-.37v1.95c-.13-.02-.24-.03-.33-.03-.67,0-1.15,.17-1.44,.52-.28,.34-.42,.93-.42,1.78v6.12h-1.87v-10.11Z"/>
  <path class="cls-1" d="M30.1,244.18c.34,0,.63,.12,.88,.37s.37,.54,.37,.89-.12,.65-.37,.9-.55,.37-.9,.37-.65-.12-.9-.37c-.24-.24-.36-.54-.36-.91,0-.34,.12-.63,.37-.88,.27-.25,.57-.37,.91-.37Zm-.88,4.3h1.88v10.11h-1.88v-10.11Z"/>
  <path class="cls-1" d="M38.96,248.47v10.11h-1.87v-1.3c-.27,.55-.53,.93-.8,1.14s-.62,.31-1.05,.31c-.84,0-1.46-.43-1.85-1.29s-.59-2.21-.59-4.04,.2-3.04,.59-3.86,1.01-1.24,1.85-1.24c.77,0,1.39,.44,1.86,1.31v-1.14h1.87Zm-4.22,5.01c0,1.33,.09,2.26,.26,2.78,.18,.53,.5,.79,.96,.79,.42,0,.72-.27,.91-.82,.19-.59,.28-1.49,.28-2.71s-.09-2.13-.28-2.71c-.19-.55-.49-.82-.91-.82-.44,0-.76,.26-.95,.78-.18,.48-.27,1.38-.27,2.71Z"/>
  <path class="cls-1" d="M41.08,248.47h1.87v1.16c.53-.89,1.22-1.33,2.07-1.33s1.41,.32,1.76,.97c.2,.36,.29,1.07,.29,2.12v7.19h-1.87v-6.76c0-.68-.09-1.17-.25-1.46s-.44-.43-.84-.43c-.21,0-.4,.04-.54,.11s-.27,.2-.36,.36-.16,.38-.2,.65-.06,.6-.06,.99v6.53h-1.87v-10.11Z"/>
</svg>