<svg id="Ebene_1" data-name="Ebene 1" xmlns="http://www.w3.org/2000/svg" viewBox="0 0 384.43 564.37"><defs><style>.cls-1{fill:#010100;}.cls-2{fill:#010101;}.cls-3{fill:#080809;}.cls-4{fill:#100f10;}.cls-5{fill:#1e1d1f;}.cls-6{fill:#201e20;}.cls-7{fill:#232225;}.cls-8{fill:#19191b;}.cls-9{fill:#232223;}.cls-10{fill:#2b2b2d;}.cls-11{fill:#313133;}.cls-12{fill:#39383b;}.cls-13{fill:#37373a;}.cls-14{fill:#3b3b3d;}.cls-15{fill:#373335;}.cls-16{fill:#403e40;}.cls-17{fill:#37383b;}.cls-18{fill:#d7dfe5;}.cls-19{fill:#575557;}.cls-20{fill:#5e5a5b;}.cls-21{fill:#7d8082;}.cls-22{fill:#484546;}.cls-23{fill:#414244;}.cls-24{fill:#4a4849;}.cls-25{fill:#605d5e;}.cls-26{fill:#382d2c;}.cls-27{fill:#2e2d2c;}.cls-28{fill:#fff;}.cls-29{fill:#fbfbfb;}.cls-30{fill:#faf9fa;}.cls-31{fill:#f9f9fa;}.cls-32{fill:#eff0f1;}.cls-33{fill:#2e2d30;}.cls-34{fill:#dfdfe1;}.cls-35{fill:#262628;}.cls-36{fill:#323235;}.cls-37{fill:#d9d8d9;}.cls-38{fill:#cdd3d8;}.cls-39{fill:#e2e7eb;}.cls-40{fill:#9a999a;}.cls-41{fill:#b7bbbf;}.cls-42{fill:#d4d4d5;}.cls-43{fill:#92989c;}.cls-44{fill:#84878a;}.cls-45{fill:#596b72;}.cls-46{fill:#5d6c73;}.cls-47{fill:#9ea0a2;}.cls-48{fill:#b6c7cf;}.cls-49{fill:#d3d8db;}.cls-50{fill:#fefefe;}.cls-51{fill:#fefeff;}.cls-52{fill:#fafafb;}.cls-53{fill:#161617;}.cls-54{fill:#ebebed;}.cls-55{fill:#e1e2e4;}.cls-56{fill:#333133;}.cls-57{fill:#eff0f2;}.cls-58{fill:#3b393b;}.cls-59{fill:#e1e3e6;}.cls-60{fill:#eef0f1;}.cls-61{fill:#eceff2;}.cls-62{fill:#ebebeb;}.cls-63{fill:#333638;}.cls-64{fill:#4c4c4e;}.cls-65{fill:#646365;}.cls-66{fill:#6b6666;}.cls-67{fill:#c8cacd;}.cls-68{fill:#595a5d;}.cls-69{fill:#bbbec1;}.cls-70{fill:#3d383a;}.cls-71{fill:#a7abae;}.cls-72{fill:#605a5b;}.cls-73{fill:#787b7f;}.cls-74{fill:#b7bcc0;}.cls-75{fill:#858c90;}.cls-76{fill:#e8edf0;}.cls-77{fill:#adbec6;}.cls-78{fill:#cdc7c5;}.cls-79{fill:#b4bec4;}.cls-80{fill:#464a4d;}.cls-81{fill:#b8b7b7;}.cls-82{fill:#929294;}.cls-83{fill:#828689;}.cls-84{fill:#899ca4;}.cls-85{fill:#54585b;}.cls-86{fill:#e6ebee;}.cls-87{fill:#f3f4f6;}.cls-88{fill:#c0c8cc;}.cls-89{fill:#303032;}.cls-90{fill:#777373;}.cls-91{fill:#838385;}.cls-92{fill:#e4e9ed;}.cls-93{fill:#fdfefe;}.cls-94{fill:#f8f9f9;}.cls-95{fill:#4a4c4f;}.cls-96{fill:#575252;}.cls-97{fill:#96908f;}.cls-98{fill:#d4d2d3;}.cls-99{fill:#ecebeb;}.cls-100{fill:#1f1f21;}.cls-101{fill:#fefdfd;}.cls-102{fill:#424042;}.cls-103{fill:#727071;}.cls-104{fill:#565557;}.cls-105{fill:#3e3533;}.cls-106{fill:#3a3839;}.cls-107{fill:#3b393a;}.cls-108{fill:#252325;}.cls-109{fill:#3d3a3c;}.cls-110{fill:#3b383a;}.cls-111{fill:#383537;}.cls-112{fill:#403c3d;}.cls-113{fill:#111213;}.cls-114{fill:#2c2a2b;}.cls-115{fill:#373536;}.cls-116{fill:#555253;}.cls-117{fill:#535253;}.cls-118{fill:#49494b;}.cls-119{fill:#4f4e50;}.cls-120{fill:#6a6565;}.cls-121{fill:#464142;}.cls-122{fill:#484445;}.cls-123{fill:#3e3839;}.cls-124{fill:#474242;}.cls-125{fill:#525154;}.cls-126{fill:#747374;}.cls-127{fill:#7a797a;}.cls-128{fill:#7d7371;}.cls-129{fill:#727273;}.cls-130{fill:#827c7a;}.cls-131{fill:#4f5052;}.cls-132{fill:#585353;}.cls-133{fill:#666465;}.cls-134{fill:#2a2729;}.cls-135{fill:#2a282a;}.cls-136{fill:#646060;}.cls-137{fill:#544b4a;}.cls-138{fill:#595555;}.cls-139{fill:#6f7072;}.cls-140{fill:#3e3636;}.cls-141{fill:#574e4d;}.cls-142{fill:#261f20;}.cls-143{fill:#2f2928;}.cls-144{fill:#201b1c;}.cls-145{fill:#453c3a;}.cls-146{fill:#554f4e;}.cls-147{fill:#322f31;}.cls-148{fill:#848485;}.cls-149{fill:#201d1f;}.cls-150{fill:#282222;}.cls-151{fill:#38393b;}.cls-152{fill:#383738;}.cls-153{fill:#f0f1f3;}.cls-154{fill:#332e30;}.cls-155{fill:#c8cdd1;}.cls-156{fill:#86888b;}.cls-157{fill:#a5a9ad;}.cls-158{fill:#6a7277;}.cls-159{fill:#555151;}.cls-160{fill:#5c5757;}.cls-161{fill:#7c7b7c;}.cls-162{fill:#7e7c7c;}.cls-163{fill:#726c6c;}.cls-164{fill:#7a7675;}.cls-165{fill:#767374;}.cls-166{fill:#656566;}.cls-167{fill:#77706f;}.cls-168{fill:#736e6d;}.cls-169{fill:#554c4b;}.cls-170{fill:#272121;}.cls-171{fill:#272324;}.cls-172{fill:#2f2929;}.cls-173{fill:#333132;}.cls-174{fill:#3d3331;}.cls-175{fill:#443c3a;}.cls-176{fill:#4b4241;}.cls-177{fill:#5c504d;}.cls-178{fill:#544c4a;}.cls-179{fill:#1f1d20;}.cls-180{fill:#201c1d;}.cls-181{fill:#433837;}.cls-182{fill:#f1f4f6;}.cls-183{fill:#747273;}.cls-184{fill:#d3d2d1;}.cls-185{fill:#18171a;}.cls-186{fill:none;}</style></defs><path class="cls-1" d="M200.3,396.05c-1.44-.73-2.9-1.44-4.33-2.2-4.53-2.43-5.95-4.39-4.42-9.14,1.38-4.27.14-7.71-1.3-11.37a82.75,82.75,0,0,1-5.53-33.44c.27-8,3-15.19,7.19-21.86a113.71,113.71,0,0,1,7.86-11c4.81-6,8.71-12.42,10.63-19.93a3.1,3.1,0,0,1,3.5,1.05c2.37,6.53.61,13.29,1.16,19.92a364.32,364.32,0,0,1-9.75,46.84c-2.59,9.26-5.16,18.55-8.88,27.46-1.69,4.06-.39,7,3.53,9,12.51,6.36,25.22,10.24,39.77,8.1,10.67-1.58,21.69-1.51,32.46,1.4,9.12,2.47,18.68,2.53,28,4.17a11.78,11.78,0,0,0,13.7-11.43c.11-3-1.08-4.79-4.15-3.93-8.46,2.38-16,.27-23.6-3.53-4.48-2.23-9.65-3.08-14.68-3.94-8.3-1.42-16.65-3.57-23.46-8.34-7.16-5-13.53-11.28-20.09-17.13-5.09-4.53-8.07-11.11-9-18.21.19-1.18.53-2.26,1.8-2.72,2.59.5,3.13,2.78,4,4.73a66.11,66.11,0,0,0,4.33,8.77c.75,1.21,1.46,2.78,3.08,2.8,1.81,0,2-1.82,2.59-3.09.23-.49.36-1,.58-1.52.61-1.33,1.23-2.87,3-2.69,2,.21,2.43,1.93,2.71,3.59.24,1.43.07,2.91.31,4.33,1.44,8.59,5.39,15.12,13.92,18.6,9,3.67,18.44,5.32,27.77,7.51a26.05,26.05,0,0,1,8.43,3.57,17.56,17.56,0,0,0,17.21,1.35c4.63-2.29,10.09-5.13,12.12-11a7.72,7.72,0,0,1,2-3.18c.17-.41.64-.41,1-.66-1-.33-1.34.89-2.19,1a50.65,50.65,0,0,1-11.16,2.1c-1.9.2-3.77-.3-4.39-2.36-.73-2.43,1.35-3.05,3-3.73,3.64-1.51,7.52-2.32,10.86-4.71,8.85-6.31,13.11-15,14.51-25.54.54-4.09-.14-8.82,4-11.79,2,1.32,1.17,3.1.76,4.81-1.24,12.11-2.94,24.09-9.59,34.73a42.76,42.76,0,0,0-3.47,7.37c-1.7,4.46-3.86,8.63-7.36,11.93-1.39,1.3-1.94,2.67-1.18,4.32,1,2.27.88,4.61.85,7-.12,8.28-5.74,14.46-13.94,15.15-2.49.21-5,1-7.55.05-2.26,7.4-2.77,14.84-3.46,22.23-.6,6.5-.88,13-1.42,19.55-.41,4.87-.52,9.81-1.94,14.54-1.19,3.94-.17,7.76,0,11.68a197.89,197.89,0,0,1-.46,21.22c-.6,10.34-.83,20.68-.63,31,.07,3.73.13,3.79,4,3.89,16.37.45,32.59,1.94,48.39,6.55a76.45,76.45,0,0,1,16.09,6.52c1.27.71,2.52,1.44,3.72,2.26,13.34,9.16,15,21.48,4.52,33.82a70.38,70.38,0,0,1-17.18,14.13c-14.32,8.8-29.89,14.68-45.86,19.66a295.84,295.84,0,0,1-52.51,11.48c-26.69,3.24-53.59,4.5-80.4.41-10.79-1.65-21.38-4-31.37-8.57a44.69,44.69,0,0,1-13.1-8.65c-7.14-7.1-8.26-15.61-3.17-24.29,3.17-5.42,7.61-9.69,12.55-13.47,12.53-9.59,26.77-15.88,41.47-21.23a220.63,220.63,0,0,1,28.13-8.29,29.94,29.94,0,0,0,12.7-5.77c6.36-5.1,13.87-7,21.67-7.7,4.45-.42,8.94-2.17,13.2-.19,1.22-.76,1-1.7.94-2.55q-1.2-12.74-2.45-25.47a11.51,11.51,0,0,0-3.34-7.7c-4-3.92-3.94-6.43-.73-11.34a2.27,2.27,0,0,0,.22-2.42c-5.05-13.3-6.79-27.41-9.92-41.18-.52-2.28-1.55-4.49-1.32-6.92-1.07-1.23-1.26-2.84-1.84-4.28a24.42,24.42,0,0,1-1.48-5.26,15.39,15.39,0,0,1-8.05,7.91c-2,.47-3.93.65-5.73-.58-.65-2.93,2.28-2.53,3.47-3.76,6.48-3.59,7.06-10.06,7.87-16.34.42-3.26-1.85-3.83-4.44-4.05-8.1-.68-15.35-3.83-22.34-7.74C201.75,397.65,201.22,396.65,200.3,396.05Z" transform="translate(-57.25 -77.42)"/><path class="cls-2" d="M232.05,225c-1-.83.14-3.44-2.8-2.81-2,.44-2.5-1.61-2.52-3.27,0-1.92-.31-3.34-2.43-4.25a5.09,5.09,0,0,1-2.69-3.89c-.69-6.3-3.36-12.68.47-18.88.95-1.54.11-3.63,1.43-5.09a4.15,4.15,0,0,1,1.88-1.23c1-.31,1.93-.61,2.91-.83,8.47,2,17.6,2.79,22.48,11.71a3.42,3.42,0,0,0,2.06,1.66c2.62.79,10.63-2.26,12.12-4.63,1-1.53,1.71-3.41,3.23-4.33,6.25-3.79,5.59-10.1,6-16,.23-3.35-2.37-4.49-5-5.53-5.38-2.12-11.26-2.9-16.18-6.15-.38-.05-.51-.46-.81-.65-.18.35,0,.53.42.55a1.15,1.15,0,0,1,.35,1.57c-.31.37-1.12.4-.79,1.21a1.91,1.91,0,0,1-.3,1.12,5.41,5.41,0,0,1-1.53,1.07l-.6.26a4.32,4.32,0,0,1-1.29.17,3,3,0,0,1-1.18-.43,2.71,2.71,0,0,1-.57-1c-.07-.35-.13-.71-.22-1.05a2.64,2.64,0,0,1-.52-.17,4.75,4.75,0,0,0-.53.18,6.24,6.24,0,0,1-4.12.42c-1.77-.71-3.51-1.44-3.1-3.88,1.2-1.83,3.57-1.5,5-2.59,1.63-1.25-.77-.52-.87-1.07a6.87,6.87,0,0,0-2.84-.3c-1.53.28-3.06.61-4.42-.51-.27-4.89,4-7.7,9.51-5.91a28.63,28.63,0,0,1,8,4.31c6,4.38,13.23,5.74,21,8.22-1.31-3.7-4-3.89-5.87-5-4.94-2.8-6.11-4.58-4.62-10.11s1.91-10.29-3.72-13.8c-5.33-3.33-13.59-3.49-18.56,0a25.84,25.84,0,0,0-9,10.61c-3.59,7.88-3.33,8.84,4.28,13a2.5,2.5,0,0,1,.91,1.17,2.24,2.24,0,0,1-.59,2,4.1,4.1,0,0,1-1.13.65c-.71.26-1.49.43-1.84,1.24-.06.39-.13.76-.16,1.15a10.47,10.47,0,0,1-.33,2.44,3.17,3.17,0,0,1-2,2.1c-1.09.17.06.68-.12,1,.94,5.25.94,5.25-7.23,6-1.72-.22-1.65-1.76-2.14-2.88a1.46,1.46,0,0,1-1.23-1.15c-.47-1,.27-1.26,1-1.47,1-.28,3,.49,2.86-1.26-.14-2.08-2.56-2-4-2.78-.41-.29-.82-.57-1.24-.83-1.28-2-2.26-3.48,1-5,4-1.83,7.72-4.35,6.34-9.92a4.89,4.89,0,0,1,.5-2.65,18.18,18.18,0,0,0,.86-12.51c-1.26-4.18.68-7.91,3.52-10.91,8-8.44,17.89-13.37,29.17-15.63a21.57,21.57,0,0,1,7.59.28,73.48,73.48,0,0,1,14.06,4.06c8.23,3.07,13.69,9.39,17.89,16.7,3.59,6.27,7,12.69,8.84,19.79,3.18,12,1.7,23.24-5.12,33.72-1.54,2.37-3.61,4.48-4.37,7.38,2.61,1.06,5.3.05,7.58,1.61,1,.66,2-.53,2.89-1.08,23.17-14.22,46.42-28.34,68.3-44.54a26.94,26.94,0,0,1,6.56-3.81c9.14-3.37,17.51,1.58,18.81,11.22a25.89,25.89,0,0,1-3.65,16.7,5.21,5.21,0,0,1-1.74,2q-33.21,20.64-66.39,41.29c-1.76,1.09-2.07,2.1-2,4.28.22,9.57-1.67,18.68-7.84,26.44-1.82,1,1,4.36-2.31,4.62-3.95-3.19-5.39-8-7.2-12.33-1.92-4.62-4.12-6.92-9.14-4.7a1.83,1.83,0,0,1-1.33-1.73c.84-2.46,3.11-3.45,5-4.77,24.61-17,50.64-31.86,75.61-48.32,3.94-2.6,7.71-5.43,11.62-8.07a10.77,10.77,0,0,0,3.94-5.08c1.66-4.11.85-5.89-3.55-7.85-1-.39-2-.83-2-2.19,1.78-2.23,3.94-2.57,6.39-1.3a1.75,1.75,0,0,1,.64.63c.45-.54-.35-.67-.38-1.08-4.62-7.32-7.53-8.31-14.55-4.12-17,10.16-33.08,21.74-50,32-21,12.72-41.2,26.63-62.93,38.07-1.74.91-3.33,2.32-5.55,1.8a1.77,1.77,0,0,1-1.26-1.84,4.36,4.36,0,0,1,2.34-2.81c7.68-2.9,9.57-9.25,10.08-16.48a20.32,20.32,0,0,0,1.18-4.11c.22-2.64,1.55-3.83,4.22-3.56a5.67,5.67,0,0,0,5.16-2.28c.48-.54,1-1.06,1.48-1.59a21.33,21.33,0,0,1,1.88-2c1-.83,2.36-1.15,3.14-2.28.24-.35.51-.68.77-1a31,31,0,0,0,1.89-2.54c.13-.16.27-.32.39-.48l.47-.38a4.36,4.36,0,0,1,1.09-.36c1.06-.63,0-1.34,0-2-1.65-7.89-6.08-9.28-12.87-4.15a9.63,9.63,0,0,0-3.38,4.79,11.12,11.12,0,0,1-.62,1.36c-.34.66-.71,1.3-1,2-.66,2.22-.29,4.51-.42,6.77,0,3.07-2.25,5.52-2.45,8.55C272,211,259.92,219.25,244.81,223.89c-1,.23-2.07.49-3.09.82a16,16,0,0,1-2.36.59A9.74,9.74,0,0,1,232.05,225Z" transform="translate(-57.25 -77.42)"/><path class="cls-3" d="M229.84,229.14c1.09-1.48,2.79-1.8,4.39-2.3,1.94-1.35,4.29-.87,6.4-1.43.45-.16.91-.3,1.36-.43a20.26,20.26,0,0,0,2-.84,11.36,11.36,0,0,1,1.39-.47,16.25,16.25,0,0,1,2.13-.84c2.67-.33,5.34-.83,8,.1a4.66,4.66,0,0,1,1.33.9c2.37,3.16,5.43,5.79,7.18,9.43-.89,6.89-2.33,13.76-1,20.76a3.22,3.22,0,0,1,0,1.66c-2.33,3.59-3.22,6.75,1.49,9.46,2.7,1.56,3.16,4.8,3.57,7.67a7.84,7.84,0,0,0,5.49,6.75c5.6,2.12,11.12,4.36,17.16,5.11,6.24.77,11.86,3.63,16.91,7.12,6.31,4.35,8.95,16.84,5.44,24.49a49.78,49.78,0,0,1-11,15.45,11.4,11.4,0,0,1-3.59,2.43c-1.58.62-3.34,1.09-4.42-.59-.95-1.49.22-2.72,1.25-3.79a9.71,9.71,0,0,1,1.23-1.08c14.41-10.61,7.9-32.06-7.67-37.4-7.55-2.59-15.2-4.87-22.4-8.43-3.81-1.89-6.61-4.49-7.5-8.72-.35-1.69-1-3.93,2.18-3.54.43.09.8.9,1,.6.37-.46-.51-.59-.7-1-1.58-2.65-4.07-2.72-6.69-2.38-2.32.3-4.59,1.14-7,.55-1.08-.4-2-.9-1.77-2.31.27-.48.57-1.13,1-1.21,7.9-1.23,7.93-6.85,7.54-13-.31-4.91,1.07-9.71,1.63-14.56.34-3-.2-5.43-3.1-6.85-2.66-1.3-5.34-2.58-8,.13-.92,1-2.08,1.7-3.39,1.11-3.52-1.6-7.17-.31-10.74-.65C230.22,230.72,229.55,230.23,229.84,229.14Z" transform="translate(-57.25 -77.42)"/><path class="cls-4" d="M139.42,305.59c11.36-9.8,23.55-18.55,35.35-27.8,7.54-5.91,15.08-11.83,22.82-17.49,2.57-1.88,3.95-4,4-7.08.58-.65,1.19-1.27,1.81-1.88.82-.82,1.61-1.68,2.5-2.44a5.48,5.48,0,0,1,2-1.05c6.49.09,9.7,3.15,8.33,9.32-2.06,9.34,1,16.92,6.4,24.09a4.47,4.47,0,0,1,1.2,2.11,2.93,2.93,0,0,1-1.38,2.77,3.89,3.89,0,0,1-3.07-.4,11.06,11.06,0,0,1-5-5.6,15.2,15.2,0,0,0-2.18-3.16c-2.53-3.81-3.27-8.11-3.39-12.57,0-1.06,0-2.12,0-3.18.23-3.63-1.1-3.67-3.67-1.77-6,4.42-11.82,9-17.71,13.58-13.07,10.08-26.39,19.84-39.39,30-2.24,1.75-4.28,4-7.47,4.15C139.8,307,139.18,306.61,139.42,305.59Z" transform="translate(-57.25 -77.42)"/><path class="cls-5" d="M234.37,427.57c1.46,1.4,1,3.12.82,4.79-2.92,1.33-3.87,5.18-7.52,5.48a29.75,29.75,0,0,1,1.74,3.73c1.69,5.56-2.12,10.32-7.94,9.91-4.42-.31-7.93-2.62-10.71-5.8a102.72,102.72,0,0,1-13.45-19.05c-1.68-3.14-2.47-6.41-1.13-9.92,3.41.65,1.7,4.05,3.12,5.76a87.57,87.57,0,0,0,14.77,20.6c1.74,1.87,3.71,3.46,6.42,3.69,1.65.14,3.39.2,4.21-1.62s-.23-3.13-1.62-4.15a20.8,20.8,0,0,1-5.79-5.62c-.87-1.39-1.64-2.84-.79-4.55,2.44-1.28,3.91.53,5.54,1.76,1.12.86,2.16,1.83,3.68,1.86.92,0,1.91-.13,2.28-1,.61-1.4-1-1.57-1.57-2.35C227.17,426.85,228.52,426.25,234.37,427.57Z" transform="translate(-57.25 -77.42)"/><path class="cls-6" d="M213.5,277.19a3,3,0,0,1,2.1,2.45c0,4,1.09,8,.56,12,0,4.18,0,8.36,0,12.54-.26,1.91.14,4.15-2.46,4.88,0-5.38-.06-10.76-.16-16.14,0-1.73.52-3.65-1.26-5-.65-1.34-1.05-3-3.19-2.21Q182,301.9,155,318.05c-1.54.91-3.15,1.71-4.73,2.56-1.09-.45-3-.22-2-2.39,19.17-12.1,38.74-23.55,58-35.43C208.92,281.15,210.71,278.56,213.5,277.19Z" transform="translate(-57.25 -77.42)"/><path class="cls-7" d="M319.4,248.84c1-.76.9-1.78.66-2.83-.28-1.25.51-1.46,1.46-1.5-.65,2.05,0,3.81.93,5.66,9.58,18.27,15.05,37.77,17.66,58.19.88,6.9,1.17,13.6-1.08,20.26-.46-1.5.47-3.35-1.14-4.57-1.69-1.52-1.5-3.59-1.54-5.55-.4-22.45-6.89-43.38-15.81-63.71C319.72,252.91,317.8,251.19,319.4,248.84Z" transform="translate(-57.25 -77.42)"/><path class="cls-8" d="M148.14,318.54l2.12,2.07c-1.55,1.79-1.74,5.14-5.8,3.87-1.37-.43-3.57,1.41-5.25,2.44-5.46,3.35-11.56,5-17.62,6.74a4.78,4.78,0,0,1-1.07.17c-2.6.14-5.33,0-6.79-2.4s.21-4.44,1.76-6.27c1-.22,1.41.37,1.75,1.13.29,2.58,1.42,3.84,4.29,3.27,7.35-1.46,13.84-4.9,20.31-8.43,2.19-1.2,1.58-2.83.51-4.55-2-3.16-5.36-4-8.47-5.32a1,1,0,0,1,.07-1.35c.92-2.58,3.29-3.33,5.47-4.32l1.08,1.05c2.55,2,5.14,3.86,7.85,5.6C149,314.36,149.6,316.49,148.14,318.54Z" transform="translate(-57.25 -77.42)"/><path class="cls-9" d="M108.34,315.2c-.8.19-1.2.43-1.46.32-8.77-3.58-18.22-5.58-26.1-11.24-.74-.54-1.53-1.12-.84-2.14a1.33,1.33,0,0,1,1.89-.48C89.64,307.9,100.6,307.9,108.34,315.2Z" transform="translate(-57.25 -77.42)"/><path class="cls-10" d="M110.06,349.31a150.27,150.27,0,0,1-7.12,19.84c-.32.78-.83,1.86-1.93,1.51-1.41-.45-1.15-1.72-.68-2.67,3.38-6.8,5.1-14.28,8.66-21C111,347,110.44,348.2,110.06,349.31Z" transform="translate(-57.25 -77.42)"/><path class="cls-11" d="M94.65,335.93c-5.68,3.87-12.08,6.39-18.16,9.52a5.4,5.4,0,0,1-2.08.46c-.7.06-1.47,0-1.73-.86s.27-1.35,1-1.64c1.49-.62,3-1.17,4.49-1.81,5.11-2.23,10.2-4.5,15.29-6.75C94.65,334.3,94.78,335,94.65,335.93Z" transform="translate(-57.25 -77.42)"/><path class="cls-12" d="M116.66,326.53l-1.17-1.37c4.58-7,11.18-11.53,18.46-15.25,0,.4,0,.8.05,1.2.34,1.49-.64,2.35-1.62,3.1a98.89,98.89,0,0,0-13.28,11.5A2.79,2.79,0,0,1,116.66,326.53Z" transform="translate(-57.25 -77.42)"/><path class="cls-13" d="M198.11,423.24c-1.29-1-1-2.42-1-3.76,0-1,.09-2.06-.89-2.77,1.24-5.45,2.46-10.91,3.72-16.36a11,11,0,0,0,.4-4.3,2.22,2.22,0,0,1,2.36,1C203.64,406.24,200.88,414.74,198.11,423.24Z" transform="translate(-57.25 -77.42)"/><path class="cls-14" d="M221.37,172.53c1.28.22,1,1.89,2.11,2.27a4.05,4.05,0,0,1,.92,1.75c.67,1.54,2.47,1.33,3.5,2.29a2.92,2.92,0,0,1,.53,2.1,16.44,16.44,0,0,1-1.06,3.5,11.53,11.53,0,0,1-1.8,2.27l-2.06,0c0-.53.31-1.26.06-1.57C220.52,181.35,220.9,177,221.37,172.53Z" transform="translate(-57.25 -77.42)"/><path class="cls-15" d="M209.19,240.18c2.61-3.29,6.46-1.71,9.71-2.48a3.85,3.85,0,0,1,1.27,1c.66,1.2,2,2.41.64,3.81-1,1.06-2.42.72-3.54.15-2.24-1.15-4.6-.36-6.89-.66C209.57,241.64,209,241.2,209.19,240.18Z" transform="translate(-57.25 -77.42)"/><path class="cls-16" d="M209.19,240.18l1.29,1.16c.12,2.9-2.7,4.09-3.69,6.33a15.22,15.22,0,0,0-1.55,2.25c-.57.66-.92,1.48-1.5,2.13a2.38,2.38,0,0,1-2.12,1.17A21.08,21.08,0,0,1,209.19,240.18Z" transform="translate(-57.25 -77.42)"/><path class="cls-17" d="M219.25,239.44l-.35-1.74a9.71,9.71,0,0,1,4.42-4.13c.91-.95,2.42,0,3.3-1.06h0a13.89,13.89,0,0,0,1.07-1.1h0c1.53-.55,2.25.66,3.17,1.46a2.34,2.34,0,0,1,.5,1.39l-.31.69-.6.44a13.68,13.68,0,0,1-3.58.7C224,236.38,222.23,239.33,219.25,239.44Z" transform="translate(-57.25 -77.42)"/><path class="cls-18" d="M242,226.3c-2.48,1.64-5.17.32-7.76.54-.59-.78-2-.66-2.18-1.89,2.53.53,4.76-1.15,7.24-1a10,10,0,0,0,2,.43,1.55,1.55,0,0,1,1.08.7A1.29,1.29,0,0,1,242,226.3Z" transform="translate(-57.25 -77.42)"/><path class="cls-19" d="M110.06,349.31c-.29-.81-.14-1.81-1.07-2.32.78-1.85,1.57-3.69,2.35-5.54.24-.42.47-.85.7-1.28a.77.77,0,0,1,.38-.84,1,1,0,0,1,1.7,0l-.27,1.15a3.88,3.88,0,0,1-.56,1.18,1,1,0,0,1-.33,1,11.25,11.25,0,0,0-.72,1.32Q111.16,346.63,110.06,349.31Z" transform="translate(-57.25 -77.42)"/><path class="cls-20" d="M101.26,331.75c-1.11,1.56-2.88,2.13-4.46,3-.52-.22-1.15-.3-1.27-1a13.57,13.57,0,0,1,5.74-3,.61.61,0,0,1,.21.66C101.41,331.65,101.33,331.75,101.26,331.75Z" transform="translate(-57.25 -77.42)"/><path class="cls-21" d="M209.06,285.75a3.15,3.15,0,0,1,3.19-1.51V288l-1.85-.88C210.13,286.46,209.83,285.87,209.06,285.75Z" transform="translate(-57.25 -77.42)"/><path class="cls-22" d="M231,233.57c-1.77.29-2.13-1.55-3.29-2.17a3.07,3.07,0,0,1,2.13-2.26l1.36,1.32A5.68,5.68,0,0,1,231,233.57Z" transform="translate(-57.25 -77.42)"/><path class="cls-23" d="M218.77,165l1.42-.06c1.18,1.67,2,3.4.81,5.44l-.86,1C218,169.62,218.59,167.29,218.77,165Z" transform="translate(-57.25 -77.42)"/><path class="cls-24" d="M95.53,333.72l1.27,1-2.15,1.19-1.22-1.08A2.3,2.3,0,0,1,95.53,333.72Z" transform="translate(-57.25 -77.42)"/><path class="cls-22" d="M226.62,232.51c-.8,1.27-2.08,1.07-3.3,1.06C224.18,232.47,225.42,232.56,226.62,232.51Z" transform="translate(-57.25 -77.42)"/><path class="cls-25" d="M114.12,339.32h-1.7C113,338.63,113.55,337.46,114.12,339.32Z" transform="translate(-57.25 -77.42)"/><path class="cls-25" d="M112,340.17l-.7,1.28Z" transform="translate(-57.25 -77.42)"/><path class="cls-25" d="M113.29,341.65c.19-.39.38-.78.56-1.18C113.67,340.87,113.48,341.26,113.29,341.65Z" transform="translate(-57.25 -77.42)"/><path class="cls-25" d="M112.24,343.93l.72-1.32Z" transform="translate(-57.25 -77.42)"/><path class="cls-26" d="M101.26,331.75a5.34,5.34,0,0,0,0-1c.3.07.84.08.87.21C102.29,331.67,101.71,331.67,101.26,331.75Z" transform="translate(-57.25 -77.42)"/><path class="cls-22" d="M227.71,231.4a1.39,1.39,0,0,1-1.07,1.1C227,232.13,227.35,231.76,227.71,231.4Z" transform="translate(-57.25 -77.42)"/><path class="cls-27" d="M319.4,248.84c3.55,8.23,7.53,16.27,10.25,24.87a193.22,193.22,0,0,1,8.28,38.46c.41,4-.24,7.93,0,11.88-1.95,5.68-2.06,11.7-3.26,17.53-2.07,10-8.15,16.91-16.3,22.48-2.92,2-6.62,1.55-9.51,3.54-.88.6-2.95-.05-2.48,1.86.36,1.45,2.12,1.29,3.3,1.08,3.18-.56,6.49-.31,9.59-1.49a16,16,0,0,1,3.2-.54.81.81,0,0,1,1.18.26,25.53,25.53,0,0,1-5.84,10.87c-.88,1-1.62,2.58-3.5,1.53-.8-.44-1.46-.1-1.29.85.3,1.6-.55,2.37-1.84,2.81-6.35,2.19-13.32,3.31-18.91-.3-6.69-4.3-14-5.27-21.25-6.85A80.17,80.17,0,0,1,251.06,371c-7.74-4-10.73-11.37-11.25-19.82-.13-2.08.5-4.33-1.33-6.48-3.09,3.16-2.36,8.15-6,10.77-6.22-5-7.87-12.74-11.27-19.42-4.08-5.94-3.53-13-4.69-19.64a32.4,32.4,0,0,1-.09-5.4c.06-5-.16-10,.12-15,.23-4.23,1.41-8.09,5.63-10.2.42-.68.83-1.37,1.25-2.06,1.15-3.29,4.09-5.11,6.22-7.6,5.66-4.37,11.65-8,19-8.71,2.89,0,5.6-1.23,8.54-1.2,3.12,0,5.2.93,5.53,4.32a.75.75,0,0,1,.26.82c-.1.27-.21.4-.3.4l-3.12-.53c.95,5,3.32,8.45,7.94,10.54a153.06,153.06,0,0,0,18.31,6.7c7.7,2.35,14,6.39,17.77,14,5,10.18,2.44,21.41-6.77,28a21,21,0,0,0-2.25,1.5,1.71,1.71,0,0,0-.29,1.5c.26.82,1.05.89,1.77.62,3.75-1.36,6.2-4.33,8.66-7.22,1.52-1.78,2.7-3.84,4.08-5.73,5.73-7.89,5.37-16.17,1.47-24.58-1.23-2.65-3.11-4.76-6.37-5.42a20.38,20.38,0,0,1-5.41-2.42,30.66,30.66,0,0,0-10.77-3.18c-6.46-.82-12.52-3.43-18.37-6.35-1.56-.78-2.69-1.86-2.37-3.81.36-2.28-.94-4.21-1.28-6.35-.32-2-1.71-3-3.28-4.06-1.19-.8-3.77,0-3.45-2.61.28-2.22-.43-4.88,2.28-6.27a9.8,9.8,0,0,0,1.29-1c1-.62,1.11-2.05,2.26-2.54A9.94,9.94,0,0,1,266,252a23.82,23.82,0,0,0,4.86-2.83c1.2-.83,2.43-1.6,3.61-2.45,4.29-2.57,8.84-4.71,13.05-7.42,5.54-2,9.87-6.43,15.74-7.71l5.81-3.19C312.66,235.13,315.4,242.3,319.4,248.84Z" transform="translate(-57.25 -77.42)"/><path class="cls-27" d="M213.67,309.06c1-1.4.63-3.1,1.13-4.61l.9-.2.62.67c.86,2.35.33,4.79.49,7.19.21,2.94-.52,5.95.62,8.82.69,5.88,2,11.67,2.52,17.57a56.88,56.88,0,0,0,5.24,12.44A25.58,25.58,0,0,0,237,361.78c1.46.72,3,1.18,3.84,2.79,3.92,7.61,11.26,10.11,18.65,12.85,7,2.59,14.42,3.19,21.52,5.3a43.34,43.34,0,0,1,9.43,3.75c6.59,3.75,13.55,3.08,20.53,1.19.86-.23,1.72-.49,2.59-.71a5.46,5.46,0,0,1,1.06.12c1.24,4.84,2,9.85-1.5,14.2-3.86,4.76-9.39,6.35-15.18,5.21a201.39,201.39,0,0,0-21.29-3.08,18.68,18.68,0,0,1-4.26-.83c-11.7-3.95-23.62-2.25-35.51-1.44-4.53.31-9.05.37-13.59.42s-8.31-2.35-12.35-3.75c-4.58-1.59-8.9-4-13.27-6.12-4-2-5.12-4.16-3.29-8.27,3.25-7.32,4.83-15.15,7.55-22.61,3.5-9.57,5.31-19.52,7.28-29.45,1.09-5.5,2.35-11,3.68-16.42A20.58,20.58,0,0,0,213.67,309.06Z" transform="translate(-57.25 -77.42)"/><path class="cls-28" d="M231.9,597.6c2.11-4.7,6.5-6.61,10.72-8.7a143.77,143.77,0,0,0,21.55-12.6,22.19,22.19,0,0,0,6-6.25c2.09-3.41,5.23-4.21,8.55-2.21,2.42,1.45,4.23,3.38,4.45,6.45.09,1.2-.16,2.54.69,3.6,7.64-1.9,11.29-6.6,12.73-16.64,3.36.37,5.49,2.39,7,5.09,2.57,4.7,3.46,9.89,4,15.15a4.53,4.53,0,0,1-2.24,4.64c-15.71,9-29.41,21.24-46.09,28.72-4,1.82-8.28,2.53-12.55,3.2-1.85.3-3.56-.53-5.17-1.37a25.69,25.69,0,0,1-7.08-5C228.94,607.81,232.13,602.41,231.9,597.6Z" transform="translate(-57.25 -77.42)"/><path class="cls-28" d="M205.06,550.17c9.22-8.22,17.91-15.58,30.23-17a111.12,111.12,0,0,1,13.51-1.07c2,0,4.08.2,4.92,2.52s0,4.17-2.31,5.33c-.38.2-.5.88-.76,1.37,2,.34,11.9-1.89,14.7-3.29,2.46,3.91,1.38,8,.42,12-.6,2.51-2.92,3.1-4.9,3.84-7.55,2.8-15.43,3.64-23.44,3.8A66.42,66.42,0,0,1,205.06,550.17Z" transform="translate(-57.25 -77.42)"/><path class="cls-28" d="M198.11,423.24c-.08-1.59-.53-3.17-.05-4.79,2.08-7,3.07-14.24,4.6-21.37,6.46,2.59,12.49,6.38,19.59,7.15,2.32.26,4.67.27,7,.32,1.33,0,2,.54,1.91,1.91-.75,8-.68,16.38-8.9,21.29-2.37.59-4.65.91-6.28-1.57-2.21-3.36-.82-6.2,1.15-8.92l.24-.2c-.06-.44-.12-.45-.22,0-4.41,4.35-1.51,8.53.2,12.72a2.24,2.24,0,0,1-.38,1.44c0,3.58,2.67,5.37,5,7.32a27.18,27.18,0,0,0,3.21,2c2.19,1.35,1.73,3.41,1.31,5.35s-1.83,2.57-3.62,2.71c-4.9.37-8.22-2.38-11.11-5.78A118.84,118.84,0,0,1,198.11,423.24Z" transform="translate(-57.25 -77.42)"/><path class="cls-29" d="M249.46,561.32c-13.83,4.64-27.53,5.33-41.07-1.08-3.91-1.85-4.3-2.4-3.94-7.64,11.77,6.11,24.2,8.33,37.15,7.82C244.26,560.36,247.11,558.61,249.46,561.32Z" transform="translate(-57.25 -77.42)"/><path class="cls-30" d="M267.9,491.94c0,11.15,3.41,21.79,5.08,32.69.41,2.68.79,5.37,1.17,7.94-1,1-2.13.85-3.19.87-4.17.09-4.18.08-4.32-4-.4-12.14-1.23-24.27-.62-36.43C266.48,492.34,266.75,491.34,267.9,491.94Z" transform="translate(-57.25 -77.42)"/><path class="cls-31" d="M233.24,613.76c7.75,8,14.08,8.29,24.09,4.62,5.06-1.85,9.84-4.48,14.74-6.76,1.29-.38,1.76.15,1.55,1.42-5.89,5.78-12.64,9.92-20.88,11.5A21.43,21.43,0,0,1,231,615.05a1.46,1.46,0,0,1,.49-2.46C232.4,612.46,232.65,613.37,233.24,613.76Z" transform="translate(-57.25 -77.42)"/><path class="cls-32" d="M217,431.21c-.05-.47-.11-.94-.17-1.4a.67.67,0,0,1,1.14-.13c2.1.79,4.19.05,6.28,0,1.32-.67,1.77.6,2.55,1.14,1.43.5,3.62-1.29,4.27.67s-1.24,3.07-2.94,3.92c-3.59,1.79-4.68,1.53-7.64-2.24C219.55,432,219.29,429.77,217,431.21Z" transform="translate(-57.25 -77.42)"/><path class="cls-33" d="M215.9,312.07V304.4c3.29,1.44.27,4.64,1.83,6.56.28,8.48,1.85,16.78,3.44,25.08-1,.53-.95,1.57-1.21,2.46-2.49-5.42-3.13-11.2-3.29-17.07C215.74,318.36,216.86,315.13,215.9,312.07Z" transform="translate(-57.25 -77.42)"/><path class="cls-34" d="M226.77,430.78l-2.55-1.14c3.42-2.58,6.46-5.47,7.93-9.94,1.25,2.64.92,5.5,2.22,7.87-.33.6,0,2.11-1.48,1.13a5.28,5.28,0,0,0-5.56-.16C226.18,429.09,226.56,429.94,226.77,430.78Z" transform="translate(-57.25 -77.42)"/><path class="cls-35" d="M217.94,429.68l-1.14.13c-4.8-6.11-4.58-9.68.87-14.34,1.27-.57,1.41.14,1.31,1.15a14.12,14.12,0,0,0-1.68,2c-3,5.21-1.14,8.68,5,9.09C221.27,429.41,218.93,428,217.94,429.68Z" transform="translate(-57.25 -77.42)"/><path class="cls-36" d="M233.24,613.76l-1.2-.88a4.29,4.29,0,0,1-2.13-3.09c-.25-1.5-1.07-3-.08-4.51,1.27-.82,1-2.1,1-3.31,0-1.53-.38-3.19,1.08-4.37a25.32,25.32,0,0,0,2.45,14.12C233.43,612.1,233.36,613,233.24,613.76Z" transform="translate(-57.25 -77.42)"/><path class="cls-37" d="M267.9,491.94,266,493c-.07-2.68-.37-5.42,1.75-8.29C268.55,487.54,268.12,489.74,267.9,491.94Z" transform="translate(-57.25 -77.42)"/><path class="cls-38" d="M249.46,561.32c-2.48-1.48-5.31,0-7.86-.9,3.23-1.13,6.62-.73,9.93-1.14,1.08-.47,1.31.05,1.15,1Z" transform="translate(-57.25 -77.42)"/><path class="cls-39" d="M273.62,613l-1.55-1.42c1.15-1.61,3-2.25,4.59-3.2,1.19-.51,1.37.11,1.21,1.1C276.45,610.69,275.35,612.25,273.62,613Z" transform="translate(-57.25 -77.42)"/><path class="cls-40" d="M229.83,605.28a12.51,12.51,0,0,0,.94,4.47c-.6.63.06,1.87-1.08,2.25C228.66,609.73,227.72,607.47,229.83,605.28Z" transform="translate(-57.25 -77.42)"/><path class="cls-41" d="M277.87,609.52l-1.21-1.1a11,11,0,0,1,4.53-3,.72.72,0,0,1,.25.74c-.08.25-.16.37-.24.37A6.52,6.52,0,0,1,277.87,609.52Z" transform="translate(-57.25 -77.42)"/><path class="cls-42" d="M229.69,612c.28-.79.09-1.8,1.08-2.25.43,1,.85,2.09,1.27,3.13-1,.42-.82,1.39-1.06,2.17A3.64,3.64,0,0,1,229.69,612Z" transform="translate(-57.25 -77.42)"/><path class="cls-43" d="M252.68,560.29l-1.15-1a4.91,4.91,0,0,1,4.54-.85l-.07-.09C255.49,560,253.83,559.71,252.68,560.29Z" transform="translate(-57.25 -77.42)"/><path class="cls-44" d="M283.32,604c.29-1.17,1.26-1.49,2.25-1.79a.67.67,0,0,1,.19.67c-.08.21-.15.32-.23.32a2.77,2.77,0,0,1-2.25,2,.72.72,0,0,1-.24-.79C283.13,604.11,283.23,604,283.32,604Z" transform="translate(-57.25 -77.42)"/><path class="cls-45" d="M256.07,558.43a1,1,0,0,1,1.4-.88c.12,0,.31.34.28.37a1.67,1.67,0,0,1-1.75.42Z" transform="translate(-57.25 -77.42)"/><path class="cls-46" d="M323.61,368.77l-1.18-.26c.33-.91,1-1.07,1.65-.49C324.36,368.27,324.06,368.68,323.61,368.77Z" transform="translate(-57.25 -77.42)"/><path class="cls-47" d="M285.53,603.18a4.11,4.11,0,0,0,0-1c.26.06.71.07.74.18C286.43,602.94,285.94,603,285.53,603.18Z" transform="translate(-57.25 -77.42)"/><path class="cls-48" d="M283.32,604c0,.4,0,.79,0,1.18l-1.07.05.05,0C282.05,604.38,282.68,604.18,283.32,604Z" transform="translate(-57.25 -77.42)"/><path class="cls-49" d="M281.2,606.53v-1.11l1.07-.16-.05,0C282.45,606.1,281.84,606.32,281.2,606.53Z" transform="translate(-57.25 -77.42)"/><path class="cls-28" d="M262.63,254c-.78.08-2.26.9-2.17-.28.46-6.61,1.21-13.19,2-19.78.07-.57.89-1.06,1.35-1.59l.34-.53c.75-.74,1.6-1.35,2.35-2.09a11.13,11.13,0,0,1,1-.85,7.81,7.81,0,0,1,1.1-.69c1.15-.57,2.32-1.11,3.45-1.72a17.38,17.38,0,0,0,2.21-1.28c.51-.41,1-.79,1.59-1.15.95-.6,1.86-1.25,2.77-1.91a10.92,10.92,0,0,1,1.16-.75c1.39-.84,2.74-1.74,4.08-2.65.76-.55,1.53-1.06,2.32-1.56l4-2.63c.73-.51,1.48-1,2.24-1.41a25,25,0,0,0,2.61-1.84,12.32,12.32,0,0,1,1.08-.69c.93-.56,1.77-1.25,2.69-1.82,1.16-.64,2.37-1.2,3.53-1.83a10.52,10.52,0,0,1,1.17-.57c.78-.34,1.57-.65,2.37-.94a6.46,6.46,0,0,0,2.12-1.34,19.31,19.31,0,0,1,2.08-1.65,9.89,9.89,0,0,1,2.84-1.49l1.13-.43c.35-.17.71-.34,1.05-.52a6.9,6.9,0,0,0,1.32-1.15,7.69,7.69,0,0,1,1.74-1.77,6,6,0,0,1,1.21-.48c.43-.13.85-.24,1.28-.35a4.29,4.29,0,0,0,2.09-1.54,10.88,10.88,0,0,1,1.86-2.09,12.22,12.22,0,0,1,1.17-.87,40.17,40.17,0,0,1,7.48-4.73,40.41,40.41,0,0,0,6-4,21.85,21.85,0,0,1,2.31-1.63q2.33-1.49,4.6-3.05a22.11,22.11,0,0,1,2.39-1.54,62.16,62.16,0,0,0,6.2-3.91,37.67,37.67,0,0,1,4.4-2.53,36.08,36.08,0,0,0,6.61-4.17c1.39-1,2.61-2.41,4.6-1.51,1.22,1.32,2.35,1.7,2.88-.51.28-1.16-.08-2.49,1-3.4,6.56-3,13.19-5.85,20.65-5.49,5.05,1.09,6.09,2.37,5,6.69a14.68,14.68,0,0,1-6.13,9c-20.58,14.42-42.32,27-63.49,40.47-9.59,6.1-18.93,12.6-28.38,18.92-3.87,4.76-9.85,6.16-14.73,9.31-4.18,2.67-8.58,5-12.86,7.47-1.29.68-2.41,1.63-3.64,2.4-1.51.75-2.84,1.79-4.27,2.67a4.51,4.51,0,0,1-1.35.42C264.18,253,263.61,253.89,262.63,254Z" transform="translate(-57.25 -77.42)"/><path class="cls-28" d="M226.62,184.54c.21-1-.32-2.27.95-2.93,2.07-1,3.8.73,5.75.72,2.88-.77,5.79-3.7,8.59.14a7.79,7.79,0,0,1,1.23,1.49,1.74,1.74,0,0,1,.34.74c.25-.18.22-.39-.11-.65a10.17,10.17,0,0,0-1.54-1.79c-1.26-1.27-2.59-2.44-3.83-3.84-1.49,1.74-2.37,4.51-5.54,3.49a4,4,0,0,1-1.48-1.46,8,8,0,0,0-4.42-1.92c-1.26-.43-3.68,1.13-3.37-2,.09-.59.19-1.17.29-1.76a10.23,10.23,0,0,1,5.21-1.2c2.3.19,2.68-.56,1.09-2.32-.9-1,.59-1.95.26-3l-.06.07c1.36-.18,1.28-1.7,2.15-2.33a1.58,1.58,0,0,1,1.24-.55c2.08.53,2.42,2.68,3.71,4a8.56,8.56,0,0,0,2.26,1.5c4.28,2.14,6.09-1.26,8.33-3.69.53-.49,1.29-.68,1.73-1.31l.06-.07a4.26,4.26,0,0,1,1.93-.4c1-.2,1.45-.73,1-1.76a1.16,1.16,0,0,1,.28-1.15c.08-.61-.33-.86-.78-1.09s-.56-.36-.46-.58.22-.36.35-.36c7.21,1.77,14,4.84,21.1,7,1.83.55,2.35,1.78,2.58,3.61.69,5.3-.35,10.29-2.17,15.22a2.3,2.3,0,0,1-1.33,1.54c-3.86,1.52-5.11,5.27-7.07,8.38s-1.88,3.27-5.53,1.66c-1.58-.7-2.55.41-3.39,1-1.25.86-1.44,1.35-3.46.55-2.33-.92-3.09-1.81-3.57-3.85-.38-1.6-.93-3.26-2.79-3.71-4.44-1.08-8.35-3.35-12.46-5.2a8.67,8.67,0,0,0-5.81-.94C226.69,186.11,226.32,185.67,226.62,184.54Z" transform="translate(-57.25 -77.42)"/><path class="cls-50" d="M263.78,232.39c-1.56.8-2.44-.17-2.93-1.38-1-2.43-3-4-4.64-5.84a13.61,13.61,0,0,1,10-5.58c11.4-6.28,22.82-12.5,33.82-19.48,21.09-13.39,42.27-26.67,63.35-40.08,5.18-3.29,10.2-6.83,15.18-10.41,2.72-2,5.81-3.25,8.64-5,3.18-2,8.55.31,10.92,3.87a30.43,30.43,0,0,1,2,4.4c.26,1.1-.24,1.45-1.27,1.28-2.17-1.89-4.31-.33-6.46.07-4.09,1.94-8.46,3.09-12.75,4.46a23.63,23.63,0,0,0-9,4.77c-2,.5-3.46,2-5.1,3.12a33.57,33.57,0,0,1-6.71,4.2,20.86,20.86,0,0,0-4.22,2.5,50,50,0,0,1-6.53,4c-.8.5-1.54,1.08-2.36,1.57-1.49.76-2.62,2.07-4.16,2.77-.8.51-1.56,1.08-2.33,1.62a50.54,50.54,0,0,1-6.5,4.27c-3,1.07-4.95,3.69-7.74,5-1.73,1.25-2.81,3.3-4.95,4a6.65,6.65,0,0,1-1.32.46c-1.26.26-1.78,1.4-2.59,2.2a5,5,0,0,1-1.24.68c-1.57,1.16-3.48,1.69-5.05,2.85a29.74,29.74,0,0,1-6.17,3.71,7,7,0,0,0-1.66,1.18c-1,.38-2,1-3,1.34s-1.6,1.31-2.44,1.91a3.66,3.66,0,0,1-1.2.38c-1,.49-1.5,1.53-2.47,2-1.39.29-2.21,1.45-3.3,2.19-1.38.38-2.35,1.48-3.63,2-.8.5-1.53,1.1-2.35,1.58a15.65,15.65,0,0,0-3.33,2.62,3.89,3.89,0,0,1-1.31.47,19,19,0,0,1-4,2.69c-.5.47-1,.94-1.52,1.37a5.78,5.78,0,0,0-2.44,1.24,10.19,10.19,0,0,0-3.09,1.76l.11-.1a4,4,0,0,1-1.21.7,28.75,28.75,0,0,1-3.26,2.67Z" transform="translate(-57.25 -77.42)"/><path class="cls-51" d="M236.4,158.21c-3,.91-4.53-2.73-7.44-2.24-.75.13-.93-1-.92-1.7.15-14.23,13-28,27.57-23.29a22.76,22.76,0,0,1,3.52,1.38c6.59,3.43,7.6,5.73,5.86,13a7.34,7.34,0,0,1-.31,1.59c-1.2,2.37-2.08,5.08-.23,7.12s4.18,4.15,6.77,4.08c3.42-.09,4,1.38,4,4v1.94c-1.21,1.27-2.14.34-3.1,0-5.13-1.75-10.3-3.4-15.37-5.31-2.18-.83-5.66-.25-5.58-4.19-2.9,0-4.44-2.69-6.94-3.39s-4.65.51-6.93.91c-1.81.31-2.38,2-1.71,3.88C235.87,156.79,237,157.18,236.4,158.21Z" transform="translate(-57.25 -77.42)"/><path class="cls-52" d="M256,223.34c-3.15,1.19-6.42.36-9.64.53a2.67,2.67,0,0,1-1.22.56l-1,.49a.77.77,0,0,1-1.16,0c-.46-1.21.36-1.62,1.26-2,7.34-1.22,13.46-5.17,18.95-9.69,5.81-4.8,11.36-10.16,13.94-17.67,2.35.64,1.05,2.24.93,3.53-.28,2.88-.9,5.77-.76,8.63s-1.22,4-3.26,5a67.5,67.5,0,0,0-9.18,5.74C262.24,220.74,259.73,223.16,256,223.34Z" transform="translate(-57.25 -77.42)"/><path class="cls-52" d="M237.55,194.49a6.41,6.41,0,0,1,2.13-.06c2.22.67,5.26.86,6.1,3,1.25,3.14.88,6.78.15,10.14-.37,1.72-2.25,2.61-3.67,2.85-2.32.39-4.76,0-6.74,1.74-1.1,1-1.07-.21-1.26-.75-.52-1.49-1.95-1.42-3.08-1.86a.64.64,0,0,1-.55-.89,2.59,2.59,0,0,1,.93-.84,4.07,4.07,0,0,0,1.9-1.25,7.27,7.27,0,0,0,.28-1.75,2.74,2.74,0,0,1,.58-1.2c1.12-1,2-2.14,3.09-3.09,0-.38,1.93,0,.39-1a6,6,0,0,1-2.79-2.95C234.91,194.71,236.68,195.15,237.55,194.49Z" transform="translate(-57.25 -77.42)"/><path class="cls-53" d="M279.06,186.92c.11-2.63-.88-5.36.78-7.84.9.16.93-.69,1.32-1.13l-.07.12a17.34,17.34,0,0,1,5.44-6.54c4.43-3.31,10.41-3.71,12,3.64a5.68,5.68,0,0,1,.42,1.46,4.49,4.49,0,0,1-1.49,2.53l.11-.11a2.17,2.17,0,0,1-1.19.72c-.95.09-1.89-.17-2.84-.15-2.84.45-5.6.78-6.77,4.18-1,2.92-4.24,2-6.36,3.11A1.46,1.46,0,0,1,279.06,186.92Z" transform="translate(-57.25 -77.42)"/><path class="cls-54" d="M238.86,160.68c-.49,2.36,1.73,2.36,2.87,3.3,1.05-.09.1,1.73,1.39,1.42a3.11,3.11,0,0,1,1-.39c1-.08,2-.64,2.94.23a1.81,1.81,0,0,0,.34.73,1.19,1.19,0,0,1,.33.88c0,.33-.07.49-.14.49a8.73,8.73,0,0,1-1.06,2c-2.29,2.8-4.85,4.12-8.12,1.44a6.43,6.43,0,0,1-1.86-1.63c-1.34-2.72-4-5.27-1.17-8.56l1.1-1a.88.88,0,0,1,1.08-.51A2.2,2.2,0,0,1,238.86,160.68Z" transform="translate(-57.25 -77.42)"/><path class="cls-55" d="M298.56,177c-.28-1.21-1.64-1.5-2.05-2.89-1.24-4.11-3.3-4.7-7.28-3-3.44,1.52-5.29,4.78-8.14,6.91.8-5.24,6.11-10.34,11.08-10.62,4.67-.26,7.34,3,7.31,9C299.54,177.25,299.24,177.44,298.56,177Z" transform="translate(-57.25 -77.42)"/><path class="cls-56" d="M369.49,162.83c6.78-5.17,14.77-7.1,22.93-8.59.63.81,1.63.76,2.48,1-7.09,1.74-14,4.19-20.89,6.46-.53.4-.62,1.08-1,1.57a4.63,4.63,0,0,1-1,.85l-.6.26a3,3,0,0,1-1.3-.11C369.48,164,369.06,163.61,369.49,162.83Z" transform="translate(-57.25 -77.42)"/><path class="cls-57" d="M279.06,186.92a4.89,4.89,0,0,0,.91-.39,6.1,6.1,0,0,1,1.38.48c2.11.91,4.46.24,6.6,1a2.76,2.76,0,0,1,1.17,1c-1.91,3-3.83,5.72-8.14,3.59-1.43-.71-2.4.38-2.19,2s.59,3.21-.78,4.54c-.26-1.19.13-2.55-.93-3.53Z" transform="translate(-57.25 -77.42)"/><path class="cls-58" d="M286.61,239.1l15.28-8.7,1.36,1.18c-4.53,3.93-9.95,6.28-15.37,8.65C286.63,240.78,286.47,240.1,286.61,239.1Z" transform="translate(-57.25 -77.42)"/><path class="cls-59" d="M237.55,194.49l-2.18,1.75c-1.66,2.65-6.61,1-7,5.38a6.93,6.93,0,0,1-.19,1.44c-.51,1.09-.87,2.36-2.49,2.18.21-2.5-.13-5-.12-7.5,0-2.76,1.35-3.93,3.43-3.35C232,195.2,234.73,194.22,237.55,194.49Z" transform="translate(-57.25 -77.42)"/><path class="cls-60" d="M221,170.42a13,13,0,0,1-.81-5.44c2.75-1,4.05,1.62,6,2.55,1.4.68.71,3.05-.86,3.76A3.38,3.38,0,0,1,221,170.42Z" transform="translate(-57.25 -77.42)"/><path class="cls-61" d="M238.86,160.68l-1.36-1.26c-.63-1.68.94-1.88,1.74-2.6a4.12,4.12,0,0,1,2-.52l.7,0a13.65,13.65,0,0,0,1.58-.13c1.93-.38,3.75-.34,3.69,2.24s-2.1.94-3.21,1.24C242.34,160.13,240.59,160.36,238.86,160.68Z" transform="translate(-57.25 -77.42)"/><path class="cls-62" d="M225.74,205.24c.63-.71,1.26-1.43,1.9-2.14,1.3-.93,2.27-.09,3.28.6.71.85.48,1.8.32,2.75a6.19,6.19,0,0,1-.44,1.34c-.37.56-.33,1.37-1.05,1.72C227,209.42,225.72,207.93,225.74,205.24Z" transform="translate(-57.25 -77.42)"/><path class="cls-63" d="M256,223.34c2.84-1.83,5.43-4.09,8.83-4.9l1.38,1.15a75.51,75.51,0,0,1-10,5.58C256.14,224.56,256.06,224,256,223.34Z" transform="translate(-57.25 -77.42)"/><path class="cls-64" d="M238.59,170.49c3.49,2.07,5.95.6,8-2.33a4.63,4.63,0,0,1,.74-1.12l.13-1.07h1a1.13,1.13,0,0,1,.17,1.49c-3.14,5.94-5.13,6.82-10.08,4.46C238,171.41,238,170.94,238.59,170.49Z" transform="translate(-57.25 -77.42)"/><path class="cls-65" d="M235.43,160.62c-.71,3.25.48,6.06,2.08,8.77l-.15.45-.33.35-.45.17c-2-.82-2.11-3-3.33-4.38-.87-.65-.52-1.61-.61-2.45q0-.66,0-1.32A2.32,2.32,0,0,1,234,160.8Z" transform="translate(-57.25 -77.42)"/><path class="cls-66" d="M247.11,165.24a4.72,4.72,0,0,1-3.13.66c-.83-.74-.67.31-1,.53-.37.86-1.22,1.79-1.88,1.49-1.29-.6-.25-1.4.32-2s.43-1.27.28-2c1.58-.11,3.18-.19,4.5-1.25a1.39,1.39,0,0,1,1.1,1.09C247.26,164.29,247.18,164.76,247.11,165.24Z" transform="translate(-57.25 -77.42)"/><path class="cls-67" d="M222.07,161.11c1.88-.87,3.06-3,4.39-.5.45.83,1.57,2.11.36,2.78C224.71,164.57,224,162.09,222.07,161.11Z" transform="translate(-57.25 -77.42)"/><path class="cls-68" d="M239.73,157.33c-.23,1.24-2,.89-2.23,2.09a4.1,4.1,0,0,1-1,.21c0-.48-.09-.95-.13-1.42l-.79-2.13,4.21-.82a1.77,1.77,0,0,1,.53,1.06A1.63,1.63,0,0,1,239.73,157.33Z" transform="translate(-57.25 -77.42)"/><path class="cls-69" d="M295.2,183.42c-.55,2.44-2.2,2.69-4.26,2.12l-.21-.71a3.65,3.65,0,0,1,2.27-2.72,2.26,2.26,0,0,1,1.43.07A7.81,7.81,0,0,1,295.2,183.42Z" transform="translate(-57.25 -77.42)"/><path class="cls-70" d="M252.81,163.74c.47.25.95.47,1.4.74s.92.59.75,1.22c-.27,1-1,.75-1.68.59-.52-.12-1-.26-1.54-.39s-.54-.41-.42-.63.25-.34.39-.34a5.14,5.14,0,0,1-.05-.88C251.89,163.38,252.27,163.27,252.81,163.74Z" transform="translate(-57.25 -77.42)"/><path class="cls-53" d="M298.56,177l.92-.54.51.87c.38.62,1.79.87.88,1.94-.72.85-1.53,0-2.29-.18a1.54,1.54,0,0,1,.06-2.23Z" transform="translate(-57.25 -77.42)"/><path class="cls-71" d="M297.31,180.14a2.94,2.94,0,0,1-1.45,2.25,2.45,2.45,0,0,1-1.4.32l-.27-.42c-.44-1.58.48-2.22,1.8-2.58A1.64,1.64,0,0,1,297.31,180.14Z" transform="translate(-57.25 -77.42)"/><path class="cls-72" d="M398.88,154.17c.75-.11,1-.67,1.27-1.28.83.72,1.46,1.72.46,2.47C400,155.85,399.12,155.09,398.88,154.17Z" transform="translate(-57.25 -77.42)"/><path class="cls-73" d="M230,168.29a6.83,6.83,0,0,1-1.58-.19.89.89,0,0,1-.52-1.28c.48-.86,1.21-.62,1.66,0a4.3,4.3,0,0,1,.38,1.53Z" transform="translate(-57.25 -77.42)"/><path class="cls-74" d="M244.19,222.89l-1,1.79c0,.18-.11.37-.15.56a2,2,0,0,0-1,.59,1.12,1.12,0,0,1-.12-.91c-.39-.24-.53-.48-.42-.74s.24-.4.36-.4A2,2,0,0,1,244.19,222.89Z" transform="translate(-57.25 -77.42)"/><path class="cls-75" d="M251.75,160.53a.71.71,0,0,1,.11.94,2.12,2.12,0,0,1-1.92-1.32c-.05-.12.29-.57.49-.6C251.16,159.42,251.7,159.67,251.75,160.53Z" transform="translate(-57.25 -77.42)"/><path class="cls-76" d="M247.33,163.82a1.24,1.24,0,0,1-1.1-1.09c.34-.42.73-.8,1.24-.26A.86.86,0,0,1,247.33,163.82Z" transform="translate(-57.25 -77.42)"/><path class="cls-77" d="M252.81,163.74l-1.15.31c-.58-.27-1.85-.24-1.64-.77.4-1,1.72-.46,2.62-.72C252.7,163,252.75,163.35,252.81,163.74Z" transform="translate(-57.25 -77.42)"/><path class="cls-54" d="M232.81,162.74c.14,1.08.29,2.16.44,3.24l-1.12.05.19-3.28Z" transform="translate(-57.25 -77.42)"/><path class="cls-78" d="M226.62,184.54l1.23,1.2a2.45,2.45,0,0,1-2.28,1A2.23,2.23,0,0,1,226.62,184.54Z" transform="translate(-57.25 -77.42)"/><path class="cls-79" d="M289.12,189l-1.65-.2c0-1.67.8-2.44,2.49-2.25A1.23,1.23,0,0,1,290,188C289.91,188.47,289.78,189,289.12,189Z" transform="translate(-57.25 -77.42)"/><path class="cls-80" d="M229.75,209.51c.12-.69.24-1.38.37-2.08.84,0,1.37.26.92,1.24a1.48,1.48,0,0,1,.14.85Z" transform="translate(-57.25 -77.42)"/><path class="cls-81" d="M298.64,176.86l-.06,2.23-1.12.07A2.25,2.25,0,0,1,298.64,176.86Z" transform="translate(-57.25 -77.42)"/><path class="cls-82" d="M281.16,178a1.56,1.56,0,0,1-.33,1.73c-.37.28-.79-.16-1-.6C280.13,178.53,280.33,177.88,281.16,178Z" transform="translate(-57.25 -77.42)"/><path class="cls-83" d="M290,188l-.15-1.13c-.34-1.1.11-1.45,1.16-1.24l-.09-.06A1.9,1.9,0,0,1,290,188Z" transform="translate(-57.25 -77.42)"/><path class="cls-3" d="M241.86,223.78l.06,1.14c-1.25.65-2,.15-2.63-1Z" transform="translate(-57.25 -77.42)"/><path class="cls-84" d="M239.71,156.21c0-.32.09-.63.11-1a2,2,0,0,1,2.15,1.07l0-.12A1.64,1.64,0,0,1,239.71,156.21Z" transform="translate(-57.25 -77.42)"/><path class="cls-85" d="M251.71,164.93a5.25,5.25,0,0,0,0,1l-2.28,0C249.77,164.51,250.84,165,251.71,164.93Z" transform="translate(-57.25 -77.42)"/><path class="cls-54" d="M234,160.8c-.5.39-.89,1-1.65.85h.15C232.63,160.81,233.37,160.94,234,160.8Z" transform="translate(-57.25 -77.42)"/><path class="cls-86" d="M232.45,161.65h-.15a.72.72,0,0,1,.51,1.09h-.49a4.41,4.41,0,0,1-.21-.77C232.11,161.88,232.33,161.76,232.45,161.65Z" transform="translate(-57.25 -77.42)"/><path class="cls-87" d="M294.46,182.71l1.4-.32-.66,1A1.12,1.12,0,0,1,294.46,182.71Z" transform="translate(-57.25 -77.42)"/><path class="cls-88" d="M297.31,180.14l-.44,0-.44.07c-.32-.25-.43-.49-.31-.72s.23-.35.34-.35l1.11-.07Z" transform="translate(-57.25 -77.42)"/><path class="cls-85" d="M248.59,167.46c-.06-.49-.11-1-.17-1.49a1.81,1.81,0,0,1,1,0A1.65,1.65,0,0,1,248.59,167.46Z" transform="translate(-57.25 -77.42)"/><path class="cls-28" d="M231,233.57c-1.51-1.13-.58-2.12.2-3.11,4.15-1.67,8.24-2.15,12.53.79,0-2.7,1.17-4.18,3.81-4.07,3.33.14,6.25,1.58,9,3.22a4.16,4.16,0,0,1,1.57,4.39c-2,9.57-1.48,19.35-2.26,29-3.38.75-6.64,1.06-9.55,2.61-5.32,3.8-11.76,5.73-16.76,10.06-2.47,2-4.11,5-7.33,6.1-5.11-6.42-9.49-13.08-7.59-21.94.22-1.05.2-2.16.32-3.23.78-6.76-.58-8.25-7.59-8.31-1.32.35-1.77-.21-1.52-1.48.73-2.71,3.15-4.16,4.67-6.28,1.87-.43,3.58-1.75,5.68-.9,1.52.61,2.59,2.62,4.7,1.72,0-1.35-.94-2-1.61-2.72,2.12-1.85,4.06-4,7-4.6,1.62.42,3.24.8,4.83-.08h0a.78.78,0,0,0,.22-.8c-.1-.25-.19-.38-.28-.38Z" transform="translate(-57.25 -77.42)"/><path class="cls-89" d="M228.79,276.08a43.12,43.12,0,0,1,17.49-9.66c.54.86,1.49.81,2.31,1.05-6.46,2.72-12.82,5.63-18.51,9.81C228.93,277.65,228.62,277.13,228.79,276.08Z" transform="translate(-57.25 -77.42)"/><path class="cls-90" d="M262.63,254c.24-1.22,1.28-1.42,2.23-1.74a.79.79,0,0,1,.32.86c-.1.29-.21.43-.31.43a2.82,2.82,0,0,1-2.41,1.56Z" transform="translate(-57.25 -77.42)"/><path class="cls-91" d="M262.62,271.81c0-.4,0-.81,0-1.22.75.25,1.19.83.83,1.52S262.76,272.39,262.62,271.81Z" transform="translate(-57.25 -77.42)"/><path class="cls-74" d="M243.16,224.68a1.9,1.9,0,0,1,.93.24,1.13,1.13,0,0,1-1.15.86c0-.25-.07-.49-.11-.73Z" transform="translate(-57.25 -77.42)"/><path class="cls-74" d="M245.12,224.43c.17-.7.6-.84,1.22-.56Z" transform="translate(-57.25 -77.42)"/><path class="cls-92" d="M242.83,225.05a2.27,2.27,0,0,0,.11.73l-.95.52,0-.48Z" transform="translate(-57.25 -77.42)"/><path class="cls-28" d="M148.14,318.54c-.22-2.19-1.26-4.39.08-6.56,0-.24.08-.47.11-.7a5.32,5.32,0,0,1,.72-1.19A23.73,23.73,0,0,1,153.6,306a13.7,13.7,0,0,0,2.6-1.93l1.38-1.38c.45-.5.92-1,1.39-1.46,1.13-1.15,2.21-2.34,3.43-3.4l.55-.43a11.52,11.52,0,0,1,1.15-.77,23.13,23.13,0,0,0,3.65-3.06,9.7,9.7,0,0,1,1.09-.82q1.46-.87,2.82-1.86c.36-.27.75-.51,1.13-.74a31.81,31.81,0,0,0,3.2-2.48,12.49,12.49,0,0,1,1.13-.77c1.37-.82,2.7-1.7,4-2.62.91-.68,1.74-1.45,2.65-2.14a10.75,10.75,0,0,1,1.14-.76c1.37-.84,2.7-1.72,4-2.62.75-.54,1.52-1.05,2.3-1.55a40.5,40.5,0,0,0,3.24-2.6c.37-.29.75-.55,1.14-.8,1.6-.91,2.78-2.35,4.23-3.45.74-.51,1.53-.93,2.25-1.47.5-.45,1-.92,1.49-1.39,2-1.46,3.26-4.35,6.51-3.08a29.52,29.52,0,0,0,3.4,12.8c-.78,2.73-2.63,4.4-5.05,5.86-18.68,11.27-37.28,22.68-55.93,34C151.21,317.84,150,319.3,148.14,318.54Z" transform="translate(-57.25 -77.42)"/><path class="cls-93" d="M148.22,312c-.91-.51-2,1.45-2.73,0-1.17-2.28-5.16-1.85-5-5.32,9.3-6,17.8-13.08,26.62-19.72,12.89-9.71,25.66-19.59,38.5-29.36,1.1-.83,2-2.06,4-2.16l.45,5.19c-.84,3.37-4.13,4.48-6.18,6.72l-.81,1.14c-.48.48-1,1-1.51,1.4-.43.15-.86.29-1.3.42-1.38,1.2-2.54,2.63-3.94,3.8a3.6,3.6,0,0,1-1.31.46c-1.31,1-2.36,2.31-3.9,3a19.32,19.32,0,0,0-2.67,2.19,6.42,6.42,0,0,0-2.77,1.82,2.69,2.69,0,0,1-1.17.55c-1.15.27-1.65,1.36-2.48,2a8.05,8.05,0,0,1-1.14.66c-1.28.49-2.09,1.59-3.11,2.42a3.51,3.51,0,0,1-1.25.43,30.16,30.16,0,0,0-2.94,2.71,2.55,2.55,0,0,1-1.2.5c-1.38.69-2.27,2-3.62,2.77l.07-.06a19.2,19.2,0,0,0-3.81,3.21c-.52.5-1.22.74-1.74,1.23l.1-.08a20.42,20.42,0,0,0-4.12,3.53c-1.25.9-2.63,1.62-3.81,2.62a20.91,20.91,0,0,1-1.78,2c-1.73,1.56-3.37,3.2-5,4.91a4.17,4.17,0,0,1-.69,1.21Z" transform="translate(-57.25 -77.42)"/><path class="cls-16" d="M217.72,311c-1.95-1.81.13-4.75-1.83-6.56l-.37.11a39.29,39.29,0,0,1,.2-12.48,10.17,10.17,0,0,1,4.33-7.2l2.08,1c-3.86,5.3-4.85,11.25-4.28,17.65A64.3,64.3,0,0,1,217.72,311Z" transform="translate(-57.25 -77.42)"/><path class="cls-94" d="M220.05,284.83c-.37,2.57-2.46,4.24-3.41,6.51a1.11,1.11,0,0,1-1.84,0c-.13-3.21-.27-6.42-.38-9.63,0-.89.05-1.8,1.18-2.07A9.43,9.43,0,0,0,220.05,284.83Z" transform="translate(-57.25 -77.42)"/><path class="cls-95" d="M228.79,276.08l1.29,1.2-6.7,6.5-1.19-1.2A19.27,19.27,0,0,1,228.79,276.08Z" transform="translate(-57.25 -77.42)"/><path class="cls-96" d="M202.83,267.44c1.66-3.09,5.42-4,7.27-6.85v3.8c-2.77.37-4,3.08-6.41,4.09l-.46-.16A3.67,3.67,0,0,0,202.83,267.44Z" transform="translate(-57.25 -77.42)"/><path class="cls-97" d="M203.74,252.05c0-.81-.22-1.73.85-2.13A.84.84,0,0,1,206,250C205.32,250.78,204.94,251.88,203.74,252.05Z" transform="translate(-57.25 -77.42)"/><path class="cls-98" d="M206,250l-1.42-.11c.21-.87.31-1.8,1.22-2.3l1.52,1.48C207.12,249.73,206.56,249.87,206,250Z" transform="translate(-57.25 -77.42)"/><path class="cls-99" d="M214.8,291.34h1.84c-1.4,4.3-.64,8.79-1.12,13.17l-.72-.06A95.6,95.6,0,0,1,214.8,291.34Z" transform="translate(-57.25 -77.42)"/><path class="cls-50" d="M116.66,326.53c4.87-6.15,11.41-10.44,17.34-15.42a10.16,10.16,0,0,1,10.91,7.39c.49,1.58.53,2.59-1.29,3.39-7.05,3.11-13.56,7.5-21.35,8.86a9.91,9.91,0,0,0-1.52.55,4.51,4.51,0,0,1-4.58-.89C114.63,329.07,116.79,327.88,116.66,326.53Z" transform="translate(-57.25 -77.42)"/><path class="cls-100" d="M233.14,183.3c-2-.22-4-.2-5.57-1.69.07-.78.13-1.55.2-2.33-.66-.71-.5-1.08.47-1.1a1.13,1.13,0,0,0,1.34-.05c.78.45,1.95.22,2.37,1.33l.23,1.57C232.51,181.78,233.77,182.13,233.14,183.3Z" transform="translate(-57.25 -77.42)"/><path class="cls-101" d="M228.24,178.18c-.16.37-.31.74-.47,1.1-1.17-.09-2.34-.21-3.51-.28-1.93-.13-1.72-1.19-1.07-2.44C224.4,178.57,226.5,177.81,228.24,178.18Z" transform="translate(-57.25 -77.42)"/><path class="cls-22" d="M231.05,234.76c-1.58,1.65-3.2.86-4.83.08Z" transform="translate(-57.25 -77.42)"/><path class="cls-22" d="M231,233.57c.43.07.86.21.72.74-.05.19-.43.3-.67.44C231,234.36,231,234,231,233.57Z" transform="translate(-57.25 -77.42)"/><path class="cls-102" d="M286.61,239.1l1.27,1.13a68.81,68.81,0,0,1-13.24,7.55c-1.15.48-1.32-.09-1.11-1Z" transform="translate(-57.25 -77.42)"/><path class="cls-103" d="M265.83,251.76c1.09-1.55,2.89-2,4.44-2.82.44.28,1.06.37,1.14,1.05a19.23,19.23,0,0,1-5.59,3.09.87.87,0,0,1-.26-.88C265.65,251.91,265.74,251.76,265.83,251.76Z" transform="translate(-57.25 -77.42)"/><path class="cls-104" d="M271.41,250l-1.14-1.05,3.26-2.2,1.11,1A8.87,8.87,0,0,1,271.41,250Z" transform="translate(-57.25 -77.42)"/><path class="cls-105" d="M265.83,251.76c0,.44,0,.88,0,1.32a3,3,0,0,1-.95.51c0-.43,0-.86,0-1.29Z" transform="translate(-57.25 -77.42)"/><path class="cls-16" d="M215.9,312.07c1.77,3,.68,6.22.76,9.35C215.35,318.39,215.7,315.22,215.9,312.07Z" transform="translate(-57.25 -77.42)"/><path class="cls-106" d="M264.05,580.7c2.17.94,4.5,1.91,5.84,4.23a1.51,1.51,0,0,1-.06,1.42,1.66,1.66,0,0,1-1.44.46,8.84,8.84,0,0,1-5.58-4.68C262.5,581.51,262.92,580.74,264.05,580.7Z" transform="translate(-57.25 -77.42)"/><path class="cls-107" d="M276.26,579c0,1.19-.87,1.44-1.77,1.3a6,6,0,0,1-4.12-3.1c-.58-1-1.92-2.18-.65-3.25,1.54-1.31,2,.69,2.77,1.44C273.71,576.62,275.78,577,276.26,579Z" transform="translate(-57.25 -77.42)"/><path class="cls-108" d="M256.26,585.07c3.36.74,3.87,4.08,6.25,5.33.47.25.34,1.06-.06,1.39a2.25,2.25,0,0,1-1.48.41C258.22,592,256.65,589.72,256.26,585.07Z" transform="translate(-57.25 -77.42)"/><path class="cls-109" d="M243.59,539.91c0,.66-.52.9-1.05,1-1.72.31-5.78-2-6.14-3.5a1.3,1.3,0,0,1,.91-1.67c1.21-.3,5.8,2.43,6.24,3.66A1.71,1.71,0,0,1,243.59,539.91Z" transform="translate(-57.25 -77.42)"/><path class="cls-110" d="M228.11,537.66c2.75-.22,6.08,3.16,5.72,5.23-.12.73-.88,1.53-1.48,1.09-1.84-1.35-4-2.54-4.73-4.91C227.39,538.37,227.79,537.68,228.11,537.66Z" transform="translate(-57.25 -77.42)"/><path class="cls-111" d="M244.5,533.92c1.34-.22,4.23,2.74,4.05,4.16,0,.17,0,.42-.15.47-.44.22-.94.58-1.37.53-1.77-.23-2.73-1.49-3.39-3a1.65,1.65,0,0,1,.42-1.93A1.85,1.85,0,0,1,244.5,533.92Z" transform="translate(-57.25 -77.42)"/><path class="cls-112" d="M219,416.62l-1.31-1.15c.23-.24.41-.59.69-.7.92-.37,2.3-.92,2.66.11S220,416.35,219,416.62Z" transform="translate(-57.25 -77.42)"/><path class="cls-113" d="M366.83,183.28a7.28,7.28,0,0,1-7-5.19,4.76,4.76,0,0,1,2.83-5.74c2.33-.82,4.81-1.13,7.12-2.19,1.12-.52,2.12.35,1.66,1.78-.57,1.8-.4,3.39,1.65,3.73,2.77.46,2.09,1.74,1.17,3.34C372.6,182,369.76,182.85,366.83,183.28Z" transform="translate(-57.25 -77.42)"/><path class="cls-114" d="M375.09,173c-.8-.2-1.33-.65-1-1.5a3.19,3.19,0,0,1,1-1.25c4.33-3.53,9.22-6.21,14-9,.72-.41,1.42-.43,1.87.27a1.28,1.28,0,0,1-.41,1.87q-7.21,4.69-14.49,9.33A3.54,3.54,0,0,1,375.09,173Z" transform="translate(-57.25 -77.42)"/><path class="cls-115" d="M372.76,162.72l1.25-1c.9,1.67,1.38,3.29-.15,4.92-.86.92-1.64,2.24-3.09,1.52-1.74-.86-.17-2.19-.19-3.32l.22-.47a3.12,3.12,0,0,0,.87-.57l0,0C372,163.51,372.37,163.09,372.76,162.72Z" transform="translate(-57.25 -77.42)"/><path class="cls-116" d="M324.77,192.19a22.41,22.41,0,0,1,7.66-5.31c.53.27,1.2.35,1.34,1.09l-8,5.17a2.62,2.62,0,0,0-.87-.47Z" transform="translate(-57.25 -77.42)"/><path class="cls-117" d="M333.77,188c-.45-.36-.9-.72-1.34-1.09l6.57-4.33c.48.23,1.09.31,1.19,1A18.53,18.53,0,0,1,333.77,188Z" transform="translate(-57.25 -77.42)"/><path class="cls-118" d="M358.43,170.3l6.68-4.28a1.39,1.39,0,0,1,1.21,1.14,20.94,20.94,0,0,1-6.7,4.22C359.17,171.08,358.54,171,358.43,170.3Z" transform="translate(-57.25 -77.42)"/><path class="cls-119" d="M347.61,176.88a30,30,0,0,1,6.62-4.21c.47.28,1.11.37,1.23,1.05a23.71,23.71,0,0,1-6.75,4.19A1.92,1.92,0,0,1,347.61,176.88Z" transform="translate(-57.25 -77.42)"/><path class="cls-120" d="M302.88,206.29l6.68-4.11a1.55,1.55,0,0,1,1.07.92l-2.26,2.15c-.47.65-1.54.3-1.91,1.13l-2.52.82A1.61,1.61,0,0,1,302.88,206.29Z" transform="translate(-57.25 -77.42)"/><path class="cls-121" d="M319.23,196.19c1.51-1.79,3.61-2.78,5.54-4l.25.45a1.48,1.48,0,0,1-.14,1.11l-1.27,1.62a16.15,16.15,0,0,1-3.37,2.17,3.47,3.47,0,0,1-1-.08c-.35-.27-.47-.55-.37-.83S319.12,196.19,319.23,196.19Z" transform="translate(-57.25 -77.42)"/><path class="cls-122" d="M366.32,167.16,365.11,166a14.69,14.69,0,0,1,4.38-3.19l1.14,1a.81.81,0,0,1-.08,1.11l0-.12C368.82,165,367.89,166.68,366.32,167.16Z" transform="translate(-57.25 -77.42)"/><path class="cls-123" d="M355.46,173.72l-1.23-1.05a10.51,10.51,0,0,1,4.2-2.37l1.2,1.08Z" transform="translate(-57.25 -77.42)"/><path class="cls-124" d="M310.63,203.1l-1.07-.92a23.22,23.22,0,0,1,5.42-3.27,1.41,1.41,0,0,1,.59,1,1.72,1.72,0,0,1-.53,1l-.11.07a3.18,3.18,0,0,1-1.4.88Z" transform="translate(-57.25 -77.42)"/><path class="cls-125" d="M341,181.2a10.85,10.85,0,0,1,4.5-3.11c.44.28,1.05.37,1.14,1a12.4,12.4,0,0,1-4.5,3.1C341.69,182,341.08,181.88,341,181.2Z" transform="translate(-57.25 -77.42)"/><path class="cls-126" d="M285.46,217.21a6,6,0,0,1,3.77-2.2,1.43,1.43,0,0,1,1.86.12,12.38,12.38,0,0,1-4.58,3A1.52,1.52,0,0,1,285.46,217.21Z" transform="translate(-57.25 -77.42)"/><path class="cls-127" d="M280,221.16a6.62,6.62,0,0,1,3.37-2.66,1.53,1.53,0,0,1,1,.92,12.54,12.54,0,0,1-4.43,3.16A.86.86,0,0,1,280,221.16Z" transform="translate(-57.25 -77.42)"/><path class="cls-128" d="M274.56,224.85a13.35,13.35,0,0,1,4.49-3,1.22,1.22,0,0,1,0,1.45c-.7.87-1.36,1.79-2.68,1.65A1.5,1.5,0,0,1,274.56,224.85Z" transform="translate(-57.25 -77.42)"/><path class="cls-129" d="M268,229.27c.22-1.64,1.47-2.07,2.81-2.39a1.38,1.38,0,0,1,1.79.26C271.19,228.07,270.05,229.63,268,229.27Z" transform="translate(-57.25 -77.42)"/><path class="cls-130" d="M263.66,232.54c.3-1.93,2-2.4,3.37-3.14a.83.83,0,0,1,0,1.14C266.29,231.86,265.31,232.76,263.66,232.54Z" transform="translate(-57.25 -77.42)"/><path class="cls-131" d="M298.62,208.66c.83-.5,1.42-1.48,2.59-1.3a1.58,1.58,0,0,1,1.86.13c-1.15,1.37-2.81,1.94-4.33,2.72A1,1,0,0,1,298.62,208.66Z" transform="translate(-57.25 -77.42)"/><path class="cls-132" d="M284.42,219.42l-1-.92,2.07-1.29,1.05.91Z" transform="translate(-57.25 -77.42)"/><path class="cls-133" d="M293.06,212.26a3.47,3.47,0,0,1,2.31-1.41.76.76,0,0,1,.05,1.32c-.44,1-1.4,1.3-2.32,1.65A1,1,0,0,1,293.06,212.26Z" transform="translate(-57.25 -77.42)"/><path class="cls-134" d="M341,181.2l1.14,1-1.95,1.32-1.19-1Z" transform="translate(-57.25 -77.42)"/><path class="cls-135" d="M346.64,179.12l-1.14-1,2.11-1.21,1.1,1Z" transform="translate(-57.25 -77.42)"/><path class="cls-136" d="M298.62,208.66l.12,1.55a3.73,3.73,0,0,1-2.38,1.44.93.93,0,0,1-.27-.91c.09-.3.17-.45.26-.45A3.33,3.33,0,0,1,298.62,208.66Z" transform="translate(-57.25 -77.42)"/><path class="cls-137" d="M293.06,212.26c0,.52,0,1,0,1.56l-2,1.31-1.86-.12A10.6,10.6,0,0,1,293.06,212.26Z" transform="translate(-57.25 -77.42)"/><path class="cls-50" d="M320.24,197.54a6,6,0,0,1,3.38-2.17A3,3,0,0,1,320.24,197.54Z" transform="translate(-57.25 -77.42)"/><path class="cls-138" d="M316,198.24a3.1,3.1,0,0,1,2.29-1.56,1,1,0,0,1,.31.91c-.08.31-.16.47-.25.47l-1.26,1.61a.77.77,0,0,1-1.29.11A1.79,1.79,0,0,1,316,198.24Z" transform="translate(-57.25 -77.42)"/><path class="cls-139" d="M272.62,227.14l-1.79-.26a1.79,1.79,0,0,1,2.07-1,1.47,1.47,0,0,1,1.77.08A2.54,2.54,0,0,1,272.62,227.14Z" transform="translate(-57.25 -77.42)"/><path class="cls-140" d="M303.07,207.49l-1.86-.13a2.18,2.18,0,0,1,1.67-1.07l1.06.91A.92.92,0,0,1,303.07,207.49Z" transform="translate(-57.25 -77.42)"/><path class="cls-50" d="M306.46,206.38a2.29,2.29,0,0,1,1.91-1.13A2,2,0,0,1,306.46,206.38Z" transform="translate(-57.25 -77.42)"/><path class="cls-141" d="M274.67,226l-1.77-.08a2.13,2.13,0,0,1,1.66-1.06l1.77.07A2.1,2.1,0,0,1,274.67,226Z" transform="translate(-57.25 -77.42)"/><path class="cls-50" d="M316,199.66a2.75,2.75,0,0,0,1.07,0,1.91,1.91,0,0,1-2,1.22,1.29,1.29,0,0,0,0-.8C315.19,199.56,315.5,199.4,316,199.66Z" transform="translate(-57.25 -77.42)"/><path class="cls-142" d="M318.32,198.06l-.06-1.38,1-.49c0,.42,0,.84,0,1.27Z" transform="translate(-57.25 -77.42)"/><path class="cls-143" d="M296.35,210.29c0,.45,0,.9,0,1.36a2.19,2.19,0,0,1-.94.52c0-.44,0-.88-.05-1.32Z" transform="translate(-57.25 -77.42)"/><path class="cls-50" d="M313.53,201.84a1.38,1.38,0,0,1,1.4-.88A1.68,1.68,0,0,1,313.53,201.84Z" transform="translate(-57.25 -77.42)"/><path class="cls-144" d="M324.88,193.75c.05-.37.09-.74.14-1.11a.7.7,0,0,1,.77.5Z" transform="translate(-57.25 -77.42)"/><path class="cls-145" d="M279,223.27c0-.48,0-1,0-1.45l1-.66,0,1.42Z" transform="translate(-57.25 -77.42)"/><path class="cls-146" d="M267,230.54V229.4l1.1-.23C268.3,230.07,267.68,230.32,267,230.54Z" transform="translate(-57.25 -77.42)"/><path class="cls-147" d="M233.14,183.3l-1-2.27c3.73-.12,3.73-.12,4.94-6,1.61,3.06,4.49,4.39,6.07,7,.39,1.34-.16,1.78-1.46,1.49C239,179.78,236,182.88,233.14,183.3Z" transform="translate(-57.25 -77.42)"/><path class="cls-148" d="M244.26,184.52c.24.23.58.43.71.72.3.64.63,1.56-.06,1.91-.84.43-.86-.72-1.25-1.16a8.51,8.51,0,0,1-.85-1.32A.87.87,0,0,1,244.26,184.52Z" transform="translate(-57.25 -77.42)"/><path class="cls-149" d="M238.59,170.49c0,.48-.05.95-.08,1.43l-1.93-1.56a.78.78,0,0,0,.73-.25h0a.73.73,0,0,0,.2-.72Z" transform="translate(-57.25 -77.42)"/><path class="cls-95" d="M244.26,184.52l-1.45.15-1.08-1.14c.49-.5,1-1,1.46-1.49C244.22,182.57,244.14,183.59,244.26,184.52Z" transform="translate(-57.25 -77.42)"/><path class="cls-101" d="M232,179.46a4.57,4.57,0,0,1-2.37-1.33C230.65,178.07,231.61,178.22,232,179.46Z" transform="translate(-57.25 -77.42)"/><path class="cls-150" d="M316,199.66a1.17,1.17,0,0,1-.94.43c0-.39-.05-.79-.07-1.18l1-.66C316,198.72,316,199.19,316,199.66Z" transform="translate(-57.25 -77.42)"/><path class="cls-151" d="M227.51,202.16c-1.54-1.16-1.25-2.28.09-3.34,2.28-1.79,4.67-3.26,7.77-2.58a19.82,19.82,0,0,1,4.84,3.93c-.63,1-1.53.9-2.41.84a6.24,6.24,0,0,1-5.86.82,2.86,2.86,0,0,1-1.2-1,1.45,1.45,0,0,1,.7-1.33,4.91,4.91,0,0,1,1-.47c-.4,0-.67.27-1,.42-.36.3-.69.6-1,.91a4.87,4.87,0,0,1-2.19,1.61Z" transform="translate(-57.25 -77.42)"/><path class="cls-152" d="M230.9,200.85l6.9.16a3.48,3.48,0,0,1-3.26,3.28,3.44,3.44,0,0,1-4.07.08c-1.17.06-1.89-.84-2.83-1.27a5.91,5.91,0,0,1-.13-.94l.18-.15c.67-.53,1.46-.88,2.13-1.41A.79.79,0,0,1,230.9,200.85Z" transform="translate(-57.25 -77.42)"/><path class="cls-152" d="M231,208.67a1.44,1.44,0,0,0-.92-1.24.73.73,0,0,1,.06-1.06c1.25-.86,2.51-1.75,4.17-1.16,1.32.78,1.47,1.54,0,2.25-.62.62-1.59.38-2.23.94Z" transform="translate(-57.25 -77.42)"/><path class="cls-80" d="M234.35,205.21a7.41,7.41,0,0,1-4.17,1.16c.09-.67.19-1.33.29-2l4.07-.08A.85.85,0,0,0,234.35,205.21Z" transform="translate(-57.25 -77.42)"/><path class="cls-80" d="M232.07,208.4a2.22,2.22,0,0,1,2.23-.94A2.34,2.34,0,0,1,232.07,208.4Z" transform="translate(-57.25 -77.42)"/><path class="cls-153" d="M280.15,188l-.18-1.46a4.3,4.3,0,0,1,.33-2.6c4.43,2.36,5.57,1.92,5.85-2.75.11-1.88,1-2.21,2.29-2.05,2.06.26,3.85-.54,5.72-1.07C293.71,184,287.12,188.7,280.15,188Z" transform="translate(-57.25 -77.42)"/><path class="cls-154" d="M280.15,188c7.22.29,11.22-4,14-9.93l2.3,1.06a9.56,9.56,0,0,0,0,1.07c-1.14.28-1.67,1.22-2.24,2.1L291,185.6a1.61,1.61,0,0,0-1.16,1.24,4.56,4.56,0,0,0-2.4,1.92C285,188.77,282.44,189.67,280.15,188Z" transform="translate(-57.25 -77.42)"/><path class="cls-155" d="M292.05,175l-3.44-.52c1-1.62,1.83-2.83,3.49-.89A.88.88,0,0,1,292.05,175Z" transform="translate(-57.25 -77.42)"/><path class="cls-156" d="M292.05,175c0-.47,0-.94.05-1.41.69.3,1.13.86.86,1.56S292.28,175.56,292.05,175Z" transform="translate(-57.25 -77.42)"/><path class="cls-85" d="M247.32,167l-.74,1.12Z" transform="translate(-57.25 -77.42)"/><path class="cls-2" d="M243,166.43c.38-.06.34-.92,1-.53Z" transform="translate(-57.25 -77.42)"/><path class="cls-157" d="M370.55,165c0-.37.06-.74.08-1.11.35,0,.69,0,1,0A1.29,1.29,0,0,1,370.55,165Z" transform="translate(-57.25 -77.42)"/><path class="cls-158" d="M372.76,162.72c-.38.38-.76.76-1.13,1.15C372,163.48,372.38,163.1,372.76,162.72Z" transform="translate(-57.25 -77.42)"/><path class="cls-2" d="M239.71,156.21H242c-.38,1.16-1.41,1-2.27,1.12C239.72,157,239.72,156.58,239.71,156.21Z" transform="translate(-57.25 -77.42)"/><path class="cls-159" d="M148.28,311a20.82,20.82,0,0,1,4.7-5.54,1.45,1.45,0,0,1,1.59-.24c.54.48.51.92-.1,1.31l-4.83,4.54A1.23,1.23,0,0,1,148.28,311Z" transform="translate(-57.25 -77.42)"/><path class="cls-160" d="M196,273.35a14.07,14.07,0,0,1,4.45-3.66,1,1,0,0,1,0,1.56,10.45,10.45,0,0,1-4.47,3.58A.94.94,0,0,1,196,273.35Z" transform="translate(-57.25 -77.42)"/><path class="cls-161" d="M177.52,286.5a6.74,6.74,0,0,1,3.4-2.57,4.37,4.37,0,0,0,.9.43l.14.48c-1.36,1.23-2.65,2.56-4.49,3.09A.9.9,0,0,1,177.52,286.5Z" transform="translate(-57.25 -77.42)"/><path class="cls-162" d="M159,300.81c1.18-1.44,2.19-3.14,4.44-2.94-.68,2.33-3.07,3-4.49,4.67l-.38-.54A1.63,1.63,0,0,1,159,300.81Z" transform="translate(-57.25 -77.42)"/><path class="cls-163" d="M190.66,277.19a12.73,12.73,0,0,1,4.4-3.14,1.18,1.18,0,0,1,0,1.57,7,7,0,0,1-3.37,2.5A1.51,1.51,0,0,1,190.66,277.19Z" transform="translate(-57.25 -77.42)"/><path class="cls-164" d="M164.44,296.62c1.07-1.63,2.22-3.13,4.43-3.11-.64,2.29-2.58,3.21-4.46,4.17A.74.74,0,0,1,164.44,296.62Z" transform="translate(-57.25 -77.42)"/><path class="cls-165" d="M173.15,289.79a6.17,6.17,0,0,1,3.37-2.61.8.8,0,0,1,.28.81c-.09.28-.17.42-.26.42a6.32,6.32,0,0,1-3.43,2.73.89.89,0,0,1-.27-.91C173,289.94,173.05,289.79,173.15,289.79Z" transform="translate(-57.25 -77.42)"/><path class="cls-166" d="M185.14,281.24a3.15,3.15,0,0,1,2.66-1.94,1.52,1.52,0,0,1,1.84.1,12.14,12.14,0,0,1-4.51,3.11c-.33-.29-.44-.57-.33-.85S185,281.24,185.14,281.24Z" transform="translate(-57.25 -77.42)"/><path class="cls-167" d="M168.8,293.57c.19-2,2-2.31,3.37-3.09a.72.72,0,0,1,.26.77c-.08.26-.17.39-.26.39C171.37,292.84,170.51,294,168.8,293.57Z" transform="translate(-57.25 -77.42)"/><path class="cls-168" d="M181.87,283.44c.38-1.08,1.35-1.38,2.3-1.69a1.14,1.14,0,0,1,0,1.43,4.31,4.31,0,0,1-2.19,1.66l-.28-.42A.67.67,0,0,1,181.87,283.44Z" transform="translate(-57.25 -77.42)"/><path class="cls-169" d="M189.64,279.4l-1.84-.1a7,7,0,0,1,2.86-2.11l1,.93Z" transform="translate(-57.25 -77.42)"/><path class="cls-93" d="M154.47,306.53a3.63,3.63,0,0,0,.09-1,.84.84,0,0,1-.29-.79c0-.28.12-.42.19-.42a2.17,2.17,0,0,1,1.26-.49l.67.18.5.48A3.43,3.43,0,0,1,154.47,306.53Z" transform="translate(-57.25 -77.42)"/><path class="cls-170" d="M201.13,269.38a1.21,1.21,0,0,1,1.14-1.05l.64.05a.81.81,0,0,0,.78.1,1.49,1.49,0,0,1-1.26,1C201.94,270,201.51,270,201.13,269.38Z" transform="translate(-57.25 -77.42)"/><path class="cls-171" d="M201.13,269.38l1.3.13c-.33.91-1.18,1.27-1.92,1.74,0-.52,0-1,0-1.56A.44.44,0,0,1,201.13,269.38Z" transform="translate(-57.25 -77.42)"/><path class="cls-172" d="M195,275.62c0-.52,0-1,0-1.57l1-.69v1.47Z" transform="translate(-57.25 -77.42)"/><path class="cls-173" d="M148.28,311l1.36.07c-.34.64-.65,1.3-1.58,1.06A.79.79,0,0,1,148.28,311Z" transform="translate(-57.25 -77.42)"/><path class="cls-174" d="M184.15,283.18l0-1.43,1-.51c0,.42,0,.85,0,1.27Z" transform="translate(-57.25 -77.42)"/><path class="cls-93" d="M158,303.39l-1.12,1.06-.32-.32a1.26,1.26,0,0,1,.8-1Z" transform="translate(-57.25 -77.42)"/><path class="cls-93" d="M158.93,302.54l-.92.85-.19-.16c-.18-1,.27-1.36,1.2-1.3l-.27.27Z" transform="translate(-57.25 -77.42)"/><path class="cls-175" d="M176.54,288.41c0-.41,0-.82,0-1.23l1-.68c0,.48,0,.95-.05,1.43A2.36,2.36,0,0,1,176.54,288.41Z" transform="translate(-57.25 -77.42)"/><path class="cls-176" d="M172.17,291.64v-1.16l1-.69c0,.45,0,.9,0,1.35A1.48,1.48,0,0,1,172.17,291.64Z" transform="translate(-57.25 -77.42)"/><path class="cls-177" d="M164.44,296.62a2.7,2.7,0,0,0,0,1.06l-1.09.27C163.16,297.06,163.77,296.81,164.44,296.62Z" transform="translate(-57.25 -77.42)"/><path class="cls-178" d="M159,301.93l-1.2,1.3a1.25,1.25,0,0,0-1.25.9,6.71,6.71,0,0,1-.9.12,3,3,0,0,0-.86-.41l-.15-.46a15.4,15.4,0,0,1,4.32-2.57C159,301.18,159,301.56,159,301.93Z" transform="translate(-57.25 -77.42)"/><path class="cls-179" d="M154.82,305a.35.35,0,0,1-.26.54l-1.58,0c.51-.73.62-1.8,1.68-2.08a.53.53,0,0,0,.08.65A.53.53,0,0,1,154.82,305Z" transform="translate(-57.25 -77.42)"/><path class="cls-180" d="M202.91,268.38l-.64-.05c.19-.29.37-.59.56-.89a5.2,5.2,0,0,1,.38.69S203,268.3,202.91,268.38Z" transform="translate(-57.25 -77.42)"/><path class="cls-181" d="M181.87,283.44a1.59,1.59,0,0,0-.19,1,.69.69,0,0,1-.76-.49A2.33,2.33,0,0,1,181.87,283.44Z" transform="translate(-57.25 -77.42)"/><path class="cls-182" d="M231,199.84c1.16-2.35,2.63-2.36,5-.39a11.53,11.53,0,0,1-5.09.31Z" transform="translate(-57.25 -77.42)"/><path class="cls-183" d="M229.9,200.85c-.49.84-1.39.93-2.21,1.16.53-.95.9-2.06,2.24-2.18.3.24.39.47.28.69S230,200.85,229.9,200.85Z" transform="translate(-57.25 -77.42)"/><path class="cls-184" d="M229.9,200.85a1.21,1.21,0,0,1,0-1H231l-.1-.08,0,1.09-.5,0Z" transform="translate(-57.25 -77.42)"/><path class="cls-185" d="M154.82,305c0-.31,0-.62-.08-.93.43-.39.67,0,.93.23Z" transform="translate(-57.25 -77.42)"/><rect class="cls-186" width="384.43" height="564.37"/></svg>