<svg id="Ebene_1" data-name="Ebene 1" xmlns="http://www.w3.org/2000/svg" viewBox="0 0 384.43 564.37"><defs><style>.cls-1{fill:#010101;}.cls-2{fill:#090809;}.cls-3{fill:#070708;}.cls-4{fill:#100f10;}.cls-5{fill:#1f1f22;}.cls-6{fill:#1e1e20;}.cls-7{fill:#232124;}.cls-8{fill:#201f20;}.cls-9{fill:#141415;}.cls-10{fill:#2c2a2c;}.cls-11{fill:#3e3e40;}.cls-12{fill:#2b2b2e;}.cls-13{fill:#363233;}.cls-14{fill:#302e2f;}.cls-15{fill:#333032;}.cls-16{fill:#393738;}.cls-17{fill:#d4cdcb;}.cls-18{fill:#524f51;}.cls-19{fill:#444244;}.cls-20{fill:#c4cace;}.cls-21{fill:#fdfdfd;}.cls-22{fill:#fff;}.cls-23{fill:#fffeff;}.cls-24{fill:#fafafa;}.cls-25{fill:#f8f8f9;}.cls-26{fill:#eeedee;}.cls-27{fill:#262426;}.cls-28{fill:#2d2c2e;}.cls-29{fill:#ececee;}.cls-30{fill:#dae0e4;}.cls-31{fill:#c7ccd0;}.cls-32{fill:#a7a9ac;}.cls-33{fill:#a6b6be;}.cls-34{fill:#596064;}.cls-35{fill:#666668;}.cls-36{fill:#82878b;}.cls-37{fill:#3e494d;}.cls-38{fill:#5e6467;}.cls-39{fill:#8ea2aa;}.cls-40{fill:#b6c1c7;}.cls-41{fill:#dfe7ec;}.cls-42{fill:#fefdfe;}.cls-43{fill:#fefeff;}.cls-44{fill:#e7e7e8;}.cls-45{fill:#ecedee;}.cls-46{fill:#e8e9eb;}.cls-47{fill:#2b292a;}.cls-48{fill:#eaebed;}.cls-49{fill:#eff1f3;}.cls-50{fill:#353538;}.cls-51{fill:#3d3d3f;}.cls-52{fill:#efefef;}.cls-53{fill:#57595c;}.cls-54{fill:#e8eaed;}.cls-55{fill:#dbdfe2;}.cls-56{fill:#383132;}.cls-57{fill:#c2c6c8;}.cls-58{fill:#d8d7d7;}.cls-59{fill:#ded9d7;}.cls-60{fill:#e1e0e0;}.cls-61{fill:#82878a;}.cls-62{fill:#949192;}.cls-63{fill:#50575c;}.cls-64{fill:#b5bfc5;}.cls-65{fill:#656163;}.cls-66{fill:#7c898f;}.cls-67{fill:#a69e9c;}.cls-68{fill:#abc1cc;}.cls-69{fill:#838385;}.cls-70{fill:#d3d4d6;}.cls-71{fill:#c6ced3;}.cls-72{fill:#2d2b2d;}.cls-73{fill:#3c3839;}.cls-74{fill:#353436;}.cls-75{fill:#8f8785;}.cls-76{fill:#747273;}.cls-77{fill:#cac5c4;}.cls-78{fill:#fffefe;}.cls-79{fill:#4b4849;}.cls-80{fill:#5c5a5b;}.cls-81{fill:#b9b9bb;}.cls-82{fill:#989a9d;}.cls-83{fill:#f1f2f3;}.cls-84{fill:#aaafb3;}.cls-85{fill:#d3d3d4;}.cls-86{fill:#898b8e;}.cls-87{fill:#dee0e3;}.cls-88{fill:#39383b;}.cls-89{fill:#c3c6c9;}.cls-90{fill:#4c4848;}.cls-91{fill:#262527;}.cls-92{fill:#535152;}.cls-93{fill:#4c4c4e;}.cls-94{fill:#2f2f33;}.cls-95{fill:#726d6d;}.cls-96{fill:#545355;}.cls-97{fill:#382d2c;}.cls-98{fill:#201d1f;}.cls-99{fill:#413736;}.cls-100{fill:#322929;}.cls-101{fill:#2d2e30;}.cls-102{fill:#2a2729;}.cls-103{fill:#413f40;}.cls-104{fill:#433c3b;}.cls-105{fill:#4e4b4c;}.cls-106{fill:#434547;}.cls-107{fill:#4e4e50;}.cls-108{fill:#4c494a;}.cls-109{fill:#9d9c9d;}.cls-110{fill:#252123;}.cls-111{fill:#565a5c;}.cls-112{fill:#abc2cc;}.cls-113{fill:#4d4849;}.cls-114{fill:#4e4d4f;}.cls-115{fill:#4f4c4d;}.cls-116{fill:#473d3c;}.cls-117{fill:#525153;}.cls-118{fill:#5a595b;}.cls-119{fill:#525154;}.cls-120{fill:#727071;}.cls-121{fill:#666060;}.cls-122{fill:#646668;}.cls-123{fill:#747071;}.cls-124{fill:#79706e;}.cls-125{fill:#858080;}.cls-126{fill:#3a3a3c;}.cls-127{fill:#292729;}.cls-128{fill:#494140;}.cls-129{fill:#5a5657;}.cls-130{fill:#554f4f;}.cls-131{fill:#2a292c;}.cls-132{fill:#635f60;}.cls-133{fill:#585354;}.cls-134{fill:#534a49;}.cls-135{fill:#756b69;}.cls-136{fill:#433939;}.cls-137{fill:#3c3f43;}.cls-138{fill:#5b4f4c;}.cls-139{fill:#433d3d;}.cls-140{fill:#302828;}.cls-141{fill:#272122;}.cls-142{fill:#292628;}.cls-143{fill:#413f41;}.cls-144{fill:#241c1d;}.cls-145{fill:#5b5555;}.cls-146{fill:#393b3e;}.cls-147{fill:#4a4545;}.cls-148{fill:#100f11;}.cls-149{fill:#2c2b2c;}.cls-150{fill:#26292c;}.cls-151{fill:#9ea3a6;}.cls-152{fill:#6f6c6d;}.cls-153{fill:#645b5a;}.cls-154{fill:#7d7675;}.cls-155{fill:#726e6e;}.cls-156{fill:#807b7b;}.cls-157{fill:#878484;}.cls-158{fill:#646567;}.cls-159{fill:#7c7979;}.cls-160{fill:#767272;}.cls-161{fill:#6f6968;}.cls-162{fill:#514a4a;}.cls-163{fill:#2b2729;}.cls-164{fill:#574f4d;}.cls-165{fill:#423c3b;}.cls-166{fill:#5c514f;}.cls-167{fill:#544d4d;}.cls-168{fill:#574b48;}.cls-169{fill:#3a3231;}.cls-170{fill:#4a3f3d;}.cls-171{fill:#3f3533;}.cls-172{fill:#524643;}.cls-173{fill:#302829;}.cls-174{fill:#1c1819;}.cls-175{fill:#f0f2f4;}.cls-176{fill:none;}</style></defs><path class="cls-1" d="M229.28,534.07a64.94,64.94,0,0,1,24.52-2.69c-.72-8.07-1.42-16.13-2.15-24.18-.14-1.62-.46-3.24-.52-4.86a7.94,7.94,0,0,0-2.3-5.3c-4.8-5.29-4.86-6.15-1.43-12.62.65-1.23,0-2-.33-3-4.94-14.43-7.25-29.47-10.2-44.37-1.16-1.24.29-3.21-1.2-4.36l0,.13c-1.61-1.61-1-3.93-1.86-5.77a9.3,9.3,0,0,1-1.14-4c0-.49.61-.93.15-1.47a2.94,2.94,0,0,1-.29,1,3.89,3.89,0,0,1-.95,1.45,1.43,1.43,0,0,1-1.23-.06,2.87,2.87,0,0,1-.9-2.47,8.41,8.41,0,0,1,.23-1.42,15,15,0,0,0,.39-3.66,23.81,23.81,0,0,1,.59-4.29c.55-2.77-.65-4.13-3.4-4.21-8.78-.26-16.28-4.42-24-7.8a4.46,4.46,0,0,1-2.18-2.42l-1.43-.75c-8.22-4.36-8.25-4.36-6.39-13.33.61-2.91-.84-5.29-1.77-7.79A89.06,89.06,0,0,1,185.59,344c0-8.83,2.74-16.7,7.22-24.1a162,162,0,0,1,9.52-13.22c3.82-5.06,7.4-10.29,8.46-16.77a4.15,4.15,0,0,1,1.68-1c1.39-.16,2.63.06,3.39,1.41,1.54,6.39.42,12.89.73,19.32-3.15,15.8-5.81,31.75-10.27,47.24-2.69,9.39-5.24,18.89-9.21,27.88-1.55,3.51-.42,5.83,2.9,7.54,12.75,6.6,25.6,11.11,40.62,8.8a80.12,80.12,0,0,1,32.42,1.49c9.1,2.36,18.63,2.67,27.94,4.13A12.12,12.12,0,0,0,315,395c0-2.85-.67-4.69-4.11-3.65-8.36,2.52-15.93.59-23.52-3.38s-16.5-4-24.65-6.52c-8.69-2.72-16.69-6.09-22.12-13.86-1.38-2-3.69-2.86-5.67-4.14-4.29-2.79-8.36-5.83-9.76-11.17a2.65,2.65,0,0,1,1.52-2.84c5,2.32,6.78,2,10.62-2.16,1.87-2,3.2-1,4.29.81s1,4.19,1.12,6.36c.48,9.45,5,15.61,13.92,18.78A130.74,130.74,0,0,0,277,379c5.68,1,11.14,2.53,16.26,5.78,8.17,5.17,23,.21,27.34-8.41,1.38-2.73,1.3-4.14-2.32-3.61-2.33.35-4.68.62-7,.9-1.89.23-4,0-4.49-2.1-.58-2.3,1.51-3.16,3.19-3.7,5.78-1.85,11-4.4,15.49-8.74a30.6,30.6,0,0,0,7.87-12.83c.59-1.81.83-4.07,3.46-4.33,1.54,1.11.86,2.55.58,3.93a39.26,39.26,0,0,1-5,15.87,83.81,83.81,0,0,0-6,12.17c-1.4,3.58-3.09,7.08-6,9.6-2.36,2-2.31,4-1.6,6.68,2.1,8.06-.36,14.36-6.69,18.5a18.07,18.07,0,0,1-11.46,2.47c-3.41-.26-3.36,1.24-3.87,3.52-1.84,8.18-2.15,16.54-3,24.83-1,10.46-.9,21-3.47,31.33a6.72,6.72,0,0,0-.08,3.74c1.69,4.44,1.08,9,.85,13.47-.84,16.31-1.72,32.62-.76,49a97,97,0,0,0,3.06,18.75c.5,1.94,1,3.21,3.22,3.65,8.6,1.73,11.94,8.16,13.55,15.85.77,3.69,1.09,7.48,1.53,11.24.33,2.8-1.68,4.18-3.6,5.56-9.74,7-19.21,14.3-28.23,22.18a120.71,120.71,0,0,1-11.47,9.18,32.41,32.41,0,0,1-17.76,6c-6.87.07-13.51-2.26-18.26-8-.48-1,.12-1.5.92-1.89,1.56-.28,2.8.51,4,1.3,10.32,6.8,20.19,4.65,29.77-1.58,3.15-2.06,6-4.6,9.05-6.8,1.26-1.17,2.75-2.07,3.92-3.34a2.64,2.64,0,0,1,1.26-.54c1.25-.54,1.94-1.84,3.17-2.43a10.09,10.09,0,0,0,1.39-1.3,3.12,3.12,0,0,1,1-.59,7.43,7.43,0,0,0,1.32-1,.8.8,0,0,1,.87-.32s-.35-.33-.36-.32a.92.92,0,0,1-.68.69l-.87.66a7.76,7.76,0,0,0-1.43,1,12.75,12.75,0,0,1-1.39,1.26,17.21,17.21,0,0,0-2.62,2c-.45.17-.89.32-1.35.45-1.41,1.45-3.11,2.54-4.58,3.91-6.09,4.72-13.15,7.49-20.34,9.86-5.7,1.88-11.38,1.63-16.68-1.65-1.54-1-3.14-1.84-3.48-3.86a2.17,2.17,0,0,1,1.3-2,3.69,3.69,0,0,1,3.15.34C247,620,254,617.83,261,614.71c11-4.92,20.43-12.44,30.52-18.86,4-2.53,7.75-5.39,11.85-7.74,2.9-1.66,3.79-3.93,3.4-7.26-.57-4.76-1.63-9.28-4.39-13.26-.71-1-1.69-2.18-3-2.06-1.75.16-1.23,1.94-1.57,3-1.6,5.06-4.34,9.17-9.36,11.38-3.1,1.37-5.42.78-5.89-3a9,9,0,0,0-4.73-6.89c-1.37-1.44-4.41-.36-4.86-3.2a11.61,11.61,0,0,1,3.66-.88c3.22-.22,4.33-1.66,3-4.31-1.78-3.53-1.93-7.27-2.43-11-1.76-13.08-2.81-26.25-6.24-39.1-1.87-7-1.91-14.33-1.79-21.6,0-.94.76-2.09-1.09-3.06a52.53,52.53,0,0,0-1.46,15.43c.81,9.42.58,18.84.93,28.25a15.67,15.67,0,0,0,.49,4.26c1.62,5.15,3.65,10.3,1.78,15.86,2.5,5.79-2,7.52-5.68,9.5-12.92,6.85-26.59,10.28-41.31,8.6-6-.68-11.48-3.1-16.89-5.64a3.17,3.17,0,0,1-1.68-2c-.94-1.43-.45-2.18,1.14-2.44,13.92,7.18,28.39,8.13,43.3,3.69,1.34,0,2.6-.53,3.92-.6s2.13-1.28,3.45-1.1c1.05-.15,1.69-1.22,2.22-1.12-.46.11-1.33.73-2.32,1.08-1.38-.15-2.36,1-3.64,1.12-3.06.61-6.2.78-9.22,1.58-11.81,1.59-22.93-.88-33.66-5.65a6,6,0,0,1-3.22-2.75c-.23-1.64.91-2.05,2.14-2.37,2-.24,3.91.52,5.78,1.21,14.6,5.41,29.38,5.05,44.26,1.32a14.15,14.15,0,0,0,4.52-1.79c2.5-1.69,4.11-6.86,2.69-9.24-1.69-2.85-4.22-.64-6.36-.72a8.93,8.93,0,0,0-3.11.91c-1.58.54-3.3,1-4.6-.3s.05-2.69.6-3.93c1.27-2.87-.07-4.09-2.74-4.41a32.73,32.73,0,0,0-9.73.3,24.43,24.43,0,0,1-8.09.39C230.43,536,229.16,535.7,229.28,534.07Z" transform="translate(-57.25 -77.42)"/><path class="cls-1" d="M229.37,140.53c-2.71-6.39-.72-11.48,4-16.12,7.49-7.29,16.46-11.61,26.5-14a14.57,14.57,0,0,1,4.32-.32,55.68,55.68,0,0,1,24.16,7.4c5.28,3,8.56,7.82,11.58,12.7a83.21,83.21,0,0,1,9.16,19.62c3.94,13,2.17,25-5.59,36.16-1.29,1.86-2.93,3.62-3.52,6.41,4.55.17,8.82,2.32,12.9-.79,1-.49,1.49.13,1.83,1,.07,2-1.42,2.85-2.74,3.73a366.4,366.4,0,0,1-32.92,20c-1.6.83-3.23,1.7-5.16,1.26a1.87,1.87,0,0,1-1.37-1.79c5.62-4.94,4.11-12.35,6.36-18.45-.16-2.63.95-4.27,3.71-4,3.11.32,5.14-1.07,6.7-3.52a13.9,13.9,0,0,1,1.41-1.66,11.83,11.83,0,0,1,1.63-1.37,13.33,13.33,0,0,0,3.93-3.7c.29-.35.6-.68.92-1a5.45,5.45,0,0,0,1.49-2.95c.07-.7.1-1.4.11-2.11-.75-5.68-3.63-7.45-8.72-5.35a17.89,17.89,0,0,0-5.22,3.72,7.54,7.54,0,0,0-1.63,2.22,9.18,9.18,0,0,0-.85,2l-.12.31a2.79,2.79,0,0,0,.24-.31,5.51,5.51,0,0,1,.64-1.52,8.35,8.35,0,0,1,1.46-2.2,3.91,3.91,0,0,1,2.55-1.15,18.45,18.45,0,0,1,2.95.45,7,7,0,0,1,2.92,1.08,3.65,3.65,0,0,1,1.27,3.58c-4.73,1.73-6,8.29-11.95,8.49-.73,0-.74,1.55-1.11,2.37-.93,2.1-2.62,3.91-2.45,6.44-1.72,8.78-8.22,14.25-14.47,19.49a40.42,40.42,0,0,1-17.64,9,6.89,6.89,0,0,0-3.19,1.78,21.21,21.21,0,0,1-10.82-1c-.33-.92.12-2.8-1.27-2.5-3.07.66-3.47-1.16-3.59-3.27a4.46,4.46,0,0,0-2.59-4.27,5.3,5.3,0,0,1-2.4-3.47c-.93-6.5-3.68-13.1.41-19.47,1-1.57-.3-3.7,1.41-5,.66-.37,1.23-.89,1.93-1.2a12.62,12.62,0,0,1,2.17-.74c8.76,1.33,17.18,3.36,22.77,11.18,1.51,2.1,3.29,3.37,5.93,1.68,2.25-1.44,5.84,1.19,7.36-2.09,3.11-6.72,10.86-10.8,10.52-19.57-.17-4.16-1-6.95-5.33-8.13a96.38,96.38,0,0,1-12.68-4.77c-.63-.28-1.24-.61-1.87-.87-.81-.27-1.65-.44-2.48-.68a2.73,2.73,0,0,1-1-.65c-.11-.72.66-.61,0-.42-.31.08-.25.65-.32,1a3.07,3.07,0,0,1-2.46,1.89c-1.19.1-2,1.05-3,1.43a7.29,7.29,0,0,1-2.93.3c-1.78-.37-4.14-.77-4-2.85.17-2.9,3.19-2.95,5.34-3.72A2.15,2.15,0,0,0,245,160c.23-.76-.47-.82-.85-1.12-.74-.19-.78-1.32-1.73-1.2-.76.28-1.47.68-2.23,1a5.75,5.75,0,0,1-1.36.33,4.09,4.09,0,0,1-2.82-.67c-.47-4.81,4.41-8,9.82-6.27a19.33,19.33,0,0,1,6.58,3.68c6,5.18,13.64,6.1,20.82,8.24.33.1.64-.25,1-1-1.18-2.56-5.66-1.48-6.25-4.87-.3-.39.73-1-.13-1.18-.27,0-.79.52-1.34.56-2.67-.64-3.16-2.68-3.19-5a14.12,14.12,0,0,1,.52-2.65c.78-4.27,3.57-8.91-1.23-12.45-5.36-4-11.33-5.55-17.85-3a21.77,21.77,0,0,0-9,6.79c-1.23,1.52-2.19,3.36-4.25,4C228.41,144.71,230.74,141.8,229.37,140.53Z" transform="translate(-57.25 -77.42)"/><path class="cls-2" d="M314.36,192.92l-1.43-1.29c7.45-5.77,15.95-9.91,23.78-15.08,14.21-9.39,28.77-18.25,42.35-28.57,3.87-2.95,8.07-5,12.95-4.71,7.76.53,12.95,7.52,12.37,16.36a24.83,24.83,0,0,1-1.67,8c-1.37,3.32-2.85,6-6.6,7.86-5.25,2.67-10.09,6.37-15,9.78-15.05,10.46-31.16,19.19-46.58,29-2.91,1.86-4.21,3.2-4.16,7.32.1,9.28-2.22,18.3-8.45,25.78-.81.81-.41,2.91-2.51,2.34-4.75-5.57-7.33-12.25-9.79-19a8.46,8.46,0,0,1-.28-3.16c1-2.61,3.48-3.61,5.54-5,17.12-11.65,34.92-22.22,52.46-33.2,8.9-5.58,17.88-11.13,26.31-17.46a14.9,14.9,0,0,0,5.14-6.17c1.57-3.74.95-6.36-3.22-7.57-1-.45-1.93-.93-1.91-2.23,1.83-2.21,3.79-2.63,5.63-1.42-2-6.66-6.67-8.86-13.29-5C373.67,156.75,362,165,349.89,172.67c-9.94,6.34-20.06,12.38-30,18.71C318.26,192.42,316.56,193.69,314.36,192.92Z" transform="translate(-57.25 -77.42)"/><path class="cls-3" d="M220.58,238.73a6,6,0,0,1,3.48-3.2c4.73-1,6.54-6.75,11.67-6.93,2.33-2.63,6.35,1.21,8.48-2.2a7.65,7.65,0,0,1,3.1-1.4c2.84-.67,5.68-1.21,8.6-.6a5.23,5.23,0,0,1,2.26,1.18,27,27,0,0,1,5.84,9,7.37,7.37,0,0,1,.39,1.67c.42,5.22-1.12,10.28-1.25,15.45a11.52,11.52,0,0,0-.51,5.56,5.81,5.81,0,0,1-.25,1.6c-1.16,2.6-1.11,4.88,1.45,6.72a12.23,12.23,0,0,1,4.84,8.82c.43,3.48,2.42,5.51,5.51,6.79,5.54,2.29,11.12,4.35,17.15,5.12,6.43.83,11.91,4.24,17.51,7.2a7.72,7.72,0,0,1,3.47,4.1c2.95,7.94,5.15,15.92-.06,23.87a90.35,90.35,0,0,1-9,11.62,12.74,12.74,0,0,1-4.85,3.44c-1.47.56-2.9.61-3.82-.93-.79-1.34-.1-2.42.85-3.38.64-.64,1.4-1.15,2.1-1.73,10.58-8.82,10.41-24.34-.27-33.1-4.93-4-10.79-5.94-16.73-7.61a108.68,108.68,0,0,1-12.2-4.65,13.63,13.63,0,0,1-6.58-5.51c-1.45-2.4-3.39-4.78-1-7.91.86-1.14-.72-1.8-1.76-2a14.32,14.32,0,0,0-5.93.38c-2.47.48-4.86,1.65-7.48.93a2,2,0,0,1-1.36-1.84c1.42-2.8,4.34-3.11,6.86-3.84,3.5-1,5-3.18,5.07-6.72.06-6.5-.13-13,1-19.46.48-2.78-.12-5.55-3-7s-5.69-2.88-8.42.1c-1.78,1.94-3.68.49-5.56.42-3.14-.13-6.79-1.2-7.62,3.65a2,2,0,0,1-1.86,1.76c-3.52-.31-6.45,2.22-9.93,1.91a.81.81,0,0,1-.42-.85Q220.43,238.73,220.58,238.73Z" transform="translate(-57.25 -77.42)"/><path class="cls-4" d="M152.91,321.34c-2.46,1-2.9,5.26-4.95,5-2.76-.42-4.57.61-6.46,1.7a62,62,0,0,1-17.46,6.9c-.7.15-1.35.54-2.05.63-2.59.3-5.33.25-6.94-2-1.79-2.48-.07-4.74,1.42-6.84.61-.87,1.14-1.8,1.7-2.71a1.2,1.2,0,0,1,1.21-.82,1.9,1.9,0,0,1,1.41,1.72c.18,2.14-2.94,4.06-1.16,5.95s4.39,0,6.56-.55a46.87,46.87,0,0,0,14.28-6.23c1.62-1,4-1.61,3.47-4.18a7,7,0,0,0-5.34-5.5c-1.6-.45-3.21.18-4.83.11-.8-.16-1.5-.42-1.44-1.44l-.14-.39c.5-.33.93-.81,1.58-.84Q163.6,288.89,193.46,266c4.58-3.49,9.46-6.59,9.82-13.15a.62.62,0,0,1,.86-.45.73.73,0,0,0,1-.28,9.38,9.38,0,0,1,.93-.86,9.24,9.24,0,0,1,1.86-1.11c6.42-2.5,10.74,3.26,9.5,8.4-2.07,8.62.41,16,4.87,23.09a12.61,12.61,0,0,0,1.61,3.22,3,3,0,0,1,.43,1.29,4.81,4.81,0,0,1-.64,1.9,3.32,3.32,0,0,1-.88.95,1.76,1.76,0,0,1-1.72-.6c-.42-.46-.82-.94-1.27-1.37s-1-.78-1.51-1.2a19.91,19.91,0,0,1-3.2-4.32,21.84,21.84,0,0,0-2.3-4.25c-2.51-2.79-1.21-7.41-4.7-9.73a1.79,1.79,0,0,1-.92-1.87c.67-2,2.62-3.52,1.85-6.33-14,10.22-27.41,20.79-41,31.12-7.06,5.35-14.07,10.76-21.23,15.95-3.1,2.24-3.23,4-.09,6,.68.66,1.35,1.33,2,2a2.16,2.16,0,0,1,.35,1.28c-.6.6-.71,1.12.25,1.46a10.46,10.46,0,0,0,3,2.44C152.78,320.07,153.23,320.55,152.91,321.34Z" transform="translate(-57.25 -77.42)"/><path class="cls-5" d="M319.89,249.52l2-2.17c-.06,1.9,1,3.42,1.78,5,8.83,17.18,14,35.43,17,54.48,2.16,13.46-.46,26.18-3.35,39-.37-1.25.13-2.78-1.22-3.71-1.85-1.87-1.12-4.1-.7-6.17,5.75-28.51-3.37-54.35-14.25-79.89C320.31,254,318.65,252.06,319.89,249.52Z" transform="translate(-57.25 -77.42)"/><path class="cls-6" d="M234.7,426.09c1.93,2,1.06,4.43,1,6.73-1.52,2.87-2.87,5.9-7.11,6.66,1.32,2.39,2.33,4.63,2,7.19-.5,4.13-3,6.52-7.2,6.6a13.07,13.07,0,0,1-9.75-4.1c-6.64-6.74-12.37-14.16-16.07-23-.55-.67-.37-1.6-.85-2.3,0-1.09,0-2.18,0-3.27.73-1,.08-2.41.84-3.44a.78.78,0,0,1,.17-.88c1.52-.26,1.73.89,2.06,1.91a5.46,5.46,0,0,1-.37,3.12c-1,.59-.95,1.15.08,1.66a131.28,131.28,0,0,0,14.07,20.6c2.27,2.68,4.85,4.94,8.64,5,1.7,0,3.34-.37,3.92-2.24.52-1.66-.53-2.8-1.79-3.61-2.76-1.78-5.59-3.44-6.68-6.83.72-4.56,1.29-4.9,4.43-2.13,2.15,1.9,4.1,3.52,7,1.35.3-2-2.64-1.72-2.58-3.53a2.93,2.93,0,0,1,.38-1.47,5.64,5.64,0,0,1,2.56-1.55C231.55,428.5,233.45,428,234.7,426.09Z" transform="translate(-57.25 -77.42)"/><path class="cls-7" d="M233.71,620.05c-.45.48-.89,1-1.33,1.45-3-2.26-4.08-5.52-4.31-9-.72-11.14,3-19,14-23.78a146.35,146.35,0,0,0,18.51-10.16c4.19-2.58,8-5.62,10.24-10.23a2.26,2.26,0,0,1,2.1-1.44c1.46,1.66,4.07-.13,5.43,1.83-3.88,1.72-6.68,4.73-9.56,7.72-6.68,6.93-15.58,10.52-23.73,15.2-1.87,1.08-3.95,1.82-5.75,3.08-5,3.5-5.89,6.15-4.63,12.09.63,3,2.9,5.52,2.45,8.8L235.72,617c-2.35.3-3-1.54-3.92-3.07a6.88,6.88,0,0,1-.88-3.55c-.08-.82.2-1.69,0-2,.22.29-.19,1.18-.06,2a7.48,7.48,0,0,0,1.1,4.12C232.77,616.32,234.55,617.77,233.71,620.05Z" transform="translate(-57.25 -77.42)"/><path class="cls-8" d="M213.9,276.81c1.63,1,1.27,3,2.29,4.26-.47,2.92,1.63,6.18-1.17,8.79l-3.46-.13c-.52-.66.35-1.89-.92-2.25-12.37,6.68-24.12,14.39-36.27,21.43-7.15,4.15-14,8.77-21.46,12.43l-1.18-1c.06-2.73,2.44-3.4,4.18-4.48q24.26-15,48.76-29.64C208.67,283.83,212.18,281.28,213.9,276.81Z" transform="translate(-57.25 -77.42)"/><path class="cls-9" d="M222.71,176.48a1.39,1.39,0,0,1,.1-1c.43-1.41,1.73-2.12,2.57-3.19.87-3.43-1.83-3.81-4-4.65a2.71,2.71,0,0,1-1.86-.94c-1.51-2.3-1.77-4,1.51-5.1,1.92-.65,3.3-2.65,5.61-2.66,1-.36,1.48-1.58,2.6-1.84,3-1,5.15,1,7.56,2.11a3.63,3.63,0,0,1,1.28.9c.75,1.45.18,2.42-1.13,3.11-.42.2-.85.39-1.27.57a2.64,2.64,0,0,0-1.27,2.16,8.38,8.38,0,0,1-.35,1.33c-.29.9-.57,1.8-.88,2.69-.27,6.12-4.64,7.41-9.53,8.09C222.89,177.81,222.19,177.52,222.71,176.48Z" transform="translate(-57.25 -77.42)"/><path class="cls-10" d="M229.28,534.07c.58,1,1.64.94,2.54,1.26-1.18,2.9-4.24,3-6.5,4.23-4.87,2.57-9.06,6.37-14.42,8.05-.87-.19-1.51-.55-1.26-1.61C215.49,540.88,221.39,535.83,229.28,534.07Z" transform="translate(-57.25 -77.42)"/><path class="cls-11" d="M198.92,418.79c-.31-.87-.22-1.94-1.19-2.48,1-6.22,3.63-12.15,3.33-18.6l2.19,1.22C205.35,404.62,203.09,415,198.92,418.79Z" transform="translate(-57.25 -77.42)"/><path class="cls-12" d="M229.41,157.92l-2.73,1c.13-5.38.51-10.7,2.71-15.74.32-.73,0-1.74,0-2.63,1.86.9.35,3.4,2.07,4.36C232.66,149.53,230.93,153.71,229.41,157.92Z" transform="translate(-57.25 -77.42)"/><path class="cls-13" d="M220.58,238.73c0,.45.09.89.13,1.34,1.23,1.05,2.92,2.12,1.8,3.94-.89,1.47-2.7,1.05-4,.39-4-2.11-6.86.69-10,2.19-.87-.15-1.54-.44-1.12-1.53,2.35-3.81,5.53-6.05,10.24-5.24C218.87,240,219.61,239.09,220.58,238.73Z" transform="translate(-57.25 -77.42)"/><path class="cls-14" d="M222.71,176.48l1.06,1.11A14,14,0,0,1,228,182a7,7,0,0,1,.36,1.63,7.36,7.36,0,0,1-1.37,4.87l-2.36-.15c.5-1.41-.45-2.33-1.08-3.38C222,182.31,221.32,179.49,222.71,176.48Z" transform="translate(-57.25 -77.42)"/><path class="cls-15" d="M132.33,313.05l1.11.86c-3.05,5.25-7.71,8.57-13.14,11l-1.12-1.23q-.44-.39-.24-.72c.13-.2.24-.3.36-.3l-.08.08a2.56,2.56,0,0,1,1.14-1.18l-.07.07a2.66,2.66,0,0,1,1.24-1.15,46.52,46.52,0,0,0,8.52-6.59,2.8,2.8,0,0,1,1.45-1A4.7,4.7,0,0,1,132.33,313.05Z" transform="translate(-57.25 -77.42)"/><path class="cls-16" d="M205.26,559.05c-.92.42-.87,1.3-1,2.09-2.52-4.86-2.15-6.91,2-11.15a3.48,3.48,0,0,1,1.11.74c.57.88,1.83,1.48,1.2,2.86-.77.22-1.68.13-2.16,1C206.5,556.19,206.77,557.85,205.26,559.05Z" transform="translate(-57.25 -77.42)"/><path class="cls-17" d="M244.89,226.83c-2.51,3.4-6,1.7-9.16,1.77-.83-1-2.87-.34-3-2.23.35.1.72.34,1,.28a22.36,22.36,0,0,1,9.53-.09A1.14,1.14,0,0,1,244.89,226.83Z" transform="translate(-57.25 -77.42)"/><path class="cls-18" d="M226,173.3l-3.19,2.14c-2.7-2.33-4-5.17-3.25-8.78h1.94C223.32,168.65,223.77,171.58,226,173.3Z" transform="translate(-57.25 -77.42)"/><path class="cls-18" d="M207.4,245.06l1,1.17c.9,2-.65,3.08-1.49,4.44-.87.49-1.17,1.42-1.67,2.19l.07-.05a.87.87,0,0,1-1.24,0l-.41.1-.41,0C204,249.93,204.87,247.05,207.4,245.06Z" transform="translate(-57.25 -77.42)"/><path class="cls-19" d="M206.59,551.76c-.12-.59-.23-1.18-.34-1.77a8.41,8.41,0,0,1,3.39-4l1.34,1.19C210.85,550,209.15,551.29,206.59,551.76Z" transform="translate(-57.25 -77.42)"/><path class="cls-20" d="M210.64,287.48a1.19,1.19,0,0,1,1.54-1c.75.44-.09,1.13-.22,1.73s-.27,1-.4,1.52a3.49,3.49,0,0,0-.77.2Z" transform="translate(-57.25 -77.42)"/><path class="cls-6" d="M235.67,432.69c1.8,1.07,1.22,2.79,1.2,4.36A6.14,6.14,0,0,1,235.67,432.69Z" transform="translate(-57.25 -77.42)"/><path class="cls-11" d="M197.56,417.19c.24,1.28.27,2.5-.84,3.44A3.76,3.76,0,0,1,197.56,417.19Z" transform="translate(-57.25 -77.42)"/><path class="cls-11" d="M196.74,423.9a2.13,2.13,0,0,1,.85,2.3A2.08,2.08,0,0,1,196.74,423.9Z" transform="translate(-57.25 -77.42)"/><path class="cls-21" d="M133.77,311.82a1.38,1.38,0,0,1-1.58.84A1.91,1.91,0,0,1,133.77,311.82Z" transform="translate(-57.25 -77.42)"/><path class="cls-21" d="M131.5,312.88a1.58,1.58,0,0,1-1.45,1A1.75,1.75,0,0,1,131.5,312.88Z" transform="translate(-57.25 -77.42)"/><path class="cls-21" d="M121.53,320.45a1.53,1.53,0,0,1-1.24,1.15A1.66,1.66,0,0,1,121.53,320.45Z" transform="translate(-57.25 -77.42)"/><path class="cls-21" d="M120.36,321.53a1.44,1.44,0,0,1-1.14,1.18A1.57,1.57,0,0,1,120.36,321.53Z" transform="translate(-57.25 -77.42)"/><path class="cls-21" d="M119.3,322.63a5.91,5.91,0,0,0-.12,1,5.22,5.22,0,0,1-1,.34A1.63,1.63,0,0,1,119.3,322.63Z" transform="translate(-57.25 -77.42)"/><path class="cls-22" d="M319.89,249.52c2.09,4.59,4.33,9.12,6.24,13.79a189.28,189.28,0,0,1,13.05,51.94c.53,4.95-.64,9.73-1.35,14.56-.6,4.12-1.12,8.24-1.67,12.36-.71,2-1.39,4.09-2.14,6.12-3.69,9.93-10.49,16.59-20.68,19.73-1.87.58-3.72,1.22-5.57,1.89-.28.1-.45.53-1.16,1.39,6.1,2.47,11.66-.77,17.72-.9a18.12,18.12,0,0,1-6.71,11.94,39.84,39.84,0,0,0-4.7,3.66c-1.54,1.61-4.14,2.06-6.58,2s-5.08,0-7.62,0a8.94,8.94,0,0,1-6.12-1.91c-4.89-4.34-11.08-4.85-17-5.92a98.43,98.43,0,0,1-22.71-7c-7.78-3.48-11.18-10.45-11.88-18.79-.22-2.59.49-5.39-1.69-8.1-2.66,3.44-2.39,8.23-5.88,10.85-3.18-1.72-4-5.22-6.27-7.44-5.28-5.67-6.42-13-8-20.1a16.78,16.78,0,0,0-.71-4.09,15.45,15.45,0,0,1-.45-3.39c-.05-2.63.09-5.28-.83-7.82-.2-6.8-1.27-13.63.79-20.34,1-2.17,2.2-4.22,4.49-5.32a.66.66,0,0,0,.37-.76,5,5,0,0,1,.87-1.35l.61-.94c.13-3.37,2.81-5,5-6.62,5.07-3.68,10-7.87,16.59-8.6,3.77-.5,7.28-2.23,11.14-2.32,4.87-.11,5.22.14,6.62,5.26-1,.71-2.1-.78-3.21.27,1.26,5.2,4.39,8.56,9.45,10.7,6,2.54,12.22,4.43,18.38,6.51,7.31,2.47,13.05,6.71,16.46,14,4.66,9.92,1.9,21.23-7.07,27.49-.6.42-1.23.78-1.85,1.15s-1.23.94-.86,1.74c.45,1,1.32,1,2.26.65,3.66-1.53,6.09-4.5,8.54-7.41,1.39-1.64,2.55-3.48,3.81-5.24,5.79-8.06,5.5-16.5,1.42-25.09-1.19-2.51-2.93-4.57-6-5.05a10,10,0,0,1-2.48-1.08c-4.72-2.23-9.32-4.28-14.78-4.81-5.88-.57-11.44-3.2-16.83-5.81a5.25,5.25,0,0,1-3.3-5c-.31-4.53-.92-9.23-6.73-10.35a1.32,1.32,0,0,1-1.11-1.56c.13-2.3-.37-4.8,2-6.41.8-.58,1-1.67,1.77-2.24a10.83,10.83,0,0,1,1.17-.84c.79-.5,1.56-1,2.35-1.56a22.4,22.4,0,0,1,2.48-1.29c.42-.21.85-.38,1.28-.55,2.21-.86,3.79-2.73,5.92-3.72a12.84,12.84,0,0,1,1.27-.67c2.47-1.09,4.57-2.78,6.9-4.09,6.81-4.29,14.38-7.23,21-11.91,1.38-1,3-2.06,4.93-.81C313,237.14,316.37,243.36,319.89,249.52Z" transform="translate(-57.25 -77.42)"/><path class="cls-22" d="M226,351.89c2.11,5.38,6.27,8.78,11.26,11.23a12,12,0,0,1,5.57,4.83c3.86,6.62,10.75,8.68,17.41,11.16,7.33,2.72,15.16,3.29,22.57,5.59,2.21.69,4.54.91,6.55,2.34,7,4.95,14.64,4.43,22.41,2.46,1.05-.26,2.05-.72,3.34-1.18,1.93,4.95,2.57,9.86-.8,14.38a14.24,14.24,0,0,1-15,5.58c-11.42-2.66-23.34-2.29-34.56-6a18.94,18.94,0,0,0-7-.42c-8.68.55-17.39.5-26.08,1.4a31,31,0,0,1-17.44-2.82c-5-2.47-10.33-4.25-15.3-6.84-4.69-2.46-5.5-3.88-3.45-8.56,3-6.84,4.66-14.08,7-21.11a175.22,175.22,0,0,0,6.75-26.25c1.54-9.09,4-18,6-27,3,.55,1.63,3.11,2.1,4.78.54,1.93.17,4,.55,5.93.08.26.15.53.22.8a8.08,8.08,0,0,1,.21,1.62c-.17,1.68.52,3.18,1,4.73a47,47,0,0,0,3.58,13.88A63,63,0,0,1,226,351.89Z" transform="translate(-57.25 -77.42)"/><path class="cls-22" d="M237.14,615.61c-2.68-3.15-3.81-6.93-4.41-10.89s.47-7.51,4-10a50.55,50.55,0,0,1,7-4.08,138.36,138.36,0,0,0,21.07-12.25c2.21-1.59,4.71-3.18,5.69-5.72,1.52-4,4.4-4.3,7.85-4,4.42,2.14,6.18,5.83,5.91,10.57,7.42-.36,12.17-6.32,13-16.23,3.42.1,5.57,2.09,7.14,4.78,2.79,4.79,3.53,10.22,4.23,15.59.28,2.12-1,3.78-2.88,4.88-12.35,7.27-23.65,16.15-36,23.44-5.85,3.46-12,6.57-19,7.62A14.34,14.34,0,0,1,240,617.09,27.77,27.77,0,0,0,237.14,615.61Z" transform="translate(-57.25 -77.42)"/><path class="cls-23" d="M206.59,551.76c1.46-1.52,2.92-3,4.39-4.57,6.59-4.59,13.13-9.24,20.84-11.86,5.26-.11,10.38-1.68,15.67-1.46a27.33,27.33,0,0,1,4.35.21c3.26.68,4.27,4.08,2,6.56-.7.77-2,1-2,2.37,1.63.37,11.29-1.55,14.87-3.06,1.47,4.1,1.12,8.07-.08,12.08-.76,2.51-3.08,2.94-5.05,3.67-8.1,3-16.54,3.55-25.11,3.71-9.81.2-18.89-2.57-27.92-5.82Z" transform="translate(-57.25 -77.42)"/><path class="cls-22" d="M198.92,418.79c2.71-6.35,3.6-13.09,4.33-19.86,3.51,1.4,7.12,2.59,10.5,4.27a33,33,0,0,0,14.7,3.14c4.09,0,4.28.26,3.88,4.35-.21,2.15-.66,4.28-1,6.42-.72,1.07-.14,2.45-.85,3.53a.78.78,0,0,0-.19.93c-.73,2.15-.67,4.61-2.67,6.27-2.64,2.18-5.67,4-8.8,2-3.6-2.31-3.22-6-1.71-9.61a5.82,5.82,0,0,1,.54-.79,6.28,6.28,0,0,1,1-1.05c-.5,0-.59.55-1,.79-3.47,4.27-.91,8.3.44,12.37-.06,1.46-.92,3,.22,4.36,2.15,2.2,4.16,4.53,7,5.91a4.16,4.16,0,0,1,2.37,5.41c-.74,2.52-2.3,3.38-5.53,3.18a10.42,10.42,0,0,1-7.18-3.49c-6.61-7.24-12.84-14.77-16.46-24.06a1,1,0,0,1,0-1.11Z" transform="translate(-57.25 -77.42)"/><path class="cls-24" d="M205.26,559.05c.33-1.5-1-3.43,1.14-4.48,10,5.66,20.95,7.58,32.31,7.65,1.45,0,2.89,0,4.34,0,2.36,0,5-1.74,6.91,1-13.6,4.56-27.07,5.12-40.38-1.1A9.85,9.85,0,0,1,205.26,559.05Z" transform="translate(-57.25 -77.42)"/><path class="cls-25" d="M233.71,620.05c-.6-1.82-2.47-3-2.45-5.15-.49-1.26.17-1.46,1.21-1.32,1.13,1.1,1.53,2.9,3.25,3.44,7.11,6.94,15.23,6.2,23.53,2.86a104.59,104.59,0,0,0,16.81-8.55c1.2-.47,1.43.12,1.23,1.15-5.36,5.4-11.29,9.9-18.55,12.56C249.31,628.51,241.18,626.08,233.71,620.05Z" transform="translate(-57.25 -77.42)"/><path class="cls-26" d="M217.09,322.62c-1.5-1.71-.78-3.79-1-5.72-.24-2.1.62-4.36-.85-6.29.23-6.92.85-13.84-.22-20.75.79-2.88-.84-6.08,1.17-8.79a12.12,12.12,0,0,0,3.47,4.37,1.23,1.23,0,0,0,.9.81l1,1.26c-.35,2.44-2.24,4.13-3.06,6.35-1.34,7.17-.65,14.38-.43,21.58C218.14,317.91,219.15,320.46,217.09,322.62Z" transform="translate(-57.25 -77.42)"/><path class="cls-27" d="M217.37,431.33c-3.75-5.61-3.79-7.86-.19-12.93,1.13-.22,1.61.19,1.3,1.35-1.9,4.61-1.69,7.83.6,9.25,2.59,1.61,6.68-.25,9.3-4.26.68-1,1.27-2.11,1.91-3.17.22.91.24,1.91,1.24,2.42,1.17,2.07-.2,3.22-1.58,4.37-1,.62-1.94,1.43-2.91,2.14l.1-.12C224.27,434.6,220.75,432.24,217.37,431.33Z" transform="translate(-57.25 -77.42)"/><path class="cls-28" d="M226,351.89a50.59,50.59,0,0,1-7.82-23.61c-.57-1.26-.32-2.6-.38-3.92a8.37,8.37,0,0,1,.15-1.58l.6-.53.74.3.37,2.83c.43,1.2,0,2.57.71,3.72,1,7.31,4.34,13.82,6.81,20.64C226.26,350.15,226.17,351,226,351.89Z" transform="translate(-57.25 -77.42)"/><path class="cls-29" d="M229.25,428.22c.76-1.41,2.26-2.42,2.28-4.23h0c.55-.66.41-1.61.91-2.29l.19.1c.31-.56.62-.56.94,0,.33,1.45.26,3,1.13,4.3v4.22c-1.78-.25-3.58-1.2-5.42-.63A.91.91,0,0,1,229.25,428.22Z" transform="translate(-57.25 -77.42)"/><path class="cls-30" d="M250,563.21c-2.12-1.58-4.68-.19-6.91-1,3.33-1,6.77-.92,10.19-1,.31.2.42.4.32.62s-.19.32-.29.32Z" transform="translate(-57.25 -77.42)"/><path class="cls-31" d="M277.29,612.48l-1.23-1.15a10.3,10.3,0,0,1,4.5-3,.87.87,0,0,1,0,1.41A7,7,0,0,1,277.29,612.48Z" transform="translate(-57.25 -77.42)"/><path class="cls-32" d="M285,606.05a6,6,0,0,1-3.41,3,1.07,1.07,0,0,1,0-1.41,3.31,3.31,0,0,1,3-1.82Z" transform="translate(-57.25 -77.42)"/><path class="cls-33" d="M253.27,562.1a1.67,1.67,0,0,1,0-.94c.81-1.26,2.07-1,3.28-1,.32.25.4.47.26.66a.5.5,0,0,1-.37.26Z" transform="translate(-57.25 -77.42)"/><path class="cls-34" d="M256.41,561.09c0-.31.06-.61.11-.92a3.67,3.67,0,0,1,.62-.77c.59-.39,1.47-.65,1.8,0s-.65.88-1.13,1.17A6.48,6.48,0,0,1,256.41,561.09Z" transform="translate(-57.25 -77.42)"/><path class="cls-35" d="M289.22,602.63a3,3,0,0,1-2.21,2.14c-.27-.25-.35-.49-.25-.72s.2-.34.3-.34c.38-1.09,1.22-1.21,2.2-1Z" transform="translate(-57.25 -77.42)"/><path class="cls-27" d="M230.48,420.64a4.2,4.2,0,0,1,.85-3.53C231.6,418.42,231.7,419.69,230.48,420.64Z" transform="translate(-57.25 -77.42)"/><path class="cls-36" d="M233.57,421.79l-.47-.06-.47.07c-.2-.68-.09-1.64.49-1.64S233.81,421.11,233.57,421.79Z" transform="translate(-57.25 -77.42)"/><path class="cls-27" d="M232.44,421.7a2.08,2.08,0,0,1-.91,2.29A2.07,2.07,0,0,1,232.44,421.7Z" transform="translate(-57.25 -77.42)"/><path class="cls-37" d="M290.34,601.61l.47-.52c0,.11,0,.26-.1.3a1.22,1.22,0,0,1-.43.15Z" transform="translate(-57.25 -77.42)"/><path class="cls-38" d="M289.26,602.67c0-.71.44-1,1.08-1.06l-.06-.06a1.1,1.1,0,0,1-1.06,1.08Z" transform="translate(-57.25 -77.42)"/><path class="cls-39" d="M287.06,603.71c0,.35-.05.7-.05,1.06l-1.08,0,.1.11C285.92,604.07,286.38,603.79,287.06,603.71Z" transform="translate(-57.25 -77.42)"/><path class="cls-40" d="M285.93,604.75c.25.86-.27,1.15-1,1.3l-.12-.24h-.27a1.24,1.24,0,0,1,1.47-.95Z" transform="translate(-57.25 -77.42)"/><path class="cls-41" d="M281.56,607.63l0,1.41-.94.69c0-.47,0-.94,0-1.41Z" transform="translate(-57.25 -77.42)"/><path class="cls-22" d="M227.23,181.64c-.22-.25-.48-.75-.64-.72-2.86.49-3-1.27-2.82-3.33,2-2.27,4.69-2.21,7.34-2.37-.57-2.34-.62-4.57,1.45-6.31.65-.59.43-1.61,1.08-2.2h0a1,1,0,0,1,1.29-.22,13,13,0,0,1,2.09,3,10.58,10.58,0,0,0,4.15,3.87,4.35,4.35,0,0,0,2.48.46c.38-.11.76-.2,1.14-.32s1-.39,1.53-.63c.31-.17.62-.34.91-.53a4.07,4.07,0,0,0,1-1.23c.15-.36.31-.7.46-1a13.76,13.76,0,0,1,.74-1.77c.57-1.59,2.77-.92,3.35-2.46a9.48,9.48,0,0,1-.54-1,2.76,2.76,0,0,1-.13-2.41l3,.15c.56.07.94.51,1.44.69q7.4,2.66,14.78,5.29c4.83,1.72,5.77,2.34,5.4,7-.29,3.65-.09,7.5-2,11-1,1.74-1.65,3.33-3.6,4.26-1.76.84-2.58,2.76-3.6,4.37a32.23,32.23,0,0,0-2,3.78,5.54,5.54,0,0,1-2.82,2.39c-2,1.08-1.68-2.9-3.8-1.78a14,14,0,0,0-3.86,2.73c-.71-2.41-4.61-.51-4.84-3.58-.26-3.64-2.4-5-5.83-5.85-3.08-.75-5.87-2.68-8.82-4-2.32-1-4.69-2-7.32-1.18-.89-.93-.52-2.07-.53-3.14,1.68-2.33,3.75-1.06,5.72-.64a4,4,0,0,0,2.13-.08q.67-.2,1.35-.33a3.12,3.12,0,0,1,4.37-.29c.57.35,1.11.74,1.66,1.12a25.19,25.19,0,0,1,1.79,1.79,2.77,2.77,0,0,1,.33,1c.2.4.26.48.05-.11a1.87,1.87,0,0,0-.61-1.32,4.23,4.23,0,0,1-.71-.87c-.21-.3-.41-.61-.62-.92-.12-.14-.22-.3-.33-.44s-.48-.55-.73-.82-.25-.27-.38-.39-.51-.52-.77-.78-.25-.26-.39-.39-.53-.5-.8-.76l-.39-.38c-.26-.22-.51-.47-.75-.69a3.24,3.24,0,0,1-.37-.19s-.42.1-.4.14a6,6,0,0,1-.09,2.95,4.62,4.62,0,0,1-.82,1.18C233.37,184.7,230.59,181.46,227.23,181.64Z" transform="translate(-57.25 -77.42)"/><path class="cls-42" d="M263.05,234.3l-5.44-7.67c4.8-4.56,10.7-7.2,16.75-9.59,9.82-4.49,18.88-10.31,28-16,4.09-2.57,8-5.38,12-8.08,14.24-8,27.85-16.95,41.58-25.74,8.23-5.27,16.58-10.35,24.36-16.29,2.37-1.81,5.26-2.67,7.75-4.41,3-2.09,8.64.19,11,3.65a9.65,9.65,0,0,1,2.05,6.41c-2.4-2.06-4.77-1.62-7.15-.6-6.59,3.45-14.24,4.17-20.65,8-2.46,1.73-4.91,3.46-7.22,5.38a10.24,10.24,0,0,1-1.26.79c-2.85,1.43-5.47,3.26-8.25,4.79-.79.53-1.6,1-2.44,1.5a42.24,42.24,0,0,0-5.31,3.23q-2.34,1.49-4.6,3.06c-.77.57-1.56,1.11-2.36,1.64-4.13,2.73-8.18,5.58-12.48,8a56.83,56.83,0,0,1-5.53,4.22c-.72.5-1.46,1-2.22,1.4a22.91,22.91,0,0,0-2.58,1.8,9,9,0,0,1-1.06.67c-.92.53-1.73,1.22-2.63,1.79s-2,1-2.91,1.62c-1.37.87-2.72,1.79-4.06,2.73a17.6,17.6,0,0,1-1.76,1.2,50.74,50.74,0,0,0-6.74,3.81,10.67,10.67,0,0,1-1.16.72c-1,.53-1.87,1.19-2.78,1.81-1.12.67-2.19,1.42-3.25,2.17s-2.19,1.44-3.28,2.18c-1,.58-2,1-3,1.62a34.37,34.37,0,0,0-3.29,2.59,10.7,10.7,0,0,1-1.18.81c-1.42.85-2.8,1.77-4.17,2.7a29,29,0,0,1-4.23,2.41c-.81.41-1.63.81-2.4,1.28a32.62,32.62,0,0,0-3.2,2.53,13,13,0,0,1-1.16.77C265.62,233.71,264.65,235.13,263.05,234.3Z" transform="translate(-57.25 -77.42)"/><path class="cls-43" d="M229.41,157.92c-1-4.61,1.15-8.72,2-13,2.08-2.94,3.95-6,6.8-8.35,9.12-7.48,20.4-5.51,27.32,1.71a4.13,4.13,0,0,1,1.32,4.29c-.7,3-1,6-2.18,8.91-1,2.46.19,4.41,2.67,5.42.38-.46.72-.41,1,.08.11,2.78,2.55,3.2,4.22,3.06,3.2-.28,3.69,1.24,3.58,3.74,0,.88,0,1.76,0,3.25L254,159.38a2.92,2.92,0,0,1-1.67-1.15,11.46,11.46,0,0,0-13.8-4.39c-1.86.76-3,2.09-1.73,4.23.79.62.75,1.26,0,1.92C234,160.41,232.39,156.76,229.41,157.92Z" transform="translate(-57.25 -77.42)"/><path class="cls-25" d="M256.45,225.51l-9.56.15c-1.15.58-1.33,0-1.22-1,6.68-1.3,12.32-4.92,17.49-8.93,6.37-4.94,12-10.78,15.09-18.55.42-.6.83-.59,1.24,0,1.4,1.14.23,2.35-.1,3.37a19,19,0,0,0-1,7.88c.37,3.14-.8,5.09-3.68,6.21a10.37,10.37,0,0,0-1.78,1.15C268.5,220.86,262.4,223.05,256.45,225.51Z" transform="translate(-57.25 -77.42)"/><path class="cls-44" d="M232.63,197.06c4.05-1.17,8-1.62,12.05.36,1.82.9,2.86,2,2.81,4.11s.14,4-.06,5.93c-.32,3-2.14,4.49-5.47,4.83-.34,0-.7-.13-1-.07-5.31,1-5.31,1-8.48-.79-.1-2.23,1.87-3.7,2.1-5.81.33-.42.76-.74,1.12-1.13.91-1,2.89-1.33,2.55-3s-2.12-1.62-3.48-1.94a4.73,4.73,0,0,1-2.36-1.1A1.34,1.34,0,0,1,232.63,197.06Z" transform="translate(-57.25 -77.42)"/><path class="cls-45" d="M236.06,162.46a2.2,2.2,0,0,0,2-2.28c.1-.17.21-.34.31-.52a5.56,5.56,0,0,1,1.55-.93l1.11-.49a9.67,9.67,0,0,1,2.4-.29c2.22,0,5-1,4.8,3.21-2.59.69-5.79,0-8.68,2a5,5,0,0,0,3.48,2.66c.81.12,1,.68,1,1.39a2.32,2.32,0,0,1-1.22,1.33c-.08.15-.66,0-.24.46-.17-.29,0-.47.41-.54a3.59,3.59,0,0,0,1.11-.7c4.13-2.06,4.72-1.77,4.53,2.15-.59.79-.94,1.73-1.61,2.47a13,13,0,0,1-1.3.76c-.72.3-1.43.63-2.16.9-4,.3-5.8-2.35-7.34-5.39C235.68,166.6,233.51,164.6,236.06,162.46Z" transform="translate(-57.25 -77.42)"/><path class="cls-46" d="M280.26,190.58c.2-1.61.39-3.22.58-4.8,1.08-.42,1.57.58,2.33.85,2.48.89,4.2.1,3.91-2.44-.39-3.54,1.42-3.46,3.78-3.38,1,0,2.22.3,2.74-1.05,1.18-.85,2-.44,2.53.76-.51,4.67-4.71,6.18-7.58,8.83-2.05,1.5-4.48,1.64-6.87,1.9A2.26,2.26,0,0,1,280.26,190.58Z" transform="translate(-57.25 -77.42)"/><path class="cls-47" d="M295.6,180.47c-.62-.37-1.17-.94-2-.71-.37-.94-.74-1.88-1.12-2.82-.68-2.2-1.9-1.15-3.06-.52l-2.41-1c.23-4,3.39-4.21,6.13-4.3,3.54-.11,5.5,2.09,6,5.55.48,1,.15,2.21,1,3.08a5.35,5.35,0,0,1-2.12,3.34c-.54-.54-1.33-.36-1.94-.7A1.52,1.52,0,0,1,295.6,180.47Z" transform="translate(-57.25 -77.42)"/><path class="cls-48" d="M298.88,177.78c-.15-.09-.39-.16-.44-.29-2.71-6.94-5.26-7.41-11.43-2.1l-2,1.19c-1.17.2-1.88-.05-1.39-1.45a15.54,15.54,0,0,1,6.77-5.06c6.08-2.19,10,.83,9.69,7.5A.71.71,0,0,1,298.88,177.78Z" transform="translate(-57.25 -77.42)"/><path class="cls-49" d="M280.26,190.58l1.46,0c2-1.12,4.51.14,6.54-1.14a2.52,2.52,0,0,1,1.45-.3c.21.14.42.28.64.41-2.24,5-3.15,5.58-8,4.74-2.35-.4-3.39.41-2.89,2.85h-1.24C279.3,195.09,277.39,192.11,280.26,190.58Z" transform="translate(-57.25 -77.42)"/><path class="cls-50" d="M256.45,225.51c5.16-3.78,10.92-6.55,16.44-9.71l1.47,1.24c-5.05,4.14-11,6.61-16.75,9.59Z" transform="translate(-57.25 -77.42)"/><path class="cls-51" d="M247.82,170c.37-1.67.83-3.41-2-2.29l-2.41,1c-.26-.21-.34-.42-.25-.62s.17-.31.26-.31c-.11-.64-.23-1.28-.35-1.91l3.44-.17a8.53,8.53,0,0,1,2.59-1.17,4,4,0,0,0,2-2.2.93.93,0,0,1,1.13.09h-.16c.39.77,1.92.93,1.24,2.28a2.73,2.73,0,0,1-1.89.38,4.66,4.66,0,0,1,1.92.37c1,.48,2.41.54,2.64,2.16-1.2,1.23-2.57.27-3.82.15-1.66-.16-2.18.66-2.28,2.08a1.51,1.51,0,0,1-1,.7A1.17,1.17,0,0,1,247.82,170Z" transform="translate(-57.25 -77.42)"/><path class="cls-52" d="M230.3,211.31c-3.67-1.82-3.91-2.31-3.11-6.46a2,2,0,0,1,1.28-.63,4.75,4.75,0,0,1,3.24,1.49C232.39,207.86,232.61,209.91,230.3,211.31Z" transform="translate(-57.25 -77.42)"/><path class="cls-53" d="M230.3,211.31c1-1.62.36-3.54.94-5.24a2.46,2.46,0,0,1,3.81.13c1.45,1.5,1.56,2.77-.59,3.74-.76.34-1.84.33-2,1.49Z" transform="translate(-57.25 -77.42)"/><path class="cls-54" d="M232.63,197.06a4.2,4.2,0,0,0-.11,1,1.48,1.48,0,0,1-.58,1c-.46.37-.95.72-1.44,1.08a4.07,4.07,0,0,1-2.25,1,1.31,1.31,0,0,1-1-.61C226.9,195.84,227.57,195.41,232.63,197.06Z" transform="translate(-57.25 -77.42)"/><path class="cls-55" d="M297.07,183.27c-.8,2.13-1.18,4.74-4.53,4l-.22-.7c1-1.71,2.14-3.29,4.22-3.81Z" transform="translate(-57.25 -77.42)"/><path class="cls-56" d="M243.47,158c-.77,1.25-2,1.22-3.26,1.27a.82.82,0,0,1-.31-.86c.1-.29.19-.43.29-.43l-.08.07c.64-.62,1.71-.45,2.27-1.22.31-.63.84-1.13,1.43-.54S243.62,157.38,243.47,158Z" transform="translate(-57.25 -77.42)"/><path class="cls-57" d="M289.42,176.42c2.12-2.35,3.16-2.48,4-.45.19.44-.41.85-1,1Z" transform="translate(-57.25 -77.42)"/><path class="cls-58" d="M228.16,184.41c0,1.1.05,2.19.08,3.28-.12.69-.62.84-1.22.84.1-1.66.2-3.32.29-5,.41-.23.84-.47,1.15.08C228.57,183.83,228.4,184.14,228.16,184.41Z" transform="translate(-57.25 -77.42)"/><path class="cls-59" d="M245.67,224.66l1.22,1a2.59,2.59,0,0,1-2,1.17l-1.64-.27C243.26,224.9,244,224.23,245.67,224.66Z" transform="translate(-57.25 -77.42)"/><path class="cls-60" d="M283.64,175.13c.46.49.93,1,1.39,1.45l-1.37,2c-1,.24-1.54,0-1.17-1.16C282.64,176.55,282.57,175.55,283.64,175.13Z" transform="translate(-57.25 -77.42)"/><path class="cls-61" d="M240.19,157.93c0,.43,0,.86,0,1.29l0-.11c-.67.56-1.73.33-2.27,1.15l.11-.08-1.3-.19,0-1.92Z" transform="translate(-57.25 -77.42)"/><path class="cls-62" d="M282.49,177.43l1.17,1.16-1.08,2.2a.93.93,0,0,1-1.43.12C281.57,179.74,281.27,178.29,282.49,177.43Z" transform="translate(-57.25 -77.42)"/><path class="cls-63" d="M268.39,157l-.52.08-.5-.16c.3-.84.83-1.89,1.71-1.4C269.8,155.87,269.12,156.66,268.39,157Z" transform="translate(-57.25 -77.42)"/><path class="cls-64" d="M249.1,164.47c-.41,1.4-1.56,1.15-2.59,1.17C247.22,164.92,247.21,162.58,249.1,164.47Z" transform="translate(-57.25 -77.42)"/><path class="cls-65" d="M281.15,180.91l1.43-.12c-.33.76-.64,1.89-1.56,1.67C280.25,182.27,280.44,181.39,281.15,180.91Z" transform="translate(-57.25 -77.42)"/><path class="cls-44" d="M228.43,204.72l-1.24.13c0-.76,0-1.52,0-2.28l.67-.1A1.49,1.49,0,0,1,228.43,204.72Z" transform="translate(-57.25 -77.42)"/><path class="cls-66" d="M242.38,156.78c-.28,1.29-1.34,1.14-2.27,1.22C240.38,156.7,241.49,156.94,242.38,156.78Z" transform="translate(-57.25 -77.42)"/><path class="cls-67" d="M298.88,177.78l1.22-.21c0,.72,0,1.43,0,2.15C298.86,179.62,299.13,178.53,298.88,177.78Z" transform="translate(-57.25 -77.42)"/><path class="cls-51" d="M256.56,163.2a1.1,1.1,0,0,1-1.44-.69A1.15,1.15,0,0,1,256.56,163.2Z" transform="translate(-57.25 -77.42)"/><path class="cls-68" d="M252.25,162.36l-1.13-.09c0-.62.31-.94.9-.72C252.17,161.6,252.18,162.08,252.25,162.36Z" transform="translate(-57.25 -77.42)"/><path class="cls-44" d="M227.22,200.48a6.15,6.15,0,0,1,1.05,0,1.11,1.11,0,0,1-.43,1.21l-.71-.09Z" transform="translate(-57.25 -77.42)"/><path class="cls-69" d="M292.54,187.26a1.14,1.14,0,0,1-1.19,1.26c-.05-.2-.11-.41-.17-.62.29-.65.68-1.08,1.42-.54Z" transform="translate(-57.25 -77.42)"/><path class="cls-70" d="M296.83,181.94c1.09-.35,1.06.46,1.17,1.12l-.44.24-.5,0-.13-.16q-.53-.34-.39-.75C296.63,182.07,296.73,181.94,296.83,181.94Z" transform="translate(-57.25 -77.42)"/><path class="cls-71" d="M291.35,188.52c0,.71-.05,1.3-1,1.08v.06c-.38-1,0-1.34,1-1.07Z" transform="translate(-57.25 -77.42)"/><path class="cls-44" d="M227.15,202.57c-.49.22-.93.1-.94-.43s.42-.69.92-.5l-.1-.1c.35.26.47.51.35.77s-.24.38-.36.38Z" transform="translate(-57.25 -77.42)"/><path class="cls-22" d="M261.82,252.58l1.45-17c.78-1.1,2-1.65,2.94-2.61a6.7,6.7,0,0,1,1.31-.43c1.12-.86,2-2,3.09-2.88a10.91,10.91,0,0,0,2.53-1.27,12.93,12.93,0,0,0,4.81-2.82,11.34,11.34,0,0,0,3.33-2.28,3,3,0,0,1,1.24-.44c1.38-.77,2.16-2.22,3.47-3.07,1.12-.27,2-1.07,3.14-1.32a22.49,22.49,0,0,1,4-2.73,5,5,0,0,1,2.25-1.54c1.15-.36,1.66-1.55,2.69-2.07a8.9,8.9,0,0,0,1.34-.38,49.22,49.22,0,0,1,7.93-4.72,9.15,9.15,0,0,1,1.17-.78c1.47-.7,2.56-2,4-2.67a13.35,13.35,0,0,1,2.29-1.32c1.14-.24,1.63-1.31,2.48-1.92a3.67,3.67,0,0,1,1.2-.39c1-.48,1.5-1.52,2.47-2a11.25,11.25,0,0,0,2.92-1.56c2.06-1.17,3.53-3.09,5.56-4.29,4.29-2.52,8.43-5.26,12.5-8.12.83-.49,1.57-1.11,2.4-1.59,1.65-.88,2.94-2.28,4.67-3,1.79-1,3.44-2.29,5.28-3.24.78-.51,1.53-1.05,2.34-1.53,2.79-1.27,5.25-3.11,7.92-4.59a5,5,0,0,0,1.65-1.12,8,8,0,0,1,1-.81c.36-.25.71-.51,1-.79l.54-.38a13,13,0,0,1,1.18-.59,2,2,0,0,1,1.23.27c.33.28.64.59.94.89,2.79.2,1.15-2,1.6-3a2.5,2.5,0,0,1,.67-1.38c7-3,13.91-6.16,21.76-6,5.7,1.95,5.79,2.19,4.39,7.49a14,14,0,0,1-6.08,8.4c-20.44,14.36-42.06,26.86-63.11,40.24-7.31,4.64-14.36,9.7-21.52,14.57-3.27,4.28-8.29,6.1-12.63,8.84-4.07,2.57-8.55,4.52-12.72,7-2.42,1.13-4.38,3-6.87,4.05-.43.2-.85.4-1.26.63-1.85,1-3.29,2.5-5.08,3.55a4.56,4.56,0,0,1-1.25.45c-.9.13-1.49.92-2.37,1.11-1.11.35-1.61,1.51-2.6,2a8.19,8.19,0,0,0-1.33.42c-.84.51-1.7,1.12-2.34-.25A5.93,5.93,0,0,1,261.82,252.58Z" transform="translate(-57.25 -77.42)"/><path class="cls-72" d="M283.83,243.15l26.11-15.45c.31.88.63,1.75.94,2.63-2.32.06-3.9,1.69-5.64,2.85-6.41,4.24-13.34,7.51-20.13,11C283.93,244.76,283.72,244.14,283.83,243.15Z" transform="translate(-57.25 -77.42)"/><path class="cls-73" d="M396.26,157c-5.1,1.5-10.22,2.93-15.28,4.55-2.19.71-4.51,1.22-6.4,2.67-1.21,1-2.18,1.27-2.45-.75A56.09,56.09,0,0,1,394,155.94C394.5,156.79,395.47,156.7,396.26,157Z" transform="translate(-57.25 -77.42)"/><path class="cls-22" d="M206.29,250.54c.71-1.44,1.43-2.87,2.14-4.31a28.68,28.68,0,0,1,3.12-2.84c2.36-1.58,4.85-2.19,7.33-.15a2.9,2.9,0,0,0,2.74.82c.93-1.46-1.83-2.48-.91-4,3-1.83,5.78-4.35,9.85-2.9.76.27,2.72-.61,1.48-1.75-1.86-1.69-.87-2.31.47-3.07a10.12,10.12,0,0,1,10.26-.31c1.23.65,2.23,1,2.4-.44.45-3.92,3.4-2.69,5.34-2.47s4.09,1.38,6.05,2.3a4.08,4.08,0,0,1,2.36,4.52c-1.5,9.15-1.18,18.42-1.9,27.62-.15,1.87-1,2.29-2.72,2.57a29.33,29.33,0,0,0-9.76,3.07c-6.93,4.72-14.68,8.3-20.29,14.84-1,1.15-1.91.21-2.66-.62-1.18-2.4-2.37-4.78-3.74-7.1a18.15,18.15,0,0,1-2.39-13.45,31,31,0,0,0,.71-5.34c.22-5.2-2.15-7.32-7.23-6.55a16.93,16.93,0,0,0-2.56.82A.82.82,0,0,1,206,251C206.11,250.69,206.2,250.54,206.29,250.54Z" transform="translate(-57.25 -77.42)"/><path class="cls-74" d="M221.59,283.43c1.88,1.39,2.45-.48,3.36-1.39,5.64-5.64,11.89-10.34,19.59-12.83l1.4,1.2c-2.61,2.22-6,2.91-8.88,4.72a64.31,64.31,0,0,0-12.74,10.5C222.91,285.51,221.67,285.19,221.59,283.43Z" transform="translate(-57.25 -77.42)"/><path class="cls-75" d="M266.39,233.56a3.67,3.67,0,0,1-3.12,2l-.22-1.24,3.38-2a.75.75,0,0,1,.27.84C266.6,233.43,266.49,233.56,266.39,233.56Z" transform="translate(-57.25 -77.42)"/><path class="cls-76" d="M262,256l2.24-.8q.5.39.33.78c-.1.27-.21.4-.33.4-.39,1.13-1.36,1.45-2.39,1.68a.4.4,0,0,1,.16-.65A.88.88,0,0,1,262,256Z" transform="translate(-57.25 -77.42)"/><path class="cls-77" d="M262,256v1.41c-2-1.53-1.06-3.15-.17-4.78C261.87,253.7,261.93,254.83,262,256Z" transform="translate(-57.25 -77.42)"/><path class="cls-78" d="M213.9,276.81c.65,3.7-.92,5.93-4.15,7.86-18,10.74-35.8,21.67-53.65,32.58-1.51.92-3.23,1.59-4.37,3.07-3,.91-2.58-1.73-3.34-3.17a1.28,1.28,0,0,1,0-1.2,2.48,2.48,0,0,0,.3-1c.23-2.07,2.09-3.12,3-4.79.12-.2.26-.39.38-.59l.41-.57a11.21,11.21,0,0,1,.9-1.06c1.16-1.1,2.27-2.26,3.53-3.27a12.64,12.64,0,0,1,1.14-.77,22.2,22.2,0,0,0,2.69-2.12l.54-.42a13.3,13.3,0,0,1,1.12-.72,14.25,14.25,0,0,0,3-2.48,8.2,8.2,0,0,1,1-.88l.53-.39c.35-.25.72-.48,1.1-.7a29.34,29.34,0,0,0,3.05-2.41,9.74,9.74,0,0,1,1.08-.73,26.83,26.83,0,0,0,3.07-2.35,7.77,7.77,0,0,1,1.09-.7,22.27,22.27,0,0,0,2.67-1.85c.36-.27.73-.51,1.11-.75.94-.62,1.77-1.39,2.65-2.09a10.45,10.45,0,0,1,1.13-.74,21.89,21.89,0,0,0,2.73-1.86c.36-.27.74-.51,1.12-.74,1.34-.83,2.65-1.69,4-2.59.74-.53,1.49-1,2.26-1.54,1.88-1.35,3.66-2.83,5.53-4.2,3-2.32,4.94-6,9.1-6.69,1-.36,2.15-1.69,2.6.71C211.71,270.79,211.74,274.14,213.9,276.81Z" transform="translate(-57.25 -77.42)"/><path class="cls-21" d="M146.38,313.89c-1.29-1.83-3.39-2.64-5.59-4.39l69.44-52.9c1.23,4.08,1.22,7.32-2.73,9.41-2.09,2.81-4.83,5-7.2,7.54a7.17,7.17,0,0,1-1.2.84c-2,.83-3.21,2.89-5.24,3.75a17.92,17.92,0,0,0-2.71,2.21,6.66,6.66,0,0,0-2.8,1.84,2.52,2.52,0,0,1-1.18.55c-1.13.27-1.62,1.38-2.52,1.95a10.26,10.26,0,0,1-1.23.37c-1,.76-1.8,1.8-2.77,2.64a2.51,2.51,0,0,1-1.16.5c-1.11.29-1.6,1.39-2.5,2-.41.14-.83.27-1.25.37-1.05.82-1.85,1.89-2.88,2.73a3,3,0,0,1-1.24.44,20.88,20.88,0,0,0-2.93,2.71c-.49.45-1.15.67-1.64,1.13l.13-.11a3.6,3.6,0,0,1-1.13.63c-1.06.79-1.86,1.85-2.83,2.73-.49.44-1.14.65-1.62,1.11l.1-.08a20.2,20.2,0,0,0-3.12,2.42,4.65,4.65,0,0,1-1.26.41,33.29,33.29,0,0,0-3.78,3.73,3.89,3.89,0,0,1-.65,1.16l.1-.13c-.49.54-.75,1.24-1.26,1.77C150.06,312.3,149.28,315.18,146.38,313.89Z" transform="translate(-57.25 -77.42)"/><path class="cls-21" d="M120.3,324.88l13.14-11a9.41,9.41,0,0,1,12.83,7.17,2.07,2.07,0,0,1-1.45,2.5c-7.21,3.23-13.91,7.69-21.89,9.06a19.38,19.38,0,0,1-2.6.65c-3.2.07-4.25-1.63-2.7-4.36C118.43,327.52,119.4,326.23,120.3,324.88Z" transform="translate(-57.25 -77.42)"/><path class="cls-79" d="M199.73,273.1c2.45-2.52,4.59-5.38,7.77-7.09.34.31.68.62,1,.94a60.51,60.51,0,0,1-8.68,7.62l-.44-.39A1.68,1.68,0,0,1,199.73,273.1Z" transform="translate(-57.25 -77.42)"/><path class="cls-80" d="M146.38,313.89c2.63.33,3-2.62,4.84-3.37a1.6,1.6,0,0,1,1.61,0,10.44,10.44,0,0,1-4.15,4.43C147.69,315.08,146.76,315.07,146.38,313.89Z" transform="translate(-57.25 -77.42)"/><path class="cls-74" d="M218.57,292.07a10.64,10.64,0,0,1,3-4.56l.92,1.17a16.68,16.68,0,0,1-2.89,4.69C218.86,293.23,218.78,292.6,218.57,292.07Z" transform="translate(-57.25 -77.42)"/><path class="cls-81" d="M206.29,250.54l.09,1.27a.94.94,0,0,1-1.11,1.05C205.3,252,205.34,251,206.29,250.54Z" transform="translate(-57.25 -77.42)"/><path class="cls-80" d="M148.38,316c0,.4,0,.8,0,1.2C147.63,316.76,147.54,316.36,148.38,316Z" transform="translate(-57.25 -77.42)"/><path class="cls-82" d="M204.1,252.79l1.24,0c-.14.28-.22.75-.42.8C204.3,253.78,204.2,253.25,204.1,252.79Z" transform="translate(-57.25 -77.42)"/><path class="cls-74" d="M223.71,286.57a1.16,1.16,0,0,1-.87,1.35A1.35,1.35,0,0,1,223.71,286.57Z" transform="translate(-57.25 -77.42)"/><path class="cls-74" d="M220.56,286.25c-.59.05-.84-.27-.9-.81A.94.94,0,0,1,220.56,286.25Z" transform="translate(-57.25 -77.42)"/><path class="cls-83" d="M217.37,431.33a12.87,12.87,0,0,0,9.77-.95c.1,3.93,3.46,1.09,5.12,2.57.08,3.24-2.7,4-5,5s-3.67-.6-5-2.08c-.36-.4-.64-.87-1-1.25-.69-.68-.6-2.44-2.06-2-1.68.53-.67,2.12-.83,3.24C216.67,434.66,217.39,432.91,217.37,431.33Z" transform="translate(-57.25 -77.42)"/><path class="cls-84" d="M229.25,428.22l0,1.46c-.51.92-1.37.9-2.24.82C227.18,429.16,228.3,428.77,229.25,428.22Z" transform="translate(-57.25 -77.42)"/><path class="cls-11" d="M198.58,421.72v1.11a5.75,5.75,0,0,1-.36-.8C198.2,422,198.46,421.82,198.58,421.72Z" transform="translate(-57.25 -77.42)"/><path class="cls-85" d="M232.47,613.58l-1.21,1.32c-1.26-1.35-1-3-.87-4.6.34-.54.66-.5,1,0Z" transform="translate(-57.25 -77.42)"/><path class="cls-86" d="M231.35,610.34l-.48-.11-.48.07a3.76,3.76,0,0,1-.17-1c.06-.49.25-1.37.41-1.37,1,0,.64.86.76,1.4A3.66,3.66,0,0,1,231.35,610.34Z" transform="translate(-57.25 -77.42)"/><path class="cls-48" d="M226,173.3c-4.4-.75-4.47-.85-4.5-6.65,2.67-.53,4.21,1.6,5.78,3S227.92,172.56,226,173.3Z" transform="translate(-57.25 -77.42)"/><path class="cls-87" d="M223.79,163c3.05-2.06,3.05-2.06,4.22,2.61C226,165.49,224.92,164.17,223.79,163Z" transform="translate(-57.25 -77.42)"/><path class="cls-88" d="M236.06,162.46c-.5,2.23.25,4.29.87,6.37.49,1.15-.08,1.32-1,1.12a5.4,5.4,0,0,1-1.42-3.16c-.36-1.5-.73-3,.21-4.43Z" transform="translate(-57.25 -77.42)"/><path class="cls-89" d="M234.68,162.36a11.39,11.39,0,0,1-.21,4.43l-.42.07-.41-.15C233.76,165.21,231.49,163.14,234.68,162.36Z" transform="translate(-57.25 -77.42)"/><path class="cls-89" d="M233.64,166.71a1.86,1.86,0,0,1-1.07,2.2A1.94,1.94,0,0,1,233.64,166.71Z" transform="translate(-57.25 -77.42)"/><path class="cls-22" d="M229.82,168.51a5.27,5.27,0,0,1,.3.84c0,.09-.2.21-.31.32-.11-.11-.32-.24-.31-.33A5.93,5.93,0,0,1,229.82,168.51Z" transform="translate(-57.25 -77.42)"/><path class="cls-90" d="M228.16,184.41a.9.9,0,0,0-.85-.86c0-.63-.05-1.27-.08-1.91,2-1.6,4-2.42,5.77.22,1.07,1.61,2.33,1.21,3.7.71a.92.92,0,0,1,.18,1.5l-.23.25-.33-.07a3.13,3.13,0,0,0-1.6.83C232.43,185.85,230.43,183.79,228.16,184.41Z" transform="translate(-57.25 -77.42)"/><path class="cls-91" d="M218.57,292.07l1,1.3c-1.45,4.57-.77,9.29-.89,13.95-.06,2.33-.14,4.66-.21,7a15.64,15.64,0,0,1-.12,8.23h0c-.34.52-.65.47-.93-.06l-.34.13c0-7.76,0-15.51-.05-23.26C217,296.8,217.11,294.3,218.57,292.07Z" transform="translate(-57.25 -77.42)"/><path class="cls-92" d="M283.83,243.15l1.28,1.08a22.88,22.88,0,0,1-6.87,4,1.88,1.88,0,0,1-1.14-1A26.79,26.79,0,0,1,283.83,243.15Z" transform="translate(-57.25 -77.42)"/><path class="cls-93" d="M270.65,251.5a12.87,12.87,0,0,1,5.56-3.95,2,2,0,0,1,1.14.95c-2.13,1.52-4.12,3.29-6.69,4.1-.34-.24-.46-.48-.35-.73S270.54,251.5,270.65,251.5Z" transform="translate(-57.25 -77.42)"/><path class="cls-94" d="M218.36,322.55l.12-8.23a20.48,20.48,0,0,1,.84,8.23h-1Z" transform="translate(-57.25 -77.42)"/><path class="cls-95" d="M265.21,254.69a2.8,2.8,0,0,1,2.29-1.7.8.8,0,0,1,0,1.35,3,3,0,0,1-2.34,1.56.77.77,0,0,1-.25-.81C265,254.82,265.12,254.69,265.21,254.69Z" transform="translate(-57.25 -77.42)"/><path class="cls-96" d="M220.4,329.1a3.43,3.43,0,0,1-.71-3.72A5,5,0,0,1,220.4,329.1Z" transform="translate(-57.25 -77.42)"/><path class="cls-97" d="M267.52,254.34c0-.45,0-.9,0-1.35l2.12-1c.31.19.41.38.31.56s-.2.29-.31.29C269.37,253.93,268.28,253.91,267.52,254.34Z" transform="translate(-57.25 -77.42)"/><path class="cls-98" d="M277.35,248.5l-1.14-.95a1.12,1.12,0,0,1,.89-.3l1.14,1A1.1,1.1,0,0,1,277.35,248.5Z" transform="translate(-57.25 -77.42)"/><path class="cls-99" d="M265.21,254.69l0,1.21a2,2,0,0,1-1,.43v-1.18Z" transform="translate(-57.25 -77.42)"/><path class="cls-100" d="M269.62,252.81c0-.28,0-.57,0-.85l1-.46c0,.37,0,.73,0,1.1Z" transform="translate(-57.25 -77.42)"/><path class="cls-96" d="M218.35,323.67c0,1.54-.09,3.08-.14,4.61a8.33,8.33,0,0,1-.78-4.66C217.76,323.26,218.06,323.27,218.35,323.67Z" transform="translate(-57.25 -77.42)"/><path class="cls-94" d="M218.35,323.67l-.92-.05v-1.13a4.85,4.85,0,0,0,.93.06C218.36,322.92,218.35,323.3,218.35,323.67Z" transform="translate(-57.25 -77.42)"/><path class="cls-101" d="M258.39,586.92a9.88,9.88,0,0,1,1.51,1.21c.82.92,1.49,2,2.31,2.9.65.72,2.34,1,1.54,2.31s-2.29.93-3.37.27a6.73,6.73,0,0,1-3.35-5.18C257,587.64,257.4,587.11,258.39,586.92Z" transform="translate(-57.25 -77.42)"/><path class="cls-91" d="M264.25,582.38a11.38,11.38,0,0,1,6.28,3.74,1.54,1.54,0,0,1,.17,2,1.85,1.85,0,0,1-1.42.46C266.88,588.23,264.86,585.82,264.25,582.38Z" transform="translate(-57.25 -77.42)"/><path class="cls-102" d="M271.47,575.3c1.55,2,3.77,2.88,5.35,4.51a1.23,1.23,0,0,1,0,1.87,2,2,0,0,1-1.46.36C272.61,581.52,270.93,578.91,271.47,575.3Z" transform="translate(-57.25 -77.42)"/><path class="cls-101" d="M230,539.33a6,6,0,0,1,3.6,2.36c1,1.1,2.06,2.51.76,3.76s-2.09-.62-2.95-1.29a15.37,15.37,0,0,1-2.59-2.69,1.6,1.6,0,0,1-.09-1.46C228.92,539.64,229.57,539.52,230,539.33Z" transform="translate(-57.25 -77.42)"/><path class="cls-103" d="M244.56,541.58a1,1,0,0,1-.9,1.12c-1.57.4-5.74-1.88-6.3-3.42a1.26,1.26,0,0,1,.86-1.67c1.18-.47,5.68,2.09,6.26,3.46A2.17,2.17,0,0,1,244.56,541.58Z" transform="translate(-57.25 -77.42)"/><path class="cls-104" d="M245.57,535.66c1.18,0,4,2.48,4.19,3.81a1.08,1.08,0,0,1-.73,1.26c-1.72.64-2.66-.53-3.65-1.59a2.51,2.51,0,0,1-.66-2.94C244.84,535.94,245.28,535.84,245.57,535.66Z" transform="translate(-57.25 -77.42)"/><path class="cls-105" d="M218.48,419.75l-1.3-1.35c1.25-2,3-2.71,5.45-1.89C221.55,418.23,219.73,418.63,218.48,419.75Z" transform="translate(-57.25 -77.42)"/><path class="cls-106" d="M236.88,184.07l-.18-1.5a.48.48,0,0,1,.32-.63c1-1.29-.17-3.06,1-4.32.73-.22,1,.17,1.18.82a4.37,4.37,0,0,0,.94,1.36l0,.06a8.52,8.52,0,0,1,1.06,1l0,0a5.06,5.06,0,0,0,1.23,1l-.07,0A2.36,2.36,0,0,0,243.6,183l-.06-.08a3.45,3.45,0,0,0,.94,1.26.4.4,0,0,1,.2.61,1.35,1.35,0,0,1-.26,1.82c-1-.09-1.49-.89-2.11-1.52-.37-.27-.73-.56-1.08-.86A3.28,3.28,0,0,0,236.88,184.07Z" transform="translate(-57.25 -77.42)"/><path class="cls-107" d="M235.89,170l1-1.12c1.92,2.4,3.65,5.12,7.43,4.32a1.31,1.31,0,0,1,1.31-.15l.38.6-.44.55a.79.79,0,0,1-.83.29,4.44,4.44,0,0,1-3.8,0C238.4,174,236.9,172.22,235.89,170Z" transform="translate(-57.25 -77.42)"/><path class="cls-108" d="M238,177.62c-.14,1.48.48,3.13-1,4.32.11-1.49.18-3,.35-4.46.08-.72.6-.86.29-.21C237.63,177.32,237.87,177.5,238,177.62Z" transform="translate(-57.25 -77.42)"/><path class="cls-109" d="M245.64,187.41c.27.19.64.33.79.59.37.63.56,1.55-.06,1.89-.82.43-.92-.65-1.24-1.12a6,6,0,0,1-.52-1.44C245,186.87,245.34,186.9,245.64,187.41Z" transform="translate(-57.25 -77.42)"/><path class="cls-110" d="M247.82,170l1.16,0a.87.87,0,0,1,0,1.08l-.05.09c-.77.43-.47,1.63-1.41,1.94a5.2,5.2,0,0,0-.78.1l-.5-.28a1.28,1.28,0,0,1,.38-1A2.2,2.2,0,0,1,247.82,170Z" transform="translate(-57.25 -77.42)"/><path class="cls-111" d="M241,174.45h3.8A2.48,2.48,0,0,1,241,174.45Z" transform="translate(-57.25 -77.42)"/><path class="cls-112" d="M253.36,165.39a2.26,2.26,0,0,1-2-.3c.54-.59,1.27-.39,1.94-.45A1,1,0,0,1,253.36,165.39Z" transform="translate(-57.25 -77.42)"/><path class="cls-45" d="M247.53,173.11a2.54,2.54,0,0,1,1.41-1.94A1.74,1.74,0,0,1,247.53,173.11Z" transform="translate(-57.25 -77.42)"/><path class="cls-108" d="M245.64,187.41l-.51-.09h-.52a.82.82,0,0,1-.19-.76c.09-.61.18-1.21.26-1.82A4.18,4.18,0,0,1,245.64,187.41Z" transform="translate(-57.25 -77.42)"/><path class="cls-108" d="M240.11,179.8c-.31-.46-.63-.91-.94-1.36C239.48,178.89,239.8,179.34,240.11,179.8Z" transform="translate(-57.25 -77.42)"/><path class="cls-108" d="M244.48,184.14l-.94-1.26A1.25,1.25,0,0,1,244.48,184.14Z" transform="translate(-57.25 -77.42)"/><path class="cls-108" d="M241.21,180.88l-1.06-1Z" transform="translate(-57.25 -77.42)"/><path class="cls-106" d="M234.72,185.08l1.6-.83A1.81,1.81,0,0,1,234.72,185.08Z" transform="translate(-57.25 -77.42)"/><path class="cls-108" d="M241.23,184.19l1.08.86Z" transform="translate(-57.25 -77.42)"/><path class="cls-111" d="M245.61,174.15c.06-.37.11-.73.17-1.1a1.63,1.63,0,0,1,.9-.59.72.72,0,0,1,.06.75A1.11,1.11,0,0,1,245.61,174.15Z" transform="translate(-57.25 -77.42)"/><path class="cls-108" d="M243.6,183a1.61,1.61,0,0,1-1.19-1.12A1.39,1.39,0,0,1,243.6,183Z" transform="translate(-57.25 -77.42)"/><path class="cls-45" d="M249,171.08c0-.36,0-.72,0-1.08a7.24,7.24,0,0,0,.92-.22A1.41,1.41,0,0,1,249,171.08Z" transform="translate(-57.25 -77.42)"/><path class="cls-108" d="M242.48,181.89l-1.23-1A1.48,1.48,0,0,1,242.48,181.89Z" transform="translate(-57.25 -77.42)"/><path class="cls-113" d="M342.76,184.19c-3.89,3.65-8.5,6.19-13.16,8.67l-.41-.09a1.62,1.62,0,0,1-.6-.59l-.1-.41,13.13-8.58A1.86,1.86,0,0,1,342.76,184.19Z" transform="translate(-57.25 -77.42)"/><path class="cls-114" d="M365.7,170a33.74,33.74,0,0,1-8.9,5.27c-.44-.28-1.05-.37-1.13-1,2.63-2.29,5.81-3.68,8.82-5.35C364.89,169.3,365.56,169.38,365.7,170Z" transform="translate(-57.25 -77.42)"/><path class="cls-115" d="M307.92,207.1a44.87,44.87,0,0,1-8.91,5.21c-.34-.26-.46-.52-.35-.78s.22-.4.33-.4a17.43,17.43,0,0,1,7.18-4.21A1.31,1.31,0,0,1,307.92,207.1Z" transform="translate(-57.25 -77.42)"/><path class="cls-116" d="M372.13,163.47a2,2,0,0,0,2.45.75v.08a2.32,2.32,0,0,1-1.34,2.62c-.76.27-1.49-.46-2.26-.1a7.56,7.56,0,0,1-.83,0,3.82,3.82,0,0,0-1.3,1l-.06,0a3.18,3.18,0,0,1-1,.81.54.54,0,0,1-.69.4,1.51,1.51,0,0,1-2-.34A29.59,29.59,0,0,1,372.13,163.47Z" transform="translate(-57.25 -77.42)"/><path class="cls-117" d="M354.74,176.55a14.21,14.21,0,0,1-5.31,3.34c-1.26.59-1.39-.13-1.3-1.12l5.47-3.25C354,175.79,354.66,175.88,354.74,176.55Z" transform="translate(-57.25 -77.42)"/><path class="cls-118" d="M329.6,192.86a17.86,17.86,0,0,1-5.55,4.12,1.63,1.63,0,0,1-1.13-.93l5.57-4.28a1.21,1.21,0,0,1,.48.31l.34.34Z" transform="translate(-57.25 -77.42)"/><path class="cls-119" d="M348.13,178.77l1.3,1.12a17.12,17.12,0,0,1-4.65,3c-.46-.25-1.07-.33-1.15-1C344.77,180.32,346.47,179.58,348.13,178.77Z" transform="translate(-57.25 -77.42)"/><path class="cls-120" d="M313.33,203.81a11.94,11.94,0,0,1-4.58,3,1.9,1.9,0,0,1-1.05-1,11.92,11.92,0,0,1,4.51-3A1.76,1.76,0,0,1,313.33,203.81Z" transform="translate(-57.25 -77.42)"/><path class="cls-121" d="M278.92,225.79a13.24,13.24,0,0,1-5.95,3.33c-.33-.26-.45-.52-.36-.8s.19-.43.29-.43l4.31-2.35A1.09,1.09,0,0,1,278.92,225.79Z" transform="translate(-57.25 -77.42)"/><path class="cls-122" d="M293.72,215.79a12,12,0,0,1-4.53,3,1,1,0,0,1,0-1.52c.78-.74,1.43-1.7,2.71-1.61A1.48,1.48,0,0,1,293.72,215.79Z" transform="translate(-57.25 -77.42)"/><path class="cls-123" d="M286,220.72a7.55,7.55,0,0,1-3.43,2.43,1.05,1.05,0,0,1,.06-1.5,6.81,6.81,0,0,1,3.34-2.44A1,1,0,0,1,286,220.72Z" transform="translate(-57.25 -77.42)"/><path class="cls-124" d="M278.92,225.79l-1.71-.25a14,14,0,0,1,4.45-3.12.87.87,0,0,1,.28.87c-.09.29-.17.44-.26.44A3.63,3.63,0,0,1,278.92,225.79Z" transform="translate(-57.25 -77.42)"/><path class="cls-125" d="M270.79,230.53a7.18,7.18,0,0,1-3.44,2.47.78.78,0,0,1-.23-.82c.09-.26.19-.4.27-.4.64-1.5,2-2.06,3.35-2.73A1,1,0,0,1,270.79,230.53Z" transform="translate(-57.25 -77.42)"/><path class="cls-126" d="M322.92,196.05l1.13.93L321,198.87a1,1,0,0,1-.11-1.54Z" transform="translate(-57.25 -77.42)"/><path class="cls-127" d="M354.74,176.55l-1.14-1,2.07-1.25,1.13,1Z" transform="translate(-57.25 -77.42)"/><path class="cls-128" d="M313.33,203.81l-1.12-1,3.08-1.83a1,1,0,0,1,.09,1.53Z" transform="translate(-57.25 -77.42)"/><path class="cls-129" d="M315.38,202.55l-.09-1.53a3.6,3.6,0,0,1,2.34-1.48.8.8,0,0,1,.06,1.37A3.2,3.2,0,0,1,315.38,202.55Z" transform="translate(-57.25 -77.42)"/><path class="cls-130" d="M286,220.72l0-1.51,3.15-1.92,0,1.52Z" transform="translate(-57.25 -77.42)"/><path class="cls-131" d="M343.63,181.87l1.15,1-2,1.31-1.14-1Z" transform="translate(-57.25 -77.42)"/><path class="cls-132" d="M298.06,212.88a3.26,3.26,0,0,1-2.31,1.66.89.89,0,0,1-.08-1.48,3.4,3.4,0,0,1,2.34-1.51.94.94,0,0,1,.3.88C298.23,212.73,298.15,212.88,298.06,212.88Z" transform="translate(-57.25 -77.42)"/><path class="cls-133" d="M320.88,197.33c0,.51.08,1,.11,1.54a3.45,3.45,0,0,1-2.35,1.48,1,1,0,0,1-.28-.94c.08-.32.16-.48.25-.48A3.29,3.29,0,0,1,320.88,197.33Z" transform="translate(-57.25 -77.42)"/><path class="cls-134" d="M295.67,213.06c0,.49.06,1,.08,1.48l-2,1.25-1.85-.11A8.83,8.83,0,0,1,295.67,213.06Z" transform="translate(-57.25 -77.42)"/><path class="cls-135" d="M270.79,230.53l-.05-1.48,2.16-1.16c0,.41.05.82.07,1.23C272.56,230.09,271.54,230.1,270.79,230.53Z" transform="translate(-57.25 -77.42)"/><path class="cls-136" d="M307.7,205.87l1.05,1a.82.82,0,0,1-.83.27l-1.75-.18Z" transform="translate(-57.25 -77.42)"/><path class="cls-137" d="M365.05,168.67l2,.34a1.65,1.65,0,0,1-1.37,1l-1.21-1.12A.38.38,0,0,1,365.05,168.67Z" transform="translate(-57.25 -77.42)"/><path class="cls-138" d="M267.39,231.78c0,.41,0,.82,0,1.22l-1,.56c0-.41,0-.83,0-1.24Z" transform="translate(-57.25 -77.42)"/><path class="cls-139" d="M281.68,223.73l0-1.31,1-.77-.06,1.5Z" transform="translate(-57.25 -77.42)"/><path class="cls-140" d="M298.06,212.88c0-.44,0-.89-.05-1.33a1.4,1.4,0,0,1,1-.42c0,.39,0,.78,0,1.18Z" transform="translate(-57.25 -77.42)"/><path class="cls-141" d="M318.61,198.93l0,1.42-.95.57-.06-1.38C318,199.33,318.28,199.13,318.61,198.93Z" transform="translate(-57.25 -77.42)"/><path class="cls-142" d="M227,202.69v-1.15l1.24-1a3,3,0,0,0,2.1-1.37,5.19,5.19,0,0,0,1.16-.82,1.26,1.26,0,0,0,1-.27c3.65-.76,6.1,1.2,8.55,4-2.62.61-3.12,3.95-6,4.17l-3.81-.13c-1.18.05-1.83-1-2.81-1.35A3.51,3.51,0,0,0,227,202.69Z" transform="translate(-57.25 -77.42)"/><path class="cls-143" d="M238,160.26c.35-1.2,1.31-1.17,2.27-1.15C239.93,160.34,239,160.34,238,160.26Z" transform="translate(-57.25 -77.42)"/><path class="cls-144" d="M246.68,172.46l-.9.59-.09.12q-.44-.25-.3-.54c.1-.18.19-.27.29-.27a1.11,1.11,0,0,1,.95-.45A2.5,2.5,0,0,0,246.68,172.46Z" transform="translate(-57.25 -77.42)"/><path class="cls-111" d="M245.68,172.36a2.21,2.21,0,0,1,0,.81l-1.33,0Z" transform="translate(-57.25 -77.42)"/><path class="cls-145" d="M242.42,169l-.43.75-.5-.51.72-.46Z" transform="translate(-57.25 -77.42)"/><path class="cls-100" d="M243.42,167.72a5.78,5.78,0,0,0,0,.93l-1,.39-.21-.22C242.24,168,242.71,167.74,243.42,167.72Z" transform="translate(-57.25 -77.42)"/><path class="cls-146" d="M291.38,188.59c-.72,0-1.12.29-1,1.07l-1.11,0c-1.11.42-1.35-.07-1.08-1.06,2.3-2.85,5.59-4.8,7.43-8.08l1.23,1.47c0,.38.07.77.1,1.16a8.56,8.56,0,0,0-4.33,4.26A1.52,1.52,0,0,0,291.38,188.59Z" transform="translate(-57.25 -77.42)"/><path class="cls-147" d="M288.17,188.55l1.08,1.06c-2.26,2.14-5,.85-7.53,1C283.38,188.42,286.36,190.28,288.17,188.55Z" transform="translate(-57.25 -77.42)"/><path class="cls-44" d="M231.53,198.33l-1.16.82Z" transform="translate(-57.25 -77.42)"/><path class="cls-148" d="M376.53,178c-3.37,6.31-7.95,8.38-12.37,6.07a6.28,6.28,0,0,1-3.24-6.32c.35-2.5,1.93-3.74,4.3-4.17a13.36,13.36,0,0,0,3.14-.64c1.14-.51,2.19-1.54,3.49-1,1.9.81.08,2.15.24,3.25C372.45,177.69,374.57,177.47,376.53,178Z" transform="translate(-57.25 -77.42)"/><path class="cls-149" d="M392.13,163.78a1.59,1.59,0,0,1-.9,1.72q-7.08,4.55-14.21,9c-.63.4-1.43.51-1.75-.38a1.9,1.9,0,0,1,.24-1.48,5.28,5.28,0,0,1,1.54-1.51c4.12-2.63,8.24-5.25,12.41-7.79C390.28,162.88,391.43,162,392.13,163.78Z" transform="translate(-57.25 -77.42)"/><path class="cls-150" d="M372.3,166.73a5.71,5.71,0,0,0,2.29-2.43c1.19,2.71.6,5-1.66,5.69-1.79.53-2.06-.7-1.83-2.14C371.45,167.42,371.51,166.68,372.3,166.73Z" transform="translate(-57.25 -77.42)"/><path class="cls-151" d="M372.3,166.73l-1.2,1.12a1,1,0,0,1-.11-1c.06-.47.21-.95.8-.81C372,166.06,372.13,166.48,372.3,166.73Z" transform="translate(-57.25 -77.42)"/><path class="cls-137" d="M367.76,168.61l1-.81Z" transform="translate(-57.25 -77.42)"/><path class="cls-137" d="M368.86,167.76l1.3-1A1.52,1.52,0,0,1,368.86,167.76Z" transform="translate(-57.25 -77.42)"/><path class="cls-152" d="M193.26,277.84c1.74-1.53,3.36-3.23,5.55-4.17a1,1,0,0,0,.87.37.53.53,0,0,1,.15.53,18.07,18.07,0,0,1-5.54,4.2A1.5,1.5,0,0,1,193.26,277.84Z" transform="translate(-57.25 -77.42)"/><path class="cls-153" d="M153,308.41c1-1.83,1.69-4,4.3-4.14.36.22.49.44.38.69s-.21.37-.33.37a7.44,7.44,0,0,1-2.73,3.1A1.53,1.53,0,0,1,153,308.41Z" transform="translate(-57.25 -77.42)"/><path class="cls-154" d="M172.52,292.87a6.5,6.5,0,0,1,3.4-2.77,1,1,0,0,1,0,1.45,6,6,0,0,1-3.37,2.52c-.33-.27-.43-.54-.32-.8S172.41,292.87,172.52,292.87Z" transform="translate(-57.25 -77.42)"/><path class="cls-155" d="M180.16,287.1a6.26,6.26,0,0,1,3.37-2.48.84.84,0,0,1,.32.88q-.15.45-.3.45a6.73,6.73,0,0,1-3.43,2.6A1,1,0,0,1,180.16,287.1Z" transform="translate(-57.25 -77.42)"/><path class="cls-156" d="M168.16,296.07a5.86,5.86,0,0,1,3.39-2.71,1.1,1.1,0,0,1,0,1.39,7,7,0,0,1-3.39,2.58A1.05,1.05,0,0,1,168.16,296.07Z" transform="translate(-57.25 -77.42)"/><path class="cls-157" d="M162.72,300.26a6.52,6.52,0,0,1,3.36-2.62,1,1,0,0,1,0,1.22,6.49,6.49,0,0,1-3.41,2.78A1.47,1.47,0,0,1,162.72,300.26Z" transform="translate(-57.25 -77.42)"/><path class="cls-158" d="M187.78,281.74a3.17,3.17,0,0,1,2.66-1.76,1.55,1.55,0,0,1,1.84.1,12.43,12.43,0,0,1-4.53,3.07A.87.87,0,0,1,187.78,281.74Z" transform="translate(-57.25 -77.42)"/><path class="cls-159" d="M158.34,303.63c.87-1.08,1.7-2.22,3.36-1.81-.22,2-2,2.31-3.4,3A.88.88,0,0,1,158.34,303.63Z" transform="translate(-57.25 -77.42)"/><path class="cls-160" d="M176.88,289.55a2.87,2.87,0,0,1,2.28-1.73.78.78,0,0,1,.28.81q-.13.42-.27.42a3,3,0,0,1-2.31,1.76.82.82,0,0,1-.25-.85C176.7,289.69,176.79,289.55,176.88,289.55Z" transform="translate(-57.25 -77.42)"/><path class="cls-161" d="M184.52,284.17a2.92,2.92,0,0,1,2.28-1.77,1,1,0,0,1,0,1.38,2.9,2.9,0,0,1-2.32,1.59.75.75,0,0,1-.26-.81C184.33,284.3,184.42,284.17,184.52,284.17Z" transform="translate(-57.25 -77.42)"/><path class="cls-162" d="M192.28,280.08l-1.83-.1a6.76,6.76,0,0,1,2.81-2.14l1,.93Z" transform="translate(-57.25 -77.42)"/><path class="cls-163" d="M152.83,310.52h-1.61c.44-.61.73-1.45,1.77-1.11A.72.72,0,0,1,152.83,310.52Z" transform="translate(-57.25 -77.42)"/><path class="cls-163" d="M153,308.41l1.62,0c-.43.62-.72,1.45-1.75,1.11A.74.74,0,0,1,153,308.41Z" transform="translate(-57.25 -77.42)"/><path class="cls-164" d="M158.34,303.63c0,.41,0,.82,0,1.23a1.32,1.32,0,0,1-.93.47,7.45,7.45,0,0,0-.05-1.06Z" transform="translate(-57.25 -77.42)"/><path class="cls-165" d="M179.17,289.05v-1.23l1-.72c0,.48,0,1,0,1.45A1.73,1.73,0,0,1,179.17,289.05Z" transform="translate(-57.25 -77.42)"/><path class="cls-166" d="M162.72,300.26l-.06,1.38-1.06.26C161.46,301,162.14,300.67,162.72,300.26Z" transform="translate(-57.25 -77.42)"/><path class="cls-167" d="M166.07,298.86v-1.22l1.1-.21C167.33,298.31,166.71,298.59,166.07,298.86Z" transform="translate(-57.25 -77.42)"/><path class="cls-168" d="M168.16,296.07l0,1.26-1.08.21C166.93,296.68,167.53,296.36,168.16,296.07Z" transform="translate(-57.25 -77.42)"/><path class="cls-169" d="M186.82,283.78c0-.46,0-.92,0-1.38l1-.66,0,1.41Z" transform="translate(-57.25 -77.42)"/><path class="cls-170" d="M176.88,289.55c0,.42,0,.84,0,1.26l-1,.74c0-.48,0-1,0-1.45Z" transform="translate(-57.25 -77.42)"/><path class="cls-171" d="M184.52,284.17c0,.4,0,.8,0,1.2l-1,.58c0-.45,0-.89,0-1.33Z" transform="translate(-57.25 -77.42)"/><path class="cls-172" d="M171.52,294.75l0-1.39,1-.49c0,.4,0,.8,0,1.2Z" transform="translate(-57.25 -77.42)"/><path class="cls-173" d="M199.68,274c-.47.29-.66-.06-.87-.37l.92-.57A1.51,1.51,0,0,0,199.68,274Z" transform="translate(-57.25 -77.42)"/><polygon class="cls-174" points="272.06 114.99 271.71 114.97 271.72 114.66 272.06 114.99"/><path class="cls-175" d="M232.54,200.71a.69.69,0,0,1,.8-.38,2.33,2.33,0,0,1,2.49.1l0,0a.73.73,0,0,1,0,1l-3.25.16c-.31-.2-.42-.4-.31-.61S232.44,200.71,232.54,200.71Z" transform="translate(-57.25 -77.42)"/><path class="cls-44" d="M232.54,200.71a2.38,2.38,0,0,1,0,.92,1.23,1.23,0,0,1-2,.51Z" transform="translate(-57.25 -77.42)"/><path class="cls-44" d="M235.83,200.43l-2.49-.1C234.22,199.26,235.05,199.38,235.83,200.43Z" transform="translate(-57.25 -77.42)"/><path class="cls-44" d="M235.8,201.47c0-.34,0-.68,0-1,.49.06,1,.16.81.81C236.61,201.41,236.1,201.4,235.8,201.47Z" transform="translate(-57.25 -77.42)"/><rect class="cls-176" width="384.43" height="564.37"/></svg>