<?xml version="1.0" encoding="UTF-8"?>
<svg id="Ebene_1" data-name="Ebene 1" xmlns="http://www.w3.org/2000/svg" viewBox="0 0 879.47 355.67">
  <defs>
    <style>
      .cls-1 {
        fill: #f39200;
      }

      .cls-2 {
        fill: #951b81;
      }

      .cls-3 {
        fill: #1d1d1b;
      }

      .cls-4 {
        fill: #36a9e1;
      }
    </style>
  </defs>
  <path class="cls-3" d="M5.14,40.17h3.75c1.55,0,2.7,.37,3.46,1.11,.96,.96,1.44,2.42,1.44,4.39,0,1.51-.25,2.73-.76,3.64s-1.23,1.48-2.17,1.7l3.88,10.27h-2.88l-3.87-10.34v10.34h-2.84v-21.11Zm2.84,9.35c1.1,0,1.88-.25,2.34-.77,.46-.51,.68-1.37,.68-2.58,0-.66-.05-1.22-.14-1.68s-.25-.84-.45-1.13-.47-.51-.79-.64c-.32-.14-.71-.21-1.16-.21h-.48v7.01Z"/>
  <path class="cls-3" d="M27.26,51.25c0,3.73-.42,6.38-1.24,7.94-.83,1.57-2.22,2.35-4.17,2.35-2.05,0-3.5-.84-4.33-2.53-.83-1.65-1.24-4.58-1.24-8.79,0-3.75,.41-6.41,1.23-7.97,.83-1.57,2.23-2.35,4.21-2.35,1.77,0,3.08,.61,3.94,1.82,.56,.81,.98,1.96,1.23,3.46,.25,1.39,.38,3.41,.38,6.07Zm-2.98,.3c0-3.66-.16-6.08-.49-7.27-.33-1.2-1-1.8-2.01-1.8s-1.69,.55-2.02,1.65c-.33,1.11-.49,3.34-.49,6.7,0,3.09,.17,5.23,.52,6.43,.36,1.13,1.02,1.7,2,1.7s1.61-.53,1.97-1.59c.36-1.05,.53-2.99,.53-5.81Z"/>
  <path class="cls-3" d="M38.36,40.52v2.56c-.73-.36-1.34-.53-1.83-.53-.67,0-1.25,.17-1.74,.5-.48,.33-.88,.85-1.2,1.54s-.55,1.57-.7,2.63-.23,2.32-.23,3.77c0,5.21,1.33,7.82,4.01,7.82,.46,0,1.03-.15,1.68-.44v2.61c-.68,.38-1.45,.57-2.3,.57-4.27,0-6.41-3.49-6.41-10.47,0-3.77,.52-6.58,1.57-8.42,1.04-1.84,2.64-2.76,4.79-2.76,.79,0,1.58,.21,2.35,.63Z"/>
  <path class="cls-3" d="M40.75,40.17h2.84v10.23l3.96-10.23h2.87l-4.16,10.23,4.48,10.88h-3.2l-3.96-10.88v10.88h-2.84v-21.11Z"/>
  <path class="cls-3" d="M58.34,40.17h3.75c1.8,0,3.12,.46,3.94,1.37,.82,.92,1.23,2.38,1.23,4.38,0,2.81-.83,4.62-2.47,5.44-.83,.37-2.03,.56-3.6,.56v9.37h-2.84v-21.11Zm2.84,9.31c1.18,0,1.99-.24,2.43-.71,.46-.48,.68-1.34,.68-2.57s-.22-2.18-.66-2.76-1.13-.88-2.06-.88h-.4v6.92Z"/>
  <path class="cls-3" d="M71.8,40.17h2.21l4.53,21.11h-2.82l-.79-4.12h-4.18l-.81,4.12h-2.73l4.59-21.11Zm2.72,14.79l-.63-3.36c-.42-2.29-.76-4.73-1.03-7.33-.13,1.27-.29,2.55-.49,3.85-.2,1.3-.44,2.68-.71,4.14l-.52,2.71h3.38Z"/>
  <path class="cls-3" d="M80.21,40.17h3.75c1.8,0,3.12,.46,3.94,1.37,.82,.92,1.23,2.38,1.23,4.38,0,2.81-.83,4.62-2.47,5.44-.83,.37-2.03,.56-3.6,.56v9.37h-2.84v-21.11Zm2.84,9.31c1.18,0,1.99-.24,2.43-.71,.46-.48,.68-1.34,.68-2.57s-.22-2.18-.66-2.76-1.13-.88-2.06-.88h-.4v6.92Z"/>
  <path class="cls-3" d="M91.31,40.17h7.56v2.41h-4.72v6.69h4.18v2.41h-4.18v7.21h4.72v2.41h-7.56v-21.11Z"/>
  <path class="cls-3" d="M101.48,40.17h3.75c1.55,0,2.7,.37,3.46,1.11,.96,.96,1.44,2.42,1.44,4.39,0,1.51-.25,2.73-.76,3.64s-1.23,1.48-2.17,1.7l3.88,10.27h-2.88l-3.87-10.34v10.34h-2.84v-21.11Zm2.84,9.35c1.1,0,1.88-.25,2.34-.77,.46-.51,.68-1.37,.68-2.58,0-.66-.05-1.22-.14-1.68s-.25-.84-.45-1.13-.47-.51-.79-.64c-.32-.14-.71-.21-1.16-.21h-.48v7.01Z"/>
  <path class="cls-3" d="M126.12,40.61v2.78c-.87-.62-1.65-.93-2.34-.93-.75,0-1.36,.26-1.83,.79-.47,.5-.71,1.17-.71,2.01,0,.74,.17,1.37,.51,1.9,.17,.28,.46,.65,.85,1.09s.91,.98,1.54,1.61c1.16,1.18,1.95,2.19,2.37,3.05,.42,.83,.63,1.85,.63,3.05,0,1.63-.46,2.98-1.38,4.03-.92,1.03-2.1,1.54-3.54,1.54-1.21,0-2.25-.33-3.1-1v-2.82c1.01,.74,1.93,1.11,2.76,1.11,.77,0,1.38-.26,1.82-.77s.66-1.21,.66-2.1c0-.77-.17-1.45-.51-2.06-.17-.29-.42-.63-.72-1-.31-.38-.7-.8-1.16-1.26-.72-.71-1.32-1.34-1.79-1.89-.47-.55-.83-1.03-1.05-1.44-.44-.8-.66-1.81-.66-3.04,0-1.65,.43-2.96,1.29-3.92,.87-.98,2.03-1.46,3.49-1.46,1.01,0,1.98,.24,2.9,.72Z"/>
  <path class="cls-3" d="M137.81,40.52v2.56c-.73-.36-1.34-.53-1.83-.53-.67,0-1.25,.17-1.74,.5-.48,.33-.88,.85-1.2,1.54s-.55,1.57-.7,2.63-.23,2.32-.23,3.77c0,5.21,1.33,7.82,4.01,7.82,.46,0,1.03-.15,1.68-.44v2.61c-.68,.38-1.45,.57-2.3,.57-4.27,0-6.41-3.49-6.41-10.47,0-3.77,.52-6.58,1.57-8.42,1.04-1.84,2.64-2.76,4.79-2.76,.79,0,1.58,.21,2.35,.63Z"/>
  <path class="cls-3" d="M140.2,40.17h2.84v21.11h-2.84v-21.11Z"/>
  <path class="cls-3" d="M153.34,40.61v2.78c-.87-.62-1.65-.93-2.34-.93-.75,0-1.36,.26-1.83,.79-.47,.5-.71,1.17-.71,2.01,0,.74,.17,1.37,.51,1.9,.17,.28,.46,.65,.85,1.09s.91,.98,1.54,1.61c1.16,1.18,1.95,2.19,2.37,3.05,.42,.83,.63,1.85,.63,3.05,0,1.63-.46,2.98-1.38,4.03-.92,1.03-2.1,1.54-3.54,1.54-1.21,0-2.25-.33-3.1-1v-2.82c1.01,.74,1.93,1.11,2.76,1.11,.77,0,1.38-.26,1.82-.77s.66-1.21,.66-2.1c0-.77-.17-1.45-.51-2.06-.17-.29-.42-.63-.72-1-.31-.38-.7-.8-1.16-1.26-.72-.71-1.32-1.34-1.79-1.89-.47-.55-.83-1.03-1.05-1.44-.44-.8-.66-1.81-.66-3.04,0-1.65,.43-2.96,1.29-3.92,.87-.98,2.03-1.46,3.49-1.46,1.01,0,1.98,.24,2.9,.72Z"/>
  <path class="cls-3" d="M163.79,40.61v2.78c-.87-.62-1.65-.93-2.34-.93-.75,0-1.36,.26-1.83,.79-.47,.5-.71,1.17-.71,2.01,0,.74,.17,1.37,.51,1.9,.17,.28,.46,.65,.85,1.09s.91,.98,1.54,1.61c1.16,1.18,1.95,2.19,2.37,3.05,.42,.83,.63,1.85,.63,3.05,0,1.63-.46,2.98-1.38,4.03-.92,1.03-2.1,1.54-3.54,1.54-1.21,0-2.25-.33-3.1-1v-2.82c1.01,.74,1.93,1.11,2.76,1.11,.77,0,1.38-.26,1.82-.77s.66-1.21,.66-2.1c0-.77-.17-1.45-.51-2.06-.17-.29-.42-.63-.72-1-.31-.38-.7-.8-1.16-1.26-.72-.71-1.32-1.34-1.79-1.89-.47-.55-.83-1.03-1.05-1.44-.44-.8-.66-1.81-.66-3.04,0-1.65,.43-2.96,1.29-3.92,.87-.98,2.03-1.46,3.49-1.46,1.01,0,1.98,.24,2.9,.72Z"/>
  <path class="cls-3" d="M177.76,51.25c0,3.73-.42,6.38-1.24,7.94-.83,1.57-2.22,2.35-4.17,2.35-2.05,0-3.5-.84-4.33-2.53-.83-1.65-1.24-4.58-1.24-8.79,0-3.75,.41-6.41,1.23-7.97,.83-1.57,2.23-2.35,4.21-2.35,1.77,0,3.08,.61,3.94,1.82,.56,.81,.98,1.96,1.23,3.46,.25,1.39,.38,3.41,.38,6.07Zm-2.98,.3c0-3.66-.16-6.08-.49-7.27-.33-1.2-1-1.8-2.01-1.8s-1.69,.55-2.02,1.65c-.33,1.11-.49,3.34-.49,6.7,0,3.09,.17,5.23,.52,6.43,.36,1.13,1.02,1.7,2,1.7s1.61-.53,1.97-1.59c.36-1.05,.53-2.99,.53-5.81Z"/>
  <path class="cls-3" d="M180.58,40.17h3.75c1.55,0,2.7,.37,3.46,1.11,.96,.96,1.44,2.42,1.44,4.39,0,1.51-.25,2.73-.76,3.64s-1.23,1.48-2.17,1.7l3.88,10.27h-2.88l-3.87-10.34v10.34h-2.84v-21.11Zm2.84,9.35c1.1,0,1.88-.25,2.34-.77,.46-.51,.68-1.37,.68-2.58,0-.66-.05-1.22-.14-1.68s-.25-.84-.45-1.13-.47-.51-.79-.64c-.32-.14-.71-.21-1.16-.21h-.48v7.01Z"/>
  <path class="cls-3" d="M199.42,40.61v2.78c-.87-.62-1.65-.93-2.34-.93-.75,0-1.36,.26-1.83,.79-.47,.5-.71,1.17-.71,2.01,0,.74,.17,1.37,.51,1.9,.17,.28,.46,.65,.85,1.09s.91,.98,1.54,1.61c1.16,1.18,1.95,2.19,2.37,3.05,.42,.83,.63,1.85,.63,3.05,0,1.63-.46,2.98-1.38,4.03-.92,1.03-2.1,1.54-3.54,1.54-1.21,0-2.25-.33-3.1-1v-2.82c1.01,.74,1.93,1.11,2.76,1.11,.77,0,1.38-.26,1.82-.77s.66-1.21,.66-2.1c0-.77-.17-1.45-.51-2.06-.17-.29-.42-.63-.72-1-.31-.38-.7-.8-1.16-1.26-.72-.71-1.32-1.34-1.79-1.89-.47-.55-.83-1.03-1.05-1.44-.44-.8-.66-1.81-.66-3.04,0-1.65,.43-2.96,1.29-3.92,.87-.98,2.03-1.46,3.49-1.46,1.01,0,1.98,.24,2.9,.72Z"/>
  <path class="cls-3" d="M3.47,94.21h2l.91,5.57,.16,1.01,.32,2.19c.05,.37,.1,.71,.14,1.02s.08,.58,.11,.83l.1,.74c.02-.15,.04-.28,.05-.4s.03-.21,.04-.29l.26-1.75,.34-2.29c.03-.21,.06-.4,.09-.58s.06-.33,.08-.47l.98-5.57h1.89l-2.96,15.08h-1.61l-2.91-15.08Z"/>
  <path class="cls-3" d="M13.85,94.21h1.58l3.23,15.08h-2.01l-.57-2.94h-2.99l-.58,2.94h-1.95l3.28-15.08Zm1.94,10.57l-.45-2.4c-.3-1.63-.54-3.38-.73-5.23-.09,.91-.21,1.82-.35,2.75s-.31,1.91-.51,2.95l-.37,1.93h2.41Z"/>
  <path class="cls-3" d="M19.86,94.21h2.68c1.11,0,1.93,.26,2.47,.79,.68,.68,1.03,1.73,1.03,3.13,0,1.08-.18,1.95-.54,2.6s-.88,1.06-1.55,1.22l2.77,7.33h-2.06l-2.76-7.38v7.38h-2.03v-15.08Zm2.03,6.68c.79,0,1.34-.18,1.67-.55s.49-.98,.49-1.85c0-.47-.03-.87-.1-1.2s-.18-.6-.32-.81-.34-.36-.57-.46-.51-.15-.83-.15h-.34v5.01Z"/>
  <path class="cls-3" d="M28.29,94.21h2.03v15.08h-2.03v-15.08Z"/>
  <path class="cls-3" d="M34.79,94.21h1.58l3.23,15.08h-2.01l-.57-2.94h-2.99l-.58,2.94h-1.95l3.28-15.08Zm1.94,10.57l-.45-2.4c-.3-1.63-.54-3.38-.73-5.23-.09,.91-.21,1.82-.35,2.75s-.31,1.91-.51,2.95l-.37,1.93h2.41Z"/>
  <path class="cls-3" d="M40.8,94.21h1.89l2.02,6.02c.59,1.7,1.1,3.51,1.55,5.44-.16-1.17-.28-2.22-.36-3.16s-.12-1.83-.12-2.67v-5.62h2.04v15.08h-1.9l-2.28-6.79c-.21-.63-.41-1.28-.59-1.94s-.36-1.36-.51-2.09c-.01-.09-.03-.2-.06-.33s-.06-.28-.1-.45c.02,.17,.04,.31,.05,.43s.02,.22,.03,.31l.11,1.53,.11,1.87c0,.1,.01,.23,.01,.38s0,.32,0,.51l.11,6.57h-2v-15.08Z"/>
  <path class="cls-3" d="M48.95,94.21h6.61v1.78h-2.28v13.3h-1.99v-13.3h-2.34v-1.78Z"/>
  <path class="cls-3" d="M56.69,94.21h5.4v1.72h-3.37v4.78h2.99v1.72h-2.99v5.15h3.37v1.72h-5.4v-15.08Z"/>
  <path class="cls-3" d="M62.79,110.64h11.31v1.79h-11.31v-1.79Z"/>
  <path class="cls-3" d="M75.88,94.21h3.44v15.08h-1.94v-13.35h-1.49v-1.73Z"/>
  <path class="cls-3" d="M84.48,99.03c.32,0,.6,.12,.83,.36,.23,.23,.35,.51,.35,.84s-.12,.62-.35,.86-.52,.35-.85,.35-.62-.12-.86-.35c-.23-.24-.35-.53-.35-.86s.12-.62,.35-.85c.24-.23,.53-.35,.88-.35Zm0,7.99c.32,0,.6,.12,.83,.36,.23,.23,.35,.52,.35,.85s-.12,.62-.35,.85c-.25,.23-.53,.34-.85,.34-.17,0-.33-.03-.47-.09s-.27-.15-.39-.25-.2-.23-.26-.38-.09-.3-.09-.47c0-.33,.12-.62,.35-.85,.24-.23,.53-.35,.88-.35Z"/>
  <path class="cls-4" d="M10.13,157.47c-1.59,0-2.79-.35-3.59-1.04-.81-.7-1.21-1.72-1.21-3.08v-2.95c0-1.38,.4-2.43,1.21-3.14,.81-.71,2-1.06,3.57-1.06,1.41,0,2.49,.32,3.25,.95,.76,.64,1.18,1.57,1.26,2.79l-1.78,.11c-.05-.75-.3-1.31-.75-1.67-.45-.36-1.12-.54-2-.54-.99,0-1.73,.21-2.22,.63-.48,.42-.73,1.06-.73,1.94v2.95c0,.84,.25,1.46,.74,1.87,.49,.41,1.24,.62,2.25,.62,.87,0,1.53-.16,1.98-.46,.45-.31,.69-.77,.73-1.39l1.78,.11c-.08,1.12-.5,1.96-1.25,2.53-.75,.57-1.83,.85-3.24,.85Z"/>
  <path class="cls-4" d="M22.6,157.47c-1.47,0-2.59-.35-3.37-1.06-.78-.71-1.17-1.73-1.17-3.06v-2.95c0-1.35,.39-2.38,1.18-3.11,.79-.73,1.92-1.09,3.38-1.09s2.57,.36,3.35,1.09,1.17,1.76,1.17,3.11v2.95c0,1.33-.39,2.35-1.17,3.06s-1.91,1.06-3.37,1.06Zm0-1.64c.92,0,1.61-.21,2.05-.62,.45-.41,.67-1.04,.67-1.87v-2.95c0-.87-.22-1.52-.67-1.94-.45-.42-1.13-.63-2.05-.63s-1.61,.21-2.05,.63c-.45,.42-.67,1.06-.67,1.94v2.95c0,.84,.22,1.46,.67,1.87,.45,.41,1.13,.62,2.05,.62Z"/>
  <path class="cls-4" d="M30.78,157.28v-10.91h1.82v1.82h.55c.27-.62,.69-1.11,1.25-1.46,.57-.36,1.22-.54,1.95-.54,1.09,0,1.95,.33,2.58,1,.63,.67,.95,1.58,.95,2.73v7.36h-1.82v-7c0-.76-.19-1.35-.55-1.75-.37-.41-.9-.61-1.59-.61-.55,0-1.1,.16-1.66,.49s-1.11,.8-1.65,1.42v7.45h-1.82Z"/>
  <path class="cls-4" d="M48.2,157.47c-.92,0-1.81-.14-2.67-.41-.86-.27-1.65-.69-2.38-1.26l.82-1.44c.59,.49,1.26,.85,1.99,1.1s1.48,.37,2.25,.37c.63,0,1.23-.1,1.81-.29,.58-.19,.86-.6,.86-1.23,0-.52-.24-.89-.71-1.1-.47-.22-1.34-.4-2.6-.56-1.33-.16-2.34-.47-3.03-.94-.68-.47-1.03-1.21-1.03-2.22,0-1.09,.41-1.92,1.24-2.47,.82-.55,1.78-.83,2.87-.83,.86,0,1.69,.15,2.48,.44,.79,.29,1.53,.7,2.21,1.24l-.82,1.44c-.56-.45-1.16-.81-1.82-1.07-.65-.27-1.34-.4-2.05-.4-.58,0-1.11,.11-1.59,.33-.48,.22-.72,.62-.72,1.2,0,.5,.22,.86,.66,1.08,.44,.22,1.29,.42,2.55,.57,1.38,.16,2.42,.49,3.11,1.01,.69,.52,1.04,1.23,1.04,2.15,0,1.14-.46,1.97-1.38,2.5-.92,.53-1.95,.79-3.09,.79Z"/>
  <path class="cls-4" d="M62.58,157.45c-1.2,0-2.13-.3-2.8-.89-.67-.59-1-1.5-1-2.73v-5.82h-3.09v-1.64h3.09v-3.64h1.82v3.64h4.73v1.64h-4.73v5.65c0,.7,.18,1.22,.53,1.56,.35,.34,.87,.51,1.56,.51,.46,0,.89-.03,1.29-.1,.4-.07,.78-.15,1.15-.26l.36,1.65c-.41,.12-.85,.22-1.32,.3-.47,.08-1,.12-1.59,.12Z"/>
  <path class="cls-1" d="M82.6,157.28v-10.91h1.82v1.82h.55c.25-.69,.64-1.2,1.16-1.52,.52-.32,1.15-.48,1.89-.48,.81,0,1.49,.27,2.04,.81,.55,.54,.82,1.3,.82,2.28v1.64h-1.73v-.98c0-.69-.15-1.2-.46-1.53s-.78-.49-1.41-.49c-.57,0-1.09,.14-1.55,.42-.47,.28-.9,.71-1.3,1.31v7.64h-1.82Z"/>
  <path class="cls-1" d="M98.82,157.47c-.41,0-.85-.04-1.3-.14-.45-.09-.88-.22-1.28-.37v3.96h-1.82v-14.55h1.82v1.82h.55c.3-.62,.74-1.11,1.32-1.46s1.2-.54,1.86-.54c1.09,0,1.95,.37,2.59,1.12s.95,1.75,.95,3.03v2.96c0,1.28-.42,2.3-1.26,3.04-.84,.75-1.98,1.12-3.43,1.12Zm-.02-1.6c1.02,0,1.75-.21,2.21-.62s.68-1.07,.68-1.98v-2.95c0-.84-.17-1.45-.52-1.83-.35-.38-.9-.57-1.66-.57-.61,0-1.17,.15-1.69,.45-.52,.3-1.05,.79-1.58,1.46v5.34c.38,.23,.77,.4,1.17,.52,.41,.12,.87,.17,1.39,.17Z"/>
  <path class="cls-1" d="M111.84,157.47c-.92,0-1.81-.14-2.67-.41-.86-.27-1.65-.69-2.38-1.26l.82-1.44c.59,.49,1.26,.85,1.99,1.1s1.48,.37,2.25,.37c.63,0,1.23-.1,1.81-.29,.58-.19,.86-.6,.86-1.23,0-.52-.24-.89-.71-1.1-.47-.22-1.34-.4-2.6-.56-1.33-.16-2.34-.47-3.03-.94-.68-.47-1.03-1.21-1.03-2.22,0-1.09,.41-1.92,1.24-2.47,.82-.55,1.78-.83,2.87-.83,.86,0,1.69,.15,2.48,.44,.79,.29,1.53,.7,2.21,1.24l-.82,1.44c-.56-.45-1.16-.81-1.82-1.07-.65-.27-1.34-.4-2.05-.4-.58,0-1.11,.11-1.59,.33-.48,.22-.72,.62-.72,1.2,0,.5,.22,.86,.66,1.08,.44,.22,1.29,.42,2.55,.57,1.38,.16,2.42,.49,3.11,1.01,.69,.52,1.04,1.23,1.04,2.15,0,1.14-.46,1.97-1.38,2.5-.92,.53-1.95,.79-3.09,.79Z"/>
  <path class="cls-3" d="M132.05,149.28v-1.82h10.18v1.82h-10.18Zm0,5.09v-1.82h10.18v1.82h-10.18Z"/>
  <path class="cls-3" d="M166.24,161.1c-1.9-.45-3.44-1.49-4.61-3.11-1.17-1.62-1.75-3.68-1.75-6.16s.58-4.54,1.75-6.16c1.17-1.62,2.71-2.66,4.61-3.11l.18,1.42c-1.62,.45-2.82,1.39-3.58,2.81-.76,1.42-1.15,3.11-1.15,5.05s.38,3.62,1.15,5.04,1.96,2.36,3.58,2.81l-.18,1.42Z"/>
  <path class="cls-3" d="M175.18,157.47c-.41,0-.85-.04-1.3-.14-.45-.09-.88-.22-1.28-.37v3.96h-1.82v-14.55h1.82v1.82h.55c.3-.62,.74-1.11,1.32-1.46s1.2-.54,1.86-.54c1.09,0,1.95,.37,2.59,1.12s.95,1.75,.95,3.03v2.96c0,1.28-.42,2.3-1.26,3.04-.84,.75-1.98,1.12-3.43,1.12Zm-.02-1.6c1.02,0,1.75-.21,2.21-.62s.68-1.07,.68-1.98v-2.95c0-.84-.17-1.45-.52-1.83-.35-.38-.9-.57-1.66-.57-.61,0-1.17,.15-1.69,.45-.52,.3-1.05,.79-1.58,1.46v5.34c.38,.23,.77,.4,1.17,.52,.41,.12,.87,.17,1.39,.17Z"/>
  <path class="cls-3" d="M184.05,157.28v-1.64h4v-10.73h-.53c-.41,.73-.94,1.24-1.59,1.54-.65,.3-1.4,.38-2.25,.24l-.18-1.78c.93,.11,1.79-.02,2.56-.39,.78-.37,1.45-.97,2.04-1.79h1.76v12.91h3.64v1.64h-9.45Z"/>
  <path class="cls-3" d="M198.05,160.92l1.64-7.27h3.62l-3.73,7.27h-1.53Z"/>
  <path class="cls-3" d="M226.09,157.47c-.41,0-.85-.04-1.3-.14-.45-.09-.88-.22-1.28-.37v3.96h-1.82v-14.55h1.82v1.82h.55c.3-.62,.74-1.11,1.32-1.46s1.2-.54,1.86-.54c1.09,0,1.95,.37,2.59,1.12s.95,1.75,.95,3.03v2.96c0,1.28-.42,2.3-1.26,3.04-.84,.75-1.98,1.12-3.43,1.12Zm-.02-1.6c1.02,0,1.75-.21,2.21-.62s.68-1.07,.68-1.98v-2.95c0-.84-.17-1.45-.52-1.83-.35-.38-.9-.57-1.66-.57-.61,0-1.17,.15-1.69,.45-.52,.3-1.05,.79-1.58,1.46v5.34c.38,.23,.77,.4,1.17,.52,.41,.12,.87,.17,1.39,.17Z"/>
  <path class="cls-3" d="M234.05,157.28v-3.09c0-1.1,.27-1.98,.8-2.62s1.41-1.15,2.64-1.51l2.47-.73c.69-.19,1.18-.44,1.47-.75,.29-.3,.44-.76,.44-1.36v-.75c0-.84-.2-1.43-.61-1.77-.41-.35-1.17-.52-2.3-.52-1.03,0-1.75,.21-2.15,.65s-.66,1.25-.75,2.46l-1.82-.18c.1-1.66,.5-2.84,1.21-3.53,.71-.69,1.88-1.04,3.5-1.04s2.78,.31,3.56,.93c.79,.62,1.18,1.56,1.18,2.82v1.2c0,.91-.26,1.64-.78,2.18-.52,.54-1.38,.99-2.58,1.34l-2.49,.73c-.59,.17-1.07,.42-1.43,.74s-.54,.88-.54,1.66v1.49h8v1.64h-9.82Z"/>
  <path class="cls-3" d="M248.05,161.1l-.18-1.42c1.62-.45,2.82-1.39,3.58-2.83,.76-1.44,1.15-3.11,1.15-5.03s-.38-3.59-1.15-5.03c-.76-1.44-1.96-2.38-3.58-2.83l.18-1.42c1.9,.45,3.44,1.49,4.61,3.12,1.17,1.63,1.75,3.68,1.75,6.16s-.58,4.52-1.75,6.15c-1.17,1.63-2.71,2.67-4.61,3.12Z"/>
  <path class="cls-3" d="M272.05,149.28v-1.82h10.18v1.82h-10.18Zm0,5.09v-1.82h10.18v1.82h-10.18Z"/>
  <path class="cls-3" d="M285.32,156.92v-1.73l7.64-4.27-7.64-4.27v-1.73l9.09,5.09v1.82l-9.09,5.09Z"/>
  <path class="cls-3" d="M318.96,161.1c-2.55,.05-4.39-.18-5.55-.68-1.15-.5-1.73-1.28-1.73-2.34,0-.61,.12-1.12,.37-1.53,.25-.41,.52-.77,.81-1.07,.3-.3,.58-.59,.82-.85,.24-.27,.36-.55,.36-.85,0-.57-.3-.97-.91-1.21s-1.7-.37-3.27-.41v-1.09c1.58-.04,2.67-.17,3.27-.4s.91-.62,.91-1.18c0-.3-.12-.56-.36-.77-.24-.21-.52-.45-.82-.72-.29-.27-.56-.59-.81-.96-.25-.38-.37-.87-.37-1.49,0-1.03,.58-1.8,1.73-2.3,1.15-.5,3-.73,5.55-.68v1.64c-2.05-.04-3.47,.07-4.26,.33s-1.19,.67-1.19,1.24c0,.24,.09,.49,.26,.75,.18,.25,.49,.59,.94,1,.44,.4,.74,.74,.91,1.03,.17,.29,.25,.6,.25,.94,0,.68-.3,1.19-.9,1.54-.6,.35-1.46,.54-2.59,.59v.09c1.13,.12,1.99,.38,2.59,.76,.6,.39,.9,.93,.9,1.64,0,.3-.09,.59-.27,.87-.18,.28-.5,.63-.96,1.05-.42,.36-.72,.68-.88,.94s-.25,.56-.25,.9c0,.61,.4,1.04,1.19,1.31s2.22,.38,4.26,.34v1.6Z"/>
  <path class="cls-2" d="M41.33,181.28v-1.64h3.64v-7.64h-3.64v-1.64h5.45v9.27h3.64v1.64h-9.09Zm4.55-12.91c-.46,0-.83-.07-1.12-.22-.29-.15-.43-.42-.43-.82v-.13c0-.41,.14-.69,.43-.85,.28-.15,.66-.23,1.12-.23s.83,.08,1.12,.23c.28,.15,.43,.43,.43,.85v.13c0,.4-.15,.67-.44,.82s-.66,.22-1.11,.22Z"/>
  <path class="cls-2" d="M56.78,181.28v-9.27h-3.09v-1.64h3.09v-.73c0-.98,.38-1.74,1.15-2.28,.77-.54,1.72-.81,2.86-.81,.56,0,1.06,.05,1.5,.15,.44,.1,.84,.21,1.19,.33l-.36,1.53c-.27-.08-.59-.17-.97-.25s-.83-.12-1.35-.12c-.67,0-1.2,.11-1.6,.34-.4,.22-.6,.59-.6,1.1v.75h4.55v1.64h-4.55v9.27h-1.82Z"/>
  <path class="cls-3" d="M87.69,185.1c-1.9-.45-3.44-1.49-4.61-3.11-1.17-1.62-1.75-3.68-1.75-6.16s.58-4.54,1.75-6.16c1.17-1.62,2.71-2.66,4.61-3.11l.18,1.42c-1.62,.45-2.82,1.39-3.58,2.81-.76,1.42-1.15,3.11-1.15,5.05s.38,3.62,1.15,5.04,1.96,2.36,3.58,2.81l-.18,1.42Z"/>
  <path class="cls-3" d="M96.64,181.47c-.41,0-.85-.04-1.3-.14-.45-.09-.88-.22-1.28-.37v3.96h-1.82v-14.55h1.82v1.82h.55c.3-.62,.74-1.11,1.32-1.46s1.2-.54,1.86-.54c1.09,0,1.95,.37,2.59,1.12s.95,1.75,.95,3.03v2.96c0,1.28-.42,2.3-1.26,3.04-.84,.75-1.98,1.12-3.43,1.12Zm-.02-1.6c1.02,0,1.75-.21,2.21-.62s.68-1.07,.68-1.98v-2.95c0-.84-.17-1.45-.52-1.83-.35-.38-.9-.57-1.66-.57-.61,0-1.17,.15-1.69,.45-.52,.3-1.05,.79-1.58,1.46v5.34c.38,.23,.77,.4,1.17,.52,.41,.12,.87,.17,1.39,.17Z"/>
  <path class="cls-3" d="M105.51,181.28v-1.64h4v-10.73h-.53c-.41,.73-.94,1.24-1.59,1.54-.65,.3-1.4,.38-2.25,.24l-.18-1.78c.93,.11,1.79-.02,2.56-.39,.78-.37,1.45-.97,2.04-1.79h1.76v12.91h3.64v1.64h-9.45Z"/>
  <path class="cls-3" d="M129.87,173.28v-1.82h10.18v1.82h-10.18Zm0,5.09v-1.82h10.18v1.82h-10.18Z"/>
  <path class="cls-3" d="M142.6,173.28v-1.82h10.18v1.82h-10.18Zm0,5.09v-1.82h10.18v1.82h-10.18Z"/>
  <path class="cls-3" d="M155.33,173.28v-1.82h10.18v1.82h-10.18Zm0,5.09v-1.82h10.18v1.82h-10.18Z"/>
  <path class="cls-3" d="M185.73,181.47c-.41,0-.85-.04-1.3-.14-.45-.09-.88-.22-1.28-.37v3.96h-1.82v-14.55h1.82v1.82h.55c.3-.62,.74-1.11,1.32-1.46s1.2-.54,1.86-.54c1.09,0,1.95,.37,2.59,1.12s.95,1.75,.95,3.03v2.96c0,1.28-.42,2.3-1.26,3.04-.84,.75-1.98,1.12-3.43,1.12Zm-.02-1.6c1.02,0,1.75-.21,2.21-.62s.68-1.07,.68-1.98v-2.95c0-.84-.17-1.45-.52-1.83-.35-.38-.9-.57-1.66-.57-.61,0-1.17,.15-1.69,.45-.52,.3-1.05,.79-1.58,1.46v5.34c.38,.23,.77,.4,1.17,.52,.41,.12,.87,.17,1.39,.17Z"/>
  <path class="cls-3" d="M193.69,181.28v-3.09c0-1.1,.27-1.98,.8-2.62s1.41-1.15,2.64-1.51l2.47-.73c.69-.19,1.18-.44,1.47-.75,.29-.3,.44-.76,.44-1.36v-.75c0-.84-.2-1.43-.61-1.77-.41-.35-1.17-.52-2.3-.52-1.03,0-1.75,.21-2.15,.65s-.66,1.25-.75,2.46l-1.82-.18c.1-1.66,.5-2.84,1.21-3.53,.71-.69,1.88-1.04,3.5-1.04s2.78,.31,3.56,.93c.79,.62,1.18,1.56,1.18,2.82v1.2c0,.91-.26,1.64-.78,2.18-.52,.54-1.38,.99-2.58,1.34l-2.49,.73c-.59,.17-1.07,.42-1.43,.74s-.54,.88-.54,1.66v1.49h8v1.64h-9.82Z"/>
  <path class="cls-3" d="M207.69,185.1l-.18-1.42c1.62-.45,2.82-1.39,3.58-2.83,.76-1.44,1.15-3.11,1.15-5.03s-.38-3.59-1.15-5.03c-.76-1.44-1.96-2.38-3.58-2.83l.18-1.42c1.9,.45,3.44,1.49,4.61,3.12,1.17,1.63,1.75,3.68,1.75,6.16s-.58,4.52-1.75,6.15c-1.17,1.63-2.71,2.67-4.61,3.12Z"/>
  <path class="cls-3" d="M240.42,185.1c-2.55,.05-4.39-.18-5.55-.68-1.15-.5-1.73-1.28-1.73-2.34,0-.61,.12-1.12,.37-1.53,.25-.41,.52-.77,.81-1.07,.3-.3,.58-.59,.82-.85,.24-.27,.36-.55,.36-.85,0-.57-.3-.97-.91-1.21s-1.7-.37-3.27-.41v-1.09c1.58-.04,2.67-.17,3.27-.4s.91-.62,.91-1.18c0-.3-.12-.56-.36-.77-.24-.21-.52-.45-.82-.72-.29-.27-.56-.59-.81-.96-.25-.38-.37-.87-.37-1.49,0-1.03,.58-1.8,1.73-2.3,1.15-.5,3-.73,5.55-.68v1.64c-2.05-.04-3.47,.07-4.26,.33s-1.19,.67-1.19,1.24c0,.24,.09,.49,.26,.75,.18,.25,.49,.59,.94,1,.44,.4,.74,.74,.91,1.03,.17,.29,.25,.6,.25,.94,0,.68-.3,1.19-.9,1.54-.6,.35-1.46,.54-2.59,.59v.09c1.13,.12,1.99,.38,2.59,.76,.6,.39,.9,.93,.9,1.64,0,.3-.09,.59-.27,.87-.18,.28-.5,.63-.96,1.05-.42,.36-.72,.68-.88,.94s-.25,.56-.25,.9c0,.61,.4,1.04,1.19,1.31s2.22,.38,4.26,.34v1.6Z"/>
  <path class="cls-4" d="M245.87,181.28v-10.91h1.82v1.82h.55c.25-.69,.64-1.2,1.16-1.52,.52-.32,1.15-.48,1.89-.48,.81,0,1.49,.27,2.04,.81,.55,.54,.82,1.3,.82,2.28v1.64h-1.73v-.98c0-.69-.15-1.2-.46-1.53s-.78-.49-1.41-.49c-.57,0-1.09,.14-1.55,.42-.47,.28-.9,.71-1.3,1.31v7.64h-1.82Z"/>
  <path class="cls-4" d="M266.82,178.88c-.33,.91-.82,1.57-1.49,1.97-.67,.41-1.69,.61-3.07,.61s-2.56-.35-3.36-1.04c-.8-.7-1.2-1.73-1.2-3.1v-2.93c0-1.41,.42-2.46,1.26-3.16,.84-.7,1.94-1.04,3.3-1.04s2.47,.35,3.29,1.06c.82,.71,1.24,1.8,1.24,3.26v1.67h-7.27v1.15c0,.91,.23,1.57,.68,1.97s1.14,.61,2.05,.61,1.51-.12,1.91-.36c.4-.24,.7-.64,.91-1.18l1.76,.51Zm-7.31-4.49v.44h5.45v-.27c0-.98-.23-1.7-.68-2.15-.45-.45-1.14-.67-2.05-.67s-1.59,.22-2.05,.65c-.45,.43-.68,1.1-.68,2.01Z"/>
  <path class="cls-4" d="M276.76,181.45c-1.2,0-2.13-.3-2.8-.89-.67-.59-1-1.5-1-2.73v-5.82h-3.09v-1.64h3.09v-3.64h1.82v3.64h4.73v1.64h-4.73v5.65c0,.7,.18,1.22,.53,1.56,.35,.34,.87,.51,1.56,.51,.46,0,.89-.03,1.29-.1,.4-.07,.78-.15,1.15-.26l.36,1.65c-.41,.12-.85,.22-1.32,.3-.47,.08-1,.12-1.59,.12Z"/>
  <path class="cls-4" d="M286.67,181.47c-1.05,0-1.91-.34-2.55-1.03-.65-.68-.97-1.58-.97-2.7v-7.36h1.82v7c0,.8,.18,1.39,.53,1.78s.89,.58,1.62,.58c.57,0,1.12-.15,1.66-.46,.54-.31,1.09-.79,1.65-1.45v-7.46h1.82v10.91h-1.82v-1.82h-.55c-.25,.59-.68,1.08-1.26,1.45-.59,.37-1.23,.55-1.94,.55Z"/>
  <path class="cls-4" d="M296.78,181.28v-10.91h1.82v1.82h.55c.25-.69,.64-1.2,1.16-1.52,.52-.32,1.15-.48,1.89-.48,.81,0,1.49,.27,2.04,.81,.55,.54,.82,1.3,.82,2.28v1.64h-1.73v-.98c0-.69-.15-1.2-.46-1.53s-.78-.49-1.41-.49c-.57,0-1.09,.14-1.55,.42-.47,.28-.9,.71-1.3,1.31v7.64h-1.82Z"/>
  <path class="cls-4" d="M308.6,181.28v-10.91h1.82v1.82h.55c.27-.62,.69-1.11,1.25-1.46,.57-.36,1.22-.54,1.95-.54,1.09,0,1.95,.33,2.58,1,.63,.67,.95,1.58,.95,2.73v7.36h-1.82v-7c0-.76-.19-1.35-.55-1.75-.37-.41-.9-.61-1.59-.61-.55,0-1.1,.16-1.66,.49s-1.11,.8-1.65,1.42v7.45h-1.82Z"/>
  <path class="cls-1" d="M337.69,174.01l-.55-7.27h2.91l-.55,7.27h-1.82Z"/>
  <path class="cls-1" d="M346.78,181.28v-14.55h4.02c1.7,0,3.03,.48,3.99,1.45,.96,.96,1.45,2.25,1.45,3.84v4.04c0,1.59-.49,2.85-1.45,3.8-.97,.95-2.3,1.42-4,1.42h-4Zm1.82-1.64h2.18c1.22,0,2.14-.33,2.74-.99,.6-.66,.9-1.52,.9-2.59v-4.04c0-1.05-.3-1.93-.9-2.62-.6-.69-1.51-1.04-2.74-1.04h-2.18v11.27Z"/>
  <path class="cls-1" d="M360.41,181.28v-10.91h1.82v1.82h.55c.25-.69,.64-1.2,1.16-1.52,.52-.32,1.15-.48,1.89-.48,.81,0,1.49,.27,2.04,.81,.55,.54,.82,1.3,.82,2.28v1.64h-1.73v-.98c0-.69-.15-1.2-.46-1.53s-.78-.49-1.41-.49c-.57,0-1.09,.14-1.55,.42-.47,.28-.9,.71-1.3,1.31v7.64h-1.82Z"/>
  <path class="cls-1" d="M375.23,181.47c-.92,0-1.74-.25-2.46-.74s-1.08-1.28-1.08-2.37c0-.96,.31-1.71,.94-2.25,.62-.55,1.35-.82,2.19-.82h3.78v-1.56c0-.58-.19-1.04-.58-1.38-.39-.34-.98-.51-1.76-.51s-1.4,.12-1.79,.35c-.39,.24-.71,.76-.94,1.57l-1.6-.44c.21-1.03,.67-1.81,1.39-2.34s1.69-.79,2.9-.79,2.2,.27,3,.81c.8,.54,1.2,1.38,1.2,2.5v4.88c0,.66,.18,1.07,.55,1.23s.91,.19,1.64,.06v1.65c-.75,.11-1.46,.06-2.12-.15s-1.02-.79-1.08-1.72h-.36c-.34,.56-.85,1.03-1.53,1.42-.68,.39-1.44,.58-2.27,.58Zm.24-1.54c.63,0,1.21-.11,1.75-.34s.99-.62,1.38-1.18v-1.76h-3.27c-.52,0-.95,.12-1.3,.36-.35,.24-.52,.66-.52,1.25,0,.52,.15,.93,.45,1.22,.3,.29,.8,.44,1.52,.44Z"/>
  <path class="cls-1" d="M391.11,181.28l-1.6-7.11-1.53,7.11h-2.07l-2.05-10.91h1.75l1.38,9.58,1.42-7.76h2.15l1.55,7.47,1.33-9.29h1.75l-2.05,10.91h-2Z"/>
  <path class="cls-1" d="M402.25,181.47c-.61,0-1.05-.12-1.34-.37-.28-.25-.43-.63-.43-1.16v-.51c0-.53,.14-.93,.43-1.18,.28-.25,.73-.38,1.34-.38s1.05,.13,1.33,.38c.28,.25,.42,.65,.42,1.18v.51c0,.52-.14,.91-.43,1.16-.29,.25-.72,.37-1.32,.37Zm-.75-5.64l-.55-9.09h2.55l-.55,9.09h-1.45Z"/>
  <path class="cls-1" d="M414.05,174.01l-.55-7.27h2.91l-.55,7.27h-1.82Z"/>
  <path class="cls-3" d="M431.32,182.08c0,1.05-.58,1.83-1.73,2.34-1.15,.5-3,.73-5.55,.68v-1.6c2.05,.04,3.47-.08,4.26-.34s1.19-.7,1.19-1.31c0-.34-.08-.64-.25-.9s-.46-.57-.88-.94c-.46-.42-.78-.78-.96-1.05-.18-.28-.27-.57-.27-.87,0-.7,.3-1.25,.9-1.64,.6-.39,1.46-.64,2.59-.76v-.09c-1.13-.05-1.99-.25-2.59-.59-.6-.34-.9-.86-.9-1.54,0-.34,.08-.65,.25-.94,.17-.28,.47-.63,.91-1.03,.45-.41,.76-.75,.94-1,.18-.25,.26-.5,.26-.75,0-.57-.4-.98-1.19-1.24s-2.22-.36-4.26-.33v-1.64c2.55-.05,4.39,.18,5.55,.68,1.15,.5,1.73,1.27,1.73,2.3,0,.62-.12,1.12-.37,1.49-.25,.38-.52,.7-.81,.96-.3,.27-.58,.51-.82,.72-.24,.21-.36,.47-.36,.77,0,.56,.3,.95,.91,1.18,.61,.23,1.7,.36,3.27,.4v1.09c-1.58,.04-2.67,.17-3.27,.41-.61,.24-.91,.64-.91,1.21,0,.3,.12,.59,.36,.85,.24,.27,.52,.55,.82,.85,.29,.3,.56,.66,.81,1.07,.25,.41,.37,.92,.37,1.53Z"/>
  <path class="cls-3" d="M437.69,184.92l1.64-7.27h3.62l-3.73,7.27h-1.53Zm2.75-10.73c-.61,0-1.1-.12-1.47-.37-.38-.25-.56-.63-.56-1.15v-.87c0-.53,.19-.93,.56-1.18,.38-.25,.87-.38,1.47-.38s1.09,.13,1.46,.38,.55,.65,.55,1.18v.87c0,.52-.19,.91-.56,1.15-.38,.25-.86,.37-1.45,.37Z"/>
  <path class="cls-2" d="M41.33,205.28v-1.64h3.64v-7.64h-3.64v-1.64h5.45v9.27h3.64v1.64h-9.09Zm4.55-12.91c-.46,0-.83-.07-1.12-.22-.29-.15-.43-.42-.43-.82v-.13c0-.41,.14-.69,.43-.85,.28-.15,.66-.23,1.12-.23s.83,.08,1.12,.23c.28,.15,.43,.43,.43,.85v.13c0,.4-.15,.67-.44,.82s-.66,.22-1.11,.22Z"/>
  <path class="cls-2" d="M56.78,205.28v-9.27h-3.09v-1.64h3.09v-.73c0-.98,.38-1.74,1.15-2.28,.77-.54,1.72-.81,2.86-.81,.56,0,1.06,.05,1.5,.15,.44,.1,.84,.21,1.19,.33l-.36,1.53c-.27-.08-.59-.17-.97-.25s-.83-.12-1.35-.12c-.67,0-1.2,.11-1.6,.34-.4,.22-.6,.59-.6,1.1v.75h4.55v1.64h-4.55v9.27h-1.82Z"/>
  <path class="cls-3" d="M74.97,209.1c-1.9-.45-3.44-1.49-4.61-3.11-1.17-1.62-1.75-3.68-1.75-6.16s.58-4.54,1.75-6.16c1.17-1.62,2.71-2.66,4.61-3.11l.18,1.42c-1.62,.45-2.82,1.39-3.58,2.81-.76,1.42-1.15,3.11-1.15,5.05s.38,3.62,1.15,5.04,1.96,2.36,3.58,2.81l-.18,1.42Z"/>
  <path class="cls-3" d="M87.69,209.1c-1.9-.45-3.44-1.49-4.61-3.11-1.17-1.62-1.75-3.68-1.75-6.16s.58-4.54,1.75-6.16c1.17-1.62,2.71-2.66,4.61-3.11l.18,1.42c-1.62,.45-2.82,1.39-3.58,2.81-.76,1.42-1.15,3.11-1.15,5.05s.38,3.62,1.15,5.04,1.96,2.36,3.58,2.81l-.18,1.42Z"/>
  <path class="cls-3" d="M96.64,205.47c-.41,0-.85-.04-1.3-.14-.45-.09-.88-.22-1.28-.37v3.96h-1.82v-14.55h1.82v1.82h.55c.3-.62,.74-1.11,1.32-1.46s1.2-.54,1.86-.54c1.09,0,1.95,.37,2.59,1.12s.95,1.75,.95,3.03v2.96c0,1.28-.42,2.3-1.26,3.04-.84,.75-1.98,1.12-3.43,1.12Zm-.02-1.6c1.02,0,1.75-.21,2.21-.62s.68-1.07,.68-1.98v-2.95c0-.84-.17-1.45-.52-1.83-.35-.38-.9-.57-1.66-.57-.61,0-1.17,.15-1.69,.45-.52,.3-1.05,.79-1.58,1.46v5.34c.38,.23,.77,.4,1.17,.52,.41,.12,.87,.17,1.39,.17Z"/>
  <path class="cls-3" d="M105.51,205.28v-1.64h4v-10.73h-.53c-.41,.73-.94,1.24-1.59,1.54-.65,.3-1.4,.38-2.25,.24l-.18-1.78c.93,.11,1.79-.02,2.56-.39,.78-.37,1.45-.97,2.04-1.79h1.76v12.91h3.64v1.64h-9.45Z"/>
  <path class="cls-3" d="M129.87,197.28v-1.82h10.18v1.82h-10.18Zm0,5.09v-1.82h10.18v1.82h-10.18Z"/>
  <path class="cls-3" d="M142.6,197.28v-1.82h10.18v1.82h-10.18Zm0,5.09v-1.82h10.18v1.82h-10.18Z"/>
  <path class="cls-3" d="M155.33,197.28v-1.82h10.18v1.82h-10.18Zm0,5.09v-1.82h10.18v1.82h-10.18Z"/>
  <path class="cls-1" d="M184.96,198.01l-.55-7.27h2.91l-.55,7.27h-1.82Z"/>
  <path class="cls-1" d="M198.75,205.47c-.92,0-1.81-.14-2.67-.41-.86-.27-1.65-.69-2.38-1.26l.82-1.44c.59,.49,1.26,.85,1.99,1.1s1.48,.37,2.25,.37c.63,0,1.23-.1,1.81-.29,.58-.19,.86-.6,.86-1.23,0-.52-.24-.89-.71-1.1-.47-.22-1.34-.4-2.6-.56-1.33-.16-2.34-.47-3.03-.94-.68-.47-1.03-1.21-1.03-2.22,0-1.09,.41-1.92,1.24-2.47,.82-.55,1.78-.83,2.87-.83,.86,0,1.69,.15,2.48,.44,.79,.29,1.53,.7,2.21,1.24l-.82,1.44c-.56-.45-1.16-.81-1.82-1.07-.65-.27-1.34-.4-2.05-.4-.58,0-1.11,.11-1.59,.33-.48,.22-.72,.62-.72,1.2,0,.5,.22,.86,.66,1.08,.44,.22,1.29,.42,2.55,.57,1.38,.16,2.42,.49,3.11,1.01,.69,.52,1.04,1.23,1.04,2.15,0,1.14-.46,1.97-1.38,2.5-.92,.53-1.95,.79-3.09,.79Z"/>
  <path class="cls-1" d="M211.58,205.47c-1.59,0-2.79-.35-3.59-1.04-.81-.7-1.21-1.72-1.21-3.08v-2.95c0-1.38,.4-2.43,1.21-3.14,.81-.71,2-1.06,3.57-1.06,1.41,0,2.49,.32,3.25,.95,.76,.64,1.18,1.57,1.26,2.79l-1.78,.11c-.05-.75-.3-1.31-.75-1.67-.45-.36-1.12-.54-2-.54-.99,0-1.73,.21-2.22,.63-.48,.42-.73,1.06-.73,1.94v2.95c0,.84,.25,1.46,.74,1.87,.49,.41,1.24,.62,2.25,.62,.87,0,1.53-.16,1.98-.46,.45-.31,.69-.77,.73-1.39l1.78,.11c-.08,1.12-.5,1.96-1.25,2.53-.75,.57-1.83,.85-3.24,.85Z"/>
  <path class="cls-1" d="M219.51,205.28v-1.64h3.64v-7.64h-3.64v-1.64h5.45v9.27h3.64v1.64h-9.09Zm4.55-12.91c-.46,0-.83-.07-1.12-.22-.29-.15-.43-.42-.43-.82v-.13c0-.41,.14-.69,.43-.85,.28-.15,.66-.23,1.12-.23s.83,.08,1.12,.23c.28,.15,.43,.43,.43,.85v.13c0,.4-.15,.67-.44,.82s-.66,.22-1.11,.22Z"/>
  <path class="cls-1" d="M236.93,205.47c-.92,0-1.81-.14-2.67-.41-.86-.27-1.65-.69-2.38-1.26l.82-1.44c.59,.49,1.26,.85,1.99,1.1s1.48,.37,2.25,.37c.63,0,1.23-.1,1.81-.29,.58-.19,.86-.6,.86-1.23,0-.52-.24-.89-.71-1.1-.47-.22-1.34-.4-2.6-.56-1.33-.16-2.34-.47-3.03-.94-.68-.47-1.03-1.21-1.03-2.22,0-1.09,.41-1.92,1.24-2.47,.82-.55,1.78-.83,2.87-.83,.86,0,1.69,.15,2.48,.44,.79,.29,1.53,.7,2.21,1.24l-.82,1.44c-.56-.45-1.16-.81-1.82-1.07-.65-.27-1.34-.4-2.05-.4-.58,0-1.11,.11-1.59,.33-.48,.22-.72,.62-.72,1.2,0,.5,.22,.86,.66,1.08,.44,.22,1.29,.42,2.55,.57,1.38,.16,2.42,.49,3.11,1.01,.69,.52,1.04,1.23,1.04,2.15,0,1.14-.46,1.97-1.38,2.5-.92,.53-1.95,.79-3.09,.79Z"/>
  <path class="cls-1" d="M249.65,205.47c-.92,0-1.81-.14-2.67-.41-.86-.27-1.65-.69-2.38-1.26l.82-1.44c.59,.49,1.26,.85,1.99,1.1s1.48,.37,2.25,.37c.63,0,1.23-.1,1.81-.29,.58-.19,.86-.6,.86-1.23,0-.52-.24-.89-.71-1.1-.47-.22-1.34-.4-2.6-.56-1.33-.16-2.34-.47-3.03-.94-.68-.47-1.03-1.21-1.03-2.22,0-1.09,.41-1.92,1.24-2.47,.82-.55,1.78-.83,2.87-.83,.86,0,1.69,.15,2.48,.44,.79,.29,1.53,.7,2.21,1.24l-.82,1.44c-.56-.45-1.16-.81-1.82-1.07-.65-.27-1.34-.4-2.05-.4-.58,0-1.11,.11-1.59,.33-.48,.22-.72,.62-.72,1.2,0,.5,.22,.86,.66,1.08,.44,.22,1.29,.42,2.55,.57,1.38,.16,2.42,.49,3.11,1.01,.69,.52,1.04,1.23,1.04,2.15,0,1.14-.46,1.97-1.38,2.5-.92,.53-1.95,.79-3.09,.79Z"/>
  <path class="cls-1" d="M262.24,205.47c-1.47,0-2.59-.35-3.37-1.06-.78-.71-1.17-1.73-1.17-3.06v-2.95c0-1.35,.39-2.38,1.18-3.11,.79-.73,1.92-1.09,3.38-1.09s2.57,.36,3.35,1.09,1.17,1.76,1.17,3.11v2.95c0,1.33-.39,2.35-1.17,3.06s-1.91,1.06-3.37,1.06Zm0-1.64c.92,0,1.61-.21,2.05-.62,.45-.41,.67-1.04,.67-1.87v-2.95c0-.87-.22-1.52-.67-1.94-.45-.42-1.13-.63-2.05-.63s-1.61,.21-2.05,.63c-.45,.42-.67,1.06-.67,1.94v2.95c0,.84,.22,1.46,.67,1.87,.45,.41,1.13,.62,2.05,.62Z"/>
  <path class="cls-1" d="M271.33,205.28v-10.91h1.82v1.82h.55c.25-.69,.64-1.2,1.16-1.52,.52-.32,1.15-.48,1.89-.48,.81,0,1.49,.27,2.04,.81,.55,.54,.82,1.3,.82,2.28v1.64h-1.73v-.98c0-.69-.15-1.2-.46-1.53s-.78-.49-1.41-.49c-.57,0-1.09,.14-1.55,.42-.47,.28-.9,.71-1.3,1.31v7.64h-1.82Z"/>
  <path class="cls-1" d="M287.83,205.47c-.92,0-1.81-.14-2.67-.41-.86-.27-1.65-.69-2.38-1.26l.82-1.44c.59,.49,1.26,.85,1.99,1.1s1.48,.37,2.25,.37c.63,0,1.23-.1,1.81-.29,.58-.19,.86-.6,.86-1.23,0-.52-.24-.89-.71-1.1-.47-.22-1.34-.4-2.6-.56-1.33-.16-2.34-.47-3.03-.94-.68-.47-1.03-1.21-1.03-2.22,0-1.09,.41-1.92,1.24-2.47,.82-.55,1.78-.83,2.87-.83,.86,0,1.69,.15,2.48,.44,.79,.29,1.53,.7,2.21,1.24l-.82,1.44c-.56-.45-1.16-.81-1.82-1.07-.65-.27-1.34-.4-2.05-.4-.58,0-1.11,.11-1.59,.33-.48,.22-.72,.62-.72,1.2,0,.5,.22,.86,.66,1.08,.44,.22,1.29,.42,2.55,.57,1.38,.16,2.42,.49,3.11,1.01,.69,.52,1.04,1.23,1.04,2.15,0,1.14-.46,1.97-1.38,2.5-.92,.53-1.95,.79-3.09,.79Z"/>
  <path class="cls-1" d="M299.51,198.01l-.55-7.27h2.91l-.55,7.27h-1.82Z"/>
  <path class="cls-3" d="M331.6,205.39c-.73-.22-1.42-.5-2.08-.85-.66-.35-1.29-.73-1.88-1.15-.56,.64-1.13,1.15-1.73,1.52-.59,.37-1.3,.55-2.13,.55-1.03,0-1.88-.33-2.55-.98s-1-1.61-1-2.85c0-.99,.25-1.85,.75-2.56,.5-.72,1.09-1.26,1.75-1.64-.28-.61-.49-1.18-.65-1.72-.15-.54-.23-1.01-.23-1.41,0-1.15,.28-2.06,.85-2.74,.57-.67,1.38-1.01,2.42-1.01,.88,0,1.63,.31,2.23,.93s.9,1.35,.9,2.18c0,1.02-.29,1.83-.86,2.44s-1.53,1.16-2.86,1.65c.1,.21,.21,.41,.34,.61,.13,.2,.25,.4,.37,.59,.3,.45,.63,.88,.98,1.3s.73,.81,1.13,1.17c.34-.52,.67-1.11,.98-1.76,.31-.65,.61-1.36,.89-2.13l1.55,.71c-.36,.85-.79,1.59-1.26,2.23-.48,.64-.94,1.25-1.37,1.83l3.73,1.44-.27,1.66Zm-7.67-1.51c.46,0,.91-.12,1.35-.36s.86-.59,1.27-1.04c-.45-.39-.86-.8-1.25-1.23-.38-.43-.74-.87-1.06-1.32-.17-.24-.34-.49-.5-.74-.16-.25-.31-.49-.45-.72-.39,.36-.71,.81-.95,1.34s-.37,1.07-.37,1.63c0,.73,.17,1.31,.5,1.76,.33,.45,.82,.67,1.46,.67Zm-.33-9.49c0,.38,.05,.77,.14,1.19,.09,.42,.22,.83,.39,1.25,.9-.4,1.55-.84,1.95-1.31,.41-.47,.61-1.02,.61-1.65,0-.51-.15-.92-.45-1.25-.3-.32-.65-.48-1.05-.48-.59,0-1.01,.21-1.25,.62s-.35,.96-.35,1.64Z"/>
  <path class="cls-3" d="M344.32,205.39c-.73-.22-1.42-.5-2.08-.85-.66-.35-1.29-.73-1.88-1.15-.56,.64-1.13,1.15-1.73,1.52-.59,.37-1.3,.55-2.13,.55-1.03,0-1.88-.33-2.55-.98s-1-1.61-1-2.85c0-.99,.25-1.85,.75-2.56,.5-.72,1.09-1.26,1.75-1.64-.28-.61-.49-1.18-.65-1.72-.15-.54-.23-1.01-.23-1.41,0-1.15,.28-2.06,.85-2.74,.57-.67,1.38-1.01,2.42-1.01,.88,0,1.63,.31,2.23,.93s.9,1.35,.9,2.18c0,1.02-.29,1.83-.86,2.44s-1.53,1.16-2.86,1.65c.1,.21,.21,.41,.34,.61,.13,.2,.25,.4,.37,.59,.3,.45,.63,.88,.98,1.3s.73,.81,1.13,1.17c.34-.52,.67-1.11,.98-1.76,.31-.65,.61-1.36,.89-2.13l1.55,.71c-.36,.85-.79,1.59-1.26,2.23-.48,.64-.94,1.25-1.37,1.83l3.73,1.44-.27,1.66Zm-7.67-1.51c.46,0,.91-.12,1.35-.36s.86-.59,1.27-1.04c-.45-.39-.86-.8-1.25-1.23-.38-.43-.74-.87-1.06-1.32-.17-.24-.34-.49-.5-.74-.16-.25-.31-.49-.45-.72-.39,.36-.71,.81-.95,1.34s-.37,1.07-.37,1.63c0,.73,.17,1.31,.5,1.76,.33,.45,.82,.67,1.46,.67Zm-.33-9.49c0,.38,.05,.77,.14,1.19,.09,.42,.22,.83,.39,1.25,.9-.4,1.55-.84,1.95-1.31,.41-.47,.61-1.02,.61-1.65,0-.51-.15-.92-.45-1.25-.3-.32-.65-.48-1.05-.48-.59,0-1.01,.21-1.25,.62s-.35,.96-.35,1.64Z"/>
  <path class="cls-3" d="M363.91,205.47c-.41,0-.85-.04-1.3-.14-.45-.09-.88-.22-1.28-.37v3.96h-1.82v-14.55h1.82v1.82h.55c.3-.62,.74-1.11,1.32-1.46s1.2-.54,1.86-.54c1.09,0,1.95,.37,2.59,1.12s.95,1.75,.95,3.03v2.96c0,1.28-.42,2.3-1.26,3.04-.84,.75-1.98,1.12-3.43,1.12Zm-.02-1.6c1.02,0,1.75-.21,2.21-.62s.68-1.07,.68-1.98v-2.95c0-.84-.17-1.45-.52-1.83-.35-.38-.9-.57-1.66-.57-.61,0-1.17,.15-1.69,.45-.52,.3-1.05,.79-1.58,1.46v5.34c.38,.23,.77,.4,1.17,.52,.41,.12,.87,.17,1.39,.17Z"/>
  <path class="cls-3" d="M371.87,205.28v-3.09c0-1.1,.27-1.98,.8-2.62s1.41-1.15,2.64-1.51l2.47-.73c.69-.19,1.18-.44,1.47-.75,.29-.3,.44-.76,.44-1.36v-.75c0-.84-.2-1.43-.61-1.77-.41-.35-1.17-.52-2.3-.52-1.03,0-1.75,.21-2.15,.65s-.66,1.25-.75,2.46l-1.82-.18c.1-1.66,.5-2.84,1.21-3.53,.71-.69,1.88-1.04,3.5-1.04s2.78,.31,3.56,.93c.79,.62,1.18,1.56,1.18,2.82v1.2c0,.91-.26,1.64-.78,2.18-.52,.54-1.38,.99-2.58,1.34l-2.49,.73c-.59,.17-1.07,.42-1.43,.74s-.54,.88-.54,1.66v1.49h8v1.64h-9.82Z"/>
  <path class="cls-3" d="M397.14,197.28v-1.82h10.18v1.82h-10.18Zm0,5.09v-1.82h10.18v1.82h-10.18Z"/>
  <path class="cls-3" d="M409.87,197.28v-1.82h10.18v1.82h-10.18Zm0,5.09v-1.82h10.18v1.82h-10.18Z"/>
  <path class="cls-3" d="M422.6,197.28v-1.82h10.18v1.82h-10.18Zm0,5.09v-1.82h10.18v1.82h-10.18Z"/>
  <path class="cls-1" d="M452.23,198.01l-.55-7.27h2.91l-.55,7.27h-1.82Z"/>
  <path class="cls-1" d="M465.72,205.47c-.41,0-.85-.04-1.3-.14-.45-.09-.88-.22-1.28-.37v3.96h-1.82v-14.55h1.82v1.82h.55c.3-.62,.74-1.11,1.32-1.46s1.2-.54,1.86-.54c1.09,0,1.95,.37,2.59,1.12s.95,1.75,.95,3.03v2.96c0,1.28-.42,2.3-1.26,3.04-.84,.75-1.98,1.12-3.43,1.12Zm-.02-1.6c1.02,0,1.75-.21,2.21-.62s.68-1.07,.68-1.98v-2.95c0-.84-.17-1.45-.52-1.83-.35-.38-.9-.57-1.66-.57-.61,0-1.17,.15-1.69,.45-.52,.3-1.05,.79-1.58,1.46v5.34c.38,.23,.77,.4,1.17,.52,.41,.12,.87,.17,1.39,.17Z"/>
  <path class="cls-1" d="M477.05,205.47c-.92,0-1.74-.25-2.46-.74s-1.08-1.28-1.08-2.37c0-.96,.31-1.71,.94-2.25,.62-.55,1.35-.82,2.19-.82h3.78v-1.56c0-.58-.19-1.04-.58-1.38-.39-.34-.98-.51-1.76-.51s-1.4,.12-1.79,.35c-.39,.24-.71,.76-.94,1.57l-1.6-.44c.21-1.03,.67-1.81,1.39-2.34s1.69-.79,2.9-.79,2.2,.27,3,.81c.8,.54,1.2,1.38,1.2,2.5v4.88c0,.66,.18,1.07,.55,1.23s.91,.19,1.64,.06v1.65c-.75,.11-1.46,.06-2.12-.15s-1.02-.79-1.08-1.72h-.36c-.34,.56-.85,1.03-1.53,1.42-.68,.39-1.44,.58-2.27,.58Zm.24-1.54c.63,0,1.21-.11,1.75-.34s.99-.62,1.38-1.18v-1.76h-3.27c-.52,0-.95,.12-1.3,.36-.35,.24-.52,.66-.52,1.25,0,.52,.15,.93,.45,1.22,.3,.29,.8,.44,1.52,.44Z"/>
  <path class="cls-1" d="M491.18,205.47c-.41,0-.85-.04-1.3-.14-.45-.09-.88-.22-1.28-.37v3.96h-1.82v-14.55h1.82v1.82h.55c.3-.62,.74-1.11,1.32-1.46s1.2-.54,1.86-.54c1.09,0,1.95,.37,2.59,1.12s.95,1.75,.95,3.03v2.96c0,1.28-.42,2.3-1.26,3.04-.84,.75-1.98,1.12-3.43,1.12Zm-.02-1.6c1.02,0,1.75-.21,2.21-.62s.68-1.07,.68-1.98v-2.95c0-.84-.17-1.45-.52-1.83-.35-.38-.9-.57-1.66-.57-.61,0-1.17,.15-1.69,.45-.52,.3-1.05,.79-1.58,1.46v5.34c.38,.23,.77,.4,1.17,.52,.41,.12,.87,.17,1.39,.17Z"/>
  <path class="cls-1" d="M508.63,202.88c-.33,.91-.82,1.57-1.49,1.97-.67,.41-1.69,.61-3.07,.61s-2.56-.35-3.36-1.04c-.8-.7-1.2-1.73-1.2-3.1v-2.93c0-1.41,.42-2.46,1.26-3.16,.84-.7,1.94-1.04,3.3-1.04s2.47,.35,3.29,1.06c.82,.71,1.24,1.8,1.24,3.26v1.67h-7.27v1.15c0,.91,.23,1.57,.68,1.97s1.14,.61,2.05,.61,1.51-.12,1.91-.36c.4-.24,.7-.64,.91-1.18l1.76,.51Zm-7.31-4.49v.44h5.45v-.27c0-.98-.23-1.7-.68-2.15-.45-.45-1.14-.67-2.05-.67s-1.59,.22-2.05,.65c-.45,.43-.68,1.1-.68,2.01Z"/>
  <path class="cls-1" d="M513.14,205.28v-10.91h1.82v1.82h.55c.25-.69,.64-1.2,1.16-1.52,.52-.32,1.15-.48,1.89-.48,.81,0,1.49,.27,2.04,.81,.55,.54,.82,1.3,.82,2.28v1.64h-1.73v-.98c0-.69-.15-1.2-.46-1.53s-.78-.49-1.41-.49c-.57,0-1.09,.14-1.55,.42-.47,.28-.9,.71-1.3,1.31v7.64h-1.82Z"/>
  <path class="cls-1" d="M528.59,198.01l-.55-7.27h2.91l-.55,7.27h-1.82Z"/>
  <path class="cls-3" d="M538.59,209.1l-.18-1.42c1.62-.45,2.82-1.39,3.58-2.83,.76-1.44,1.15-3.11,1.15-5.03s-.38-3.59-1.15-5.03c-.76-1.44-1.96-2.38-3.58-2.83l.18-1.42c1.9,.45,3.44,1.49,4.61,3.12,1.17,1.63,1.75,3.68,1.75,6.16s-.58,4.52-1.75,6.15c-1.17,1.63-2.71,2.67-4.61,3.12Z"/>
  <path class="cls-3" d="M85.51,233.1c-1.9-.45-3.44-1.49-4.61-3.11-1.17-1.62-1.75-3.68-1.75-6.16s.58-4.54,1.75-6.16c1.17-1.62,2.71-2.66,4.61-3.11l.18,1.42c-1.62,.45-2.82,1.39-3.58,2.81-.76,1.42-1.15,3.11-1.15,5.05s.38,3.62,1.15,5.04,1.96,2.36,3.58,2.81l-.18,1.42Z"/>
  <path class="cls-3" d="M94.46,229.47c-.41,0-.85-.04-1.3-.14-.45-.09-.88-.22-1.28-.37v3.96h-1.82v-14.55h1.82v1.82h.55c.3-.62,.74-1.11,1.32-1.46s1.2-.54,1.86-.54c1.09,0,1.95,.37,2.59,1.12s.95,1.75,.95,3.03v2.96c0,1.28-.42,2.3-1.26,3.04-.84,.75-1.98,1.12-3.43,1.12Zm-.02-1.6c1.02,0,1.75-.21,2.21-.62s.68-1.07,.68-1.98v-2.95c0-.84-.17-1.45-.52-1.83-.35-.38-.9-.57-1.66-.57-.61,0-1.17,.15-1.69,.45-.52,.3-1.05,.79-1.58,1.46v5.34c.38,.23,.77,.4,1.17,.52,.41,.12,.87,.17,1.39,.17Z"/>
  <path class="cls-3" d="M103.33,229.28v-1.64h4v-10.73h-.53c-.41,.73-.94,1.24-1.59,1.54-.65,.3-1.4,.38-2.25,.24l-.18-1.78c.93,.11,1.79-.02,2.56-.39,.78-.37,1.45-.97,2.04-1.79h1.76v12.91h3.64v1.64h-9.45Z"/>
  <path class="cls-3" d="M127.69,221.28v-1.82h10.18v1.82h-10.18Zm0,5.09v-1.82h10.18v1.82h-10.18Z"/>
  <path class="cls-3" d="M140.42,221.28v-1.82h10.18v1.82h-10.18Zm0,5.09v-1.82h10.18v1.82h-10.18Z"/>
  <path class="cls-3" d="M153.15,221.28v-1.82h10.18v1.82h-10.18Zm0,5.09v-1.82h10.18v1.82h-10.18Z"/>
  <path class="cls-1" d="M182.78,222.01l-.55-7.27h2.91l-.55,7.27h-1.82Z"/>
  <path class="cls-1" d="M192.78,229.28v-10.91h1.82v1.82h.55c.25-.69,.64-1.2,1.16-1.52,.52-.32,1.15-.48,1.89-.48,.81,0,1.49,.27,2.04,.81,.55,.54,.82,1.3,.82,2.28v1.64h-1.73v-.98c0-.69-.15-1.2-.46-1.53s-.78-.49-1.41-.49c-.57,0-1.09,.14-1.55,.42-.47,.28-.9,.71-1.3,1.31v7.64h-1.82Z"/>
  <path class="cls-1" d="M209.15,229.47c-1.47,0-2.59-.35-3.37-1.06-.78-.71-1.17-1.73-1.17-3.06v-2.95c0-1.35,.39-2.38,1.18-3.11,.79-.73,1.92-1.09,3.38-1.09s2.57,.36,3.35,1.09,1.17,1.76,1.17,3.11v2.95c0,1.33-.39,2.35-1.17,3.06s-1.91,1.06-3.37,1.06Zm0-1.64c.92,0,1.61-.21,2.05-.62,.45-.41,.67-1.04,.67-1.87v-2.95c0-.87-.22-1.52-.67-1.94-.45-.42-1.13-.63-2.05-.63s-1.61,.21-2.05,.63c-.45,.42-.67,1.06-.67,1.94v2.95c0,.84,.22,1.46,.67,1.87,.45,.41,1.13,.62,2.05,.62Z"/>
  <path class="cls-1" d="M222.13,229.47c-1.59,0-2.79-.35-3.59-1.04-.81-.7-1.21-1.72-1.21-3.08v-2.95c0-1.38,.4-2.43,1.21-3.14,.81-.71,2-1.06,3.57-1.06,1.41,0,2.49,.32,3.25,.95,.76,.64,1.18,1.57,1.26,2.79l-1.78,.11c-.05-.75-.3-1.31-.75-1.67-.45-.36-1.12-.54-2-.54-.99,0-1.73,.21-2.22,.63-.48,.42-.73,1.06-.73,1.94v2.95c0,.84,.25,1.46,.74,1.87,.49,.41,1.24,.62,2.25,.62,.87,0,1.53-.16,1.98-.46,.45-.31,.69-.77,.73-1.39l1.78,.11c-.08,1.12-.5,1.96-1.25,2.53-.75,.57-1.83,.85-3.24,.85Z"/>
  <path class="cls-1" d="M232.78,224.34v4.95h-1.82v-14.55h1.82v8.05h.93l3.49-4.42h2.22l-4.27,5.08,4.22,5.83h-2.07l-3.58-4.95h-.93Z"/>
  <path class="cls-1" d="M246.42,222.01l-.55-7.27h2.91l-.55,7.27h-1.82Z"/>
  <path class="cls-3" d="M278.51,229.39c-.73-.22-1.42-.5-2.08-.85-.66-.35-1.29-.73-1.88-1.15-.56,.64-1.13,1.15-1.73,1.52-.59,.37-1.3,.55-2.13,.55-1.03,0-1.88-.33-2.55-.98s-1-1.61-1-2.85c0-.99,.25-1.85,.75-2.56,.5-.72,1.09-1.26,1.75-1.64-.28-.61-.49-1.18-.65-1.72-.15-.54-.23-1.01-.23-1.41,0-1.15,.28-2.06,.85-2.74,.57-.67,1.38-1.01,2.42-1.01,.88,0,1.63,.31,2.23,.93s.9,1.35,.9,2.18c0,1.02-.29,1.83-.86,2.44s-1.53,1.16-2.86,1.65c.1,.21,.21,.41,.34,.61,.13,.2,.25,.4,.37,.59,.3,.45,.63,.88,.98,1.3s.73,.81,1.13,1.17c.34-.52,.67-1.11,.98-1.76,.31-.65,.61-1.36,.89-2.13l1.55,.71c-.36,.85-.79,1.59-1.26,2.23-.48,.64-.94,1.25-1.37,1.83l3.73,1.44-.27,1.66Zm-7.67-1.51c.46,0,.91-.12,1.35-.36s.86-.59,1.27-1.04c-.45-.39-.86-.8-1.25-1.23-.38-.43-.74-.87-1.06-1.32-.17-.24-.34-.49-.5-.74-.16-.25-.31-.49-.45-.72-.39,.36-.71,.81-.95,1.34s-.37,1.07-.37,1.63c0,.73,.17,1.31,.5,1.76,.33,.45,.82,.67,1.46,.67Zm-.33-9.49c0,.38,.05,.77,.14,1.19,.09,.42,.22,.83,.39,1.25,.9-.4,1.55-.84,1.95-1.31,.41-.47,.61-1.02,.61-1.65,0-.51-.15-.92-.45-1.25-.3-.32-.65-.48-1.05-.48-.59,0-1.01,.21-1.25,.62s-.35,.96-.35,1.64Z"/>
  <path class="cls-3" d="M291.24,229.39c-.73-.22-1.42-.5-2.08-.85-.66-.35-1.29-.73-1.88-1.15-.56,.64-1.13,1.15-1.73,1.52-.59,.37-1.3,.55-2.13,.55-1.03,0-1.88-.33-2.55-.98s-1-1.61-1-2.85c0-.99,.25-1.85,.75-2.56,.5-.72,1.09-1.26,1.75-1.64-.28-.61-.49-1.18-.65-1.72-.15-.54-.23-1.01-.23-1.41,0-1.15,.28-2.06,.85-2.74,.57-.67,1.38-1.01,2.42-1.01,.88,0,1.63,.31,2.23,.93s.9,1.35,.9,2.18c0,1.02-.29,1.83-.86,2.44s-1.53,1.16-2.86,1.65c.1,.21,.21,.41,.34,.61,.13,.2,.25,.4,.37,.59,.3,.45,.63,.88,.98,1.3s.73,.81,1.13,1.17c.34-.52,.67-1.11,.98-1.76,.31-.65,.61-1.36,.89-2.13l1.55,.71c-.36,.85-.79,1.59-1.26,2.23-.48,.64-.94,1.25-1.37,1.83l3.73,1.44-.27,1.66Zm-7.67-1.51c.46,0,.91-.12,1.35-.36s.86-.59,1.27-1.04c-.45-.39-.86-.8-1.25-1.23-.38-.43-.74-.87-1.06-1.32-.17-.24-.34-.49-.5-.74-.16-.25-.31-.49-.45-.72-.39,.36-.71,.81-.95,1.34s-.37,1.07-.37,1.63c0,.73,.17,1.31,.5,1.76,.33,.45,.82,.67,1.46,.67Zm-.33-9.49c0,.38,.05,.77,.14,1.19,.09,.42,.22,.83,.39,1.25,.9-.4,1.55-.84,1.95-1.31,.41-.47,.61-1.02,.61-1.65,0-.51-.15-.92-.45-1.25-.3-.32-.65-.48-1.05-.48-.59,0-1.01,.21-1.25,.62s-.35,.96-.35,1.64Z"/>
  <path class="cls-3" d="M310.82,229.47c-.41,0-.85-.04-1.3-.14-.45-.09-.88-.22-1.28-.37v3.96h-1.82v-14.55h1.82v1.82h.55c.3-.62,.74-1.11,1.32-1.46s1.2-.54,1.86-.54c1.09,0,1.95,.37,2.59,1.12s.95,1.75,.95,3.03v2.96c0,1.28-.42,2.3-1.26,3.04-.84,.75-1.98,1.12-3.43,1.12Zm-.02-1.6c1.02,0,1.75-.21,2.21-.62s.68-1.07,.68-1.98v-2.95c0-.84-.17-1.45-.52-1.83-.35-.38-.9-.57-1.66-.57-.61,0-1.17,.15-1.69,.45-.52,.3-1.05,.79-1.58,1.46v5.34c.38,.23,.77,.4,1.17,.52,.41,.12,.87,.17,1.39,.17Z"/>
  <path class="cls-3" d="M318.78,229.28v-3.09c0-1.1,.27-1.98,.8-2.62s1.41-1.15,2.64-1.51l2.47-.73c.69-.19,1.18-.44,1.47-.75,.29-.3,.44-.76,.44-1.36v-.75c0-.84-.2-1.43-.61-1.77-.41-.35-1.17-.52-2.3-.52-1.03,0-1.75,.21-2.15,.65s-.66,1.25-.75,2.46l-1.82-.18c.1-1.66,.5-2.84,1.21-3.53,.71-.69,1.88-1.04,3.5-1.04s2.78,.31,3.56,.93c.79,.62,1.18,1.56,1.18,2.82v1.2c0,.91-.26,1.64-.78,2.18-.52,.54-1.38,.99-2.58,1.34l-2.49,.73c-.59,.17-1.07,.42-1.43,.74s-.54,.88-.54,1.66v1.49h8v1.64h-9.82Z"/>
  <path class="cls-3" d="M344.05,221.28v-1.82h10.18v1.82h-10.18Zm0,5.09v-1.82h10.18v1.82h-10.18Z"/>
  <path class="cls-3" d="M356.78,221.28v-1.82h10.18v1.82h-10.18Zm0,5.09v-1.82h10.18v1.82h-10.18Z"/>
  <path class="cls-3" d="M369.51,221.28v-1.82h10.18v1.82h-10.18Zm0,5.09v-1.82h10.18v1.82h-10.18Z"/>
  <path class="cls-1" d="M399.14,222.01l-.55-7.27h2.91l-.55,7.27h-1.82Z"/>
  <path class="cls-1" d="M412.92,229.47c-.92,0-1.81-.14-2.67-.41-.86-.27-1.65-.69-2.38-1.26l.82-1.44c.59,.49,1.26,.85,1.99,1.1s1.48,.37,2.25,.37c.63,0,1.23-.1,1.81-.29,.58-.19,.86-.6,.86-1.23,0-.52-.24-.89-.71-1.1-.47-.22-1.34-.4-2.6-.56-1.33-.16-2.34-.47-3.03-.94-.68-.47-1.03-1.21-1.03-2.22,0-1.09,.41-1.92,1.24-2.47,.82-.55,1.78-.83,2.87-.83,.86,0,1.69,.15,2.48,.44,.79,.29,1.53,.7,2.21,1.24l-.82,1.44c-.56-.45-1.16-.81-1.82-1.07-.65-.27-1.34-.4-2.05-.4-.58,0-1.11,.11-1.59,.33-.48,.22-.72,.62-.72,1.2,0,.5,.22,.86,.66,1.08,.44,.22,1.29,.42,2.55,.57,1.38,.16,2.42,.49,3.11,1.01,.69,.52,1.04,1.23,1.04,2.15,0,1.14-.46,1.97-1.38,2.5-.92,.53-1.95,.79-3.09,.79Z"/>
  <path class="cls-1" d="M425.76,229.47c-1.59,0-2.79-.35-3.59-1.04-.81-.7-1.21-1.72-1.21-3.08v-2.95c0-1.38,.4-2.43,1.21-3.14,.81-.71,2-1.06,3.57-1.06,1.41,0,2.49,.32,3.25,.95,.76,.64,1.18,1.57,1.26,2.79l-1.78,.11c-.05-.75-.3-1.31-.75-1.67-.45-.36-1.12-.54-2-.54-.99,0-1.73,.21-2.22,.63-.48,.42-.73,1.06-.73,1.94v2.95c0,.84,.25,1.46,.74,1.87,.49,.41,1.24,.62,2.25,.62,.87,0,1.53-.16,1.98-.46,.45-.31,.69-.77,.73-1.39l1.78,.11c-.08,1.12-.5,1.96-1.25,2.53-.75,.57-1.83,.85-3.24,.85Z"/>
  <path class="cls-1" d="M433.69,229.28v-1.64h3.64v-7.64h-3.64v-1.64h5.45v9.27h3.64v1.64h-9.09Zm4.55-12.91c-.46,0-.83-.07-1.12-.22-.29-.15-.43-.42-.43-.82v-.13c0-.41,.14-.69,.43-.85,.28-.15,.66-.23,1.12-.23s.83,.08,1.12,.23c.28,.15,.43,.43,.43,.85v.13c0,.4-.15,.67-.44,.82s-.66,.22-1.11,.22Z"/>
  <path class="cls-1" d="M451.11,229.47c-.92,0-1.81-.14-2.67-.41-.86-.27-1.65-.69-2.38-1.26l.82-1.44c.59,.49,1.26,.85,1.99,1.1s1.48,.37,2.25,.37c.63,0,1.23-.1,1.81-.29,.58-.19,.86-.6,.86-1.23,0-.52-.24-.89-.71-1.1-.47-.22-1.34-.4-2.6-.56-1.33-.16-2.34-.47-3.03-.94-.68-.47-1.03-1.21-1.03-2.22,0-1.09,.41-1.92,1.24-2.47,.82-.55,1.78-.83,2.87-.83,.86,0,1.69,.15,2.48,.44,.79,.29,1.53,.7,2.21,1.24l-.82,1.44c-.56-.45-1.16-.81-1.82-1.07-.65-.27-1.34-.4-2.05-.4-.58,0-1.11,.11-1.59,.33-.48,.22-.72,.62-.72,1.2,0,.5,.22,.86,.66,1.08,.44,.22,1.29,.42,2.55,.57,1.38,.16,2.42,.49,3.11,1.01,.69,.52,1.04,1.23,1.04,2.15,0,1.14-.46,1.97-1.38,2.5-.92,.53-1.95,.79-3.09,.79Z"/>
  <path class="cls-1" d="M463.83,229.47c-.92,0-1.81-.14-2.67-.41-.86-.27-1.65-.69-2.38-1.26l.82-1.44c.59,.49,1.26,.85,1.99,1.1s1.48,.37,2.25,.37c.63,0,1.23-.1,1.81-.29,.58-.19,.86-.6,.86-1.23,0-.52-.24-.89-.71-1.1-.47-.22-1.34-.4-2.6-.56-1.33-.16-2.34-.47-3.03-.94-.68-.47-1.03-1.21-1.03-2.22,0-1.09,.41-1.92,1.24-2.47,.82-.55,1.78-.83,2.87-.83,.86,0,1.69,.15,2.48,.44,.79,.29,1.53,.7,2.21,1.24l-.82,1.44c-.56-.45-1.16-.81-1.82-1.07-.65-.27-1.34-.4-2.05-.4-.58,0-1.11,.11-1.59,.33-.48,.22-.72,.62-.72,1.2,0,.5,.22,.86,.66,1.08,.44,.22,1.29,.42,2.55,.57,1.38,.16,2.42,.49,3.11,1.01,.69,.52,1.04,1.23,1.04,2.15,0,1.14-.46,1.97-1.38,2.5-.92,.53-1.95,.79-3.09,.79Z"/>
  <path class="cls-1" d="M476.41,229.47c-1.47,0-2.59-.35-3.37-1.06-.78-.71-1.17-1.73-1.17-3.06v-2.95c0-1.35,.39-2.38,1.18-3.11,.79-.73,1.92-1.09,3.38-1.09s2.57,.36,3.35,1.09,1.17,1.76,1.17,3.11v2.95c0,1.33-.39,2.35-1.17,3.06s-1.91,1.06-3.37,1.06Zm0-1.64c.92,0,1.61-.21,2.05-.62,.45-.41,.67-1.04,.67-1.87v-2.95c0-.87-.22-1.52-.67-1.94-.45-.42-1.13-.63-2.05-.63s-1.61,.21-2.05,.63c-.45,.42-.67,1.06-.67,1.94v2.95c0,.84,.22,1.46,.67,1.87,.45,.41,1.13,.62,2.05,.62Z"/>
  <path class="cls-1" d="M485.5,229.28v-10.91h1.82v1.82h.55c.25-.69,.64-1.2,1.16-1.52,.52-.32,1.15-.48,1.89-.48,.81,0,1.49,.27,2.04,.81,.55,.54,.82,1.3,.82,2.28v1.64h-1.73v-.98c0-.69-.15-1.2-.46-1.53s-.78-.49-1.41-.49c-.57,0-1.09,.14-1.55,.42-.47,.28-.9,.71-1.3,1.31v7.64h-1.82Z"/>
  <path class="cls-1" d="M502.01,229.47c-.92,0-1.81-.14-2.67-.41-.86-.27-1.65-.69-2.38-1.26l.82-1.44c.59,.49,1.26,.85,1.99,1.1s1.48,.37,2.25,.37c.63,0,1.23-.1,1.81-.29,.58-.19,.86-.6,.86-1.23,0-.52-.24-.89-.71-1.1-.47-.22-1.34-.4-2.6-.56-1.33-.16-2.34-.47-3.03-.94-.68-.47-1.03-1.21-1.03-2.22,0-1.09,.41-1.92,1.24-2.47,.82-.55,1.78-.83,2.87-.83,.86,0,1.69,.15,2.48,.44,.79,.29,1.53,.7,2.21,1.24l-.82,1.44c-.56-.45-1.16-.81-1.82-1.07-.65-.27-1.34-.4-2.05-.4-.58,0-1.11,.11-1.59,.33-.48,.22-.72,.62-.72,1.2,0,.5,.22,.86,.66,1.08,.44,.22,1.29,.42,2.55,.57,1.38,.16,2.42,.49,3.11,1.01,.69,.52,1.04,1.23,1.04,2.15,0,1.14-.46,1.97-1.38,2.5-.92,.53-1.95,.79-3.09,.79Z"/>
  <path class="cls-1" d="M513.69,222.01l-.55-7.27h2.91l-.55,7.27h-1.82Z"/>
  <path class="cls-3" d="M523.69,233.1l-.18-1.42c1.62-.45,2.82-1.39,3.58-2.83,.76-1.44,1.15-3.11,1.15-5.03s-.38-3.59-1.15-5.03c-.76-1.44-1.96-2.38-3.58-2.83l.18-1.42c1.9,.45,3.44,1.49,4.61,3.12,1.17,1.63,1.75,3.68,1.75,6.16s-.58,4.52-1.75,6.15c-1.17,1.63-2.71,2.67-4.61,3.12Z"/>
  <path class="cls-3" d="M85.51,257.1c-1.9-.45-3.44-1.49-4.61-3.11-1.17-1.62-1.75-3.68-1.75-6.16s.58-4.54,1.75-6.16c1.17-1.62,2.71-2.66,4.61-3.11l.18,1.42c-1.62,.45-2.82,1.39-3.58,2.81-.76,1.42-1.15,3.11-1.15,5.05s.38,3.62,1.15,5.04,1.96,2.36,3.58,2.81l-.18,1.42Z"/>
  <path class="cls-3" d="M94.46,253.47c-.41,0-.85-.04-1.3-.14-.45-.09-.88-.22-1.28-.37v3.96h-1.82v-14.55h1.82v1.82h.55c.3-.62,.74-1.11,1.32-1.46s1.2-.54,1.86-.54c1.09,0,1.95,.37,2.59,1.12s.95,1.75,.95,3.03v2.96c0,1.28-.42,2.3-1.26,3.04-.84,.75-1.98,1.12-3.43,1.12Zm-.02-1.6c1.02,0,1.75-.21,2.21-.62s.68-1.07,.68-1.98v-2.95c0-.84-.17-1.45-.52-1.83-.35-.38-.9-.57-1.66-.57-.61,0-1.17,.15-1.69,.45-.52,.3-1.05,.79-1.58,1.46v5.34c.38,.23,.77,.4,1.17,.52,.41,.12,.87,.17,1.39,.17Z"/>
  <path class="cls-3" d="M103.33,253.28v-1.64h4v-10.73h-.53c-.41,.73-.94,1.24-1.59,1.54-.65,.3-1.4,.38-2.25,.24l-.18-1.78c.93,.11,1.79-.02,2.56-.39,.78-.37,1.45-.97,2.04-1.79h1.76v12.91h3.64v1.64h-9.45Z"/>
  <path class="cls-3" d="M127.69,245.28v-1.82h10.18v1.82h-10.18Zm0,5.09v-1.82h10.18v1.82h-10.18Z"/>
  <path class="cls-3" d="M140.42,245.28v-1.82h10.18v1.82h-10.18Zm0,5.09v-1.82h10.18v1.82h-10.18Z"/>
  <path class="cls-3" d="M153.15,245.28v-1.82h10.18v1.82h-10.18Zm0,5.09v-1.82h10.18v1.82h-10.18Z"/>
  <path class="cls-1" d="M182.78,246.01l-.55-7.27h2.91l-.55,7.27h-1.82Z"/>
  <path class="cls-1" d="M196.27,253.47c-.41,0-.85-.04-1.3-.14-.45-.09-.88-.22-1.28-.37v3.96h-1.82v-14.55h1.82v1.82h.55c.3-.62,.74-1.11,1.32-1.46s1.2-.54,1.86-.54c1.09,0,1.95,.37,2.59,1.12s.95,1.75,.95,3.03v2.96c0,1.28-.42,2.3-1.26,3.04-.84,.75-1.98,1.12-3.43,1.12Zm-.02-1.6c1.02,0,1.75-.21,2.21-.62s.68-1.07,.68-1.98v-2.95c0-.84-.17-1.45-.52-1.83-.35-.38-.9-.57-1.66-.57-.61,0-1.17,.15-1.69,.45-.52,.3-1.05,.79-1.58,1.46v5.34c.38,.23,.77,.4,1.17,.52,.41,.12,.87,.17,1.39,.17Z"/>
  <path class="cls-1" d="M207.6,253.47c-.92,0-1.74-.25-2.46-.74s-1.08-1.28-1.08-2.37c0-.96,.31-1.71,.94-2.25,.62-.55,1.35-.82,2.19-.82h3.78v-1.56c0-.58-.19-1.04-.58-1.38-.39-.34-.98-.51-1.76-.51s-1.4,.12-1.79,.35c-.39,.24-.71,.76-.94,1.57l-1.6-.44c.21-1.03,.67-1.81,1.39-2.34s1.69-.79,2.9-.79,2.2,.27,3,.81c.8,.54,1.2,1.38,1.2,2.5v4.88c0,.66,.18,1.07,.55,1.23s.91,.19,1.64,.06v1.65c-.75,.11-1.46,.06-2.12-.15s-1.02-.79-1.08-1.72h-.36c-.34,.56-.85,1.03-1.53,1.42-.68,.39-1.44,.58-2.27,.58Zm.24-1.54c.63,0,1.21-.11,1.75-.34s.99-.62,1.38-1.18v-1.76h-3.27c-.52,0-.95,.12-1.3,.36-.35,.24-.52,.66-.52,1.25,0,.52,.15,.93,.45,1.22,.3,.29,.8,.44,1.52,.44Z"/>
  <path class="cls-1" d="M221.73,253.47c-.41,0-.85-.04-1.3-.14-.45-.09-.88-.22-1.28-.37v3.96h-1.82v-14.55h1.82v1.82h.55c.3-.62,.74-1.11,1.32-1.46s1.2-.54,1.86-.54c1.09,0,1.95,.37,2.59,1.12s.95,1.75,.95,3.03v2.96c0,1.28-.42,2.3-1.26,3.04-.84,.75-1.98,1.12-3.43,1.12Zm-.02-1.6c1.02,0,1.75-.21,2.21-.62s.68-1.07,.68-1.98v-2.95c0-.84-.17-1.45-.52-1.83-.35-.38-.9-.57-1.66-.57-.61,0-1.17,.15-1.69,.45-.52,.3-1.05,.79-1.58,1.46v5.34c.38,.23,.77,.4,1.17,.52,.41,.12,.87,.17,1.39,.17Z"/>
  <path class="cls-1" d="M239.18,250.88c-.33,.91-.82,1.57-1.49,1.97-.67,.41-1.69,.61-3.07,.61s-2.56-.35-3.36-1.04c-.8-.7-1.2-1.73-1.2-3.1v-2.93c0-1.41,.42-2.46,1.26-3.16,.84-.7,1.94-1.04,3.3-1.04s2.47,.35,3.29,1.06c.82,.71,1.24,1.8,1.24,3.26v1.67h-7.27v1.15c0,.91,.23,1.57,.68,1.97s1.14,.61,2.05,.61,1.51-.12,1.91-.36c.4-.24,.7-.64,.91-1.18l1.76,.51Zm-7.31-4.49v.44h5.45v-.27c0-.98-.23-1.7-.68-2.15-.45-.45-1.14-.67-2.05-.67s-1.59,.22-2.05,.65c-.45,.43-.68,1.1-.68,2.01Z"/>
  <path class="cls-1" d="M243.69,253.28v-10.91h1.82v1.82h.55c.25-.69,.64-1.2,1.16-1.52,.52-.32,1.15-.48,1.89-.48,.81,0,1.49,.27,2.04,.81,.55,.54,.82,1.3,.82,2.28v1.64h-1.73v-.98c0-.69-.15-1.2-.46-1.53s-.78-.49-1.41-.49c-.57,0-1.09,.14-1.55,.42-.47,.28-.9,.71-1.3,1.31v7.64h-1.82Z"/>
  <path class="cls-1" d="M259.14,246.01l-.55-7.27h2.91l-.55,7.27h-1.82Z"/>
  <path class="cls-3" d="M291.24,253.39c-.73-.22-1.42-.5-2.08-.85-.66-.35-1.29-.73-1.88-1.15-.56,.64-1.13,1.15-1.73,1.52-.59,.37-1.3,.55-2.13,.55-1.03,0-1.88-.33-2.55-.98s-1-1.61-1-2.85c0-.99,.25-1.85,.75-2.56,.5-.72,1.09-1.26,1.75-1.64-.28-.61-.49-1.18-.65-1.72-.15-.54-.23-1.01-.23-1.41,0-1.15,.28-2.06,.85-2.74,.57-.67,1.38-1.01,2.42-1.01,.88,0,1.63,.31,2.23,.93s.9,1.35,.9,2.18c0,1.02-.29,1.83-.86,2.44s-1.53,1.16-2.86,1.65c.1,.21,.21,.41,.34,.61,.13,.2,.25,.4,.37,.59,.3,.45,.63,.88,.98,1.3s.73,.81,1.13,1.17c.34-.52,.67-1.11,.98-1.76,.31-.65,.61-1.36,.89-2.13l1.55,.71c-.36,.85-.79,1.59-1.26,2.23-.48,.64-.94,1.25-1.37,1.83l3.73,1.44-.27,1.66Zm-7.67-1.51c.46,0,.91-.12,1.35-.36s.86-.59,1.27-1.04c-.45-.39-.86-.8-1.25-1.23-.38-.43-.74-.87-1.06-1.32-.17-.24-.34-.49-.5-.74-.16-.25-.31-.49-.45-.72-.39,.36-.71,.81-.95,1.34s-.37,1.07-.37,1.63c0,.73,.17,1.31,.5,1.76,.33,.45,.82,.67,1.46,.67Zm-.33-9.49c0,.38,.05,.77,.14,1.19,.09,.42,.22,.83,.39,1.25,.9-.4,1.55-.84,1.95-1.31,.41-.47,.61-1.02,.61-1.65,0-.51-.15-.92-.45-1.25-.3-.32-.65-.48-1.05-.48-.59,0-1.01,.21-1.25,.62s-.35,.96-.35,1.64Z"/>
  <path class="cls-3" d="M303.96,253.39c-.73-.22-1.42-.5-2.08-.85-.66-.35-1.29-.73-1.88-1.15-.56,.64-1.13,1.15-1.73,1.52-.59,.37-1.3,.55-2.13,.55-1.03,0-1.88-.33-2.55-.98s-1-1.61-1-2.85c0-.99,.25-1.85,.75-2.56,.5-.72,1.09-1.26,1.75-1.64-.28-.61-.49-1.18-.65-1.72-.15-.54-.23-1.01-.23-1.41,0-1.15,.28-2.06,.85-2.74,.57-.67,1.38-1.01,2.42-1.01,.88,0,1.63,.31,2.23,.93s.9,1.35,.9,2.18c0,1.02-.29,1.83-.86,2.44s-1.53,1.16-2.86,1.65c.1,.21,.21,.41,.34,.61,.13,.2,.25,.4,.37,.59,.3,.45,.63,.88,.98,1.3s.73,.81,1.13,1.17c.34-.52,.67-1.11,.98-1.76,.31-.65,.61-1.36,.89-2.13l1.55,.71c-.36,.85-.79,1.59-1.26,2.23-.48,.64-.94,1.25-1.37,1.83l3.73,1.44-.27,1.66Zm-7.67-1.51c.46,0,.91-.12,1.35-.36s.86-.59,1.27-1.04c-.45-.39-.86-.8-1.25-1.23-.38-.43-.74-.87-1.06-1.32-.17-.24-.34-.49-.5-.74-.16-.25-.31-.49-.45-.72-.39,.36-.71,.81-.95,1.34s-.37,1.07-.37,1.63c0,.73,.17,1.31,.5,1.76,.33,.45,.82,.67,1.46,.67Zm-.33-9.49c0,.38,.05,.77,.14,1.19,.09,.42,.22,.83,.39,1.25,.9-.4,1.55-.84,1.95-1.31,.41-.47,.61-1.02,.61-1.65,0-.51-.15-.92-.45-1.25-.3-.32-.65-.48-1.05-.48-.59,0-1.01,.21-1.25,.62s-.35,.96-.35,1.64Z"/>
  <path class="cls-3" d="M323.54,253.47c-.41,0-.85-.04-1.3-.14-.45-.09-.88-.22-1.28-.37v3.96h-1.82v-14.55h1.82v1.82h.55c.3-.62,.74-1.11,1.32-1.46s1.2-.54,1.86-.54c1.09,0,1.95,.37,2.59,1.12s.95,1.75,.95,3.03v2.96c0,1.28-.42,2.3-1.26,3.04-.84,.75-1.98,1.12-3.43,1.12Zm-.02-1.6c1.02,0,1.75-.21,2.21-.62s.68-1.07,.68-1.98v-2.95c0-.84-.17-1.45-.52-1.83-.35-.38-.9-.57-1.66-.57-.61,0-1.17,.15-1.69,.45-.52,.3-1.05,.79-1.58,1.46v5.34c.38,.23,.77,.4,1.17,.52,.41,.12,.87,.17,1.39,.17Z"/>
  <path class="cls-3" d="M331.51,253.28v-3.09c0-1.1,.27-1.98,.8-2.62s1.41-1.15,2.64-1.51l2.47-.73c.69-.19,1.18-.44,1.47-.75,.29-.3,.44-.76,.44-1.36v-.75c0-.84-.2-1.43-.61-1.77-.41-.35-1.17-.52-2.3-.52-1.03,0-1.75,.21-2.15,.65s-.66,1.25-.75,2.46l-1.82-.18c.1-1.66,.5-2.84,1.21-3.53,.71-.69,1.88-1.04,3.5-1.04s2.78,.31,3.56,.93c.79,.62,1.18,1.56,1.18,2.82v1.2c0,.91-.26,1.64-.78,2.18-.52,.54-1.38,.99-2.58,1.34l-2.49,.73c-.59,.17-1.07,.42-1.43,.74s-.54,.88-.54,1.66v1.49h8v1.64h-9.82Z"/>
  <path class="cls-3" d="M356.78,245.28v-1.82h10.18v1.82h-10.18Zm0,5.09v-1.82h10.18v1.82h-10.18Z"/>
  <path class="cls-3" d="M369.51,245.28v-1.82h10.18v1.82h-10.18Zm0,5.09v-1.82h10.18v1.82h-10.18Z"/>
  <path class="cls-3" d="M382.23,245.28v-1.82h10.18v1.82h-10.18Zm0,5.09v-1.82h10.18v1.82h-10.18Z"/>
  <path class="cls-1" d="M411.87,246.01l-.55-7.27h2.91l-.55,7.27h-1.82Z"/>
  <path class="cls-1" d="M421.87,253.28v-10.91h1.82v1.82h.55c.25-.69,.64-1.2,1.16-1.52,.52-.32,1.15-.48,1.89-.48,.81,0,1.49,.27,2.04,.81,.55,.54,.82,1.3,.82,2.28v1.64h-1.73v-.98c0-.69-.15-1.2-.46-1.53s-.78-.49-1.41-.49c-.57,0-1.09,.14-1.55,.42-.47,.28-.9,.71-1.3,1.31v7.64h-1.82Z"/>
  <path class="cls-1" d="M438.23,253.47c-1.47,0-2.59-.35-3.37-1.06-.78-.71-1.17-1.73-1.17-3.06v-2.95c0-1.35,.39-2.38,1.18-3.11,.79-.73,1.92-1.09,3.38-1.09s2.57,.36,3.35,1.09,1.17,1.76,1.17,3.11v2.95c0,1.33-.39,2.35-1.17,3.06s-1.91,1.06-3.37,1.06Zm0-1.64c.92,0,1.61-.21,2.05-.62,.45-.41,.67-1.04,.67-1.87v-2.95c0-.87-.22-1.52-.67-1.94-.45-.42-1.13-.63-2.05-.63s-1.61,.21-2.05,.63c-.45,.42-.67,1.06-.67,1.94v2.95c0,.84,.22,1.46,.67,1.87,.45,.41,1.13,.62,2.05,.62Z"/>
  <path class="cls-1" d="M451.21,253.47c-1.59,0-2.79-.35-3.59-1.04-.81-.7-1.21-1.72-1.21-3.08v-2.95c0-1.38,.4-2.43,1.21-3.14,.81-.71,2-1.06,3.57-1.06,1.41,0,2.49,.32,3.25,.95,.76,.64,1.18,1.57,1.26,2.79l-1.78,.11c-.05-.75-.3-1.31-.75-1.67-.45-.36-1.12-.54-2-.54-.99,0-1.73,.21-2.22,.63-.48,.42-.73,1.06-.73,1.94v2.95c0,.84,.25,1.46,.74,1.87,.49,.41,1.24,.62,2.25,.62,.87,0,1.53-.16,1.98-.46,.45-.31,.69-.77,.73-1.39l1.78,.11c-.08,1.12-.5,1.96-1.25,2.53-.75,.57-1.83,.85-3.24,.85Z"/>
  <path class="cls-1" d="M461.87,248.34v4.95h-1.82v-14.55h1.82v8.05h.93l3.49-4.42h2.22l-4.27,5.08,4.22,5.83h-2.07l-3.58-4.95h-.93Z"/>
  <path class="cls-1" d="M475.5,246.01l-.55-7.27h2.91l-.55,7.27h-1.82Z"/>
  <path class="cls-3" d="M485.5,257.1l-.18-1.42c1.62-.45,2.82-1.39,3.58-2.83,.76-1.44,1.15-3.11,1.15-5.03s-.38-3.59-1.15-5.03c-.76-1.44-1.96-2.38-3.58-2.83l.18-1.42c1.9,.45,3.44,1.49,4.61,3.12,1.17,1.63,1.75,3.68,1.75,6.16s-.58,4.52-1.75,6.15c-1.17,1.63-2.71,2.67-4.61,3.12Z"/>
  <path class="cls-3" d="M498.23,257.1l-.18-1.42c1.62-.45,2.82-1.39,3.58-2.83,.76-1.44,1.15-3.11,1.15-5.03s-.38-3.59-1.15-5.03c-.76-1.44-1.96-2.38-3.58-2.83l.18-1.42c1.9,.45,3.44,1.49,4.61,3.12,1.17,1.63,1.75,3.68,1.75,6.16s-.58,4.52-1.75,6.15c-1.17,1.63-2.71,2.67-4.61,3.12Z"/>
  <path class="cls-3" d="M518.23,257.1c-2.55,.05-4.39-.18-5.55-.68-1.15-.5-1.73-1.28-1.73-2.34,0-.61,.12-1.12,.37-1.53,.25-.41,.52-.77,.81-1.07,.3-.3,.58-.59,.82-.85,.24-.27,.36-.55,.36-.85,0-.57-.3-.97-.91-1.21s-1.7-.37-3.27-.41v-1.09c1.58-.04,2.67-.17,3.27-.4s.91-.62,.91-1.18c0-.3-.12-.56-.36-.77-.24-.21-.52-.45-.82-.72-.29-.27-.56-.59-.81-.96-.25-.38-.37-.87-.37-1.49,0-1.03,.58-1.8,1.73-2.3,1.15-.5,3-.73,5.55-.68v1.64c-2.05-.04-3.47,.07-4.26,.33s-1.19,.67-1.19,1.24c0,.24,.09,.49,.26,.75,.18,.25,.49,.59,.94,1,.44,.4,.74,.74,.91,1.03,.17,.29,.25,.6,.25,.94,0,.68-.3,1.19-.9,1.54-.6,.35-1.46,.54-2.59,.59v.09c1.13,.12,1.99,.38,2.59,.76,.6,.39,.9,.93,.9,1.64,0,.3-.09,.59-.27,.87-.18,.28-.5,.63-.96,1.05-.42,.36-.72,.68-.88,.94s-.25,.56-.25,.9c0,.61,.4,1.04,1.19,1.31s2.22,.38,4.26,.34v1.6Z"/>
  <path class="cls-4" d="M44.42,277.28v-10.91h1.82v1.82h.55c.25-.69,.64-1.2,1.16-1.52,.52-.32,1.15-.48,1.89-.48,.81,0,1.49,.27,2.04,.81,.55,.54,.82,1.3,.82,2.28v1.64h-1.73v-.98c0-.69-.15-1.2-.46-1.53s-.78-.49-1.41-.49c-.57,0-1.09,.14-1.55,.42-.47,.28-.9,.71-1.3,1.31v7.64h-1.82Z"/>
  <path class="cls-4" d="M65.37,274.88c-.33,.91-.82,1.57-1.49,1.97-.67,.41-1.69,.61-3.07,.61s-2.56-.35-3.36-1.04c-.8-.7-1.2-1.73-1.2-3.1v-2.93c0-1.41,.42-2.46,1.26-3.16,.84-.7,1.94-1.04,3.3-1.04s2.47,.35,3.29,1.06c.82,.71,1.24,1.8,1.24,3.26v1.67h-7.27v1.15c0,.91,.23,1.57,.68,1.97s1.14,.61,2.05,.61,1.51-.12,1.91-.36c.4-.24,.7-.64,.91-1.18l1.76,.51Zm-7.31-4.49v.44h5.45v-.27c0-.98-.23-1.7-.68-2.15-.45-.45-1.14-.67-2.05-.67s-1.59,.22-2.05,.65c-.45,.43-.68,1.1-.68,2.01Z"/>
  <path class="cls-4" d="M75.31,277.45c-1.2,0-2.13-.3-2.8-.89-.67-.59-1-1.5-1-2.73v-5.82h-3.09v-1.64h3.09v-3.64h1.82v3.64h4.73v1.64h-4.73v5.65c0,.7,.18,1.22,.53,1.56,.35,.34,.87,.51,1.56,.51,.46,0,.89-.03,1.29-.1,.4-.07,.78-.15,1.15-.26l.36,1.65c-.41,.12-.85,.22-1.32,.3-.47,.08-1,.12-1.59,.12Z"/>
  <path class="cls-4" d="M85.22,277.47c-1.05,0-1.91-.34-2.55-1.03-.65-.68-.97-1.58-.97-2.7v-7.36h1.82v7c0,.8,.18,1.39,.53,1.78s.89,.58,1.62,.58c.57,0,1.12-.15,1.66-.46,.54-.31,1.09-.79,1.65-1.45v-7.46h1.82v10.91h-1.82v-1.82h-.55c-.25,.59-.68,1.08-1.26,1.45-.59,.37-1.23,.55-1.94,.55Z"/>
  <path class="cls-4" d="M95.33,277.28v-10.91h1.82v1.82h.55c.25-.69,.64-1.2,1.16-1.52,.52-.32,1.15-.48,1.89-.48,.81,0,1.49,.27,2.04,.81,.55,.54,.82,1.3,.82,2.28v1.64h-1.73v-.98c0-.69-.15-1.2-.46-1.53s-.78-.49-1.41-.49c-.57,0-1.09,.14-1.55,.42-.47,.28-.9,.71-1.3,1.31v7.64h-1.82Z"/>
  <path class="cls-4" d="M107.15,277.28v-10.91h1.82v1.82h.55c.27-.62,.69-1.11,1.25-1.46,.57-.36,1.22-.54,1.95-.54,1.09,0,1.95,.33,2.58,1,.63,.67,.95,1.58,.95,2.73v7.36h-1.82v-7c0-.76-.19-1.35-.55-1.75-.37-.41-.9-.61-1.59-.61-.55,0-1.1,.16-1.66,.49s-1.11,.8-1.65,1.42v7.45h-1.82Z"/>
  <path class="cls-1" d="M136.24,270.01l-.55-7.27h2.91l-.55,7.27h-1.82Z"/>
  <path class="cls-1" d="M145.33,277.28v-14.55h5.11c1.52,0,2.65,.32,3.4,.96s1.13,1.6,1.13,2.88v1.78c0,1.29-.38,2.25-1.14,2.88-.76,.64-1.89,.96-3.41,.96h-3.27v5.09h-1.82Zm1.82-6.69h3.27c.98,0,1.68-.17,2.1-.52,.42-.35,.63-.93,.63-1.75v-1.67c0-.82-.21-1.41-.63-1.75-.42-.35-1.12-.52-2.1-.52h-3.27v6.22Z"/>
  <path class="cls-1" d="M158.05,277.28v-1.64h3.64v-11.27h-3.64v-1.64h5.45v12.91h3.64v1.64h-9.09Z"/>
  <path class="cls-1" d="M173.78,277.47c-.92,0-1.74-.25-2.46-.74s-1.08-1.28-1.08-2.37c0-.96,.31-1.71,.94-2.25,.62-.55,1.35-.82,2.19-.82h3.78v-1.56c0-.58-.19-1.04-.58-1.38-.39-.34-.98-.51-1.76-.51s-1.4,.12-1.79,.35c-.39,.24-.71,.76-.94,1.57l-1.6-.44c.21-1.03,.67-1.81,1.39-2.34s1.69-.79,2.9-.79,2.2,.27,3,.81c.8,.54,1.2,1.38,1.2,2.5v4.88c0,.66,.18,1.07,.55,1.23s.91,.19,1.64,.06v1.65c-.75,.11-1.46,.06-2.12-.15s-1.02-.79-1.08-1.72h-.36c-.34,.56-.85,1.03-1.53,1.42-.68,.39-1.44,.58-2.27,.58Zm.24-1.54c.63,0,1.21-.11,1.75-.34s.99-.62,1.38-1.18v-1.76h-3.27c-.52,0-.95,.12-1.3,.36-.35,.24-.52,.66-.52,1.25,0,.52,.15,.93,.45,1.22,.3,.29,.8,.44,1.52,.44Z"/>
  <path class="cls-1" d="M184.82,281.03c-.29,0-.58-.02-.85-.05-.28-.04-.56-.08-.85-.14l.31-1.62c.32,.07,.61,.13,.88,.16,.27,.04,.52,.05,.75,.05,.56,0,1.05-.16,1.48-.47,.43-.32,.76-.82,.99-1.51l.05-.16h-.67l-3.87-10.91h1.98l3.07,9.38,3.05-9.38h1.91l-4,11.27c-.41,1.18-.97,2.03-1.68,2.57-.71,.54-1.56,.81-2.55,.81Z"/>
  <path class="cls-1" d="M205.36,274.88c-.33,.91-.82,1.57-1.49,1.97-.67,.41-1.69,.61-3.07,.61s-2.56-.35-3.36-1.04c-.8-.7-1.2-1.73-1.2-3.1v-2.93c0-1.41,.42-2.46,1.26-3.16,.84-.7,1.94-1.04,3.3-1.04s2.47,.35,3.29,1.06c.82,.71,1.24,1.8,1.24,3.26v1.67h-7.27v1.15c0,.91,.23,1.57,.68,1.97s1.14,.61,2.05,.61,1.51-.12,1.91-.36c.4-.24,.7-.64,.91-1.18l1.76,.51Zm-7.31-4.49v.44h5.45v-.27c0-.98-.23-1.7-.68-2.15-.45-.45-1.14-.67-2.05-.67s-1.59,.22-2.05,.65c-.45,.43-.68,1.1-.68,2.01Z"/>
  <path class="cls-1" d="M209.87,277.28v-10.91h1.82v1.82h.55c.25-.69,.64-1.2,1.16-1.52,.52-.32,1.15-.48,1.89-.48,.81,0,1.49,.27,2.04,.81,.55,.54,.82,1.3,.82,2.28v1.64h-1.73v-.98c0-.69-.15-1.2-.46-1.53s-.78-.49-1.41-.49c-.57,0-1.09,.14-1.55,.42-.47,.28-.9,.71-1.3,1.31v7.64h-1.82Z"/>
  <path class="cls-1" d="M234.96,277.28v-1.64h4v-10.73h-.53c-.41,.73-.94,1.24-1.59,1.54-.65,.3-1.4,.38-2.25,.24l-.18-1.78c.93,.11,1.79-.02,2.56-.39,.78-.37,1.45-.97,2.04-1.79h1.76v12.91h3.64v1.64h-9.45Z"/>
  <path class="cls-1" d="M266.02,277.28l-1.6-7.11-1.53,7.11h-2.07l-2.05-10.91h1.75l1.38,9.58,1.42-7.76h2.15l1.55,7.47,1.33-9.29h1.75l-2.05,10.91h-2Z"/>
  <path class="cls-1" d="M277.14,277.47c-1.47,0-2.59-.35-3.37-1.06-.78-.71-1.17-1.73-1.17-3.06v-2.95c0-1.35,.39-2.38,1.18-3.11,.79-.73,1.92-1.09,3.38-1.09s2.57,.36,3.35,1.09,1.17,1.76,1.17,3.11v2.95c0,1.33-.39,2.35-1.17,3.06s-1.91,1.06-3.37,1.06Zm0-1.64c.92,0,1.61-.21,2.05-.62,.45-.41,.67-1.04,.67-1.87v-2.95c0-.87-.22-1.52-.67-1.94-.45-.42-1.13-.63-2.05-.63s-1.61,.21-2.05,.63c-.45,.42-.67,1.06-.67,1.94v2.95c0,.84,.22,1.46,.67,1.87,.45,.41,1.13,.62,2.05,.62Z"/>
  <path class="cls-1" d="M285.32,277.28v-10.91h1.82v1.82h.55c.27-.62,.69-1.11,1.25-1.46,.57-.36,1.22-.54,1.95-.54,1.09,0,1.95,.33,2.58,1,.63,.67,.95,1.58,.95,2.73v7.36h-1.82v-7c0-.76-.19-1.35-.55-1.75-.37-.41-.9-.61-1.59-.61-.55,0-1.1,.16-1.66,.49s-1.11,.8-1.65,1.42v7.45h-1.82Z"/>
  <path class="cls-1" d="M302.62,277.47c-.61,0-1.05-.12-1.34-.37-.28-.25-.43-.63-.43-1.16v-.51c0-.53,.14-.93,.43-1.18,.28-.25,.73-.38,1.34-.38s1.05,.13,1.33,.38c.28,.25,.42,.65,.42,1.18v.51c0,.52-.14,.91-.43,1.16-.29,.25-.72,.37-1.32,.37Zm-.75-5.64l-.55-9.09h2.55l-.55,9.09h-1.45Z"/>
  <path class="cls-1" d="M314.42,270.01l-.55-7.27h2.91l-.55,7.27h-1.82Z"/>
  <path class="cls-3" d="M325.32,280.92l1.64-7.27h3.62l-3.73,7.27h-1.53Zm2.75-10.73c-.61,0-1.1-.12-1.47-.37-.38-.25-.56-.63-.56-1.15v-.87c0-.53,.19-.93,.56-1.18,.38-.25,.87-.38,1.47-.38s1.09,.13,1.46,.38,.55,.65,.55,1.18v.87c0,.52-.19,.91-.56,1.15-.38,.25-.86,.37-1.45,.37Z"/>
  <path class="cls-3" d="M51.69,302.08c0,1.05-.58,1.83-1.73,2.34-1.15,.5-3,.73-5.55,.68v-1.6c2.05,.04,3.47-.08,4.26-.34s1.19-.7,1.19-1.31c0-.34-.08-.64-.25-.9s-.46-.57-.88-.94c-.46-.42-.78-.78-.96-1.05-.18-.28-.27-.57-.27-.87,0-.7,.3-1.25,.9-1.64,.6-.39,1.46-.64,2.59-.76v-.09c-1.13-.05-1.99-.25-2.59-.59-.6-.34-.9-.86-.9-1.54,0-.34,.08-.65,.25-.94,.17-.28,.47-.63,.91-1.03,.45-.41,.76-.75,.94-1,.18-.25,.26-.5,.26-.75,0-.57-.4-.98-1.19-1.24s-2.22-.36-4.26-.33v-1.64c2.55-.05,4.39,.18,5.55,.68,1.15,.5,1.73,1.27,1.73,2.3,0,.62-.12,1.12-.37,1.49-.25,.38-.52,.7-.81,.96-.3,.27-.58,.51-.82,.72-.24,.21-.36,.47-.36,.77,0,.56,.3,.95,.91,1.18,.61,.23,1.7,.36,3.27,.4v1.09c-1.58,.04-2.67,.17-3.27,.41-.61,.24-.91,.64-.91,1.21,0,.3,.12,.59,.36,.85,.24,.27,.52,.55,.82,.85,.29,.3,.56,.66,.81,1.07,.25,.41,.37,.92,.37,1.53Z"/>
  <path class="cls-3" d="M58.06,304.92l1.64-7.27h3.62l-3.73,7.27h-1.53Zm2.75-10.73c-.61,0-1.1-.12-1.47-.37-.38-.25-.56-.63-.56-1.15v-.87c0-.53,.19-.93,.56-1.18,.38-.25,.87-.38,1.47-.38s1.09,.13,1.46,.38,.55,.65,.55,1.18v.87c0,.52-.19,.91-.56,1.15-.38,.25-.86,.37-1.45,.37Z"/>
  <path class="cls-4" d="M6.24,325.28v-10.91h1.82v1.82h.55c.25-.69,.64-1.2,1.16-1.52,.52-.32,1.15-.48,1.89-.48,.81,0,1.49,.27,2.04,.81,.55,.54,.82,1.3,.82,2.28v1.64h-1.73v-.98c0-.69-.15-1.2-.46-1.53s-.78-.49-1.41-.49c-.57,0-1.09,.14-1.55,.42-.47,.28-.9,.71-1.3,1.31v7.64h-1.82Z"/>
  <path class="cls-4" d="M27.18,322.88c-.33,.91-.82,1.57-1.49,1.97-.67,.41-1.69,.61-3.07,.61s-2.56-.35-3.36-1.04c-.8-.7-1.2-1.73-1.2-3.1v-2.93c0-1.41,.42-2.46,1.26-3.16,.84-.7,1.94-1.04,3.3-1.04s2.47,.35,3.29,1.06c.82,.71,1.24,1.8,1.24,3.26v1.67h-7.27v1.15c0,.91,.23,1.57,.68,1.97s1.14,.61,2.05,.61,1.51-.12,1.91-.36c.4-.24,.7-.64,.91-1.18l1.76,.51Zm-7.31-4.49v.44h5.45v-.27c0-.98-.23-1.7-.68-2.15-.45-.45-1.14-.67-2.05-.67s-1.59,.22-2.05,.65c-.45,.43-.68,1.1-.68,2.01Z"/>
  <path class="cls-4" d="M37.13,325.45c-1.2,0-2.13-.3-2.8-.89-.67-.59-1-1.5-1-2.73v-5.82h-3.09v-1.64h3.09v-3.64h1.82v3.64h4.73v1.64h-4.73v5.65c0,.7,.18,1.22,.53,1.56,.35,.34,.87,.51,1.56,.51,.46,0,.89-.03,1.29-.1,.4-.07,.78-.15,1.15-.26l.36,1.65c-.41,.12-.85,.22-1.32,.3-.47,.08-1,.12-1.59,.12Z"/>
  <path class="cls-4" d="M47.04,325.47c-1.05,0-1.91-.34-2.55-1.03-.65-.68-.97-1.58-.97-2.7v-7.36h1.82v7c0,.8,.18,1.39,.53,1.78s.89,.58,1.62,.58c.57,0,1.12-.15,1.66-.46,.54-.31,1.09-.79,1.65-1.45v-7.46h1.82v10.91h-1.82v-1.82h-.55c-.25,.59-.68,1.08-1.26,1.45-.59,.37-1.23,.55-1.94,.55Z"/>
  <path class="cls-4" d="M57.15,325.28v-10.91h1.82v1.82h.55c.25-.69,.64-1.2,1.16-1.52,.52-.32,1.15-.48,1.89-.48,.81,0,1.49,.27,2.04,.81,.55,.54,.82,1.3,.82,2.28v1.64h-1.73v-.98c0-.69-.15-1.2-.46-1.53s-.78-.49-1.41-.49c-.57,0-1.09,.14-1.55,.42-.47,.28-.9,.71-1.3,1.31v7.64h-1.82Z"/>
  <path class="cls-4" d="M68.97,325.28v-10.91h1.82v1.82h.55c.27-.62,.69-1.11,1.25-1.46,.57-.36,1.22-.54,1.95-.54,1.09,0,1.95,.33,2.58,1,.63,.67,.95,1.58,.95,2.73v7.36h-1.82v-7c0-.76-.19-1.35-.55-1.75-.37-.41-.9-.61-1.59-.61-.55,0-1.1,.16-1.66,.49s-1.11,.8-1.65,1.42v7.45h-1.82Z"/>
  <path class="cls-1" d="M98.06,318.01l-.55-7.27h2.91l-.55,7.27h-1.82Z"/>
  <path class="cls-1" d="M107.15,325.28v-14.55h5.11c1.52,0,2.65,.32,3.4,.96s1.13,1.6,1.13,2.88v1.78c0,1.29-.38,2.25-1.14,2.88-.76,.64-1.89,.96-3.41,.96h-3.27v5.09h-1.82Zm1.82-6.69h3.27c.98,0,1.68-.17,2.1-.52,.42-.35,.63-.93,.63-1.75v-1.67c0-.82-.21-1.41-.63-1.75-.42-.35-1.12-.52-2.1-.52h-3.27v6.22Z"/>
  <path class="cls-1" d="M119.87,325.28v-1.64h3.64v-11.27h-3.64v-1.64h5.45v12.91h3.64v1.64h-9.09Z"/>
  <path class="cls-1" d="M135.6,325.47c-.92,0-1.74-.25-2.46-.74s-1.08-1.28-1.08-2.37c0-.96,.31-1.71,.94-2.25,.62-.55,1.35-.82,2.19-.82h3.78v-1.56c0-.58-.19-1.04-.58-1.38-.39-.34-.98-.51-1.76-.51s-1.4,.12-1.79,.35c-.39,.24-.71,.76-.94,1.57l-1.6-.44c.21-1.03,.67-1.81,1.39-2.34s1.69-.79,2.9-.79,2.2,.27,3,.81c.8,.54,1.2,1.38,1.2,2.5v4.88c0,.66,.18,1.07,.55,1.23s.91,.19,1.64,.06v1.65c-.75,.11-1.46,.06-2.12-.15s-1.02-.79-1.08-1.72h-.36c-.34,.56-.85,1.03-1.53,1.42-.68,.39-1.44,.58-2.27,.58Zm.24-1.54c.63,0,1.21-.11,1.75-.34s.99-.62,1.38-1.18v-1.76h-3.27c-.52,0-.95,.12-1.3,.36-.35,.24-.52,.66-.52,1.25,0,.52,.15,.93,.45,1.22,.3,.29,.8,.44,1.52,.44Z"/>
  <path class="cls-1" d="M146.64,329.03c-.29,0-.58-.02-.85-.05-.28-.04-.56-.08-.85-.14l.31-1.62c.32,.07,.61,.13,.88,.16,.27,.04,.52,.05,.75,.05,.56,0,1.05-.16,1.48-.47,.43-.32,.76-.82,.99-1.51l.05-.16h-.67l-3.87-10.91h1.98l3.07,9.38,3.05-9.38h1.91l-4,11.27c-.41,1.18-.97,2.03-1.68,2.57-.71,.54-1.56,.81-2.55,.81Z"/>
  <path class="cls-1" d="M167.18,322.88c-.33,.91-.82,1.57-1.49,1.97-.67,.41-1.69,.61-3.07,.61s-2.56-.35-3.36-1.04c-.8-.7-1.2-1.73-1.2-3.1v-2.93c0-1.41,.42-2.46,1.26-3.16,.84-.7,1.94-1.04,3.3-1.04s2.47,.35,3.29,1.06c.82,.71,1.24,1.8,1.24,3.26v1.67h-7.27v1.15c0,.91,.23,1.57,.68,1.97s1.14,.61,2.05,.61,1.51-.12,1.91-.36c.4-.24,.7-.64,.91-1.18l1.76,.51Zm-7.31-4.49v.44h5.45v-.27c0-.98-.23-1.7-.68-2.15-.45-.45-1.14-.67-2.05-.67s-1.59,.22-2.05,.65c-.45,.43-.68,1.1-.68,2.01Z"/>
  <path class="cls-1" d="M171.69,325.28v-10.91h1.82v1.82h.55c.25-.69,.64-1.2,1.16-1.52,.52-.32,1.15-.48,1.89-.48,.81,0,1.49,.27,2.04,.81,.55,.54,.82,1.3,.82,2.28v1.64h-1.73v-.98c0-.69-.15-1.2-.46-1.53s-.78-.49-1.41-.49c-.57,0-1.09,.14-1.55,.42-.47,.28-.9,.71-1.3,1.31v7.64h-1.82Z"/>
  <path class="cls-1" d="M195.87,325.28v-3.09c0-1.1,.27-1.98,.8-2.62s1.41-1.15,2.64-1.51l2.47-.73c.69-.19,1.18-.44,1.47-.75,.29-.3,.44-.76,.44-1.36v-.75c0-.84-.2-1.43-.61-1.77-.41-.35-1.17-.52-2.3-.52-1.03,0-1.75,.21-2.15,.65s-.66,1.25-.75,2.46l-1.82-.18c.1-1.66,.5-2.84,1.21-3.53,.71-.69,1.88-1.04,3.5-1.04s2.78,.31,3.56,.93c.79,.62,1.18,1.56,1.18,2.82v1.2c0,.91-.26,1.64-.78,2.18-.52,.54-1.38,.99-2.58,1.34l-2.49,.73c-.59,.17-1.07,.42-1.43,.74s-.54,.88-.54,1.66v1.49h8v1.64h-9.82Z"/>
  <path class="cls-1" d="M227.84,325.28l-1.6-7.11-1.53,7.11h-2.07l-2.05-10.91h1.75l1.38,9.58,1.42-7.76h2.15l1.55,7.47,1.33-9.29h1.75l-2.05,10.91h-2Z"/>
  <path class="cls-1" d="M238.96,325.47c-1.47,0-2.59-.35-3.37-1.06-.78-.71-1.17-1.73-1.17-3.06v-2.95c0-1.35,.39-2.38,1.18-3.11,.79-.73,1.92-1.09,3.38-1.09s2.57,.36,3.35,1.09,1.17,1.76,1.17,3.11v2.95c0,1.33-.39,2.35-1.17,3.06s-1.91,1.06-3.37,1.06Zm0-1.64c.92,0,1.61-.21,2.05-.62,.45-.41,.67-1.04,.67-1.87v-2.95c0-.87-.22-1.52-.67-1.94-.45-.42-1.13-.63-2.05-.63s-1.61,.21-2.05,.63c-.45,.42-.67,1.06-.67,1.94v2.95c0,.84,.22,1.46,.67,1.87,.45,.41,1.13,.62,2.05,.62Z"/>
  <path class="cls-1" d="M247.14,325.28v-10.91h1.82v1.82h.55c.27-.62,.69-1.11,1.25-1.46,.57-.36,1.22-.54,1.95-.54,1.09,0,1.95,.33,2.58,1,.63,.67,.95,1.58,.95,2.73v7.36h-1.82v-7c0-.76-.19-1.35-.55-1.75-.37-.41-.9-.61-1.59-.61-.55,0-1.1,.16-1.66,.49s-1.11,.8-1.65,1.42v7.45h-1.82Z"/>
  <path class="cls-1" d="M264.43,325.47c-.61,0-1.05-.12-1.34-.37-.28-.25-.43-.63-.43-1.16v-.51c0-.53,.14-.93,.43-1.18,.28-.25,.73-.38,1.34-.38s1.05,.13,1.33,.38c.28,.25,.42,.65,.42,1.18v.51c0,.52-.14,.91-.43,1.16-.29,.25-.72,.37-1.32,.37Zm-.75-5.64l-.55-9.09h2.55l-.55,9.09h-1.45Z"/>
  <path class="cls-1" d="M276.23,318.01l-.55-7.27h2.91l-.55,7.27h-1.82Z"/>
  <path class="cls-3" d="M287.14,328.92l1.64-7.27h3.62l-3.73,7.27h-1.53Zm2.75-10.73c-.61,0-1.1-.12-1.47-.37-.38-.25-.56-.63-.56-1.15v-.87c0-.53,.19-.93,.56-1.18,.38-.25,.87-.38,1.47-.38s1.09,.13,1.46,.38,.55,.65,.55,1.18v.87c0,.52-.19,.91-.56,1.15-.38,.25-.86,.37-1.45,.37Z"/>
  <path class="cls-3" d="M6.55,343.04c-.38-.4-.64-.77-.79-1.12-.13-.39-.2-.88-.2-1.46v-4.05l-.02-.48c0-.61-.07-.99-.21-1.15-.14-.18-.46-.26-.96-.26h-.56v-1.83h.71c1.04-.01,1.81,.28,2.29,.87s.73,1.53,.73,2.8v4.04c0,.55,.07,.95,.21,1.19,.14,.24,.4,.41,.77,.5,.03,.01,.06,.02,.09,.03s.05,.01,.08,.02l.12,.03v1.88c-.06,.08-.16,.13-.28,.16-.65,.12-.98,.65-.98,1.58v4.29c0,2.26-.97,3.39-2.92,3.39h-.46c-.15,0-.27-.04-.35-.11v-1.82h.57c.51,0,.84-.1,.98-.31,.14-.2,.21-.71,.21-1.51v-4.1c0-.67,.07-1.18,.21-1.52,.14-.38,.4-.72,.77-1.04Z"/>
</svg>