<?xml version="1.0" encoding="UTF-8"?>
<svg id="Ebene_1" data-name="Ebene 1" xmlns="http://www.w3.org/2000/svg" viewBox="0 0 879.47 355.67">
  <defs>
    <style>
      .cls-1 {
        fill: #f39200;
      }

      .cls-2 {
        fill: #1d1d1b;
      }

      .cls-3 {
        fill: #36a9e1;
      }
    </style>
  </defs>
  <path class="cls-2" d="M-.04,94.34H1.96l.91,5.57,.16,1.01,.32,2.19c.05,.37,.1,.71,.14,1.02,.04,.31,.08,.58,.11,.83l.1,.74c.02-.15,.04-.28,.05-.4,.01-.12,.03-.21,.04-.29l.26-1.75,.34-2.29c.03-.21,.06-.4,.09-.58s.06-.33,.08-.47l.98-5.57h1.89l-2.96,15.08h-1.61L-.04,94.34Z"/>
  <path class="cls-2" d="M10.34,94.34h1.58l3.23,15.08h-2.01l-.57-2.94h-2.99l-.58,2.94h-1.95l3.28-15.08Zm1.94,10.57l-.45-2.4c-.3-1.63-.54-3.38-.73-5.23-.09,.91-.21,1.82-.35,2.75-.14,.93-.31,1.91-.51,2.95l-.37,1.93h2.41Z"/>
  <path class="cls-2" d="M16.35,94.34h2.68c1.11,0,1.93,.26,2.47,.79,.68,.68,1.03,1.73,1.03,3.13,0,1.08-.18,1.95-.54,2.6s-.88,1.06-1.55,1.22l2.77,7.33h-2.06l-2.76-7.38v7.38h-2.03v-15.08Zm2.03,6.68c.79,0,1.34-.18,1.67-.55,.33-.36,.49-.98,.49-1.85,0-.47-.03-.87-.1-1.2s-.18-.6-.32-.81c-.15-.21-.33-.36-.57-.46-.23-.1-.51-.15-.83-.15h-.34v5.01Z"/>
  <path class="cls-2" d="M24.78,94.34h2.03v15.08h-2.03v-15.08Z"/>
  <path class="cls-2" d="M31.28,94.34h1.58l3.23,15.08h-2.01l-.57-2.94h-2.99l-.58,2.94h-1.95l3.28-15.08Zm1.94,10.57l-.45-2.4c-.3-1.63-.54-3.38-.73-5.23-.09,.91-.21,1.82-.35,2.75-.14,.93-.31,1.91-.51,2.95l-.37,1.93h2.41Z"/>
  <path class="cls-2" d="M37.28,94.34h1.89l2.02,6.02c.59,1.7,1.1,3.51,1.55,5.44-.16-1.17-.28-2.22-.36-3.16-.08-.94-.12-1.83-.12-2.67v-5.62h2.04v15.08h-1.9l-2.28-6.79c-.21-.63-.41-1.28-.59-1.94s-.36-1.36-.51-2.09c-.01-.09-.03-.2-.06-.33-.03-.13-.06-.28-.1-.45,.02,.17,.04,.31,.05,.43,.01,.12,.02,.22,.03,.31l.11,1.53,.11,1.87c0,.1,.01,.23,.01,.38,0,.15,0,.32,0,.51l.11,6.57h-2v-15.08Z"/>
  <path class="cls-2" d="M45.44,94.34h6.61v1.78h-2.28v13.3h-1.99v-13.3h-2.34v-1.78Z"/>
  <path class="cls-2" d="M53.17,94.34h5.4v1.72h-3.37v4.78h2.99v1.72h-2.99v5.15h3.37v1.72h-5.4v-15.08Z"/>
  <path class="cls-2" d="M59.28,110.78h11.31v1.79h-11.31v-1.79Z"/>
  <path class="cls-2" d="M73.53,99.25h-1.99l-.02-.6c0-1.65,.25-2.81,.74-3.48,.5-.68,1.34-1.02,2.52-1.02,2.22,0,3.33,1.23,3.33,3.69,0,1.66-.83,4.05-2.49,7.18l-1.2,2.26s-.03,.05-.06,.12c-.03,.07-.08,.16-.14,.28h3.73v1.74h-6.62c.11-.25,.34-.74,.69-1.47,.35-.74,.83-1.73,1.44-2.98,.51-1.09,.94-2.02,1.29-2.78,.35-.76,.61-1.39,.78-1.88,.35-.98,.53-1.82,.53-2.53,0-1.25-.43-1.88-1.3-1.88s-1.25,.78-1.25,2.32v.86s.02,.16,.02,.16Z"/>
  <path class="cls-2" d="M80.97,99.17c.32,0,.6,.12,.83,.36,.23,.23,.35,.51,.35,.84s-.12,.62-.35,.86-.52,.35-.85,.35-.62-.12-.86-.35c-.23-.24-.35-.53-.35-.86s.12-.62,.35-.85c.24-.23,.53-.35,.88-.35Zm0,7.99c.32,0,.6,.12,.83,.36,.23,.23,.35,.52,.35,.85s-.12,.62-.35,.85c-.25,.23-.53,.34-.85,.34-.17,0-.33-.03-.47-.09-.15-.06-.27-.15-.39-.25-.11-.11-.2-.23-.26-.38-.06-.15-.09-.3-.09-.47,0-.33,.12-.62,.35-.85,.24-.23,.53-.35,.88-.35Z"/>
  <path class="cls-3" d="M2.73,157.42v-10.91h1.82v1.82h.54c.25-.69,.64-1.2,1.16-1.52,.52-.32,1.15-.48,1.89-.48,.81,0,1.49,.27,2.04,.81,.55,.54,.82,1.3,.82,2.28v1.64h-1.73v-.98c0-.69-.16-1.2-.46-1.53-.31-.33-.78-.49-1.41-.49-.57,0-1.09,.14-1.55,.42-.47,.28-.9,.72-1.3,1.31v7.64h-1.82Z"/>
  <path class="cls-3" d="M18.95,157.6c-.41,0-.85-.04-1.3-.14s-.88-.21-1.28-.37v3.96h-1.82v-14.55h1.82v1.82h.55c.3-.62,.74-1.11,1.32-1.46,.58-.36,1.2-.54,1.86-.54,1.09,0,1.96,.37,2.59,1.12,.64,.75,.96,1.75,.96,3.03v2.96c0,1.29-.42,2.3-1.26,3.04-.84,.75-1.99,1.12-3.43,1.12Zm-.02-1.6c1.02,0,1.75-.21,2.21-.62,.45-.41,.68-1.07,.68-1.98v-2.95c0-.84-.17-1.45-.52-1.83s-.9-.57-1.66-.57c-.61,0-1.17,.15-1.69,.45-.52,.3-1.05,.79-1.58,1.46v5.35c.38,.23,.77,.4,1.17,.52s.87,.17,1.39,.17Z"/>
  <path class="cls-3" d="M31.96,157.6c-.92,0-1.81-.14-2.67-.41-.86-.27-1.66-.69-2.38-1.26l.82-1.44c.59,.48,1.26,.85,1.99,1.1,.73,.25,1.48,.37,2.25,.37,.63,0,1.23-.1,1.81-.29,.58-.19,.86-.6,.86-1.23,0-.52-.24-.89-.71-1.1-.47-.22-1.34-.4-2.6-.56-1.33-.16-2.34-.47-3.03-.94-.68-.47-1.03-1.21-1.03-2.21,0-1.09,.41-1.92,1.24-2.47s1.78-.83,2.87-.83c.86,0,1.69,.15,2.48,.44s1.53,.7,2.21,1.24l-.82,1.44c-.56-.45-1.16-.81-1.82-1.07-.66-.27-1.34-.4-2.05-.4-.58,0-1.11,.11-1.59,.33-.48,.22-.72,.62-.72,1.2,0,.5,.22,.86,.66,1.08,.44,.22,1.29,.42,2.55,.57,1.38,.16,2.42,.49,3.11,1.01,.69,.52,1.04,1.23,1.04,2.16,0,1.14-.46,1.97-1.38,2.5-.92,.53-1.95,.79-3.09,.79Z"/>
  <path class="cls-2" d="M39.45,149.42v-1.82h10.18v1.82h-10.18Zm0,5.09v-1.82h10.18v1.82h-10.18Z"/>
  <path class="cls-2" d="M60.91,161.24c-1.9-.45-3.44-1.49-4.61-3.11-1.17-1.62-1.75-3.68-1.75-6.16s.58-4.54,1.75-6.16c1.17-1.62,2.71-2.66,4.61-3.11l.18,1.42c-1.62,.45-2.82,1.38-3.58,2.81-.76,1.42-1.15,3.11-1.15,5.05s.38,3.62,1.15,5.04c.76,1.42,1.96,2.36,3.58,2.81l-.18,1.42Z"/>
  <path class="cls-1" d="M68.45,157.6c-.92,0-1.74-.25-2.46-.74-.72-.49-1.08-1.28-1.08-2.37,0-.96,.31-1.71,.94-2.25,.62-.54,1.35-.82,2.19-.82h3.78v-1.56c0-.58-.19-1.04-.58-1.38-.39-.34-.98-.51-1.76-.51s-1.4,.12-1.79,.35-.71,.76-.94,1.57l-1.6-.44c.21-1.03,.67-1.81,1.39-2.34,.72-.53,1.69-.79,2.9-.79s2.2,.27,3,.81c.8,.54,1.2,1.38,1.2,2.5v4.88c0,.66,.18,1.07,.54,1.23,.36,.16,.91,.19,1.64,.06v1.65c-.75,.11-1.46,.06-2.12-.15-.66-.21-1.02-.79-1.08-1.72h-.36c-.34,.56-.85,1.03-1.53,1.42s-1.44,.58-2.27,.58Zm.24-1.54c.63,0,1.21-.11,1.75-.34s.99-.62,1.38-1.18v-1.75h-3.27c-.52,0-.96,.12-1.3,.36-.34,.24-.52,.66-.52,1.25,0,.52,.15,.93,.45,1.23,.3,.29,.8,.44,1.52,.44Z"/>
  <path class="cls-2" d="M80,161.06l1.64-7.27h3.62l-3.73,7.27h-1.53Z"/>
  <path class="cls-1" d="M95.31,157.6c-.73,0-1.48-.11-2.25-.33-.78-.22-1.49-.53-2.15-.95v-13.45h1.82v5.45h.55c.32-.63,.75-1.12,1.31-1.47s1.18-.53,1.87-.53c1.13,0,2,.36,2.62,1.09,.62,.73,.93,1.75,.93,3.05v2.96c0,1.32-.41,2.35-1.24,3.07-.83,.73-1.98,1.09-3.46,1.09Zm-.02-1.6c.98,0,1.71-.21,2.18-.65,.47-.43,.71-1.08,.71-1.95v-2.91c0-.82-.18-1.44-.55-1.84-.36-.4-.91-.6-1.64-.6-.59,0-1.16,.16-1.69,.47s-1.06,.79-1.58,1.44v5.35c.39,.23,.79,.4,1.21,.52,.42,.12,.87,.17,1.36,.17Z"/>
  <path class="cls-2" d="M104.54,161.24l-.18-1.42c1.62-.45,2.82-1.39,3.58-2.83s1.15-3.11,1.15-5.03-.38-3.59-1.15-5.03-1.96-2.38-3.58-2.83l.18-1.42c1.9,.45,3.44,1.49,4.61,3.12,1.17,1.63,1.75,3.68,1.75,6.15s-.58,4.52-1.75,6.15c-1.17,1.63-2.71,2.67-4.61,3.12Z"/>
  <path class="cls-2" d="M115.82,149.42v-1.82h10.18v1.82h-10.18Zm0,5.09v-1.82h10.18v1.82h-10.18Z"/>
  <path class="cls-2" d="M129.09,157.06v-1.73l7.64-4.27-7.64-4.27v-1.73l9.09,5.09v1.82l-9.09,5.09Z"/>
  <path class="cls-3" d="M144.82,157.6c-.92,0-1.74-.25-2.46-.74-.72-.49-1.08-1.28-1.08-2.37,0-.96,.31-1.71,.94-2.25,.62-.54,1.35-.82,2.19-.82h3.78v-1.56c0-.58-.19-1.04-.58-1.38-.39-.34-.98-.51-1.76-.51s-1.4,.12-1.79,.35-.71,.76-.94,1.57l-1.6-.44c.21-1.03,.67-1.81,1.39-2.34,.72-.53,1.69-.79,2.9-.79s2.2,.27,3,.81c.8,.54,1.2,1.38,1.2,2.5v4.88c0,.66,.18,1.07,.54,1.23,.36,.16,.91,.19,1.64,.06v1.65c-.75,.11-1.46,.06-2.12-.15-.66-.21-1.02-.79-1.08-1.72h-.36c-.34,.56-.85,1.03-1.53,1.42s-1.44,.58-2.27,.58Zm.24-1.54c.63,0,1.21-.11,1.75-.34s.99-.62,1.38-1.18v-1.75h-3.27c-.52,0-.96,.12-1.3,.36-.34,.24-.52,.66-.52,1.25,0,.52,.15,.93,.45,1.23,.3,.29,.8,.44,1.52,.44Z"/>
  <path class="cls-2" d="M154,149.42v-1.82h10.18v1.82h-10.18Zm0,5.09v-1.82h10.18v1.82h-10.18Z"/>
  <path class="cls-2" d="M166.72,149.42v-1.82h10.18v1.82h-10.18Zm0,5.09v-1.82h10.18v1.82h-10.18Z"/>
  <path class="cls-3" d="M184.4,157.6c-.73,0-1.48-.11-2.25-.33-.78-.22-1.49-.53-2.15-.95v-13.45h1.82v5.45h.54c.32-.63,.75-1.12,1.31-1.47s1.18-.53,1.87-.53c1.13,0,2,.36,2.62,1.09,.62,.73,.93,1.75,.93,3.05v2.96c0,1.32-.41,2.35-1.24,3.07-.82,.73-1.98,1.09-3.45,1.09Zm-.02-1.6c.98,0,1.71-.21,2.18-.65,.47-.43,.71-1.08,.71-1.95v-2.91c0-.82-.18-1.44-.54-1.84-.36-.4-.91-.6-1.64-.6-.59,0-1.16,.16-1.69,.47-.53,.32-1.06,.79-1.58,1.44v5.35c.39,.23,.79,.4,1.21,.52s.87,.17,1.35,.17Z"/>
  <path class="cls-2" d="M195.82,151.73l-.36-1.47c2.11-.34,3.52-.72,4.22-1.15,.7-.42,1.05-1,1.05-1.73v-.55c0-.71-.22-1.31-.65-1.79-.43-.48-1.37-.72-2.81-.72-1.54,0-2.51,.23-2.91,.69-.4,.46-.64,1.27-.73,2.42l-1.82-.18c.08-1.7,.51-2.88,1.29-3.55,.78-.67,2.16-1.01,4.14-1.01s3.37,.38,4.14,1.14c.77,.76,1.15,1.69,1.15,2.79v.84c0,1.33-.54,2.29-1.64,2.86s-2.79,1.04-5.09,1.41Zm.64,5.87c-.61,0-1.05-.12-1.33-.37s-.42-.63-.42-1.15v-.51c0-.53,.14-.93,.42-1.18s.72-.38,1.33-.38,1.05,.13,1.34,.38c.28,.25,.43,.65,.43,1.18v.51c0,.52-.15,.91-.44,1.15-.29,.25-.73,.37-1.33,.37Z"/>
  <path class="cls-1" d="M209.09,150.15l-.55-7.27h2.91l-.54,7.27h-1.82Z"/>
  <path class="cls-1" d="M218.18,157.42v-14.54h4.02c1.7,0,3.03,.48,3.99,1.45s1.45,2.25,1.45,3.85v4.04c0,1.59-.49,2.85-1.45,3.8-.97,.95-2.3,1.42-4,1.42h-4Zm1.82-1.64h2.18c1.22,0,2.14-.33,2.74-.99,.6-.66,.9-1.52,.9-2.59v-4.04c0-1.05-.3-1.93-.9-2.62-.6-.69-1.51-1.04-2.74-1.04h-2.18v11.27Z"/>
  <path class="cls-1" d="M231.81,157.42v-10.91h1.82v1.82h.54c.25-.69,.64-1.2,1.16-1.52,.52-.32,1.15-.48,1.89-.48,.81,0,1.49,.27,2.04,.81,.55,.54,.82,1.3,.82,2.28v1.64h-1.73v-.98c0-.69-.16-1.2-.46-1.53-.31-.33-.78-.49-1.41-.49-.57,0-1.09,.14-1.55,.42-.47,.28-.9,.72-1.3,1.31v7.64h-1.82Z"/>
  <path class="cls-1" d="M246.63,157.6c-.92,0-1.74-.25-2.46-.74-.72-.49-1.08-1.28-1.08-2.37,0-.96,.31-1.71,.94-2.25,.62-.54,1.35-.82,2.19-.82h3.78v-1.56c0-.58-.19-1.04-.58-1.38-.39-.34-.98-.51-1.76-.51s-1.4,.12-1.79,.35c-.39,.24-.71,.76-.94,1.57l-1.6-.44c.21-1.03,.67-1.81,1.39-2.34,.72-.53,1.69-.79,2.9-.79s2.2,.27,3,.81c.8,.54,1.2,1.38,1.2,2.5v4.88c0,.66,.18,1.07,.55,1.23,.36,.16,.91,.19,1.64,.06v1.65c-.75,.11-1.46,.06-2.12-.15-.66-.21-1.02-.79-1.08-1.72h-.36c-.34,.56-.85,1.03-1.53,1.42s-1.44,.58-2.27,.58Zm.24-1.54c.63,0,1.21-.11,1.75-.34s.99-.62,1.38-1.18v-1.75h-3.27c-.52,0-.96,.12-1.3,.36-.34,.24-.52,.66-.52,1.25,0,.52,.15,.93,.45,1.23,.3,.29,.8,.44,1.52,.44Z"/>
  <path class="cls-1" d="M262.51,157.42l-1.6-7.11-1.53,7.11h-2.07l-2.05-10.91h1.75l1.38,9.58,1.42-7.76h2.15l1.54,7.47,1.33-9.29h1.75l-2.05,10.91h-2Z"/>
  <path class="cls-1" d="M273.65,157.6c-.61,0-1.05-.12-1.34-.37-.29-.25-.43-.63-.43-1.15v-.51c0-.53,.14-.93,.43-1.18,.28-.25,.73-.38,1.34-.38s1.05,.13,1.33,.38c.28,.25,.42,.65,.42,1.18v.51c0,.52-.14,.91-.43,1.15-.29,.25-.72,.37-1.32,.37Zm-.75-5.64l-.55-9.09h2.55l-.55,9.09h-1.45Z"/>
  <path class="cls-1" d="M285.45,150.15l-.54-7.27h2.91l-.55,7.27h-1.82Z"/>
  <path class="cls-2" d="M299.1,150.33c-.61,0-1.1-.12-1.47-.37-.38-.25-.56-.63-.56-1.15v-.87c0-.53,.19-.93,.56-1.18,.38-.25,.87-.38,1.47-.38s1.09,.13,1.46,.38c.37,.25,.55,.65,.55,1.18v.87c0,.52-.19,.91-.56,1.15-.38,.25-.86,.37-1.45,.37Zm0,7.27c-.61,0-1.1-.12-1.47-.37-.38-.25-.56-.63-.56-1.15v-.87c0-.53,.19-.93,.56-1.18,.38-.25,.87-.38,1.47-.38s1.09,.13,1.46,.38c.37,.25,.55,.65,.55,1.18v.87c0,.52-.19,.91-.56,1.15-.38,.25-.86,.37-1.45,.37Z"/>
  <path class="cls-1" d="M307.27,157.42v-14.54h5.11c1.51,0,2.65,.32,3.4,.95,.75,.64,1.13,1.6,1.13,2.88v1.78c0,1.29-.38,2.25-1.14,2.88-.76,.64-1.89,.95-3.41,.95h-3.27v5.09h-1.82Zm1.82-6.69h3.27c.98,0,1.68-.17,2.1-.52,.42-.35,.63-.93,.63-1.75v-1.67c0-.82-.21-1.41-.63-1.75-.42-.35-1.12-.52-2.1-.52h-3.27v6.22Z"/>
  <path class="cls-1" d="M319.99,157.42v-1.64h3.64v-11.27h-3.64v-1.64h5.45v12.91h3.64v1.64h-9.09Z"/>
  <path class="cls-1" d="M335.72,157.6c-.92,0-1.74-.25-2.46-.74-.72-.49-1.08-1.28-1.08-2.37,0-.96,.31-1.71,.94-2.25,.62-.54,1.35-.82,2.19-.82h3.78v-1.56c0-.58-.19-1.04-.58-1.38-.39-.34-.98-.51-1.76-.51s-1.4,.12-1.79,.35c-.39,.24-.71,.76-.94,1.57l-1.6-.44c.21-1.03,.67-1.81,1.39-2.34,.72-.53,1.69-.79,2.9-.79s2.2,.27,3,.81c.8,.54,1.2,1.38,1.2,2.5v4.88c0,.66,.18,1.07,.55,1.23,.36,.16,.91,.19,1.64,.06v1.65c-.75,.11-1.46,.06-2.12-.15-.66-.21-1.02-.79-1.08-1.72h-.36c-.34,.56-.85,1.03-1.53,1.42s-1.44,.58-2.27,.58Zm.24-1.54c.63,0,1.21-.11,1.75-.34s.99-.62,1.38-1.18v-1.75h-3.27c-.52,0-.96,.12-1.3,.36-.35,.24-.52,.66-.52,1.25,0,.52,.15,.93,.45,1.23,.3,.29,.8,.44,1.52,.44Z"/>
  <path class="cls-1" d="M346.76,161.17c-.29,0-.58-.02-.85-.05-.28-.04-.56-.08-.85-.15l.31-1.62c.31,.07,.61,.13,.88,.16,.27,.04,.52,.05,.75,.05,.56,0,1.05-.16,1.48-.47,.43-.32,.76-.82,.99-1.51l.05-.16h-.67l-3.87-10.91h1.98l3.07,9.38,3.05-9.38h1.91l-4,11.27c-.41,1.17-.97,2.03-1.68,2.57s-1.56,.81-2.55,.81Z"/>
  <path class="cls-1" d="M367.3,155.02c-.33,.91-.82,1.57-1.49,1.97-.67,.41-1.69,.61-3.07,.61s-2.56-.35-3.36-1.04c-.8-.7-1.2-1.73-1.2-3.1v-2.93c0-1.41,.42-2.46,1.26-3.15,.84-.7,1.94-1.05,3.3-1.05s2.47,.35,3.29,1.06,1.24,1.8,1.24,3.26v1.67h-7.27v1.15c0,.91,.23,1.57,.68,1.97,.45,.41,1.14,.61,2.04,.61s1.51-.12,1.91-.36c.4-.24,.7-.64,.91-1.18l1.76,.51Zm-7.31-4.49v.44h5.45v-.27c0-.98-.23-1.7-.68-2.15-.46-.45-1.14-.67-2.05-.67s-1.59,.21-2.04,.65c-.46,.43-.68,1.1-.68,2.01Z"/>
  <path class="cls-1" d="M371.81,157.42v-10.91h1.82v1.82h.54c.25-.69,.64-1.2,1.16-1.52,.52-.32,1.15-.48,1.89-.48,.81,0,1.49,.27,2.04,.81,.55,.54,.82,1.3,.82,2.28v1.64h-1.73v-.98c0-.69-.15-1.2-.46-1.53-.31-.33-.78-.49-1.41-.49-.57,0-1.09,.14-1.55,.42-.47,.28-.9,.72-1.3,1.31v7.64h-1.82Z"/>
  <path class="cls-2" d="M388.9,158.33h-1.45v-1.76c-.72-.06-1.42-.2-2.13-.42s-1.3-.5-1.78-.84l.54-1.47c.52,.34,1.1,.61,1.73,.82,.63,.21,1.24,.35,1.82,.42v-4.24c-1.48-.38-2.52-.85-3.11-1.42-.59-.57-.89-1.33-.89-2.27,0-1.05,.31-1.87,.94-2.45,.62-.58,1.58-.9,2.88-.96v-1.76h1.45v1.78c.65,.06,1.29,.18,1.89,.36,.61,.18,1.12,.41,1.55,.67l-.55,1.51c-.46-.25-.96-.46-1.49-.63-.53-.16-1.06-.27-1.58-.32v4.09c1.51,.41,2.58,.89,3.18,1.45s.91,1.29,.91,2.21c0,1.08-.34,1.92-1.01,2.51-.67,.59-1.64,.93-2.9,1v1.73Zm-3.65-11.18c0,.45,.18,.82,.53,1.13,.35,.3,.97,.59,1.85,.85v-3.84c-.72,.02-1.29,.17-1.73,.43-.44,.26-.65,.74-.65,1.43Zm5.93,6c0-.47-.18-.86-.54-1.16-.36-.3-1-.59-1.91-.85v4c.73-.02,1.32-.2,1.77-.52,.46-.32,.68-.81,.68-1.46Z"/>
  <path class="cls-2" d="M404.54,161.24c-2.55,.05-4.39-.18-5.55-.68-1.15-.5-1.73-1.28-1.73-2.34,0-.61,.12-1.11,.37-1.53,.25-.41,.52-.77,.81-1.07,.3-.3,.58-.59,.82-.85,.24-.27,.36-.55,.36-.85,0-.57-.3-.97-.91-1.21s-1.7-.37-3.27-.41v-1.09c1.58-.04,2.67-.17,3.27-.4,.61-.23,.91-.62,.91-1.18,0-.3-.12-.56-.36-.77-.24-.21-.52-.45-.82-.72-.29-.27-.56-.59-.81-.96-.25-.38-.37-.87-.37-1.49,0-1.03,.58-1.8,1.73-2.3,1.15-.5,3-.73,5.55-.68v1.64c-2.05-.04-3.47,.07-4.26,.33-.79,.25-1.19,.67-1.19,1.24,0,.24,.09,.49,.26,.75,.17,.25,.49,.59,.94,1,.44,.4,.74,.74,.91,1.03,.17,.28,.25,.6,.25,.94,0,.68-.3,1.19-.9,1.54-.6,.34-1.46,.54-2.59,.59v.09c1.13,.12,1.99,.38,2.59,.76,.6,.39,.9,.93,.9,1.64,0,.3-.09,.59-.27,.87-.18,.28-.5,.63-.96,1.05-.42,.36-.72,.68-.88,.94-.16,.26-.25,.56-.25,.9,0,.61,.4,1.04,1.19,1.31s2.21,.38,4.26,.35v1.6Z"/>
  <path class="cls-2" d="M409.08,161.06l7.27-18.18h1.82l-7.27,18.18h-1.82Z"/>
  <path class="cls-2" d="M422.72,157.42v-10.91h1.82v1.82h.54c.25-.69,.64-1.2,1.16-1.52,.52-.32,1.15-.48,1.89-.48,.81,0,1.49,.27,2.04,.81,.55,.54,.82,1.3,.82,2.28v1.64h-1.73v-.98c0-.69-.15-1.2-.46-1.53-.31-.33-.78-.49-1.41-.49-.57,0-1.09,.14-1.55,.42-.47,.28-.9,.72-1.3,1.31v7.64h-1.82Z"/>
  <path class="cls-2" d="M438.94,157.6c-.41,0-.84-.04-1.3-.14-.45-.09-.88-.21-1.28-.37v3.96h-1.82v-14.55h1.82v1.82h.54c.3-.62,.74-1.11,1.32-1.46,.58-.36,1.2-.54,1.86-.54,1.09,0,1.96,.37,2.59,1.12,.64,.75,.96,1.75,.96,3.03v2.96c0,1.29-.42,2.3-1.26,3.04-.84,.75-1.99,1.12-3.43,1.12Zm-.02-1.6c1.02,0,1.75-.21,2.21-.62,.45-.41,.68-1.07,.68-1.98v-2.95c0-.84-.17-1.45-.52-1.83-.34-.38-.9-.57-1.66-.57-.61,0-1.17,.15-1.69,.45-.52,.3-1.05,.79-1.58,1.46v5.35c.38,.23,.77,.4,1.17,.52,.41,.12,.87,.17,1.39,.17Z"/>
  <path class="cls-2" d="M450.99,161.06v-18.18h1.64v18.18h-1.64Z"/>
  <path class="cls-2" d="M464.39,157.6c-.41,0-.84-.04-1.3-.14-.45-.09-.88-.21-1.28-.37v3.96h-1.82v-14.55h1.82v1.82h.54c.3-.62,.74-1.11,1.32-1.46,.58-.36,1.2-.54,1.86-.54,1.09,0,1.96,.37,2.59,1.12,.64,.75,.96,1.75,.96,3.03v2.96c0,1.29-.42,2.3-1.26,3.04-.84,.75-1.99,1.12-3.43,1.12Zm-.02-1.6c1.02,0,1.75-.21,2.21-.62,.45-.41,.68-1.07,.68-1.98v-2.95c0-.84-.17-1.45-.52-1.83-.34-.38-.9-.57-1.66-.57-.61,0-1.17,.15-1.69,.45-.52,.3-1.05,.79-1.58,1.46v5.35c.38,.23,.77,.4,1.17,.52,.41,.12,.87,.17,1.39,.17Z"/>
  <path class="cls-2" d="M477.41,157.6c-.92,0-1.81-.14-2.67-.41-.86-.27-1.65-.69-2.38-1.26l.82-1.44c.59,.48,1.26,.85,1.99,1.1,.73,.25,1.48,.37,2.25,.37,.63,0,1.23-.1,1.81-.29,.58-.19,.86-.6,.86-1.23,0-.52-.24-.89-.71-1.1-.47-.22-1.34-.4-2.6-.56-1.33-.16-2.34-.47-3.03-.94-.69-.47-1.03-1.21-1.03-2.21,0-1.09,.41-1.92,1.24-2.47s1.78-.83,2.87-.83c.86,0,1.69,.15,2.48,.44s1.53,.7,2.21,1.24l-.82,1.44c-.56-.45-1.16-.81-1.82-1.07-.65-.27-1.34-.4-2.05-.4-.58,0-1.11,.11-1.59,.33-.48,.22-.72,.62-.72,1.2,0,.5,.22,.86,.66,1.08,.44,.22,1.29,.42,2.55,.57,1.38,.16,2.42,.49,3.11,1.01,.69,.52,1.04,1.23,1.04,2.16,0,1.14-.46,1.97-1.38,2.5-.92,.53-1.95,.79-3.09,.79Z"/>
  <path class="cls-2" d="M489.17,161.06v-18.18h1.64v18.18h-1.64Z"/>
  <path class="cls-2" d="M502.86,157.6c-.92,0-1.81-.14-2.67-.41-.86-.27-1.65-.69-2.38-1.26l.82-1.44c.59,.48,1.26,.85,1.99,1.1,.73,.25,1.48,.37,2.25,.37,.63,0,1.23-.1,1.81-.29,.58-.19,.86-.6,.86-1.23,0-.52-.24-.89-.71-1.1-.47-.22-1.34-.4-2.6-.56-1.33-.16-2.34-.47-3.03-.94-.69-.47-1.03-1.21-1.03-2.21,0-1.09,.41-1.92,1.24-2.47s1.78-.83,2.87-.83c.86,0,1.69,.15,2.48,.44s1.53,.7,2.21,1.24l-.82,1.44c-.56-.45-1.16-.81-1.82-1.07-.65-.27-1.34-.4-2.05-.4-.58,0-1.11,.11-1.59,.33-.48,.22-.72,.62-.72,1.2,0,.5,.22,.86,.66,1.08,.44,.22,1.29,.42,2.55,.57,1.38,.16,2.42,.49,3.11,1.01,.69,.52,1.04,1.23,1.04,2.16,0,1.14-.46,1.97-1.38,2.5-.92,.53-1.95,.79-3.09,.79Z"/>
  <path class="cls-2" d="M511.81,157.42v-10.91h1.82v1.82h.54c.25-.69,.64-1.2,1.16-1.52,.52-.32,1.15-.48,1.89-.48,.81,0,1.49,.27,2.04,.81,.55,.54,.82,1.3,.82,2.28v1.64h-1.73v-.98c0-.69-.15-1.2-.46-1.53-.31-.33-.78-.49-1.41-.49-.57,0-1.09,.14-1.55,.42-.47,.28-.9,.72-1.3,1.31v7.64h-1.82Z"/>
  <path class="cls-2" d="M523.63,161.06l7.27-18.18h1.82l-7.27,18.18h-1.82Z"/>
  <path class="cls-2" d="M540.92,157.6c-.61,0-1.1-.14-1.47-.41-.38-.27-.56-.71-.56-1.3v-.51c0-.59,.19-1.03,.56-1.32,.38-.28,.87-.43,1.47-.43s1.09,.14,1.46,.43c.37,.29,.55,.72,.55,1.32v.51c0,.59-.19,1.03-.56,1.3-.38,.27-.86,.41-1.45,.41Z"/>
  <path class="cls-2" d="M555.43,157.58c-1.2,0-2.13-.3-2.8-.89-.67-.59-1-1.5-1-2.73v-5.82h-3.09v-1.64h3.09v-3.64h1.82v3.64h4.73v1.64h-4.73v5.65c0,.7,.18,1.22,.53,1.56,.35,.34,.87,.51,1.56,.51,.46,0,.89-.03,1.29-.1,.4-.07,.78-.15,1.15-.26l.36,1.66c-.41,.12-.85,.22-1.32,.3-.47,.08-1,.12-1.59,.12Z"/>
  <path class="cls-2" d="M570.94,155.02c-.33,.91-.82,1.57-1.49,1.97-.67,.41-1.69,.61-3.07,.61s-2.56-.35-3.36-1.04c-.8-.7-1.2-1.73-1.2-3.1v-2.93c0-1.41,.42-2.46,1.26-3.15,.84-.7,1.94-1.05,3.3-1.05s2.47,.35,3.29,1.06,1.24,1.8,1.24,3.26v1.67h-7.27v1.15c0,.91,.23,1.57,.68,1.97,.45,.41,1.14,.61,2.04,.61s1.51-.12,1.91-.36c.4-.24,.7-.64,.91-1.18l1.76,.51Zm-7.31-4.49v.44h5.45v-.27c0-.98-.23-1.7-.68-2.15-.46-.45-1.14-.67-2.05-.67s-1.59,.21-2.04,.65c-.46,.43-.68,1.1-.68,2.01Z"/>
  <path class="cls-2" d="M579.23,157.6c-.92,0-1.81-.14-2.67-.41-.86-.27-1.65-.69-2.38-1.26l.82-1.44c.59,.48,1.26,.85,1.99,1.1,.73,.25,1.48,.37,2.25,.37,.63,0,1.23-.1,1.81-.29,.58-.19,.86-.6,.86-1.23,0-.52-.24-.89-.71-1.1-.47-.22-1.34-.4-2.6-.56-1.33-.16-2.34-.47-3.03-.94-.69-.47-1.03-1.21-1.03-2.21,0-1.09,.41-1.92,1.24-2.47s1.78-.83,2.87-.83c.86,0,1.69,.15,2.48,.44s1.53,.7,2.21,1.24l-.82,1.44c-.56-.45-1.16-.81-1.82-1.07-.65-.27-1.34-.4-2.05-.4-.58,0-1.11,.11-1.59,.33-.48,.22-.72,.62-.72,1.2,0,.5,.22,.86,.66,1.08,.44,.22,1.29,.42,2.55,.57,1.38,.16,2.42,.49,3.11,1.01,.69,.52,1.04,1.23,1.04,2.16,0,1.14-.46,1.97-1.38,2.5-.92,.53-1.95,.79-3.09,.79Z"/>
  <path class="cls-2" d="M593.61,157.58c-1.2,0-2.13-.3-2.8-.89-.67-.59-1-1.5-1-2.73v-5.82h-3.09v-1.64h3.09v-3.64h1.82v3.64h4.73v1.64h-4.73v5.65c0,.7,.18,1.22,.53,1.56,.35,.34,.87,.51,1.56,.51,.46,0,.89-.03,1.29-.1,.4-.07,.78-.15,1.15-.26l.36,1.66c-.41,.12-.85,.22-1.32,.3-.47,.08-1,.12-1.59,.12Z"/>
  <path class="cls-2" d="M608.17,161.24c-1.9-.45-3.44-1.49-4.61-3.11s-1.75-3.68-1.75-6.16,.58-4.54,1.75-6.16c1.17-1.62,2.71-2.66,4.61-3.11l.18,1.42c-1.62,.45-2.82,1.38-3.58,2.81-.76,1.42-1.15,3.11-1.15,5.05s.38,3.62,1.15,5.04c.76,1.42,1.96,2.36,3.58,2.81l-.18,1.42Z"/>
  <path class="cls-3" d="M615.72,157.6c-.92,0-1.74-.25-2.46-.74-.72-.49-1.08-1.28-1.08-2.37,0-.96,.31-1.71,.94-2.25,.62-.54,1.35-.82,2.19-.82h3.78v-1.56c0-.58-.19-1.04-.58-1.38-.39-.34-.98-.51-1.76-.51s-1.4,.12-1.79,.35c-.39,.24-.71,.76-.94,1.57l-1.6-.44c.21-1.03,.67-1.81,1.39-2.34,.72-.53,1.69-.79,2.9-.79s2.2,.27,3,.81c.8,.54,1.2,1.38,1.2,2.5v4.88c0,.66,.18,1.07,.55,1.23,.36,.16,.91,.19,1.64,.06v1.65c-.75,.11-1.46,.06-2.12-.15-.66-.21-1.02-.79-1.08-1.72h-.36c-.34,.56-.85,1.03-1.53,1.42s-1.44,.58-2.27,.58Zm.24-1.54c.63,0,1.21-.11,1.75-.34s.99-.62,1.38-1.18v-1.75h-3.27c-.52,0-.96,.12-1.3,.36-.35,.24-.52,.66-.52,1.25,0,.52,.15,.93,.45,1.23,.3,.29,.8,.44,1.52,.44Z"/>
  <path class="cls-2" d="M627.26,161.06v-18.18h6.36v1.64h-4.55v15.13h4.55v1.42h-6.36Z"/>
  <path class="cls-1" d="M642.72,157.6c-1.6,0-2.82-.54-3.65-1.61-.84-1.07-1.25-2.64-1.25-4.7v-2.22c0-2.08,.42-3.67,1.25-4.75,.84-1.08,2.06-1.63,3.67-1.63s2.82,.54,3.65,1.63,1.25,2.67,1.25,4.75v2.22c0,2.06-.42,3.63-1.25,4.7-.84,1.07-2.05,1.61-3.66,1.61Zm0-1.64c1.1,0,1.89-.36,2.37-1.09,.48-.73,.72-1.92,.72-3.58v-2.22c0-1.7-.24-2.91-.72-3.65s-1.27-1.1-2.37-1.1-1.89,.37-2.37,1.1c-.48,.73-.72,1.95-.72,3.65v2.22c0,1.66,.24,2.85,.72,3.58,.48,.73,1.27,1.09,2.37,1.09Zm0-4.4c-.39,0-.7-.07-.95-.2-.24-.13-.36-.39-.36-.76v-.89c0-.36,.12-.62,.36-.75,.24-.14,.56-.21,.95-.21s.7,.07,.94,.21c.24,.14,.35,.39,.35,.75v.89c0,.38-.12,.63-.36,.76-.24,.13-.55,.2-.93,.2Z"/>
  <path class="cls-2" d="M651.81,161.06v-1.42h4.54v-15.13h-4.54v-1.64h6.36v18.18h-6.36Z"/>
  <path class="cls-2" d="M667.26,156.69v-4.73h-4.18v-1.82h4.18v-4.73h1.82v4.73h4.18v1.82h-4.18v4.73h-1.82Z"/>
  <path class="cls-3" d="M680.75,157.6c-.73,0-1.48-.11-2.25-.33-.78-.22-1.49-.53-2.15-.95v-13.45h1.82v5.45h.54c.32-.63,.75-1.12,1.31-1.47,.56-.35,1.18-.53,1.87-.53,1.13,0,2,.36,2.62,1.09,.62,.73,.93,1.75,.93,3.05v2.96c0,1.32-.41,2.35-1.24,3.07-.82,.73-1.98,1.09-3.46,1.09Zm-.02-1.6c.98,0,1.71-.21,2.18-.65,.47-.43,.71-1.08,.71-1.95v-2.91c0-.82-.18-1.44-.54-1.84-.36-.4-.91-.6-1.64-.6-.59,0-1.16,.16-1.69,.47s-1.06,.79-1.58,1.44v5.35c.39,.23,.79,.4,1.21,.52s.87,.17,1.35,.17Z"/>
  <path class="cls-2" d="M690.9,161.06v-18.18h6.36v1.64h-4.55v15.13h4.55v1.42h-6.36Z"/>
  <path class="cls-1" d="M706.35,157.6c-1.6,0-2.82-.54-3.65-1.61-.84-1.07-1.25-2.64-1.25-4.7v-2.22c0-2.08,.42-3.67,1.25-4.75,.84-1.08,2.06-1.63,3.67-1.63s2.82,.54,3.65,1.63,1.25,2.67,1.25,4.75v2.22c0,2.06-.42,3.63-1.25,4.7-.84,1.07-2.05,1.61-3.66,1.61Zm0-1.64c1.1,0,1.89-.36,2.37-1.09,.48-.73,.72-1.92,.72-3.58v-2.22c0-1.7-.24-2.91-.72-3.65s-1.27-1.1-2.37-1.1-1.89,.37-2.37,1.1c-.48,.73-.72,1.95-.72,3.65v2.22c0,1.66,.24,2.85,.72,3.58,.48,.73,1.27,1.09,2.37,1.09Zm0-4.4c-.39,0-.7-.07-.95-.2-.24-.13-.36-.39-.36-.76v-.89c0-.36,.12-.62,.36-.75,.24-.14,.56-.21,.95-.21s.7,.07,.94,.21c.24,.14,.35,.39,.35,.75v.89c0,.38-.12,.63-.36,.76-.24,.13-.55,.2-.93,.2Z"/>
  <path class="cls-2" d="M715.44,161.06v-1.42h4.54v-15.13h-4.54v-1.64h6.36v18.18h-6.36Z"/>
  <path class="cls-2" d="M728.17,161.24l-.18-1.42c1.62-.45,2.82-1.39,3.58-2.83s1.15-3.11,1.15-5.03-.38-3.59-1.15-5.03-1.96-2.38-3.58-2.83l.18-1.42c1.9,.45,3.44,1.49,4.61,3.12,1.17,1.63,1.75,3.68,1.75,6.15s-.58,4.52-1.75,6.15-2.71,2.67-4.61,3.12Z"/>
  <path class="cls-2" d="M743.08,151.73l-.36-1.47c2.11-.34,3.51-.72,4.22-1.15,.7-.42,1.05-1,1.05-1.73v-.55c0-.71-.22-1.31-.65-1.79-.43-.48-1.37-.72-2.81-.72-1.54,0-2.51,.23-2.91,.69-.4,.46-.64,1.27-.73,2.42l-1.82-.18c.08-1.7,.51-2.88,1.29-3.55,.78-.67,2.16-1.01,4.15-1.01s3.37,.38,4.14,1.14c.77,.76,1.16,1.69,1.16,2.79v.84c0,1.33-.55,2.29-1.64,2.86s-2.79,1.04-5.09,1.41Zm.64,5.87c-.61,0-1.05-.12-1.33-.37-.28-.25-.42-.63-.42-1.15v-.51c0-.53,.14-.93,.42-1.18,.28-.25,.72-.38,1.33-.38s1.05,.13,1.34,.38c.28,.25,.43,.65,.43,1.18v.51c0,.52-.15,.91-.44,1.15s-.73,.37-1.33,.37Z"/>
  <path class="cls-2" d="M752.35,157.42v-3.09c0-1.1,.27-1.98,.8-2.62,.53-.64,1.41-1.15,2.64-1.51l2.47-.73c.69-.19,1.18-.44,1.47-.75,.29-.3,.44-.76,.44-1.36v-.75c0-.84-.2-1.43-.61-1.77-.41-.35-1.17-.52-2.3-.52-1.03,0-1.75,.22-2.15,.65-.41,.43-.66,1.25-.75,2.46l-1.82-.18c.1-1.66,.5-2.84,1.21-3.53,.71-.69,1.88-1.04,3.5-1.04s2.78,.31,3.56,.93,1.18,1.56,1.18,2.82v1.2c0,.91-.26,1.64-.78,2.18-.52,.54-1.38,.99-2.58,1.35l-2.49,.73c-.59,.17-1.07,.42-1.43,.74-.36,.32-.54,.88-.54,1.66v1.49h8v1.64h-9.82Z"/>
  <path class="cls-2" d="M770.01,150.33c-.61,0-1.1-.12-1.47-.37-.38-.25-.56-.63-.56-1.15v-.87c0-.53,.19-.93,.56-1.18,.38-.25,.87-.38,1.47-.38s1.09,.13,1.46,.38c.37,.25,.55,.65,.55,1.18v.87c0,.52-.19,.91-.56,1.15-.38,.25-.86,.37-1.45,.37Zm0,7.27c-.61,0-1.1-.12-1.47-.37-.38-.25-.56-.63-.56-1.15v-.87c0-.53,.19-.93,.56-1.18,.38-.25,.87-.38,1.47-.38s1.09,.13,1.46,.38c.37,.25,.55,.65,.55,1.18v.87c0,.52-.19,.91-.56,1.15-.38,.25-.86,.37-1.45,.37Z"/>
  <path class="cls-2" d="M778.71,157.42v-1.64h4v-10.73h-.53c-.41,.73-.94,1.24-1.59,1.54-.65,.3-1.4,.38-2.25,.24l-.18-1.78c.93,.11,1.79-.02,2.56-.39,.78-.37,1.45-.97,2.04-1.79h1.76v12.91h3.64v1.64h-9.46Z"/>
  <path class="cls-2" d="M799.08,158.22c0,1.05-.58,1.83-1.73,2.34s-3,.73-5.54,.68v-1.6c2.05,.04,3.47-.08,4.26-.35,.79-.27,1.19-.7,1.19-1.31,0-.34-.08-.64-.25-.9-.16-.26-.46-.57-.88-.94-.46-.42-.78-.78-.96-1.05-.18-.28-.27-.57-.27-.87,0-.7,.3-1.25,.9-1.64,.6-.39,1.46-.64,2.59-.76v-.09c-1.13-.05-1.99-.25-2.59-.59-.6-.35-.9-.86-.9-1.54,0-.34,.08-.65,.25-.94,.17-.29,.47-.63,.91-1.03,.45-.41,.76-.75,.94-1,.18-.25,.26-.5,.26-.75,0-.57-.4-.98-1.19-1.24-.79-.25-2.22-.36-4.26-.33v-1.64c2.54-.05,4.39,.18,5.54,.68s1.73,1.27,1.73,2.3c0,.62-.12,1.12-.37,1.49-.25,.38-.52,.7-.81,.96-.3,.27-.58,.51-.82,.72s-.36,.47-.36,.77c0,.56,.3,.95,.91,1.18,.61,.23,1.7,.36,3.27,.4v1.09c-1.58,.04-2.67,.17-3.27,.41-.61,.24-.91,.64-.91,1.21,0,.3,.12,.59,.36,.85s.51,.55,.82,.85c.29,.3,.56,.66,.81,1.07,.25,.41,.37,.92,.37,1.53Z"/>
  <path class="cls-1" d="M822.5,157.42l-1.6-7.11-1.53,7.11h-2.07l-2.05-10.91h1.75l1.38,9.58,1.42-7.76h2.15l1.54,7.47,1.33-9.29h1.75l-2.05,10.91h-2Z"/>
  <path class="cls-1" d="M833.62,157.6c-1.47,0-2.59-.35-3.37-1.06-.78-.71-1.17-1.73-1.17-3.06v-2.95c0-1.35,.39-2.38,1.18-3.11,.79-.73,1.92-1.09,3.38-1.09s2.57,.36,3.35,1.09c.78,.73,1.17,1.76,1.17,3.11v2.95c0,1.33-.39,2.35-1.17,3.06s-1.91,1.06-3.37,1.06Zm0-1.64c.92,0,1.61-.21,2.05-.62s.67-1.04,.67-1.87v-2.95c0-.87-.22-1.52-.67-1.94s-1.13-.63-2.05-.63-1.61,.21-2.05,.63c-.45,.42-.67,1.06-.67,1.94v2.95c0,.84,.22,1.46,.67,1.87,.45,.41,1.13,.62,2.05,.62Z"/>
  <path class="cls-1" d="M841.8,157.42v-10.91h1.82v1.82h.54c.27-.62,.68-1.11,1.25-1.46,.57-.36,1.22-.54,1.95-.54,1.09,0,1.95,.33,2.58,1,.63,.67,.95,1.58,.95,2.73v7.36h-1.82v-7c0-.76-.18-1.35-.55-1.75s-.9-.61-1.59-.61c-.54,0-1.1,.16-1.66,.49-.56,.33-1.11,.8-1.65,1.42v7.45h-1.82Z"/>
  <path class="cls-1" d="M859.09,157.6c-.61,0-1.05-.12-1.34-.37-.29-.25-.43-.63-.43-1.15v-.51c0-.53,.14-.93,.43-1.18,.28-.25,.73-.38,1.34-.38s1.05,.13,1.33,.38c.28,.25,.42,.65,.42,1.18v.51c0,.52-.14,.91-.43,1.15-.29,.25-.72,.37-1.32,.37Zm-.75-5.64l-.55-9.09h2.55l-.55,9.09h-1.45Z"/>
  <path class="cls-2" d="M869.08,161.06l1.64-7.27h3.62l-3.73,7.27h-1.53Zm2.75-10.73c-.61,0-1.1-.12-1.47-.37-.38-.25-.56-.63-.56-1.15v-.87c0-.53,.19-.93,.56-1.18,.38-.25,.87-.38,1.47-.38s1.09,.13,1.46,.38c.37,.25,.55,.65,.55,1.18v.87c0,.52-.19,.91-.56,1.15-.38,.25-.86,.37-1.45,.37Z"/>
</svg>