<?xml version="1.0" encoding="UTF-8"?>
<svg id="Ebene_1" data-name="Ebene 1" xmlns="http://www.w3.org/2000/svg" viewBox="0 0 831.16 355.67">
  <defs>
    <style>
      .cls-1 {
        fill: #f39200;
      }

      .cls-2 {
        fill: #1d1d1b;
      }

      .cls-3 {
        fill: #36a9e1;
      }
    </style>
  </defs>
  <path class="cls-2" d="M-.36,30.89H1.64l.91,5.57,.16,1.01,.32,2.19c.05,.37,.1,.71,.14,1.02s.08,.58,.11,.83l.1,.74c.02-.15,.04-.28,.05-.4s.03-.21,.04-.29l.26-1.75,.34-2.29c.03-.21,.06-.4,.09-.58s.06-.33,.08-.47l.98-5.57h1.89l-2.96,15.08h-1.61L-.36,30.89Z"/>
  <path class="cls-2" d="M10.02,30.89h1.58l3.23,15.08h-2.01l-.57-2.94h-2.99l-.58,2.94h-1.95l3.28-15.08Zm1.94,10.57l-.45-2.4c-.3-1.63-.54-3.38-.73-5.23-.09,.91-.21,1.82-.35,2.75s-.31,1.91-.51,2.95l-.37,1.93h2.41Z"/>
  <path class="cls-2" d="M16.03,30.89h2.68c1.11,0,1.93,.26,2.47,.79,.68,.68,1.03,1.73,1.03,3.13,0,1.08-.18,1.95-.54,2.6s-.88,1.06-1.55,1.22l2.77,7.33h-2.06l-2.76-7.38v7.38h-2.03v-15.08Zm2.03,6.68c.79,0,1.34-.18,1.67-.55s.49-.98,.49-1.85c0-.47-.03-.87-.1-1.2s-.18-.6-.32-.81-.34-.36-.57-.46-.51-.15-.83-.15h-.34v5.01Z"/>
  <path class="cls-2" d="M24.45,30.89h2.03v15.08h-2.03v-15.08Z"/>
  <path class="cls-2" d="M30.96,30.89h1.58l3.23,15.08h-2.01l-.57-2.94h-2.99l-.58,2.94h-1.95l3.28-15.08Zm1.94,10.57l-.45-2.4c-.3-1.63-.54-3.38-.73-5.23-.09,.91-.21,1.82-.35,2.75s-.31,1.91-.51,2.95l-.37,1.93h2.41Z"/>
  <path class="cls-2" d="M36.96,30.89h1.89l2.02,6.02c.59,1.7,1.1,3.51,1.55,5.44-.16-1.17-.28-2.22-.36-3.16s-.12-1.83-.12-2.67v-5.62h2.04v15.08h-1.9l-2.28-6.79c-.21-.63-.41-1.28-.59-1.94s-.36-1.36-.51-2.09c-.01-.09-.03-.2-.06-.33s-.06-.28-.1-.45c.02,.17,.04,.31,.05,.43s.02,.22,.03,.31l.11,1.53,.11,1.87c0,.1,.01,.23,.01,.38s0,.32,0,.51l.11,6.57h-2v-15.08Z"/>
  <path class="cls-2" d="M45.12,30.89h6.61v1.78h-2.28v13.3h-1.99v-13.3h-2.34v-1.78Z"/>
  <path class="cls-2" d="M52.85,30.89h5.4v1.72h-3.37v4.78h2.99v1.72h-2.99v5.15h3.37v1.72h-5.4v-15.08Z"/>
  <path class="cls-2" d="M58.96,47.32h11.31v1.79h-11.31v-1.79Z"/>
  <path class="cls-2" d="M73.21,35.79h-1.99l-.02-.6c0-1.65,.25-2.81,.74-3.48,.5-.68,1.34-1.02,2.52-1.02,2.22,0,3.33,1.23,3.33,3.69,0,1.66-.83,4.05-2.49,7.18l-1.2,2.26-.06,.12c-.03,.07-.08,.16-.14,.28h3.73v1.74h-6.62c.11-.25,.34-.74,.69-1.47s.83-1.73,1.44-2.98c.51-1.09,.94-2.02,1.29-2.78s.61-1.39,.78-1.88c.35-.98,.53-1.82,.53-2.53,0-1.25-.43-1.88-1.3-1.88s-1.25,.77-1.25,2.32v.86s.02,.16,.02,.16Z"/>
  <path class="cls-2" d="M80.64,35.71c.32,0,.6,.12,.83,.36,.23,.23,.35,.51,.35,.84s-.12,.62-.35,.86-.52,.35-.85,.35-.62-.12-.86-.35c-.23-.24-.35-.53-.35-.86s.12-.62,.35-.85c.24-.23,.53-.35,.88-.35Zm0,7.99c.32,0,.6,.12,.83,.36,.23,.23,.35,.52,.35,.85s-.12,.62-.35,.85c-.25,.23-.53,.34-.85,.34-.17,0-.33-.03-.47-.09s-.27-.15-.39-.25-.2-.23-.26-.38-.09-.3-.09-.47c0-.33,.12-.62,.35-.85,.24-.23,.53-.35,.88-.35Z"/>
  <path class="cls-3" d="M4.22,93.96v-9.27H1.13v-1.64h3.09v-.73c0-.98,.38-1.74,1.15-2.28,.77-.54,1.72-.81,2.86-.81,.56,0,1.06,.05,1.5,.15,.44,.1,.84,.21,1.19,.33l-.36,1.53c-.27-.08-.59-.17-.97-.25s-.83-.12-1.35-.12c-.67,0-1.2,.11-1.6,.34-.4,.22-.6,.59-.6,1.1v.75h4.55v1.64H6.04v9.27h-1.82Z"/>
  <path class="cls-3" d="M17.75,94.14c-1.05,0-1.91-.34-2.55-1.03-.65-.68-.97-1.58-.97-2.7v-7.36h1.82v7c0,.8,.18,1.39,.53,1.78s.89,.58,1.62,.58c.57,0,1.12-.15,1.66-.46,.54-.31,1.09-.79,1.65-1.45v-7.46h1.82v10.91h-1.82v-1.82h-.55c-.25,.59-.68,1.08-1.26,1.45-.59,.37-1.23,.55-1.94,.55Z"/>
  <path class="cls-3" d="M26.95,93.96v-10.91h1.82v1.82h.55c.27-.62,.69-1.11,1.25-1.46,.57-.36,1.22-.54,1.95-.54,1.09,0,1.95,.33,2.58,1,.63,.67,.95,1.58,.95,2.73v7.36h-1.82v-7c0-.76-.19-1.35-.55-1.75-.37-.41-.9-.61-1.59-.61-.55,0-1.1,.16-1.66,.49s-1.11,.8-1.65,1.42v7.45h-1.82Z"/>
  <path class="cls-3" d="M44.48,94.14c-1.59,0-2.79-.35-3.59-1.04-.81-.7-1.21-1.72-1.21-3.08v-2.95c0-1.38,.4-2.43,1.21-3.14,.81-.71,2-1.06,3.57-1.06,1.41,0,2.49,.32,3.25,.95,.76,.64,1.18,1.57,1.26,2.79l-1.78,.11c-.05-.75-.3-1.31-.75-1.67-.45-.36-1.12-.54-2-.54-.99,0-1.73,.21-2.22,.63-.48,.42-.73,1.06-.73,1.94v2.95c0,.84,.25,1.46,.74,1.87,.49,.41,1.24,.62,2.25,.62,.87,0,1.53-.16,1.98-.46,.45-.31,.69-.77,.73-1.39l1.78,.11c-.08,1.12-.5,1.96-1.25,2.53-.75,.57-1.83,.85-3.24,.85Z"/>
  <path class="cls-3" d="M58.75,94.13c-1.2,0-2.13-.3-2.8-.89-.67-.59-1-1.5-1-2.73v-5.82h-3.09v-1.64h3.09v-3.64h1.82v3.64h4.73v1.64h-4.73v5.65c0,.7,.18,1.22,.53,1.56,.35,.34,.87,.51,1.56,.51,.46,0,.89-.03,1.29-.1,.4-.07,.78-.15,1.15-.26l.36,1.65c-.41,.12-.85,.22-1.32,.3-.47,.08-1,.12-1.59,.12Z"/>
  <path class="cls-3" d="M65.13,93.96v-1.64h3.64v-7.64h-3.64v-1.64h5.45v9.27h3.64v1.64h-9.09Zm4.55-12.91c-.46,0-.83-.07-1.12-.22-.29-.15-.43-.42-.43-.82v-.13c0-.41,.14-.69,.43-.85,.28-.15,.66-.23,1.12-.23s.83,.08,1.12,.23c.28,.15,.43,.43,.43,.85v.13c0,.4-.15,.67-.44,.82s-.66,.22-1.11,.22Z"/>
  <path class="cls-3" d="M82.4,94.14c-1.47,0-2.59-.35-3.37-1.06-.78-.71-1.17-1.73-1.17-3.06v-2.95c0-1.35,.39-2.38,1.18-3.11,.79-.73,1.92-1.09,3.38-1.09s2.57,.36,3.35,1.09,1.17,1.76,1.17,3.11v2.95c0,1.33-.39,2.35-1.17,3.06s-1.91,1.06-3.37,1.06Zm0-1.64c.92,0,1.61-.21,2.05-.62,.45-.41,.67-1.04,.67-1.87v-2.95c0-.87-.22-1.52-.67-1.94-.45-.42-1.13-.63-2.05-.63s-1.61,.21-2.05,.63c-.45,.42-.67,1.06-.67,1.94v2.95c0,.84,.22,1.46,.67,1.87,.45,.41,1.13,.62,2.05,.62Z"/>
  <path class="cls-3" d="M90.59,93.96v-10.91h1.82v1.82h.55c.27-.62,.69-1.11,1.25-1.46,.57-.36,1.22-.54,1.95-.54,1.09,0,1.95,.33,2.58,1,.63,.67,.95,1.58,.95,2.73v7.36h-1.82v-7c0-.76-.19-1.35-.55-1.75-.37-.41-.9-.61-1.59-.61-.55,0-1.1,.16-1.66,.49s-1.11,.8-1.65,1.42v7.45h-1.82Z"/>
  <path class="cls-1" d="M120.73,94.14c-.92,0-1.81-.14-2.67-.41-.86-.27-1.65-.69-2.38-1.26l.82-1.44c.59,.49,1.26,.85,1.99,1.1s1.48,.37,2.25,.37c.63,0,1.23-.1,1.81-.29,.58-.19,.86-.6,.86-1.23,0-.52-.24-.89-.71-1.1-.47-.22-1.34-.4-2.6-.56-1.33-.16-2.34-.47-3.03-.94-.68-.47-1.03-1.21-1.03-2.22,0-1.09,.41-1.92,1.24-2.47,.82-.55,1.78-.83,2.87-.83,.86,0,1.69,.15,2.48,.44,.79,.29,1.53,.7,2.21,1.24l-.82,1.44c-.56-.45-1.16-.81-1.82-1.07-.65-.27-1.34-.4-2.05-.4-.58,0-1.11,.11-1.59,.33-.48,.22-.72,.62-.72,1.2,0,.5,.22,.86,.66,1.08,.44,.22,1.29,.42,2.55,.57,1.38,.16,2.42,.49,3.11,1.01,.69,.52,1.04,1.23,1.04,2.15,0,1.14-.46,1.97-1.38,2.5-.92,.53-1.95,.79-3.09,.79Z"/>
  <path class="cls-1" d="M136.04,97.6v-5.46h-.55c-.33,.65-.76,1.15-1.31,1.49s-1.17,.51-1.87,.51c-1.15,0-2.03-.36-2.64-1.07-.61-.72-.91-1.74-.91-3.07v-2.96c0-1.34,.45-2.38,1.35-3.09,.9-.71,2.01-1.07,3.35-1.07,.8,0,1.58,.1,2.33,.29,.75,.19,1.44,.47,2.07,.84v13.6h-1.82Zm-3.27-5.18c.59,0,1.16-.15,1.69-.46,.53-.31,1.06-.79,1.58-1.45v-5.35c-.41-.23-.83-.4-1.25-.52-.42-.12-.86-.17-1.32-.17-.8,0-1.48,.21-2.05,.64-.56,.42-.85,1.08-.85,1.96v2.75c0,.88,.18,1.54,.54,1.96,.36,.42,.91,.64,1.65,.64Z"/>
  <path class="cls-1" d="M145.02,94.14c-1.05,0-1.91-.34-2.55-1.03-.65-.68-.97-1.58-.97-2.7v-7.36h1.82v7c0,.8,.18,1.39,.53,1.78s.89,.58,1.62,.58c.57,0,1.12-.15,1.66-.46,.54-.31,1.09-.79,1.65-1.45v-7.46h1.82v10.91h-1.82v-1.82h-.55c-.25,.59-.68,1.08-1.26,1.45-.59,.37-1.23,.55-1.94,.55Z"/>
  <path class="cls-1" d="M157.22,94.14c-.92,0-1.74-.25-2.46-.74s-1.08-1.28-1.08-2.37c0-.96,.31-1.71,.94-2.25,.62-.55,1.35-.82,2.19-.82h3.78v-1.56c0-.58-.19-1.04-.58-1.38-.39-.34-.98-.51-1.76-.51s-1.4,.12-1.79,.35c-.39,.24-.71,.76-.94,1.57l-1.6-.44c.21-1.03,.67-1.81,1.39-2.34s1.69-.79,2.9-.79,2.2,.27,3,.81c.8,.54,1.2,1.38,1.2,2.5v4.88c0,.66,.18,1.07,.55,1.23s.91,.19,1.64,.06v1.65c-.75,.11-1.46,.06-2.12-.15s-1.02-.79-1.08-1.72h-.36c-.34,.56-.85,1.03-1.53,1.42-.68,.39-1.44,.58-2.27,.58Zm.24-1.54c.63,0,1.21-.11,1.75-.34s.99-.62,1.38-1.18v-1.76h-3.27c-.52,0-.95,.12-1.3,.36-.35,.24-.52,.66-.52,1.25,0,.52,.15,.93,.45,1.22,.3,.29,.8,.44,1.52,.44Z"/>
  <path class="cls-1" d="M167.86,93.96v-10.91h1.82v1.82h.55c.25-.69,.64-1.2,1.16-1.52,.52-.32,1.15-.48,1.89-.48,.81,0,1.49,.27,2.04,.81,.55,.54,.82,1.3,.82,2.28v1.64h-1.73v-.98c0-.69-.15-1.2-.46-1.53s-.78-.49-1.41-.49c-.57,0-1.09,.14-1.55,.42-.47,.28-.9,.71-1.3,1.31v7.64h-1.82Z"/>
  <path class="cls-1" d="M188.8,91.56c-.33,.91-.82,1.57-1.49,1.97-.67,.41-1.69,.61-3.07,.61s-2.56-.35-3.36-1.04c-.8-.7-1.2-1.73-1.2-3.1v-2.93c0-1.41,.42-2.46,1.26-3.16,.84-.7,1.94-1.04,3.3-1.04s2.47,.35,3.29,1.06c.82,.71,1.24,1.8,1.24,3.26v1.67h-7.27v1.15c0,.91,.23,1.57,.68,1.97s1.14,.61,2.05,.61,1.51-.12,1.91-.36c.4-.24,.7-.64,.91-1.18l1.76,.51Zm-7.31-4.49v.44h5.45v-.27c0-.98-.23-1.7-.68-2.15-.45-.45-1.14-.67-2.05-.67s-1.59,.22-2.05,.65c-.45,.43-.68,1.1-.68,2.01Z"/>
  <path class="cls-1" d="M192.4,93.96v-14.55h4.02c1.7,0,3.03,.48,3.99,1.45,.96,.96,1.45,2.25,1.45,3.84v4.04c0,1.59-.49,2.85-1.45,3.8-.97,.95-2.3,1.42-4,1.42h-4Zm1.82-1.64h2.18c1.22,0,2.14-.33,2.74-.99,.6-.66,.9-1.52,.9-2.59v-4.04c0-1.05-.3-1.93-.9-2.62-.6-.69-1.51-1.04-2.74-1.04h-2.18v11.27Z"/>
  <path class="cls-1" d="M205.13,93.96v-1.64h3.64v-7.64h-3.64v-1.64h5.45v9.27h3.64v1.64h-9.09Zm4.55-12.91c-.46,0-.83-.07-1.12-.22-.29-.15-.43-.42-.43-.82v-.13c0-.41,.14-.69,.43-.85,.28-.15,.66-.23,1.12-.23s.83,.08,1.12,.23c.28,.15,.43,.43,.43,.85v.13c0,.4-.15,.67-.44,.82s-.66,.22-1.11,.22Z"/>
  <path class="cls-1" d="M227.86,94.84c0,.98-.36,1.72-1.08,2.21-.72,.49-1.6,.74-2.65,.74h-3.42c-1.09,0-1.99-.22-2.7-.65-.71-.44-1.06-1.11-1.06-2.02,0-.58,.15-1.05,.46-1.39,.31-.35,.76-.54,1.35-.59v-.38c-.42-.07-.77-.25-1.05-.53-.27-.28-.41-.71-.41-1.29,0-.52,.16-.99,.49-1.4,.33-.42,.88-.65,1.65-.71v-.34c-.59-.19-.99-.49-1.2-.88-.21-.4-.31-.78-.31-1.14v-.49c0-.84,.36-1.53,1.07-2.08,.71-.55,1.72-.82,3.02-.82h5.36v1.64l-2.82-.42v.33c.48,.13,.85,.39,1.1,.76,.25,.38,.37,.75,.37,1.13v.47c0,.84-.32,1.51-.96,2.03-.64,.52-1.69,.77-3.13,.77h-2.2c-.33,0-.58,.08-.75,.25-.17,.16-.25,.44-.25,.83s.12,.66,.35,.84c.24,.19,.59,.28,1.06,.28h4.13c1.02,0,1.86,.22,2.54,.67s1.01,1.18,1.01,2.2Zm-7.18,1.47h3.69c.55,0,.99-.1,1.33-.31,.34-.21,.51-.56,.51-1.07s-.15-.83-.46-1.03-.71-.31-1.19-.31h-5.78v1.23c0,.49,.16,.86,.49,1.11,.33,.25,.8,.37,1.42,.37Zm1.36-7.91c.74,0,1.3-.13,1.69-.4,.39-.27,.58-.69,.58-1.26v-.58c0-.57-.19-.99-.58-1.25-.39-.26-.95-.39-1.69-.39s-1.3,.13-1.69,.39c-.39,.26-.58,.68-.58,1.25v.58c0,.57,.19,.99,.58,1.26,.39,.27,.95,.4,1.69,.4Z"/>
  <path class="cls-1" d="M230.58,93.96v-1.64h3.64v-7.64h-3.64v-1.64h5.45v9.27h3.64v1.64h-9.09Zm4.55-12.91c-.46,0-.83-.07-1.12-.22-.29-.15-.43-.42-.43-.82v-.13c0-.41,.14-.69,.43-.85,.28-.15,.66-.23,1.12-.23s.83,.08,1.12,.23c.28,.15,.43,.43,.43,.85v.13c0,.4-.15,.67-.44,.82s-.66,.22-1.11,.22Z"/>
  <path class="cls-1" d="M249.66,94.13c-1.2,0-2.13-.3-2.8-.89-.67-.59-1-1.5-1-2.73v-5.82h-3.09v-1.64h3.09v-3.64h1.82v3.64h4.73v1.64h-4.73v5.65c0,.7,.18,1.22,.53,1.56,.35,.34,.87,.51,1.56,.51,.46,0,.89-.03,1.29-.1,.4-.07,.78-.15,1.15-.26l.36,1.65c-.41,.12-.85,.22-1.32,.3-.47,.08-1,.12-1.59,.12Z"/>
  <path class="cls-1" d="M260.73,94.14c-.92,0-1.81-.14-2.67-.41-.86-.27-1.65-.69-2.38-1.26l.82-1.44c.59,.49,1.26,.85,1.99,1.1s1.48,.37,2.25,.37c.63,0,1.23-.1,1.81-.29,.58-.19,.86-.6,.86-1.23,0-.52-.24-.89-.71-1.1-.47-.22-1.34-.4-2.6-.56-1.33-.16-2.34-.47-3.03-.94-.68-.47-1.03-1.21-1.03-2.22,0-1.09,.41-1.92,1.24-2.47,.82-.55,1.78-.83,2.87-.83,.86,0,1.69,.15,2.48,.44,.79,.29,1.53,.7,2.21,1.24l-.82,1.44c-.56-.45-1.16-.81-1.82-1.07-.65-.27-1.34-.4-2.05-.4-.58,0-1.11,.11-1.59,.33-.48,.22-.72,.62-.72,1.2,0,.5,.22,.86,.66,1.08,.44,.22,1.29,.42,2.55,.57,1.38,.16,2.42,.49,3.11,1.01,.69,.52,1.04,1.23,1.04,2.15,0,1.14-.46,1.97-1.38,2.5-.92,.53-1.95,.79-3.09,.79Z"/>
  <path class="cls-2" d="M276.95,97.78c-1.9-.45-3.44-1.49-4.61-3.11-1.17-1.62-1.75-3.68-1.75-6.16s.58-4.54,1.75-6.16c1.17-1.62,2.71-2.66,4.61-3.11l.18,1.42c-1.62,.45-2.82,1.39-3.58,2.81-.76,1.42-1.15,3.11-1.15,5.05s.38,3.62,1.15,5.04,1.96,2.36,3.58,2.81l-.18,1.42Z"/>
  <path class="cls-1" d="M281.49,93.96v-10.91h1.82v1.82h.55c.27-.62,.69-1.11,1.25-1.46,.57-.36,1.22-.54,1.95-.54,1.09,0,1.95,.33,2.58,1,.63,.67,.95,1.58,.95,2.73v7.36h-1.82v-7c0-.76-.19-1.35-.55-1.75-.37-.41-.9-.61-1.59-.61-.55,0-1.1,.16-1.66,.49s-1.11,.8-1.65,1.42v7.45h-1.82Z"/>
  <path class="cls-1" d="M297.75,94.14c-1.05,0-1.91-.34-2.55-1.03-.65-.68-.97-1.58-.97-2.7v-7.36h1.82v7c0,.8,.18,1.39,.53,1.78s.89,.58,1.62,.58c.57,0,1.12-.15,1.66-.46,.54-.31,1.09-.79,1.65-1.45v-7.46h1.82v10.91h-1.82v-1.82h-.55c-.25,.59-.68,1.08-1.26,1.45-.59,.37-1.23,.55-1.94,.55Z"/>
  <path class="cls-1" d="M307.89,86.14v7.82h-1.67v-10.91h1.67v1.46h.36c.23-.51,.53-.91,.91-1.2,.38-.29,.77-.44,1.18-.44,.47,0,.87,.14,1.19,.43,.32,.29,.54,.69,.66,1.21h.4c.23-.51,.54-.91,.94-1.2,.39-.29,.81-.44,1.26-.44,.61,0,1.08,.25,1.44,.74s.53,1.15,.53,1.99v8.36h-1.67v-8.07c0-.55-.07-.96-.22-1.24-.15-.28-.36-.42-.64-.42-.23,0-.52,.17-.86,.51-.35,.34-.69,.81-1.05,1.4v7.82h-1.67v-8.07c0-.55-.08-.96-.23-1.24-.15-.28-.37-.42-.65-.42-.24,0-.52,.16-.85,.49-.32,.33-.67,.8-1.05,1.42Z"/>
  <path class="cls-2" d="M320.58,97.78l-.18-1.42c1.62-.45,2.82-1.39,3.58-2.83,.76-1.44,1.15-3.11,1.15-5.03s-.38-3.59-1.15-5.03c-.76-1.44-1.96-2.38-3.58-2.83l.18-1.42c1.9,.45,3.44,1.49,4.61,3.12,1.17,1.63,1.75,3.68,1.75,6.16s-.58,4.52-1.75,6.15c-1.17,1.63-2.71,2.67-4.61,3.12Z"/>
  <path class="cls-2" d="M340.58,97.78c-2.55,.05-4.39-.18-5.55-.68-1.15-.5-1.73-1.28-1.73-2.34,0-.61,.12-1.12,.37-1.53,.25-.41,.52-.77,.81-1.07,.3-.3,.58-.59,.82-.85,.24-.27,.36-.55,.36-.85,0-.57-.3-.97-.91-1.21s-1.7-.37-3.27-.41v-1.09c1.58-.04,2.67-.17,3.27-.4s.91-.62,.91-1.18c0-.3-.12-.56-.36-.77-.24-.21-.52-.45-.82-.72-.29-.27-.56-.59-.81-.96-.25-.38-.37-.87-.37-1.49,0-1.03,.58-1.8,1.73-2.3,1.15-.5,3-.73,5.55-.68v1.64c-2.05-.04-3.47,.07-4.26,.33s-1.19,.67-1.19,1.24c0,.24,.09,.49,.26,.75,.18,.25,.49,.59,.94,1,.44,.4,.74,.74,.91,1.03,.17,.29,.25,.6,.25,.94,0,.68-.3,1.19-.9,1.54-.6,.35-1.46,.54-2.59,.59v.09c1.13,.12,1.99,.38,2.59,.76,.6,.39,.9,.93,.9,1.64,0,.3-.09,.59-.27,.87-.18,.28-.5,.63-.96,1.05-.42,.36-.72,.68-.88,.94s-.25,.56-.25,.9c0,.61,.4,1.04,1.19,1.31s2.22,.38,4.26,.34v1.6Z"/>
  <path class="cls-3" d="M27.86,117.96v-10.91h1.82v1.82h.55c.25-.69,.64-1.2,1.16-1.52,.52-.32,1.15-.48,1.89-.48,.81,0,1.49,.27,2.04,.81,.55,.54,.82,1.3,.82,2.28v1.64h-1.73v-.98c0-.69-.15-1.2-.46-1.53s-.78-.49-1.41-.49c-.57,0-1.09,.14-1.55,.42-.47,.28-.9,.71-1.3,1.31v7.64h-1.82Z"/>
  <path class="cls-3" d="M48.8,115.56c-.33,.91-.82,1.57-1.49,1.97-.67,.41-1.69,.61-3.07,.61s-2.56-.35-3.36-1.04c-.8-.7-1.2-1.73-1.2-3.1v-2.93c0-1.41,.42-2.46,1.26-3.16,.84-.7,1.94-1.04,3.3-1.04s2.47,.35,3.29,1.06c.82,.71,1.24,1.8,1.24,3.26v1.67h-7.27v1.15c0,.91,.23,1.57,.68,1.97s1.14,.61,2.05,.61,1.51-.12,1.91-.36c.4-.24,.7-.64,.91-1.18l1.76,.51Zm-7.31-4.49v.44h5.45v-.27c0-.98-.23-1.7-.68-2.15-.45-.45-1.14-.67-2.05-.67s-1.59,.22-2.05,.65c-.45,.43-.68,1.1-.68,2.01Z"/>
  <path class="cls-3" d="M58.75,118.13c-1.2,0-2.13-.3-2.8-.89-.67-.59-1-1.5-1-2.73v-5.82h-3.09v-1.64h3.09v-3.64h1.82v3.64h4.73v1.64h-4.73v5.65c0,.7,.18,1.22,.53,1.56,.35,.34,.87,.51,1.56,.51,.46,0,.89-.03,1.29-.1,.4-.07,.78-.15,1.15-.26l.36,1.65c-.41,.12-.85,.22-1.32,.3-.47,.08-1,.12-1.59,.12Z"/>
  <path class="cls-3" d="M68.66,118.14c-1.05,0-1.91-.34-2.55-1.03-.65-.68-.97-1.58-.97-2.7v-7.36h1.82v7c0,.8,.18,1.39,.53,1.78s.89,.58,1.62,.58c.57,0,1.12-.15,1.66-.46,.54-.31,1.09-.79,1.65-1.45v-7.46h1.82v10.91h-1.82v-1.82h-.55c-.25,.59-.68,1.08-1.26,1.45-.59,.37-1.23,.55-1.94,.55Z"/>
  <path class="cls-3" d="M78.77,117.96v-10.91h1.82v1.82h.55c.25-.69,.64-1.2,1.16-1.52,.52-.32,1.15-.48,1.89-.48,.81,0,1.49,.27,2.04,.81,.55,.54,.82,1.3,.82,2.28v1.64h-1.73v-.98c0-.69-.15-1.2-.46-1.53s-.78-.49-1.41-.49c-.57,0-1.09,.14-1.55,.42-.47,.28-.9,.71-1.3,1.31v7.64h-1.82Z"/>
  <path class="cls-3" d="M90.59,117.96v-10.91h1.82v1.82h.55c.27-.62,.69-1.11,1.25-1.46,.57-.36,1.22-.54,1.95-.54,1.09,0,1.95,.33,2.58,1,.63,.67,.95,1.58,.95,2.73v7.36h-1.82v-7c0-.76-.19-1.35-.55-1.75-.37-.41-.9-.61-1.59-.61-.55,0-1.1,.16-1.66,.49s-1.11,.8-1.65,1.42v7.45h-1.82Z"/>
  <path class="cls-2" d="M122.53,117.96l-4.85-12.25v12.25h-1.64v-14.55h2.49l4.96,12.53v-12.53h1.64v14.55h-2.6Z"/>
  <path class="cls-2" d="M132.29,118.14c-1.05,0-1.91-.34-2.55-1.03-.65-.68-.97-1.58-.97-2.7v-7.36h1.82v7c0,.8,.18,1.39,.53,1.78s.89,.58,1.62,.58c.57,0,1.12-.15,1.66-.46,.54-.31,1.09-.79,1.65-1.45v-7.46h1.82v10.91h-1.82v-1.82h-.55c-.25,.59-.68,1.08-1.26,1.45-.59,.37-1.23,.55-1.94,.55Z"/>
  <path class="cls-2" d="M142.44,110.14v7.82h-1.67v-10.91h1.67v1.46h.36c.23-.51,.53-.91,.91-1.2,.38-.29,.77-.44,1.18-.44,.47,0,.87,.14,1.19,.43,.32,.29,.54,.69,.66,1.21h.4c.23-.51,.54-.91,.94-1.2,.39-.29,.81-.44,1.26-.44,.61,0,1.08,.25,1.44,.74s.53,1.15,.53,1.99v8.36h-1.67v-8.07c0-.55-.07-.96-.22-1.24-.15-.28-.36-.42-.64-.42-.23,0-.52,.17-.86,.51-.35,.34-.69,.81-1.05,1.4v7.82h-1.67v-8.07c0-.55-.08-.96-.23-1.24-.15-.28-.37-.42-.65-.42-.24,0-.52,.16-.85,.49-.32,.33-.67,.8-1.05,1.42Z"/>
  <path class="cls-2" d="M158.62,118.14c-.73,0-1.48-.11-2.25-.33-.78-.22-1.49-.53-2.15-.95v-13.46h1.82v5.46h.55c.32-.63,.75-1.12,1.31-1.47s1.18-.53,1.87-.53c1.13,0,2,.36,2.62,1.09s.93,1.75,.93,3.05v2.96c0,1.32-.41,2.34-1.24,3.07-.82,.73-1.98,1.09-3.45,1.09Zm-.02-1.6c.98,0,1.71-.21,2.18-.65s.71-1.08,.71-1.96v-2.91c0-.82-.18-1.44-.55-1.84s-.91-.6-1.64-.6c-.59,0-1.16,.16-1.69,.47-.53,.32-1.06,.79-1.58,1.44v5.34c.39,.23,.79,.4,1.21,.52,.42,.12,.87,.17,1.35,.17Z"/>
  <path class="cls-2" d="M176.07,115.56c-.33,.91-.82,1.57-1.49,1.97-.67,.41-1.69,.61-3.07,.61s-2.56-.35-3.36-1.04c-.8-.7-1.2-1.73-1.2-3.1v-2.93c0-1.41,.42-2.46,1.26-3.16,.84-.7,1.94-1.04,3.3-1.04s2.47,.35,3.29,1.06c.82,.71,1.24,1.8,1.24,3.26v1.67h-7.27v1.15c0,.91,.23,1.57,.68,1.97s1.14,.61,2.05,.61,1.51-.12,1.91-.36c.4-.24,.7-.64,.91-1.18l1.76,.51Zm-7.31-4.49v.44h5.45v-.27c0-.98-.23-1.7-.68-2.15-.45-.45-1.14-.67-2.05-.67s-1.59,.22-2.05,.65c-.45,.43-.68,1.1-.68,2.01Z"/>
  <path class="cls-2" d="M180.58,117.96v-10.91h1.82v1.82h.55c.25-.69,.64-1.2,1.16-1.52,.52-.32,1.15-.48,1.89-.48,.81,0,1.49,.27,2.04,.81,.55,.54,.82,1.3,.82,2.28v1.64h-1.73v-.98c0-.69-.15-1.2-.46-1.53s-.78-.49-1.41-.49c-.57,0-1.09,.14-1.55,.42-.47,.28-.9,.71-1.3,1.31v7.64h-1.82Z"/>
  <path class="cls-2" d="M200.58,121.78c-1.9-.45-3.44-1.49-4.61-3.11-1.17-1.62-1.75-3.68-1.75-6.16s.58-4.54,1.75-6.16c1.17-1.62,2.71-2.66,4.61-3.11l.18,1.42c-1.62,.45-2.82,1.39-3.58,2.81-.76,1.42-1.15,3.11-1.15,5.05s.38,3.62,1.15,5.04,1.96,2.36,3.58,2.81l-.18,1.42Z"/>
  <path class="cls-1" d="M205.13,117.96v-10.91h1.82v1.82h.55c.27-.62,.69-1.11,1.25-1.46,.57-.36,1.22-.54,1.95-.54,1.09,0,1.95,.33,2.58,1,.63,.67,.95,1.58,.95,2.73v7.36h-1.82v-7c0-.76-.19-1.35-.55-1.75-.37-.41-.9-.61-1.59-.61-.55,0-1.1,.16-1.66,.49s-1.11,.8-1.65,1.42v7.45h-1.82Z"/>
  <path class="cls-1" d="M221.38,118.14c-1.05,0-1.91-.34-2.55-1.03-.65-.68-.97-1.58-.97-2.7v-7.36h1.82v7c0,.8,.18,1.39,.53,1.78s.89,.58,1.62,.58c.57,0,1.12-.15,1.66-.46,.54-.31,1.09-.79,1.65-1.45v-7.46h1.82v10.91h-1.82v-1.82h-.55c-.25,.59-.68,1.08-1.26,1.45-.59,.37-1.23,.55-1.94,.55Z"/>
  <path class="cls-1" d="M231.53,110.14v7.82h-1.67v-10.91h1.67v1.46h.36c.23-.51,.53-.91,.91-1.2,.38-.29,.77-.44,1.18-.44,.47,0,.87,.14,1.19,.43,.32,.29,.54,.69,.66,1.21h.4c.23-.51,.54-.91,.94-1.2,.39-.29,.81-.44,1.26-.44,.61,0,1.08,.25,1.44,.74s.53,1.15,.53,1.99v8.36h-1.67v-8.07c0-.55-.07-.96-.22-1.24-.15-.28-.36-.42-.64-.42-.23,0-.52,.17-.86,.51-.35,.34-.69,.81-1.05,1.4v7.82h-1.67v-8.07c0-.55-.08-.96-.23-1.24-.15-.28-.37-.42-.65-.42-.24,0-.52,.16-.85,.49-.32,.33-.67,.8-1.05,1.42Z"/>
  <path class="cls-3" d="M247.87,118.14c-.61,0-1.1-.14-1.47-.41-.38-.27-.56-.71-.56-1.3v-.51c0-.59,.19-1.03,.56-1.32,.38-.29,.87-.43,1.47-.43s1.09,.14,1.46,.43,.55,.72,.55,1.32v.51c0,.59-.19,1.03-.56,1.3-.38,.27-.86,.41-1.45,.41Z"/>
  <path class="cls-3" d="M262.38,118.13c-1.2,0-2.13-.3-2.8-.89-.67-.59-1-1.5-1-2.73v-5.82h-3.09v-1.64h3.09v-3.64h1.82v3.64h4.73v1.64h-4.73v5.65c0,.7,.18,1.22,.53,1.56,.35,.34,.87,.51,1.56,.51,.46,0,.89-.03,1.29-.1,.4-.07,.78-.15,1.15-.26l.36,1.65c-.41,.12-.85,.22-1.32,.3-.47,.08-1,.12-1.59,.12Z"/>
  <path class="cls-3" d="M273.31,118.14c-1.47,0-2.59-.35-3.37-1.06-.78-.71-1.17-1.73-1.17-3.06v-2.95c0-1.35,.39-2.38,1.18-3.11,.79-.73,1.92-1.09,3.38-1.09s2.57,.36,3.35,1.09,1.17,1.76,1.17,3.11v2.95c0,1.33-.39,2.35-1.17,3.06s-1.91,1.06-3.37,1.06Zm0-1.64c.92,0,1.61-.21,2.05-.62,.45-.41,.67-1.04,.67-1.87v-2.95c0-.87-.22-1.52-.67-1.94-.45-.42-1.13-.63-2.05-.63s-1.61,.21-2.05,.63c-.45,.42-.67,1.06-.67,1.94v2.95c0,.84,.22,1.46,.67,1.87,.45,.41,1.13,.62,2.05,.62Z"/>
  <path class="cls-3" d="M286.27,118.07c-1.09,0-2.11-.18-3.05-.53s-1.79-.99-2.55-1.93l1.31-1.24c.51,.69,1.12,1.21,1.83,1.55,.71,.34,1.55,.51,2.52,.51,.9,0,1.62-.21,2.17-.63s.83-.99,.83-1.7-.24-1.22-.71-1.59-1.41-.76-2.8-1.17c-1.77-.51-2.98-1.06-3.62-1.65-.64-.59-.96-1.44-.96-2.53,0-1.26,.42-2.21,1.26-2.85s1.86-.96,3.06-.96c1.02,0,1.98,.18,2.9,.54,.92,.36,1.72,.99,2.43,1.9l-1.25,1.25c-.49-.69-1.09-1.21-1.82-1.54-.73-.34-1.47-.51-2.22-.51s-1.38,.15-1.84,.46c-.46,.31-.69,.83-.69,1.55,0,.64,.25,1.15,.75,1.52,.5,.37,1.49,.77,2.97,1.19,1.67,.49,2.81,1.02,3.43,1.59,.61,.58,.92,1.41,.92,2.5,0,1.39-.5,2.46-1.49,3.18-.99,.73-2.12,1.09-3.38,1.09Z"/>
  <path class="cls-3" d="M300.56,118.13c-1.2,0-2.13-.3-2.8-.89-.67-.59-1-1.5-1-2.73v-5.82h-3.09v-1.64h3.09v-3.64h1.82v3.64h4.73v1.64h-4.73v5.65c0,.7,.18,1.22,.53,1.56,.35,.34,.87,.51,1.56,.51,.46,0,.89-.03,1.29-.1,.4-.07,.78-.15,1.15-.26l.36,1.65c-.41,.12-.85,.22-1.32,.3-.47,.08-1,.12-1.59,.12Z"/>
  <path class="cls-3" d="M307.85,117.96v-10.91h1.82v1.82h.55c.25-.69,.64-1.2,1.16-1.52,.52-.32,1.15-.48,1.89-.48,.81,0,1.49,.27,2.04,.81,.55,.54,.82,1.3,.82,2.28v1.64h-1.73v-.98c0-.69-.15-1.2-.46-1.53s-.78-.49-1.41-.49c-.57,0-1.09,.14-1.55,.42-.47,.28-.9,.71-1.3,1.31v7.64h-1.82Z"/>
  <path class="cls-3" d="M319.67,117.96v-1.64h3.64v-7.64h-3.64v-1.64h5.45v9.27h3.64v1.64h-9.09Zm4.55-12.91c-.46,0-.83-.07-1.12-.22-.29-.15-.43-.42-.43-.82v-.13c0-.41,.14-.69,.43-.85,.28-.15,.66-.23,1.12-.23s.83,.08,1.12,.23c.28,.15,.43,.43,.43,.85v.13c0,.4-.15,.67-.44,.82s-.66,.22-1.11,.22Z"/>
  <path class="cls-3" d="M332.4,117.96v-10.91h1.82v1.82h.55c.27-.62,.69-1.11,1.25-1.46,.57-.36,1.22-.54,1.95-.54,1.09,0,1.95,.33,2.58,1,.63,.67,.95,1.58,.95,2.73v7.36h-1.82v-7c0-.76-.19-1.35-.55-1.75-.37-.41-.9-.61-1.59-.61-.55,0-1.1,.16-1.66,.49s-1.11,.8-1.65,1.42v7.45h-1.82Z"/>
  <path class="cls-3" d="M355.13,118.84c0,.98-.36,1.72-1.08,2.21-.72,.49-1.6,.74-2.65,.74h-3.42c-1.09,0-1.99-.22-2.7-.65-.71-.44-1.06-1.11-1.06-2.02,0-.58,.15-1.05,.46-1.39,.31-.35,.76-.54,1.35-.59v-.38c-.42-.07-.77-.25-1.05-.53-.27-.28-.41-.71-.41-1.29,0-.52,.16-.99,.49-1.4,.33-.42,.88-.65,1.65-.71v-.34c-.59-.19-.99-.49-1.2-.88-.21-.4-.31-.78-.31-1.14v-.49c0-.84,.36-1.53,1.07-2.08,.71-.55,1.72-.82,3.02-.82h5.36v1.64l-2.82-.42v.33c.48,.13,.85,.39,1.1,.76,.25,.38,.37,.75,.37,1.13v.47c0,.84-.32,1.51-.96,2.03-.64,.52-1.69,.77-3.13,.77h-2.2c-.33,0-.58,.08-.75,.25-.17,.16-.25,.44-.25,.83s.12,.66,.35,.84c.24,.19,.59,.28,1.06,.28h4.13c1.02,0,1.86,.22,2.54,.67s1.01,1.18,1.01,2.2Zm-7.18,1.47h3.69c.55,0,.99-.1,1.33-.31,.34-.21,.51-.56,.51-1.07s-.15-.83-.46-1.03-.71-.31-1.19-.31h-5.78v1.23c0,.49,.16,.86,.49,1.11,.33,.25,.8,.37,1.42,.37Zm1.36-7.91c.74,0,1.3-.13,1.69-.4,.39-.27,.58-.69,.58-1.26v-.58c0-.57-.19-.99-.58-1.25-.39-.26-.95-.39-1.69-.39s-1.3,.13-1.69,.39c-.39,.26-.58,.68-.58,1.25v.58c0,.57,.19,.99,.58,1.26,.39,.27,.95,.4,1.69,.4Z"/>
  <path class="cls-2" d="M366.04,121.78c-1.9-.45-3.44-1.49-4.61-3.11-1.17-1.62-1.75-3.68-1.75-6.16s.58-4.54,1.75-6.16c1.17-1.62,2.71-2.66,4.61-3.11l.18,1.42c-1.62,.45-2.82,1.39-3.58,2.81-.76,1.42-1.15,3.11-1.15,5.05s.38,3.62,1.15,5.04,1.96,2.36,3.58,2.81l-.18,1.42Z"/>
  <path class="cls-2" d="M371.49,121.78l-.18-1.42c1.62-.45,2.82-1.39,3.58-2.83,.76-1.44,1.15-3.11,1.15-5.03s-.38-3.59-1.15-5.03c-.76-1.44-1.96-2.38-3.58-2.83l.18-1.42c1.9,.45,3.44,1.49,4.61,3.12,1.17,1.63,1.75,3.68,1.75,6.16s-.58,4.52-1.75,6.15c-1.17,1.63-2.71,2.67-4.61,3.12Z"/>
  <path class="cls-2" d="M387.87,118.14c-.61,0-1.1-.14-1.47-.41-.38-.27-.56-.71-.56-1.3v-.51c0-.59,.19-1.03,.56-1.32,.38-.29,.87-.43,1.47-.43s1.09,.14,1.46,.43,.55,.72,.55,1.32v.51c0,.59-.19,1.03-.56,1.3-.38,.27-.86,.41-1.45,.41Z"/>
  <path class="cls-3" d="M400.73,118.14c-.92,0-1.81-.14-2.67-.41-.86-.27-1.65-.69-2.38-1.26l.82-1.44c.59,.49,1.26,.85,1.99,1.1s1.48,.37,2.25,.37c.63,0,1.23-.1,1.81-.29,.58-.19,.86-.6,.86-1.23,0-.52-.24-.89-.71-1.1-.47-.22-1.34-.4-2.6-.56-1.33-.16-2.34-.47-3.03-.94-.68-.47-1.03-1.21-1.03-2.22,0-1.09,.41-1.92,1.24-2.47,.82-.55,1.78-.83,2.87-.83,.86,0,1.69,.15,2.48,.44,.79,.29,1.53,.7,2.21,1.24l-.82,1.44c-.56-.45-1.16-.81-1.82-1.07-.65-.27-1.34-.4-2.05-.4-.58,0-1.11,.11-1.59,.33-.48,.22-.72,.62-.72,1.2,0,.5,.22,.86,.66,1.08,.44,.22,1.29,.42,2.55,.57,1.38,.16,2.42,.49,3.11,1.01,.69,.52,1.04,1.23,1.04,2.15,0,1.14-.46,1.97-1.38,2.5-.92,.53-1.95,.79-3.09,.79Z"/>
  <path class="cls-3" d="M413.16,118.14c-.41,0-.85-.04-1.3-.14-.45-.09-.88-.22-1.28-.37v3.96h-1.82v-14.55h1.82v1.82h.55c.3-.62,.74-1.11,1.32-1.46s1.2-.54,1.86-.54c1.09,0,1.95,.37,2.59,1.12s.95,1.75,.95,3.03v2.96c0,1.28-.42,2.3-1.26,3.04-.84,.75-1.98,1.12-3.43,1.12Zm-.02-1.6c1.02,0,1.75-.21,2.21-.62s.68-1.07,.68-1.98v-2.95c0-.84-.17-1.45-.52-1.83-.35-.38-.9-.57-1.66-.57-.61,0-1.17,.15-1.69,.45-.52,.3-1.05,.79-1.58,1.46v5.34c.38,.23,.77,.4,1.17,.52,.41,.12,.87,.17,1.39,.17Z"/>
  <path class="cls-3" d="M421.49,117.96v-1.64h3.64v-11.27h-3.64v-1.64h5.45v12.91h3.64v1.64h-9.09Z"/>
  <path class="cls-3" d="M434.22,117.96v-1.64h3.64v-7.64h-3.64v-1.64h5.45v9.27h3.64v1.64h-9.09Zm4.55-12.91c-.46,0-.83-.07-1.12-.22-.29-.15-.43-.42-.43-.82v-.13c0-.41,.14-.69,.43-.85,.28-.15,.66-.23,1.12-.23s.83,.08,1.12,.23c.28,.15,.43,.43,.43,.85v.13c0,.4-.15,.67-.44,.82s-.66,.22-1.11,.22Z"/>
  <path class="cls-3" d="M453.29,118.13c-1.2,0-2.13-.3-2.8-.89-.67-.59-1-1.5-1-2.73v-5.82h-3.09v-1.64h3.09v-3.64h1.82v3.64h4.73v1.64h-4.73v5.65c0,.7,.18,1.22,.53,1.56,.35,.34,.87,.51,1.56,.51,.46,0,.89-.03,1.29-.1,.4-.07,.78-.15,1.15-.26l.36,1.65c-.41,.12-.85,.22-1.32,.3-.47,.08-1,.12-1.59,.12Z"/>
  <path class="cls-2" d="M467.85,121.78c-1.9-.45-3.44-1.49-4.61-3.11-1.17-1.62-1.75-3.68-1.75-6.16s.58-4.54,1.75-6.16c1.17-1.62,2.71-2.66,4.61-3.11l.18,1.42c-1.62,.45-2.82,1.39-3.58,2.81-.76,1.42-1.15,3.11-1.15,5.05s.38,3.62,1.15,5.04,1.96,2.36,3.58,2.81l-.18,1.42Z"/>
  <path class="cls-2" d="M473.31,110.69l-.55-7.27h2.91l-.55,7.27h-1.82Zm5.45,0l-.55-7.27h2.91l-.55,7.27h-1.82Z"/>
  <path class="cls-2" d="M486.03,110.69l-.55-7.27h2.91l-.55,7.27h-1.82Zm5.45,0l-.55-7.27h2.91l-.55,7.27h-1.82Z"/>
  <path class="cls-2" d="M498.76,121.78l-.18-1.42c1.62-.45,2.82-1.39,3.58-2.83,.76-1.44,1.15-3.11,1.15-5.03s-.38-3.59-1.15-5.03c-.76-1.44-1.96-2.38-3.58-2.83l.18-1.42c1.9,.45,3.44,1.49,4.61,3.12,1.17,1.63,1.75,3.68,1.75,6.16s-.58,4.52-1.75,6.15c-1.17,1.63-2.71,2.67-4.61,3.12Z"/>
  <path class="cls-2" d="M515.14,118.14c-.61,0-1.1-.14-1.47-.41-.38-.27-.56-.71-.56-1.3v-.51c0-.59,.19-1.03,.56-1.32,.38-.29,.87-.43,1.47-.43s1.09,.14,1.46,.43,.55,.72,.55,1.32v.51c0,.59-.19,1.03-.56,1.3-.38,.27-.86,.41-1.45,.41Z"/>
  <path class="cls-3" d="M524.25,110.14v7.82h-1.67v-10.91h1.67v1.46h.36c.23-.51,.53-.91,.91-1.2,.38-.29,.77-.44,1.18-.44,.47,0,.87,.14,1.19,.43,.32,.29,.54,.69,.66,1.21h.4c.23-.51,.54-.91,.94-1.2,.39-.29,.81-.44,1.26-.44,.61,0,1.08,.25,1.44,.74s.53,1.15,.53,1.99v8.36h-1.67v-8.07c0-.55-.07-.96-.22-1.24-.15-.28-.36-.42-.64-.42-.23,0-.52,.17-.86,.51-.35,.34-.69,.81-1.05,1.4v7.82h-1.67v-8.07c0-.55-.08-.96-.23-1.24-.15-.28-.37-.42-.65-.42-.24,0-.52,.16-.85,.49-.32,.33-.67,.8-1.05,1.42Z"/>
  <path class="cls-3" d="M539.03,118.14c-.92,0-1.74-.25-2.46-.74s-1.08-1.28-1.08-2.37c0-.96,.31-1.71,.94-2.25,.62-.55,1.35-.82,2.19-.82h3.78v-1.56c0-.58-.19-1.04-.58-1.38-.39-.34-.98-.51-1.76-.51s-1.4,.12-1.79,.35c-.39,.24-.71,.76-.94,1.57l-1.6-.44c.21-1.03,.67-1.81,1.39-2.34s1.69-.79,2.9-.79,2.2,.27,3,.81c.8,.54,1.2,1.38,1.2,2.5v4.88c0,.66,.18,1.07,.55,1.23s.91,.19,1.64,.06v1.65c-.75,.11-1.46,.06-2.12-.15s-1.02-.79-1.08-1.72h-.36c-.34,.56-.85,1.03-1.53,1.42-.68,.39-1.44,.58-2.27,.58Zm.24-1.54c.63,0,1.21-.11,1.75-.34s.99-.62,1.38-1.18v-1.76h-3.27c-.52,0-.95,.12-1.3,.36-.35,.24-.52,.66-.52,1.25,0,.52,.15,.93,.45,1.22,.3,.29,.8,.44,1.52,.44Z"/>
  <path class="cls-3" d="M553.16,118.14c-.41,0-.85-.04-1.3-.14-.45-.09-.88-.22-1.28-.37v3.96h-1.82v-14.55h1.82v1.82h.55c.3-.62,.74-1.11,1.32-1.46s1.2-.54,1.86-.54c1.09,0,1.95,.37,2.59,1.12s.95,1.75,.95,3.03v2.96c0,1.28-.42,2.3-1.26,3.04-.84,.75-1.98,1.12-3.43,1.12Zm-.02-1.6c1.02,0,1.75-.21,2.21-.62s.68-1.07,.68-1.98v-2.95c0-.84-.17-1.45-.52-1.83-.35-.38-.9-.57-1.66-.57-.61,0-1.17,.15-1.69,.45-.52,.3-1.05,.79-1.58,1.46v5.34c.38,.23,.77,.4,1.17,.52,.41,.12,.87,.17,1.39,.17Z"/>
  <path class="cls-2" d="M569.67,121.78c-1.9-.45-3.44-1.49-4.61-3.11-1.17-1.62-1.75-3.68-1.75-6.16s.58-4.54,1.75-6.16c1.17-1.62,2.71-2.66,4.61-3.11l.18,1.42c-1.62,.45-2.82,1.39-3.58,2.81-.76,1.42-1.15,3.11-1.15,5.05s.38,3.62,1.15,5.04,1.96,2.36,3.58,2.81l-.18,1.42Z"/>
  <path class="cls-1" d="M577.21,118.14c-.92,0-1.74-.25-2.46-.74s-1.08-1.28-1.08-2.37c0-.96,.31-1.71,.94-2.25,.62-.55,1.35-.82,2.19-.82h3.78v-1.56c0-.58-.19-1.04-.58-1.38-.39-.34-.98-.51-1.76-.51s-1.4,.12-1.79,.35c-.39,.24-.71,.76-.94,1.57l-1.6-.44c.21-1.03,.67-1.81,1.39-2.34s1.69-.79,2.9-.79,2.2,.27,3,.81c.8,.54,1.2,1.38,1.2,2.5v4.88c0,.66,.18,1.07,.55,1.23s.91,.19,1.64,.06v1.65c-.75,.11-1.46,.06-2.12-.15s-1.02-.79-1.08-1.72h-.36c-.34,.56-.85,1.03-1.53,1.42-.68,.39-1.44,.58-2.27,.58Zm.24-1.54c.63,0,1.21-.11,1.75-.34s.99-.62,1.38-1.18v-1.76h-3.27c-.52,0-.95,.12-1.3,.36-.35,.24-.52,.66-.52,1.25,0,.52,.15,.93,.45,1.22,.3,.29,.8,.44,1.52,.44Z"/>
  <path class="cls-2" d="M599.12,109.96v-1.82h10.18v1.82h-10.18Zm0,5.09v-1.82h10.18v1.82h-10.18Z"/>
  <path class="cls-2" d="M612.39,117.6v-1.73l7.64-4.27-7.64-4.27v-1.73l9.09,5.09v1.82l-9.09,5.09Z"/>
  <path class="cls-3" d="M640.85,118.14c-.92,0-1.74-.25-2.46-.74s-1.08-1.28-1.08-2.37c0-.96,.31-1.71,.94-2.25,.62-.55,1.35-.82,2.19-.82h3.78v-1.56c0-.58-.19-1.04-.58-1.38-.39-.34-.98-.51-1.76-.51s-1.4,.12-1.79,.35c-.39,.24-.71,.76-.94,1.57l-1.6-.44c.21-1.03,.67-1.81,1.39-2.34s1.69-.79,2.9-.79,2.2,.27,3,.81c.8,.54,1.2,1.38,1.2,2.5v4.88c0,.66,.18,1.07,.55,1.23s.91,.19,1.64,.06v1.65c-.75,.11-1.46,.06-2.12-.15s-1.02-.79-1.08-1.72h-.36c-.34,.56-.85,1.03-1.53,1.42-.68,.39-1.44,.58-2.27,.58Zm.24-1.54c.63,0,1.21-.11,1.75-.34s.99-.62,1.38-1.18v-1.76h-3.27c-.52,0-.95,.12-1.3,.36-.35,.24-.52,.66-.52,1.25,0,.52,.15,.93,.45,1.22,.3,.29,.8,.44,1.52,.44Z"/>
  <path class="cls-2" d="M659.28,112.89l-3.6-2.98,.51,4.42h-2.18l.51-4.4-3.58,2.96-1.09-1.89,4.25-2.15-4.25-2.15,1.09-1.89,3.58,2.98-.51-4.38h2.18l-.51,4.4,3.6-3,1.09,1.89-4.25,2.15,4.25,2.15-1.09,1.89Z"/>
  <path class="cls-3" d="M666.3,118.14c-.92,0-1.74-.25-2.46-.74s-1.08-1.28-1.08-2.37c0-.96,.31-1.71,.94-2.25,.62-.55,1.35-.82,2.19-.82h3.78v-1.56c0-.58-.19-1.04-.58-1.38-.39-.34-.98-.51-1.76-.51s-1.4,.12-1.79,.35c-.39,.24-.71,.76-.94,1.57l-1.6-.44c.21-1.03,.67-1.81,1.39-2.34s1.69-.79,2.9-.79,2.2,.27,3,.81c.8,.54,1.2,1.38,1.2,2.5v4.88c0,.66,.18,1.07,.55,1.23s.91,.19,1.64,.06v1.65c-.75,.11-1.46,.06-2.12-.15s-1.02-.79-1.08-1.72h-.36c-.34,.56-.85,1.03-1.53,1.42-.68,.39-1.44,.58-2.27,.58Zm.24-1.54c.63,0,1.21-.11,1.75-.34s.99-.62,1.38-1.18v-1.76h-3.27c-.52,0-.95,.12-1.3,.36-.35,.24-.52,.66-.52,1.25,0,.52,.15,.93,.45,1.22,.3,.29,.8,.44,1.52,.44Z"/>
  <path class="cls-2" d="M676.94,121.78l-.18-1.42c1.62-.45,2.82-1.39,3.58-2.83,.76-1.44,1.15-3.11,1.15-5.03s-.38-3.59-1.15-5.03c-.76-1.44-1.96-2.38-3.58-2.83l.18-1.42c1.9,.45,3.44,1.49,4.61,3.12,1.17,1.63,1.75,3.68,1.75,6.16s-.58,4.52-1.75,6.15c-1.17,1.63-2.71,2.67-4.61,3.12Z"/>
  <path class="cls-2" d="M693.32,118.14c-.61,0-1.1-.14-1.47-.41-.38-.27-.56-.71-.56-1.3v-.51c0-.59,.19-1.03,.56-1.32,.38-.29,.87-.43,1.47-.43s1.09,.14,1.46,.43,.55,.72,.55,1.32v.51c0,.59-.19,1.03-.56,1.3-.38,.27-.86,.41-1.45,.41Z"/>
  <path class="cls-3" d="M704.36,121.75c-.46,0-.92-.03-1.38-.08-.46-.05-.95-.16-1.47-.32l.36-1.75c.45,.16,.87,.26,1.26,.32,.39,.05,.78,.08,1.17,.08,.79,0,1.42-.17,1.91-.5s.73-.89,.73-1.66v-9.15h-5.09v-1.64h6.91v11.02c0,1.25-.42,2.17-1.26,2.77s-1.89,.9-3.14,.9Zm3.44-16.69c-.46,0-.83-.07-1.12-.22-.29-.15-.43-.42-.43-.82v-.13c0-.41,.14-.69,.43-.85,.28-.15,.66-.23,1.12-.23s.83,.08,1.12,.23c.28,.15,.43,.43,.43,.85v.13c0,.4-.15,.67-.44,.82s-.66,.22-1.11,.22Z"/>
  <path class="cls-3" d="M718.76,118.14c-1.47,0-2.59-.35-3.37-1.06-.78-.71-1.17-1.73-1.17-3.06v-2.95c0-1.35,.39-2.38,1.18-3.11,.79-.73,1.92-1.09,3.38-1.09s2.57,.36,3.35,1.09,1.17,1.76,1.17,3.11v2.95c0,1.33-.39,2.35-1.17,3.06s-1.91,1.06-3.37,1.06Zm0-1.64c.92,0,1.61-.21,2.05-.62,.45-.41,.67-1.04,.67-1.87v-2.95c0-.87-.22-1.52-.67-1.94-.45-.42-1.13-.63-2.05-.63s-1.61,.21-2.05,.63c-.45,.42-.67,1.06-.67,1.94v2.95c0,.84,.22,1.46,.67,1.87,.45,.41,1.13,.62,2.05,.62Z"/>
  <path class="cls-3" d="M726.94,117.96v-1.64h3.64v-7.64h-3.64v-1.64h5.45v9.27h3.64v1.64h-9.09Zm4.55-12.91c-.46,0-.83-.07-1.12-.22-.29-.15-.43-.42-.43-.82v-.13c0-.41,.14-.69,.43-.85,.28-.15,.66-.23,1.12-.23s.83,.08,1.12,.23c.28,.15,.43,.43,.43,.85v.13c0,.4-.15,.67-.44,.82s-.66,.22-1.11,.22Z"/>
  <path class="cls-3" d="M739.67,117.96v-10.91h1.82v1.82h.55c.27-.62,.69-1.11,1.25-1.46,.57-.36,1.22-.54,1.95-.54,1.09,0,1.95,.33,2.58,1,.63,.67,.95,1.58,.95,2.73v7.36h-1.82v-7c0-.76-.19-1.35-.55-1.75-.37-.41-.9-.61-1.59-.61-.55,0-1.1,.16-1.66,.49s-1.11,.8-1.65,1.42v7.45h-1.82Z"/>
  <path class="cls-2" d="M760.57,121.78c-1.9-.45-3.44-1.49-4.61-3.11-1.17-1.62-1.75-3.68-1.75-6.16s.58-4.54,1.75-6.16c1.17-1.62,2.71-2.66,4.61-3.11l.18,1.42c-1.62,.45-2.82,1.39-3.58,2.81-.76,1.42-1.15,3.11-1.15,5.05s.38,3.62,1.15,5.04c.76,1.42,1.96,2.36,3.58,2.81l-.18,1.42Z"/>
  <path class="cls-2" d="M766.03,110.69l-.55-7.27h2.91l-.54,7.27h-1.82Zm5.45,0l-.54-7.27h2.91l-.55,7.27h-1.82Z"/>
  <path class="cls-2" d="M778.76,110.69l-.55-7.27h2.91l-.54,7.27h-1.82Zm5.45,0l-.54-7.27h2.91l-.55,7.27h-1.82Z"/>
  <path class="cls-2" d="M791.48,121.78l-.18-1.42c1.62-.45,2.82-1.39,3.58-2.83,.76-1.44,1.15-3.11,1.15-5.03s-.38-3.59-1.15-5.03c-.76-1.44-1.96-2.38-3.58-2.83l.18-1.42c1.9,.45,3.44,1.49,4.61,3.12,1.17,1.63,1.75,3.68,1.75,6.16s-.58,4.52-1.75,6.15-2.71,2.67-4.61,3.12Z"/>
  <path class="cls-2" d="M804.21,121.78l-.18-1.42c1.62-.45,2.82-1.39,3.58-2.83,.76-1.44,1.15-3.11,1.15-5.03s-.38-3.59-1.15-5.03c-.76-1.44-1.96-2.38-3.58-2.83l.18-1.42c1.9,.45,3.44,1.49,4.61,3.12,1.17,1.63,1.75,3.68,1.75,6.16s-.58,4.52-1.75,6.15-2.71,2.67-4.61,3.12Z"/>
  <path class="cls-2" d="M817.84,121.6l1.64-7.27h3.62l-3.73,7.27h-1.53Zm2.75-10.73c-.61,0-1.1-.12-1.47-.37-.38-.25-.56-.63-.56-1.15v-.87c0-.53,.19-.93,.56-1.18,.38-.25,.87-.38,1.47-.38s1.09,.13,1.46,.38c.37,.25,.55,.65,.55,1.18v.87c0,.52-.19,.91-.56,1.15-.38,.25-.86,.37-1.45,.37Z"/>
  <path class="cls-2" d="M9.68,142.76c0,1.05-.58,1.83-1.73,2.34-1.15,.5-3,.73-5.55,.68v-1.6c2.05,.04,3.47-.08,4.26-.34s1.19-.7,1.19-1.31c0-.34-.08-.64-.25-.9s-.46-.57-.88-.94c-.46-.42-.78-.78-.96-1.05-.18-.28-.27-.57-.27-.87,0-.7,.3-1.25,.9-1.64,.6-.39,1.46-.64,2.59-.76v-.09c-1.13-.05-1.99-.25-2.59-.59-.6-.34-.9-.86-.9-1.54,0-.34,.08-.65,.25-.94,.17-.28,.47-.63,.91-1.03,.45-.41,.76-.75,.94-1,.18-.25,.26-.5,.26-.75,0-.57-.4-.98-1.19-1.24s-2.22-.36-4.26-.33v-1.64c2.55-.05,4.39,.18,5.55,.68,1.15,.5,1.73,1.27,1.73,2.3,0,.62-.12,1.12-.37,1.49-.25,.38-.52,.7-.81,.96-.3,.27-.58,.51-.82,.72-.24,.21-.36,.47-.36,.77,0,.56,.3,.95,.91,1.18,.61,.23,1.7,.36,3.27,.4v1.09c-1.58,.04-2.67,.17-3.27,.41-.61,.24-.91,.64-.91,1.21,0,.3,.12,.59,.36,.85,.24,.27,.52,.55,.82,.85,.29,.3,.56,.66,.81,1.07,.25,.41,.37,.92,.37,1.53Z"/>
  <path class="cls-2" d="M1.5,193.6l7.27-18.18h1.82l-7.27,18.18H1.5Z"/>
  <path class="cls-2" d="M14.22,193.6l7.27-18.18h1.82l-7.27,18.18h-1.82Z"/>
  <path class="cls-2" d="M31.5,190.14c-1.6,0-2.82-.45-3.65-1.34-.84-.89-1.25-2.18-1.25-3.88v-4.4c0-1.72,.42-3.03,1.26-3.94,.84-.9,2.06-1.35,3.66-1.35s2.8,.45,3.64,1.35c.84,.9,1.25,2.22,1.25,3.94v4.4c0,1.7-.42,2.99-1.25,3.88-.84,.89-2.05,1.34-3.65,1.34Zm0-1.64c1.11,0,1.91-.27,2.38-.82,.47-.55,.71-1.47,.71-2.76v-4.4c0-1.32-.24-2.26-.71-2.82-.47-.56-1.27-.84-2.38-.84s-1.91,.28-2.38,.84c-.47,.56-.71,1.5-.71,2.82v4.4c0,1.3,.24,2.22,.71,2.76,.47,.54,1.27,.82,2.38,.82Z"/>
  <path class="cls-2" d="M43.2,190.14c-1.05,0-1.91-.34-2.55-1.03-.65-.68-.97-1.58-.97-2.7v-7.36h1.82v7c0,.8,.18,1.39,.53,1.78s.89,.58,1.62,.58c.57,0,1.12-.15,1.66-.46,.54-.31,1.09-.79,1.65-1.45v-7.46h1.82v10.91h-1.82v-1.82h-.55c-.25,.59-.68,1.08-1.26,1.45-.59,.37-1.23,.55-1.94,.55Z"/>
  <path class="cls-2" d="M58.75,190.13c-1.2,0-2.13-.3-2.8-.89-.67-.59-1-1.5-1-2.73v-5.82h-3.09v-1.64h3.09v-3.64h1.82v3.64h4.73v1.64h-4.73v5.65c0,.7,.18,1.22,.53,1.56,.35,.34,.87,.51,1.56,.51,.46,0,.89-.03,1.29-.1,.4-.07,.78-.15,1.15-.26l.36,1.65c-.41,.12-.85,.22-1.32,.3-.47,.08-1,.12-1.59,.12Z"/>
  <path class="cls-2" d="M69.53,190.14c-.41,0-.85-.04-1.3-.14-.45-.09-.88-.22-1.28-.37v3.96h-1.82v-14.55h1.82v1.82h.55c.3-.62,.74-1.11,1.32-1.46s1.2-.54,1.86-.54c1.09,0,1.95,.37,2.59,1.12s.95,1.75,.95,3.03v2.96c0,1.28-.42,2.3-1.26,3.04-.84,.75-1.98,1.12-3.43,1.12Zm-.02-1.6c1.02,0,1.75-.21,2.21-.62s.68-1.07,.68-1.98v-2.95c0-.84-.17-1.45-.52-1.83-.35-.38-.9-.57-1.66-.57-.61,0-1.17,.15-1.69,.45-.52,.3-1.05,.79-1.58,1.46v5.34c.38,.23,.77,.4,1.17,.52,.41,.12,.87,.17,1.39,.17Z"/>
  <path class="cls-2" d="M81.39,190.14c-1.05,0-1.91-.34-2.55-1.03-.65-.68-.97-1.58-.97-2.7v-7.36h1.82v7c0,.8,.18,1.39,.53,1.78s.89,.58,1.62,.58c.57,0,1.12-.15,1.66-.46,.54-.31,1.09-.79,1.65-1.45v-7.46h1.82v10.91h-1.82v-1.82h-.55c-.25,.59-.68,1.08-1.26,1.45-.59,.37-1.23,.55-1.94,.55Z"/>
  <path class="cls-2" d="M96.93,190.13c-1.2,0-2.13-.3-2.8-.89-.67-.59-1-1.5-1-2.73v-5.82h-3.09v-1.64h3.09v-3.64h1.82v3.64h4.73v1.64h-4.73v5.65c0,.7,.18,1.22,.53,1.56,.35,.34,.87,.51,1.56,.51,.46,0,.89-.03,1.29-.1,.4-.07,.78-.15,1.15-.26l.36,1.65c-.41,.12-.85,.22-1.32,.3-.47,.08-1,.12-1.59,.12Z"/>
  <path class="cls-2" d="M120.4,190.14c-1.87,0-3.13-.35-3.79-1.04-.66-.69-1.03-1.72-1.12-3.09l1.82-.18c.12,1.09,.38,1.82,.78,2.17,.4,.36,1.17,.54,2.31,.54,1.21,0,2.06-.19,2.55-.56,.48-.38,.73-1.03,.73-1.96v-.49c0-.91-.23-1.55-.69-1.92-.46-.37-1.26-.55-2.4-.55h-1.82v-1.64h1.82c1.01,0,1.71-.14,2.12-.43,.41-.29,.61-.79,.61-1.5v-.58c0-.76-.22-1.3-.65-1.61-.43-.31-1.18-.46-2.26-.46-.95,0-1.61,.17-2,.51-.39,.34-.63,.98-.73,1.93l-1.82-.18c.08-1.37,.5-2.35,1.25-2.95,.75-.6,1.85-.9,3.3-.9s2.62,.29,3.46,.85c.84,.57,1.26,1.51,1.26,2.82v.58c0,.73-.25,1.3-.75,1.73-.5,.42-1.2,.67-2.1,.73v.53c1.08,.08,1.88,.42,2.42,1,.53,.58,.8,1.27,.8,2.05v.49c0,1.31-.38,2.32-1.14,3.04-.76,.72-2.08,1.08-3.95,1.08Z"/>
  <path class="cls-2" d="M128.4,189.96v-3.09c0-1.1,.27-1.98,.8-2.62s1.41-1.15,2.64-1.51l2.47-.73c.69-.19,1.18-.44,1.47-.75,.29-.3,.44-.76,.44-1.36v-.75c0-.84-.2-1.43-.61-1.77-.41-.35-1.17-.52-2.3-.52-1.03,0-1.75,.21-2.15,.65s-.66,1.25-.75,2.46l-1.82-.18c.1-1.66,.5-2.84,1.21-3.53,.71-.69,1.88-1.04,3.5-1.04s2.78,.31,3.56,.93c.79,.62,1.18,1.56,1.18,2.82v1.2c0,.91-.26,1.64-.78,2.18-.52,.54-1.38,.99-2.58,1.34l-2.49,.73c-.59,.17-1.07,.42-1.43,.74s-.54,.88-.54,1.66v1.49h8v1.64h-9.82Z"/>
  <path class="cls-2" d="M142.04,189.96v-1.64h4v-10.73h-.53c-.41,.73-.94,1.24-1.59,1.54-.65,.3-1.4,.38-2.25,.24l-.18-1.78c.93,.11,1.79-.02,2.56-.39,.78-.37,1.45-.97,2.04-1.79h1.76v12.91h3.64v1.64h-9.45Z"/>
  <path class="cls-2" d="M153.86,189.96v-3.09c0-1.1,.27-1.98,.8-2.62s1.41-1.15,2.64-1.51l2.47-.73c.69-.19,1.18-.44,1.47-.75,.29-.3,.44-.76,.44-1.36v-.75c0-.84-.2-1.43-.61-1.77-.41-.35-1.17-.52-2.3-.52-1.03,0-1.75,.21-2.15,.65s-.66,1.25-.75,2.46l-1.82-.18c.1-1.66,.5-2.84,1.21-3.53,.71-.69,1.88-1.04,3.5-1.04s2.78,.31,3.56,.93c.79,.62,1.18,1.56,1.18,2.82v1.2c0,.91-.26,1.64-.78,2.18-.52,.54-1.38,.99-2.58,1.34l-2.49,.73c-.59,.17-1.07,.42-1.43,.74s-.54,.88-.54,1.66v1.49h8v1.64h-9.82Z"/>
  <path class="cls-2" d="M188.4,189.96h-8.36v-1.64l6.13-7.64h-6.13v-1.64h8.36v1.64l-6.13,7.64h6.13v1.64Z"/>
  <path class="cls-2" d="M195.93,190.14c-1.05,0-1.91-.34-2.55-1.03-.65-.68-.97-1.58-.97-2.7v-7.36h1.82v7c0,.8,.18,1.39,.53,1.78s.89,.58,1.62,.58c.57,0,1.12-.15,1.66-.46,.54-.31,1.09-.79,1.65-1.45v-7.46h1.82v10.91h-1.82v-1.82h-.55c-.25,.59-.68,1.08-1.26,1.45-.59,.37-1.23,.55-1.94,.55Z"/>
  <path class="cls-2" d="M222.36,190.14c-1.44,0-2.53-.26-3.25-.79-.73-.53-1.21-1.38-1.45-2.55l1.98-.42c.18,.81,.47,1.37,.85,1.67,.39,.3,1.02,.46,1.91,.46,1.09,0,1.88-.29,2.36-.86,.48-.57,.73-1.5,.73-2.8v-1.75h-.36c-.34,.47-.78,.82-1.33,1.04-.55,.22-1.21,.34-2,.34-1.42,0-2.49-.4-3.22-1.2-.73-.8-1.09-1.84-1.09-3.11v-.4c0-1.47,.42-2.59,1.27-3.37,.85-.78,2.06-1.17,3.64-1.17,1.71,0,2.95,.47,3.74,1.41s1.17,2.2,1.17,3.79v4.42c0,1.6-.39,2.88-1.18,3.85s-2.04,1.45-3.76,1.45Zm.05-7.29c1.03,0,1.8-.24,2.31-.71s.76-1.19,.76-2.16v-.24c0-.97-.25-1.69-.76-2.16s-1.28-.71-2.31-.71-1.8,.24-2.31,.71-.76,1.19-.76,2.16v.24c0,.97,.25,1.69,.76,2.16s1.28,.71,2.31,.71Z"/>
  <path class="cls-2" d="M240.95,186.14h-2.18v3.82h-1.82v-3.82h-6.91v-1.64l6.09-9.09h2.64v9.09h2.18v1.64Zm-8.91-1.64h4.91v-7.2l-4.91,7.2Z"/>
  <path class="cls-2" d="M243.86,189.96v-1.64h4v-10.73h-.53c-.41,.73-.94,1.24-1.59,1.54-.65,.3-1.4,.38-2.25,.24l-.18-1.78c.93,.11,1.79-.02,2.56-.39,.78-.37,1.45-.97,2.04-1.79h1.76v12.91h3.64v1.64h-9.45Z"/>
  <path class="cls-2" d="M266.4,186.14h-2.18v3.82h-1.82v-3.82h-6.91v-1.64l6.09-9.09h2.64v9.09h2.18v1.64Zm-8.91-1.64h4.91v-7.2l-4.91,7.2Z"/>
</svg>