<?xml version="1.0" encoding="UTF-8"?>
<svg id="Ebene_1" data-name="Ebene 1" xmlns="http://www.w3.org/2000/svg" viewBox="0 0 879.47 355.67">
  <defs>
    <style>
      .cls-1 {
        fill: #f9b233;
      }

      .cls-2 {
        fill: #f39200;
      }

      .cls-3 {
        fill: #951b81;
      }

      .cls-4 {
        fill: #1d1d1b;
      }

      .cls-5 {
        fill: #36a9e1;
      }
    </style>
  </defs>
  <path class="cls-4" d="M12.75,27.76v2.78c-.87-.62-1.65-.93-2.34-.93-.75,0-1.36,.26-1.83,.79-.47,.5-.71,1.17-.71,2.01,0,.74,.17,1.37,.51,1.9,.17,.28,.46,.65,.85,1.09s.91,.98,1.54,1.61c1.16,1.18,1.95,2.19,2.37,3.05,.42,.83,.63,1.85,.63,3.05,0,1.63-.46,2.98-1.38,4.03-.92,1.03-2.1,1.54-3.54,1.54-1.21,0-2.25-.33-3.1-1v-2.82c1.01,.74,1.93,1.11,2.76,1.11,.77,0,1.38-.26,1.82-.77s.66-1.21,.66-2.1c0-.77-.17-1.45-.51-2.06-.17-.29-.42-.63-.72-1-.31-.38-.7-.8-1.16-1.26-.72-.71-1.32-1.34-1.79-1.89-.47-.55-.83-1.03-1.05-1.44-.44-.8-.66-1.81-.66-3.04,0-1.65,.43-2.96,1.29-3.92,.87-.98,2.03-1.46,3.49-1.46,1.01,0,1.98,.24,2.9,.72Z"/>
  <path class="cls-4" d="M16.1,30.32h2.61v3.96h1.42v2.08h-1.42v12.07h-2.61v-12.07h-1.44v-2.08h1.44v-3.96Z"/>
  <path class="cls-4" d="M30.3,41.47c0,4.79-1.48,7.18-4.44,7.18s-4.44-2.43-4.44-7.29,1.48-7.31,4.43-7.31c.77,0,1.43,.15,1.99,.44s1.02,.74,1.39,1.35c.36,.61,.64,1.38,.81,2.31s.27,2.04,.27,3.32Zm-2.71-.07c0-1.86-.12-3.15-.37-3.88-.25-.74-.68-1.11-1.31-1.11s-1.06,.36-1.33,1.09c-.25,.73-.37,2-.37,3.81s.12,3.08,.37,3.8c.26,.73,.71,1.09,1.33,1.09s1.05-.36,1.3-1.08c.25-.67,.38-1.92,.38-3.73Z"/>
  <path class="cls-4" d="M32.73,54.23v-19.95h2.61v1.83c.36-.77,.74-1.31,1.12-1.61s.88-.45,1.5-.45c1.17,0,2.02,.6,2.56,1.81,.54,1.21,.81,3.1,.81,5.67s-.28,4.33-.83,5.43c-.55,1.13-1.43,1.7-2.64,1.7-.58,0-1.06-.13-1.44-.4-.18-.13-.36-.31-.55-.55-.18-.24-.36-.52-.55-.86v7.38h-2.61Zm5.91-12.8c0-1.92-.13-3.23-.38-3.91-.25-.74-.69-1.11-1.33-1.11-.6,0-1.03,.38-1.29,1.15-.26,.71-.38,1.98-.38,3.8s.13,3.09,.38,3.8c.26,.76,.69,1.13,1.29,1.13s1.06-.36,1.33-1.09c.25-.67,.38-1.93,.38-3.77Z"/>
  <path class="cls-4" d="M55.06,34.28h2.62v14.6c0,1.75-.17,2.96-.52,3.64-.64,1.24-1.92,1.86-3.84,1.86-1.27,0-2.26-.36-2.98-1.08s-1.09-1.71-1.09-2.94v-.44h2.54c0,1.5,.56,2.26,1.68,2.26,.61,0,1.03-.19,1.24-.57,.23-.36,.34-1.09,.34-2.17v-2.72c-.56,1.29-1.41,1.94-2.56,1.94s-2.06-.57-2.62-1.72-.84-2.94-.84-5.39c0-2.59,.27-4.5,.81-5.73,.53-1.18,1.41-1.76,2.64-1.76,.58,0,1.06,.14,1.42,.42,.36,.28,.75,.78,1.15,1.5v-1.7Zm.04,7.21c0-3.38-.58-5.07-1.75-5.07-.56,0-.96,.38-1.22,1.14-.26,.76-.38,1.98-.38,3.66,0,1.78,.13,3.08,.4,3.92,.27,.77,.73,1.16,1.37,1.16,.6,0,1.02-.35,1.24-1.04,.23-.65,.34-1.91,.34-3.77Z"/>
  <path class="cls-4" d="M60.64,34.28h2.61v1.63c.75-1.24,1.71-1.86,2.9-1.86s1.97,.45,2.46,1.35c.27,.51,.41,1.5,.41,2.97v10.06h-2.61v-9.46c-.01-.96-.13-1.64-.36-2.04-.23-.4-.62-.6-1.18-.6-.3,0-.55,.05-.76,.16s-.37,.27-.5,.51c-.13,.23-.22,.54-.28,.91-.06,.37-.09,.83-.09,1.38v9.15h-2.61v-14.15Z"/>
  <path class="cls-4" d="M73.2,28.26c.47,0,.88,.17,1.23,.52,.35,.35,.52,.76,.52,1.24s-.17,.91-.52,1.26c-.35,.35-.77,.52-1.26,.52s-.91-.17-1.26-.52c-.34-.34-.51-.76-.51-1.27,0-.47,.17-.88,.52-1.23,.37-.35,.8-.52,1.27-.52Zm-1.23,6.02h2.62v14.15h-2.62v-14.15Z"/>
  <path class="cls-4" d="M77.54,34.28h2.61v1.63c.75-1.24,1.71-1.86,2.9-1.86s1.97,.45,2.46,1.35c.27,.51,.41,1.5,.41,2.97v10.06h-2.61v-9.46c-.01-.96-.13-1.64-.36-2.04-.23-.4-.62-.6-1.18-.6-.3,0-.55,.05-.76,.16s-.37,.27-.5,.51c-.13,.23-.22,.54-.28,.91-.06,.37-.09,.83-.09,1.38v9.15h-2.61v-14.15Z"/>
  <path class="cls-4" d="M88.87,34.28h2.61v1.63c.75-1.24,1.71-1.86,2.9-1.86s1.97,.45,2.46,1.35c.27,.51,.41,1.5,.41,2.97v10.06h-2.61v-9.46c-.01-.96-.13-1.64-.36-2.04-.23-.4-.62-.6-1.18-.6-.3,0-.55,.05-.76,.16s-.37,.27-.5,.51c-.13,.23-.22,.54-.28,.91-.06,.37-.09,.83-.09,1.38v9.15h-2.61v-14.15Z"/>
  <path class="cls-4" d="M101.44,28.26c.47,0,.88,.17,1.23,.52,.35,.35,.52,.76,.52,1.24s-.17,.91-.52,1.26c-.35,.35-.77,.52-1.26,.52s-.91-.17-1.26-.52c-.34-.34-.51-.76-.51-1.27,0-.47,.17-.88,.52-1.23,.37-.35,.8-.52,1.27-.52Zm-1.23,6.02h2.62v14.15h-2.62v-14.15Z"/>
  <path class="cls-4" d="M105.77,54.23v-19.95h2.61v1.83c.36-.77,.74-1.31,1.12-1.61s.88-.45,1.5-.45c1.17,0,2.02,.6,2.56,1.81,.54,1.21,.81,3.1,.81,5.67s-.28,4.33-.83,5.43c-.55,1.13-1.43,1.7-2.64,1.7-.58,0-1.06-.13-1.44-.4-.18-.13-.36-.31-.55-.55-.18-.24-.36-.52-.55-.86v7.38h-2.61Zm5.91-12.8c0-1.92-.13-3.23-.38-3.91-.25-.74-.69-1.11-1.33-1.11-.6,0-1.03,.38-1.29,1.15-.26,.71-.38,1.98-.38,3.8s.13,3.09,.38,3.8c.26,.76,.69,1.13,1.29,1.13s1.06-.36,1.33-1.09c.25-.67,.38-1.93,.38-3.77Z"/>
  <path class="cls-4" d="M124.01,27.76v2.78c-.87-.62-1.65-.93-2.34-.93-.75,0-1.36,.26-1.83,.79-.47,.5-.71,1.17-.71,2.01,0,.74,.17,1.37,.51,1.9,.17,.28,.46,.65,.85,1.09s.91,.98,1.54,1.61c1.16,1.18,1.95,2.19,2.37,3.05,.42,.83,.63,1.85,.63,3.05,0,1.63-.46,2.98-1.38,4.03-.92,1.03-2.1,1.54-3.54,1.54-1.21,0-2.25-.33-3.1-1v-2.82c1.01,.74,1.93,1.11,2.76,1.11,.77,0,1.38-.26,1.82-.77s.66-1.21,.66-2.1c0-.77-.17-1.45-.51-2.06-.17-.29-.42-.63-.72-1-.31-.38-.7-.8-1.16-1.26-.72-.71-1.32-1.34-1.79-1.89-.47-.55-.83-1.03-1.05-1.44-.44-.8-.66-1.81-.66-3.04,0-1.65,.43-2.96,1.29-3.92,.87-.98,2.03-1.46,3.49-1.46,1.01,0,1.98,.24,2.9,.72Z"/>
  <path class="cls-4" d="M134.21,27.32h2.43l1.86,8.61c.23,1.08,.44,2.15,.62,3.23,.19,1.08,.36,2.21,.51,3.4,.02-.16,.03-.28,.04-.36,0-.09,.02-.15,.03-.18l.4-2.42,.36-2.3,.31-1.52,1.65-8.46h2.46l1.94,21.11h-2.72l-.48-7.16c-.02-.36-.03-.68-.05-.94s-.02-.48-.02-.66l-.12-2.83-.07-2.6s0-.06,0-.12c0-.06-.01-.14-.02-.24l-.07,.42c-.07,.5-.14,.94-.2,1.31-.06,.37-.11,.69-.16,.94l-.36,1.93-.14,.72-1.78,9.21h-1.91l-1.67-7.96c-.23-1.05-.43-2.11-.61-3.19s-.34-2.21-.49-3.4l-.82,14.55h-2.68l1.74-21.11Z"/>
  <path class="cls-4" d="M147.66,34.28h2.95l2.08,9.87,2.43-9.87h2.65l-5.78,19.95h-2.75l2.17-6.93-3.76-13.02Z"/>
  <path class="cls-4" d="M170.62,34.57v2.45c-.64-.47-1.31-.71-2.01-.71-.24,0-.46,.04-.66,.12-.2,.08-.38,.19-.53,.33s-.27,.31-.36,.51c-.09,.2-.13,.4-.13,.62,0,.67,.61,1.48,1.83,2.41,.49,.38,.9,.74,1.23,1.07s.58,.64,.75,.93c.36,.57,.53,1.3,.53,2.17,0,1.27-.37,2.28-1.11,3.05-.73,.76-1.71,1.13-2.94,1.13-.76,0-1.52-.22-2.3-.67v-2.53c.76,.57,1.47,.85,2.15,.85,1.19,0,1.79-.59,1.79-1.76,0-.44-.11-.82-.33-1.13-.1-.16-.26-.33-.48-.54s-.49-.44-.81-.69c-1.1-.86-1.85-1.58-2.24-2.16-.38-.6-.57-1.33-.57-2.17,0-1.14,.35-2.07,1.05-2.8,.71-.72,1.64-1.08,2.78-1.08,.8,0,1.58,.21,2.34,.62Z"/>
  <path class="cls-4" d="M181.46,25.2v23.23h-2.61v-1.82c-.37,.77-.75,1.31-1.12,1.6-.37,.29-.87,.44-1.49,.44-1.17,0-2.02-.6-2.57-1.8s-.82-3.08-.82-5.65c0-1.24,.07-2.31,.21-3.21s.34-1.65,.62-2.23c.28-.58,.64-1.01,1.07-1.29s.96-.42,1.56-.42,1.05,.14,1.42,.41c.18,.13,.37,.31,.56,.55s.38,.53,.56,.88v-10.68h2.61Zm-5.91,16.09c0,1.86,.12,3.16,.37,3.9,.25,.74,.7,1.11,1.34,1.11,.58,0,1.01-.38,1.27-1.15,.26-.82,.4-2.08,.4-3.79s-.13-2.98-.4-3.8c-.26-.77-.69-1.15-1.27-1.15-.62,0-1.06,.36-1.33,1.09-.26,.67-.38,1.94-.38,3.79Z"/>
  <path class="cls-4" d="M184.42,34.28h2.61v1.76c.45-.75,.89-1.27,1.33-1.57s1.02-.47,1.74-.52v2.73c-.18-.03-.34-.04-.46-.04-.94,0-1.61,.24-2.01,.72-.39,.47-.59,1.3-.59,2.49v8.57h-2.61v-14.15Z"/>
  <path class="cls-4" d="M200.34,41.47c0,4.79-1.48,7.18-4.44,7.18s-4.44-2.43-4.44-7.29,1.48-7.31,4.43-7.31c.77,0,1.43,.15,1.99,.44s1.02,.74,1.39,1.35c.36,.61,.64,1.38,.81,2.31s.27,2.04,.27,3.32Zm-2.71-.07c0-1.86-.12-3.15-.37-3.88-.25-.74-.68-1.11-1.31-1.11s-1.06,.36-1.33,1.09c-.25,.73-.37,2-.37,3.81s.12,3.08,.37,3.8c.26,.73,.71,1.09,1.33,1.09s1.05-.36,1.3-1.08c.25-.67,.38-1.92,.38-3.73Z"/>
  <path class="cls-4" d="M201.34,27.32h2.75l1.44,9.8,.23,1.45c.11,.78,.19,1.5,.25,2.15l.15,1.79s.02,.13,.03,.25c0,.12,.02,.27,.04,.45l.07-.68c.11-1.19,.23-2.29,.35-3.29s.26-1.93,.4-2.78l1.52-9.13h2.19l1.42,8.87c.21,1.31,.38,2.53,.53,3.65,.14,1.12,.26,2.19,.35,3.21,.09-1.08,.19-2.11,.31-3.12,.11-1,.23-1.99,.36-2.95l.21-1.41,1.22-8.26h2.72l-3.73,21.11h-2.21l-1.49-9.12s-.03-.19-.07-.45c-.04-.26-.09-.64-.16-1.13l-.29-2.11c-.02-.16-.05-.41-.09-.74s-.08-.74-.13-1.24l-.07-.88c-.02,.21-.04,.39-.05,.55-.02,.16-.03,.28-.04,.38-.05,.6-.08,1.07-.12,1.4-.03,.33-.05,.54-.06,.61l-.29,2.02c-.06,.46-.11,.83-.15,1.09-.04,.26-.06,.43-.08,.49l-1.54,9.12h-2.28l-3.65-21.11Z"/>
  <path class="cls-4" d="M221.82,45.27c.46,0,.85,.16,1.18,.49s.49,.72,.49,1.19-.16,.86-.49,1.19c-.35,.32-.75,.48-1.2,.48s-.84-.16-1.19-.48c-.33-.33-.49-.73-.49-1.2s.16-.86,.49-1.18c.34-.33,.74-.49,1.22-.49Zm-1.39-17.95h2.76v16.04h-2.76V27.32Z"/>
  <path class="cls-4" d="M4.04,90.95h2l.91,5.57,.16,1.01,.32,2.19c.05,.37,.1,.71,.14,1.02s.08,.58,.11,.83l.1,.74c.02-.15,.04-.28,.05-.4s.03-.21,.04-.29l.26-1.75,.34-2.29c.03-.21,.06-.4,.09-.58s.06-.33,.08-.47l.98-5.57h1.89l-2.96,15.08h-1.61l-2.91-15.08Z"/>
  <path class="cls-4" d="M14.42,90.95h1.58l3.23,15.08h-2.01l-.57-2.94h-2.99l-.58,2.94h-1.95l3.28-15.08Zm1.94,10.57l-.45-2.4c-.3-1.63-.54-3.38-.73-5.23-.09,.91-.21,1.82-.35,2.75s-.31,1.91-.51,2.95l-.37,1.93h2.41Z"/>
  <path class="cls-4" d="M20.43,90.95h2.68c1.11,0,1.93,.26,2.47,.79,.68,.68,1.03,1.73,1.03,3.13,0,1.08-.18,1.95-.54,2.6s-.88,1.06-1.55,1.22l2.77,7.33h-2.06l-2.76-7.38v7.38h-2.03v-15.08Zm2.03,6.68c.79,0,1.34-.18,1.67-.55s.49-.98,.49-1.85c0-.47-.03-.87-.1-1.2s-.18-.6-.32-.81-.34-.36-.57-.46-.51-.15-.83-.15h-.34v5.01Z"/>
  <path class="cls-4" d="M28.85,90.95h2.03v15.08h-2.03v-15.08Z"/>
  <path class="cls-4" d="M35.36,90.95h1.58l3.23,15.08h-2.01l-.57-2.94h-2.99l-.58,2.94h-1.95l3.28-15.08Zm1.94,10.57l-.45-2.4c-.3-1.63-.54-3.38-.73-5.23-.09,.91-.21,1.82-.35,2.75s-.31,1.91-.51,2.95l-.37,1.93h2.41Z"/>
  <path class="cls-4" d="M41.36,90.95h1.89l2.02,6.02c.59,1.7,1.1,3.51,1.55,5.44-.16-1.17-.28-2.22-.36-3.16s-.12-1.83-.12-2.67v-5.62h2.04v15.08h-1.9l-2.28-6.79c-.21-.63-.41-1.28-.59-1.94s-.36-1.36-.51-2.09c-.01-.09-.03-.2-.06-.33s-.06-.28-.1-.45c.02,.17,.04,.31,.05,.43s.02,.22,.03,.31l.11,1.53,.11,1.87c0,.1,.01,.23,.01,.38s0,.32,0,.51l.11,6.57h-2v-15.08Z"/>
  <path class="cls-4" d="M49.52,90.95h6.61v1.78h-2.28v13.3h-1.99v-13.3h-2.34v-1.78Z"/>
  <path class="cls-4" d="M57.25,90.95h5.4v1.72h-3.37v4.78h2.99v1.72h-2.99v5.15h3.37v1.72h-5.4v-15.08Z"/>
  <path class="cls-4" d="M69.28,90.95h3.44v15.08h-1.94v-13.35h-1.49v-1.73Z"/>
  <path class="cls-4" d="M77.88,95.78c.32,0,.6,.12,.83,.36,.23,.23,.35,.51,.35,.84s-.12,.62-.35,.86-.52,.35-.85,.35-.62-.12-.86-.35c-.23-.24-.35-.53-.35-.86s.12-.62,.35-.85c.24-.23,.53-.35,.88-.35Zm0,7.99c.32,0,.6,.12,.83,.36,.23,.23,.35,.52,.35,.85s-.12,.62-.35,.85c-.25,.23-.53,.34-.85,.34-.17,0-.33-.03-.47-.09s-.27-.15-.39-.25-.2-.23-.26-.38-.09-.3-.09-.47c0-.33,.12-.62,.35-.85,.24-.23,.53-.35,.88-.35Z"/>
  <path class="cls-5" d="M8.62,154.03v-9.27h-3.09v-1.64h3.09v-.73c0-.98,.38-1.74,1.15-2.28,.77-.54,1.72-.81,2.86-.81,.56,0,1.06,.05,1.5,.15,.44,.1,.84,.21,1.19,.33l-.36,1.53c-.27-.08-.59-.17-.97-.25s-.83-.12-1.35-.12c-.67,0-1.2,.11-1.6,.34-.4,.22-.6,.59-.6,1.1v.75h4.55v1.64h-4.55v9.27h-1.82Z"/>
  <path class="cls-5" d="M22.15,154.21c-1.05,0-1.91-.34-2.55-1.03-.65-.68-.97-1.58-.97-2.7v-7.36h1.82v7c0,.8,.18,1.39,.53,1.78s.89,.58,1.62,.58c.57,0,1.12-.15,1.66-.46,.54-.31,1.09-.79,1.65-1.45v-7.46h1.82v10.91h-1.82v-1.82h-.55c-.25,.59-.68,1.08-1.26,1.45-.59,.37-1.23,.55-1.94,.55Z"/>
  <path class="cls-5" d="M31.35,154.03v-10.91h1.82v1.82h.55c.27-.62,.69-1.11,1.25-1.46,.57-.36,1.22-.54,1.95-.54,1.09,0,1.95,.33,2.58,1,.63,.67,.95,1.58,.95,2.73v7.36h-1.82v-7c0-.76-.19-1.35-.55-1.75-.37-.41-.9-.61-1.59-.61-.55,0-1.1,.16-1.66,.49s-1.11,.8-1.65,1.42v7.45h-1.82Z"/>
  <path class="cls-5" d="M48.88,154.21c-1.59,0-2.79-.35-3.59-1.04-.81-.7-1.21-1.72-1.21-3.08v-2.95c0-1.38,.4-2.43,1.21-3.14,.81-.71,2-1.06,3.57-1.06,1.41,0,2.49,.32,3.25,.95,.76,.64,1.18,1.57,1.26,2.79l-1.78,.11c-.05-.75-.3-1.31-.75-1.67-.45-.36-1.12-.54-2-.54-.99,0-1.73,.21-2.22,.63-.48,.42-.73,1.06-.73,1.94v2.95c0,.84,.25,1.46,.74,1.87,.49,.41,1.24,.62,2.25,.62,.87,0,1.53-.16,1.98-.46,.45-.31,.69-.77,.73-1.39l1.78,.11c-.08,1.12-.5,1.96-1.25,2.53-.75,.57-1.83,.85-3.24,.85Z"/>
  <path class="cls-5" d="M63.15,154.19c-1.2,0-2.13-.3-2.8-.89-.67-.59-1-1.5-1-2.73v-5.82h-3.09v-1.64h3.09v-3.64h1.82v3.64h4.73v1.64h-4.73v5.65c0,.7,.18,1.22,.53,1.56,.35,.34,.87,.51,1.56,.51,.46,0,.89-.03,1.29-.1,.4-.07,.78-.15,1.15-.26l.36,1.65c-.41,.12-.85,.22-1.32,.3-.47,.08-1,.12-1.59,.12Z"/>
  <path class="cls-5" d="M69.53,154.03v-1.64h3.64v-7.64h-3.64v-1.64h5.45v9.27h3.64v1.64h-9.09Zm4.55-12.91c-.46,0-.83-.07-1.12-.22-.29-.15-.43-.42-.43-.82v-.13c0-.41,.14-.69,.43-.85,.28-.15,.66-.23,1.12-.23s.83,.08,1.12,.23c.28,.15,.43,.43,.43,.85v.13c0,.4-.15,.67-.44,.82s-.66,.22-1.11,.22Z"/>
  <path class="cls-5" d="M86.8,154.21c-1.47,0-2.59-.35-3.37-1.06-.78-.71-1.17-1.73-1.17-3.06v-2.95c0-1.35,.39-2.38,1.18-3.11,.79-.73,1.92-1.09,3.38-1.09s2.57,.36,3.35,1.09,1.17,1.76,1.17,3.11v2.95c0,1.33-.39,2.35-1.17,3.06s-1.91,1.06-3.37,1.06Zm0-1.64c.92,0,1.61-.21,2.05-.62,.45-.41,.67-1.04,.67-1.87v-2.95c0-.87-.22-1.52-.67-1.94-.45-.42-1.13-.63-2.05-.63s-1.61,.21-2.05,.63c-.45,.42-.67,1.06-.67,1.94v2.95c0,.84,.22,1.46,.67,1.87,.45,.41,1.13,.62,2.05,.62Z"/>
  <path class="cls-5" d="M94.99,154.03v-10.91h1.82v1.82h.55c.27-.62,.69-1.11,1.25-1.46,.57-.36,1.22-.54,1.95-.54,1.09,0,1.95,.33,2.58,1,.63,.67,.95,1.58,.95,2.73v7.36h-1.82v-7c0-.76-.19-1.35-.55-1.75-.37-.41-.9-.61-1.59-.61-.55,0-1.1,.16-1.66,.49s-1.11,.8-1.65,1.42v7.45h-1.82Z"/>
  <path class="cls-1" d="M125.13,154.21c-.92,0-1.81-.14-2.67-.41-.86-.27-1.65-.69-2.38-1.26l.82-1.44c.59,.49,1.26,.85,1.99,1.1s1.48,.37,2.25,.37c.63,0,1.23-.1,1.81-.29,.58-.19,.86-.6,.86-1.23,0-.52-.24-.89-.71-1.1-.47-.22-1.34-.4-2.6-.56-1.33-.16-2.34-.47-3.03-.94-.68-.47-1.03-1.21-1.03-2.22,0-1.09,.41-1.92,1.24-2.47,.82-.55,1.78-.83,2.87-.83,.86,0,1.69,.15,2.48,.44,.79,.29,1.53,.7,2.21,1.24l-.82,1.44c-.56-.45-1.16-.81-1.82-1.07-.65-.27-1.34-.4-2.05-.4-.58,0-1.11,.11-1.59,.33-.48,.22-.72,.62-.72,1.2,0,.5,.22,.86,.66,1.08,.44,.22,1.29,.42,2.55,.57,1.38,.16,2.42,.49,3.11,1.01,.69,.52,1.04,1.23,1.04,2.15,0,1.14-.46,1.97-1.38,2.5-.92,.53-1.95,.79-3.09,.79Z"/>
  <path class="cls-1" d="M137.57,154.21c-.41,0-.85-.04-1.3-.14-.45-.09-.88-.22-1.28-.37v3.96h-1.82v-14.55h1.82v1.82h.55c.3-.62,.74-1.11,1.32-1.46s1.2-.54,1.86-.54c1.09,0,1.95,.37,2.59,1.12s.95,1.75,.95,3.03v2.96c0,1.28-.42,2.3-1.26,3.04-.84,.75-1.98,1.12-3.43,1.12Zm-.02-1.6c1.02,0,1.75-.21,2.21-.62s.68-1.07,.68-1.98v-2.95c0-.84-.17-1.45-.52-1.83-.35-.38-.9-.57-1.66-.57-.61,0-1.17,.15-1.69,.45-.52,.3-1.05,.79-1.58,1.46v5.34c.38,.23,.77,.4,1.17,.52,.41,.12,.87,.17,1.39,.17Z"/>
  <path class="cls-1" d="M145.89,154.03v-1.64h3.64v-7.64h-3.64v-1.64h5.45v9.27h3.64v1.64h-9.09Zm4.55-12.91c-.46,0-.83-.07-1.12-.22-.29-.15-.43-.42-.43-.82v-.13c0-.41,.14-.69,.43-.85,.28-.15,.66-.23,1.12-.23s.83,.08,1.12,.23c.28,.15,.43,.43,.43,.85v.13c0,.4-.15,.67-.44,.82s-.66,.22-1.11,.22Z"/>
  <path class="cls-1" d="M158.62,154.03v-10.91h1.82v1.82h.55c.27-.62,.69-1.11,1.25-1.46,.57-.36,1.22-.54,1.95-.54,1.09,0,1.95,.33,2.58,1,.63,.67,.95,1.58,.95,2.73v7.36h-1.82v-7c0-.76-.19-1.35-.55-1.75-.37-.41-.9-.61-1.59-.61-.55,0-1.1,.16-1.66,.49s-1.11,.8-1.65,1.42v7.45h-1.82Z"/>
  <path class="cls-1" d="M178.04,154.03l-2.15-8.67-2.15,8.67h-1.82l-1.96-14.55h1.8l1.31,11.87,1.91-8.24h1.91l1.91,8.24,1.31-11.87h1.71l-1.96,14.55h-1.82Z"/>
  <path class="cls-1" d="M188.62,154.21c-1.47,0-2.59-.35-3.37-1.06-.78-.71-1.17-1.73-1.17-3.06v-2.95c0-1.35,.39-2.38,1.18-3.11,.79-.73,1.92-1.09,3.38-1.09s2.57,.36,3.35,1.09,1.17,1.76,1.17,3.11v2.95c0,1.33-.39,2.35-1.17,3.06s-1.91,1.06-3.37,1.06Zm0-1.64c.92,0,1.61-.21,2.05-.62,.45-.41,.67-1.04,.67-1.87v-2.95c0-.87-.22-1.52-.67-1.94-.45-.42-1.13-.63-2.05-.63s-1.61,.21-2.05,.63c-.45,.42-.67,1.06-.67,1.94v2.95c0,.84,.22,1.46,.67,1.87,.45,.41,1.13,.62,2.05,.62Z"/>
  <path class="cls-1" d="M197.71,154.03v-10.91h1.82v1.82h.55c.25-.69,.64-1.2,1.16-1.52,.52-.32,1.15-.48,1.89-.48,.81,0,1.49,.27,2.04,.81,.55,.54,.82,1.3,.82,2.28v1.64h-1.73v-.98c0-.69-.15-1.2-.46-1.53s-.78-.49-1.41-.49c-.57,0-1.09,.14-1.55,.42-.47,.28-.9,.71-1.3,1.31v7.64h-1.82Z"/>
  <path class="cls-1" d="M216.26,152.21c-.32,.63-.75,1.12-1.31,1.47s-1.18,.53-1.87,.53c-1.13,0-2-.36-2.62-1.09s-.93-1.75-.93-3.05v-2.96c0-1.32,.41-2.34,1.24-3.07,.82-.73,1.98-1.09,3.45-1.09,.42,0,.86,.04,1.31,.14,.45,.09,.87,.21,1.27,.37v-3.96h1.82v14.55h-1.82v-1.82h-.55Zm-2.73,.27c.59,0,1.16-.16,1.69-.47,.53-.31,1.06-.79,1.58-1.44v-5.35c-.38-.23-.78-.4-1.2-.52-.42-.12-.88-.17-1.36-.17-.98,0-1.71,.22-2.18,.65-.47,.43-.71,1.08-.71,1.96v2.93c0,.81,.18,1.42,.55,1.82,.36,.4,.91,.6,1.64,.6Z"/>
  <path class="cls-1" d="M226.95,154.21c-.92,0-1.81-.14-2.67-.41-.86-.27-1.65-.69-2.38-1.26l.82-1.44c.59,.49,1.26,.85,1.99,1.1s1.48,.37,2.25,.37c.63,0,1.23-.1,1.81-.29,.58-.19,.86-.6,.86-1.23,0-.52-.24-.89-.71-1.1-.47-.22-1.34-.4-2.6-.56-1.33-.16-2.34-.47-3.03-.94-.68-.47-1.03-1.21-1.03-2.22,0-1.09,.41-1.92,1.24-2.47,.82-.55,1.78-.83,2.87-.83,.86,0,1.69,.15,2.48,.44,.79,.29,1.53,.7,2.21,1.24l-.82,1.44c-.56-.45-1.16-.81-1.82-1.07-.65-.27-1.34-.4-2.05-.4-.58,0-1.11,.11-1.59,.33-.48,.22-.72,.62-.72,1.2,0,.5,.22,.86,.66,1.08,.44,.22,1.29,.42,2.55,.57,1.38,.16,2.42,.49,3.11,1.01,.69,.52,1.04,1.23,1.04,2.15,0,1.14-.46,1.97-1.38,2.5-.92,.53-1.95,.79-3.09,.79Z"/>
  <path class="cls-4" d="M243.16,157.85c-1.9-.45-3.44-1.49-4.61-3.11-1.17-1.62-1.75-3.68-1.75-6.16s.58-4.54,1.75-6.16c1.17-1.62,2.71-2.66,4.61-3.11l.18,1.42c-1.62,.45-2.82,1.39-3.58,2.81-.76,1.42-1.15,3.11-1.15,5.05s.38,3.62,1.15,5.04,1.96,2.36,3.58,2.81l-.18,1.42Z"/>
  <path class="cls-2" d="M252.4,154.21c-.92,0-1.81-.14-2.67-.41-.86-.27-1.65-.69-2.38-1.26l.82-1.44c.59,.49,1.26,.85,1.99,1.1s1.48,.37,2.25,.37c.63,0,1.23-.1,1.81-.29,.58-.19,.86-.6,.86-1.23,0-.52-.24-.89-.71-1.1-.47-.22-1.34-.4-2.6-.56-1.33-.16-2.34-.47-3.03-.94-.68-.47-1.03-1.21-1.03-2.22,0-1.09,.41-1.92,1.24-2.47,.82-.55,1.78-.83,2.87-.83,.86,0,1.69,.15,2.48,.44,.79,.29,1.53,.7,2.21,1.24l-.82,1.44c-.56-.45-1.16-.81-1.82-1.07-.65-.27-1.34-.4-2.05-.4-.58,0-1.11,.11-1.59,.33-.48,.22-.72,.62-.72,1.2,0,.5,.22,.86,.66,1.08,.44,.22,1.29,.42,2.55,.57,1.38,.16,2.42,.49,3.11,1.01,.69,.52,1.04,1.23,1.04,2.15,0,1.14-.46,1.97-1.38,2.5-.92,.53-1.95,.79-3.09,.79Z"/>
  <path class="cls-2" d="M266.78,154.19c-1.2,0-2.13-.3-2.8-.89-.67-.59-1-1.5-1-2.73v-5.82h-3.09v-1.64h3.09v-3.64h1.82v3.64h4.73v1.64h-4.73v5.65c0,.7,.18,1.22,.53,1.56,.35,.34,.87,.51,1.56,.51,.46,0,.89-.03,1.29-.1,.4-.07,.78-.15,1.15-.26l.36,1.65c-.41,.12-.85,.22-1.32,.3-.47,.08-1,.12-1.59,.12Z"/>
  <path class="cls-2" d="M274.07,154.03v-10.91h1.82v1.82h.55c.25-.69,.64-1.2,1.16-1.52,.52-.32,1.15-.48,1.89-.48,.81,0,1.49,.27,2.04,.81,.55,.54,.82,1.3,.82,2.28v1.64h-1.73v-.98c0-.69-.15-1.2-.46-1.53s-.78-.49-1.41-.49c-.57,0-1.09,.14-1.55,.42-.47,.28-.9,.71-1.3,1.31v7.64h-1.82Z"/>
  <path class="cls-2" d="M285.89,154.03v-1.64h3.64v-7.64h-3.64v-1.64h5.45v9.27h3.64v1.64h-9.09Zm4.55-12.91c-.46,0-.83-.07-1.12-.22-.29-.15-.43-.42-.43-.82v-.13c0-.41,.14-.69,.43-.85,.28-.15,.66-.23,1.12-.23s.83,.08,1.12,.23c.28,.15,.43,.43,.43,.85v.13c0,.4-.15,.67-.44,.82s-.66,.22-1.11,.22Z"/>
  <path class="cls-2" d="M298.62,154.03v-10.91h1.82v1.82h.55c.27-.62,.69-1.11,1.25-1.46,.57-.36,1.22-.54,1.95-.54,1.09,0,1.95,.33,2.58,1,.63,.67,.95,1.58,.95,2.73v7.36h-1.82v-7c0-.76-.19-1.35-.55-1.75-.37-.41-.9-.61-1.59-.61-.55,0-1.1,.16-1.66,.49s-1.11,.8-1.65,1.42v7.45h-1.82Z"/>
  <path class="cls-2" d="M321.35,154.9c0,.98-.36,1.72-1.08,2.21-.72,.49-1.6,.74-2.65,.74h-3.42c-1.09,0-1.99-.22-2.7-.65-.71-.44-1.06-1.11-1.06-2.02,0-.58,.15-1.05,.46-1.39,.31-.35,.76-.54,1.35-.59v-.38c-.42-.07-.77-.25-1.05-.53-.27-.28-.41-.71-.41-1.29,0-.52,.16-.99,.49-1.4,.33-.42,.88-.65,1.65-.71v-.34c-.59-.19-.99-.49-1.2-.88-.21-.4-.31-.78-.31-1.14v-.49c0-.84,.36-1.53,1.07-2.08,.71-.55,1.72-.82,3.02-.82h5.36v1.64l-2.82-.42v.33c.48,.13,.85,.39,1.1,.76,.25,.38,.37,.75,.37,1.13v.47c0,.84-.32,1.51-.96,2.03-.64,.52-1.69,.77-3.13,.77h-2.2c-.33,0-.58,.08-.75,.25-.17,.16-.25,.44-.25,.83s.12,.66,.35,.84c.24,.19,.59,.28,1.06,.28h4.13c1.02,0,1.86,.22,2.54,.67s1.01,1.18,1.01,2.2Zm-7.18,1.47h3.69c.55,0,.99-.1,1.33-.31,.34-.21,.51-.56,.51-1.07s-.15-.83-.46-1.03-.71-.31-1.19-.31h-5.78v1.23c0,.49,.16,.86,.49,1.11,.33,.25,.8,.37,1.42,.37Zm1.36-7.91c.74,0,1.3-.13,1.69-.4,.39-.27,.58-.69,.58-1.26v-.58c0-.57-.19-.99-.58-1.25-.39-.26-.95-.39-1.69-.39s-1.3,.13-1.69,.39c-.39,.26-.58,.68-.58,1.25v.58c0,.57,.19,.99,.58,1.26,.39,.27,.95,.4,1.69,.4Z"/>
  <path class="cls-4" d="M324.98,157.85l-.18-1.42c1.62-.45,2.82-1.39,3.58-2.83,.76-1.44,1.15-3.11,1.15-5.03s-.38-3.59-1.15-5.03c-.76-1.44-1.96-2.38-3.58-2.83l.18-1.42c1.9,.45,3.44,1.49,4.61,3.12,1.17,1.63,1.75,3.68,1.75,6.16s-.58,4.52-1.75,6.15c-1.17,1.63-2.71,2.67-4.61,3.12Z"/>
  <path class="cls-4" d="M344.98,157.85c-2.55,.05-4.39-.18-5.55-.68-1.15-.5-1.73-1.28-1.73-2.34,0-.61,.12-1.12,.37-1.53,.25-.41,.52-.77,.81-1.07,.3-.3,.58-.59,.82-.85,.24-.27,.36-.55,.36-.85,0-.57-.3-.97-.91-1.21s-1.7-.37-3.27-.41v-1.09c1.58-.04,2.67-.17,3.27-.4s.91-.62,.91-1.18c0-.3-.12-.56-.36-.77-.24-.21-.52-.45-.82-.72-.29-.27-.56-.59-.81-.96-.25-.38-.37-.87-.37-1.49,0-1.03,.58-1.8,1.73-2.3,1.15-.5,3-.73,5.55-.68v1.64c-2.05-.04-3.47,.07-4.26,.33s-1.19,.67-1.19,1.24c0,.24,.09,.49,.26,.75,.18,.25,.49,.59,.94,1,.44,.4,.74,.74,.91,1.03,.17,.29,.25,.6,.25,.94,0,.68-.3,1.19-.9,1.54-.6,.35-1.46,.54-2.59,.59v.09c1.13,.12,1.99,.38,2.59,.76,.6,.39,.9,.93,.9,1.64,0,.3-.09,.59-.27,.87-.18,.28-.5,.63-.96,1.05-.42,.36-.72,.68-.88,.94s-.25,.56-.25,.9c0,.61,.4,1.04,1.19,1.31s2.22,.38,4.26,.34v1.6Z"/>
  <path class="cls-5" d="M37.02,178.03h-2.27l-3.87-10.91h1.98l3.05,9.44,3.05-9.44h1.93l-3.87,10.91Z"/>
  <path class="cls-5" d="M47.08,178.21c-.92,0-1.74-.25-2.46-.74s-1.08-1.28-1.08-2.37c0-.96,.31-1.71,.94-2.25,.62-.55,1.35-.82,2.19-.82h3.78v-1.56c0-.58-.19-1.04-.58-1.38-.39-.34-.98-.51-1.76-.51s-1.4,.12-1.79,.35c-.39,.24-.71,.76-.94,1.57l-1.6-.44c.21-1.03,.67-1.81,1.39-2.34s1.69-.79,2.9-.79,2.2,.27,3,.81c.8,.54,1.2,1.38,1.2,2.5v4.88c0,.66,.18,1.07,.55,1.23s.91,.19,1.64,.06v1.65c-.75,.11-1.46,.06-2.12-.15s-1.02-.79-1.08-1.72h-.36c-.34,.56-.85,1.03-1.53,1.42-.68,.39-1.44,.58-2.27,.58Zm.24-1.54c.63,0,1.21-.11,1.75-.34s.99-.62,1.38-1.18v-1.76h-3.27c-.52,0-.95,.12-1.3,.36-.35,.24-.52,.66-.52,1.25,0,.52,.15,.93,.45,1.22,.3,.29,.8,.44,1.52,.44Z"/>
  <path class="cls-5" d="M57.71,178.03v-10.91h1.82v1.82h.55c.25-.69,.64-1.2,1.16-1.52,.52-.32,1.15-.48,1.89-.48,.81,0,1.49,.27,2.04,.81,.55,.54,.82,1.3,.82,2.28v1.64h-1.73v-.98c0-.69-.15-1.2-.46-1.53s-.78-.49-1.41-.49c-.57,0-1.09,.14-1.55,.42-.47,.28-.9,.71-1.3,1.31v7.64h-1.82Z"/>
  <path class="cls-1" d="M86.95,178.21c-.92,0-1.81-.14-2.67-.41-.86-.27-1.65-.69-2.38-1.26l.82-1.44c.59,.49,1.26,.85,1.99,1.1s1.48,.37,2.25,.37c.63,0,1.23-.1,1.81-.29,.58-.19,.86-.6,.86-1.23,0-.52-.24-.89-.71-1.1-.47-.22-1.34-.4-2.6-.56-1.33-.16-2.34-.47-3.03-.94-.68-.47-1.03-1.21-1.03-2.22,0-1.09,.41-1.92,1.24-2.47,.82-.55,1.78-.83,2.87-.83,.86,0,1.69,.15,2.48,.44,.79,.29,1.53,.7,2.21,1.24l-.82,1.44c-.56-.45-1.16-.81-1.82-1.07-.65-.27-1.34-.4-2.05-.4-.58,0-1.11,.11-1.59,.33-.48,.22-.72,.62-.72,1.2,0,.5,.22,.86,.66,1.08,.44,.22,1.29,.42,2.55,.57,1.38,.16,2.42,.49,3.11,1.01,.69,.52,1.04,1.23,1.04,2.15,0,1.14-.46,1.97-1.38,2.5-.92,.53-1.95,.79-3.09,.79Z"/>
  <path class="cls-1" d="M94.99,178.03v-1.64h3.64v-7.64h-3.64v-1.64h5.45v9.27h3.64v1.64h-9.09Zm4.55-12.91c-.46,0-.83-.07-1.12-.22-.29-.15-.43-.42-.43-.82v-.13c0-.41,.14-.69,.43-.85,.28-.15,.66-.23,1.12-.23s.83,.08,1.12,.23c.28,.15,.43,.43,.43,.85v.13c0,.4-.15,.67-.44,.82s-.66,.22-1.11,.22Z"/>
  <path class="cls-1" d="M107.71,178.03v-10.91h1.82v1.82h.55c.27-.62,.69-1.11,1.25-1.46,.57-.36,1.22-.54,1.95-.54,1.09,0,1.95,.33,2.58,1,.63,.67,.95,1.58,.95,2.73v7.36h-1.82v-7c0-.76-.19-1.35-.55-1.75-.37-.41-.9-.61-1.59-.61-.55,0-1.1,.16-1.66,.49s-1.11,.8-1.65,1.42v7.45h-1.82Z"/>
  <path class="cls-1" d="M130.44,178.9c0,.98-.36,1.72-1.08,2.21-.72,.49-1.6,.74-2.65,.74h-3.42c-1.09,0-1.99-.22-2.7-.65-.71-.44-1.06-1.11-1.06-2.02,0-.58,.15-1.05,.46-1.39,.31-.35,.76-.54,1.35-.59v-.38c-.42-.07-.77-.25-1.05-.53-.27-.28-.41-.71-.41-1.29,0-.52,.16-.99,.49-1.4,.33-.42,.88-.65,1.65-.71v-.34c-.59-.19-.99-.49-1.2-.88-.21-.4-.31-.78-.31-1.14v-.49c0-.84,.36-1.53,1.07-2.08,.71-.55,1.72-.82,3.02-.82h5.36v1.64l-2.82-.42v.33c.48,.13,.85,.39,1.1,.76,.25,.38,.37,.75,.37,1.13v.47c0,.84-.32,1.51-.96,2.03-.64,.52-1.69,.77-3.13,.77h-2.2c-.33,0-.58,.08-.75,.25-.17,.16-.25,.44-.25,.83s.12,.66,.35,.84c.24,.19,.59,.28,1.06,.28h4.13c1.02,0,1.86,.22,2.54,.67s1.01,1.18,1.01,2.2Zm-7.18,1.47h3.69c.55,0,.99-.1,1.33-.31,.34-.21,.51-.56,.51-1.07s-.15-.83-.46-1.03-.71-.31-1.19-.31h-5.78v1.23c0,.49,.16,.86,.49,1.11,.33,.25,.8,.37,1.42,.37Zm1.36-7.91c.74,0,1.3-.13,1.69-.4,.39-.27,.58-.69,.58-1.26v-.58c0-.57-.19-.99-.58-1.25-.39-.26-.95-.39-1.69-.39s-1.3,.13-1.69,.39c-.39,.26-.58,.68-.58,1.25v.58c0,.57,.19,.99,.58,1.26,.39,.27,.95,.4,1.69,.4Z"/>
  <path class="cls-1" d="M133.17,178.03v-1.64h3.64v-11.27h-3.64v-1.64h5.45v12.91h3.64v1.64h-9.09Z"/>
  <path class="cls-1" d="M155.02,175.63c-.33,.91-.82,1.57-1.49,1.97-.67,.41-1.69,.61-3.07,.61s-2.56-.35-3.36-1.04c-.8-.7-1.2-1.73-1.2-3.1v-2.93c0-1.41,.42-2.46,1.26-3.16,.84-.7,1.94-1.04,3.3-1.04s2.47,.35,3.29,1.06c.82,.71,1.24,1.8,1.24,3.26v1.67h-7.27v1.15c0,.91,.23,1.57,.68,1.97s1.14,.61,2.05,.61,1.51-.12,1.91-.36c.4-.24,.7-.64,.91-1.18l1.76,.51Zm-7.31-4.49v.44h5.45v-.27c0-.98-.23-1.7-.68-2.15-.45-.45-1.14-.67-2.05-.67s-1.59,.22-2.05,.65c-.45,.43-.68,1.1-.68,2.01Z"/>
  <path class="cls-1" d="M165.31,178.03l-2.15-8.67-2.15,8.67h-1.82l-1.96-14.55h1.8l1.31,11.87,1.91-8.24h1.91l1.91,8.24,1.31-11.87h1.71l-1.96,14.55h-1.82Z"/>
  <path class="cls-1" d="M175.89,178.21c-1.47,0-2.59-.35-3.37-1.06-.78-.71-1.17-1.73-1.17-3.06v-2.95c0-1.35,.39-2.38,1.18-3.11,.79-.73,1.92-1.09,3.38-1.09s2.57,.36,3.35,1.09,1.17,1.76,1.17,3.11v2.95c0,1.33-.39,2.35-1.17,3.06s-1.91,1.06-3.37,1.06Zm0-1.64c.92,0,1.61-.21,2.05-.62,.45-.41,.67-1.04,.67-1.87v-2.95c0-.87-.22-1.52-.67-1.94-.45-.42-1.13-.63-2.05-.63s-1.61,.21-2.05,.63c-.45,.42-.67,1.06-.67,1.94v2.95c0,.84,.22,1.46,.67,1.87,.45,.41,1.13,.62,2.05,.62Z"/>
  <path class="cls-1" d="M184.98,178.03v-10.91h1.82v1.82h.55c.25-.69,.64-1.2,1.16-1.52,.52-.32,1.15-.48,1.89-.48,.81,0,1.49,.27,2.04,.81,.55,.54,.82,1.3,.82,2.28v1.64h-1.73v-.98c0-.69-.15-1.2-.46-1.53s-.78-.49-1.41-.49c-.57,0-1.09,.14-1.55,.42-.47,.28-.9,.71-1.3,1.31v7.64h-1.82Z"/>
  <path class="cls-1" d="M203.53,176.21c-.32,.63-.75,1.12-1.31,1.47s-1.18,.53-1.87,.53c-1.13,0-2-.36-2.62-1.09s-.93-1.75-.93-3.05v-2.96c0-1.32,.41-2.34,1.24-3.07,.82-.73,1.98-1.09,3.45-1.09,.42,0,.86,.04,1.31,.14,.45,.09,.87,.21,1.27,.37v-3.96h1.82v14.55h-1.82v-1.82h-.55Zm-2.73,.27c.59,0,1.16-.16,1.69-.47,.53-.31,1.06-.79,1.58-1.44v-5.35c-.38-.23-.78-.4-1.2-.52-.42-.12-.88-.17-1.36-.17-.98,0-1.71,.22-2.18,.65-.47,.43-.71,1.08-.71,1.96v2.93c0,.81,.18,1.42,.55,1.82,.36,.4,.91,.6,1.64,.6Z"/>
  <path class="cls-1" d="M214.22,178.21c-.92,0-1.81-.14-2.67-.41-.86-.27-1.65-.69-2.38-1.26l.82-1.44c.59,.49,1.26,.85,1.99,1.1s1.48,.37,2.25,.37c.63,0,1.23-.1,1.81-.29,.58-.19,.86-.6,.86-1.23,0-.52-.24-.89-.71-1.1-.47-.22-1.34-.4-2.6-.56-1.33-.16-2.34-.47-3.03-.94-.68-.47-1.03-1.21-1.03-2.22,0-1.09,.41-1.92,1.24-2.47,.82-.55,1.78-.83,2.87-.83,.86,0,1.69,.15,2.48,.44,.79,.29,1.53,.7,2.21,1.24l-.82,1.44c-.56-.45-1.16-.81-1.82-1.07-.65-.27-1.34-.4-2.05-.4-.58,0-1.11,.11-1.59,.33-.48,.22-.72,.62-.72,1.2,0,.5,.22,.86,.66,1.08,.44,.22,1.29,.42,2.55,.57,1.38,.16,2.42,.49,3.11,1.01,.69,.52,1.04,1.23,1.04,2.15,0,1.14-.46,1.97-1.38,2.5-.92,.53-1.95,.79-3.09,.79Z"/>
  <path class="cls-4" d="M234.44,170.03v-1.82h10.18v1.82h-10.18Zm0,5.09v-1.82h10.18v1.82h-10.18Z"/>
  <path class="cls-1" d="M265.13,178.21c-.92,0-1.81-.14-2.67-.41-.86-.27-1.65-.69-2.38-1.26l.82-1.44c.59,.49,1.26,.85,1.99,1.1s1.48,.37,2.25,.37c.63,0,1.23-.1,1.81-.29,.58-.19,.86-.6,.86-1.23,0-.52-.24-.89-.71-1.1-.47-.22-1.34-.4-2.6-.56-1.33-.16-2.34-.47-3.03-.94-.68-.47-1.03-1.21-1.03-2.22,0-1.09,.41-1.92,1.24-2.47,.82-.55,1.78-.83,2.87-.83,.86,0,1.69,.15,2.48,.44,.79,.29,1.53,.7,2.21,1.24l-.82,1.44c-.56-.45-1.16-.81-1.82-1.07-.65-.27-1.34-.4-2.05-.4-.58,0-1.11,.11-1.59,.33-.48,.22-.72,.62-.72,1.2,0,.5,.22,.86,.66,1.08,.44,.22,1.29,.42,2.55,.57,1.38,.16,2.42,.49,3.11,1.01,.69,.52,1.04,1.23,1.04,2.15,0,1.14-.46,1.97-1.38,2.5-.92,.53-1.95,.79-3.09,.79Z"/>
  <path class="cls-1" d="M279.51,178.19c-1.2,0-2.13-.3-2.8-.89-.67-.59-1-1.5-1-2.73v-5.82h-3.09v-1.64h3.09v-3.64h1.82v3.64h4.73v1.64h-4.73v5.65c0,.7,.18,1.22,.53,1.56,.35,.34,.87,.51,1.56,.51,.46,0,.89-.03,1.29-.1,.4-.07,.78-.15,1.15-.26l.36,1.65c-.41,.12-.85,.22-1.32,.3-.47,.08-1,.12-1.59,.12Z"/>
  <path class="cls-1" d="M286.8,178.03v-10.91h1.82v1.82h.55c.25-.69,.64-1.2,1.16-1.52,.52-.32,1.15-.48,1.89-.48,.81,0,1.49,.27,2.04,.81,.55,.54,.82,1.3,.82,2.28v1.64h-1.73v-.98c0-.69-.15-1.2-.46-1.53s-.78-.49-1.41-.49c-.57,0-1.09,.14-1.55,.42-.47,.28-.9,.71-1.3,1.31v7.64h-1.82Z"/>
  <path class="cls-1" d="M298.62,178.03v-1.64h3.64v-7.64h-3.64v-1.64h5.45v9.27h3.64v1.64h-9.09Zm4.55-12.91c-.46,0-.83-.07-1.12-.22-.29-.15-.43-.42-.43-.82v-.13c0-.41,.14-.69,.43-.85,.28-.15,.66-.23,1.12-.23s.83,.08,1.12,.23c.28,.15,.43,.43,.43,.85v.13c0,.4-.15,.67-.44,.82s-.66,.22-1.11,.22Z"/>
  <path class="cls-1" d="M311.35,178.03v-10.91h1.82v1.82h.55c.27-.62,.69-1.11,1.25-1.46,.57-.36,1.22-.54,1.95-.54,1.09,0,1.95,.33,2.58,1,.63,.67,.95,1.58,.95,2.73v7.36h-1.82v-7c0-.76-.19-1.35-.55-1.75-.37-.41-.9-.61-1.59-.61-.55,0-1.1,.16-1.66,.49s-1.11,.8-1.65,1.42v7.45h-1.82Z"/>
  <path class="cls-1" d="M334.07,178.9c0,.98-.36,1.72-1.08,2.21-.72,.49-1.6,.74-2.65,.74h-3.42c-1.09,0-1.99-.22-2.7-.65-.71-.44-1.06-1.11-1.06-2.02,0-.58,.15-1.05,.46-1.39,.31-.35,.76-.54,1.35-.59v-.38c-.42-.07-.77-.25-1.05-.53-.27-.28-.41-.71-.41-1.29,0-.52,.16-.99,.49-1.4,.33-.42,.88-.65,1.65-.71v-.34c-.59-.19-.99-.49-1.2-.88-.21-.4-.31-.78-.31-1.14v-.49c0-.84,.36-1.53,1.07-2.08,.71-.55,1.72-.82,3.02-.82h5.36v1.64l-2.82-.42v.33c.48,.13,.85,.39,1.1,.76,.25,.38,.37,.75,.37,1.13v.47c0,.84-.32,1.51-.96,2.03-.64,.52-1.69,.77-3.13,.77h-2.2c-.33,0-.58,.08-.75,.25-.17,.16-.25,.44-.25,.83s.12,.66,.35,.84c.24,.19,.59,.28,1.06,.28h4.13c1.02,0,1.86,.22,2.54,.67s1.01,1.18,1.01,2.2Zm-7.18,1.47h3.69c.55,0,.99-.1,1.33-.31,.34-.21,.51-.56,.51-1.07s-.15-.83-.46-1.03-.71-.31-1.19-.31h-5.78v1.23c0,.49,.16,.86,.49,1.11,.33,.25,.8,.37,1.42,.37Zm1.36-7.91c.74,0,1.3-.13,1.69-.4,.39-.27,.58-.69,.58-1.26v-.58c0-.57-.19-.99-.58-1.25-.39-.26-.95-.39-1.69-.39s-1.3,.13-1.69,.39c-.39,.26-.58,.68-.58,1.25v.58c0,.57,.19,.99,.58,1.26,.39,.27,.95,.4,1.69,.4Z"/>
  <path class="cls-4" d="M341.36,178.21c-.61,0-1.1-.14-1.47-.41-.38-.27-.56-.71-.56-1.3v-.51c0-.59,.19-1.03,.56-1.32,.38-.29,.87-.43,1.47-.43s1.09,.14,1.46,.43,.55,.72,.55,1.32v.51c0,.59-.19,1.03-.56,1.3-.38,.27-.86,.41-1.45,.41Z"/>
  <path class="cls-5" d="M354.22,178.21c-.92,0-1.81-.14-2.67-.41-.86-.27-1.65-.69-2.38-1.26l.82-1.44c.59,.49,1.26,.85,1.99,1.1s1.48,.37,2.25,.37c.63,0,1.23-.1,1.81-.29,.58-.19,.86-.6,.86-1.23,0-.52-.24-.89-.71-1.1-.47-.22-1.34-.4-2.6-.56-1.33-.16-2.34-.47-3.03-.94-.68-.47-1.03-1.21-1.03-2.22,0-1.09,.41-1.92,1.24-2.47,.82-.55,1.78-.83,2.87-.83,.86,0,1.69,.15,2.48,.44,.79,.29,1.53,.7,2.21,1.24l-.82,1.44c-.56-.45-1.16-.81-1.82-1.07-.65-.27-1.34-.4-2.05-.4-.58,0-1.11,.11-1.59,.33-.48,.22-.72,.62-.72,1.2,0,.5,.22,.86,.66,1.08,.44,.22,1.29,.42,2.55,.57,1.38,.16,2.42,.49,3.11,1.01,.69,.52,1.04,1.23,1.04,2.15,0,1.14-.46,1.97-1.38,2.5-.92,.53-1.95,.79-3.09,.79Z"/>
  <path class="cls-5" d="M366.65,178.21c-.41,0-.85-.04-1.3-.14-.45-.09-.88-.22-1.28-.37v3.96h-1.82v-14.55h1.82v1.82h.55c.3-.62,.74-1.11,1.32-1.46s1.2-.54,1.86-.54c1.09,0,1.95,.37,2.59,1.12s.95,1.75,.95,3.03v2.96c0,1.28-.42,2.3-1.26,3.04-.84,.75-1.98,1.12-3.43,1.12Zm-.02-1.6c1.02,0,1.75-.21,2.21-.62s.68-1.07,.68-1.98v-2.95c0-.84-.17-1.45-.52-1.83-.35-.38-.9-.57-1.66-.57-.61,0-1.17,.15-1.69,.45-.52,.3-1.05,.79-1.58,1.46v5.34c.38,.23,.77,.4,1.17,.52,.41,.12,.87,.17,1.39,.17Z"/>
  <path class="cls-5" d="M374.98,178.03v-1.64h3.64v-11.27h-3.64v-1.64h5.45v12.91h3.64v1.64h-9.09Z"/>
  <path class="cls-5" d="M387.71,178.03v-1.64h3.64v-7.64h-3.64v-1.64h5.45v9.27h3.64v1.64h-9.09Zm4.55-12.91c-.46,0-.83-.07-1.12-.22-.29-.15-.43-.42-.43-.82v-.13c0-.41,.14-.69,.43-.85,.28-.15,.66-.23,1.12-.23s.83,.08,1.12,.23c.28,.15,.43,.43,.43,.85v.13c0,.4-.15,.67-.44,.82s-.66,.22-1.11,.22Z"/>
  <path class="cls-5" d="M406.78,178.19c-1.2,0-2.13-.3-2.8-.89-.67-.59-1-1.5-1-2.73v-5.82h-3.09v-1.64h3.09v-3.64h1.82v3.64h4.73v1.64h-4.73v5.65c0,.7,.18,1.22,.53,1.56,.35,.34,.87,.51,1.56,.51,.46,0,.89-.03,1.29-.1,.4-.07,.78-.15,1.15-.26l.36,1.65c-.41,.12-.85,.22-1.32,.3-.47,.08-1,.12-1.59,.12Z"/>
  <path class="cls-4" d="M421.34,181.85c-1.9-.45-3.44-1.49-4.61-3.11-1.17-1.62-1.75-3.68-1.75-6.16s.58-4.54,1.75-6.16c1.17-1.62,2.71-2.66,4.61-3.11l.18,1.42c-1.62,.45-2.82,1.39-3.58,2.81-.76,1.42-1.15,3.11-1.15,5.05s.38,3.62,1.15,5.04,1.96,2.36,3.58,2.81l-.18,1.42Z"/>
  <path class="cls-4" d="M426.8,170.76l-.55-7.27h2.91l-.55,7.27h-1.82Zm5.45,0l-.55-7.27h2.91l-.55,7.27h-1.82Z"/>
  <path class="cls-4" d="M452.25,170.76l-.55-7.27h2.91l-.55,7.27h-1.82Zm5.45,0l-.55-7.27h2.91l-.55,7.27h-1.82Z"/>
  <path class="cls-4" d="M464.98,181.85l-.18-1.42c1.62-.45,2.82-1.39,3.58-2.83,.76-1.44,1.15-3.11,1.15-5.03s-.38-3.59-1.15-5.03c-.76-1.44-1.96-2.38-3.58-2.83l.18-1.42c1.9,.45,3.44,1.49,4.61,3.12,1.17,1.63,1.75,3.68,1.75,6.16s-.58,4.52-1.75,6.15c-1.17,1.63-2.71,2.67-4.61,3.12Z"/>
  <path class="cls-4" d="M478.62,181.67l1.64-7.27h3.62l-3.73,7.27h-1.53Zm2.75-10.73c-.61,0-1.1-.12-1.47-.37-.38-.25-.56-.63-.56-1.15v-.87c0-.53,.19-.93,.56-1.18,.38-.25,.87-.38,1.47-.38s1.09,.13,1.46,.38,.55,.65,.55,1.18v.87c0,.52-.19,.91-.56,1.15-.38,.25-.86,.37-1.45,.37Z"/>
  <path class="cls-3" d="M34.08,202.03v-9.27h-3.09v-1.64h3.09v-.73c0-.98,.38-1.74,1.15-2.28,.77-.54,1.72-.81,2.86-.81,.56,0,1.06,.05,1.5,.15,.44,.1,.84,.21,1.19,.33l-.36,1.53c-.27-.08-.59-.17-.97-.25s-.83-.12-1.35-.12c-.67,0-1.2,.11-1.6,.34-.4,.22-.6,.59-.6,1.1v.75h4.55v1.64h-4.55v9.27h-1.82Z"/>
  <path class="cls-3" d="M48.62,202.21c-1.47,0-2.59-.35-3.37-1.06-.78-.71-1.17-1.73-1.17-3.06v-2.95c0-1.35,.39-2.38,1.18-3.11,.79-.73,1.92-1.09,3.38-1.09s2.57,.36,3.35,1.09,1.17,1.76,1.17,3.11v2.95c0,1.33-.39,2.35-1.17,3.06s-1.91,1.06-3.37,1.06Zm0-1.64c.92,0,1.61-.21,2.05-.62,.45-.41,.67-1.04,.67-1.87v-2.95c0-.87-.22-1.52-.67-1.94-.45-.42-1.13-.63-2.05-.63s-1.61,.21-2.05,.63c-.45,.42-.67,1.06-.67,1.94v2.95c0,.84,.22,1.46,.67,1.87,.45,.41,1.13,.62,2.05,.62Z"/>
  <path class="cls-3" d="M57.71,202.03v-10.91h1.82v1.82h.55c.25-.69,.64-1.2,1.16-1.52,.52-.32,1.15-.48,1.89-.48,.81,0,1.49,.27,2.04,.81,.55,.54,.82,1.3,.82,2.28v1.64h-1.73v-.98c0-.69-.15-1.2-.46-1.53s-.78-.49-1.41-.49c-.57,0-1.09,.14-1.55,.42-.47,.28-.9,.71-1.3,1.31v7.64h-1.82Z"/>
  <path class="cls-4" d="M90.44,205.85c-1.9-.45-3.44-1.49-4.61-3.11-1.17-1.62-1.75-3.68-1.75-6.16s.58-4.54,1.75-6.16c1.17-1.62,2.71-2.66,4.61-3.11l.18,1.42c-1.62,.45-2.82,1.39-3.58,2.81-.76,1.42-1.15,3.11-1.15,5.05s.38,3.62,1.15,5.04,1.96,2.36,3.58,2.81l-.18,1.42Z"/>
  <path class="cls-5" d="M94.99,202.03v-1.64h3.64v-11.27h-3.64v-1.64h5.45v12.91h3.64v1.64h-9.09Z"/>
  <path class="cls-5" d="M116.84,199.63c-.33,.91-.82,1.57-1.49,1.97-.67,.41-1.69,.61-3.07,.61s-2.56-.35-3.36-1.04c-.8-.7-1.2-1.73-1.2-3.1v-2.93c0-1.41,.42-2.46,1.26-3.16,.84-.7,1.94-1.04,3.3-1.04s2.47,.35,3.29,1.06c.82,.71,1.24,1.8,1.24,3.26v1.67h-7.27v1.15c0,.91,.23,1.57,.68,1.97s1.14,.61,2.05,.61,1.51-.12,1.91-.36c.4-.24,.7-.64,.91-1.18l1.76,.51Zm-7.31-4.49v.44h5.45v-.27c0-.98-.23-1.7-.68-2.15-.45-.45-1.14-.67-2.05-.67s-1.59,.22-2.05,.65c-.45,.43-.68,1.1-.68,2.01Z"/>
  <path class="cls-5" d="M126.78,202.19c-1.2,0-2.13-.3-2.8-.89-.67-.59-1-1.5-1-2.73v-5.82h-3.09v-1.64h3.09v-3.64h1.82v3.64h4.73v1.64h-4.73v5.65c0,.7,.18,1.22,.53,1.56,.35,.34,.87,.51,1.56,.51,.46,0,.89-.03,1.29-.1,.4-.07,.78-.15,1.15-.26l.36,1.65c-.41,.12-.85,.22-1.32,.3-.47,.08-1,.12-1.59,.12Z"/>
  <path class="cls-4" d="M145.89,202.03v-1.64h3.64v-7.64h-3.64v-1.64h5.45v9.27h3.64v1.64h-9.09Zm4.55-12.91c-.46,0-.83-.07-1.12-.22-.29-.15-.43-.42-.43-.82v-.13c0-.41,.14-.69,.43-.85,.28-.15,.66-.23,1.12-.23s.83,.08,1.12,.23c.28,.15,.43,.43,.43,.85v.13c0,.4-.15,.67-.44,.82s-.66,.22-1.11,.22Z"/>
  <path class="cls-4" d="M158.08,194.03v-1.82h10.18v1.82h-10.18Zm0,5.09v-1.82h10.18v1.82h-10.18Z"/>
  <path class="cls-4" d="M175.89,202.21c-1.6,0-2.82-.54-3.65-1.61-.84-1.07-1.25-2.64-1.25-4.7v-2.22c0-2.08,.42-3.67,1.25-4.75s2.06-1.63,3.67-1.63,2.81,.54,3.65,1.63c.83,1.08,1.25,2.67,1.25,4.75v2.22c0,2.06-.42,3.63-1.25,4.7-.84,1.07-2.05,1.61-3.65,1.61Zm0-1.64c1.1,0,1.89-.36,2.37-1.09,.48-.73,.72-1.92,.72-3.58v-2.22c0-1.7-.24-2.91-.72-3.65-.48-.73-1.27-1.1-2.37-1.1s-1.89,.37-2.37,1.1-.72,1.95-.72,3.65v2.22c0,1.66,.24,2.85,.72,3.58,.48,.73,1.27,1.09,2.37,1.09Zm0-4.4c-.39,0-.7-.07-.95-.2-.24-.13-.36-.39-.36-.76v-.89c0-.36,.12-.62,.36-.75,.24-.14,.56-.21,.95-.21s.7,.07,.94,.21c.24,.14,.35,.39,.35,.75v.89c0,.38-.12,.63-.36,.76-.24,.13-.55,.2-.93,.2Z"/>
  <path class="cls-4" d="M185.89,205.67l1.64-7.27h3.62l-3.73,7.27h-1.53Zm2.75-10.73c-.61,0-1.1-.12-1.47-.37-.38-.25-.56-.63-.56-1.15v-.87c0-.53,.19-.93,.56-1.18,.38-.25,.87-.38,1.47-.38s1.09,.13,1.46,.38,.55,.65,.55,1.18v.87c0,.52-.19,.91-.56,1.15-.38,.25-.86,.37-1.45,.37Z"/>
  <path class="cls-4" d="M209.53,202.03v-1.64h3.64v-7.64h-3.64v-1.64h5.45v9.27h3.64v1.64h-9.09Zm4.55-12.91c-.46,0-.83-.07-1.12-.22-.29-.15-.43-.42-.43-.82v-.13c0-.41,.14-.69,.43-.85,.28-.15,.66-.23,1.12-.23s.83,.08,1.12,.23c.28,.15,.43,.43,.43,.85v.13c0,.4-.15,.67-.44,.82s-.66,.22-1.11,.22Z"/>
  <path class="cls-4" d="M231.35,201.67l-9.09-5.09v-1.82l9.09-5.09v1.73l-7.64,4.27,7.64,4.27v1.73Z"/>
  <path class="cls-1" d="M239.67,202.21c-.92,0-1.81-.14-2.67-.41-.86-.27-1.65-.69-2.38-1.26l.82-1.44c.59,.49,1.26,.85,1.99,1.1s1.48,.37,2.25,.37c.63,0,1.23-.1,1.81-.29,.58-.19,.86-.6,.86-1.23,0-.52-.24-.89-.71-1.1-.47-.22-1.34-.4-2.6-.56-1.33-.16-2.34-.47-3.03-.94-.68-.47-1.03-1.21-1.03-2.22,0-1.09,.41-1.92,1.24-2.47,.82-.55,1.78-.83,2.87-.83,.86,0,1.69,.15,2.48,.44,.79,.29,1.53,.7,2.21,1.24l-.82,1.44c-.56-.45-1.16-.81-1.82-1.07-.65-.27-1.34-.4-2.05-.4-.58,0-1.11,.11-1.59,.33-.48,.22-.72,.62-.72,1.2,0,.5,.22,.86,.66,1.08,.44,.22,1.29,.42,2.55,.57,1.38,.16,2.42,.49,3.11,1.01,.69,.52,1.04,1.23,1.04,2.15,0,1.14-.46,1.97-1.38,2.5-.92,.53-1.95,.79-3.09,.79Z"/>
  <path class="cls-1" d="M247.71,202.03v-1.64h3.64v-7.64h-3.64v-1.64h5.45v9.27h3.64v1.64h-9.09Zm4.55-12.91c-.46,0-.83-.07-1.12-.22-.29-.15-.43-.42-.43-.82v-.13c0-.41,.14-.69,.43-.85,.28-.15,.66-.23,1.12-.23s.83,.08,1.12,.23c.28,.15,.43,.43,.43,.85v.13c0,.4-.15,.67-.44,.82s-.66,.22-1.11,.22Z"/>
  <path class="cls-1" d="M260.44,202.03v-10.91h1.82v1.82h.55c.27-.62,.69-1.11,1.25-1.46,.57-.36,1.22-.54,1.95-.54,1.09,0,1.95,.33,2.58,1,.63,.67,.95,1.58,.95,2.73v7.36h-1.82v-7c0-.76-.19-1.35-.55-1.75-.37-.41-.9-.61-1.59-.61-.55,0-1.1,.16-1.66,.49s-1.11,.8-1.65,1.42v7.45h-1.82Z"/>
  <path class="cls-1" d="M283.16,202.9c0,.98-.36,1.72-1.08,2.21-.72,.49-1.6,.74-2.65,.74h-3.42c-1.09,0-1.99-.22-2.7-.65-.71-.44-1.06-1.11-1.06-2.02,0-.58,.15-1.05,.46-1.39,.31-.35,.76-.54,1.35-.59v-.38c-.42-.07-.77-.25-1.05-.53-.27-.28-.41-.71-.41-1.29,0-.52,.16-.99,.49-1.4,.33-.42,.88-.65,1.65-.71v-.34c-.59-.19-.99-.49-1.2-.88-.21-.4-.31-.78-.31-1.14v-.49c0-.84,.36-1.53,1.07-2.08,.71-.55,1.72-.82,3.02-.82h5.36v1.64l-2.82-.42v.33c.48,.13,.85,.39,1.1,.76,.25,.38,.37,.75,.37,1.13v.47c0,.84-.32,1.51-.96,2.03-.64,.52-1.69,.77-3.13,.77h-2.2c-.33,0-.58,.08-.75,.25-.17,.16-.25,.44-.25,.83s.12,.66,.35,.84c.24,.19,.59,.28,1.06,.28h4.13c1.02,0,1.86,.22,2.54,.67s1.01,1.18,1.01,2.2Zm-7.18,1.47h3.69c.55,0,.99-.1,1.33-.31,.34-.21,.51-.56,.51-1.07s-.15-.83-.46-1.03-.71-.31-1.19-.31h-5.78v1.23c0,.49,.16,.86,.49,1.11,.33,.25,.8,.37,1.42,.37Zm1.36-7.91c.74,0,1.3-.13,1.69-.4,.39-.27,.58-.69,.58-1.26v-.58c0-.57-.19-.99-.58-1.25-.39-.26-.95-.39-1.69-.39s-1.3,.13-1.69,.39c-.39,.26-.58,.68-.58,1.25v.58c0,.57,.19,.99,.58,1.26,.39,.27,.95,.4,1.69,.4Z"/>
  <path class="cls-1" d="M285.89,202.03v-1.64h3.64v-11.27h-3.64v-1.64h5.45v12.91h3.64v1.64h-9.09Z"/>
  <path class="cls-1" d="M307.75,199.63c-.33,.91-.82,1.57-1.49,1.97-.67,.41-1.69,.61-3.07,.61s-2.56-.35-3.36-1.04c-.8-.7-1.2-1.73-1.2-3.1v-2.93c0-1.41,.42-2.46,1.26-3.16,.84-.7,1.94-1.04,3.3-1.04s2.47,.35,3.29,1.06c.82,.71,1.24,1.8,1.24,3.26v1.67h-7.27v1.15c0,.91,.23,1.57,.68,1.97s1.14,.61,2.05,.61,1.51-.12,1.91-.36c.4-.24,.7-.64,.91-1.18l1.76,.51Zm-7.31-4.49v.44h5.45v-.27c0-.98-.23-1.7-.68-2.15-.45-.45-1.14-.67-2.05-.67s-1.59,.22-2.05,.65c-.45,.43-.68,1.1-.68,2.01Z"/>
  <path class="cls-1" d="M318.04,202.03l-2.15-8.67-2.15,8.67h-1.82l-1.96-14.55h1.8l1.31,11.87,1.91-8.24h1.91l1.91,8.24,1.31-11.87h1.71l-1.96,14.55h-1.82Z"/>
  <path class="cls-1" d="M328.62,202.21c-1.47,0-2.59-.35-3.37-1.06-.78-.71-1.17-1.73-1.17-3.06v-2.95c0-1.35,.39-2.38,1.18-3.11,.79-.73,1.92-1.09,3.38-1.09s2.57,.36,3.35,1.09,1.17,1.76,1.17,3.11v2.95c0,1.33-.39,2.35-1.17,3.06s-1.91,1.06-3.37,1.06Zm0-1.64c.92,0,1.61-.21,2.05-.62,.45-.41,.67-1.04,.67-1.87v-2.95c0-.87-.22-1.52-.67-1.94-.45-.42-1.13-.63-2.05-.63s-1.61,.21-2.05,.63c-.45,.42-.67,1.06-.67,1.94v2.95c0,.84,.22,1.46,.67,1.87,.45,.41,1.13,.62,2.05,.62Z"/>
  <path class="cls-1" d="M337.71,202.03v-10.91h1.82v1.82h.55c.25-.69,.64-1.2,1.16-1.52,.52-.32,1.15-.48,1.89-.48,.81,0,1.49,.27,2.04,.81,.55,.54,.82,1.3,.82,2.28v1.64h-1.73v-.98c0-.69-.15-1.2-.46-1.53s-.78-.49-1.41-.49c-.57,0-1.09,.14-1.55,.42-.47,.28-.9,.71-1.3,1.31v7.64h-1.82Z"/>
  <path class="cls-1" d="M356.25,200.21c-.32,.63-.75,1.12-1.31,1.47s-1.18,.53-1.87,.53c-1.13,0-2-.36-2.62-1.09s-.93-1.75-.93-3.05v-2.96c0-1.32,.41-2.34,1.24-3.07,.82-.73,1.98-1.09,3.45-1.09,.42,0,.86,.04,1.31,.14,.45,.09,.87,.21,1.27,.37v-3.96h1.82v14.55h-1.82v-1.82h-.55Zm-2.73,.27c.59,0,1.16-.16,1.69-.47,.53-.31,1.06-.79,1.58-1.44v-5.35c-.38-.23-.78-.4-1.2-.52-.42-.12-.88-.17-1.36-.17-.98,0-1.71,.22-2.18,.65-.47,.43-.71,1.08-.71,1.96v2.93c0,.81,.18,1.42,.55,1.82,.36,.4,.91,.6,1.64,.6Z"/>
  <path class="cls-1" d="M366.94,202.21c-.92,0-1.81-.14-2.67-.41-.86-.27-1.65-.69-2.38-1.26l.82-1.44c.59,.49,1.26,.85,1.99,1.1s1.48,.37,2.25,.37c.63,0,1.23-.1,1.81-.29,.58-.19,.86-.6,.86-1.23,0-.52-.24-.89-.71-1.1-.47-.22-1.34-.4-2.6-.56-1.33-.16-2.34-.47-3.03-.94-.68-.47-1.03-1.21-1.03-2.22,0-1.09,.41-1.92,1.24-2.47,.82-.55,1.78-.83,2.87-.83,.86,0,1.69,.15,2.48,.44,.79,.29,1.53,.7,2.21,1.24l-.82,1.44c-.56-.45-1.16-.81-1.82-1.07-.65-.27-1.34-.4-2.05-.4-.58,0-1.11,.11-1.59,.33-.48,.22-.72,.62-.72,1.2,0,.5,.22,.86,.66,1.08,.44,.22,1.29,.42,2.55,.57,1.38,.16,2.42,.49,3.11,1.01,.69,.52,1.04,1.23,1.04,2.15,0,1.14-.46,1.97-1.38,2.5-.92,.53-1.95,.79-3.09,.79Z"/>
  <path class="cls-4" d="M379.54,202.21c-.61,0-1.1-.14-1.47-.41-.38-.27-.56-.71-.56-1.3v-.51c0-.59,.19-1.03,.56-1.32,.38-.29,.87-.43,1.47-.43s1.09,.14,1.46,.43,.55,.72,.55,1.32v.51c0,.59-.19,1.03-.56,1.3-.38,.27-.86,.41-1.45,.41Z"/>
  <path class="cls-5" d="M387.71,202.03v-1.64h3.64v-11.27h-3.64v-1.64h5.45v12.91h3.64v1.64h-9.09Z"/>
  <path class="cls-5" d="M409.56,199.63c-.33,.91-.82,1.57-1.49,1.97-.67,.41-1.69,.61-3.07,.61s-2.56-.35-3.36-1.04c-.8-.7-1.2-1.73-1.2-3.1v-2.93c0-1.41,.42-2.46,1.26-3.16,.84-.7,1.94-1.04,3.3-1.04s2.47,.35,3.29,1.06c.82,.71,1.24,1.8,1.24,3.26v1.67h-7.27v1.15c0,.91,.23,1.57,.68,1.97s1.14,.61,2.05,.61,1.51-.12,1.91-.36c.4-.24,.7-.64,.91-1.18l1.76,.51Zm-7.31-4.49v.44h5.45v-.27c0-.98-.23-1.7-.68-2.15-.45-.45-1.14-.67-2.05-.67s-1.59,.22-2.05,.65c-.45,.43-.68,1.1-.68,2.01Z"/>
  <path class="cls-5" d="M413.16,202.03v-10.91h1.82v1.82h.55c.27-.62,.69-1.11,1.25-1.46,.57-.36,1.22-.54,1.95-.54,1.09,0,1.95,.33,2.58,1,.63,.67,.95,1.58,.95,2.73v7.36h-1.82v-7c0-.76-.19-1.35-.55-1.75-.37-.41-.9-.61-1.59-.61-.55,0-1.1,.16-1.66,.49s-1.11,.8-1.65,1.42v7.45h-1.82Z"/>
  <path class="cls-5" d="M435.89,202.9c0,.98-.36,1.72-1.08,2.21-.72,.49-1.6,.74-2.65,.74h-3.42c-1.09,0-1.99-.22-2.7-.65-.71-.44-1.06-1.11-1.06-2.02,0-.58,.15-1.05,.46-1.39,.31-.35,.76-.54,1.35-.59v-.38c-.42-.07-.77-.25-1.05-.53-.27-.28-.41-.71-.41-1.29,0-.52,.16-.99,.49-1.4,.33-.42,.88-.65,1.65-.71v-.34c-.59-.19-.99-.49-1.2-.88-.21-.4-.31-.78-.31-1.14v-.49c0-.84,.36-1.53,1.07-2.08,.71-.55,1.72-.82,3.02-.82h5.36v1.64l-2.82-.42v.33c.48,.13,.85,.39,1.1,.76,.25,.38,.37,.75,.37,1.13v.47c0,.84-.32,1.51-.96,2.03-.64,.52-1.69,.77-3.13,.77h-2.2c-.33,0-.58,.08-.75,.25-.17,.16-.25,.44-.25,.83s.12,.66,.35,.84c.24,.19,.59,.28,1.06,.28h4.13c1.02,0,1.86,.22,2.54,.67s1.01,1.18,1.01,2.2Zm-7.18,1.47h3.69c.55,0,.99-.1,1.33-.31,.34-.21,.51-.56,.51-1.07s-.15-.83-.46-1.03-.71-.31-1.19-.31h-5.78v1.23c0,.49,.16,.86,.49,1.11,.33,.25,.8,.37,1.42,.37Zm1.36-7.91c.74,0,1.3-.13,1.69-.4,.39-.27,.58-.69,.58-1.26v-.58c0-.57-.19-.99-.58-1.25-.39-.26-.95-.39-1.69-.39s-1.3,.13-1.69,.39c-.39,.26-.58,.68-.58,1.25v.58c0,.57,.19,.99,.58,1.26,.39,.27,.95,.4,1.69,.4Z"/>
  <path class="cls-5" d="M444.96,202.19c-1.2,0-2.13-.3-2.8-.89-.67-.59-1-1.5-1-2.73v-5.82h-3.09v-1.64h3.09v-3.64h1.82v3.64h4.73v1.64h-4.73v5.65c0,.7,.18,1.22,.53,1.56,.35,.34,.87,.51,1.56,.51,.46,0,.89-.03,1.29-.1,.4-.07,.78-.15,1.15-.26l.36,1.65c-.41,.12-.85,.22-1.32,.3-.47,.08-1,.12-1.59,.12Z"/>
  <path class="cls-5" d="M451.34,202.03v-14.55h1.82v5.46h.55c.27-.62,.69-1.11,1.25-1.46,.57-.36,1.22-.54,1.95-.54,1.09,0,1.95,.33,2.58,1,.63,.67,.95,1.57,.95,2.71v7.38h-1.82v-7c0-.76-.19-1.35-.55-1.75-.37-.41-.9-.61-1.59-.61-.55,0-1.1,.16-1.66,.49s-1.11,.8-1.65,1.42v7.45h-1.82Z"/>
  <path class="cls-4" d="M465.89,205.67l1.64-7.27h3.62l-3.73,7.27h-1.53Zm2.75-10.73c-.61,0-1.1-.12-1.47-.37-.38-.25-.56-.63-.56-1.15v-.87c0-.53,.19-.93,.56-1.18,.38-.25,.87-.38,1.47-.38s1.09,.13,1.46,.38,.55,.65,.55,1.18v.87c0,.52-.19,.91-.56,1.15-.38,.25-.86,.37-1.45,.37Z"/>
  <path class="cls-4" d="M489.52,202.03v-1.64h3.64v-7.64h-3.64v-1.64h5.45v9.27h3.64v1.64h-9.09Zm4.55-12.91c-.46,0-.83-.07-1.12-.22-.29-.15-.43-.42-.43-.82v-.13c0-.41,.14-.69,.43-.85,.28-.15,.66-.23,1.12-.23s.83,.08,1.12,.23c.28,.15,.43,.43,.43,.85v.13c0,.4-.15,.67-.44,.82s-.66,.22-1.11,.22Z"/>
  <path class="cls-4" d="M505.89,201.3v-4.73h-4.18v-1.82h4.18v-4.73h1.82v4.73h4.18v1.82h-4.18v4.73h-1.82Z"/>
  <path class="cls-4" d="M518.61,201.3v-4.73h-4.18v-1.82h4.18v-4.73h1.82v4.73h4.18v1.82h-4.18v4.73h-1.82Z"/>
  <path class="cls-4" d="M528.61,205.85l-.18-1.42c1.62-.45,2.82-1.39,3.58-2.83,.76-1.44,1.15-3.11,1.15-5.03s-.38-3.59-1.15-5.03c-.76-1.44-1.96-2.38-3.58-2.83l.18-1.42c1.9,.45,3.44,1.49,4.61,3.12,1.17,1.63,1.75,3.68,1.75,6.16s-.58,4.52-1.75,6.15c-1.17,1.63-2.71,2.67-4.61,3.12Z"/>
  <path class="cls-4" d="M561.34,205.85c-2.55,.05-4.39-.18-5.55-.68-1.15-.5-1.73-1.28-1.73-2.34,0-.61,.12-1.12,.37-1.53,.25-.41,.52-.77,.81-1.07,.3-.3,.58-.59,.82-.85,.24-.27,.36-.55,.36-.85,0-.57-.3-.97-.91-1.21s-1.7-.37-3.27-.41v-1.09c1.58-.04,2.67-.17,3.27-.4s.91-.62,.91-1.18c0-.3-.12-.56-.36-.77-.24-.21-.52-.45-.82-.72-.29-.27-.56-.59-.81-.96-.25-.38-.37-.87-.37-1.49,0-1.03,.58-1.8,1.73-2.3,1.15-.5,3-.73,5.55-.68v1.64c-2.05-.04-3.47,.07-4.26,.33s-1.19,.67-1.19,1.24c0,.24,.09,.49,.26,.75,.18,.25,.49,.59,.94,1,.44,.4,.74,.74,.91,1.03,.17,.29,.25,.6,.25,.94,0,.68-.3,1.19-.9,1.54-.6,.35-1.46,.54-2.59,.59v.09c1.13,.12,1.99,.38,2.59,.76,.6,.39,.9,.93,.9,1.64,0,.3-.09,.59-.27,.87-.18,.28-.5,.63-.96,1.05-.42,.36-.72,.68-.88,.94s-.25,.56-.25,.9c0,.61,.4,1.04,1.19,1.31s2.22,.38,4.26,.34v1.6Z"/>
  <path class="cls-3" d="M56.8,226.03v-1.64h3.64v-7.64h-3.64v-1.64h5.45v9.27h3.64v1.64h-9.09Zm4.55-12.91c-.46,0-.83-.07-1.12-.22-.29-.15-.43-.42-.43-.82v-.13c0-.41,.14-.69,.43-.85,.28-.15,.66-.23,1.12-.23s.83,.08,1.12,.23c.28,.15,.43,.43,.43,.85v.13c0,.4-.15,.67-.44,.82s-.66,.22-1.11,.22Z"/>
  <path class="cls-3" d="M72.26,226.03v-9.27h-3.09v-1.64h3.09v-.73c0-.98,.38-1.74,1.15-2.28,.77-.54,1.72-.81,2.86-.81,.56,0,1.06,.05,1.5,.15,.44,.1,.84,.21,1.19,.33l-.36,1.53c-.27-.08-.59-.17-.97-.25s-.83-.12-1.35-.12c-.67,0-1.2,.11-1.6,.34-.4,.22-.6,.59-.6,1.1v.75h4.55v1.64h-4.55v9.27h-1.82Z"/>
  <path class="cls-4" d="M103.17,229.85c-1.9-.45-3.44-1.49-4.61-3.11-1.17-1.62-1.75-3.68-1.75-6.16s.58-4.54,1.75-6.16c1.17-1.62,2.71-2.66,4.61-3.11l.18,1.42c-1.62,.45-2.82,1.39-3.58,2.81-.76,1.42-1.15,3.11-1.15,5.05s.38,3.62,1.15,5.04,1.96,2.36,3.58,2.81l-.18,1.42Z"/>
  <path class="cls-1" d="M112.4,226.21c-.92,0-1.81-.14-2.67-.41-.86-.27-1.65-.69-2.38-1.26l.82-1.44c.59,.49,1.26,.85,1.99,1.1s1.48,.37,2.25,.37c.63,0,1.23-.1,1.81-.29,.58-.19,.86-.6,.86-1.23,0-.52-.24-.89-.71-1.1-.47-.22-1.34-.4-2.6-.56-1.33-.16-2.34-.47-3.03-.94-.68-.47-1.03-1.21-1.03-2.22,0-1.09,.41-1.92,1.24-2.47,.82-.55,1.78-.83,2.87-.83,.86,0,1.69,.15,2.48,.44,.79,.29,1.53,.7,2.21,1.24l-.82,1.44c-.56-.45-1.16-.81-1.82-1.07-.65-.27-1.34-.4-2.05-.4-.58,0-1.11,.11-1.59,.33-.48,.22-.72,.62-.72,1.2,0,.5,.22,.86,.66,1.08,.44,.22,1.29,.42,2.55,.57,1.38,.16,2.42,.49,3.11,1.01,.69,.52,1.04,1.23,1.04,2.15,0,1.14-.46,1.97-1.38,2.5-.92,.53-1.95,.79-3.09,.79Z"/>
  <path class="cls-1" d="M120.44,226.03v-1.64h3.64v-7.64h-3.64v-1.64h5.45v9.27h3.64v1.64h-9.09Zm4.55-12.91c-.46,0-.83-.07-1.12-.22-.29-.15-.43-.42-.43-.82v-.13c0-.41,.14-.69,.43-.85,.28-.15,.66-.23,1.12-.23s.83,.08,1.12,.23c.28,.15,.43,.43,.43,.85v.13c0,.4-.15,.67-.44,.82s-.66,.22-1.11,.22Z"/>
  <path class="cls-1" d="M133.17,226.03v-10.91h1.82v1.82h.55c.27-.62,.69-1.11,1.25-1.46,.57-.36,1.22-.54,1.95-.54,1.09,0,1.95,.33,2.58,1,.63,.67,.95,1.58,.95,2.73v7.36h-1.82v-7c0-.76-.19-1.35-.55-1.75-.37-.41-.9-.61-1.59-.61-.55,0-1.1,.16-1.66,.49s-1.11,.8-1.65,1.42v7.45h-1.82Z"/>
  <path class="cls-1" d="M155.89,226.9c0,.98-.36,1.72-1.08,2.21-.72,.49-1.6,.74-2.65,.74h-3.42c-1.09,0-1.99-.22-2.7-.65-.71-.44-1.06-1.11-1.06-2.02,0-.58,.15-1.05,.46-1.39,.31-.35,.76-.54,1.35-.59v-.38c-.42-.07-.77-.25-1.05-.53-.27-.28-.41-.71-.41-1.29,0-.52,.16-.99,.49-1.4,.33-.42,.88-.65,1.65-.71v-.34c-.59-.19-.99-.49-1.2-.88-.21-.4-.31-.78-.31-1.14v-.49c0-.84,.36-1.53,1.07-2.08,.71-.55,1.72-.82,3.02-.82h5.36v1.64l-2.82-.42v.33c.48,.13,.85,.39,1.1,.76,.25,.38,.37,.75,.37,1.13v.47c0,.84-.32,1.51-.96,2.03-.64,.52-1.69,.77-3.13,.77h-2.2c-.33,0-.58,.08-.75,.25-.17,.16-.25,.44-.25,.83s.12,.66,.35,.84c.24,.19,.59,.28,1.06,.28h4.13c1.02,0,1.86,.22,2.54,.67s1.01,1.18,1.01,2.2Zm-7.18,1.47h3.69c.55,0,.99-.1,1.33-.31,.34-.21,.51-.56,.51-1.07s-.15-.83-.46-1.03-.71-.31-1.19-.31h-5.78v1.23c0,.49,.16,.86,.49,1.11,.33,.25,.8,.37,1.42,.37Zm1.36-7.91c.74,0,1.3-.13,1.69-.4,.39-.27,.58-.69,.58-1.26v-.58c0-.57-.19-.99-.58-1.25-.39-.26-.95-.39-1.69-.39s-1.3,.13-1.69,.39c-.39,.26-.58,.68-.58,1.25v.58c0,.57,.19,.99,.58,1.26,.39,.27,.95,.4,1.69,.4Z"/>
  <path class="cls-1" d="M158.62,226.03v-1.64h3.64v-11.27h-3.64v-1.64h5.45v12.91h3.64v1.64h-9.09Z"/>
  <path class="cls-1" d="M180.47,223.63c-.33,.91-.82,1.57-1.49,1.97-.67,.41-1.69,.61-3.07,.61s-2.56-.35-3.36-1.04c-.8-.7-1.2-1.73-1.2-3.1v-2.93c0-1.41,.42-2.46,1.26-3.16,.84-.7,1.94-1.04,3.3-1.04s2.47,.35,3.29,1.06c.82,.71,1.24,1.8,1.24,3.26v1.67h-7.27v1.15c0,.91,.23,1.57,.68,1.97s1.14,.61,2.05,.61,1.51-.12,1.91-.36c.4-.24,.7-.64,.91-1.18l1.76,.51Zm-7.31-4.49v.44h5.45v-.27c0-.98-.23-1.7-.68-2.15-.45-.45-1.14-.67-2.05-.67s-1.59,.22-2.05,.65c-.45,.43-.68,1.1-.68,2.01Z"/>
  <path class="cls-1" d="M190.77,226.03l-2.15-8.67-2.15,8.67h-1.82l-1.96-14.55h1.8l1.31,11.87,1.91-8.24h1.91l1.91,8.24,1.31-11.87h1.71l-1.96,14.55h-1.82Z"/>
  <path class="cls-1" d="M201.35,226.21c-1.47,0-2.59-.35-3.37-1.06-.78-.71-1.17-1.73-1.17-3.06v-2.95c0-1.35,.39-2.38,1.18-3.11,.79-.73,1.92-1.09,3.38-1.09s2.57,.36,3.35,1.09,1.17,1.76,1.17,3.11v2.95c0,1.33-.39,2.35-1.17,3.06s-1.91,1.06-3.37,1.06Zm0-1.64c.92,0,1.61-.21,2.05-.62,.45-.41,.67-1.04,.67-1.87v-2.95c0-.87-.22-1.52-.67-1.94-.45-.42-1.13-.63-2.05-.63s-1.61,.21-2.05,.63c-.45,.42-.67,1.06-.67,1.94v2.95c0,.84,.22,1.46,.67,1.87,.45,.41,1.13,.62,2.05,.62Z"/>
  <path class="cls-1" d="M210.44,226.03v-10.91h1.82v1.82h.55c.25-.69,.64-1.2,1.16-1.52,.52-.32,1.15-.48,1.89-.48,.81,0,1.49,.27,2.04,.81,.55,.54,.82,1.3,.82,2.28v1.64h-1.73v-.98c0-.69-.15-1.2-.46-1.53s-.78-.49-1.41-.49c-.57,0-1.09,.14-1.55,.42-.47,.28-.9,.71-1.3,1.31v7.64h-1.82Z"/>
  <path class="cls-1" d="M228.98,224.21c-.32,.63-.75,1.12-1.31,1.47s-1.18,.53-1.87,.53c-1.13,0-2-.36-2.62-1.09s-.93-1.75-.93-3.05v-2.96c0-1.32,.41-2.34,1.24-3.07,.82-.73,1.98-1.09,3.45-1.09,.42,0,.86,.04,1.31,.14,.45,.09,.87,.21,1.27,.37v-3.96h1.82v14.55h-1.82v-1.82h-.55Zm-2.73,.27c.59,0,1.16-.16,1.69-.47,.53-.31,1.06-.79,1.58-1.44v-5.35c-.38-.23-.78-.4-1.2-.52-.42-.12-.88-.17-1.36-.17-.98,0-1.71,.22-2.18,.65-.47,.43-.71,1.08-.71,1.96v2.93c0,.81,.18,1.42,.55,1.82,.36,.4,.91,.6,1.64,.6Z"/>
  <path class="cls-1" d="M239.67,226.21c-.92,0-1.81-.14-2.67-.41-.86-.27-1.65-.69-2.38-1.26l.82-1.44c.59,.49,1.26,.85,1.99,1.1s1.48,.37,2.25,.37c.63,0,1.23-.1,1.81-.29,.58-.19,.86-.6,.86-1.23,0-.52-.24-.89-.71-1.1-.47-.22-1.34-.4-2.6-.56-1.33-.16-2.34-.47-3.03-.94-.68-.47-1.03-1.21-1.03-2.22,0-1.09,.41-1.92,1.24-2.47,.82-.55,1.78-.83,2.87-.83,.86,0,1.69,.15,2.48,.44,.79,.29,1.53,.7,2.21,1.24l-.82,1.44c-.56-.45-1.16-.81-1.82-1.07-.65-.27-1.34-.4-2.05-.4-.58,0-1.11,.11-1.59,.33-.48,.22-.72,.62-.72,1.2,0,.5,.22,.86,.66,1.08,.44,.22,1.29,.42,2.55,.57,1.38,.16,2.42,.49,3.11,1.01,.69,.52,1.04,1.23,1.04,2.15,0,1.14-.46,1.97-1.38,2.5-.92,.53-1.95,.79-3.09,.79Z"/>
  <path class="cls-4" d="M249.53,229.67v-18.18h6.36v1.64h-4.55v15.13h4.55v1.42h-6.36Z"/>
  <path class="cls-2" d="M260.44,226.03v-1.64h3.64v-7.64h-3.64v-1.64h5.45v9.27h3.64v1.64h-9.09Zm4.55-12.91c-.46,0-.83-.07-1.12-.22-.29-.15-.43-.42-.43-.82v-.13c0-.41,.14-.69,.43-.85,.28-.15,.66-.23,1.12-.23s.83,.08,1.12,.23c.28,.15,.43,.43,.43,.85v.13c0,.4-.15,.67-.44,.82s-.66,.22-1.11,.22Z"/>
  <path class="cls-4" d="M274.07,229.67v-1.42h4.55v-15.13h-4.55v-1.64h6.36v18.18h-6.36Z"/>
  <path class="cls-4" d="M290.45,226.21c-.61,0-1.1-.14-1.47-.41-.38-.27-.56-.71-.56-1.3v-.51c0-.59,.19-1.03,.56-1.32,.38-.29,.87-.43,1.47-.43s1.09,.14,1.46,.43,.55,.72,.55,1.32v.51c0,.59-.19,1.03-.56,1.3-.38,.27-.86,.41-1.45,.41Z"/>
  <path class="cls-5" d="M298.62,226.03v-1.64h3.64v-11.27h-3.64v-1.64h5.45v12.91h3.64v1.64h-9.09Z"/>
  <path class="cls-5" d="M320.47,223.63c-.33,.91-.82,1.57-1.49,1.97-.67,.41-1.69,.61-3.07,.61s-2.56-.35-3.36-1.04c-.8-.7-1.2-1.73-1.2-3.1v-2.93c0-1.41,.42-2.46,1.26-3.16,.84-.7,1.94-1.04,3.3-1.04s2.47,.35,3.29,1.06c.82,.71,1.24,1.8,1.24,3.26v1.67h-7.27v1.15c0,.91,.23,1.57,.68,1.97s1.14,.61,2.05,.61,1.51-.12,1.91-.36c.4-.24,.7-.64,.91-1.18l1.76,.51Zm-7.31-4.49v.44h5.45v-.27c0-.98-.23-1.7-.68-2.15-.45-.45-1.14-.67-2.05-.67s-1.59,.22-2.05,.65c-.45,.43-.68,1.1-.68,2.01Z"/>
  <path class="cls-5" d="M324.07,226.03v-10.91h1.82v1.82h.55c.27-.62,.69-1.11,1.25-1.46,.57-.36,1.22-.54,1.95-.54,1.09,0,1.95,.33,2.58,1,.63,.67,.95,1.58,.95,2.73v7.36h-1.82v-7c0-.76-.19-1.35-.55-1.75-.37-.41-.9-.61-1.59-.61-.55,0-1.1,.16-1.66,.49s-1.11,.8-1.65,1.42v7.45h-1.82Z"/>
  <path class="cls-5" d="M346.8,226.9c0,.98-.36,1.72-1.08,2.21-.72,.49-1.6,.74-2.65,.74h-3.42c-1.09,0-1.99-.22-2.7-.65-.71-.44-1.06-1.11-1.06-2.02,0-.58,.15-1.05,.46-1.39,.31-.35,.76-.54,1.35-.59v-.38c-.42-.07-.77-.25-1.05-.53-.27-.28-.41-.71-.41-1.29,0-.52,.16-.99,.49-1.4,.33-.42,.88-.65,1.65-.71v-.34c-.59-.19-.99-.49-1.2-.88-.21-.4-.31-.78-.31-1.14v-.49c0-.84,.36-1.53,1.07-2.08,.71-.55,1.72-.82,3.02-.82h5.36v1.64l-2.82-.42v.33c.48,.13,.85,.39,1.1,.76,.25,.38,.37,.75,.37,1.13v.47c0,.84-.32,1.51-.96,2.03-.64,.52-1.69,.77-3.13,.77h-2.2c-.33,0-.58,.08-.75,.25-.17,.16-.25,.44-.25,.83s.12,.66,.35,.84c.24,.19,.59,.28,1.06,.28h4.13c1.02,0,1.86,.22,2.54,.67s1.01,1.18,1.01,2.2Zm-7.18,1.47h3.69c.55,0,.99-.1,1.33-.31,.34-.21,.51-.56,.51-1.07s-.15-.83-.46-1.03-.71-.31-1.19-.31h-5.78v1.23c0,.49,.16,.86,.49,1.11,.33,.25,.8,.37,1.42,.37Zm1.36-7.91c.74,0,1.3-.13,1.69-.4,.39-.27,.58-.69,.58-1.26v-.58c0-.57-.19-.99-.58-1.25-.39-.26-.95-.39-1.69-.39s-1.3,.13-1.69,.39c-.39,.26-.58,.68-.58,1.25v.58c0,.57,.19,.99,.58,1.26,.39,.27,.95,.4,1.69,.4Z"/>
  <path class="cls-5" d="M355.87,226.19c-1.2,0-2.13-.3-2.8-.89-.67-.59-1-1.5-1-2.73v-5.82h-3.09v-1.64h3.09v-3.64h1.82v3.64h4.73v1.64h-4.73v5.65c0,.7,.18,1.22,.53,1.56,.35,.34,.87,.51,1.56,.51,.46,0,.89-.03,1.29-.1,.4-.07,.78-.15,1.15-.26l.36,1.65c-.41,.12-.85,.22-1.32,.3-.47,.08-1,.12-1.59,.12Z"/>
  <path class="cls-5" d="M362.25,226.03v-14.55h1.82v5.46h.55c.27-.62,.69-1.11,1.25-1.46,.57-.36,1.22-.54,1.95-.54,1.09,0,1.95,.33,2.58,1,.63,.67,.95,1.57,.95,2.71v7.38h-1.82v-7c0-.76-.19-1.35-.55-1.75-.37-.41-.9-.61-1.59-.61-.55,0-1.1,.16-1.66,.49s-1.11,.8-1.65,1.42v7.45h-1.82Z"/>
  <path class="cls-4" d="M387.71,225.67v-1.73l7.64-4.27-7.64-4.27v-1.73l9.09,5.09v1.82l-9.09,5.09Z"/>
  <path class="cls-4" d="M399.89,218.03v-1.82h10.18v1.82h-10.18Zm0,5.09v-1.82h10.18v1.82h-10.18Z"/>
  <path class="cls-4" d="M430.42,226.21c-1.88,0-3.17-.29-3.88-.88-.71-.59-1.11-1.69-1.19-3.32l1.82-.18c.08,1.15,.33,1.9,.74,2.24,.41,.34,1.25,.51,2.54,.51,1.1,0,1.89-.21,2.37-.62,.48-.41,.72-1.03,.72-1.86v-.87c0-.87-.19-1.5-.58-1.89-.39-.39-1.01-.58-1.87-.58h-5.18v-7.27h8.73v1.64h-6.91v3.91h3.36c1.44,0,2.52,.33,3.22,1,.7,.67,1.05,1.68,1.05,3.04v1.22c0,1.2-.42,2.15-1.27,2.86-.85,.71-2.07,1.06-3.65,1.06Z"/>
  <path class="cls-4" d="M439.52,229.85l-.18-1.42c1.62-.45,2.82-1.39,3.58-2.83,.76-1.44,1.15-3.11,1.15-5.03s-.38-3.59-1.15-5.03c-.76-1.44-1.96-2.38-3.58-2.83l.18-1.42c1.9,.45,3.44,1.49,4.61,3.12,1.17,1.63,1.75,3.68,1.75,6.16s-.58,4.52-1.75,6.15c-1.17,1.63-2.71,2.67-4.61,3.12Z"/>
  <path class="cls-4" d="M472.25,229.85c-2.55,.05-4.39-.18-5.55-.68-1.15-.5-1.73-1.28-1.73-2.34,0-.61,.12-1.12,.37-1.53,.25-.41,.52-.77,.81-1.07,.3-.3,.58-.59,.82-.85,.24-.27,.36-.55,.36-.85,0-.57-.3-.97-.91-1.21s-1.7-.37-3.27-.41v-1.09c1.58-.04,2.67-.17,3.27-.4s.91-.62,.91-1.18c0-.3-.12-.56-.36-.77-.24-.21-.52-.45-.82-.72-.29-.27-.56-.59-.81-.96-.25-.38-.37-.87-.37-1.49,0-1.03,.58-1.8,1.73-2.3,1.15-.5,3-.73,5.55-.68v1.64c-2.05-.04-3.47,.07-4.26,.33s-1.19,.67-1.19,1.24c0,.24,.09,.49,.26,.75,.18,.25,.49,.59,.94,1,.44,.4,.74,.74,.91,1.03,.17,.29,.25,.6,.25,.94,0,.68-.3,1.19-.9,1.54-.6,.35-1.46,.54-2.59,.59v.09c1.13,.12,1.99,.38,2.59,.76,.6,.39,.9,.93,.9,1.64,0,.3-.09,.59-.27,.87-.18,.28-.5,.63-.96,1.05-.42,.36-.72,.68-.88,.94s-.25,.56-.25,.9c0,.61,.4,1.04,1.19,1.31s2.22,.38,4.26,.34v1.6Z"/>
  <path class="cls-1" d="M86.95,250.21c-.92,0-1.81-.14-2.67-.41-.86-.27-1.65-.69-2.38-1.26l.82-1.44c.59,.49,1.26,.85,1.99,1.1s1.48,.37,2.25,.37c.63,0,1.23-.1,1.81-.29,.58-.19,.86-.6,.86-1.23,0-.52-.24-.89-.71-1.1-.47-.22-1.34-.4-2.6-.56-1.33-.16-2.34-.47-3.03-.94-.68-.47-1.03-1.21-1.03-2.22,0-1.09,.41-1.92,1.24-2.47,.82-.55,1.78-.83,2.87-.83,.86,0,1.69,.15,2.48,.44,.79,.29,1.53,.7,2.21,1.24l-.82,1.44c-.56-.45-1.16-.81-1.82-1.07-.65-.27-1.34-.4-2.05-.4-.58,0-1.11,.11-1.59,.33-.48,.22-.72,.62-.72,1.2,0,.5,.22,.86,.66,1.08,.44,.22,1.29,.42,2.55,.57,1.38,.16,2.42,.49,3.11,1.01,.69,.52,1.04,1.23,1.04,2.15,0,1.14-.46,1.97-1.38,2.5-.92,.53-1.95,.79-3.09,.79Z"/>
  <path class="cls-1" d="M94.99,250.03v-1.64h3.64v-7.64h-3.64v-1.64h5.45v9.27h3.64v1.64h-9.09Zm4.55-12.91c-.46,0-.83-.07-1.12-.22-.29-.15-.43-.42-.43-.82v-.13c0-.41,.14-.69,.43-.85,.28-.15,.66-.23,1.12-.23s.83,.08,1.12,.23c.28,.15,.43,.43,.43,.85v.13c0,.4-.15,.67-.44,.82s-.66,.22-1.11,.22Z"/>
  <path class="cls-1" d="M107.71,250.03v-10.91h1.82v1.82h.55c.27-.62,.69-1.11,1.25-1.46,.57-.36,1.22-.54,1.95-.54,1.09,0,1.95,.33,2.58,1,.63,.67,.95,1.58,.95,2.73v7.36h-1.82v-7c0-.76-.19-1.35-.55-1.75-.37-.41-.9-.61-1.59-.61-.55,0-1.1,.16-1.66,.49s-1.11,.8-1.65,1.42v7.45h-1.82Z"/>
  <path class="cls-1" d="M130.44,250.9c0,.98-.36,1.72-1.08,2.21-.72,.49-1.6,.74-2.65,.74h-3.42c-1.09,0-1.99-.22-2.7-.65-.71-.44-1.06-1.11-1.06-2.02,0-.58,.15-1.05,.46-1.39,.31-.35,.76-.54,1.35-.59v-.38c-.42-.07-.77-.25-1.05-.53-.27-.28-.41-.71-.41-1.29,0-.52,.16-.99,.49-1.4,.33-.42,.88-.65,1.65-.71v-.34c-.59-.19-.99-.49-1.2-.88-.21-.4-.31-.78-.31-1.14v-.49c0-.84,.36-1.53,1.07-2.08,.71-.55,1.72-.82,3.02-.82h5.36v1.64l-2.82-.42v.33c.48,.13,.85,.39,1.1,.76,.25,.38,.37,.75,.37,1.13v.47c0,.84-.32,1.51-.96,2.03-.64,.52-1.69,.77-3.13,.77h-2.2c-.33,0-.58,.08-.75,.25-.17,.16-.25,.44-.25,.83s.12,.66,.35,.84c.24,.19,.59,.28,1.06,.28h4.13c1.02,0,1.86,.22,2.54,.67s1.01,1.18,1.01,2.2Zm-7.18,1.47h3.69c.55,0,.99-.1,1.33-.31,.34-.21,.51-.56,.51-1.07s-.15-.83-.46-1.03-.71-.31-1.19-.31h-5.78v1.23c0,.49,.16,.86,.49,1.11,.33,.25,.8,.37,1.42,.37Zm1.36-7.91c.74,0,1.3-.13,1.69-.4,.39-.27,.58-.69,.58-1.26v-.58c0-.57-.19-.99-.58-1.25-.39-.26-.95-.39-1.69-.39s-1.3,.13-1.69,.39c-.39,.26-.58,.68-.58,1.25v.58c0,.57,.19,.99,.58,1.26,.39,.27,.95,.4,1.69,.4Z"/>
  <path class="cls-1" d="M133.17,250.03v-1.64h3.64v-11.27h-3.64v-1.64h5.45v12.91h3.64v1.64h-9.09Z"/>
  <path class="cls-1" d="M155.02,247.63c-.33,.91-.82,1.57-1.49,1.97-.67,.41-1.69,.61-3.07,.61s-2.56-.35-3.36-1.04c-.8-.7-1.2-1.73-1.2-3.1v-2.93c0-1.41,.42-2.46,1.26-3.16,.84-.7,1.94-1.04,3.3-1.04s2.47,.35,3.29,1.06c.82,.71,1.24,1.8,1.24,3.26v1.67h-7.27v1.15c0,.91,.23,1.57,.68,1.97s1.14,.61,2.05,.61,1.51-.12,1.91-.36c.4-.24,.7-.64,.91-1.18l1.76,.51Zm-7.31-4.49v.44h5.45v-.27c0-.98-.23-1.7-.68-2.15-.45-.45-1.14-.67-2.05-.67s-1.59,.22-2.05,.65c-.45,.43-.68,1.1-.68,2.01Z"/>
  <path class="cls-1" d="M165.31,250.03l-2.15-8.67-2.15,8.67h-1.82l-1.96-14.55h1.8l1.31,11.87,1.91-8.24h1.91l1.91,8.24,1.31-11.87h1.71l-1.96,14.55h-1.82Z"/>
  <path class="cls-1" d="M175.89,250.21c-1.47,0-2.59-.35-3.37-1.06-.78-.71-1.17-1.73-1.17-3.06v-2.95c0-1.35,.39-2.38,1.18-3.11,.79-.73,1.92-1.09,3.38-1.09s2.57,.36,3.35,1.09,1.17,1.76,1.17,3.11v2.95c0,1.33-.39,2.35-1.17,3.06s-1.91,1.06-3.37,1.06Zm0-1.64c.92,0,1.61-.21,2.05-.62,.45-.41,.67-1.04,.67-1.87v-2.95c0-.87-.22-1.52-.67-1.94-.45-.42-1.13-.63-2.05-.63s-1.61,.21-2.05,.63c-.45,.42-.67,1.06-.67,1.94v2.95c0,.84,.22,1.46,.67,1.87,.45,.41,1.13,.62,2.05,.62Z"/>
  <path class="cls-1" d="M184.98,250.03v-10.91h1.82v1.82h.55c.25-.69,.64-1.2,1.16-1.52,.52-.32,1.15-.48,1.89-.48,.81,0,1.49,.27,2.04,.81,.55,.54,.82,1.3,.82,2.28v1.64h-1.73v-.98c0-.69-.15-1.2-.46-1.53s-.78-.49-1.41-.49c-.57,0-1.09,.14-1.55,.42-.47,.28-.9,.71-1.3,1.31v7.64h-1.82Z"/>
  <path class="cls-1" d="M203.53,248.21c-.32,.63-.75,1.12-1.31,1.47s-1.18,.53-1.87,.53c-1.13,0-2-.36-2.62-1.09s-.93-1.75-.93-3.05v-2.96c0-1.32,.41-2.34,1.24-3.07,.82-.73,1.98-1.09,3.45-1.09,.42,0,.86,.04,1.31,.14,.45,.09,.87,.21,1.27,.37v-3.96h1.82v14.55h-1.82v-1.82h-.55Zm-2.73,.27c.59,0,1.16-.16,1.69-.47,.53-.31,1.06-.79,1.58-1.44v-5.35c-.38-.23-.78-.4-1.2-.52-.42-.12-.88-.17-1.36-.17-.98,0-1.71,.22-2.18,.65-.47,.43-.71,1.08-.71,1.96v2.93c0,.81,.18,1.42,.55,1.82,.36,.4,.91,.6,1.64,.6Z"/>
  <path class="cls-1" d="M214.22,250.21c-.92,0-1.81-.14-2.67-.41-.86-.27-1.65-.69-2.38-1.26l.82-1.44c.59,.49,1.26,.85,1.99,1.1s1.48,.37,2.25,.37c.63,0,1.23-.1,1.81-.29,.58-.19,.86-.6,.86-1.23,0-.52-.24-.89-.71-1.1-.47-.22-1.34-.4-2.6-.56-1.33-.16-2.34-.47-3.03-.94-.68-.47-1.03-1.21-1.03-2.22,0-1.09,.41-1.92,1.24-2.47,.82-.55,1.78-.83,2.87-.83,.86,0,1.69,.15,2.48,.44,.79,.29,1.53,.7,2.21,1.24l-.82,1.44c-.56-.45-1.16-.81-1.82-1.07-.65-.27-1.34-.4-2.05-.4-.58,0-1.11,.11-1.59,.33-.48,.22-.72,.62-.72,1.2,0,.5,.22,.86,.66,1.08,.44,.22,1.29,.42,2.55,.57,1.38,.16,2.42,.49,3.11,1.01,.69,.52,1.04,1.23,1.04,2.15,0,1.14-.46,1.97-1.38,2.5-.92,.53-1.95,.79-3.09,.79Z"/>
  <path class="cls-4" d="M224.07,253.67v-18.18h6.36v1.64h-4.55v15.13h4.55v1.42h-6.36Z"/>
  <path class="cls-2" d="M234.98,250.03v-1.64h3.64v-7.64h-3.64v-1.64h5.45v9.27h3.64v1.64h-9.09Zm4.55-12.91c-.46,0-.83-.07-1.12-.22-.29-.15-.43-.42-.43-.82v-.13c0-.41,.14-.69,.43-.85,.28-.15,.66-.23,1.12-.23s.83,.08,1.12,.23c.28,.15,.43,.43,.43,.85v.13c0,.4-.15,.67-.44,.82s-.66,.22-1.11,.22Z"/>
  <path class="cls-4" d="M248.62,253.67v-1.42h4.55v-15.13h-4.55v-1.64h6.36v18.18h-6.36Z"/>
  <path class="cls-4" d="M272.62,242.03v-1.82h10.18v1.82h-10.18Zm0,5.09v-1.82h10.18v1.82h-10.18Z"/>
  <path class="cls-1" d="M303.31,250.21c-.92,0-1.81-.14-2.67-.41-.86-.27-1.65-.69-2.38-1.26l.82-1.44c.59,.49,1.26,.85,1.99,1.1s1.48,.37,2.25,.37c.63,0,1.23-.1,1.81-.29,.58-.19,.86-.6,.86-1.23,0-.52-.24-.89-.71-1.1-.47-.22-1.34-.4-2.6-.56-1.33-.16-2.34-.47-3.03-.94-.68-.47-1.03-1.21-1.03-2.22,0-1.09,.41-1.92,1.24-2.47,.82-.55,1.78-.83,2.87-.83,.86,0,1.69,.15,2.48,.44,.79,.29,1.53,.7,2.21,1.24l-.82,1.44c-.56-.45-1.16-.81-1.82-1.07-.65-.27-1.34-.4-2.05-.4-.58,0-1.11,.11-1.59,.33-.48,.22-.72,.62-.72,1.2,0,.5,.22,.86,.66,1.08,.44,.22,1.29,.42,2.55,.57,1.38,.16,2.42,.49,3.11,1.01,.69,.52,1.04,1.23,1.04,2.15,0,1.14-.46,1.97-1.38,2.5-.92,.53-1.95,.79-3.09,.79Z"/>
  <path class="cls-1" d="M311.35,250.03v-1.64h3.64v-7.64h-3.64v-1.64h5.45v9.27h3.64v1.64h-9.09Zm4.55-12.91c-.46,0-.83-.07-1.12-.22-.29-.15-.43-.42-.43-.82v-.13c0-.41,.14-.69,.43-.85,.28-.15,.66-.23,1.12-.23s.83,.08,1.12,.23c.28,.15,.43,.43,.43,.85v.13c0,.4-.15,.67-.44,.82s-.66,.22-1.11,.22Z"/>
  <path class="cls-1" d="M324.07,250.03v-10.91h1.82v1.82h.55c.27-.62,.69-1.11,1.25-1.46,.57-.36,1.22-.54,1.95-.54,1.09,0,1.95,.33,2.58,1,.63,.67,.95,1.58,.95,2.73v7.36h-1.82v-7c0-.76-.19-1.35-.55-1.75-.37-.41-.9-.61-1.59-.61-.55,0-1.1,.16-1.66,.49s-1.11,.8-1.65,1.42v7.45h-1.82Z"/>
  <path class="cls-1" d="M346.8,250.9c0,.98-.36,1.72-1.08,2.21-.72,.49-1.6,.74-2.65,.74h-3.42c-1.09,0-1.99-.22-2.7-.65-.71-.44-1.06-1.11-1.06-2.02,0-.58,.15-1.05,.46-1.39,.31-.35,.76-.54,1.35-.59v-.38c-.42-.07-.77-.25-1.05-.53-.27-.28-.41-.71-.41-1.29,0-.52,.16-.99,.49-1.4,.33-.42,.88-.65,1.65-.71v-.34c-.59-.19-.99-.49-1.2-.88-.21-.4-.31-.78-.31-1.14v-.49c0-.84,.36-1.53,1.07-2.08,.71-.55,1.72-.82,3.02-.82h5.36v1.64l-2.82-.42v.33c.48,.13,.85,.39,1.1,.76,.25,.38,.37,.75,.37,1.13v.47c0,.84-.32,1.51-.96,2.03-.64,.52-1.69,.77-3.13,.77h-2.2c-.33,0-.58,.08-.75,.25-.17,.16-.25,.44-.25,.83s.12,.66,.35,.84c.24,.19,.59,.28,1.06,.28h4.13c1.02,0,1.86,.22,2.54,.67s1.01,1.18,1.01,2.2Zm-7.18,1.47h3.69c.55,0,.99-.1,1.33-.31,.34-.21,.51-.56,.51-1.07s-.15-.83-.46-1.03-.71-.31-1.19-.31h-5.78v1.23c0,.49,.16,.86,.49,1.11,.33,.25,.8,.37,1.42,.37Zm1.36-7.91c.74,0,1.3-.13,1.69-.4,.39-.27,.58-.69,.58-1.26v-.58c0-.57-.19-.99-.58-1.25-.39-.26-.95-.39-1.69-.39s-1.3,.13-1.69,.39c-.39,.26-.58,.68-.58,1.25v.58c0,.57,.19,.99,.58,1.26,.39,.27,.95,.4,1.69,.4Z"/>
  <path class="cls-1" d="M349.53,250.03v-1.64h3.64v-11.27h-3.64v-1.64h5.45v12.91h3.64v1.64h-9.09Z"/>
  <path class="cls-1" d="M371.38,247.63c-.33,.91-.82,1.57-1.49,1.97-.67,.41-1.69,.61-3.07,.61s-2.56-.35-3.36-1.04c-.8-.7-1.2-1.73-1.2-3.1v-2.93c0-1.41,.42-2.46,1.26-3.16,.84-.7,1.94-1.04,3.3-1.04s2.47,.35,3.29,1.06c.82,.71,1.24,1.8,1.24,3.26v1.67h-7.27v1.15c0,.91,.23,1.57,.68,1.97s1.14,.61,2.05,.61,1.51-.12,1.91-.36c.4-.24,.7-.64,.91-1.18l1.76,.51Zm-7.31-4.49v.44h5.45v-.27c0-.98-.23-1.7-.68-2.15-.45-.45-1.14-.67-2.05-.67s-1.59,.22-2.05,.65c-.45,.43-.68,1.1-.68,2.01Z"/>
  <path class="cls-1" d="M381.67,250.03l-2.15-8.67-2.15,8.67h-1.82l-1.96-14.55h1.8l1.31,11.87,1.91-8.24h1.91l1.91,8.24,1.31-11.87h1.71l-1.96,14.55h-1.82Z"/>
  <path class="cls-1" d="M392.25,250.21c-1.47,0-2.59-.35-3.37-1.06-.78-.71-1.17-1.73-1.17-3.06v-2.95c0-1.35,.39-2.38,1.18-3.11,.79-.73,1.92-1.09,3.38-1.09s2.57,.36,3.35,1.09,1.17,1.76,1.17,3.11v2.95c0,1.33-.39,2.35-1.17,3.06s-1.91,1.06-3.37,1.06Zm0-1.64c.92,0,1.61-.21,2.05-.62,.45-.41,.67-1.04,.67-1.87v-2.95c0-.87-.22-1.52-.67-1.94-.45-.42-1.13-.63-2.05-.63s-1.61,.21-2.05,.63c-.45,.42-.67,1.06-.67,1.94v2.95c0,.84,.22,1.46,.67,1.87,.45,.41,1.13,.62,2.05,.62Z"/>
  <path class="cls-1" d="M401.34,250.03v-10.91h1.82v1.82h.55c.25-.69,.64-1.2,1.16-1.52,.52-.32,1.15-.48,1.89-.48,.81,0,1.49,.27,2.04,.81,.55,.54,.82,1.3,.82,2.28v1.64h-1.73v-.98c0-.69-.15-1.2-.46-1.53s-.78-.49-1.41-.49c-.57,0-1.09,.14-1.55,.42-.47,.28-.9,.71-1.3,1.31v7.64h-1.82Z"/>
  <path class="cls-1" d="M419.89,248.21c-.32,.63-.75,1.12-1.31,1.47s-1.18,.53-1.87,.53c-1.13,0-2-.36-2.62-1.09s-.93-1.75-.93-3.05v-2.96c0-1.32,.41-2.34,1.24-3.07,.82-.73,1.98-1.09,3.45-1.09,.42,0,.86,.04,1.31,.14,.45,.09,.87,.21,1.27,.37v-3.96h1.82v14.55h-1.82v-1.82h-.55Zm-2.73,.27c.59,0,1.16-.16,1.69-.47,.53-.31,1.06-.79,1.58-1.44v-5.35c-.38-.23-.78-.4-1.2-.52-.42-.12-.88-.17-1.36-.17-.98,0-1.71,.22-2.18,.65-.47,.43-.71,1.08-.71,1.96v2.93c0,.81,.18,1.42,.55,1.82,.36,.4,.91,.6,1.64,.6Z"/>
  <path class="cls-1" d="M430.58,250.21c-.92,0-1.81-.14-2.67-.41-.86-.27-1.65-.69-2.38-1.26l.82-1.44c.59,.49,1.26,.85,1.99,1.1s1.48,.37,2.25,.37c.63,0,1.23-.1,1.81-.29,.58-.19,.86-.6,.86-1.23,0-.52-.24-.89-.71-1.1-.47-.22-1.34-.4-2.6-.56-1.33-.16-2.34-.47-3.03-.94-.68-.47-1.03-1.21-1.03-2.22,0-1.09,.41-1.92,1.24-2.47,.82-.55,1.78-.83,2.87-.83,.86,0,1.69,.15,2.48,.44,.79,.29,1.53,.7,2.21,1.24l-.82,1.44c-.56-.45-1.16-.81-1.82-1.07-.65-.27-1.34-.4-2.05-.4-.58,0-1.11,.11-1.59,.33-.48,.22-.72,.62-.72,1.2,0,.5,.22,.86,.66,1.08,.44,.22,1.29,.42,2.55,.57,1.38,.16,2.42,.49,3.11,1.01,.69,.52,1.04,1.23,1.04,2.15,0,1.14-.46,1.97-1.38,2.5-.92,.53-1.95,.79-3.09,.79Z"/>
  <path class="cls-4" d="M440.43,253.67v-18.18h6.36v1.64h-4.55v15.13h4.55v1.42h-6.36Z"/>
  <path class="cls-2" d="M451.34,250.03v-1.64h3.64v-7.64h-3.64v-1.64h5.45v9.27h3.64v1.64h-9.09Zm4.55-12.91c-.46,0-.83-.07-1.12-.22-.29-.15-.43-.42-.43-.82v-.13c0-.41,.14-.69,.43-.85,.28-.15,.66-.23,1.12-.23s.83,.08,1.12,.23c.28,.15,.43,.43,.43,.85v.13c0,.4-.15,.67-.44,.82s-.66,.22-1.11,.22Z"/>
  <path class="cls-4" d="M464.98,253.67v-1.42h4.55v-15.13h-4.55v-1.64h6.36v18.18h-6.36Z"/>
  <path class="cls-4" d="M481.36,250.21c-.61,0-1.1-.14-1.47-.41-.38-.27-.56-.71-.56-1.3v-.51c0-.59,.19-1.03,.56-1.32,.38-.29,.87-.43,1.47-.43s1.09,.14,1.46,.43,.55,.72,.55,1.32v.51c0,.59-.19,1.03-.56,1.3-.38,.27-.86,.41-1.45,.41Z"/>
  <path class="cls-5" d="M494.22,250.21c-.92,0-1.81-.14-2.67-.41-.86-.27-1.65-.69-2.38-1.26l.82-1.44c.59,.49,1.26,.85,1.99,1.1s1.48,.37,2.25,.37c.63,0,1.23-.1,1.81-.29,.58-.19,.86-.6,.86-1.23,0-.52-.24-.89-.71-1.1-.47-.22-1.34-.4-2.6-.56-1.33-.16-2.34-.47-3.03-.94-.68-.47-1.03-1.21-1.03-2.22,0-1.09,.41-1.92,1.24-2.47,.82-.55,1.78-.83,2.87-.83,.86,0,1.69,.15,2.48,.44,.79,.29,1.53,.7,2.21,1.24l-.82,1.44c-.56-.45-1.16-.81-1.82-1.07-.65-.27-1.34-.4-2.05-.4-.58,0-1.11,.11-1.59,.33-.48,.22-.72,.62-.72,1.2,0,.5,.22,.86,.66,1.08,.44,.22,1.29,.42,2.55,.57,1.38,.16,2.42,.49,3.11,1.01,.69,.52,1.04,1.23,1.04,2.15,0,1.14-.46,1.97-1.38,2.5-.92,.53-1.95,.79-3.09,.79Z"/>
  <path class="cls-5" d="M506.65,250.21c-.41,0-.85-.04-1.3-.14-.45-.09-.88-.22-1.28-.37v3.96h-1.82v-14.55h1.82v1.82h.55c.3-.62,.74-1.11,1.32-1.46s1.2-.54,1.86-.54c1.09,0,1.95,.37,2.59,1.12s.95,1.75,.95,3.03v2.96c0,1.28-.42,2.3-1.26,3.04-.84,.75-1.98,1.12-3.43,1.12Zm-.02-1.6c1.02,0,1.75-.21,2.21-.62s.68-1.07,.68-1.98v-2.95c0-.84-.17-1.45-.52-1.83-.35-.38-.9-.57-1.66-.57-.61,0-1.17,.15-1.69,.45-.52,.3-1.05,.79-1.58,1.46v5.34c.38,.23,.77,.4,1.17,.52,.41,.12,.87,.17,1.39,.17Z"/>
  <path class="cls-5" d="M514.98,250.03v-1.64h3.64v-11.27h-3.64v-1.64h5.45v12.91h3.64v1.64h-9.09Z"/>
  <path class="cls-5" d="M527.71,250.03v-1.64h3.64v-7.64h-3.64v-1.64h5.45v9.27h3.64v1.64h-9.09Zm4.55-12.91c-.46,0-.83-.07-1.12-.22-.29-.15-.43-.42-.43-.82v-.13c0-.41,.14-.69,.43-.85,.28-.15,.66-.23,1.12-.23s.83,.08,1.12,.23c.28,.15,.43,.43,.43,.85v.13c0,.4-.15,.67-.44,.82s-.66,.22-1.11,.22Z"/>
  <path class="cls-5" d="M546.78,250.19c-1.2,0-2.13-.3-2.8-.89-.67-.59-1-1.5-1-2.73v-5.82h-3.09v-1.64h3.09v-3.64h1.82v3.64h4.73v1.64h-4.73v5.65c0,.7,.18,1.22,.53,1.56,.35,.34,.87,.51,1.56,.51,.46,0,.89-.03,1.29-.1,.4-.07,.78-.15,1.15-.26l.36,1.65c-.41,.12-.85,.22-1.32,.3-.47,.08-1,.12-1.59,.12Z"/>
  <path class="cls-4" d="M561.34,253.85c-1.9-.45-3.44-1.49-4.61-3.11-1.17-1.62-1.75-3.68-1.75-6.16s.58-4.54,1.75-6.16c1.17-1.62,2.71-2.66,4.61-3.11l.18,1.42c-1.62,.45-2.82,1.39-3.58,2.81-.76,1.42-1.15,3.11-1.15,5.05s.38,3.62,1.15,5.04,1.96,2.36,3.58,2.81l-.18,1.42Z"/>
  <path class="cls-4" d="M566.8,242.76l-.55-7.27h2.91l-.55,7.27h-1.82Zm5.45,0l-.55-7.27h2.91l-.55,7.27h-1.82Z"/>
  <path class="cls-4" d="M579.52,242.76l-.55-7.27h2.91l-.55,7.27h-1.82Zm5.45,0l-.55-7.27h2.91l-.55,7.27h-1.82Z"/>
  <path class="cls-4" d="M592.25,253.85l-.18-1.42c1.62-.45,2.82-1.39,3.58-2.83,.76-1.44,1.15-3.11,1.15-5.03s-.38-3.59-1.15-5.03c-.76-1.44-1.96-2.38-3.58-2.83l.18-1.42c1.9,.45,3.44,1.49,4.61,3.12,1.17,1.63,1.75,3.68,1.75,6.16s-.58,4.52-1.75,6.15c-1.17,1.63-2.71,2.67-4.61,3.12Z"/>
  <path class="cls-4" d="M608.63,250.21c-.61,0-1.1-.14-1.47-.41-.38-.27-.56-.71-.56-1.3v-.51c0-.59,.19-1.03,.56-1.32,.38-.29,.87-.43,1.47-.43s1.09,.14,1.46,.43,.55,.72,.55,1.32v.51c0,.59-.19,1.03-.56,1.3-.38,.27-.86,.41-1.45,.41Z"/>
  <path class="cls-5" d="M617.7,250.03v-10.91h1.82v1.82h.55c.25-.69,.64-1.2,1.16-1.52,.52-.32,1.15-.48,1.89-.48,.81,0,1.49,.27,2.04,.81,.55,.54,.82,1.3,.82,2.28v1.64h-1.73v-.98c0-.69-.15-1.2-.46-1.53s-.78-.49-1.41-.49c-.57,0-1.09,.14-1.55,.42-.47,.28-.9,.71-1.3,1.31v7.64h-1.82Z"/>
  <path class="cls-5" d="M638.65,247.63c-.33,.91-.82,1.57-1.49,1.97-.67,.41-1.69,.61-3.07,.61s-2.56-.35-3.36-1.04c-.8-.7-1.2-1.73-1.2-3.1v-2.93c0-1.41,.42-2.46,1.26-3.16,.84-.7,1.94-1.04,3.3-1.04s2.47,.35,3.29,1.06c.82,.71,1.24,1.8,1.24,3.26v1.67h-7.27v1.15c0,.91,.23,1.57,.68,1.97s1.14,.61,2.05,.61,1.51-.12,1.91-.36c.4-.24,.7-.64,.91-1.18l1.76,.51Zm-7.31-4.49v.44h5.45v-.27c0-.98-.23-1.7-.68-2.15-.45-.45-1.14-.67-2.05-.67s-1.59,.22-2.05,.65c-.45,.43-.68,1.1-.68,2.01Z"/>
  <path class="cls-5" d="M647.92,250.03h-2.27l-3.87-10.91h1.98l3.05,9.44,3.05-9.44h1.93l-3.87,10.91Z"/>
  <path class="cls-5" d="M664.1,247.63c-.33,.91-.82,1.57-1.49,1.97-.67,.41-1.69,.61-3.07,.61s-2.56-.35-3.36-1.04c-.8-.7-1.2-1.73-1.2-3.1v-2.93c0-1.41,.42-2.46,1.26-3.16,.84-.7,1.94-1.04,3.3-1.04s2.47,.35,3.29,1.06c.82,.71,1.24,1.8,1.24,3.26v1.67h-7.27v1.15c0,.91,.23,1.57,.68,1.97s1.14,.61,2.05,.61,1.51-.12,1.91-.36c.4-.24,.7-.64,.91-1.18l1.76,.51Zm-7.31-4.49v.44h5.45v-.27c0-.98-.23-1.7-.68-2.15-.45-.45-1.14-.67-2.05-.67s-1.59,.22-2.05,.65c-.45,.43-.68,1.1-.68,2.01Z"/>
  <path class="cls-5" d="M668.61,250.03v-10.91h1.82v1.82h.55c.25-.69,.64-1.2,1.16-1.52,.52-.32,1.15-.48,1.89-.48,.81,0,1.49,.27,2.04,.81,.55,.54,.82,1.3,.82,2.28v1.64h-1.73v-.98c0-.69-.15-1.2-.46-1.53s-.78-.49-1.41-.49c-.57,0-1.09,.14-1.55,.42-.47,.28-.9,.71-1.3,1.31v7.64h-1.82Z"/>
  <path class="cls-5" d="M685.12,250.21c-.92,0-1.81-.14-2.67-.41-.86-.27-1.65-.69-2.38-1.26l.82-1.44c.59,.49,1.26,.85,1.99,1.1s1.48,.37,2.25,.37c.63,0,1.23-.1,1.81-.29,.58-.19,.86-.6,.86-1.23,0-.52-.24-.89-.71-1.1-.47-.22-1.34-.4-2.6-.56-1.33-.16-2.34-.47-3.03-.94-.68-.47-1.03-1.21-1.03-2.22,0-1.09,.41-1.92,1.24-2.47,.82-.55,1.78-.83,2.87-.83,.86,0,1.69,.15,2.48,.44,.79,.29,1.53,.7,2.21,1.24l-.82,1.44c-.56-.45-1.16-.81-1.82-1.07-.65-.27-1.34-.4-2.05-.4-.58,0-1.11,.11-1.59,.33-.48,.22-.72,.62-.72,1.2,0,.5,.22,.86,.66,1.08,.44,.22,1.29,.42,2.55,.57,1.38,.16,2.42,.49,3.11,1.01,.69,.52,1.04,1.23,1.04,2.15,0,1.14-.46,1.97-1.38,2.5-.92,.53-1.95,.79-3.09,.79Z"/>
  <path class="cls-5" d="M702.28,247.63c-.33,.91-.82,1.57-1.49,1.97-.67,.41-1.69,.61-3.07,.61s-2.56-.35-3.36-1.04c-.8-.7-1.2-1.73-1.2-3.1v-2.93c0-1.41,.42-2.46,1.26-3.16,.84-.7,1.94-1.04,3.3-1.04s2.47,.35,3.29,1.06c.82,.71,1.24,1.8,1.24,3.26v1.67h-7.27v1.15c0,.91,.23,1.57,.68,1.97s1.14,.61,2.05,.61,1.51-.12,1.91-.36c.4-.24,.7-.64,.91-1.18l1.76,.51Zm-7.31-4.49v.44h5.45v-.27c0-.98-.23-1.7-.68-2.15-.45-.45-1.14-.67-2.05-.67s-1.59,.22-2.05,.65c-.45,.43-.68,1.1-.68,2.01Z"/>
  <path class="cls-4" d="M714.07,253.85c-1.9-.45-3.44-1.49-4.61-3.11-1.17-1.62-1.75-3.68-1.75-6.16s.58-4.54,1.75-6.16c1.17-1.62,2.71-2.66,4.61-3.11l.18,1.42c-1.62,.45-2.82,1.39-3.58,2.81-.76,1.42-1.15,3.11-1.15,5.05s.38,3.62,1.15,5.04,1.96,2.36,3.58,2.81l-.18,1.42Z"/>
  <path class="cls-4" d="M719.52,253.85l-.18-1.42c1.62-.45,2.82-1.39,3.58-2.83,.76-1.44,1.15-3.11,1.15-5.03s-.38-3.59-1.15-5.03c-.76-1.44-1.96-2.38-3.58-2.83l.18-1.42c1.9,.45,3.44,1.49,4.61,3.12,1.17,1.63,1.75,3.68,1.75,6.16s-.58,4.52-1.75,6.15c-1.17,1.63-2.71,2.67-4.61,3.12Z"/>
  <path class="cls-4" d="M735.9,250.21c-.61,0-1.1-.14-1.47-.41-.38-.27-.56-.71-.56-1.3v-.51c0-.59,.19-1.03,.56-1.32,.38-.29,.87-.43,1.47-.43s1.09,.14,1.46,.43,.55,.72,.55,1.32v.51c0,.59-.19,1.03-.56,1.3-.38,.27-.86,.41-1.45,.41Z"/>
  <path class="cls-5" d="M746.94,253.81c-.46,0-.92-.03-1.38-.08-.46-.05-.95-.16-1.47-.32l.36-1.75c.45,.16,.87,.26,1.26,.32,.39,.05,.78,.08,1.17,.08,.79,0,1.42-.17,1.91-.5s.73-.89,.73-1.66v-9.15h-5.09v-1.64h6.91v11.02c0,1.25-.42,2.17-1.26,2.77s-1.89,.9-3.14,.9Zm3.44-16.69c-.46,0-.83-.07-1.12-.22-.29-.15-.43-.42-.43-.82v-.13c0-.41,.14-.69,.43-.85,.28-.15,.66-.23,1.12-.23s.83,.08,1.12,.23c.28,.15,.43,.43,.43,.85v.13c0,.4-.15,.67-.44,.82s-.66,.22-1.11,.22Z"/>
  <path class="cls-5" d="M761.34,250.21c-1.47,0-2.59-.35-3.37-1.06-.78-.71-1.17-1.73-1.17-3.06v-2.95c0-1.35,.39-2.38,1.18-3.11,.79-.73,1.92-1.09,3.38-1.09s2.57,.36,3.35,1.09,1.17,1.76,1.17,3.11v2.95c0,1.33-.39,2.35-1.17,3.06s-1.91,1.06-3.37,1.06Zm0-1.64c.92,0,1.61-.21,2.05-.62s.67-1.04,.67-1.87v-2.95c0-.87-.22-1.52-.67-1.94s-1.13-.63-2.05-.63-1.61,.21-2.05,.63c-.45,.42-.67,1.06-.67,1.94v2.95c0,.84,.22,1.46,.67,1.87,.45,.41,1.13,.62,2.05,.62Z"/>
  <path class="cls-5" d="M769.52,250.03v-1.64h3.64v-7.64h-3.64v-1.64h5.45v9.27h3.64v1.64h-9.09Zm4.54-12.91c-.46,0-.83-.07-1.12-.22-.28-.15-.43-.42-.43-.82v-.13c0-.41,.14-.69,.43-.85,.29-.15,.66-.23,1.12-.23s.83,.08,1.12,.23c.29,.15,.43,.43,.43,.85v.13c0,.4-.15,.67-.44,.82s-.66,.22-1.11,.22Z"/>
  <path class="cls-5" d="M782.25,250.03v-10.91h1.82v1.82h.54c.27-.62,.68-1.11,1.25-1.46,.57-.36,1.22-.54,1.95-.54,1.09,0,1.95,.33,2.58,1,.63,.67,.95,1.58,.95,2.73v7.36h-1.82v-7c0-.76-.18-1.35-.55-1.75-.37-.41-.9-.61-1.59-.61-.54,0-1.1,.16-1.66,.49-.56,.33-1.11,.8-1.65,1.42v7.45h-1.82Z"/>
  <path class="cls-4" d="M803.15,253.85c-1.9-.45-3.44-1.49-4.61-3.11s-1.75-3.68-1.75-6.16,.58-4.54,1.75-6.16,2.71-2.66,4.61-3.11l.18,1.42c-1.62,.45-2.82,1.39-3.58,2.81-.76,1.42-1.15,3.11-1.15,5.05s.38,3.62,1.15,5.04,1.96,2.36,3.58,2.81l-.18,1.42Z"/>
  <path class="cls-4" d="M808.61,242.76l-.55-7.27h2.91l-.54,7.27h-1.82Zm5.45,0l-.54-7.27h2.91l-.55,7.27h-1.82Z"/>
  <path class="cls-4" d="M821.34,242.76l-.55-7.27h2.91l-.54,7.27h-1.82Zm5.45,0l-.54-7.27h2.91l-.55,7.27h-1.82Z"/>
  <path class="cls-4" d="M834.06,253.85l-.18-1.42c1.62-.45,2.82-1.39,3.58-2.83,.76-1.44,1.15-3.11,1.15-5.03s-.38-3.59-1.15-5.03c-.76-1.44-1.96-2.38-3.58-2.83l.18-1.42c1.9,.45,3.44,1.49,4.61,3.12,1.17,1.63,1.75,3.68,1.75,6.16s-.58,4.52-1.75,6.15-2.71,2.67-4.61,3.12Z"/>
  <path class="cls-4" d="M847.7,253.67l1.64-7.27h3.62l-3.73,7.27h-1.53Zm2.75-10.73c-.61,0-1.1-.12-1.47-.37-.38-.25-.56-.63-.56-1.15v-.87c0-.53,.19-.93,.56-1.18,.38-.25,.87-.38,1.47-.38s1.09,.13,1.46,.38c.37,.25,.55,.65,.55,1.18v.87c0,.52-.19,.91-.56,1.15-.38,.25-.86,.37-1.45,.37Z"/>
  <path class="cls-4" d="M64.99,274.83c0,1.05-.58,1.83-1.73,2.34-1.15,.5-3,.73-5.55,.68v-1.6c2.05,.04,3.47-.08,4.26-.34s1.19-.7,1.19-1.31c0-.34-.08-.64-.25-.9s-.46-.57-.88-.94c-.46-.42-.78-.78-.96-1.05-.18-.28-.27-.57-.27-.87,0-.7,.3-1.25,.9-1.64,.6-.39,1.46-.64,2.59-.76v-.09c-1.13-.05-1.99-.25-2.59-.59-.6-.34-.9-.86-.9-1.54,0-.34,.08-.65,.25-.94,.17-.28,.47-.63,.91-1.03,.45-.41,.76-.75,.94-1,.18-.25,.26-.5,.26-.75,0-.57-.4-.98-1.19-1.24s-2.22-.36-4.26-.33v-1.64c2.55-.05,4.39,.18,5.55,.68,1.15,.5,1.73,1.27,1.73,2.3,0,.62-.12,1.12-.37,1.49-.25,.38-.52,.7-.81,.96-.3,.27-.58,.51-.82,.72-.24,.21-.36,.47-.36,.77,0,.56,.3,.95,.91,1.18,.61,.23,1.7,.36,3.27,.4v1.09c-1.58,.04-2.67,.17-3.27,.41-.61,.24-.91,.64-.91,1.21,0,.3,.12,.59,.36,.85,.24,.27,.52,.55,.82,.85,.29,.3,.56,.66,.81,1.07,.25,.41,.37,.92,.37,1.53Z"/>
  <path class="cls-4" d="M39.53,298.83c0,1.05-.58,1.83-1.73,2.34-1.15,.5-3,.73-5.55,.68v-1.6c2.05,.04,3.47-.08,4.26-.34s1.19-.7,1.19-1.31c0-.34-.08-.64-.25-.9s-.46-.57-.88-.94c-.46-.42-.78-.78-.96-1.05-.18-.28-.27-.57-.27-.87,0-.7,.3-1.25,.9-1.64,.6-.39,1.46-.64,2.59-.76v-.09c-1.13-.05-1.99-.25-2.59-.59-.6-.34-.9-.86-.9-1.54,0-.34,.08-.65,.25-.94,.17-.28,.47-.63,.91-1.03,.45-.41,.76-.75,.94-1,.18-.25,.26-.5,.26-.75,0-.57-.4-.98-1.19-1.24s-2.22-.36-4.26-.33v-1.64c2.55-.05,4.39,.18,5.55,.68,1.15,.5,1.73,1.27,1.73,2.3,0,.62-.12,1.12-.37,1.49-.25,.38-.52,.7-.81,.96-.3,.27-.58,.51-.82,.72-.24,.21-.36,.47-.36,.77,0,.56,.3,.95,.91,1.18,.61,.23,1.7,.36,3.27,.4v1.09c-1.58,.04-2.67,.17-3.27,.41-.61,.24-.91,.64-.91,1.21,0,.3,.12,.59,.36,.85,.24,.27,.52,.55,.82,.85,.29,.3,.56,.66,.81,1.07,.25,.41,.37,.92,.37,1.53Z"/>
  <path class="cls-5" d="M32.26,322.03v-10.91h1.82v1.82h.55c.25-.69,.64-1.2,1.16-1.52,.52-.32,1.15-.48,1.89-.48,.81,0,1.49,.27,2.04,.81,.55,.54,.82,1.3,.82,2.28v1.64h-1.73v-.98c0-.69-.15-1.2-.46-1.53s-.78-.49-1.41-.49c-.57,0-1.09,.14-1.55,.42-.47,.28-.9,.71-1.3,1.31v7.64h-1.82Z"/>
  <path class="cls-5" d="M53.2,319.63c-.33,.91-.82,1.57-1.49,1.97-.67,.41-1.69,.61-3.07,.61s-2.56-.35-3.36-1.04c-.8-.7-1.2-1.73-1.2-3.1v-2.93c0-1.41,.42-2.46,1.26-3.16,.84-.7,1.94-1.04,3.3-1.04s2.47,.35,3.29,1.06c.82,.71,1.24,1.8,1.24,3.26v1.67h-7.27v1.15c0,.91,.23,1.57,.68,1.97s1.14,.61,2.05,.61,1.51-.12,1.91-.36c.4-.24,.7-.64,.91-1.18l1.76,.51Zm-7.31-4.49v.44h5.45v-.27c0-.98-.23-1.7-.68-2.15-.45-.45-1.14-.67-2.05-.67s-1.59,.22-2.05,.65c-.45,.43-.68,1.1-.68,2.01Z"/>
  <path class="cls-5" d="M63.15,322.19c-1.2,0-2.13-.3-2.8-.89-.67-.59-1-1.5-1-2.73v-5.82h-3.09v-1.64h3.09v-3.64h1.82v3.64h4.73v1.64h-4.73v5.65c0,.7,.18,1.22,.53,1.56,.35,.34,.87,.51,1.56,.51,.46,0,.89-.03,1.29-.1,.4-.07,.78-.15,1.15-.26l.36,1.65c-.41,.12-.85,.22-1.32,.3-.47,.08-1,.12-1.59,.12Z"/>
  <path class="cls-5" d="M73.06,322.21c-1.05,0-1.91-.34-2.55-1.03-.65-.68-.97-1.58-.97-2.7v-7.36h1.82v7c0,.8,.18,1.39,.53,1.78s.89,.58,1.62,.58c.57,0,1.12-.15,1.66-.46,.54-.31,1.09-.79,1.65-1.45v-7.46h1.82v10.91h-1.82v-1.82h-.55c-.25,.59-.68,1.08-1.26,1.45-.59,.37-1.23,.55-1.94,.55Z"/>
  <path class="cls-5" d="M83.17,322.03v-10.91h1.82v1.82h.55c.25-.69,.64-1.2,1.16-1.52,.52-.32,1.15-.48,1.89-.48,.81,0,1.49,.27,2.04,.81,.55,.54,.82,1.3,.82,2.28v1.64h-1.73v-.98c0-.69-.15-1.2-.46-1.53s-.78-.49-1.41-.49c-.57,0-1.09,.14-1.55,.42-.47,.28-.9,.71-1.3,1.31v7.64h-1.82Z"/>
  <path class="cls-5" d="M94.99,322.03v-10.91h1.82v1.82h.55c.27-.62,.69-1.11,1.25-1.46,.57-.36,1.22-.54,1.95-.54,1.09,0,1.95,.33,2.58,1,.63,.67,.95,1.58,.95,2.73v7.36h-1.82v-7c0-.76-.19-1.35-.55-1.75-.37-.41-.9-.61-1.59-.61-.55,0-1.1,.16-1.66,.49s-1.11,.8-1.65,1.42v7.45h-1.82Z"/>
  <path class="cls-1" d="M125.13,322.21c-.92,0-1.81-.14-2.67-.41-.86-.27-1.65-.69-2.38-1.26l.82-1.44c.59,.49,1.26,.85,1.99,1.1s1.48,.37,2.25,.37c.63,0,1.23-.1,1.81-.29,.58-.19,.86-.6,.86-1.23,0-.52-.24-.89-.71-1.1-.47-.22-1.34-.4-2.6-.56-1.33-.16-2.34-.47-3.03-.94-.68-.47-1.03-1.21-1.03-2.22,0-1.09,.41-1.92,1.24-2.47,.82-.55,1.78-.83,2.87-.83,.86,0,1.69,.15,2.48,.44,.79,.29,1.53,.7,2.21,1.24l-.82,1.44c-.56-.45-1.16-.81-1.82-1.07-.65-.27-1.34-.4-2.05-.4-.58,0-1.11,.11-1.59,.33-.48,.22-.72,.62-.72,1.2,0,.5,.22,.86,.66,1.08,.44,.22,1.29,.42,2.55,.57,1.38,.16,2.42,.49,3.11,1.01,.69,.52,1.04,1.23,1.04,2.15,0,1.14-.46,1.97-1.38,2.5-.92,.53-1.95,.79-3.09,.79Z"/>
  <path class="cls-1" d="M133.17,322.03v-1.64h3.64v-7.64h-3.64v-1.64h5.45v9.27h3.64v1.64h-9.09Zm4.55-12.91c-.46,0-.83-.07-1.12-.22-.29-.15-.43-.42-.43-.82v-.13c0-.41,.14-.69,.43-.85,.28-.15,.66-.23,1.12-.23s.83,.08,1.12,.23c.28,.15,.43,.43,.43,.85v.13c0,.4-.15,.67-.44,.82s-.66,.22-1.11,.22Z"/>
  <path class="cls-1" d="M145.89,322.03v-10.91h1.82v1.82h.55c.27-.62,.69-1.11,1.25-1.46,.57-.36,1.22-.54,1.95-.54,1.09,0,1.95,.33,2.58,1,.63,.67,.95,1.58,.95,2.73v7.36h-1.82v-7c0-.76-.19-1.35-.55-1.75-.37-.41-.9-.61-1.59-.61-.55,0-1.1,.16-1.66,.49s-1.11,.8-1.65,1.42v7.45h-1.82Z"/>
  <path class="cls-1" d="M168.62,322.9c0,.98-.36,1.72-1.08,2.21-.72,.49-1.6,.74-2.65,.74h-3.42c-1.09,0-1.99-.22-2.7-.65-.71-.44-1.06-1.11-1.06-2.02,0-.58,.15-1.05,.46-1.39,.31-.35,.76-.54,1.35-.59v-.38c-.42-.07-.77-.25-1.05-.53-.27-.28-.41-.71-.41-1.29,0-.52,.16-.99,.49-1.4,.33-.42,.88-.65,1.65-.71v-.34c-.59-.19-.99-.49-1.2-.88-.21-.4-.31-.78-.31-1.14v-.49c0-.84,.36-1.53,1.07-2.08,.71-.55,1.72-.82,3.02-.82h5.36v1.64l-2.82-.42v.33c.48,.13,.85,.39,1.1,.76,.25,.38,.37,.75,.37,1.13v.47c0,.84-.32,1.51-.96,2.03-.64,.52-1.69,.77-3.13,.77h-2.2c-.33,0-.58,.08-.75,.25-.17,.16-.25,.44-.25,.83s.12,.66,.35,.84c.24,.19,.59,.28,1.06,.28h4.13c1.02,0,1.86,.22,2.54,.67s1.01,1.18,1.01,2.2Zm-7.18,1.47h3.69c.55,0,.99-.1,1.33-.31,.34-.21,.51-.56,.51-1.07s-.15-.83-.46-1.03-.71-.31-1.19-.31h-5.78v1.23c0,.49,.16,.86,.49,1.11,.33,.25,.8,.37,1.42,.37Zm1.36-7.91c.74,0,1.3-.13,1.69-.4,.39-.27,.58-.69,.58-1.26v-.58c0-.57-.19-.99-.58-1.25-.39-.26-.95-.39-1.69-.39s-1.3,.13-1.69,.39c-.39,.26-.58,.68-.58,1.25v.58c0,.57,.19,.99,.58,1.26,.39,.27,.95,.4,1.69,.4Z"/>
  <path class="cls-1" d="M171.35,322.03v-1.64h3.64v-11.27h-3.64v-1.64h5.45v12.91h3.64v1.64h-9.09Z"/>
  <path class="cls-1" d="M193.2,319.63c-.33,.91-.82,1.57-1.49,1.97-.67,.41-1.69,.61-3.07,.61s-2.56-.35-3.36-1.04c-.8-.7-1.2-1.73-1.2-3.1v-2.93c0-1.41,.42-2.46,1.26-3.16,.84-.7,1.94-1.04,3.3-1.04s2.47,.35,3.29,1.06c.82,.71,1.24,1.8,1.24,3.26v1.67h-7.27v1.15c0,.91,.23,1.57,.68,1.97s1.14,.61,2.05,.61,1.51-.12,1.91-.36c.4-.24,.7-.64,.91-1.18l1.76,.51Zm-7.31-4.49v.44h5.45v-.27c0-.98-.23-1.7-.68-2.15-.45-.45-1.14-.67-2.05-.67s-1.59,.22-2.05,.65c-.45,.43-.68,1.1-.68,2.01Z"/>
  <path class="cls-1" d="M203.49,322.03l-2.15-8.67-2.15,8.67h-1.82l-1.96-14.55h1.8l1.31,11.87,1.91-8.24h1.91l1.91,8.24,1.31-11.87h1.71l-1.96,14.55h-1.82Z"/>
  <path class="cls-1" d="M214.07,322.21c-1.47,0-2.59-.35-3.37-1.06-.78-.71-1.17-1.73-1.17-3.06v-2.95c0-1.35,.39-2.38,1.18-3.11,.79-.73,1.92-1.09,3.38-1.09s2.57,.36,3.35,1.09,1.17,1.76,1.17,3.11v2.95c0,1.33-.39,2.35-1.17,3.06s-1.91,1.06-3.37,1.06Zm0-1.64c.92,0,1.61-.21,2.05-.62,.45-.41,.67-1.04,.67-1.87v-2.95c0-.87-.22-1.52-.67-1.94-.45-.42-1.13-.63-2.05-.63s-1.61,.21-2.05,.63c-.45,.42-.67,1.06-.67,1.94v2.95c0,.84,.22,1.46,.67,1.87,.45,.41,1.13,.62,2.05,.62Z"/>
  <path class="cls-1" d="M223.16,322.03v-10.91h1.82v1.82h.55c.25-.69,.64-1.2,1.16-1.52,.52-.32,1.15-.48,1.89-.48,.81,0,1.49,.27,2.04,.81,.55,.54,.82,1.3,.82,2.28v1.64h-1.73v-.98c0-.69-.15-1.2-.46-1.53s-.78-.49-1.41-.49c-.57,0-1.09,.14-1.55,.42-.47,.28-.9,.71-1.3,1.31v7.64h-1.82Z"/>
  <path class="cls-1" d="M241.71,320.21c-.32,.63-.75,1.12-1.31,1.47s-1.18,.53-1.87,.53c-1.13,0-2-.36-2.62-1.09s-.93-1.75-.93-3.05v-2.96c0-1.32,.41-2.34,1.24-3.07,.82-.73,1.98-1.09,3.45-1.09,.42,0,.86,.04,1.31,.14,.45,.09,.87,.21,1.27,.37v-3.96h1.82v14.55h-1.82v-1.82h-.55Zm-2.73,.27c.59,0,1.16-.16,1.69-.47,.53-.31,1.06-.79,1.58-1.44v-5.35c-.38-.23-.78-.4-1.2-.52-.42-.12-.88-.17-1.36-.17-.98,0-1.71,.22-2.18,.65-.47,.43-.71,1.08-.71,1.96v2.93c0,.81,.18,1.42,.55,1.82,.36,.4,.91,.6,1.64,.6Z"/>
  <path class="cls-1" d="M252.4,322.21c-.92,0-1.81-.14-2.67-.41-.86-.27-1.65-.69-2.38-1.26l.82-1.44c.59,.49,1.26,.85,1.99,1.1s1.48,.37,2.25,.37c.63,0,1.23-.1,1.81-.29,.58-.19,.86-.6,.86-1.23,0-.52-.24-.89-.71-1.1-.47-.22-1.34-.4-2.6-.56-1.33-.16-2.34-.47-3.03-.94-.68-.47-1.03-1.21-1.03-2.22,0-1.09,.41-1.92,1.24-2.47,.82-.55,1.78-.83,2.87-.83,.86,0,1.69,.15,2.48,.44,.79,.29,1.53,.7,2.21,1.24l-.82,1.44c-.56-.45-1.16-.81-1.82-1.07-.65-.27-1.34-.4-2.05-.4-.58,0-1.11,.11-1.59,.33-.48,.22-.72,.62-.72,1.2,0,.5,.22,.86,.66,1.08,.44,.22,1.29,.42,2.55,.57,1.38,.16,2.42,.49,3.11,1.01,.69,.52,1.04,1.23,1.04,2.15,0,1.14-.46,1.97-1.38,2.5-.92,.53-1.95,.79-3.09,.79Z"/>
  <path class="cls-4" d="M265,322.21c-.61,0-1.1-.14-1.47-.41-.38-.27-.56-.71-.56-1.3v-.51c0-.59,.19-1.03,.56-1.32,.38-.29,.87-.43,1.47-.43s1.09,.14,1.46,.43,.55,.72,.55,1.32v.51c0,.59-.19,1.03-.56,1.3-.38,.27-.86,.41-1.45,.41Z"/>
  <path class="cls-5" d="M276.04,325.81c-.46,0-.92-.03-1.38-.08-.46-.05-.95-.16-1.47-.32l.36-1.75c.45,.16,.87,.26,1.26,.32,.39,.05,.78,.08,1.17,.08,.79,0,1.42-.17,1.91-.5s.73-.89,.73-1.66v-9.15h-5.09v-1.64h6.91v11.02c0,1.25-.42,2.17-1.26,2.77s-1.89,.9-3.14,.9Zm3.44-16.69c-.46,0-.83-.07-1.12-.22-.29-.15-.43-.42-.43-.82v-.13c0-.41,.14-.69,.43-.85,.28-.15,.66-.23,1.12-.23s.83,.08,1.12,.23c.28,.15,.43,.43,.43,.85v.13c0,.4-.15,.67-.44,.82s-.66,.22-1.11,.22Z"/>
  <path class="cls-5" d="M290.44,322.21c-1.47,0-2.59-.35-3.37-1.06-.78-.71-1.17-1.73-1.17-3.06v-2.95c0-1.35,.39-2.38,1.18-3.11,.79-.73,1.92-1.09,3.38-1.09s2.57,.36,3.35,1.09,1.17,1.76,1.17,3.11v2.95c0,1.33-.39,2.35-1.17,3.06s-1.91,1.06-3.37,1.06Zm0-1.64c.92,0,1.61-.21,2.05-.62,.45-.41,.67-1.04,.67-1.87v-2.95c0-.87-.22-1.52-.67-1.94-.45-.42-1.13-.63-2.05-.63s-1.61,.21-2.05,.63c-.45,.42-.67,1.06-.67,1.94v2.95c0,.84,.22,1.46,.67,1.87,.45,.41,1.13,.62,2.05,.62Z"/>
  <path class="cls-5" d="M298.62,322.03v-1.64h3.64v-7.64h-3.64v-1.64h5.45v9.27h3.64v1.64h-9.09Zm4.55-12.91c-.46,0-.83-.07-1.12-.22-.29-.15-.43-.42-.43-.82v-.13c0-.41,.14-.69,.43-.85,.28-.15,.66-.23,1.12-.23s.83,.08,1.12,.23c.28,.15,.43,.43,.43,.85v.13c0,.4-.15,.67-.44,.82s-.66,.22-1.11,.22Z"/>
  <path class="cls-5" d="M311.35,322.03v-10.91h1.82v1.82h.55c.27-.62,.69-1.11,1.25-1.46,.57-.36,1.22-.54,1.95-.54,1.09,0,1.95,.33,2.58,1,.63,.67,.95,1.58,.95,2.73v7.36h-1.82v-7c0-.76-.19-1.35-.55-1.75-.37-.41-.9-.61-1.59-.61-.55,0-1.1,.16-1.66,.49s-1.11,.8-1.65,1.42v7.45h-1.82Z"/>
  <path class="cls-4" d="M332.25,325.85c-1.9-.45-3.44-1.49-4.61-3.11-1.17-1.62-1.75-3.68-1.75-6.16s.58-4.54,1.75-6.16c1.17-1.62,2.71-2.66,4.61-3.11l.18,1.42c-1.62,.45-2.82,1.39-3.58,2.81-.76,1.42-1.15,3.11-1.15,5.05s.38,3.62,1.15,5.04,1.96,2.36,3.58,2.81l-.18,1.42Z"/>
  <path class="cls-4" d="M337.71,314.76l-.55-7.27h2.91l-.55,7.27h-1.82Zm5.45,0l-.55-7.27h2.91l-.55,7.27h-1.82Z"/>
  <path class="cls-4" d="M363.16,314.76l-.55-7.27h2.91l-.55,7.27h-1.82Zm5.45,0l-.55-7.27h2.91l-.55,7.27h-1.82Z"/>
  <path class="cls-4" d="M375.89,325.85l-.18-1.42c1.62-.45,2.82-1.39,3.58-2.83,.76-1.44,1.15-3.11,1.15-5.03s-.38-3.59-1.15-5.03c-.76-1.44-1.96-2.38-3.58-2.83l.18-1.42c1.9,.45,3.44,1.49,4.61,3.12,1.17,1.63,1.75,3.68,1.75,6.16s-.58,4.52-1.75,6.15c-1.17,1.63-2.71,2.67-4.61,3.12Z"/>
  <path class="cls-4" d="M389.53,325.67l1.64-7.27h3.62l-3.73,7.27h-1.53Zm2.75-10.73c-.61,0-1.1-.12-1.47-.37-.38-.25-.56-.63-.56-1.15v-.87c0-.53,.19-.93,.56-1.18,.38-.25,.87-.38,1.47-.38s1.09,.13,1.46,.38,.55,.65,.55,1.18v.87c0,.52-.19,.91-.56,1.15-.38,.25-.86,.37-1.45,.37Z"/>
  <path class="cls-4" d="M14.08,346.83c0,1.05-.58,1.83-1.73,2.34-1.15,.5-3,.73-5.55,.68v-1.6c2.05,.04,3.47-.08,4.26-.34s1.19-.7,1.19-1.31c0-.34-.08-.64-.25-.9s-.46-.57-.88-.94c-.46-.42-.78-.78-.96-1.05-.18-.28-.27-.57-.27-.87,0-.7,.3-1.25,.9-1.64,.6-.39,1.46-.64,2.59-.76v-.09c-1.13-.05-1.99-.25-2.59-.59-.6-.34-.9-.86-.9-1.54,0-.34,.08-.65,.25-.94,.17-.28,.47-.63,.91-1.03,.45-.41,.76-.75,.94-1,.18-.25,.26-.5,.26-.75,0-.57-.4-.98-1.19-1.24s-2.22-.36-4.26-.33v-1.64c2.55-.05,4.39,.18,5.55,.68,1.15,.5,1.73,1.27,1.73,2.3,0,.62-.12,1.12-.37,1.49-.25,.38-.52,.7-.81,.96-.3,.27-.58,.51-.82,.72-.24,.21-.36,.47-.36,.77,0,.56,.3,.95,.91,1.18,.61,.23,1.7,.36,3.27,.4v1.09c-1.58,.04-2.67,.17-3.27,.41-.61,.24-.91,.64-.91,1.21,0,.3,.12,.59,.36,.85,.24,.27,.52,.55,.82,.85,.29,.3,.56,.66,.81,1.07,.25,.41,.37,.92,.37,1.53Z"/>
</svg>