<?xml version="1.0" encoding="UTF-8"?>
<svg id="Ebene_1" data-name="Ebene 1" xmlns="http://www.w3.org/2000/svg" viewBox="0 0 1331.72 355.67">
  <defs>
    <style>
      .cls-1 {
        fill: #f39200;
      }

      .cls-2 {
        fill: #1d1d1b;
      }

      .cls-3 {
        fill: #36a9e1;
      }
    </style>
  </defs>
  <path class="cls-2" d="M2.36,91.62h2l.91,5.57,.16,1.01,.32,2.19c.05,.37,.1,.71,.14,1.02s.08,.58,.11,.83l.1,.74c.02-.15,.04-.28,.05-.4s.03-.21,.04-.29l.26-1.75,.34-2.29c.03-.21,.06-.4,.09-.58s.06-.33,.08-.47l.98-5.57h1.89l-2.96,15.08h-1.61l-2.91-15.08Z"/>
  <path class="cls-2" d="M12.74,91.62h1.58l3.23,15.08h-2.01l-.57-2.94h-2.99l-.58,2.94h-1.95l3.28-15.08Zm1.94,10.57l-.45-2.4c-.3-1.63-.54-3.38-.73-5.23-.09,.91-.21,1.82-.35,2.75s-.31,1.91-.51,2.95l-.37,1.93h2.41Z"/>
  <path class="cls-2" d="M18.75,91.62h2.68c1.11,0,1.93,.26,2.47,.79,.68,.68,1.03,1.73,1.03,3.13,0,1.08-.18,1.95-.54,2.6s-.88,1.06-1.55,1.22l2.77,7.33h-2.06l-2.76-7.38v7.38h-2.03v-15.08Zm2.03,6.68c.79,0,1.34-.18,1.67-.55s.49-.98,.49-1.85c0-.47-.03-.87-.1-1.2s-.18-.6-.32-.81-.34-.36-.57-.46-.51-.15-.83-.15h-.34v5.01Z"/>
  <path class="cls-2" d="M27.18,91.62h2.03v15.08h-2.03v-15.08Z"/>
  <path class="cls-2" d="M33.68,91.62h1.58l3.23,15.08h-2.01l-.57-2.94h-2.99l-.58,2.94h-1.95l3.28-15.08Zm1.94,10.57l-.45-2.4c-.3-1.63-.54-3.38-.73-5.23-.09,.91-.21,1.82-.35,2.75s-.31,1.91-.51,2.95l-.37,1.93h2.41Z"/>
  <path class="cls-2" d="M39.69,91.62h1.89l2.02,6.02c.59,1.7,1.1,3.51,1.55,5.44-.16-1.17-.28-2.22-.36-3.16s-.12-1.83-.12-2.67v-5.62h2.04v15.08h-1.9l-2.28-6.79c-.21-.63-.41-1.28-.59-1.94s-.36-1.36-.51-2.09c-.01-.09-.03-.2-.06-.33s-.06-.28-.1-.45c.02,.17,.04,.31,.05,.43s.02,.22,.03,.31l.11,1.53,.11,1.87c0,.1,.01,.23,.01,.38s0,.32,0,.51l.11,6.57h-2v-15.08Z"/>
  <path class="cls-2" d="M47.84,91.62h6.61v1.78h-2.28v13.3h-1.99v-13.3h-2.34v-1.78Z"/>
  <path class="cls-2" d="M55.58,91.62h5.4v1.72h-3.37v4.78h2.99v1.72h-2.99v5.15h3.37v1.72h-5.4v-15.08Z"/>
  <path class="cls-2" d="M68.77,96.52h-1.99l-.02-.6c0-1.65,.25-2.81,.74-3.48,.5-.68,1.34-1.02,2.52-1.02,2.22,0,3.33,1.23,3.33,3.69,0,1.66-.83,4.05-2.49,7.18l-1.2,2.26-.06,.12c-.03,.07-.08,.16-.14,.28h3.73v1.74h-6.62c.11-.25,.34-.74,.69-1.47s.83-1.73,1.44-2.98c.51-1.09,.94-2.02,1.29-2.78s.61-1.39,.78-1.88c.35-.98,.53-1.82,.53-2.53,0-1.25-.43-1.88-1.3-1.88s-1.25,.77-1.25,2.32v.86s.02,.16,.02,.16Z"/>
  <path class="cls-2" d="M76.2,96.44c.32,0,.6,.12,.83,.36,.23,.23,.35,.51,.35,.84s-.12,.62-.35,.86-.52,.35-.85,.35-.62-.12-.86-.35c-.23-.24-.35-.53-.35-.86s.12-.62,.35-.85c.24-.23,.53-.35,.88-.35Zm0,7.99c.32,0,.6,.12,.83,.36,.23,.23,.35,.52,.35,.85s-.12,.62-.35,.85c-.25,.23-.53,.34-.85,.34-.17,0-.33-.03-.47-.09s-.27-.15-.39-.25-.2-.23-.26-.38-.09-.3-.09-.47c0-.33,.12-.62,.35-.85,.24-.23,.53-.35,.88-.35Z"/>
  <path class="cls-3" d="M6.95,154.7v-9.27H3.86v-1.64h3.09v-.73c0-.98,.38-1.74,1.15-2.28,.77-.54,1.72-.81,2.86-.81,.56,0,1.06,.05,1.5,.15,.44,.1,.84,.21,1.19,.33l-.36,1.53c-.27-.08-.59-.17-.97-.25s-.83-.12-1.35-.12c-.67,0-1.2,.11-1.6,.34-.4,.22-.6,.59-.6,1.1v.75h4.55v1.64h-4.55v9.27h-1.82Z"/>
  <path class="cls-3" d="M20.47,154.88c-1.05,0-1.91-.34-2.55-1.03-.65-.68-.97-1.58-.97-2.7v-7.36h1.82v7c0,.8,.18,1.39,.53,1.78s.89,.58,1.62,.58c.57,0,1.12-.15,1.66-.46,.54-.31,1.09-.79,1.65-1.45v-7.46h1.82v10.91h-1.82v-1.82h-.55c-.25,.59-.68,1.08-1.26,1.45-.59,.37-1.23,.55-1.94,.55Z"/>
  <path class="cls-3" d="M29.67,154.7v-10.91h1.82v1.82h.55c.27-.62,.69-1.11,1.25-1.46,.57-.36,1.22-.54,1.95-.54,1.09,0,1.95,.33,2.58,1,.63,.67,.95,1.58,.95,2.73v7.36h-1.82v-7c0-.76-.19-1.35-.55-1.75-.37-.41-.9-.61-1.59-.61-.55,0-1.1,.16-1.66,.49s-1.11,.8-1.65,1.42v7.45h-1.82Z"/>
  <path class="cls-3" d="M47.2,154.88c-1.59,0-2.79-.35-3.59-1.04-.81-.7-1.21-1.72-1.21-3.08v-2.95c0-1.38,.4-2.43,1.21-3.14,.81-.71,2-1.06,3.57-1.06,1.41,0,2.49,.32,3.25,.95,.76,.64,1.18,1.57,1.26,2.79l-1.78,.11c-.05-.75-.3-1.31-.75-1.67-.45-.36-1.12-.54-2-.54-.99,0-1.73,.21-2.22,.63-.48,.42-.73,1.06-.73,1.94v2.95c0,.84,.25,1.46,.74,1.87,.49,.41,1.24,.62,2.25,.62,.87,0,1.53-.16,1.98-.46,.45-.31,.69-.77,.73-1.39l1.78,.11c-.08,1.12-.5,1.96-1.25,2.53-.75,.57-1.83,.85-3.24,.85Z"/>
  <path class="cls-3" d="M61.47,154.86c-1.2,0-2.13-.3-2.8-.89-.67-.59-1-1.5-1-2.73v-5.82h-3.09v-1.64h3.09v-3.64h1.82v3.64h4.73v1.64h-4.73v5.65c0,.7,.18,1.22,.53,1.56,.35,.34,.87,.51,1.56,.51,.46,0,.89-.03,1.29-.1,.4-.07,.78-.15,1.15-.26l.36,1.65c-.41,.12-.85,.22-1.32,.3-.47,.08-1,.12-1.59,.12Z"/>
  <path class="cls-3" d="M67.86,154.7v-1.64h3.64v-7.64h-3.64v-1.64h5.45v9.27h3.64v1.64h-9.09Zm4.55-12.91c-.46,0-.83-.07-1.12-.22-.29-.15-.43-.42-.43-.82v-.13c0-.41,.14-.69,.43-.85,.28-.15,.66-.23,1.12-.23s.83,.08,1.12,.23c.28,.15,.43,.43,.43,.85v.13c0,.4-.15,.67-.44,.82s-.66,.22-1.11,.22Z"/>
  <path class="cls-3" d="M85.13,154.88c-1.47,0-2.59-.35-3.37-1.06-.78-.71-1.17-1.73-1.17-3.06v-2.95c0-1.35,.39-2.38,1.18-3.11,.79-.73,1.92-1.09,3.38-1.09s2.57,.36,3.35,1.09,1.17,1.76,1.17,3.11v2.95c0,1.33-.39,2.35-1.17,3.06s-1.91,1.06-3.37,1.06Zm0-1.64c.92,0,1.61-.21,2.05-.62,.45-.41,.67-1.04,.67-1.87v-2.95c0-.87-.22-1.52-.67-1.94-.45-.42-1.13-.63-2.05-.63s-1.61,.21-2.05,.63c-.45,.42-.67,1.06-.67,1.94v2.95c0,.84,.22,1.46,.67,1.87,.45,.41,1.13,.62,2.05,.62Z"/>
  <path class="cls-3" d="M93.31,154.7v-10.91h1.82v1.82h.55c.27-.62,.69-1.11,1.25-1.46,.57-.36,1.22-.54,1.95-.54,1.09,0,1.95,.33,2.58,1,.63,.67,.95,1.58,.95,2.73v7.36h-1.82v-7c0-.76-.19-1.35-.55-1.75-.37-.41-.9-.61-1.59-.61-.55,0-1.1,.16-1.66,.49s-1.11,.8-1.65,1.42v7.45h-1.82Z"/>
  <path class="cls-1" d="M123.45,154.88c-.92,0-1.81-.14-2.67-.41-.86-.27-1.65-.69-2.38-1.26l.82-1.44c.59,.49,1.26,.85,1.99,1.1s1.48,.37,2.25,.37c.63,0,1.23-.1,1.81-.29,.58-.19,.86-.6,.86-1.23,0-.52-.24-.89-.71-1.1-.47-.22-1.34-.4-2.6-.56-1.33-.16-2.34-.47-3.03-.94-.68-.47-1.03-1.21-1.03-2.22,0-1.09,.41-1.92,1.24-2.47,.82-.55,1.78-.83,2.87-.83,.86,0,1.69,.15,2.48,.44,.79,.29,1.53,.7,2.21,1.24l-.82,1.44c-.56-.45-1.16-.81-1.82-1.07-.65-.27-1.34-.4-2.05-.4-.58,0-1.11,.11-1.59,.33-.48,.22-.72,.62-.72,1.2,0,.5,.22,.86,.66,1.08,.44,.22,1.29,.42,2.55,.57,1.38,.16,2.42,.49,3.11,1.01,.69,.52,1.04,1.23,1.04,2.15,0,1.14-.46,1.97-1.38,2.5-.92,.53-1.95,.79-3.09,.79Z"/>
  <path class="cls-1" d="M135.89,154.88c-.41,0-.85-.04-1.3-.14-.45-.09-.88-.22-1.28-.37v3.96h-1.82v-14.55h1.82v1.82h.55c.3-.62,.74-1.11,1.32-1.46s1.2-.54,1.86-.54c1.09,0,1.95,.37,2.59,1.12s.95,1.75,.95,3.03v2.96c0,1.28-.42,2.3-1.26,3.04-.84,.75-1.98,1.12-3.43,1.12Zm-.02-1.6c1.02,0,1.75-.21,2.21-.62s.68-1.07,.68-1.98v-2.95c0-.84-.17-1.45-.52-1.83-.35-.38-.9-.57-1.66-.57-.61,0-1.17,.15-1.69,.45-.52,.3-1.05,.79-1.58,1.46v5.34c.38,.23,.77,.4,1.17,.52,.41,.12,.87,.17,1.39,.17Z"/>
  <path class="cls-1" d="M144.22,154.7v-1.64h3.64v-7.64h-3.64v-1.64h5.45v9.27h3.64v1.64h-9.09Zm4.55-12.91c-.46,0-.83-.07-1.12-.22-.29-.15-.43-.42-.43-.82v-.13c0-.41,.14-.69,.43-.85,.28-.15,.66-.23,1.12-.23s.83,.08,1.12,.23c.28,.15,.43,.43,.43,.85v.13c0,.4-.15,.67-.44,.82s-.66,.22-1.11,.22Z"/>
  <path class="cls-1" d="M156.95,154.7v-10.91h1.82v1.82h.55c.27-.62,.69-1.11,1.25-1.46,.57-.36,1.22-.54,1.95-.54,1.09,0,1.95,.33,2.58,1,.63,.67,.95,1.58,.95,2.73v7.36h-1.82v-7c0-.76-.19-1.35-.55-1.75-.37-.41-.9-.61-1.59-.61-.55,0-1.1,.16-1.66,.49s-1.11,.8-1.65,1.42v7.45h-1.82Z"/>
  <path class="cls-1" d="M176.36,154.7l-2.15-8.67-2.15,8.67h-1.82l-1.96-14.55h1.8l1.31,11.87,1.91-8.24h1.91l1.91,8.24,1.31-11.87h1.71l-1.96,14.55h-1.82Z"/>
  <path class="cls-1" d="M186.94,154.88c-1.47,0-2.59-.35-3.37-1.06-.78-.71-1.17-1.73-1.17-3.06v-2.95c0-1.35,.39-2.38,1.18-3.11,.79-.73,1.92-1.09,3.38-1.09s2.57,.36,3.35,1.09,1.17,1.76,1.17,3.11v2.95c0,1.33-.39,2.35-1.17,3.06s-1.91,1.06-3.37,1.06Zm0-1.64c.92,0,1.61-.21,2.05-.62,.45-.41,.67-1.04,.67-1.87v-2.95c0-.87-.22-1.52-.67-1.94-.45-.42-1.13-.63-2.05-.63s-1.61,.21-2.05,.63c-.45,.42-.67,1.06-.67,1.94v2.95c0,.84,.22,1.46,.67,1.87,.45,.41,1.13,.62,2.05,.62Z"/>
  <path class="cls-1" d="M196.03,154.7v-10.91h1.82v1.82h.55c.25-.69,.64-1.2,1.16-1.52,.52-.32,1.15-.48,1.89-.48,.81,0,1.49,.27,2.04,.81,.55,.54,.82,1.3,.82,2.28v1.64h-1.73v-.98c0-.69-.15-1.2-.46-1.53s-.78-.49-1.41-.49c-.57,0-1.09,.14-1.55,.42-.47,.28-.9,.71-1.3,1.31v7.64h-1.82Z"/>
  <path class="cls-1" d="M214.58,152.88c-.32,.63-.75,1.12-1.31,1.47s-1.18,.53-1.87,.53c-1.13,0-2-.36-2.62-1.09s-.93-1.75-.93-3.05v-2.96c0-1.32,.41-2.34,1.24-3.07,.82-.73,1.98-1.09,3.45-1.09,.42,0,.86,.04,1.31,.14,.45,.09,.87,.21,1.27,.37v-3.96h1.82v14.55h-1.82v-1.82h-.55Zm-2.73,.27c.59,0,1.16-.16,1.69-.47,.53-.31,1.06-.79,1.58-1.44v-5.35c-.38-.23-.78-.4-1.2-.52-.42-.12-.88-.17-1.36-.17-.98,0-1.71,.22-2.18,.65-.47,.43-.71,1.08-.71,1.96v2.93c0,.81,.18,1.42,.55,1.82,.36,.4,.91,.6,1.64,.6Z"/>
  <path class="cls-1" d="M225.27,154.88c-.92,0-1.81-.14-2.67-.41-.86-.27-1.65-.69-2.38-1.26l.82-1.44c.59,.49,1.26,.85,1.99,1.1s1.48,.37,2.25,.37c.63,0,1.23-.1,1.81-.29,.58-.19,.86-.6,.86-1.23,0-.52-.24-.89-.71-1.1-.47-.22-1.34-.4-2.6-.56-1.33-.16-2.34-.47-3.03-.94-.68-.47-1.03-1.21-1.03-2.22,0-1.09,.41-1.92,1.24-2.47,.82-.55,1.78-.83,2.87-.83,.86,0,1.69,.15,2.48,.44,.79,.29,1.53,.7,2.21,1.24l-.82,1.44c-.56-.45-1.16-.81-1.82-1.07-.65-.27-1.34-.4-2.05-.4-.58,0-1.11,.11-1.59,.33-.48,.22-.72,.62-.72,1.2,0,.5,.22,.86,.66,1.08,.44,.22,1.29,.42,2.55,.57,1.38,.16,2.42,.49,3.11,1.01,.69,.52,1.04,1.23,1.04,2.15,0,1.14-.46,1.97-1.38,2.5-.92,.53-1.95,.79-3.09,.79Z"/>
  <path class="cls-2" d="M241.49,158.51c-1.9-.45-3.44-1.49-4.61-3.11-1.17-1.62-1.75-3.68-1.75-6.16s.58-4.54,1.75-6.16c1.17-1.62,2.71-2.66,4.61-3.11l.18,1.42c-1.62,.45-2.82,1.39-3.58,2.81-.76,1.42-1.15,3.11-1.15,5.05s.38,3.62,1.15,5.04,1.96,2.36,3.58,2.81l-.18,1.42Z"/>
  <path class="cls-1" d="M250.73,154.88c-.92,0-1.81-.14-2.67-.41-.86-.27-1.65-.69-2.38-1.26l.82-1.44c.59,.49,1.26,.85,1.99,1.1s1.48,.37,2.25,.37c.63,0,1.23-.1,1.81-.29,.58-.19,.86-.6,.86-1.23,0-.52-.24-.89-.71-1.1-.47-.22-1.34-.4-2.6-.56-1.33-.16-2.34-.47-3.03-.94-.68-.47-1.03-1.21-1.03-2.22,0-1.09,.41-1.92,1.24-2.47,.82-.55,1.78-.83,2.87-.83,.86,0,1.69,.15,2.48,.44,.79,.29,1.53,.7,2.21,1.24l-.82,1.44c-.56-.45-1.16-.81-1.82-1.07-.65-.27-1.34-.4-2.05-.4-.58,0-1.11,.11-1.59,.33-.48,.22-.72,.62-.72,1.2,0,.5,.22,.86,.66,1.08,.44,.22,1.29,.42,2.55,.57,1.38,.16,2.42,.49,3.11,1.01,.69,.52,1.04,1.23,1.04,2.15,0,1.14-.46,1.97-1.38,2.5-.92,.53-1.95,.79-3.09,.79Z"/>
  <path class="cls-1" d="M265.11,154.86c-1.2,0-2.13-.3-2.8-.89-.67-.59-1-1.5-1-2.73v-5.82h-3.09v-1.64h3.09v-3.64h1.82v3.64h4.73v1.64h-4.73v5.65c0,.7,.18,1.22,.53,1.56,.35,.34,.87,.51,1.56,.51,.46,0,.89-.03,1.29-.1,.4-.07,.78-.15,1.15-.26l.36,1.65c-.41,.12-.85,.22-1.32,.3-.47,.08-1,.12-1.59,.12Z"/>
  <path class="cls-1" d="M272.4,154.7v-10.91h1.82v1.82h.55c.25-.69,.64-1.2,1.16-1.52,.52-.32,1.15-.48,1.89-.48,.81,0,1.49,.27,2.04,.81,.55,.54,.82,1.3,.82,2.28v1.64h-1.73v-.98c0-.69-.15-1.2-.46-1.53s-.78-.49-1.41-.49c-.57,0-1.09,.14-1.55,.42-.47,.28-.9,.71-1.3,1.31v7.64h-1.82Z"/>
  <path class="cls-2" d="M285.12,158.51l-.18-1.42c1.62-.45,2.82-1.39,3.58-2.83,.76-1.44,1.15-3.11,1.15-5.03s-.38-3.59-1.15-5.03c-.76-1.44-1.96-2.38-3.58-2.83l.18-1.42c1.9,.45,3.44,1.49,4.61,3.12,1.17,1.63,1.75,3.68,1.75,6.16s-.58,4.52-1.75,6.15c-1.17,1.63-2.71,2.67-4.61,3.12Z"/>
  <path class="cls-2" d="M305.12,158.51c-2.55,.05-4.39-.18-5.55-.68-1.15-.5-1.73-1.28-1.73-2.34,0-.61,.12-1.12,.37-1.53,.25-.41,.52-.77,.81-1.07,.3-.3,.58-.59,.82-.85,.24-.27,.36-.55,.36-.85,0-.57-.3-.97-.91-1.21s-1.7-.37-3.27-.41v-1.09c1.58-.04,2.67-.17,3.27-.4s.91-.62,.91-1.18c0-.3-.12-.56-.36-.77-.24-.21-.52-.45-.82-.72-.29-.27-.56-.59-.81-.96-.25-.38-.37-.87-.37-1.49,0-1.03,.58-1.8,1.73-2.3,1.15-.5,3-.73,5.55-.68v1.64c-2.05-.04-3.47,.07-4.26,.33s-1.19,.67-1.19,1.24c0,.24,.09,.49,.26,.75,.18,.25,.49,.59,.94,1,.44,.4,.74,.74,.91,1.03,.17,.29,.25,.6,.25,.94,0,.68-.3,1.19-.9,1.54-.6,.35-1.46,.54-2.59,.59v.09c1.13,.12,1.99,.38,2.59,.76,.6,.39,.9,.93,.9,1.64,0,.3-.09,.59-.27,.87-.18,.28-.5,.63-.96,1.05-.42,.36-.72,.68-.88,.94s-.25,.56-.25,.9c0,.61,.4,1.04,1.19,1.31s2.22,.38,4.26,.34v1.6Z"/>
  <path class="cls-3" d="M30.58,178.7v-10.91h1.82v1.82h.55c.25-.69,.64-1.2,1.16-1.52,.52-.32,1.15-.48,1.89-.48,.81,0,1.49,.27,2.04,.81,.55,.54,.82,1.3,.82,2.28v1.64h-1.73v-.98c0-.69-.15-1.2-.46-1.53s-.78-.49-1.41-.49c-.57,0-1.09,.14-1.55,.42-.47,.28-.9,.71-1.3,1.31v7.64h-1.82Z"/>
  <path class="cls-3" d="M51.53,176.3c-.33,.91-.82,1.57-1.49,1.97-.67,.41-1.69,.61-3.07,.61s-2.56-.35-3.36-1.04c-.8-.7-1.2-1.73-1.2-3.1v-2.93c0-1.41,.42-2.46,1.26-3.16,.84-.7,1.94-1.04,3.3-1.04s2.47,.35,3.29,1.06c.82,.71,1.24,1.8,1.24,3.26v1.67h-7.27v1.15c0,.91,.23,1.57,.68,1.97s1.14,.61,2.05,.61,1.51-.12,1.91-.36c.4-.24,.7-.64,.91-1.18l1.76,.51Zm-7.31-4.49v.44h5.45v-.27c0-.98-.23-1.7-.68-2.15-.45-.45-1.14-.67-2.05-.67s-1.59,.22-2.05,.65c-.45,.43-.68,1.1-.68,2.01Z"/>
  <path class="cls-3" d="M61.47,178.86c-1.2,0-2.13-.3-2.8-.89-.67-.59-1-1.5-1-2.73v-5.82h-3.09v-1.64h3.09v-3.64h1.82v3.64h4.73v1.64h-4.73v5.65c0,.7,.18,1.22,.53,1.56,.35,.34,.87,.51,1.56,.51,.46,0,.89-.03,1.29-.1,.4-.07,.78-.15,1.15-.26l.36,1.65c-.41,.12-.85,.22-1.32,.3-.47,.08-1,.12-1.59,.12Z"/>
  <path class="cls-3" d="M71.38,178.88c-1.05,0-1.91-.34-2.55-1.03-.65-.68-.97-1.58-.97-2.7v-7.36h1.82v7c0,.8,.18,1.39,.53,1.78s.89,.58,1.62,.58c.57,0,1.12-.15,1.66-.46,.54-.31,1.09-.79,1.65-1.45v-7.46h1.82v10.91h-1.82v-1.82h-.55c-.25,.59-.68,1.08-1.26,1.45-.59,.37-1.23,.55-1.94,.55Z"/>
  <path class="cls-3" d="M81.49,178.7v-10.91h1.82v1.82h.55c.25-.69,.64-1.2,1.16-1.52,.52-.32,1.15-.48,1.89-.48,.81,0,1.49,.27,2.04,.81,.55,.54,.82,1.3,.82,2.28v1.64h-1.73v-.98c0-.69-.15-1.2-.46-1.53s-.78-.49-1.41-.49c-.57,0-1.09,.14-1.55,.42-.47,.28-.9,.71-1.3,1.31v7.64h-1.82Z"/>
  <path class="cls-3" d="M93.31,178.7v-10.91h1.82v1.82h.55c.27-.62,.69-1.11,1.25-1.46,.57-.36,1.22-.54,1.95-.54,1.09,0,1.95,.33,2.58,1,.63,.67,.95,1.58,.95,2.73v7.36h-1.82v-7c0-.76-.19-1.35-.55-1.75-.37-.41-.9-.61-1.59-.61-.55,0-1.1,.16-1.66,.49s-1.11,.8-1.65,1.42v7.45h-1.82Z"/>
  <path class="cls-1" d="M123.45,178.88c-.92,0-1.81-.14-2.67-.41-.86-.27-1.65-.69-2.38-1.26l.82-1.44c.59,.49,1.26,.85,1.99,1.1s1.48,.37,2.25,.37c.63,0,1.23-.1,1.81-.29,.58-.19,.86-.6,.86-1.23,0-.52-.24-.89-.71-1.1-.47-.22-1.34-.4-2.6-.56-1.33-.16-2.34-.47-3.03-.94-.68-.47-1.03-1.21-1.03-2.22,0-1.09,.41-1.92,1.24-2.47,.82-.55,1.78-.83,2.87-.83,.86,0,1.69,.15,2.48,.44,.79,.29,1.53,.7,2.21,1.24l-.82,1.44c-.56-.45-1.16-.81-1.82-1.07-.65-.27-1.34-.4-2.05-.4-.58,0-1.11,.11-1.59,.33-.48,.22-.72,.62-.72,1.2,0,.5,.22,.86,.66,1.08,.44,.22,1.29,.42,2.55,.57,1.38,.16,2.42,.49,3.11,1.01,.69,.52,1.04,1.23,1.04,2.15,0,1.14-.46,1.97-1.38,2.5-.92,.53-1.95,.79-3.09,.79Z"/>
  <path class="cls-1" d="M137.84,178.86c-1.2,0-2.13-.3-2.8-.89-.67-.59-1-1.5-1-2.73v-5.82h-3.09v-1.64h3.09v-3.64h1.82v3.64h4.73v1.64h-4.73v5.65c0,.7,.18,1.22,.53,1.56,.35,.34,.87,.51,1.56,.51,.46,0,.89-.03,1.29-.1,.4-.07,.78-.15,1.15-.26l.36,1.65c-.41,.12-.85,.22-1.32,.3-.47,.08-1,.12-1.59,.12Z"/>
  <path class="cls-1" d="M145.13,178.7v-10.91h1.82v1.82h.55c.25-.69,.64-1.2,1.16-1.52,.52-.32,1.15-.48,1.89-.48,.81,0,1.49,.27,2.04,.81,.55,.54,.82,1.3,.82,2.28v1.64h-1.73v-.98c0-.69-.15-1.2-.46-1.53s-.78-.49-1.41-.49c-.57,0-1.09,.14-1.55,.42-.47,.28-.9,.71-1.3,1.31v7.64h-1.82Z"/>
  <path class="cls-2" d="M161.51,178.88c-.61,0-1.1-.14-1.47-.41-.38-.27-.56-.71-.56-1.3v-.51c0-.59,.19-1.03,.56-1.32,.38-.29,.87-.43,1.47-.43s1.09,.14,1.46,.43,.55,.72,.55,1.32v.51c0,.59-.19,1.03-.56,1.3-.38,.27-.86,.41-1.45,.41Z"/>
  <path class="cls-3" d="M174.36,178.88c-.92,0-1.81-.14-2.67-.41-.86-.27-1.65-.69-2.38-1.26l.82-1.44c.59,.49,1.26,.85,1.99,1.1s1.48,.37,2.25,.37c.63,0,1.23-.1,1.81-.29,.58-.19,.86-.6,.86-1.23,0-.52-.24-.89-.71-1.1-.47-.22-1.34-.4-2.6-.56-1.33-.16-2.34-.47-3.03-.94-.68-.47-1.03-1.21-1.03-2.22,0-1.09,.41-1.92,1.24-2.47,.82-.55,1.78-.83,2.87-.83,.86,0,1.69,.15,2.48,.44,.79,.29,1.53,.7,2.21,1.24l-.82,1.44c-.56-.45-1.16-.81-1.82-1.07-.65-.27-1.34-.4-2.05-.4-.58,0-1.11,.11-1.59,.33-.48,.22-.72,.62-.72,1.2,0,.5,.22,.86,.66,1.08,.44,.22,1.29,.42,2.55,.57,1.38,.16,2.42,.49,3.11,1.01,.69,.52,1.04,1.23,1.04,2.15,0,1.14-.46,1.97-1.38,2.5-.92,.53-1.95,.79-3.09,.79Z"/>
  <path class="cls-3" d="M186.8,178.88c-.41,0-.85-.04-1.3-.14-.45-.09-.88-.22-1.28-.37v3.96h-1.82v-14.55h1.82v1.82h.55c.3-.62,.74-1.11,1.32-1.46s1.2-.54,1.86-.54c1.09,0,1.95,.37,2.59,1.12s.95,1.75,.95,3.03v2.96c0,1.28-.42,2.3-1.26,3.04-.84,.75-1.98,1.12-3.43,1.12Zm-.02-1.6c1.02,0,1.75-.21,2.21-.62s.68-1.07,.68-1.98v-2.95c0-.84-.17-1.45-.52-1.83-.35-.38-.9-.57-1.66-.57-.61,0-1.17,.15-1.69,.45-.52,.3-1.05,.79-1.58,1.46v5.34c.38,.23,.77,.4,1.17,.52,.41,.12,.87,.17,1.39,.17Z"/>
  <path class="cls-3" d="M195.13,178.7v-1.64h3.64v-11.27h-3.64v-1.64h5.45v12.91h3.64v1.64h-9.09Z"/>
  <path class="cls-3" d="M207.85,178.7v-1.64h3.64v-7.64h-3.64v-1.64h5.45v9.27h3.64v1.64h-9.09Zm4.55-12.91c-.46,0-.83-.07-1.12-.22-.29-.15-.43-.42-.43-.82v-.13c0-.41,.14-.69,.43-.85,.28-.15,.66-.23,1.12-.23s.83,.08,1.12,.23c.28,.15,.43,.43,.43,.85v.13c0,.4-.15,.67-.44,.82s-.66,.22-1.11,.22Z"/>
  <path class="cls-3" d="M226.93,178.86c-1.2,0-2.13-.3-2.8-.89-.67-.59-1-1.5-1-2.73v-5.82h-3.09v-1.64h3.09v-3.64h1.82v3.64h4.73v1.64h-4.73v5.65c0,.7,.18,1.22,.53,1.56,.35,.34,.87,.51,1.56,.51,.46,0,.89-.03,1.29-.1,.4-.07,.78-.15,1.15-.26l.36,1.65c-.41,.12-.85,.22-1.32,.3-.47,.08-1,.12-1.59,.12Z"/>
  <path class="cls-2" d="M241.49,182.51c-1.9-.45-3.44-1.49-4.61-3.11-1.17-1.62-1.75-3.68-1.75-6.16s.58-4.54,1.75-6.16c1.17-1.62,2.71-2.66,4.61-3.11l.18,1.42c-1.62,.45-2.82,1.39-3.58,2.81-.76,1.42-1.15,3.11-1.15,5.05s.38,3.62,1.15,5.04,1.96,2.36,3.58,2.81l-.18,1.42Z"/>
  <path class="cls-2" d="M249.67,171.42l-.55-7.27h2.91l-.55,7.27h-1.82Z"/>
  <path class="cls-2" d="M275.12,171.42l-.55-7.27h2.91l-.55,7.27h-1.82Z"/>
  <path class="cls-2" d="M285.12,182.51l-.18-1.42c1.62-.45,2.82-1.39,3.58-2.83,.76-1.44,1.15-3.11,1.15-5.03s-.38-3.59-1.15-5.03c-.76-1.44-1.96-2.38-3.58-2.83l.18-1.42c1.9,.45,3.44,1.49,4.61,3.12,1.17,1.63,1.75,3.68,1.75,6.16s-.58,4.52-1.75,6.15c-1.17,1.63-2.71,2.67-4.61,3.12Z"/>
  <path class="cls-2" d="M301.51,178.88c-.61,0-1.1-.14-1.47-.41-.38-.27-.56-.71-.56-1.3v-.51c0-.59,.19-1.03,.56-1.32,.38-.29,.87-.43,1.47-.43s1.09,.14,1.46,.43,.55,.72,.55,1.32v.51c0,.59-.19,1.03-.56,1.3-.38,.27-.86,.41-1.45,.41Z"/>
  <path class="cls-3" d="M310.62,170.88v7.82h-1.67v-10.91h1.67v1.46h.36c.23-.51,.53-.91,.91-1.2,.38-.29,.77-.44,1.18-.44,.47,0,.87,.14,1.19,.43,.32,.29,.54,.69,.66,1.21h.4c.23-.51,.54-.91,.94-1.2,.39-.29,.81-.44,1.26-.44,.61,0,1.08,.25,1.44,.74s.53,1.15,.53,1.99v8.36h-1.67v-8.07c0-.55-.07-.96-.22-1.24-.15-.28-.36-.42-.64-.42-.23,0-.52,.17-.86,.51-.35,.34-.69,.81-1.05,1.4v7.82h-1.67v-8.07c0-.55-.08-.96-.23-1.24-.15-.28-.37-.42-.65-.42-.24,0-.52,.16-.85,.49-.32,.33-.67,.8-1.05,1.42Z"/>
  <path class="cls-3" d="M325.4,178.88c-.92,0-1.74-.25-2.46-.74s-1.08-1.28-1.08-2.37c0-.96,.31-1.71,.94-2.25,.62-.55,1.35-.82,2.19-.82h3.78v-1.56c0-.58-.19-1.04-.58-1.38-.39-.34-.98-.51-1.76-.51s-1.4,.12-1.79,.35c-.39,.24-.71,.76-.94,1.57l-1.6-.44c.21-1.03,.67-1.81,1.39-2.34s1.69-.79,2.9-.79,2.2,.27,3,.81c.8,.54,1.2,1.38,1.2,2.5v4.88c0,.66,.18,1.07,.55,1.23s.91,.19,1.64,.06v1.65c-.75,.11-1.46,.06-2.12-.15s-1.02-.79-1.08-1.72h-.36c-.34,.56-.85,1.03-1.53,1.42-.68,.39-1.44,.58-2.27,.58Zm.24-1.54c.63,0,1.21-.11,1.75-.34s.99-.62,1.38-1.18v-1.76h-3.27c-.52,0-.95,.12-1.3,.36-.35,.24-.52,.66-.52,1.25,0,.52,.15,.93,.45,1.22,.3,.29,.8,.44,1.52,.44Z"/>
  <path class="cls-3" d="M339.52,178.88c-.41,0-.85-.04-1.3-.14-.45-.09-.88-.22-1.28-.37v3.96h-1.82v-14.55h1.82v1.82h.55c.3-.62,.74-1.11,1.32-1.46s1.2-.54,1.86-.54c1.09,0,1.95,.37,2.59,1.12s.95,1.75,.95,3.03v2.96c0,1.28-.42,2.3-1.26,3.04-.84,.75-1.98,1.12-3.43,1.12Zm-.02-1.6c1.02,0,1.75-.21,2.21-.62s.68-1.07,.68-1.98v-2.95c0-.84-.17-1.45-.52-1.83-.35-.38-.9-.57-1.66-.57-.61,0-1.17,.15-1.69,.45-.52,.3-1.05,.79-1.58,1.46v5.34c.38,.23,.77,.4,1.17,.52,.41,.12,.87,.17,1.39,.17Z"/>
  <path class="cls-2" d="M356.03,182.51c-1.9-.45-3.44-1.49-4.61-3.11-1.17-1.62-1.75-3.68-1.75-6.16s.58-4.54,1.75-6.16c1.17-1.62,2.71-2.66,4.61-3.11l.18,1.42c-1.62,.45-2.82,1.39-3.58,2.81-.76,1.42-1.15,3.11-1.15,5.05s.38,3.62,1.15,5.04,1.96,2.36,3.58,2.81l-.18,1.42Z"/>
  <path class="cls-2" d="M366.72,178.7l-1.6-7.11-1.53,7.11h-2.07l-2.05-10.91h1.75l1.38,9.58,1.42-7.76h2.15l1.55,7.47,1.33-9.29h1.75l-2.05,10.91h-2Z"/>
  <path class="cls-2" d="M377.85,178.88c-1.47,0-2.59-.35-3.37-1.06-.78-.71-1.17-1.73-1.17-3.06v-2.95c0-1.35,.39-2.38,1.18-3.11,.79-.73,1.92-1.09,3.38-1.09s2.57,.36,3.35,1.09,1.17,1.76,1.17,3.11v2.95c0,1.33-.39,2.35-1.17,3.06s-1.91,1.06-3.37,1.06Zm0-1.64c.92,0,1.61-.21,2.05-.62,.45-.41,.67-1.04,.67-1.87v-2.95c0-.87-.22-1.52-.67-1.94-.45-.42-1.13-.63-2.05-.63s-1.61,.21-2.05,.63c-.45,.42-.67,1.06-.67,1.94v2.95c0,.84,.22,1.46,.67,1.87,.45,.41,1.13,.62,2.05,.62Z"/>
  <path class="cls-2" d="M386.94,178.7v-10.91h1.82v1.82h.55c.25-.69,.64-1.2,1.16-1.52,.52-.32,1.15-.48,1.89-.48,.81,0,1.49,.27,2.04,.81,.55,.54,.82,1.3,.82,2.28v1.64h-1.73v-.98c0-.69-.15-1.2-.46-1.53s-.78-.49-1.41-.49c-.57,0-1.09,.14-1.55,.42-.47,.28-.9,.71-1.3,1.31v7.64h-1.82Z"/>
  <path class="cls-2" d="M405.49,176.88c-.32,.63-.75,1.12-1.31,1.47s-1.18,.53-1.87,.53c-1.13,0-2-.36-2.62-1.09s-.93-1.75-.93-3.05v-2.96c0-1.32,.41-2.34,1.24-3.07,.82-.73,1.98-1.09,3.45-1.09,.42,0,.86,.04,1.31,.14,.45,.09,.87,.21,1.27,.37v-3.96h1.82v14.55h-1.82v-1.82h-.55Zm-2.73,.27c.59,0,1.16-.16,1.69-.47,.53-.31,1.06-.79,1.58-1.44v-5.35c-.38-.23-.78-.4-1.2-.52-.42-.12-.88-.17-1.36-.17-.98,0-1.71,.22-2.18,.65-.47,.43-.71,1.08-.71,1.96v2.93c0,.81,.18,1.42,.55,1.82,.36,.4,.91,.6,1.64,.6Z"/>
  <path class="cls-2" d="M423.67,170.7v-1.82h10.18v1.82h-10.18Zm0,5.09v-1.82h10.18v1.82h-10.18Z"/>
  <path class="cls-2" d="M436.94,178.33v-1.73l7.64-4.27-7.64-4.27v-1.73l9.09,5.09v1.82l-9.09,5.09Z"/>
  <path class="cls-1" d="M468.54,178.7l-1.6-7.11-1.53,7.11h-2.07l-2.05-10.91h1.75l1.38,9.58,1.42-7.76h2.15l1.55,7.47,1.33-9.29h1.75l-2.05,10.91h-2Z"/>
  <path class="cls-1" d="M479.67,178.88c-1.47,0-2.59-.35-3.37-1.06-.78-.71-1.17-1.73-1.17-3.06v-2.95c0-1.35,.39-2.38,1.18-3.11,.79-.73,1.92-1.09,3.38-1.09s2.57,.36,3.35,1.09,1.17,1.76,1.17,3.11v2.95c0,1.33-.39,2.35-1.17,3.06s-1.91,1.06-3.37,1.06Zm0-1.64c.92,0,1.61-.21,2.05-.62,.45-.41,.67-1.04,.67-1.87v-2.95c0-.87-.22-1.52-.67-1.94-.45-.42-1.13-.63-2.05-.63s-1.61,.21-2.05,.63c-.45,.42-.67,1.06-.67,1.94v2.95c0,.84,.22,1.46,.67,1.87,.45,.41,1.13,.62,2.05,.62Z"/>
  <path class="cls-1" d="M488.76,178.7v-10.91h1.82v1.82h.55c.25-.69,.64-1.2,1.16-1.52,.52-.32,1.15-.48,1.89-.48,.81,0,1.49,.27,2.04,.81,.55,.54,.82,1.3,.82,2.28v1.64h-1.73v-.98c0-.69-.15-1.2-.46-1.53s-.78-.49-1.41-.49c-.57,0-1.09,.14-1.55,.42-.47,.28-.9,.71-1.3,1.31v7.64h-1.82Z"/>
  <path class="cls-1" d="M507.3,176.88c-.32,.63-.75,1.12-1.31,1.47s-1.18,.53-1.87,.53c-1.13,0-2-.36-2.62-1.09s-.93-1.75-.93-3.05v-2.96c0-1.32,.41-2.34,1.24-3.07,.82-.73,1.98-1.09,3.45-1.09,.42,0,.86,.04,1.31,.14,.45,.09,.87,.21,1.27,.37v-3.96h1.82v14.55h-1.82v-1.82h-.55Zm-2.73,.27c.59,0,1.16-.16,1.69-.47,.53-.31,1.06-.79,1.58-1.44v-5.35c-.38-.23-.78-.4-1.2-.52-.42-.12-.88-.17-1.36-.17-.98,0-1.71,.22-2.18,.65-.47,.43-.71,1.08-.71,1.96v2.93c0,.81,.18,1.42,.55,1.82,.36,.4,.91,.6,1.64,.6Z"/>
  <path class="cls-2" d="M517.87,178.88c-.61,0-1.1-.14-1.47-.41-.38-.27-.56-.71-.56-1.3v-.51c0-.59,.19-1.03,.56-1.32,.38-.29,.87-.43,1.47-.43s1.09,.14,1.46,.43,.55,.72,.55,1.32v.51c0,.59-.19,1.03-.56,1.3-.38,.27-.86,.41-1.45,.41Z"/>
  <path class="cls-3" d="M526.03,178.7v-1.64h3.64v-11.27h-3.64v-1.64h5.45v12.91h3.64v1.64h-9.09Z"/>
  <path class="cls-3" d="M547.88,176.3c-.33,.91-.82,1.57-1.49,1.97-.67,.41-1.69,.61-3.07,.61s-2.56-.35-3.36-1.04c-.8-.7-1.2-1.73-1.2-3.1v-2.93c0-1.41,.42-2.46,1.26-3.16,.84-.7,1.94-1.04,3.3-1.04s2.47,.35,3.29,1.06c.82,.71,1.24,1.8,1.24,3.26v1.67h-7.27v1.15c0,.91,.23,1.57,.68,1.97s1.14,.61,2.05,.61,1.51-.12,1.91-.36c.4-.24,.7-.64,.91-1.18l1.76,.51Zm-7.31-4.49v.44h5.45v-.27c0-.98-.23-1.7-.68-2.15-.45-.45-1.14-.67-2.05-.67s-1.59,.22-2.05,.65c-.45,.43-.68,1.1-.68,2.01Z"/>
  <path class="cls-3" d="M551.48,178.7v-10.91h1.82v1.82h.55c.27-.62,.69-1.11,1.25-1.46,.57-.36,1.22-.54,1.95-.54,1.09,0,1.95,.33,2.58,1,.63,.67,.95,1.58,.95,2.73v7.36h-1.82v-7c0-.76-.19-1.35-.55-1.75-.37-.41-.9-.61-1.59-.61-.55,0-1.1,.16-1.66,.49s-1.11,.8-1.65,1.42v7.45h-1.82Z"/>
  <path class="cls-3" d="M574.21,179.57c0,.98-.36,1.72-1.08,2.21-.72,.49-1.6,.74-2.65,.74h-3.42c-1.09,0-1.99-.22-2.7-.65-.71-.44-1.06-1.11-1.06-2.02,0-.58,.15-1.05,.46-1.39,.31-.35,.76-.54,1.35-.59v-.38c-.42-.07-.77-.25-1.05-.53-.27-.28-.41-.71-.41-1.29,0-.52,.16-.99,.49-1.4,.33-.42,.88-.65,1.65-.71v-.34c-.59-.19-.99-.49-1.2-.88-.21-.4-.31-.78-.31-1.14v-.49c0-.84,.36-1.53,1.07-2.08,.71-.55,1.72-.82,3.02-.82h5.36v1.64l-2.82-.42v.33c.48,.13,.85,.39,1.1,.76,.25,.38,.37,.75,.37,1.13v.47c0,.84-.32,1.51-.96,2.03-.64,.52-1.69,.77-3.13,.77h-2.2c-.33,0-.58,.08-.75,.25-.17,.16-.25,.44-.25,.83s.12,.66,.35,.84c.24,.19,.59,.28,1.06,.28h4.13c1.02,0,1.86,.22,2.54,.67s1.01,1.18,1.01,2.2Zm-7.18,1.47h3.69c.55,0,.99-.1,1.33-.31,.34-.21,.51-.56,.51-1.07s-.15-.83-.46-1.03-.71-.31-1.19-.31h-5.78v1.23c0,.49,.16,.86,.49,1.11,.33,.25,.8,.37,1.42,.37Zm1.36-7.91c.74,0,1.3-.13,1.69-.4,.39-.27,.58-.69,.58-1.26v-.58c0-.57-.19-.99-.58-1.25-.39-.26-.95-.39-1.69-.39s-1.3,.13-1.69,.39c-.39,.26-.58,.68-.58,1.25v.58c0,.57,.19,.99,.58,1.26,.39,.27,.95,.4,1.69,.4Z"/>
  <path class="cls-3" d="M583.28,178.86c-1.2,0-2.13-.3-2.8-.89-.67-.59-1-1.5-1-2.73v-5.82h-3.09v-1.64h3.09v-3.64h1.82v3.64h4.73v1.64h-4.73v5.65c0,.7,.18,1.22,.53,1.56,.35,.34,.87,.51,1.56,.51,.46,0,.89-.03,1.29-.1,.4-.07,.78-.15,1.15-.26l.36,1.65c-.41,.12-.85,.22-1.32,.3-.47,.08-1,.12-1.59,.12Z"/>
  <path class="cls-3" d="M589.66,178.7v-14.55h1.82v5.46h.55c.27-.62,.69-1.11,1.25-1.46,.57-.36,1.22-.54,1.95-.54,1.09,0,1.95,.33,2.58,1,.63,.67,.95,1.57,.95,2.71v7.38h-1.82v-7c0-.76-.19-1.35-.55-1.75-.37-.41-.9-.61-1.59-.61-.55,0-1.1,.16-1.66,.49s-1.11,.8-1.65,1.42v7.45h-1.82Z"/>
  <path class="cls-2" d="M611.48,178.33l-9.09-5.09v-1.82l9.09-5.09v1.73l-7.64,4.27,7.64,4.27v1.73Z"/>
  <path class="cls-2" d="M619.65,178.88c-1.88,0-3.17-.29-3.88-.88-.71-.59-1.11-1.69-1.19-3.32l1.82-.18c.08,1.15,.33,1.9,.74,2.24,.41,.34,1.25,.51,2.54,.51,1.1,0,1.89-.21,2.37-.62,.48-.41,.72-1.03,.72-1.86v-.87c0-.87-.19-1.5-.58-1.89-.39-.39-1.01-.58-1.87-.58h-5.18v-7.27h8.73v1.64h-6.91v3.91h3.36c1.44,0,2.52,.33,3.22,1,.7,.67,1.05,1.68,1.05,3.04v1.22c0,1.2-.42,2.15-1.27,2.86-.85,.71-2.07,1.06-3.65,1.06Z"/>
  <path class="cls-2" d="M643.66,173.01l-.36-1.47c2.11-.34,3.52-.72,4.22-1.15,.7-.42,1.05-1,1.05-1.73v-.55c0-.71-.22-1.31-.65-1.79-.43-.48-1.37-.72-2.81-.72-1.54,0-2.51,.23-2.91,.69-.4,.46-.64,1.27-.73,2.42l-1.82-.18c.08-1.7,.52-2.88,1.29-3.55,.78-.67,2.16-1.01,4.15-1.01s3.37,.38,4.14,1.14c.77,.76,1.15,1.69,1.15,2.79v.84c0,1.33-.55,2.29-1.64,2.86-1.09,.58-2.79,1.04-5.09,1.41Zm.64,5.87c-.61,0-1.05-.12-1.33-.37-.28-.25-.42-.63-.42-1.16v-.51c0-.53,.14-.93,.42-1.18,.28-.25,.72-.38,1.33-.38s1.05,.13,1.34,.38c.28,.25,.43,.65,.43,1.18v.51c0,.52-.15,.91-.44,1.16-.29,.25-.73,.37-1.33,.37Z"/>
  <path class="cls-1" d="M672.17,178.7l-1.6-7.11-1.53,7.11h-2.07l-2.05-10.91h1.75l1.38,9.58,1.42-7.76h2.15l1.55,7.47,1.33-9.29h1.75l-2.05,10.91h-2Z"/>
  <path class="cls-1" d="M683.3,178.88c-1.47,0-2.59-.35-3.37-1.06-.78-.71-1.17-1.73-1.17-3.06v-2.95c0-1.35,.39-2.38,1.18-3.11,.79-.73,1.92-1.09,3.38-1.09s2.57,.36,3.35,1.09,1.17,1.76,1.17,3.11v2.95c0,1.33-.39,2.35-1.17,3.06s-1.91,1.06-3.37,1.06Zm0-1.64c.92,0,1.61-.21,2.05-.62,.45-.41,.67-1.04,.67-1.87v-2.95c0-.87-.22-1.52-.67-1.94-.45-.42-1.13-.63-2.05-.63s-1.61,.21-2.05,.63c-.45,.42-.67,1.06-.67,1.94v2.95c0,.84,.22,1.46,.67,1.87,.45,.41,1.13,.62,2.05,.62Z"/>
  <path class="cls-1" d="M692.39,178.7v-10.91h1.82v1.82h.55c.25-.69,.64-1.2,1.16-1.52,.52-.32,1.15-.48,1.89-.48,.81,0,1.49,.27,2.04,.81,.55,.54,.82,1.3,.82,2.28v1.64h-1.73v-.98c0-.69-.15-1.2-.46-1.53s-.78-.49-1.41-.49c-.57,0-1.09,.14-1.55,.42-.47,.28-.9,.71-1.3,1.31v7.64h-1.82Z"/>
  <path class="cls-1" d="M710.94,176.88c-.32,.63-.75,1.12-1.31,1.47s-1.18,.53-1.87,.53c-1.13,0-2-.36-2.62-1.09s-.93-1.75-.93-3.05v-2.96c0-1.32,.41-2.34,1.24-3.07,.82-.73,1.98-1.09,3.45-1.09,.42,0,.86,.04,1.31,.14,.45,.09,.87,.21,1.27,.37v-3.96h1.82v14.55h-1.82v-1.82h-.55Zm-2.73,.27c.59,0,1.16-.16,1.69-.47,.53-.31,1.06-.79,1.58-1.44v-5.35c-.38-.23-.78-.4-1.2-.52-.42-.12-.88-.17-1.36-.17-.98,0-1.71,.22-2.18,.65-.47,.43-.71,1.08-.71,1.96v2.93c0,.81,.18,1.42,.55,1.82,.36,.4,.91,.6,1.64,.6Z"/>
  <path class="cls-2" d="M734.23,171.61c-.61,0-1.1-.12-1.47-.37-.38-.25-.56-.63-.56-1.15v-.87c0-.53,.19-.93,.56-1.18,.38-.25,.87-.38,1.47-.38s1.09,.13,1.46,.38,.55,.65,.55,1.18v.87c0,.52-.19,.91-.56,1.15-.38,.25-.86,.37-1.45,.37Zm0,7.27c-.61,0-1.1-.12-1.47-.37-.38-.25-.56-.63-.56-1.16v-.87c0-.53,.19-.93,.56-1.18,.38-.25,.87-.38,1.47-.38s1.09,.13,1.46,.38c.37,.25,.55,.65,.55,1.18v.87c0,.52-.19,.91-.56,1.16-.38,.25-.86,.37-1.45,.37Z"/>
  <path class="cls-1" d="M761.26,178.7l-1.6-7.11-1.53,7.11h-2.07l-2.05-10.91h1.75l1.38,9.58,1.42-7.76h2.15l1.55,7.47,1.33-9.29h1.75l-2.05,10.91h-2Z"/>
  <path class="cls-1" d="M772.39,178.88c-1.47,0-2.59-.35-3.37-1.06-.78-.71-1.17-1.73-1.17-3.06v-2.95c0-1.35,.39-2.38,1.18-3.11s1.92-1.09,3.38-1.09,2.57,.36,3.35,1.09,1.17,1.76,1.17,3.11v2.95c0,1.33-.39,2.35-1.17,3.06s-1.91,1.06-3.37,1.06Zm0-1.64c.92,0,1.61-.21,2.05-.62s.67-1.04,.67-1.87v-2.95c0-.87-.22-1.52-.67-1.94s-1.13-.63-2.05-.63-1.61,.21-2.05,.63c-.45,.42-.67,1.06-.67,1.94v2.95c0,.84,.22,1.46,.67,1.87,.45,.41,1.13,.62,2.05,.62Z"/>
  <path class="cls-1" d="M781.48,178.7v-10.91h1.82v1.82h.54c.25-.69,.64-1.2,1.16-1.52,.52-.32,1.15-.48,1.89-.48,.81,0,1.49,.27,2.04,.81,.55,.54,.82,1.3,.82,2.28v1.64h-1.73v-.98c0-.69-.15-1.2-.46-1.53-.31-.33-.78-.49-1.41-.49-.57,0-1.09,.14-1.55,.42-.47,.28-.9,.71-1.3,1.31v7.64h-1.82Z"/>
  <path class="cls-1" d="M800.02,176.88c-.32,.63-.75,1.12-1.31,1.47s-1.18,.53-1.87,.53c-1.13,0-2-.36-2.62-1.09s-.93-1.75-.93-3.05v-2.96c0-1.32,.41-2.34,1.24-3.07s1.98-1.09,3.45-1.09c.42,0,.86,.04,1.31,.14,.45,.09,.87,.21,1.27,.37v-3.96h1.82v14.55h-1.82v-1.82h-.54Zm-2.73,.27c.59,0,1.16-.16,1.69-.47,.53-.31,1.06-.79,1.58-1.44v-5.35c-.38-.23-.78-.4-1.2-.52-.42-.12-.88-.17-1.36-.17-.98,0-1.71,.22-2.18,.65-.47,.43-.71,1.08-.71,1.96v2.93c0,.81,.18,1.42,.54,1.82,.36,.4,.91,.6,1.64,.6Z"/>
  <path class="cls-2" d="M810.59,178.88c-.61,0-1.1-.14-1.47-.41-.38-.27-.56-.71-.56-1.3v-.51c0-.59,.19-1.03,.56-1.32,.38-.29,.87-.43,1.47-.43s1.09,.14,1.46,.43c.37,.29,.55,.72,.55,1.32v.51c0,.59-.19,1.03-.56,1.3-.38,.27-.86,.41-1.45,.41Z"/>
  <path class="cls-3" d="M823.44,178.88c-.92,0-1.81-.14-2.67-.41-.86-.27-1.65-.69-2.38-1.26l.82-1.44c.59,.49,1.26,.85,1.99,1.1s1.48,.37,2.25,.37c.63,0,1.23-.1,1.81-.29,.58-.19,.86-.6,.86-1.23,0-.52-.24-.89-.71-1.1-.47-.22-1.34-.4-2.6-.56-1.33-.16-2.34-.47-3.03-.94-.69-.47-1.03-1.21-1.03-2.22,0-1.09,.41-1.92,1.24-2.47,.82-.55,1.78-.83,2.87-.83,.86,0,1.69,.15,2.48,.44s1.53,.7,2.21,1.24l-.82,1.44c-.56-.45-1.16-.81-1.82-1.07-.65-.27-1.34-.4-2.05-.4-.58,0-1.11,.11-1.59,.33-.48,.22-.72,.62-.72,1.2,0,.5,.22,.86,.66,1.08,.44,.22,1.29,.42,2.55,.57,1.38,.16,2.42,.49,3.11,1.01,.69,.52,1.04,1.23,1.04,2.15,0,1.14-.46,1.97-1.38,2.5-.92,.53-1.95,.79-3.09,.79Z"/>
  <path class="cls-3" d="M835.88,178.88c-.41,0-.84-.04-1.3-.14-.45-.09-.88-.22-1.28-.37v3.96h-1.82v-14.55h1.82v1.82h.54c.3-.62,.74-1.11,1.32-1.46,.58-.36,1.2-.54,1.86-.54,1.09,0,1.96,.37,2.59,1.12,.64,.75,.96,1.75,.96,3.03v2.96c0,1.28-.42,2.3-1.26,3.04-.84,.75-1.99,1.12-3.43,1.12Zm-.02-1.6c1.02,0,1.75-.21,2.21-.62,.45-.41,.68-1.07,.68-1.98v-2.95c0-.84-.17-1.45-.52-1.83-.34-.38-.9-.57-1.66-.57-.61,0-1.17,.15-1.69,.45-.52,.3-1.05,.79-1.58,1.46v5.34c.38,.23,.77,.4,1.17,.52,.41,.12,.87,.17,1.39,.17Z"/>
  <path class="cls-3" d="M844.2,178.7v-1.64h3.64v-11.27h-3.64v-1.64h5.45v12.91h3.64v1.64h-9.09Z"/>
  <path class="cls-3" d="M856.93,178.7v-1.64h3.64v-7.64h-3.64v-1.64h5.45v9.27h3.64v1.64h-9.09Zm4.54-12.91c-.46,0-.83-.07-1.12-.22-.28-.15-.43-.42-.43-.82v-.13c0-.41,.14-.69,.43-.85,.29-.15,.66-.23,1.12-.23s.83,.08,1.12,.23c.29,.15,.43,.43,.43,.85v.13c0,.4-.15,.67-.44,.82s-.66,.22-1.11,.22Z"/>
  <path class="cls-3" d="M876,178.86c-1.2,0-2.13-.3-2.8-.89-.67-.59-1-1.5-1-2.73v-5.82h-3.09v-1.64h3.09v-3.64h1.82v3.64h4.73v1.64h-4.73v5.65c0,.7,.18,1.22,.53,1.56,.35,.34,.87,.51,1.56,.51,.46,0,.89-.03,1.29-.1,.4-.07,.78-.15,1.15-.26l.36,1.65c-.41,.12-.85,.22-1.32,.3-.47,.08-1,.12-1.59,.12Z"/>
  <path class="cls-2" d="M890.56,182.51c-1.9-.45-3.44-1.49-4.61-3.11s-1.75-3.68-1.75-6.16,.58-4.54,1.75-6.16,2.71-2.66,4.61-3.11l.18,1.42c-1.62,.45-2.82,1.39-3.58,2.81-.76,1.42-1.15,3.11-1.15,5.05s.38,3.62,1.15,5.04,1.96,2.36,3.58,2.81l-.18,1.42Z"/>
  <path class="cls-2" d="M898.75,171.42l-.54-7.27h2.91l-.55,7.27h-1.82Z"/>
  <path class="cls-2" d="M911.47,171.42l-.54-7.27h2.91l-.55,7.27h-1.82Z"/>
  <path class="cls-2" d="M921.47,182.51l-.18-1.42c1.62-.45,2.82-1.39,3.58-2.83,.76-1.44,1.15-3.11,1.15-5.03s-.38-3.59-1.15-5.03c-.76-1.44-1.96-2.38-3.58-2.83l.18-1.42c1.9,.45,3.44,1.49,4.61,3.12,1.17,1.63,1.75,3.68,1.75,6.16s-.58,4.52-1.75,6.15-2.71,2.67-4.61,3.12Z"/>
  <path class="cls-2" d="M937.85,178.88c-.61,0-1.1-.14-1.47-.41-.38-.27-.56-.71-.56-1.3v-.51c0-.59,.19-1.03,.56-1.32,.38-.29,.87-.43,1.47-.43s1.09,.14,1.46,.43c.37,.29,.55,.72,.55,1.32v.51c0,.59-.19,1.03-.56,1.3-.38,.27-.86,.41-1.45,.41Z"/>
  <path class="cls-3" d="M946.93,178.7v-10.91h1.82v1.82h.54c.25-.69,.64-1.2,1.16-1.52,.52-.32,1.15-.48,1.89-.48,.81,0,1.49,.27,2.04,.81,.55,.54,.82,1.3,.82,2.28v1.64h-1.73v-.98c0-.69-.15-1.2-.46-1.53-.31-.33-.78-.49-1.41-.49-.57,0-1.09,.14-1.55,.42-.47,.28-.9,.71-1.3,1.31v7.64h-1.82Z"/>
  <path class="cls-3" d="M967.87,176.3c-.33,.91-.82,1.57-1.49,1.97-.67,.41-1.69,.61-3.07,.61s-2.56-.35-3.36-1.04c-.8-.7-1.2-1.73-1.2-3.1v-2.93c0-1.41,.42-2.46,1.26-3.16,.84-.7,1.94-1.04,3.3-1.04s2.47,.35,3.29,1.06,1.24,1.8,1.24,3.26v1.67h-7.27v1.15c0,.91,.23,1.57,.68,1.97,.45,.41,1.14,.61,2.04,.61s1.51-.12,1.91-.36c.4-.24,.7-.64,.91-1.18l1.76,.51Zm-7.31-4.49v.44h5.45v-.27c0-.98-.23-1.7-.68-2.15-.46-.45-1.14-.67-2.05-.67s-1.59,.22-2.04,.65c-.46,.43-.68,1.1-.68,2.01Z"/>
  <path class="cls-3" d="M977.14,178.7h-2.27l-3.87-10.91h1.98l3.05,9.44,3.05-9.44h1.93l-3.87,10.91Z"/>
  <path class="cls-3" d="M993.32,176.3c-.33,.91-.82,1.57-1.49,1.97-.67,.41-1.69,.61-3.07,.61s-2.56-.35-3.36-1.04c-.8-.7-1.2-1.73-1.2-3.1v-2.93c0-1.41,.42-2.46,1.26-3.16,.84-.7,1.94-1.04,3.3-1.04s2.47,.35,3.29,1.06,1.24,1.8,1.24,3.26v1.67h-7.27v1.15c0,.91,.23,1.57,.68,1.97,.45,.41,1.14,.61,2.04,.61s1.51-.12,1.91-.36c.4-.24,.7-.64,.91-1.18l1.76,.51Zm-7.31-4.49v.44h5.45v-.27c0-.98-.23-1.7-.68-2.15-.46-.45-1.14-.67-2.05-.67s-1.59,.22-2.04,.65c-.46,.43-.68,1.1-.68,2.01Z"/>
  <path class="cls-3" d="M997.83,178.7v-10.91h1.82v1.82h.54c.25-.69,.64-1.2,1.16-1.52,.52-.32,1.15-.48,1.89-.48,.81,0,1.49,.27,2.04,.81,.55,.54,.82,1.3,.82,2.28v1.64h-1.73v-.98c0-.69-.15-1.2-.46-1.53-.31-.33-.78-.49-1.41-.49-.57,0-1.09,.14-1.55,.42-.47,.28-.9,.71-1.3,1.31v7.64h-1.82Z"/>
  <path class="cls-3" d="M1014.34,178.88c-.92,0-1.81-.14-2.67-.41-.86-.27-1.65-.69-2.38-1.26l.82-1.44c.59,.49,1.26,.85,1.99,1.1s1.48,.37,2.25,.37c.63,0,1.23-.1,1.81-.29,.58-.19,.86-.6,.86-1.23,0-.52-.24-.89-.71-1.1-.47-.22-1.34-.4-2.6-.56-1.33-.16-2.34-.47-3.03-.94-.69-.47-1.03-1.21-1.03-2.22,0-1.09,.41-1.92,1.24-2.47,.82-.55,1.78-.83,2.87-.83,.86,0,1.69,.15,2.48,.44s1.53,.7,2.21,1.24l-.82,1.44c-.56-.45-1.16-.81-1.82-1.07-.65-.27-1.34-.4-2.05-.4-.58,0-1.11,.11-1.59,.33-.48,.22-.72,.62-.72,1.2,0,.5,.22,.86,.66,1.08,.44,.22,1.29,.42,2.55,.57,1.38,.16,2.42,.49,3.11,1.01,.69,.52,1.04,1.23,1.04,2.15,0,1.14-.46,1.97-1.38,2.5-.92,.53-1.95,.79-3.09,.79Z"/>
  <path class="cls-3" d="M1031.5,176.3c-.33,.91-.82,1.57-1.49,1.97-.67,.41-1.69,.61-3.07,.61s-2.56-.35-3.36-1.04c-.8-.7-1.2-1.73-1.2-3.1v-2.93c0-1.41,.42-2.46,1.26-3.16,.84-.7,1.94-1.04,3.3-1.04s2.47,.35,3.29,1.06,1.24,1.8,1.24,3.26v1.67h-7.27v1.15c0,.91,.23,1.57,.68,1.97,.45,.41,1.14,.61,2.04,.61s1.51-.12,1.91-.36c.4-.24,.7-.64,.91-1.18l1.76,.51Zm-7.31-4.49v.44h5.45v-.27c0-.98-.23-1.7-.68-2.15-.46-.45-1.14-.67-2.05-.67s-1.59,.22-2.04,.65c-.46,.43-.68,1.1-.68,2.01Z"/>
  <path class="cls-2" d="M1043.28,182.51c-1.9-.45-3.44-1.49-4.61-3.11s-1.75-3.68-1.75-6.16,.58-4.54,1.75-6.16,2.71-2.66,4.61-3.11l.18,1.42c-1.62,.45-2.82,1.39-3.58,2.81-.76,1.42-1.15,3.11-1.15,5.05s.38,3.62,1.15,5.04,1.96,2.36,3.58,2.81l-.18,1.42Z"/>
  <path class="cls-2" d="M1048.74,182.51l-.18-1.42c1.62-.45,2.82-1.39,3.58-2.83,.76-1.44,1.15-3.11,1.15-5.03s-.38-3.59-1.15-5.03c-.76-1.44-1.96-2.38-3.58-2.83l.18-1.42c1.9,.45,3.44,1.49,4.61,3.12,1.17,1.63,1.75,3.68,1.75,6.16s-.58,4.52-1.75,6.15-2.71,2.67-4.61,3.12Z"/>
  <path class="cls-2" d="M1065.12,178.88c-.61,0-1.1-.14-1.47-.41-.38-.27-.56-.71-.56-1.3v-.51c0-.59,.19-1.03,.56-1.32,.38-.29,.87-.43,1.47-.43s1.09,.14,1.46,.43c.37,.29,.55,.72,.55,1.32v.51c0,.59-.19,1.03-.56,1.3-.38,.27-.86,.41-1.45,.41Z"/>
  <path class="cls-3" d="M1076.15,182.48c-.46,0-.92-.03-1.38-.08-.46-.05-.95-.16-1.47-.32l.36-1.75c.45,.16,.87,.26,1.26,.32,.39,.05,.78,.08,1.17,.08,.79,0,1.42-.17,1.91-.5,.48-.33,.73-.89,.73-1.66v-9.15h-5.09v-1.64h6.91v11.02c0,1.25-.42,2.17-1.26,2.77s-1.89,.9-3.14,.9Zm3.44-16.69c-.46,0-.83-.07-1.12-.22-.28-.15-.43-.42-.43-.82v-.13c0-.41,.14-.69,.43-.85,.29-.15,.66-.23,1.12-.23s.83,.08,1.12,.23c.29,.15,.43,.43,.43,.85v.13c0,.4-.15,.67-.44,.82s-.66,.22-1.11,.22Z"/>
  <path class="cls-3" d="M1090.55,178.88c-1.47,0-2.59-.35-3.37-1.06-.78-.71-1.17-1.73-1.17-3.06v-2.95c0-1.35,.39-2.38,1.18-3.11s1.92-1.09,3.38-1.09,2.57,.36,3.35,1.09,1.17,1.76,1.17,3.11v2.95c0,1.33-.39,2.35-1.17,3.06s-1.91,1.06-3.37,1.06Zm0-1.64c.92,0,1.61-.21,2.05-.62s.67-1.04,.67-1.87v-2.95c0-.87-.22-1.52-.67-1.94s-1.13-.63-2.05-.63-1.61,.21-2.05,.63c-.45,.42-.67,1.06-.67,1.94v2.95c0,.84,.22,1.46,.67,1.87,.45,.41,1.13,.62,2.05,.62Z"/>
  <path class="cls-3" d="M1098.73,178.7v-1.64h3.64v-7.64h-3.64v-1.64h5.45v9.27h3.64v1.64h-9.09Zm4.54-12.91c-.46,0-.83-.07-1.12-.22-.28-.15-.43-.42-.43-.82v-.13c0-.41,.14-.69,.43-.85,.29-.15,.66-.23,1.12-.23s.83,.08,1.12,.23c.29,.15,.43,.43,.43,.85v.13c0,.4-.15,.67-.44,.82s-.66,.22-1.11,.22Z"/>
  <path class="cls-3" d="M1111.46,178.7v-10.91h1.82v1.82h.54c.27-.62,.68-1.11,1.25-1.46,.57-.36,1.22-.54,1.95-.54,1.09,0,1.95,.33,2.58,1,.63,.67,.95,1.58,.95,2.73v7.36h-1.82v-7c0-.76-.18-1.35-.55-1.75-.37-.41-.9-.61-1.59-.61-.54,0-1.1,.16-1.66,.49-.56,.33-1.11,.8-1.65,1.42v7.45h-1.82Z"/>
  <path class="cls-2" d="M1132.37,182.51c-1.9-.45-3.44-1.49-4.61-3.11s-1.75-3.68-1.75-6.16,.58-4.54,1.75-6.16,2.71-2.66,4.61-3.11l.18,1.42c-1.62,.45-2.82,1.39-3.58,2.81-.76,1.42-1.15,3.11-1.15,5.05s.38,3.62,1.15,5.04,1.96,2.36,3.58,2.81l-.18,1.42Z"/>
  <path class="cls-2" d="M1140.55,171.42l-.54-7.27h2.91l-.55,7.27h-1.82Z"/>
  <path class="cls-2" d="M1153.28,171.42l-.54-7.27h2.91l-.55,7.27h-1.82Z"/>
  <path class="cls-2" d="M1163.28,182.51l-.18-1.42c1.62-.45,2.82-1.39,3.58-2.83,.76-1.44,1.15-3.11,1.15-5.03s-.38-3.59-1.15-5.03c-.76-1.44-1.96-2.38-3.58-2.83l.18-1.42c1.9,.45,3.44,1.49,4.61,3.12,1.17,1.63,1.75,3.68,1.75,6.16s-.58,4.52-1.75,6.15-2.71,2.67-4.61,3.12Z"/>
  <path class="cls-2" d="M1188.73,182.51l-.18-1.42c1.62-.45,2.82-1.39,3.58-2.83,.76-1.44,1.15-3.11,1.15-5.03s-.38-3.59-1.15-5.03c-.76-1.44-1.96-2.38-3.58-2.83l.18-1.42c1.9,.45,3.44,1.49,4.61,3.12,1.17,1.63,1.75,3.68,1.75,6.16s-.58,4.52-1.75,6.15-2.71,2.67-4.61,3.12Z"/>
  <path class="cls-2" d="M1205.11,178.88c-.61,0-1.1-.14-1.47-.41-.38-.27-.56-.71-.56-1.3v-.51c0-.59,.19-1.03,.56-1.32,.38-.29,.87-.43,1.47-.43s1.09,.14,1.46,.43c.37,.29,.55,.72,.55,1.32v.51c0,.59-.19,1.03-.56,1.3-.38,.27-.86,.41-1.45,.41Z"/>
  <path class="cls-3" d="M1216.15,182.48c-.46,0-.92-.03-1.38-.08-.46-.05-.95-.16-1.47-.32l.36-1.75c.45,.16,.87,.26,1.26,.32,.39,.05,.78,.08,1.17,.08,.79,0,1.42-.17,1.91-.5,.48-.33,.73-.89,.73-1.66v-9.15h-5.09v-1.64h6.91v11.02c0,1.25-.42,2.17-1.26,2.77s-1.89,.9-3.14,.9Zm3.44-16.69c-.46,0-.83-.07-1.12-.22-.28-.15-.43-.42-.43-.82v-.13c0-.41,.14-.69,.43-.85,.29-.15,.66-.23,1.12-.23s.83,.08,1.12,.23c.29,.15,.43,.43,.43,.85v.13c0,.4-.15,.67-.44,.82s-.66,.22-1.11,.22Z"/>
  <path class="cls-3" d="M1230.55,178.88c-1.47,0-2.59-.35-3.37-1.06-.78-.71-1.17-1.73-1.17-3.06v-2.95c0-1.35,.39-2.38,1.18-3.11s1.92-1.09,3.38-1.09,2.57,.36,3.35,1.09,1.17,1.76,1.17,3.11v2.95c0,1.33-.39,2.35-1.17,3.06s-1.91,1.06-3.37,1.06Zm0-1.64c.92,0,1.61-.21,2.05-.62s.67-1.04,.67-1.87v-2.95c0-.87-.22-1.52-.67-1.94s-1.13-.63-2.05-.63-1.61,.21-2.05,.63c-.45,.42-.67,1.06-.67,1.94v2.95c0,.84,.22,1.46,.67,1.87,.45,.41,1.13,.62,2.05,.62Z"/>
  <path class="cls-3" d="M1238.73,178.7v-1.64h3.64v-7.64h-3.64v-1.64h5.45v9.27h3.64v1.64h-9.09Zm4.54-12.91c-.46,0-.83-.07-1.12-.22-.28-.15-.43-.42-.43-.82v-.13c0-.41,.14-.69,.43-.85,.29-.15,.66-.23,1.12-.23s.83,.08,1.12,.23c.29,.15,.43,.43,.43,.85v.13c0,.4-.15,.67-.44,.82s-.66,.22-1.11,.22Z"/>
  <path class="cls-3" d="M1251.45,178.7v-10.91h1.82v1.82h.54c.27-.62,.68-1.11,1.25-1.46,.57-.36,1.22-.54,1.95-.54,1.09,0,1.95,.33,2.58,1,.63,.67,.95,1.58,.95,2.73v7.36h-1.82v-7c0-.76-.18-1.35-.55-1.75-.37-.41-.9-.61-1.59-.61-.54,0-1.1,.16-1.66,.49-.56,.33-1.11,.8-1.65,1.42v7.45h-1.82Z"/>
  <path class="cls-2" d="M1272.36,182.51c-1.9-.45-3.44-1.49-4.61-3.11s-1.75-3.68-1.75-6.16,.58-4.54,1.75-6.16,2.71-2.66,4.61-3.11l.18,1.42c-1.62,.45-2.82,1.39-3.58,2.81-.76,1.42-1.15,3.11-1.15,5.05s.38,3.62,1.15,5.04,1.96,2.36,3.58,2.81l-.18,1.42Z"/>
  <path class="cls-2" d="M1280.54,171.42l-.54-7.27h2.91l-.55,7.27h-1.82Z"/>
  <path class="cls-2" d="M1305.99,171.42l-.54-7.27h2.91l-.55,7.27h-1.82Z"/>
  <path class="cls-2" d="M1315.99,182.51l-.18-1.42c1.62-.45,2.82-1.39,3.58-2.83,.76-1.44,1.15-3.11,1.15-5.03s-.38-3.59-1.15-5.03c-.76-1.44-1.96-2.38-3.58-2.83l.18-1.42c1.9,.45,3.44,1.49,4.61,3.12,1.17,1.63,1.75,3.68,1.75,6.16s-.58,4.52-1.75,6.15-2.71,2.67-4.61,3.12Z"/>
  <path class="cls-2" d="M1329.63,182.33l1.64-7.27h3.62l-3.73,7.27h-1.53Zm2.75-10.73c-.61,0-1.1-.12-1.47-.37-.38-.25-.56-.63-.56-1.15v-.87c0-.53,.19-.93,.56-1.18,.38-.25,.87-.38,1.47-.38s1.09,.13,1.46,.38c.37,.25,.55,.65,.55,1.18v.87c0,.52-.19,.91-.56,1.15-.38,.25-.86,.37-1.45,.37Z"/>
  <path class="cls-2" d="M12.4,203.5c0,1.05-.58,1.83-1.73,2.34-1.15,.5-3,.73-5.55,.68v-1.6c2.05,.04,3.47-.08,4.26-.34s1.19-.7,1.19-1.31c0-.34-.08-.64-.25-.9s-.46-.57-.88-.94c-.46-.42-.78-.78-.96-1.05-.18-.28-.27-.57-.27-.87,0-.7,.3-1.25,.9-1.64,.6-.39,1.46-.64,2.59-.76v-.09c-1.13-.05-1.99-.25-2.59-.59-.6-.34-.9-.86-.9-1.54,0-.34,.08-.65,.25-.94,.17-.28,.47-.63,.91-1.03,.45-.41,.76-.75,.94-1,.18-.25,.26-.5,.26-.75,0-.57-.4-.98-1.19-1.24s-2.22-.36-4.26-.33v-1.64c2.55-.05,4.39,.18,5.55,.68,1.15,.5,1.73,1.27,1.73,2.3,0,.62-.12,1.12-.37,1.49-.25,.38-.52,.7-.81,.96-.3,.27-.58,.51-.82,.72-.24,.21-.36,.47-.36,.77,0,.56,.3,.95,.91,1.18,.61,.23,1.7,.36,3.27,.4v1.09c-1.58,.04-2.67,.17-3.27,.41-.61,.24-.91,.64-.91,1.21,0,.3,.12,.59,.36,.85,.24,.27,.52,.55,.82,.85,.29,.3,.56,.66,.81,1.07,.25,.41,.37,.92,.37,1.53Z"/>
</svg>