<svg id="Ebene_1" data-name="Ebene 1" xmlns="http://www.w3.org/2000/svg" viewBox="0 0 300.45 55.12"><defs><style>.cls-1{fill:#1d1d1b;}.cls-1,.cls-2{stroke:#12191c;stroke-miterlimit:10;}.cls-2{fill:#fff;}</style></defs><path class="cls-1" d="M165.75,278.85c0-8.48,2.72-11.6,3.28-12.8a17.92,17.92,0,0,1-3.12.64c-5.36,0-8.4-2.64-8.4-7.2,0-7,8.64-10.08,16.88-10.08,5.28,0,20.08,1.6,20.08,11.2,0,5.2-7,7.52-10.64,5.84,2.32,2.32,7.36,12.08,7.36,19.84,0,6.32-4.08,11.84-11.68,11.84C165.83,298.13,165.75,282.61,165.75,278.85Zm22.8-21.76c0-2.08-5.36-4.4-12.48-5,8.4,1.44,9.84,6,11.84,6C188.31,258.13,188.55,257.65,188.55,257.09Z" transform="translate(-154.35 -244.15)"/><path class="cls-1" d="M216,282.37c3.52-.88,9.12-.16,9,6.32,0,7-13.6,9.6-17,9.6-14.32,0-17-24.32-16.88-35.2.08-10.24,5.52-12.4,14.32-12.4,7,0,14.16,1.36,14.16,6.08,0,5.28-4.56,5.52-8.08,6.16v.32c8.08-.4,12.88,3,12.8,9.52-.08,3.76-2.4,7-8.24,8.72Zm-.64-27c0-1-2.48-2.24-5.6-2.48,3.6.8,4.4,3,5.28,3C215.19,255.89,215.35,255.65,215.35,255.33Zm3,13.44c0-1.52-3.12-3.28-7-3.68,4.56,1.12,5.6,4.48,6.64,4.48C218.23,269.57,218.39,269.25,218.39,268.77Zm2.8,18.48c.16,0,.32-.24.32-.56,0-1.12-2.4-2.24-5.6-2.48C219.51,285,220.39,287.25,221.19,287.25Z" transform="translate(-154.35 -244.15)"/><path class="cls-1" d="M238.47,287.65c.16,3.52,1.12,9.36-4.32,9.92-12.24,0-12.8-18.56-12.08-30.32.48-8.64,3.76-16.64,13.12-16.64,18.16,0,23,19,22.08,33.68-.24,5.52-3,14.48-10.16,14.48-5.28,0-7.28-7.44-8-11.2ZM234,279.89c-.32,0-.4.32-.4.8-.08,1.36,1.92,2.88,4.64,3.28C235,283,234.63,279.89,234,279.89Zm3.12-2c-.8.24-1.28.72-1.28,1.44a2.52,2.52,0,0,0,2.64,2.4c1.28,0,1.76-.56,1.84-1.28a3.06,3.06,0,0,0-2.72-2.56Zm9.6-20.4c.16-1.92-4-4.08-9.36-4.48,6.24,1.36,7.44,5.44,8.88,5.44C246.47,258.45,246.63,258.05,246.71,257.49Z" transform="translate(-154.35 -244.15)"/><path class="cls-1" d="M273.51,288.85c-.4,3-1,9.68-5.12,9.68-8.72,0-13.76-13.92-14.32-24.88-.56-10,0-23.12,9.52-23.12,8,0,12.16,6.24,14.48,12.48h.24c-.48-6.48,2.64-12.08,8.16-12.08,10.4,0,15,15.84,15.68,26.56.64,11.44-2.4,20.56-6.24,20.56-4.56,0-7-5.36-7.76-9.2h-.4c-.48,3.6-1.6,7.84-5.84,7.84-4.08,0-7.52-3.44-7.92-7.84Zm-1.84-32.64c-.08-1.76-3.2-3.76-7.28-4.24,4.8,1.28,5.84,5.12,7,5.12C271.51,257.09,271.67,256.77,271.67,256.21Zm22.08,2.72c-.08-2.56-3.2-5-8.08-6,5.44,2.16,6.4,7.36,7.68,7.36C293.67,260.29,293.83,259.73,293.75,258.93Z" transform="translate(-154.35 -244.15)"/><path class="cls-1" d="M317.66,266.69c7.76,2.24,14,7,14,16.48,0,10.24-6.55,15-14.8,15-7.28,0-16.08-4.4-16.08-14.08,0-6.8,4.56-8.56,9.44-8.56.64,0,1.36.08,2,.08v-.24C302,271.89,298.7,266,298.7,260c0-6.16,5.2-11.2,14-11.2,6,0,14.32,3.68,14.32,11.52,0,4.8-5.44,5.76-9.36,6.16Zm5-9.84c0-2.56-4.4-5.36-10.16-6.08,6.8,1.84,7.92,7.36,9.6,7.36C322.38,258.13,322.62,257.57,322.62,256.85Zm2.32,17.44c-.48-2.08-3.12-4.64-7-5.28,4.56,1.52,5.29,6.16,6.4,6.16A.68.68,0,0,0,324.94,274.29Z" transform="translate(-154.35 -244.15)"/><path class="cls-1" d="M332.79,278.85c0-8.48,2.72-11.6,3.27-12.8a17.54,17.54,0,0,1-3.12.64c-5.35,0-8.39-2.64-8.39-7.2,0-7,8.64-10.08,16.88-10.08,5.28,0,20.08,1.6,20.08,11.2,0,5.2-7,7.52-10.64,5.84,2.32,2.32,7.36,12.08,7.36,19.84,0,6.32-4.08,11.84-11.68,11.84C332.87,298.13,332.79,282.61,332.79,278.85Zm22.8-21.76c0-2.08-5.36-4.4-12.48-5,8.4,1.44,9.84,6,11.84,6C355.35,258.13,355.59,257.65,355.59,257.09Z" transform="translate(-154.35 -244.15)"/><path class="cls-1" d="M375.19,287.65c.16,3.52,1.12,9.36-4.33,9.92-12.24,0-12.8-18.56-12.08-30.32.48-8.64,3.76-16.64,13.12-16.64,18.16,0,23,19,22.09,33.68-.24,5.52-3,14.48-10.17,14.48-5.27,0-7.27-7.44-8-11.2Zm-4.49-7.76c-.31,0-.39.32-.39.8-.08,1.36,1.92,2.88,4.63,3.28C371.74,283,371.35,279.89,370.7,279.89Zm3.12-2a1.51,1.51,0,0,0-1.27,1.44,2.51,2.51,0,0,0,2.64,2.4c1.28,0,1.75-.56,1.83-1.28a3.06,3.06,0,0,0-2.71-2.56Zm9.61-20.4c.16-1.92-4-4.08-9.37-4.48,6.25,1.36,7.45,5.44,8.88,5.44C383.19,258.45,383.35,258.05,383.43,257.49Z" transform="translate(-154.35 -244.15)"/><path class="cls-1" d="M396.86,278.85c0-8.48,2.72-11.6,3.28-12.8a17.92,17.92,0,0,1-3.12.64c-5.36,0-8.4-2.64-8.4-7.2,0-7,8.64-10.08,16.88-10.08,5.28,0,20.08,1.6,20.08,11.2,0,5.2-7,7.52-10.64,5.84,2.32,2.32,7.36,12.08,7.36,19.84,0,6.32-4.08,11.84-11.68,11.84C396.94,298.13,396.86,282.61,396.86,278.85Zm22.8-21.76c0-2.08-5.36-4.4-12.48-5,8.4,1.44,9.84,6,11.84,6C419.42,258.13,419.66,257.65,419.66,257.09Z" transform="translate(-154.35 -244.15)"/><path class="cls-1" d="M440.3,266.69c7.76,2.24,14,7,14,16.48,0,10.24-6.56,15-14.8,15-7.28,0-16.08-4.4-16.08-14.08,0-6.8,4.56-8.56,9.44-8.56.64,0,1.36.08,2,.08v-.24c-10.24-3.52-13.52-9.44-13.52-15.44,0-6.16,5.2-11.2,14-11.2,6,0,14.32,3.68,14.32,11.52,0,4.8-5.44,5.76-9.36,6.16Zm5-9.84c0-2.56-4.4-5.36-10.16-6.08,6.8,1.84,7.92,7.36,9.6,7.36C445,258.13,445.26,257.57,445.26,256.85Zm2.32,17.44c-.48-2.08-3.12-4.64-7-5.28,4.56,1.52,5.28,6.16,6.4,6.16A.68.68,0,0,0,447.58,274.29Z" transform="translate(-154.35 -244.15)"/><path class="cls-2" d="M163.09,274.73c0-8.48,2.72-11.6,3.28-12.8a17.92,17.92,0,0,1-3.12.64c-5.36,0-8.4-2.64-8.4-7.2,0-7,8.64-10.08,16.88-10.08,5.28,0,20.08,1.6,20.08,11.2,0,5.2-7,7.52-10.64,5.84,2.32,2.32,7.37,12.08,7.37,19.84,0,6.32-4.08,11.84-11.69,11.84C163.17,294,163.09,278.49,163.09,274.73ZM185.9,253c0-2.08-5.37-4.4-12.49-5,8.4,1.44,9.84,6,11.84,6C185.65,254,185.9,253.53,185.9,253Z" transform="translate(-154.35 -244.15)"/><path class="cls-2" d="M213.33,278.25c3.52-.88,9.12-.16,9,6.32,0,7-13.6,9.6-17,9.6-14.32,0-17-24.32-16.88-35.2.08-10.24,5.52-12.4,14.32-12.4,7,0,14.16,1.36,14.16,6.08,0,5.28-4.56,5.52-8.08,6.16v.32c8.08-.4,12.88,3,12.8,9.52-.08,3.76-2.4,7-8.24,8.72Zm-.64-27c0-1-2.48-2.24-5.6-2.48,3.6.8,4.4,3,5.28,3C212.53,251.77,212.69,251.53,212.69,251.21Zm3,13.44c0-1.52-3.12-3.28-7-3.68,4.56,1.12,5.6,4.48,6.64,4.48C215.57,265.45,215.73,265.13,215.73,264.65Zm2.8,18.48c.16,0,.32-.24.32-.56,0-1.12-2.4-2.24-5.6-2.48C216.85,280.89,217.73,283.13,218.53,283.13Z" transform="translate(-154.35 -244.15)"/><path class="cls-2" d="M235.81,283.53c.16,3.52,1.12,9.36-4.32,9.92-12.24,0-12.8-18.56-12.08-30.32.48-8.64,3.76-16.64,13.12-16.64,18.16,0,23,19,22.08,33.68-.24,5.52-3,14.48-10.16,14.48-5.28,0-7.28-7.44-8-11.2Zm-4.48-7.76c-.32,0-.4.32-.4.8-.08,1.36,1.92,2.88,4.64,3.28C232.37,278.89,232,275.77,231.33,275.77Zm3.12-2c-.8.24-1.28.72-1.28,1.44a2.52,2.52,0,0,0,2.64,2.4c1.28,0,1.76-.56,1.84-1.28a3.06,3.06,0,0,0-2.72-2.56Zm9.6-20.4c.16-1.92-4-4.08-9.36-4.48,6.24,1.36,7.44,5.44,8.88,5.44C243.81,254.33,244,253.93,244.05,253.37Z" transform="translate(-154.35 -244.15)"/><path class="cls-2" d="M270.85,284.73c-.4,3-1,9.68-5.12,9.68-8.72,0-13.76-13.92-14.32-24.88-.56-10,0-23.12,9.52-23.12,8,0,12.16,6.24,14.48,12.48h.24c-.48-6.48,2.64-12.08,8.16-12.08,10.4,0,15,15.84,15.68,26.56.64,11.44-2.4,20.56-6.24,20.56-4.56,0-7-5.36-7.76-9.2h-.4c-.48,3.6-1.6,7.84-5.84,7.84-4.08,0-7.52-3.44-7.92-7.84ZM269,252.09c-.08-1.76-3.2-3.76-7.28-4.24,4.8,1.28,5.84,5.12,7,5.12C268.85,253,269,252.65,269,252.09Zm22.08,2.72c-.08-2.56-3.2-5-8.08-6,5.44,2.16,6.4,7.36,7.68,7.36C291,256.17,291.17,255.61,291.09,254.81Z" transform="translate(-154.35 -244.15)"/><path class="cls-2" d="M315,262.57c7.76,2.24,14,7,14,16.48,0,10.24-6.56,15-14.8,15-7.28,0-16.08-4.4-16.08-14.08,0-6.8,4.56-8.56,9.44-8.56.64,0,1.36.08,2,.08v-.24c-10.24-3.52-13.52-9.44-13.52-15.44,0-6.16,5.2-11.2,14-11.2,6,0,14.32,3.68,14.32,11.52,0,4.8-5.44,5.76-9.36,6.16Zm5-9.84c0-2.56-4.4-5.36-10.16-6.08,6.8,1.84,7.92,7.36,9.6,7.36C319.73,254,320,253.45,320,252.73Zm2.32,17.44c-.48-2.08-3.12-4.64-7-5.28,4.56,1.52,5.28,6.16,6.4,6.16A.68.68,0,0,0,322.29,270.17Z" transform="translate(-154.35 -244.15)"/><path class="cls-2" d="M330.13,274.73c0-8.48,2.72-11.6,3.28-12.8a17.92,17.92,0,0,1-3.12.64c-5.36,0-8.4-2.64-8.4-7.2,0-7,8.64-10.08,16.88-10.08,5.28,0,20.08,1.6,20.08,11.2,0,5.2-7,7.52-10.64,5.84,2.32,2.32,7.36,12.08,7.36,19.84,0,6.32-4.08,11.84-11.68,11.84C330.21,294,330.13,278.49,330.13,274.73ZM352.93,253c0-2.08-5.36-4.4-12.48-5,8.4,1.44,9.84,6,11.84,6C352.69,254,352.93,253.53,352.93,253Z" transform="translate(-154.35 -244.15)"/><path class="cls-2" d="M372.53,283.53c.16,3.52,1.12,9.36-4.32,9.92-12.24,0-12.8-18.56-12.08-30.32.48-8.64,3.76-16.64,13.12-16.64,18.16,0,23,19,22.08,33.68-.24,5.52-3,14.48-10.16,14.48-5.28,0-7.28-7.44-8-11.2Zm-4.48-7.76c-.32,0-.4.32-.4.8-.08,1.36,1.92,2.88,4.64,3.28C369.09,278.89,368.69,275.77,368.05,275.77Zm3.12-2c-.8.24-1.28.72-1.28,1.44a2.52,2.52,0,0,0,2.64,2.4c1.28,0,1.76-.56,1.84-1.28a3.06,3.06,0,0,0-2.72-2.56Zm9.6-20.4c.16-1.92-4-4.08-9.36-4.48,6.24,1.36,7.44,5.44,8.88,5.44C380.53,254.33,380.69,253.93,380.77,253.37Z" transform="translate(-154.35 -244.15)"/><path class="cls-2" d="M394.21,274.73c0-8.48,2.72-11.6,3.28-12.8a17.92,17.92,0,0,1-3.12.64c-5.36,0-8.4-2.64-8.4-7.2,0-7,8.64-10.08,16.88-10.08,5.28,0,20.08,1.6,20.08,11.2,0,5.2-7,7.52-10.64,5.84,2.32,2.32,7.36,12.08,7.36,19.84,0,6.32-4.08,11.84-11.68,11.84C394.29,294,394.21,278.49,394.21,274.73ZM417,253c0-2.08-5.36-4.4-12.48-5,8.4,1.44,9.84,6,11.84,6C416.77,254,417,253.53,417,253Z" transform="translate(-154.35 -244.15)"/><path class="cls-2" d="M437.65,262.57c7.76,2.24,14,7,14,16.48,0,10.24-6.56,15-14.8,15-7.28,0-16.08-4.4-16.08-14.08,0-6.8,4.56-8.56,9.44-8.56.64,0,1.36.08,2,.08v-.24c-10.24-3.52-13.52-9.44-13.52-15.44,0-6.16,5.2-11.2,14-11.2,6,0,14.32,3.68,14.32,11.52,0,4.8-5.44,5.76-9.36,6.16Zm5-9.84c0-2.56-4.4-5.36-10.16-6.08,6.8,1.84,7.92,7.36,9.6,7.36C442.37,254,442.61,253.45,442.61,252.73Zm2.32,17.44c-.48-2.08-3.12-4.64-7-5.28,4.56,1.52,5.28,6.16,6.4,6.16A.68.68,0,0,0,444.93,270.17Z" transform="translate(-154.35 -244.15)"/></svg>