<?xml version="1.0" encoding="UTF-8"?>
<svg id="Ebene_1" data-name="Ebene 1" xmlns="http://www.w3.org/2000/svg" viewBox="0 0 360.02 193.93">
  <defs>
    <style>
      .cls-1 {
        fill: #151a1c;
      }

      .cls-2 {
        fill: #1d1d1b;
      }

      .cls-3 {
        stroke: #11191c;
      }

      .cls-3, .cls-4 {
        fill: #fff;
        stroke-miterlimit: 10;
      }

      .cls-4 {
        stroke: #181b1c;
      }
    </style>
  </defs>
  <g>
    <path class="cls-2" d="M71.57,38.82v20.84c0,.37-.2,.56-.6,.56h-12.12c-.37,0-.56-.19-.56-.56v-20.84h-8.8c-.4,0-.6-.19-.6-.56v-9.32c0-.37,.2-.56,.6-.56h30.84c.4,0,.6,.19,.6,.56v9.32c0,.37-.2,.56-.6,.56h-8.76Z"/>
    <path class="cls-2" d="M83.84,60.22c-.4,0-.6-.19-.6-.56V28.94c0-.37,.2-.56,.6-.56h27.72c.4,0,.6,.19,.6,.56v9.32c0,.37-.2,.56-.6,.56h-15.04v2h11.04c.37,0,.56,.19,.56,.56v5.88c0,.37-.19,.56-.56,.56h-11.04v1.96h15.04c.4,0,.6,.2,.6,.6v9.28c0,.38-.2,.56-.6,.56h-27.72Z"/>
    <path class="cls-2" d="M136.64,60.22c-.29,0-.48-.13-.56-.4l-1.16-3.6h-9c-.13,.45-.29,.97-.48,1.56-.19,.59-.43,1.27-.72,2.04-.08,.27-.25,.4-.52,.4h-10.08c-.21,0-.37-.08-.48-.24-.13-.13-.16-.31-.08-.52l11.4-30.68c.11-.27,.29-.4,.56-.4h12.16c.24,0,.41,.13,.52,.4l11.56,30.68c.05,.16,.04,.33-.04,.52-.13,.16-.31,.24-.52,.24h-12.56Zm-6.32-17.56c-.21,.61-.47,1.39-.78,2.34-.31,.95-.67,2.09-1.1,3.42h3.8l-1.92-5.76Z"/>
    <path class="cls-2" d="M182.28,60.22c-.4,0-.6-.19-.6-.56v-15c-.45,1.71-1.02,3.81-1.7,6.32-.68,2.51-1.46,5.44-2.34,8.8-.08,.29-.27,.44-.56,.44h-9.24c-.29,0-.47-.15-.52-.44l-4.8-15.84v15.72c0,.37-.2,.56-.6,.56h-9.44c-.37,0-.56-.19-.56-.56V28.94c0-.37,.19-.56,.56-.56h16.88c.29,0,.48,.15,.56,.44l3.28,11.48,3.36-11.48c.08-.29,.25-.44,.52-.44h17.32c.37,0,.56,.19,.56,.56v30.72c0,.37-.19,.56-.56,.56h-12.12Z"/>
  </g>
  <g>
    <g>
      <path class="cls-1" d="M70.75,117.72c-.21,3.07-.5,10.04-3.06,9.62-5.29-.87-8.48-15.29-8.98-26.32-.49-10.06-.39-23.28,5.26-23.46,4.95-.16,7.7,6.39,9.3,13.04h.16c-.42-6.92,1.54-12.97,5.24-13.08,7.26-.23,10.87,17.65,11.5,29.81,.64,12.99-1.45,22.93-4.21,22.48-3.21-.52-4.95-6.62-5.56-10.88l-.27-.03c-.27,3.87-.97,8.34-3.8,7.9-2.67-.42-4.94-4.37-5.27-9.03l-.31-.04Zm-1.69-34.35c-.08-1.85-2.06-3.91-4.58-4.34,2.98,1.26,3.69,5.27,4.39,5.27,.1,0,.2-.34,.19-.93Zm14.77,2.89c-.1-2.85-2.32-5.48-5.68-6.55,3.77,2.3,4.52,8.05,5.42,8.06,.23,0,.33-.62,.26-1.51Z"/>
      <path class="cls-1" d="M88.57,97.65c-1.99-22.55,2.33-33.54,11.95-34.3,4.93-.39,8.8,3.82,8.86,9.1-.01,4.79-3.32,8.74-7.48,9.38,1.73,9.81,2.65,21.76,2.81,29.67,.11,4.1,.09,7.61,.06,10.64,4.1,.7,7.6,5.33,7.59,10.18,.05,4.96-2.68,8.42-7.64,7.4-11.13-2.33-13.31-10.13-16.14-42.07Zm17.5-27.37c-.1-2.51-2.74-4.17-6.03-4.61,3.82,1.56,4.66,5.93,5.58,5.89,.13,0,.46-.6,.45-1.28Zm2.34,59.8c.07,.01,.2-.45,.19-.83-.09-1.83-2.36-4.06-5.17-4.91,3.28,1.68,4.18,5.62,4.98,5.74Z"/>
      <path class="cls-1" d="M123.18,122.72c.19,4.46,1.15,11.96-3.8,11.88-10.6-1.69-11.32-24.06-10.88-38.22,.29-10.47,2.97-20.29,11.22-20.56,17.4-.57,22.53,24.9,21.77,44.6-.19,7.35-2.96,18.83-10.01,17.67-5.04-.83-6.99-10.55-7.71-15.39l-.59,.03Zm-4.17-10.16c-.29-.03-.35,.37-.35,.97-.05,1.69,1.77,3.77,4.25,4.53-2.93-1.51-3.33-5.44-3.9-5.49Zm2.8-2.27c-.73,.24-1.16,.81-1.15,1.72-.06,1.4,.98,3.1,2.44,3.24,1.18,.11,1.62-.56,1.69-1.47-.01-1.32-1.29-3.36-2.55-3.46l-.44-.03Zm8.8-25.83c.13-2.51-3.89-5.25-8.89-5.65,5.85,1.63,7.05,6.9,8.44,6.9,.23,0,.38-.52,.45-1.25Z"/>
      <path class="cls-1" d="M165.53,120.2c4.24-.86,11.21,.86,11.05,10.43,.04,10.4-16.36,11.5-20.28,10.87-15.41-2.51-18.44-35.14-18.4-49.6-.03-13.67,5.58-16.74,15.11-17.04,7.94-.26,16.56,1.46,16.59,8.39,.04,7.73-5.46,8-9.58,8.85v.46c9.62-.4,15.61,4.82,15.55,14.44-.08,5.56-2.96,10.16-10.05,11.96v1.26Zm-.96-39.01c0-1.5-2.95-3.17-6.56-3.43,4.19,1.05,5.15,4.26,6.19,4.25,.19,0,.38-.35,.38-.81Zm3.75,19.55c-.01-2.21-3.77-4.88-8.37-5.58,5.37,1.76,6.64,6.67,7.89,6.72,.29,.01,.48-.44,.48-1.14Zm3.55,27.21c.2,.02,.39-.3,.39-.77,0-1.64-2.96-3.59-6.81-4.34,4.34,1.62,5.44,5,6.42,5.12Z"/>
      <path class="cls-1" d="M183.76,82.78c-.85,.13-1.58,.26-2.32,.26-6.37,.05-11.47-3.91-11.5-10.14-.03-7.3,6.96-14.19,17.06-14.94,17.66-1.32,27.75,22.32,27.75,68.64,0,22.85-5.96,29.35-20.94,30.63-1.65,.18-3.08,.03-4.49-.23-5.96-1.13-10.02-6.17-10.04-11.98-.02-5.11,3.91-9.7,9.44-10.67-3.9-14.79-4.9-29.78-4.95-46.44l-.02-5.12Zm14.62-13.19c.57-3.34-5.33-6.55-10.72-8.58,5.96,3.63,8.11,9.7,9.58,10.02,.23,0,1.03-.55,1.14-1.44Z"/>
      <path class="cls-1" d="M211.06,113.87c-1.22-11.77,1.1-17.43,7.33-20.99-3.01-.71-11.08-2.65-11.09-15.1,0-15.48,15.6-20.88,27.5-21.72,39.4-2.78,57.24,29.14,56.99,58.82-.26,30.89-14.23,51.91-42.89,47.18-22.47-3.67-35.76-26.65-37.83-48.19Zm20.76-6.2c-.4-.02-.54,.52-.54,1.34,0,2.6,3.92,5.88,9.05,6.93-6.08-2.36-7.29-8.21-8.51-8.27Zm13.22,1.54c0-2.4-3.12-5.79-6.07-5.91-1.67-.07-3.6,.82-3.61,2.89,0,2.49,2.33,5.39,5.69,5.6,2.83,.17,3.99-1.17,3.99-2.58Zm21.29-36.21c.03-5.53-12.74-11.12-28.64-11.66,18.91,2.87,22.21,14.64,26.89,14.54,1.1-.02,1.74-1.23,1.75-2.88Z"/>
    </g>
    <g>
      <path class="cls-3" d="M69.31,111.67c-.2,3.06-.5,10.01-3.02,9.66-5.24-.74-8.4-15.04-8.9-26.02-.49-10.02-.39-23.19,5.2-23.5,4.9-.27,7.62,6.19,9.21,12.78h.15c-.41-6.89,1.52-12.96,5.18-13.16,7.18-.39,10.76,17.33,11.39,29.43,.64,12.92-1.43,22.87-4.16,22.49-3.17-.44-4.9-6.48-5.5-10.7l-.27-.03c-.27,3.86-.95,8.34-3.76,7.96-2.65-.35-4.89-4.24-5.22-8.87l-.3-.03Zm-1.68-34.19c-.08-1.84-2.04-3.85-4.53-4.22,2.95,1.19,3.65,5.17,4.35,5.15,.1,0,.19-.34,.19-.93Zm14.62,2.54c-.1-2.83-2.29-5.4-5.62-6.39,3.73,2.21,4.47,7.92,5.36,7.9,.22,0,.33-.63,.26-1.51Z"/>
      <path class="cls-3" d="M86.94,91.25c-1.97-22.41,2.29-33.46,11.81-34.43,4.88-.5,8.7,3.6,8.76,8.86-.01,4.77-3.28,8.78-7.39,9.51,1.71,9.73,2.63,21.61,2.79,29.48,.11,4.08,.09,7.58,.06,10.6,4.05,.6,7.52,5.12,7.5,9.96,.05,4.93-2.65,8.45-7.55,7.55-11-2.06-13.17-9.77-15.97-41.52Zm17.3-27.66c-.09-2.5-2.71-4.09-5.96-4.45,3.78,1.46,4.61,5.8,5.52,5.74,.13,0,.45-.61,.44-1.28Zm2.33,59.49c.07,0,.19-.45,.19-.84-.09-1.82-2.34-3.99-5.11-4.77,3.24,1.59,4.14,5.5,4.93,5.6Z"/>
      <path class="cls-3" d="M121.16,115.41c.19,4.44,1.14,11.88-3.75,11.92-10.48-1.43-11.19-23.69-10.76-37.8,.28-10.43,2.93-20.27,11.08-20.72,17.18-.96,22.26,24.26,21.51,43.88-.19,7.32-2.92,18.81-9.88,17.82-4.98-.7-6.91-10.33-7.62-15.14l-.58,.04Zm-4.12-10.02c-.28-.02-.35,.37-.34,.97-.05,1.68,1.75,3.71,4.2,4.41-2.89-1.43-3.29-5.34-3.86-5.38Zm2.77-2.33c-.72,.26-1.14,.84-1.13,1.73-.06,1.39,.97,3.07,2.42,3.17,1.17,.08,1.6-.59,1.67-1.5-.01-1.32-1.28-3.31-2.52-3.38l-.43-.02Zm8.69-25.91c.13-2.5-3.84-5.13-8.78-5.42,5.78,1.49,6.97,6.71,8.34,6.68,.23,0,.38-.53,.45-1.26Z"/>
      <path class="cls-3" d="M162.97,111.9c4.18-.96,11.06,.59,10.9,10.11,.04,10.34-16.13,11.83-20,11.29-15.21-2.12-18.21-34.53-18.17-48.92-.03-13.6,5.5-16.78,14.91-17.31,7.83-.43,16.34,1.08,16.37,7.97,.04,7.69-5.38,8.08-9.45,9.02v.45c9.49-.62,15.4,4.44,15.34,14-.08,5.53-2.92,10.18-9.91,12.13v1.26Zm-.96-38.78c0-1.5-2.91-3.09-6.48-3.27,4.13,.95,5.08,4.12,6.11,4.08,.19,0,.37-.36,.37-.82Zm3.71,19.35c-.01-2.2-3.72-4.77-8.26-5.36,5.3,1.63,6.55,6.48,7.79,6.51,.29,0,.48-.45,.47-1.15Zm3.51,26.98c.19,.02,.39-.31,.39-.78,0-1.63-2.92-3.5-6.72-4.16,4.29,1.51,5.36,4.84,6.33,4.94Z"/>
      <path class="cls-3" d="M180.93,74.26c-.83,.15-1.56,.29-2.28,.31-6.28,.19-11.31-3.62-11.34-9.82-.04-7.26,6.86-14.27,16.81-15.25,17.4-1.7,27.35,21.56,27.36,67.59,0,22.71-5.86,29.31-20.61,30.95-1.63,.22-3.03,.11-4.42-.13-5.88-.98-9.88-5.89-9.91-11.67-.02-5.08,3.85-9.74,9.31-10.83-3.85-14.61-4.84-29.5-4.89-46.06l-.02-5.09Zm14.41-13.45c.56-3.33-5.25-6.39-10.57-8.29,5.87,3.47,7.99,9.46,9.45,9.75,.22-.01,1.01-.57,1.12-1.46Z"/>
      <path class="cls-3" d="M207.84,104.54c-1.2-11.67,1.07-17.35,7.21-21.03-2.97-.64-10.91-2.38-10.92-14.76-.02-15.38,15.35-21.1,27.06-22.2,38.74-3.64,56.28,27.64,56.04,57.1-.24,30.66-13.96,51.86-42.13,47.87-22.11-3.1-35.2-25.63-37.25-46.98Zm20.44-6.65c-.4-.01-.53,.53-.53,1.34,0,2.58,3.86,5.75,8.91,6.67-5.98-2.2-7.18-7.98-8.38-8.02Zm13,1.22c0-2.39-3.07-5.68-5.97-5.73-1.64-.03-3.54,.9-3.55,2.96,0,2.47,2.3,5.3,5.6,5.43,2.79,.11,3.92-1.26,3.92-2.66Zm20.92-36.45c.03-5.49-12.53-10.76-28.17-10.94,18.59,2.42,21.85,14.04,26.44,13.83,1.08-.05,1.71-1.26,1.72-2.9Z"/>
    </g>
  </g>
  <circle class="cls-2" cx="303.83" cy="151.84" r="10.46"/>
  <circle class="cls-4" cx="302.25" cy="149.32" r="10.46"/>
</svg>