<?xml version="1.0" encoding="UTF-8"?>
<svg id="Ebene_1" data-name="Ebene 1" xmlns="http://www.w3.org/2000/svg" viewBox="0 0 245.94 52.67">
  <defs>
    <style>
      .cls-1 {
        fill: #1d1d1b;
      }
    </style>
  </defs>
  <path class="cls-1" d="M15.44,17.19h9.26v2.49h-3.19v18.62h-2.79V19.67h-3.28v-2.49Z"/>
  <path class="cls-1" d="M26.27,17.19h7.56v2.41h-4.72v6.69h4.18v2.41h-4.18v7.21h4.72v2.41h-7.56V17.19Z"/>
  <path class="cls-1" d="M39.45,17.19h2.21l4.53,21.11h-2.82l-.79-4.12h-4.18l-.81,4.12h-2.73l4.59-21.11Zm2.72,14.79l-.63-3.36c-.42-2.29-.76-4.73-1.03-7.33-.13,1.27-.29,2.55-.49,3.85-.2,1.3-.44,2.68-.71,4.14l-.52,2.71h3.38Z"/>
  <path class="cls-1" d="M48.86,17.19h2.43l1.86,8.61c.23,1.08,.44,2.15,.62,3.23,.19,1.08,.36,2.21,.51,3.4,.02-.15,.03-.28,.04-.36,0-.09,.02-.15,.03-.18l.4-2.42,.36-2.3,.31-1.52,1.65-8.46h2.46l1.94,21.11h-2.72l-.48-7.16c-.02-.36-.03-.68-.05-.94-.01-.26-.02-.48-.02-.66l-.12-2.83-.07-2.6s0-.06,0-.12c0-.06-.01-.14-.02-.24l-.07,.42c-.07,.5-.14,.94-.2,1.31-.06,.37-.11,.69-.16,.94l-.36,1.93-.14,.72-1.78,9.21h-1.91l-1.67-7.96c-.23-1.05-.43-2.11-.61-3.19s-.34-2.21-.49-3.4l-.82,14.55h-2.68l1.74-21.11Z"/>
  <path class="cls-1" d="M70.87,17.62v2.78c-.87-.62-1.65-.93-2.34-.93-.75,0-1.36,.26-1.83,.79-.47,.5-.71,1.17-.71,2.01,0,.74,.17,1.37,.51,1.9,.17,.28,.46,.65,.85,1.09,.4,.45,.91,.98,1.54,1.61,1.16,1.18,1.95,2.19,2.37,3.05,.42,.83,.63,1.85,.63,3.05,0,1.63-.46,2.98-1.38,4.03-.92,1.03-2.1,1.54-3.54,1.54-1.21,0-2.25-.33-3.1-1v-2.82c1.01,.74,1.93,1.11,2.76,1.11,.77,0,1.38-.26,1.82-.77,.44-.51,.66-1.21,.66-2.1,0-.77-.17-1.45-.51-2.06-.17-.29-.42-.63-.72-1-.31-.38-.7-.8-1.16-1.26-.72-.71-1.32-1.34-1.79-1.89-.47-.55-.83-1.03-1.05-1.44-.44-.8-.66-1.81-.66-3.04,0-1.65,.43-2.96,1.29-3.92,.87-.98,2.03-1.46,3.49-1.46,1.01,0,1.98,.24,2.9,.72Z"/>
  <path class="cls-1" d="M72.93,17.19h9.26v2.49h-3.19v18.62h-2.79V19.67h-3.28v-2.49Z"/>
  <path class="cls-1" d="M86.37,17.19h2.21l4.53,21.11h-2.82l-.79-4.12h-4.18l-.81,4.12h-2.73l4.59-21.11Zm2.72,14.79l-.63-3.36c-.42-2.29-.76-4.73-1.03-7.33-.13,1.27-.29,2.55-.49,3.85-.2,1.3-.44,2.68-.71,4.14l-.52,2.71h3.38Z"/>
  <path class="cls-1" d="M92.65,17.19h9.26v2.49h-3.19v18.62h-2.79V19.67h-3.28v-2.49Z"/>
  <path class="cls-1" d="M111.1,17.62v2.78c-.87-.62-1.65-.93-2.34-.93-.75,0-1.36,.26-1.83,.79-.47,.5-.71,1.17-.71,2.01,0,.74,.17,1.37,.51,1.9,.17,.28,.46,.65,.85,1.09,.4,.45,.91,.98,1.54,1.61,1.16,1.18,1.95,2.19,2.37,3.05,.42,.83,.63,1.85,.63,3.05,0,1.63-.46,2.98-1.38,4.03-.92,1.03-2.1,1.54-3.54,1.54-1.21,0-2.25-.33-3.1-1v-2.82c1.01,.74,1.93,1.11,2.76,1.11,.77,0,1.38-.26,1.82-.77,.44-.51,.66-1.21,.66-2.1,0-.77-.17-1.45-.51-2.06-.17-.29-.42-.63-.72-1-.31-.38-.7-.8-1.16-1.26-.72-.71-1.32-1.34-1.79-1.89-.47-.55-.83-1.03-1.05-1.44-.44-.8-.66-1.81-.66-3.04,0-1.65,.43-2.96,1.29-3.92,.87-.98,2.03-1.46,3.49-1.46,1.01,0,1.98,.24,2.9,.72Z"/>
  <path class="cls-1" d="M115.82,23.94c.45,0,.83,.17,1.16,.51,.33,.33,.49,.72,.49,1.18s-.16,.88-.49,1.2-.72,.49-1.19,.49-.88-.16-1.2-.49c-.33-.34-.49-.74-.49-1.2s.16-.87,.49-1.19c.34-.33,.75-.49,1.23-.49Zm0,11.18c.45,0,.83,.17,1.16,.51,.33,.33,.49,.72,.49,1.19s-.16,.86-.49,1.19c-.35,.32-.74,.48-1.19,.48-.24,0-.46-.04-.66-.13s-.39-.21-.54-.36c-.16-.15-.28-.33-.36-.53-.09-.21-.13-.43-.13-.66,0-.46,.16-.86,.49-1.19,.34-.33,.75-.49,1.23-.49Z"/>
  <path class="cls-1" d="M126.98,17.19h4.81v21.11h-2.72V19.6h-2.09v-2.42Z"/>
  <path class="cls-1" d="M136.17,17.19h4.81v21.11h-2.72V19.6h-2.09v-2.42Z"/>
  <path class="cls-1" d="M147.7,24.05h-2.79l-.03-.83c0-2.31,.35-3.93,1.04-4.87,.7-.95,1.88-1.42,3.53-1.42,3.11,0,4.66,1.72,4.66,5.17,0,2.32-1.16,5.67-3.49,10.05l-1.68,3.16-.08,.16c-.05,.09-.11,.22-.19,.4h5.22v2.43h-9.27c.15-.35,.48-1.03,.97-2.06,.49-1.03,1.16-2.42,2.01-4.17,.72-1.53,1.32-2.83,1.8-3.9,.48-1.07,.85-1.94,1.09-2.62,.49-1.37,.74-2.55,.74-3.54,0-1.75-.61-2.62-1.82-2.62s-1.75,1.08-1.75,3.25v1.2s.03,.22,.03,.22Z"/>
  <path class="cls-1" d="M162.59,17.19h2.84v8.26h4.17v-8.26h2.84v21.11h-2.84v-10.45h-4.17v10.45h-2.84V17.19Z"/>
  <path class="cls-1" d="M186.27,28.26c0,3.73-.42,6.38-1.24,7.94-.83,1.57-2.22,2.35-4.17,2.35-2.05,0-3.5-.84-4.33-2.53-.83-1.65-1.24-4.58-1.24-8.79,0-3.75,.41-6.41,1.23-7.97,.83-1.57,2.23-2.35,4.21-2.35,1.77,0,3.08,.61,3.94,1.82,.56,.81,.98,1.96,1.23,3.46,.25,1.39,.38,3.41,.38,6.07Zm-2.98,.3c0-3.65-.16-6.08-.49-7.27-.33-1.2-1-1.8-2.01-1.8s-1.69,.55-2.02,1.65c-.33,1.11-.49,3.35-.49,6.7,0,3.09,.17,5.23,.52,6.43,.36,1.13,1.02,1.7,2,1.7s1.61-.53,1.97-1.59c.36-1.05,.53-2.98,.53-5.81Z"/>
  <path class="cls-1" d="M189.09,17.19h2.65l2.83,8.42c.82,2.38,1.54,4.92,2.17,7.62-.23-1.63-.4-3.11-.51-4.43-.11-1.32-.16-2.57-.16-3.73v-7.88h2.86v21.11h-2.67l-3.19-9.5c-.29-.88-.57-1.79-.83-2.72s-.5-1.9-.72-2.93c-.02-.13-.05-.28-.09-.46-.04-.18-.09-.39-.14-.63,.03,.24,.05,.44,.07,.61,.02,.17,.03,.31,.04,.43l.15,2.15,.15,2.61c0,.15,.02,.32,.02,.53,0,.21,0,.45,0,.71l.15,9.2h-2.8V17.19Z"/>
  <path class="cls-1" d="M212.78,28.26c0,3.73-.42,6.38-1.24,7.94-.83,1.57-2.22,2.35-4.17,2.35-2.05,0-3.5-.84-4.33-2.53-.83-1.65-1.24-4.58-1.24-8.79,0-3.75,.41-6.41,1.23-7.97,.83-1.57,2.23-2.35,4.21-2.35,1.77,0,3.08,.61,3.94,1.82,.56,.81,.98,1.96,1.23,3.46,.25,1.39,.38,3.41,.38,6.07Zm-2.98,.3c0-3.65-.16-6.08-.49-7.27-.33-1.2-1-1.8-2.01-1.8s-1.69,.55-2.02,1.65c-.33,1.11-.49,3.35-.49,6.7,0,3.09,.17,5.23,.52,6.43,.36,1.13,1.02,1.7,2,1.7s1.61-.53,1.97-1.59c.36-1.05,.53-2.98,.53-5.81Z"/>
  <path class="cls-1" d="M215.6,17.19h3.75c1.55,0,2.7,.37,3.46,1.11,.96,.96,1.44,2.42,1.44,4.39,0,1.51-.25,2.73-.76,3.64s-1.23,1.48-2.17,1.7l3.88,10.27h-2.88l-3.87-10.34v10.34h-2.84V17.19Zm2.84,9.35c1.1,0,1.88-.25,2.34-.77,.46-.51,.68-1.37,.68-2.58,0-.66-.05-1.22-.14-1.68s-.25-.84-.45-1.13c-.21-.29-.47-.51-.79-.64-.32-.14-.71-.21-1.16-.21h-.48v7.01Z"/>
</svg>