<?xml version="1.0" encoding="UTF-8"?>
<svg id="Ebene_1" data-name="Ebene 1" xmlns="http://www.w3.org/2000/svg" viewBox="0 0 100 52.67">
  <defs>
    <style>
      .cls-1 {
        fill: #1d1d1b;
      }
    </style>
  </defs>
  <path class="cls-1" d="M18.06,6.5v3.16h-2.44v12.65h-4.11V9.66h-2.43v-3.16h8.98Z"/>
  <path class="cls-1" d="M28.45,6.5v15.81h-4.11v-6.64h-1.23v6.64h-4.11V6.5h4.11v5.65h1.23V6.5h4.11Z"/>
  <path class="cls-1" d="M39.45,6.5v10.57c0,1.2-.04,2.04-.12,2.52s-.31,.98-.69,1.49-.89,.9-1.52,1.16-1.37,.4-2.22,.4c-.94,0-1.78-.16-2.5-.47s-1.26-.72-1.62-1.22-.57-1.03-.63-1.59-.1-1.73-.1-3.51V6.5h4.11v11.86c0,.69,.04,1.13,.11,1.32s.23,.29,.45,.29c.26,0,.43-.11,.5-.32s.11-.71,.11-1.5V6.5h4.11Z"/>
  <path class="cls-1" d="M41.04,6.5h2.91c1.94,0,3.25,.07,3.94,.22s1.25,.53,1.68,1.15,.65,1.6,.65,2.94c0,1.23-.15,2.06-.46,2.48s-.91,.68-1.81,.76c.81,.2,1.36,.47,1.64,.81s.45,.65,.52,.93,.1,1.06,.1,2.34v4.17h-3.82v-5.25c0-.85-.07-1.37-.2-1.57s-.48-.3-1.05-.3v7.13h-4.11V6.5Zm4.11,2.71v3.52c.46,0,.79-.06,.97-.19s.28-.54,.28-1.24v-.87c0-.5-.09-.83-.27-.99s-.51-.23-.98-.23Z"/>
  <path class="cls-1" d="M60.52,11.29h-3.82v-1.17c0-.55-.05-.9-.15-1.04s-.26-.22-.49-.22c-.25,0-.43,.1-.56,.3-.13,.2-.19,.51-.19,.92,0,.53,.07,.93,.21,1.19,.14,.27,.52,.59,1.16,.97,1.83,1.09,2.98,1.98,3.46,2.67s.71,1.82,.71,3.37c0,1.13-.13,1.96-.4,2.49s-.77,.98-1.53,1.34-1.63,.54-2.64,.54c-1.1,0-2.04-.21-2.82-.62s-1.29-.95-1.53-1.59-.36-1.56-.36-2.74v-1.04h3.82v1.92c0,.59,.05,.97,.16,1.14s.3,.25,.57,.25,.48-.11,.61-.32,.2-.53,.2-.96c0-.93-.13-1.54-.38-1.83-.26-.29-.9-.77-1.92-1.44-1.02-.68-1.7-1.17-2.03-1.47s-.61-.73-.83-1.27-.33-1.23-.33-2.07c0-1.21,.15-2.1,.46-2.66s.81-1,1.5-1.31,1.52-.47,2.5-.47c1.07,0,1.98,.17,2.73,.52s1.25,.78,1.49,1.3,.37,1.41,.37,2.67v.62Z"/>
  <path class="cls-1" d="M62.15,6.5h3.08c1.99,0,3.33,.09,4.03,.27s1.23,.48,1.6,.9,.59,.88,.68,1.39,.14,1.52,.14,3.01v5.54c0,1.42-.07,2.37-.2,2.85s-.37,.85-.7,1.12-.74,.46-1.23,.57-1.22,.16-2.21,.16h-5.19V6.5Zm4.11,2.71v10.4c.59,0,.96-.12,1.09-.36s.21-.88,.21-1.94v-6.14c0-.72-.02-1.18-.07-1.38s-.15-.35-.31-.44-.47-.14-.92-.14Z"/>
  <path class="cls-1" d="M80.31,6.5l2.35,15.81h-4.2l-.22-2.84h-1.47l-.25,2.84h-4.25l2.1-15.81h5.94Zm-2.18,10.17c-.21-1.79-.42-4-.63-6.64-.42,3.03-.68,5.24-.79,6.64h1.42Z"/>
  <path class="cls-1" d="M90.92,6.5l-3,10.09v5.72h-3.81v-5.72l-2.89-10.09h3.78c.59,3.09,.92,5.16,1,6.23,.23-1.69,.61-3.76,1.14-6.23h3.78Z"/>
  <path class="cls-1" d="M22.36,31.48v1.83c-.52-.25-.96-.38-1.31-.38-.48,0-.9,.12-1.24,.36s-.63,.6-.85,1.1-.39,1.12-.5,1.88-.16,1.66-.16,2.69c0,3.72,.95,5.59,2.86,5.59,.33,0,.73-.1,1.2-.31v1.87c-.49,.27-1.04,.41-1.64,.41-3.05,0-4.58-2.49-4.58-7.48,0-2.7,.37-4.7,1.12-6.02s1.89-1.97,3.42-1.97c.57,0,1.13,.15,1.68,.45Z"/>
  <path class="cls-1" d="M31.5,39.14c0,2.66-.3,4.55-.89,5.67s-1.58,1.68-2.98,1.68c-1.46,0-2.5-.6-3.1-1.81-.59-1.18-.89-3.27-.89-6.28,0-2.68,.29-4.58,.88-5.69,.59-1.12,1.59-1.68,3.01-1.68,1.26,0,2.2,.43,2.81,1.3,.4,.58,.7,1.4,.88,2.47,.18,.99,.27,2.44,.27,4.34Zm-2.13,.21c0-2.61-.12-4.34-.35-5.2-.23-.86-.71-1.29-1.44-1.29s-1.2,.39-1.45,1.18c-.23,.79-.35,2.39-.35,4.79,0,2.21,.12,3.74,.37,4.59,.25,.81,.73,1.21,1.43,1.21s1.15-.38,1.41-1.13c.25-.75,.38-2.13,.38-4.15Z"/>
  <path class="cls-1" d="M33.51,31.23h2.5c.76,0,1.4,.08,1.92,.25,.48,.16,.91,.45,1.29,.87,.57,.62,.97,1.44,1.21,2.44,.24,.97,.36,2.36,.36,4.17,0,1.66-.13,3.01-.4,4.06-.26,1-.69,1.77-1.29,2.29-.74,.66-2.05,.99-3.96,.99h-1.64v-15.08Zm2.03,13.3c1.24,0,2.06-.37,2.48-1.12,.43-.75,.64-2.2,.64-4.37,0-2.32-.21-3.92-.62-4.79s-1.16-1.31-2.26-1.31h-.25v11.59Z"/>
  <path class="cls-1" d="M42.82,31.23h5.4v1.72h-3.37v4.78h2.99v1.72h-2.99v5.15h3.37v1.72h-5.4v-15.08Z"/>
  <path class="cls-1" d="M48.95,31.23h1.96l1.03,7,.17,1.04c.08,.56,.14,1.07,.18,1.53l.11,1.28s.01,.09,.02,.18,.02,.19,.03,.32l.05-.49c.08-.85,.16-1.64,.25-2.35s.18-1.38,.29-1.98l1.08-6.52h1.56l1.02,6.34c.15,.94,.28,1.81,.38,2.61s.18,1.57,.25,2.29c.07-.77,.14-1.51,.22-2.23s.17-1.42,.26-2.11l.15-1.01,.87-5.9h1.94l-2.67,15.08h-1.58l-1.06-6.51s-.02-.13-.05-.32-.07-.46-.12-.81l-.21-1.5c-.01-.12-.03-.29-.06-.53s-.06-.53-.09-.89l-.05-.62c-.01,.15-.03,.28-.04,.39s-.02,.2-.03,.27c-.03,.43-.06,.76-.08,1s-.04,.38-.04,.43l-.21,1.45c-.05,.33-.08,.59-.11,.78s-.05,.31-.06,.35l-1.1,6.51h-1.63l-2.61-15.08Z"/>
  <path class="cls-1" d="M63.75,31.23h1.58l3.23,15.08h-2.01l-.57-2.94h-2.99l-.58,2.94h-1.95l3.28-15.08Zm1.94,10.57l-.45-2.4c-.3-1.63-.54-3.38-.73-5.23-.09,.9-.21,1.82-.35,2.75s-.31,1.91-.51,2.95l-.37,1.93h2.41Z"/>
  <path class="cls-1" d="M69.75,31.23h2.68c1.11,0,1.93,.26,2.47,.79,.68,.68,1.03,1.73,1.03,3.13,0,1.08-.18,1.95-.54,2.6s-.88,1.06-1.55,1.22l2.77,7.33h-2.06l-2.76-7.38v7.38h-2.03v-15.08Zm2.03,6.68c.79,0,1.34-.18,1.67-.55s.49-.98,.49-1.85c0-.47-.03-.87-.1-1.2s-.18-.6-.32-.81-.33-.36-.57-.46-.51-.15-.83-.15h-.34v5.01Z"/>
  <path class="cls-1" d="M83.21,31.55v1.98c-.62-.44-1.17-.66-1.67-.66-.53,0-.97,.19-1.31,.57-.34,.36-.51,.84-.51,1.44,0,.53,.12,.98,.36,1.36,.12,.2,.33,.46,.61,.78s.65,.7,1.1,1.15c.83,.84,1.39,1.57,1.69,2.18,.3,.59,.45,1.32,.45,2.18,0,1.17-.33,2.13-.99,2.88-.66,.74-1.5,1.1-2.53,1.1-.87,0-1.6-.24-2.22-.71v-2.01c.72,.53,1.38,.79,1.97,.79,.55,0,.99-.18,1.3-.55s.47-.87,.47-1.5c0-.55-.12-1.04-.36-1.47-.12-.21-.3-.45-.52-.72s-.5-.57-.83-.9c-.51-.51-.94-.96-1.28-1.35s-.59-.73-.75-1.03c-.31-.57-.47-1.3-.47-2.17,0-1.18,.31-2.11,.92-2.8,.62-.7,1.45-1.04,2.49-1.04,.72,0,1.41,.17,2.07,.52Z"/>
</svg>