<svg id="Ebene_1" data-name="Ebene 1" xmlns="http://www.w3.org/2000/svg" viewBox="0 0 261.92 65.6"><defs><style>.cls-1{fill:#10191c;stroke:#fff;}.cls-1,.cls-2{stroke-miterlimit:10;}.cls-2{fill:#fff;stroke:#1d1d1b;}</style></defs><path class="cls-1" d="M182.31,416.3c0-10,3.2-13.6,3.92-15a27.22,27.22,0,0,1-3.68.72c-6.32,0-9.92-3-9.92-8.48,0-8.24,10.16-11.84,19.84-11.84,6.24,0,23.68,1.92,23.68,13.2,0,6.08-8.24,8.88-12.56,6.88,2.8,2.72,8.64,14.16,8.64,23.36,0,7.44-4.8,13.92-13.68,13.92C182.47,439,182.31,420.7,182.31,416.3Zm26.88-25.6c0-2.4-6.32-5.2-14.72-5.84,9.92,1.76,11.6,7,13.92,7C208.87,391.9,209.19,391.34,209.19,390.7Z" transform="translate(-167.13 -373.92)"/><path class="cls-1" d="M213,407.5c0-5.92-.72-18.56,8.16-18.56,10.4,0,14.32,21.76,14.32,29.28,0,10.16-2.72,16.88-8.64,17.76C215.67,436,213,415.82,213,407.5Zm2.48-25.36a3.32,3.32,0,0,1,3.52-3.6c2.72,0,6.4,2.24,6.4,5.52,0,2.4-2.56,3.84-4.8,3.84C218.15,387.9,215.51,385.34,215.51,382.14Zm8,0c0-1-2.08-2.08-4.72-2.32,3.12.72,3.76,2.72,4.48,2.72C223.51,382.54,223.51,382.38,223.51,382.14Zm3,13.28c0-1.76-2.64-3.76-6.08-4.24,4,1.36,4.88,5.12,5.84,5.12C226.31,396.3,226.47,395.9,226.47,395.42Z" transform="translate(-167.13 -373.92)"/><path class="cls-1" d="M252.23,426.54c-.4,3-1,9.68-5.12,9.68-8.72,0-13.76-13.92-14.32-24.88-.56-10,0-23.12,9.52-23.12,8,0,12.16,6.24,14.48,12.48H257c-.48-6.48,2.64-12.08,8.16-12.08,10.4,0,15,15.84,15.68,26.56.64,11.44-2.4,20.56-6.24,20.56-4.56,0-7-5.36-7.76-9.2h-.4c-.48,3.6-1.6,7.84-5.84,7.84-4.08,0-7.52-3.44-7.92-7.84Zm-1.84-32.64c-.08-1.76-3.2-3.76-7.28-4.24,4.8,1.28,5.84,5.12,7,5.12C250.23,394.78,250.39,394.46,250.39,393.9Zm22.08,2.72c-.08-2.56-3.2-5-8.08-6,5.44,2.16,6.4,7.36,7.68,7.36C272.39,398,272.55,397.42,272.47,396.62Z" transform="translate(-167.13 -373.92)"/><path class="cls-1" d="M303.19,420.06c3.52-.88,9.12-.16,9,6.32,0,7-13.61,9.6-17,9.6-14.32,0-17-24.32-16.88-35.2.08-10.24,5.52-12.4,14.32-12.4,7,0,14.17,1.36,14.17,6.08,0,5.28-4.56,5.52-8.09,6.16v.32c8.09-.4,12.88,3,12.8,9.52-.07,3.76-2.39,7-8.23,8.72Zm-.65-27c0-1-2.48-2.24-5.6-2.48,3.6.8,4.4,3,5.28,3C302.38,393.58,302.54,393.34,302.54,393Zm3,13.44c0-1.52-3.13-3.28-7-3.68,4.57,1.12,5.61,4.48,6.65,4.48C305.42,407.26,305.59,406.94,305.59,406.46Zm2.79,18.48c.16,0,.33-.24.33-.56,0-1.12-2.41-2.24-5.6-2.48C306.71,422.7,307.59,424.94,308.38,424.94Z" transform="translate(-167.13 -373.92)"/><path class="cls-1" d="M308.78,404.94c0-5.68,2.08-17,10.89-17,12.47,0,15.27,14,15.27,24a45.84,45.84,0,0,1-.72,7.52c1.76-1,7.92-1,7.92,5.2,0,6.64-6.47,13.12-14.08,13.12C311.9,437.82,308.78,418.22,308.78,404.94Zm19.52-9c0-2.64-3.6-5.52-8.48-6.24,5.77,1.92,6.72,7.52,8,7.52C328.06,397.18,328.3,396.62,328.3,395.9Zm10.16,26.64c.25-.16.17-.4-.08-.8-.63-1-3.12-1.36-5.44-.48C336.06,420.62,337.9,422.78,338.46,422.54Z" transform="translate(-167.13 -373.92)"/><path class="cls-1" d="M338.7,407.5c0-5.92-.72-18.56,8.16-18.56,10.4,0,14.32,21.76,14.32,29.28,0,10.16-2.72,16.88-8.64,17.76C341.34,436,338.7,415.82,338.7,407.5Zm2.48-25.36a3.32,3.32,0,0,1,3.52-3.6c2.72,0,6.4,2.24,6.4,5.52,0,2.4-2.56,3.84-4.8,3.84C343.82,387.9,341.18,385.34,341.18,382.14Zm8,0c0-1-2.08-2.08-4.72-2.32,3.12.72,3.76,2.72,4.48,2.72C349.18,382.54,349.18,382.38,349.18,382.14Zm3,13.28c0-1.76-2.64-3.76-6.08-4.24,4,1.36,4.88,5.12,5.84,5.12C352,396.3,352.14,395.9,352.14,395.42Z" transform="translate(-167.13 -373.92)"/><path class="cls-1" d="M374,425.74c.48,2.64,1.28,10.56-4.72,10.56-7.84,0-10.24-12.08-10.24-29.2,0-5.6.16-18.48,6.8-18.48,8.16,0,11.76,7,14,12.32h.32c-1.28-4.56-2.24-13.28,4.24-13.28,10.64,0,13.36,26,13.36,33.44,0,7.92-3,14.88-11.2,14.88s-10.24-5.6-12.08-10.24ZM372.38,394c0-1.76-3-3.84-7-4.32,4.72,1.28,5.52,5.2,6.64,5.2C372.22,394.86,372.38,394.54,372.38,394Zm17.52-.64c0-1.68-2.24-3.68-5.2-4.16,3.44,1.28,4.08,5,4.88,5C389.74,394.22,389.9,393.9,389.9,393.34Z" transform="translate(-167.13 -373.92)"/><path class="cls-1" d="M419.58,420.06c3.52-.88,9.12-.16,9,6.32,0,7-13.6,9.6-17,9.6-14.32,0-17-24.32-16.88-35.2.08-10.24,5.52-12.4,14.32-12.4,7,0,14.16,1.36,14.16,6.08,0,5.28-4.56,5.52-8.08,6.16v.32c8.08-.4,12.88,3,12.8,9.52-.08,3.76-2.4,7-8.24,8.72Zm-.64-27c0-1-2.48-2.24-5.6-2.48,3.6.8,4.4,3,5.28,3C418.78,393.58,418.94,393.34,418.94,393Zm3,13.44c0-1.52-3.12-3.28-7-3.68,4.56,1.12,5.6,4.48,6.64,4.48C421.82,407.26,422,406.94,422,406.46Zm2.8,18.48c.16,0,.32-.24.32-.56,0-1.12-2.4-2.24-5.6-2.48C423.1,422.7,424,424.94,424.78,424.94Z" transform="translate(-167.13 -373.92)"/><path class="cls-2" d="M177.31,412.18c0-10,3.2-13.6,3.92-15a27.22,27.22,0,0,1-3.68.72c-6.32,0-9.92-3-9.92-8.48,0-8.24,10.16-11.84,19.84-11.84,6.24,0,23.68,1.92,23.68,13.2,0,6.08-8.24,8.88-12.56,6.88,2.8,2.72,8.64,14.16,8.64,23.36,0,7.44-4.8,13.92-13.68,13.92C177.47,434.9,177.31,416.58,177.31,412.18Zm26.88-25.6c0-2.4-6.32-5.2-14.72-5.84,9.92,1.76,11.6,7,13.92,7C203.87,387.78,204.19,387.22,204.19,386.58Z" transform="translate(-167.13 -373.92)"/><path class="cls-2" d="M208,403.38c0-5.92-.72-18.56,8.16-18.56,10.4,0,14.32,21.76,14.32,29.28,0,10.16-2.72,16.88-8.64,17.76C210.67,431.86,208,411.7,208,403.38ZM210.51,378a3.32,3.32,0,0,1,3.52-3.6c2.72,0,6.4,2.24,6.4,5.52,0,2.4-2.56,3.84-4.8,3.84C213.15,383.78,210.51,381.22,210.51,378Zm8,0c0-1-2.08-2.08-4.72-2.32,3.12.72,3.76,2.72,4.48,2.72C218.51,378.42,218.51,378.26,218.51,378Zm3,13.28c0-1.76-2.64-3.76-6.08-4.24,4,1.36,4.88,5.12,5.84,5.12C221.31,392.18,221.47,391.78,221.47,391.3Z" transform="translate(-167.13 -373.92)"/><path class="cls-2" d="M247.23,422.42c-.4,3-1,9.68-5.12,9.68-8.72,0-13.76-13.92-14.32-24.88-.56-10,0-23.12,9.52-23.12,8,0,12.16,6.24,14.48,12.48H252c-.48-6.48,2.64-12.08,8.16-12.08,10.4,0,15,15.84,15.68,26.56.64,11.44-2.4,20.56-6.24,20.56-4.56,0-7-5.36-7.76-9.2h-.4c-.48,3.6-1.6,7.84-5.84,7.84-4.08,0-7.52-3.44-7.92-7.84Zm-1.84-32.64c-.08-1.76-3.2-3.76-7.28-4.24,4.8,1.28,5.84,5.12,7,5.12C245.23,390.66,245.39,390.34,245.39,389.78Zm22.08,2.72c-.08-2.56-3.2-5-8.08-6,5.44,2.16,6.4,7.36,7.68,7.36C267.39,393.86,267.55,393.3,267.47,392.5Z" transform="translate(-167.13 -373.92)"/><path class="cls-2" d="M298.19,415.94c3.52-.88,9.12-.16,9,6.32,0,7-13.6,9.6-17,9.6-14.32,0-17-24.32-16.88-35.2.08-10.24,5.52-12.4,14.32-12.4,7,0,14.16,1.36,14.16,6.08,0,5.28-4.56,5.52-8.08,6.16v.32c8.08-.4,12.88,3,12.8,9.52-.08,3.76-2.4,7-8.24,8.72Zm-.64-27c0-1-2.48-2.24-5.6-2.48,3.6.8,4.4,3,5.28,3C297.39,389.46,297.55,389.22,297.55,388.9Zm3,13.44c0-1.52-3.12-3.28-7-3.68,4.56,1.12,5.6,4.48,6.64,4.48C300.43,403.14,300.59,402.82,300.59,402.34Zm2.8,18.48c.16,0,.32-.24.32-.56,0-1.12-2.4-2.24-5.6-2.48C301.71,418.58,302.59,420.82,303.39,420.82Z" transform="translate(-167.13 -373.92)"/><path class="cls-2" d="M303.79,400.82c0-5.68,2.08-17,10.88-17,12.48,0,15.28,14,15.28,24a45.84,45.84,0,0,1-.72,7.52c1.76-1,7.92-1,7.92,5.2,0,6.64-6.48,13.12-14.08,13.12C306.91,433.7,303.79,414.1,303.79,400.82Zm19.52-9c0-2.64-3.6-5.52-8.48-6.24,5.76,1.92,6.72,7.52,8,7.52C323.07,393.06,323.31,392.5,323.31,391.78Zm10.16,26.64c.24-.16.16-.4-.08-.8-.64-1-3.12-1.36-5.44-.48C331.07,416.5,332.91,418.66,333.47,418.42Z" transform="translate(-167.13 -373.92)"/><path class="cls-2" d="M333.71,403.38c0-5.92-.72-18.56,8.16-18.56,10.4,0,14.32,21.76,14.32,29.28,0,10.16-2.72,16.88-8.64,17.76C336.34,431.86,333.71,411.7,333.71,403.38ZM336.19,378a3.32,3.32,0,0,1,3.52-3.6c2.71,0,6.4,2.24,6.4,5.52,0,2.4-2.57,3.84-4.8,3.84C338.83,383.78,336.19,381.22,336.19,378Zm8,0c0-1-2.08-2.08-4.73-2.32,3.12.72,3.77,2.72,4.49,2.72C344.19,378.42,344.19,378.26,344.19,378Zm3,13.28c0-1.76-2.65-3.76-6.08-4.24,4,1.36,4.88,5.12,5.84,5.12C347,392.18,347.15,391.78,347.15,391.3Z" transform="translate(-167.13 -373.92)"/><path class="cls-2" d="M369,421.62c.48,2.64,1.28,10.56-4.72,10.56-7.84,0-10.24-12.08-10.24-29.2,0-5.6.16-18.48,6.8-18.48,8.16,0,11.76,7,14,12.32h.32c-1.28-4.56-2.24-13.28,4.24-13.28,10.64,0,13.36,26,13.36,33.44,0,7.92-3,14.88-11.2,14.88s-10.24-5.6-12.08-10.24Zm-1.6-31.76c0-1.76-3-3.84-7-4.32,4.72,1.28,5.52,5.2,6.64,5.2C367.23,390.74,367.39,390.42,367.39,389.86Zm17.52-.64c0-1.68-2.24-3.68-5.2-4.16,3.44,1.28,4.08,5,4.88,5C384.75,390.1,384.91,389.78,384.91,389.22Z" transform="translate(-167.13 -373.92)"/><path class="cls-2" d="M414.58,415.94c3.53-.88,9.13-.16,9,6.32,0,7-13.6,9.6-17.05,9.6-14.32,0-17-24.32-16.88-35.2.09-10.24,5.52-12.4,14.33-12.4,7,0,14.16,1.36,14.16,6.08,0,5.28-4.57,5.52-8.08,6.16v.32c8.08-.4,12.88,3,12.8,9.52-.08,3.76-2.4,7-8.25,8.72Zm-.63-27c0-1-2.49-2.24-5.61-2.48,3.61.8,4.41,3,5.28,3C413.79,389.46,414,389.22,414,388.9Zm3,13.44c0-1.52-3.12-3.28-7-3.68,4.55,1.12,5.59,4.48,6.63,4.48C416.83,403.14,417,402.82,417,402.34Zm2.8,18.48c.16,0,.32-.24.32-.56,0-1.12-2.4-2.24-5.61-2.48C418.11,418.58,419,420.82,419.79,420.82Z" transform="translate(-167.13 -373.92)"/></svg>