<svg id="Ebene_1" data-name="Ebene 1" xmlns="http://www.w3.org/2000/svg" viewBox="0 0 109.14 147.91"><defs><style>.cls-1{fill:#010101;}.cls-2{fill:#080809;}.cls-3{fill:#070808;}.cls-4{fill:#0a0b0b;}.cls-5{fill:#fff;}.cls-6{fill:#030303;}.cls-7{fill:#030304;}.cls-8{fill:#030404;}.cls-9{fill:#040505;}.cls-10{fill:#060707;}</style></defs><path class="cls-1" d="M273,397.94a21.55,21.55,0,0,1-16.87-10.75,76.5,76.5,0,0,1-8.91-25.61c-1.71-9.7-2.2-19.54-3.8-29.24-1-6.1-4-11.52-6.1-17.27-.87-2.45-1.82-4.86-2.8-7.26-1.14-2.8.44-5.28,1.66-7.81,3.51-7.25,10.35-10,17-12.87a250.94,250.94,0,0,1,32.85-11.35c6.79-1.86,9.4-.86,13.26,5.92,5.93,10.4,12.3,20.59,16.88,31.72a244.53,244.53,0,0,1,14.32,47.14c1.51,7.83-1.24,12.93-7.4,16.59-9.75,5.79-19.3,12-29.84,16.29A55,55,0,0,1,273,397.94Z" transform="translate(-234.13 -271.38)"/><path class="cls-1" d="M279.68,419.26c-2.11,0-3.65-.1-5.18,0-1.89.15-2.66-1-2.95-2.5-.32-1.68,1.09-2.11,2.3-2.49a283.14,283.14,0,0,1,28-7,131.36,131.36,0,0,1,24.92-3.09A65.6,65.6,0,0,1,340,405c1.62.31,3.14,1,3.28,2.72s-1.47,2.59-2.88,3.19c-4.11,1.75-8.53,2.18-12.89,2.74-14.67,1.88-29.3,4-44,5.38C282,419.19,280.56,419.21,279.68,419.26Z" transform="translate(-234.13 -271.38)"/><path class="cls-2" d="M322.78,273.15c.05.89-.57,1.34-1,1.88-3.29,3.71-6.6,7.41-9.86,11.14-.75.86-1.6,1.32-2.58.65a1.73,1.73,0,0,1-.33-2.64,128.2,128.2,0,0,1,11-12.3,1.56,1.56,0,0,1,2-.25A1.5,1.5,0,0,1,322.78,273.15Z" transform="translate(-234.13 -271.38)"/><path class="cls-3" d="M329.23,282.32c-.13,1.24-1,1.73-1.87,2.23-3.89,2.23-8,4.18-11.22,7.38A1.38,1.38,0,0,1,314,292a1.85,1.85,0,0,1-.1-2.67A18.1,18.1,0,0,1,316.5,287c3-2.37,6.42-3.95,9.68-5.83C327.66,280.31,328.74,280.69,329.23,282.32Z" transform="translate(-234.13 -271.38)"/><path class="cls-4" d="M321.82,302.3a2,2,0,0,1-2.23-1.4,1.6,1.6,0,0,1,1.32-2,74.43,74.43,0,0,0,8.52-2.42,1.45,1.45,0,0,1,1.94,1,1.77,1.77,0,0,1-1,2.24C327.67,301.27,324.55,301.44,321.82,302.3Z" transform="translate(-234.13 -271.38)"/><path class="cls-5" d="M284.59,389.8a4.31,4.31,0,0,0-1.37.19c-6,2.72-11.4,1.58-15.28-3.29-6.59-8.27-11.8-17.21-13.63-27.84-1.64-9.58-4.21-19-6.71-28.33-2.07-7.77-4.87-15.33-7.24-23-1.7-5.52-.15-9.56,5-12.55a109.38,109.38,0,0,1,19-8.39c8.39-2.94,16.67-6.26,25.49-7.77,2-.34,4-.62,3.74,2.48a1.24,1.24,0,0,0,.46.93c4.39,2.64,5.62,7.52,8,11.5a189.43,189.43,0,0,1,20.36,48,174.6,174.6,0,0,1,5,22.34,7,7,0,0,1-2.47,6.73c-6.1,5.43-13.6,8.37-20.81,11.82a143.24,143.24,0,0,1-16.72,6.76A4.68,4.68,0,0,1,284.59,389.8Z" transform="translate(-234.13 -271.38)"/><path class="cls-6" d="M320.55,344.37c-.13,1.6-1.35,2-2.55,2.47-7.67,2.82-15.35,5.62-23,8.47-8,3-15.91,6.1-23.72,9.53-1.22.53-2.7,1.41-3.43-.47s.82-2.31,2.1-2.86c11.8-5.07,23.8-9.62,35.88-14,3.88-1.4,7.73-2.89,11.57-4.41C318.92,342.52,320,342.67,320.55,344.37Z" transform="translate(-234.13 -271.38)"/><path class="cls-7" d="M276,377.85c-1.49.18-2.35-.37-2.54-1.45-.25-1.4.91-1.78,2-2.11,9.5-3,18.78-6.67,28-10.41,4.93-2,10.06-3.76,14.47-6.95a1.9,1.9,0,0,1,2.66.53,1.71,1.71,0,0,1-.15,2.62,3.51,3.51,0,0,1-1.09.78c-13.75,6.24-27.8,11.7-42.06,16.64C276.76,377.68,276.23,377.79,276,377.85Z" transform="translate(-234.13 -271.38)"/><path class="cls-8" d="M259.69,345.92c.24-1.48,1.29-1.83,2.41-2.33,7.17-3.23,14.81-5,22.22-7.47a153.22,153.22,0,0,0,19.24-7.55c1.27-.63,2.58-.64,3.2.84s-.62,2.39-1.8,2.8c-7.88,2.77-15.42,6.5-23.53,8.6a136.84,136.84,0,0,0-18.85,6.44C261,347.92,260,347.69,259.69,345.92Z" transform="translate(-234.13 -271.38)"/><path class="cls-9" d="M284.14,313.29c-.3,1.32-.86,2.94-2.26,2.55-2.87-.82-5.28.39-7.76,1.16a139.38,139.38,0,0,0-18.81,7.2c-1.23.6-2.53,1.56-3.41-.26-.76-1.56.52-2.29,1.68-2.84a148.31,148.31,0,0,1,27.59-9.75C282.81,310.94,283.7,311.79,284.14,313.29Z" transform="translate(-234.13 -271.38)"/><path class="cls-10" d="M254.94,308.14c-1.63,0-2.37-.46-2.61-1.44a1.74,1.74,0,0,1,1.33-2.07c6.27-2.09,12.56-4.12,18.85-6.15a1.74,1.74,0,0,1,2.34.75,1.54,1.54,0,0,1-.69,2.3C267.59,303.85,261,306.07,254.94,308.14Z" transform="translate(-234.13 -271.38)"/><path class="cls-10" d="M291.56,308c.67-2.89,1.27-5.41,1.81-7.94.28-1.31.89-2.38,2.33-2,1.27.34,1.58,1.27,1.16,2.76-.83,2.94-1.21,6-1.88,9s-2.31,3.62-4.81,1.66a23.26,23.26,0,0,1-2.6-2.36c-.79-.85-1.24-1.89-.28-2.89s1.95-.44,2.79.39C290.45,307,290.85,307.31,291.56,308Z" transform="translate(-234.13 -271.38)"/><path class="cls-3" d="M290.63,286.68a16.15,16.15,0,0,1-.83,1.57c-1.49,2.35-3,4.66-4.5,7-.74,1.21-1.68,2-3.08,1.49a4.22,4.22,0,0,1-2.87-3.59,1.49,1.49,0,0,1,2.19-1.54c1.51.84,1.73-.1,2.31-1,1.12-1.73,2.37-3.39,3.54-5.09a1.73,1.73,0,0,1,2.13-.65C290.32,285.14,290.59,285.79,290.63,286.68Z" transform="translate(-234.13 -271.38)"/></svg>