<?xml version="1.0" encoding="UTF-8"?>
<svg id="Ebene_1" data-name="Ebene 1" xmlns="http://www.w3.org/2000/svg" viewBox="0 0 100 52.67">
  <defs>
    <style>
      .cls-1 {
        fill: #1d1d1b;
      }
    </style>
  </defs>
  <path class="cls-1" d="M22.31,6.52v3.16h-2.44v12.65h-4.11V9.68h-2.43v-3.16h8.98Z"/>
  <path class="cls-1" d="M32.59,6.52v10.57c0,1.2-.04,2.04-.12,2.52s-.31,.98-.69,1.49-.89,.9-1.52,1.16-1.37,.4-2.22,.4c-.94,0-1.78-.16-2.5-.47s-1.26-.72-1.62-1.22-.57-1.03-.63-1.59-.1-1.73-.1-3.51V6.52h4.11v11.86c0,.69,.04,1.13,.11,1.32s.23,.29,.45,.29c.26,0,.43-.11,.5-.32s.11-.71,.11-1.5V6.52h4.11Z"/>
  <path class="cls-1" d="M34.18,6.52h6.86v3.16h-2.74v3h2.57v3.01h-2.57v3.48h3.02v3.16h-7.13V6.52Z"/>
  <path class="cls-1" d="M51.2,11.3h-3.82v-1.17c0-.55-.05-.9-.15-1.04s-.26-.22-.49-.22c-.25,0-.43,.1-.56,.3-.13,.2-.19,.51-.19,.92,0,.53,.07,.93,.21,1.19,.14,.27,.52,.59,1.16,.97,1.83,1.09,2.98,1.98,3.46,2.67s.71,1.82,.71,3.37c0,1.13-.13,1.96-.4,2.49s-.77,.98-1.53,1.34-1.63,.54-2.64,.54c-1.1,0-2.04-.21-2.82-.62s-1.29-.95-1.53-1.59-.36-1.56-.36-2.74v-1.04h3.82v1.92c0,.59,.05,.97,.16,1.14s.3,.25,.57,.25,.48-.11,.61-.32,.2-.53,.2-.96c0-.93-.13-1.54-.38-1.83-.26-.29-.9-.77-1.92-1.44-1.02-.68-1.7-1.17-2.03-1.47s-.61-.73-.83-1.27-.33-1.23-.33-2.07c0-1.21,.15-2.1,.46-2.66s.81-1,1.5-1.31,1.52-.47,2.5-.47c1.07,0,1.98,.17,2.73,.52s1.25,.78,1.49,1.3,.37,1.41,.37,2.67v.62Z"/>
  <path class="cls-1" d="M52.84,6.52h3.08c1.99,0,3.33,.09,4.03,.27s1.23,.48,1.6,.9,.59,.88,.68,1.39,.14,1.52,.14,3.01v5.54c0,1.42-.07,2.37-.2,2.85s-.37,.85-.7,1.12-.74,.46-1.23,.57-1.22,.16-2.21,.16h-5.19V6.52Zm4.11,2.71v10.4c.59,0,.96-.12,1.09-.36s.21-.88,.21-1.94v-6.14c0-.72-.02-1.18-.07-1.38s-.15-.35-.31-.44-.47-.14-.92-.14Z"/>
  <path class="cls-1" d="M71,6.52l2.35,15.81h-4.2l-.22-2.84h-1.47l-.25,2.84h-4.25l2.1-15.81h5.94Zm-2.18,10.17c-.21-1.79-.42-4-.63-6.64-.42,3.03-.68,5.24-.79,6.64h1.42Z"/>
  <path class="cls-1" d="M81.61,6.52l-3,10.09v5.72h-3.81v-5.72l-2.89-10.09h3.78c.59,3.09,.92,5.16,1,6.23,.23-1.69,.61-3.76,1.14-6.23h3.78Z"/>
  <path class="cls-1" d="M2.42,31.25h1.96l1.03,7,.17,1.04c.08,.56,.14,1.07,.18,1.53l.11,1.28s.01,.09,.02,.18,.02,.19,.03,.32l.05-.49c.08-.85,.16-1.64,.25-2.35s.18-1.38,.29-1.98l1.08-6.52h1.56l1.02,6.34c.15,.94,.28,1.81,.38,2.61s.18,1.57,.25,2.29c.07-.77,.14-1.51,.22-2.23s.17-1.42,.26-2.11l.15-1.01,.87-5.9h1.94l-2.67,15.08h-1.58l-1.06-6.51s-.02-.13-.05-.32-.07-.46-.12-.81l-.21-1.5c-.01-.12-.03-.29-.06-.53s-.06-.53-.09-.89l-.05-.62c-.01,.15-.03,.28-.04,.39s-.02,.2-.03,.27c-.03,.43-.06,.76-.08,1s-.04,.38-.04,.43l-.21,1.45c-.05,.33-.08,.59-.11,.78s-.05,.31-.06,.35l-1.1,6.51h-1.63l-2.61-15.08Z"/>
  <path class="cls-1" d="M15.4,31.25h2.03v15.08h-2.03v-15.08Z"/>
  <path class="cls-1" d="M19.76,31.25h2.68c1.11,0,1.93,.26,2.47,.79,.68,.68,1.03,1.73,1.03,3.13,0,1.08-.18,1.95-.54,2.6s-.88,1.06-1.55,1.22l2.77,7.33h-2.06l-2.76-7.38v7.38h-2.03v-15.08Zm2.03,6.68c.79,0,1.34-.18,1.67-.55s.49-.98,.49-1.85c0-.47-.03-.87-.1-1.2s-.18-.6-.32-.81c-.15-.21-.33-.36-.57-.46s-.51-.15-.83-.15h-.34v5.01Z"/>
  <path class="cls-1" d="M28.19,31.25h5.4v1.72h-3.37v4.78h2.99v1.72h-2.99v5.15h3.37v1.72h-5.4v-15.08Z"/>
  <path class="cls-1" d="M35.45,31.25h5.43v1.72h-3.4v4.77h3.07v1.72h-3.07v6.88h-2.03v-15.08Z"/>
  <path class="cls-1" d="M42.44,31.25h2.68c1.11,0,1.93,.26,2.47,.79,.68,.68,1.03,1.73,1.03,3.13,0,1.08-.18,1.95-.54,2.6s-.88,1.06-1.55,1.22l2.77,7.33h-2.06l-2.76-7.38v7.38h-2.03v-15.08Zm2.03,6.68c.79,0,1.34-.18,1.67-.55s.49-.98,.49-1.85c0-.47-.03-.87-.1-1.2s-.18-.6-.32-.81-.33-.36-.57-.46-.51-.15-.83-.15h-.34v5.01Z"/>
  <path class="cls-1" d="M53.02,31.25h1.58l3.23,15.08h-2.01l-.57-2.94h-2.99l-.58,2.94h-1.95l3.28-15.08Zm1.94,10.57l-.45-2.4c-.3-1.63-.54-3.38-.73-5.23-.09,.9-.21,1.82-.35,2.75s-.31,1.91-.51,2.95l-.37,1.93h2.41Z"/>
  <path class="cls-1" d="M59.74,31.25h1.74l1.33,6.15c.16,.77,.31,1.54,.44,2.31s.26,1.58,.37,2.43c.01-.11,.02-.2,.03-.26s.01-.11,.02-.13l.28-1.73,.25-1.64,.22-1.08,1.18-6.04h1.76l1.39,15.08h-1.94l-.34-5.12c-.01-.26-.02-.48-.03-.67s-.01-.35-.01-.47l-.09-2.02-.05-1.86s0-.04,0-.08,0-.1-.01-.17l-.05,.3c-.05,.36-.1,.67-.14,.94s-.08,.49-.11,.67l-.25,1.38-.1,.52-1.27,6.58h-1.37l-1.19-5.68c-.16-.75-.31-1.51-.43-2.28s-.24-1.58-.35-2.43l-.59,10.39h-1.91l1.24-15.08Z"/>
  <path class="cls-1" d="M70.43,31.25h2.03v15.08h-2.03v-15.08Z"/>
  <path class="cls-1" d="M74.79,31.25h1.89l2.02,6.02c.59,1.7,1.1,3.51,1.55,5.44-.16-1.17-.28-2.22-.36-3.16s-.12-1.83-.12-2.67v-5.62h2.04v15.08h-1.9l-2.28-6.79c-.21-.63-.41-1.28-.59-1.94s-.36-1.36-.51-2.09c-.01-.09-.03-.2-.06-.33s-.06-.28-.1-.45c.02,.17,.04,.31,.05,.43s.02,.22,.03,.31l.11,1.53,.11,1.87c0,.1,.01,.23,.01,.38s0,.32,0,.51l.11,6.57h-2v-15.08Z"/>
  <path class="cls-1" d="M87.76,38.4h3.69v.59c0,2.94-.26,4.92-.77,5.95-.51,1.05-1.46,1.58-2.85,1.58s-2.46-.59-3.08-1.76c-.61-1.17-.91-3.14-.91-5.91,0-3.16,.33-5.27,1-6.32,.62-.98,1.58-1.47,2.88-1.47,.99,0,1.76,.24,2.31,.71,.56,.48,1,1.27,1.31,2.37l-1.89,.79c-.08-.4-.18-.73-.28-1s-.22-.48-.34-.63c-.25-.31-.62-.46-1.11-.46-.68,0-1.14,.42-1.39,1.25-.25,.87-.37,2.44-.37,4.7s.13,3.83,.38,4.64,.73,1.21,1.44,1.21c.64,0,1.1-.29,1.36-.86,.27-.61,.4-1.6,.4-2.95v-.71h-1.77v-1.72Z"/>
</svg>