<svg id="Ebene_1" data-name="Ebene 1" xmlns="http://www.w3.org/2000/svg" viewBox="0 0 129.23 40.33"><defs><style>.cls-1{fill:#1d1d1b;}</style></defs><path class="cls-1" d="M310.93,315.08l-1.83,15.81H304q-.7-3.64-1.24-8.29c-.16,1.33-.55,4.09-1.15,8.29h-5.1l-1.84-15.81h4l.44,5.52.42,5.33q.22-4.14,1.13-10.85h4.27q.09.69.45,5.22l.46,6q.34-5.74,1.14-11.23Z" transform="translate(-277.21 -314.75)"/><path class="cls-1" d="M311.74,315.08h6.85v3.17h-2.74v3h2.57v3h-2.57v3.48h3v3.16h-7.13Z" transform="translate(-277.21 -314.75)"/><path class="cls-1" d="M320.05,315.08h3.07a19.37,19.37,0,0,1,4,.27,3.18,3.18,0,0,1,1.6.9,2.88,2.88,0,0,1,.68,1.39,21.23,21.23,0,0,1,.14,3v5.53a13.13,13.13,0,0,1-.2,2.85,2.12,2.12,0,0,1-.7,1.12,2.92,2.92,0,0,1-1.23.57,10.94,10.94,0,0,1-2.21.16h-5.18Zm4.11,2.71v10.4c.59,0,1-.12,1.09-.36a5.1,5.1,0,0,0,.21-1.94v-6.14a7.7,7.7,0,0,0-.07-1.38.66.66,0,0,0-.31-.44A2,2,0,0,0,324.16,317.79Z" transform="translate(-277.21 -314.75)"/><path class="cls-1" d="M340.28,315.08v15.81h-3.6l-2.14-7.19v7.19H331.1V315.08h3.44l2.31,7.12v-7.12Z" transform="translate(-277.21 -314.75)"/><path class="cls-1" d="M341.93,315.08h6.86v3.17H346v3h2.57v3H346v3.48h3v3.16h-7.13Z" transform="translate(-277.21 -314.75)"/><path class="cls-1" d="M359,319.87h-3.82v-1.18a2.25,2.25,0,0,0-.15-1,.54.54,0,0,0-.49-.23.63.63,0,0,0-.56.31,1.73,1.73,0,0,0-.19.92,2.67,2.67,0,0,0,.21,1.19,3.17,3.17,0,0,0,1.17,1,11.43,11.43,0,0,1,3.45,2.67,6.09,6.09,0,0,1,.72,3.37,5.78,5.78,0,0,1-.4,2.49,3.07,3.07,0,0,1-1.53,1.34,6,6,0,0,1-2.63.54,5.87,5.87,0,0,1-2.82-.62,3.08,3.08,0,0,1-1.53-1.59,8.23,8.23,0,0,1-.36-2.75v-1h3.82v1.92a2.5,2.5,0,0,0,.16,1.14.63.63,0,0,0,.57.26.68.68,0,0,0,.61-.32,1.91,1.91,0,0,0,.2-1,3,3,0,0,0-.38-1.83,12.62,12.62,0,0,0-1.92-1.43,19,19,0,0,1-2-1.48,3.45,3.45,0,0,1-.82-1.27,5.54,5.54,0,0,1-.33-2.07,5.69,5.69,0,0,1,.47-2.65,3.11,3.11,0,0,1,1.5-1.32,6.06,6.06,0,0,1,2.5-.47,6.41,6.41,0,0,1,2.72.52,2.86,2.86,0,0,1,1.5,1.3,6.94,6.94,0,0,1,.37,2.67Z" transform="translate(-277.21 -314.75)"/><path class="cls-1" d="M360.59,315.08h3.07a19.37,19.37,0,0,1,4,.27,3.23,3.23,0,0,1,1.6.9,2.88,2.88,0,0,1,.68,1.39,21.23,21.23,0,0,1,.14,3v5.53a13.13,13.13,0,0,1-.2,2.85,2.18,2.18,0,0,1-.7,1.12,2.92,2.92,0,0,1-1.23.57,11,11,0,0,1-2.21.16h-5.18Zm4.11,2.71v10.4c.59,0,.95-.12,1.09-.36a5.1,5.1,0,0,0,.21-1.94v-6.14a8.86,8.86,0,0,0-.07-1.38.66.66,0,0,0-.31-.44A2,2,0,0,0,364.7,317.79Z" transform="translate(-277.21 -314.75)"/><path class="cls-1" d="M378.75,315.08l2.35,15.81h-4.2l-.22-2.84h-1.47l-.25,2.84h-4.25l2.09-15.81Zm-2.18,10.17c-.21-1.79-.42-4-.63-6.64-.42,3-.68,5.24-.79,6.64Z" transform="translate(-277.21 -314.75)"/><path class="cls-1" d="M389.36,315.08l-3,10.09v5.72h-3.81v-5.72l-2.89-10.09h3.78c.59,3.09.92,5.16,1,6.23.23-1.69.61-3.76,1.15-6.23Z" transform="translate(-277.21 -314.75)"/><path class="cls-1" d="M278.45,339.81h1.74l1.32,6.16c.17.76.31,1.53.45,2.31s.25,1.58.36,2.42a1.48,1.48,0,0,0,0-.26,1.05,1.05,0,0,0,0-.13l.29-1.73.25-1.64.23-1.08,1.18-6.05h1.75l1.39,15.08h-1.94l-.34-5.12c0-.26,0-.48,0-.67s0-.34,0-.47l-.09-2-.05-1.86v-.08s0-.1,0-.17l-.05.3c-.05.36-.1.67-.14.94s-.08.49-.11.68l-.26,1.37-.09.52-1.27,6.58h-1.37l-1.19-5.68c-.16-.75-.31-1.51-.44-2.28s-.24-1.58-.34-2.43l-.59,10.39h-1.91Z" transform="translate(-277.21 -314.75)"/><path class="cls-1" d="M296.69,347.72a13.08,13.08,0,0,1-.89,5.68,3.1,3.1,0,0,1-3,1.68,3.17,3.17,0,0,1-3.09-1.81c-.6-1.18-.89-3.27-.89-6.28q0-4,.88-5.69a3.12,3.12,0,0,1,3-1.68,3.2,3.2,0,0,1,2.81,1.3,6.32,6.32,0,0,1,.88,2.47A26,26,0,0,1,296.69,347.72Zm-2.13.22a24.55,24.55,0,0,0-.35-5.2q-.34-1.29-1.44-1.29a1.44,1.44,0,0,0-1.44,1.19,20.2,20.2,0,0,0-.35,4.78,18.86,18.86,0,0,0,.37,4.59,1.45,1.45,0,0,0,1.42,1.21,1.42,1.42,0,0,0,1.41-1.13A15.15,15.15,0,0,0,294.56,347.94Z" transform="translate(-277.21 -314.75)"/><path class="cls-1" d="M298.7,339.81h2.68a3.45,3.45,0,0,1,2.47.79,4.3,4.3,0,0,1,1,3.14,5.38,5.38,0,0,1-.54,2.6,2.33,2.33,0,0,1-1.55,1.22l2.78,7.33H303.5l-2.77-7.38v7.38h-2Zm2,6.68a2.16,2.16,0,0,0,1.67-.54,2.75,2.75,0,0,0,.49-1.85,5.91,5.91,0,0,0-.1-1.2,2.32,2.32,0,0,0-.32-.81,1.34,1.34,0,0,0-.57-.46,2.09,2.09,0,0,0-.83-.15h-.34Z" transform="translate(-277.21 -314.75)"/><path class="cls-1" d="M307.13,339.81h5.4v1.72h-3.37v4.78h3V348h-3v5.14h3.37v1.72h-5.4Z" transform="translate(-277.21 -314.75)"/><path class="cls-1" d="M317.4,339.81h2l1,7,.17,1c.07.56.13,1.07.17,1.53l.11,1.28s0,.09,0,.18,0,.19,0,.32l.05-.49c.08-.85.16-1.63.25-2.35s.18-1.38.28-2l1.09-6.53h1.56l1,6.34c.15.94.27,1.81.37,2.61s.19,1.56.25,2.29c.07-.76.14-1.51.22-2.22s.17-1.42.26-2.11l.15-1,.87-5.9h1.94l-2.67,15.08H325l-1.06-6.51a2.32,2.32,0,0,1-.05-.32q0-.29-.12-.81l-.2-1.51c0-.12,0-.29-.07-.53s-.06-.53-.09-.88l-.05-.63c0,.15,0,.28,0,.39s0,.2,0,.27c0,.43-.06.77-.08,1s0,.38,0,.43l-.21,1.45c-.05.33-.08.59-.11.78a1.63,1.63,0,0,1-.06.35l-1.1,6.51H320Z" transform="translate(-277.21 -314.75)"/><path class="cls-1" d="M330.39,339.81h2v15.08h-2Z" transform="translate(-277.21 -314.75)"/><path class="cls-1" d="M334.75,339.81h2.67a3.44,3.44,0,0,1,2.47.79,4.26,4.26,0,0,1,1,3.14,5.38,5.38,0,0,1-.54,2.6,2.35,2.35,0,0,1-1.55,1.22l2.77,7.33h-2.06l-2.76-7.38v7.38h-2Zm2,6.68a2.17,2.17,0,0,0,1.67-.54,2.81,2.81,0,0,0,.49-1.85,5.84,5.84,0,0,0-.11-1.2,2.15,2.15,0,0,0-.32-.81,1.28,1.28,0,0,0-.57-.46,2,2,0,0,0-.82-.15h-.34Z" transform="translate(-277.21 -314.75)"/><path class="cls-1" d="M343.17,339.81h5.4v1.72h-3.36v4.78h3V348h-3v5.14h3.36v1.72h-5.4Z" transform="translate(-277.21 -314.75)"/><path class="cls-1" d="M350.44,339.81h5.43v1.72h-3.4v4.77h3.07V348h-3.07v6.87h-2Z" transform="translate(-277.21 -314.75)"/><path class="cls-1" d="M357.43,339.81h2.68a3.45,3.45,0,0,1,2.47.79,4.3,4.3,0,0,1,1,3.14,5.38,5.38,0,0,1-.54,2.6,2.33,2.33,0,0,1-1.55,1.22l2.78,7.33h-2.06l-2.77-7.38v7.38h-2Zm2,6.68a2.16,2.16,0,0,0,1.67-.54,2.75,2.75,0,0,0,.49-1.85,5.91,5.91,0,0,0-.1-1.2,2.32,2.32,0,0,0-.32-.81,1.34,1.34,0,0,0-.57-.46,2.09,2.09,0,0,0-.83-.15h-.34Z" transform="translate(-277.21 -314.75)"/><path class="cls-1" d="M368,339.81h1.58l3.23,15.08h-2l-.57-2.94h-3l-.58,2.94h-1.95ZM370,350.38l-.45-2.4c-.3-1.64-.54-3.38-.73-5.24-.09.91-.21,1.82-.35,2.75s-.31,1.91-.51,3l-.37,1.93Z" transform="translate(-277.21 -314.75)"/><path class="cls-1" d="M374.73,339.81h1.73l1.33,6.16c.17.76.31,1.53.45,2.31s.25,1.58.36,2.42a1.48,1.48,0,0,0,0-.26,1.05,1.05,0,0,0,0-.13l.29-1.73.25-1.64.22-1.08,1.19-6.05h1.75l1.39,15.08H381.8l-.34-5.12c0-.26,0-.48,0-.67s0-.34,0-.47l-.09-2-.05-1.86a.32.32,0,0,0,0-.08,1.16,1.16,0,0,0,0-.17l-.05.3c-.05.36-.1.67-.14.94s-.08.49-.11.68l-.26,1.37-.09.52-1.27,6.58H378l-1.19-5.68c-.17-.75-.31-1.51-.44-2.28s-.24-1.58-.34-2.43l-.59,10.39h-1.91Z" transform="translate(-277.21 -314.75)"/><path class="cls-1" d="M385.42,339.81h2v15.08h-2Z" transform="translate(-277.21 -314.75)"/><path class="cls-1" d="M389.78,339.81h1.89l2,6a54,54,0,0,1,1.55,5.44c-.16-1.17-.28-2.22-.36-3.17s-.11-1.83-.11-2.66v-5.63h2v15.08H394.9l-2.27-6.79c-.21-.63-.41-1.27-.59-1.94s-.36-1.36-.52-2.09a3,3,0,0,0-.06-.33l-.1-.45c0,.17,0,.31.05.43s0,.23,0,.31l.1,1.54.11,1.86c0,.1,0,.23,0,.38v.51l.11,6.57h-2Z" transform="translate(-277.21 -314.75)"/><path class="cls-1" d="M402.74,347h3.7v.59c0,2.93-.26,4.92-.78,5.95a2.86,2.86,0,0,1-2.85,1.58,3.19,3.19,0,0,1-3.07-1.76q-.92-1.76-.91-5.91,0-4.74,1-6.32a3.19,3.19,0,0,1,2.89-1.47,3.47,3.47,0,0,1,2.31.71,4.75,4.75,0,0,1,1.31,2.37l-1.9.8a6.74,6.74,0,0,0-.28-1,2.28,2.28,0,0,0-.34-.63,1.36,1.36,0,0,0-1.11-.45c-.68,0-1.14.41-1.39,1.25a19.67,19.67,0,0,0-.37,4.69,18.05,18.05,0,0,0,.38,4.64,1.45,1.45,0,0,0,1.43,1.21,1.37,1.37,0,0,0,1.36-.86,7.84,7.84,0,0,0,.4-2.95v-.71h-1.77Z" transform="translate(-277.21 -314.75)"/></svg>