<svg id="Ebene_1" data-name="Ebene 1" xmlns="http://www.w3.org/2000/svg" viewBox="0 0 180.67 145.05"><defs><style>.cls-1{fill:#010101;}.cls-2{fill:#010202;}.cls-3{fill:#e8e7e7;}.cls-4{fill:#fff;}.cls-5{fill:#020203;}.cls-6{fill:#040405;}</style></defs><path class="cls-1" d="M318.64,336.52c-.66.63-.84.83-1,1-.9.69-1.46,2.7-2.92,1.39s.81-1.77,1.12-2.74c.17-.53,1.13-.78.69-1.52a2.11,2.11,0,0,0-2-1.08c-3.8,0-7.53.94-11.57.45,1.55,7.54.92,14.78,0,22a9.79,9.79,0,0,0-.07,1.08c-.19,8.32-.36,16.64-.59,25-.05,1.48.08,2.21,1.94,2.2,3.51,0,7.05.69,10.54.47,2.36-.14,2.28.87,2.24,2.44a68.61,68.61,0,0,0,2.21,20.88c1.1,3.86,2.72,7.56,3.9,11.41s-.07,5.46-4,5.46c-10.39,0-20.78-.18-31.17,0-15.18.31-30.32,1.74-45.51,1.76a31,31,0,0,1-5.37-.17,2.38,2.38,0,0,1-2.14-3.14c2.17-10.12,3.05-20.43,4.64-30.64.34-2.23,1.61-4.83-.26-7.19-.45-.57.2-1.18.85-1.41a9.1,9.1,0,0,1,3.16-.6c11.45.24,22.89-.68,34.34-.27,1,0,2,.1,3.31.17-1-1.34-1.86-2.5-2.74-3.65-.52-.68-1.56-1.29-.61-2.27,1.19-1.23,1.64.26,2.34.77l.82.58c.47-4.13.88-8.11,1.4-12.07.88-6.77,1.21-13.62,2.57-20.34.23-1.12.14-1.79-1.2-1.67-6.44.57-13-.4-19.38,1.11-.93.22-1,.28-1.07,1-.42,4.22-1,8.42-1.28,12.64-.17,3.15-2.12,3.82-4.53,3.59-9.81-.94-19.68-1-29.46-2.31-5.9-.77-11.85-1.23-17.79-1.62-2.26-.15-2.92-1.09-2.95-3.2-.1-6.33.77-12.59,1.28-18.87.35-4.23.79-8.47.84-12.71,0-2.72,1.28-3.39,3.65-3.42,10.69-.11,21.35.28,32,.89,5.87.34,11.75.58,17.62.64,2.18,0,3,.82,2.79,2.86-.52,5.28-.94,10.59-1.67,15.84-.3,2.13.58,2.19,2.09,2,6.55-.91,13.18,0,19.74-.88,1.47-.19,2.45.5,1.92,2.53-1.51,5.85-1.73,11.91-2.47,17.89-.68,5.6-1.31,11.21-2,17,1.4-.1,2.12-1.2,3.08-1.87.69-.47,1.54-.86,2.16,0s-.13,1.32-.69,1.78c-1.46,1.18-2.93,2.34-4.89,3.91a156.85,156.85,0,0,1,16,.56c1.58.09,1.46-.79,1.48-1.83.16-7.41.3-14.82.57-22.23.15-4.15.46-8.29.83-12.43a44.59,44.59,0,0,0-.78-12.89c-.34-1.69-.56-3,2.15-2.81a37.7,37.7,0,0,0,7.54-.47,18.27,18.27,0,0,1,8.21.56c-.71-2.09-2.26-3.11-3.51-4.35-.52-.53-1.21-1-.63-1.79s1.47-.43,2.1.06c.91.71,1.72,1.54,2.87,2.58.39-3.67.89-7,1.06-10.32.16-3.08,2-3.79,4.53-3.68,3.88.17,7.76.45,11.64.71,7.21.47,14.41,1.06,21.62,1.4,8.75.41,17.49.9,26.23,1.54,2.55.19,3.18,1.39,3.21,3.64.1,8.62-1.48,17-3,25.44a27,27,0,0,1-1.22,5.22,2.13,2.13,0,0,1-2.38,1.63c-8.95-1-17.94.08-26.88-.65-11.18-.92-22.39-1.08-33.6-1.41-2.55-.08-3.36-1.09-3.1-3.5C317.94,344.74,318.24,340.9,318.64,336.52Z" transform="translate(-207.04 -281.7)"/><path class="cls-1" d="M331.62,301c-2.8-4.06-6.89-6.51-11.15-8.68-7.47-3.81-15.56-5-23.83-5-15,0-28.78,4-40.95,12.92a22,22,0,0,0-8.23,10.51c-.56,1.63-1.66,2.44-3.31,1.89a2.77,2.77,0,0,1-2-3.64,20.38,20.38,0,0,1,4.44-7.65c7.09-8.36,16.54-12.71,26.73-16a71.35,71.35,0,0,1,42.82-.73A40.52,40.52,0,0,1,327.6,290a41.38,41.38,0,0,1,9.56,8.5c.81-1.59,1.38-3,2.17-4.22,1.23-1.91,3.46-2.5,4.88-1.26,1.75,1.52,1.37,3-.18,4.6-1.84,1.94-2.1,4.71-3,7.12-1.89,4.93-3.49,5.7-8.38,3.79-2.71-1.05-5.15-2.78-8.35-2.49-1.35.11-2.12-1.24-2-2.72.12-1.81,1.2-2.69,2.92-3,2.1-.39,3.77,1,5.71,1.26C331.3,301.58,332.06,302,331.62,301Z" transform="translate(-207.04 -281.7)"/><path class="cls-2" d="M326.17,396.32c7.76-7.31,12.72-15.62,14.67-25.63.43-2.21.69-4.45.91-6.69.19-1.94.78-3.5,3.06-3.24s2.58,2.11,2.44,3.88a52.37,52.37,0,0,1-16.17,34.67c-.38.37-.73.78-1.38,1.48,2.06.83,3.89,1.64,5.77,2.29s2.66,2,2.09,3.77c-.62,1.95-2.26,2.25-4,1.53-3.72-1.55-7.41-3.18-11.08-4.85a3.79,3.79,0,0,1-2.36-4.16c.42-4.12.75-8.26,1.2-12.38.18-1.6,1.14-2.81,2.81-2.75s2.57,1.26,2.65,3.1C326.93,390.17,326.18,392.91,326.17,396.32Z" transform="translate(-207.04 -281.7)"/><path class="cls-2" d="M226.83,375.46c-1.69,8.34.94,15.78,3.24,23.25a11.83,11.83,0,0,0,1.77,3c.89,1.29,1,2.56-.16,3.66s-2.64,1-3.91-.07a7.39,7.39,0,0,1-2.19-3.05,64.85,64.85,0,0,1-4.88-21.7,42.83,42.83,0,0,1,.43-4.91,25.37,25.37,0,0,0-4.47,5c-1,1.57-2.33,2.12-3.9,1.19a2.72,2.72,0,0,1-.79-4.23,62.77,62.77,0,0,1,9.24-9.9c1.24-1.13,2.93-.8,4.29.11,2.93,1.94,5.83,3.93,8.68,6,1.31,1,2.27,2.27,1.29,4s-2.33,1.92-3.92.87S228.57,376.62,226.83,375.46Z" transform="translate(-207.04 -281.7)"/><path class="cls-3" d="M331.62,301c.87.05,1,1,2,1.46a3.39,3.39,0,0,1-2.76-.84Z" transform="translate(-207.04 -281.7)"/><path class="cls-4" d="M237.11,424.43c2.08-12.09,3.69-24,5.16-35.95.25-2,.86-2.8,3.09-2.78,15.17.15,30.34-.43,45.5.21,7.48.32,15,.79,22.45,1.14,1,0,1.55.08,1.49,1.37a65,65,0,0,0,5.69,29.88c.25.57.32,1.21.53,1.8.77,2.09,0,2.72-2.14,2.67-11.07-.29-22.15-.49-33.22,0-14.45.59-28.87,1.78-43.35,1.71Z" transform="translate(-207.04 -281.7)"/><path class="cls-4" d="M367,351.58c-14.56-.56-30.09-1.17-45.63-1.73-1.27-.05-1.61-.27-1.52-1.68.58-9.26,2.19-18.42,2.59-27.7.16-3.7.47-3.78,4-3.53q11.5.8,23,1.44c10.45.58,20.92,1.07,31.38,1.63,1.07.06,2.14.47,3.2.44,1.31,0,1.41.57,1.44,1.63.14,5.17-.67,10.26-1.39,15.35-.52,3.64-1.43,7.22-1.84,10.86-.3,2.61-1.75,3.29-4,3.29Z" transform="translate(-207.04 -281.7)"/><path class="cls-4" d="M222.25,323.23c9.53.36,19.83.62,30.11,1.19,3,.17,5.95.51,8.92.41,1.51-.06,1.89.5,1.74,1.86-.57,5-1.09,10-1.67,15s-1.35,10-1.52,15c-.14,4-.18,4.25-4.06,4-11-.81-22-1.14-32.93-2.61-3.93-.52-7.89-.88-11.84-1.11-1.46-.08-1.91-.5-1.71-1.88.56-4,.3-8,1.14-12,.49-2.34.25-5.08.42-7.64.24-3.51.5-7,.53-10.54,0-1.58.7-1.74,2-1.72C216.06,323.28,218.78,323.23,222.25,323.23Z" transform="translate(-207.04 -281.7)"/><path class="cls-1" d="M264.19,407.27c0,5.16,0,5.18-4.22,6.23-3,.74-6.09,1.43-9.15,2.1-2.33.51-3.31-.34-2.89-2.75A72.24,72.24,0,0,0,249,401.29a4,4,0,0,1,4.13-4c1.9-.08,3.8-.08,5.7-.09,3.06,0,4.25.91,4.73,3.95C263.93,403.45,264,405.81,264.19,407.27Z" transform="translate(-207.04 -281.7)"/><path class="cls-1" d="M304.39,411.4a30.47,30.47,0,0,1-6.46-.6c-1.18-.2-2.38-.75-2.17-2,.66-3.9-.12-7.71-.45-11.55-.1-1.19.36-1.51,1.41-1.77,3.53-.88,7-.27,10.48.27,2.81.44,3.57,2.69,3.76,5.17a58.43,58.43,0,0,0,.5,5.9c.51,2.95-.78,4.39-3.81,4.53C306.57,411.44,305.48,411.4,304.39,411.4Z" transform="translate(-207.04 -281.7)"/><path class="cls-5" d="M278.69,410.23a5,5,0,0,1-4.62-5c-.08-2.7,3.05-6.2,5.67-6.34,1.6-.08,6.06,3.8,6.13,5.34C286,407,282.09,410.24,278.69,410.23Z" transform="translate(-207.04 -281.7)"/><path class="cls-6" d="M335.21,333.41l37.55,2.85c.81.06,1.85-.07,1.77,1.1s-1.2,1.15-2.09,1.09c-9-.68-18-1.41-27-2.07-4-.29-7.94-.45-11.91-.68a17.69,17.69,0,0,1-2.42-.21c-.62-.11-1.3-.34-1.23-1.17s.69-1.22,1.53-1.14c1.26.12,2.52.28,3.78.42Z" transform="translate(-207.04 -281.7)"/><path class="cls-2" d="M247.87,333.6c-8.55-.68-17.22-.56-25.89-.61-3.23,0-4.16-1-4-4,.12-2.4,1.75-3.63,4.41-3.45,7.66.52,15.33.89,23,1.55,3,.26,5.93.43,8.91.5,1.9,0,2.28,1.35,2.34,3s-.25,2.58-2.19,2.57C252.27,333.13,250.13,333.43,247.87,333.6Z" transform="translate(-207.04 -281.7)"/><path class="cls-1" d="M243,346.48c.33,2.36-.9,3.75-3.14,4.49-4,1.33-8.22,1.58-12.34,2.28-2,.33-2.62-1-2.38-2.66a72.87,72.87,0,0,0,.43-11.34c0-1.69.88-2.22,2.18-1.82,2.73.82,5.56.63,8.3.72,5.88.17,5.94,1.92,6.94,7.14A6.62,6.62,0,0,1,243,346.48Z" transform="translate(-207.04 -281.7)"/></svg>